<svg fill="none" xmlns="http://www.w3.org/2000/svg" viewBox="0 0 24 24"><path d="M11.445 2.462 C 11.153 2.525,5.704 4.688,5.220 4.933 C 4.667 5.213,4.139 5.813,3.922 6.411 C 3.758 6.864,3.753 6.962,3.770 9.580 C 3.787 12.361,3.791 12.413,4.061 13.466 C 4.412 14.837,5.117 16.224,6.087 17.449 C 6.532 18.012,7.714 19.184,8.320 19.664 C 9.353 20.482,10.582 21.234,11.260 21.462 C 11.713 21.614,12.246 21.614,12.697 21.463 C 13.799 21.091,15.968 19.528,17.151 18.251 C 18.844 16.425,19.714 14.770,20.127 12.591 C 20.207 12.167,20.213 11.986,20.229 9.600 C 20.248 6.939,20.243 6.848,20.070 6.400 C 19.831 5.779,19.334 5.213,18.780 4.933 C 18.266 4.673,12.843 2.525,12.537 2.460 C 12.196 2.388,11.782 2.388,11.445 2.462 M15.173 5.085 C 17.112 5.861,18.143 6.293,18.253 6.377 C 18.457 6.532,18.618 6.763,18.687 7.000 C 18.763 7.258,18.761 11.463,18.685 11.980 C 18.430 13.720,17.826 15.071,16.643 16.550 C 15.837 17.557,14.549 18.677,13.312 19.446 C 12.358 20.038,12.068 20.147,11.735 20.039 C 11.307 19.901,9.991 19.074,9.220 18.458 C 8.642 17.997,7.619 16.967,7.214 16.440 C 6.144 15.046,5.576 13.738,5.331 12.104 C 5.242 11.510,5.227 7.293,5.313 7.000 C 5.379 6.773,5.536 6.543,5.732 6.385 C 5.836 6.302,6.802 5.896,8.812 5.092 C 11.593 3.979,11.753 3.920,11.999 3.920 C 12.245 3.920,12.403 3.978,15.173 5.085 M11.660 7.262 C 11.616 7.272,11.481 7.300,11.360 7.324 C 11.067 7.381,10.554 7.633,10.270 7.858 C 9.650 8.351,9.240 9.203,9.240 10.000 C 9.240 10.797,9.651 11.651,10.270 12.141 C 10.501 12.323,11.081 12.640,11.185 12.640 C 11.231 12.640,11.240 12.927,11.241 14.390 C 11.242 16.006,11.247 16.152,11.316 16.300 C 11.594 16.904,12.406 16.904,12.684 16.300 C 12.753 16.152,12.758 16.006,12.759 14.390 C 12.760 12.927,12.769 12.640,12.815 12.640 C 12.919 12.640,13.499 12.323,13.730 12.141 C 14.347 11.653,14.760 10.794,14.760 10.000 C 14.760 9.206,14.347 8.347,13.730 7.859 C 13.458 7.644,13.027 7.421,12.720 7.338 C 12.497 7.278,11.807 7.228,11.660 7.262 M12.526 8.877 C 12.759 8.997,13.007 9.244,13.124 9.473 C 13.203 9.627,13.220 9.720,13.220 10.000 C 13.220 10.418,13.124 10.635,12.812 10.920 C 12.569 11.142,12.321 11.240,12.000 11.240 C 11.679 11.240,11.431 11.142,11.188 10.920 C 10.876 10.635,10.780 10.418,10.780 10.000 C 10.780 9.722,10.797 9.627,10.873 9.480 C 11.037 9.165,11.345 8.895,11.646 8.804 C 11.866 8.736,12.327 8.775,12.526 8.877 " stroke="none" fill-rule="evenodd"/></svg>