<svg fill="none" xmlns="http://www.w3.org/2000/svg" viewBox="0 0 24 24"><path d="M9.805 3.280 C 9.414 3.372,9.172 3.799,9.281 4.204 C 9.340 4.422,9.569 4.657,9.781 4.715 C 9.868 4.740,10.232 4.760,10.590 4.760 L 11.240 4.760 11.240 5.519 C 11.240 6.275,11.240 6.279,11.150 6.295 C 11.101 6.304,10.840 6.349,10.572 6.396 C 9.371 6.602,8.075 7.201,7.100 8.000 C 6.718 8.314,6.062 8.996,5.793 9.361 C 5.301 10.027,4.929 10.740,4.664 11.525 C 4.344 12.473,4.240 13.202,4.240 14.490 L 4.240 15.240 3.610 15.241 C 2.749 15.242,2.580 15.290,2.373 15.595 C 2.105 15.988,2.324 16.588,2.781 16.715 C 3.007 16.778,20.993 16.778,21.219 16.715 C 21.676 16.588,21.895 15.988,21.627 15.595 C 21.420 15.290,21.251 15.242,20.390 15.241 L 19.760 15.240 19.760 14.487 C 19.760 13.214,19.653 12.464,19.336 11.525 C 18.787 9.897,17.724 8.513,16.280 7.542 C 15.485 7.009,14.358 6.556,13.428 6.396 C 13.160 6.349,12.900 6.304,12.850 6.295 C 12.760 6.279,12.760 6.275,12.760 5.519 L 12.760 4.760 13.410 4.760 C 13.768 4.760,14.132 4.740,14.219 4.715 C 14.307 4.691,14.444 4.605,14.525 4.524 C 14.938 4.111,14.742 3.409,14.177 3.278 C 13.985 3.234,9.994 3.235,9.805 3.280 M12.829 7.820 C 14.240 8.020,15.408 8.601,16.403 9.597 C 17.027 10.220,17.443 10.840,17.763 11.620 C 18.119 12.491,18.238 13.188,18.239 14.410 L 18.240 15.240 12.000 15.240 L 5.760 15.240 5.761 14.410 C 5.762 13.217,5.867 12.573,6.200 11.709 C 6.385 11.232,6.677 10.704,6.991 10.280 C 7.276 9.895,7.895 9.276,8.280 8.991 C 9.575 8.031,11.261 7.597,12.829 7.820 M2.805 18.280 C 2.414 18.372,2.172 18.799,2.281 19.204 C 2.340 19.422,2.569 19.657,2.781 19.715 C 3.007 19.778,20.993 19.778,21.219 19.715 C 21.307 19.691,21.444 19.605,21.525 19.524 C 21.938 19.111,21.742 18.409,21.177 18.278 C 20.983 18.233,2.996 18.235,2.805 18.280 " stroke="none" fill-rule="evenodd" fill="currentColor"/></svg>