<svg xmlns="http://www.w3.org/2000/svg" viewBox="0 0 24 24"><path d="M4.617 2.283q-.873.101-1.552.781a2.74 2.74 0 0 0-.696 1.116l-.109.32v6l.109.32c.151.445.362.783.695 1.116.335.334.675.546 1.116.693.314.104.344.107 1.559.122.852.011 1.287.002 1.391-.029.19-.057.425-.261.496-.43a.78.78 0 0 0-.277-.918l-.169-.114-1.26-.02c-1.421-.023-1.415-.021-1.751-.335a1.7 1.7 0 0 1-.291-.373l-.098-.192V4.66l.093-.18c.125-.24.37-.487.6-.604l.187-.096h14.68l.187.096c.23.117.475.364.6.604l.093.18v5.68l-.098.192a1.7 1.7 0 0 1-.291.373c-.336.314-.33.312-1.751.335l-1.26.02-.169.114a.78.78 0 0 0-.277.918c.071.169.306.373.496.43.104.031.539.04 1.391.029 1.215-.015 1.245-.018 1.559-.122a2.7 2.7 0 0 0 1.116-.693c.333-.333.544-.671.695-1.116l.109-.32v-6l-.109-.32a2.74 2.74 0 0 0-.696-1.116c-.472-.471-.961-.709-1.606-.783-.426-.049-14.293-.047-14.712.002M5.7 7.316a.745.745 0 0 0 .029 1.382c.132.055.835.062 6.271.062s6.139-.007 6.271-.062a.748.748 0 0 0 0-1.396c-.132-.055-.835-.062-6.28-.061-5.875.001-6.138.004-6.291.075m4.6 3.956a.77.77 0 0 0-.438.342l-.102.173v2.599c0 2.613-.015 2.932-.146 3.186-.101.195-.341.43-.551.539-.172.089-.267.107-.623.12-.4.015-.43.011-.638-.099a.99.99 0 0 1-.528-.73c-.113-.641.137-1.076.656-1.141a3 3 0 0 0 .333-.065c.24-.074.498-.441.496-.705-.002-.252-.247-.596-.492-.688-.286-.109-.911-.01-1.323.208-.313.165-.767.619-.931.929-.211.401-.264.682-.243 1.3.022.658.104.945.393 1.377.243.362.558.652.913.837.382.2.647.268 1.145.294.963.05 1.704-.244 2.33-.927.291-.318.504-.712.61-1.125.075-.293.079-.453.079-3.107v-2.798l-.087-.155a.9.9 0 0 0-.242-.257c-.161-.107-.463-.16-.611-.107m3.398.043a.8.8 0 0 0-.419.477c-.03.103-.04 1.295-.031 3.928l.012 3.78.109.32c.151.445.362.783.695 1.116.335.335.675.546 1.116.692.289.096.38.107.94.109.493.002.669-.012.86-.071.41-.125.7-.305 1.041-.645.506-.507.687-.926.727-1.683.029-.555-.029-.907-.214-1.292a2.11 2.11 0 0 0-1.847-1.166.746.746 0 0 0-.696 1.048c.106.241.3.382.593.434.343.06.449.112.559.273.086.127.097.187.097.516 0 .419-.044.559-.245.788-.206.235-.387.299-.843.3-.294.001-.442-.019-.605-.08-.258-.096-.542-.362-.674-.63l-.093-.189-.02-3.78c-.018-3.419-.026-3.791-.086-3.9-.2-.363-.614-.509-.976-.345"/></svg>