<svg fill="none" xmlns="http://www.w3.org/2000/svg" viewBox="0 0 24 24"><path d="M4.617 2.283 C 4.034 2.351,3.519 2.610,3.065 3.064 C 2.732 3.396,2.521 3.735,2.369 4.180 L 2.260 4.500 2.260 7.500 L 2.260 10.500 2.369 10.820 C 2.520 11.265,2.731 11.603,3.064 11.936 C 3.399 12.270,3.739 12.482,4.180 12.629 C 4.494 12.733,4.524 12.736,5.739 12.751 C 6.591 12.762,7.026 12.753,7.130 12.722 C 7.320 12.665,7.555 12.461,7.626 12.292 C 7.760 11.972,7.638 11.571,7.349 11.374 L 7.180 11.260 5.920 11.240 C 4.499 11.217,4.505 11.219,4.169 10.905 C 4.063 10.805,3.932 10.638,3.878 10.532 L 3.780 10.340 3.780 7.500 L 3.780 4.660 3.873 4.480 C 3.998 4.240,4.243 3.993,4.473 3.876 L 4.660 3.780 12.000 3.780 L 19.340 3.780 19.527 3.876 C 19.757 3.993,20.002 4.240,20.127 4.480 L 20.220 4.660 20.220 7.500 L 20.220 10.340 20.122 10.532 C 20.068 10.638,19.937 10.805,19.831 10.905 C 19.495 11.219,19.501 11.217,18.080 11.240 L 16.820 11.260 16.651 11.374 C 16.362 11.571,16.240 11.972,16.374 12.292 C 16.445 12.461,16.680 12.665,16.870 12.722 C 16.974 12.753,17.409 12.762,18.261 12.751 C 19.476 12.736,19.506 12.733,19.820 12.629 C 20.261 12.482,20.601 12.270,20.936 11.936 C 21.269 11.603,21.480 11.265,21.631 10.820 L 21.740 10.500 21.740 7.500 L 21.740 4.500 21.631 4.180 C 21.479 3.735,21.268 3.396,20.935 3.064 C 20.463 2.593,19.974 2.355,19.329 2.281 C 18.903 2.232,5.036 2.234,4.617 2.283 M5.700 7.316 C 5.084 7.600,5.101 8.436,5.729 8.698 C 5.861 8.753,6.564 8.760,12.000 8.760 C 17.436 8.760,18.139 8.753,18.271 8.698 C 18.911 8.431,18.911 7.569,18.271 7.302 C 18.139 7.247,17.436 7.240,11.991 7.241 C 6.116 7.242,5.853 7.245,5.700 7.316 M10.300 11.272 C 10.096 11.344,9.955 11.454,9.862 11.614 L 9.760 11.787 9.760 14.386 C 9.760 16.999,9.745 17.318,9.614 17.572 C 9.513 17.767,9.273 18.002,9.063 18.111 C 8.891 18.200,8.796 18.218,8.440 18.231 C 8.040 18.246,8.010 18.242,7.802 18.132 C 7.514 17.981,7.332 17.729,7.274 17.402 C 7.161 16.761,7.411 16.326,7.930 16.261 C 8.046 16.246,8.195 16.217,8.263 16.196 C 8.503 16.122,8.761 15.755,8.759 15.491 C 8.757 15.239,8.512 14.895,8.267 14.803 C 7.981 14.694,7.356 14.793,6.944 15.011 C 6.631 15.176,6.177 15.630,6.013 15.940 C 5.802 16.341,5.749 16.622,5.770 17.240 C 5.792 17.898,5.874 18.185,6.163 18.617 C 6.406 18.979,6.721 19.269,7.076 19.454 C 7.458 19.654,7.723 19.722,8.221 19.748 C 9.184 19.798,9.925 19.504,10.551 18.821 C 10.842 18.503,11.055 18.109,11.161 17.696 C 11.236 17.403,11.240 17.243,11.240 14.589 L 11.240 11.791 11.153 11.636 C 11.105 11.551,10.996 11.435,10.911 11.379 C 10.750 11.272,10.448 11.219,10.300 11.272 M13.698 11.315 C 13.503 11.404,13.337 11.592,13.279 11.792 C 13.249 11.895,13.239 13.087,13.248 15.720 L 13.260 19.500 13.369 19.820 C 13.520 20.265,13.731 20.603,14.064 20.936 C 14.399 21.271,14.739 21.482,15.180 21.628 C 15.469 21.724,15.560 21.735,16.120 21.737 C 16.613 21.739,16.789 21.725,16.980 21.666 C 17.390 21.541,17.680 21.361,18.021 21.021 C 18.527 20.514,18.708 20.095,18.748 19.338 C 18.777 18.783,18.719 18.431,18.534 18.046 C 18.204 17.358,17.447 16.880,16.687 16.880 C 16.134 16.880,15.770 17.429,15.991 17.928 C 16.097 18.169,16.291 18.310,16.584 18.362 C 16.927 18.422,17.033 18.474,17.143 18.635 C 17.229 18.762,17.240 18.822,17.240 19.151 C 17.240 19.570,17.196 19.710,16.995 19.939 C 16.789 20.174,16.608 20.238,16.152 20.239 C 15.858 20.240,15.710 20.220,15.547 20.159 C 15.289 20.063,15.005 19.797,14.873 19.529 L 14.780 19.340 14.760 15.560 C 14.742 12.141,14.734 11.769,14.674 11.660 C 14.474 11.297,14.060 11.151,13.698 11.315 " stroke="none" fill-rule="evenodd"/></svg>