<svg xmlns="http://www.w3.org/2000/svg" viewBox="0 0 24 24"><path d="M4.617 2.283q-.873.101-1.552.781a2.74 2.74 0 0 0-.696 1.116l-.109.32v6l.109.32c.151.445.362.783.695 1.116s.671.544 1.116.695l.32.109h15l.32-.109a2.74 2.74 0 0 0 1.116-.695c.333-.333.544-.671.695-1.116l.109-.32v-6l-.109-.32a2.74 2.74 0 0 0-.696-1.116c-.472-.471-.961-.709-1.606-.783-.426-.049-14.293-.047-14.712.002m13.56 4.995a.739.739 0 0 1 .348 1.246.84.84 0 0 1-.306.191c-.225.063-12.213.063-12.438 0-.212-.058-.441-.293-.5-.511-.109-.405.133-.832.524-.924.191-.045 12.178-.047 12.372-.002M10.42 13.26a2 2 0 0 1-.149.037c-.147.032-.39.251-.457.411-.042.101-.054.472-.054 1.703 0 1.944-.018 2.067-.35 2.434-.248.275-.482.368-.97.386-.4.015-.43.011-.638-.099a.99.99 0 0 1-.528-.73c-.113-.641.137-1.076.656-1.141a3 3 0 0 0 .333-.065c.24-.074.498-.441.496-.705-.002-.252-.247-.596-.492-.688-.286-.109-.911-.01-1.323.208-.313.165-.767.619-.931.929-.211.401-.264.682-.243 1.3.022.658.104.945.393 1.377.243.362.558.652.913.837.382.2.647.268 1.145.294.963.05 1.704-.244 2.33-.927.291-.318.504-.712.61-1.125.073-.285.079-.448.079-2.08 0-1.154-.015-1.81-.043-1.883a.9.9 0 0 0-.357-.391c-.108-.055-.355-.104-.42-.082m3.4.016a.73.73 0 0 0-.541.527c-.029.108-.039 1.048-.031 2.928l.013 2.769.108.32c.151.444.362.783.695 1.116.335.335.675.546 1.116.692.289.096.38.107.94.109.493.002.669-.012.86-.071.41-.125.7-.305 1.041-.645.506-.507.687-.926.727-1.683.029-.555-.029-.907-.214-1.292a2.11 2.11 0 0 0-1.847-1.166.746.746 0 0 0-.696 1.048c.106.241.3.382.593.434.343.06.449.112.559.273.086.127.097.187.097.516 0 .419-.044.559-.245.788-.206.235-.387.299-.843.3-.294.001-.442-.019-.605-.08-.258-.096-.542-.362-.674-.63l-.093-.189-.02-2.78c-.021-2.959-.014-2.852-.215-3.074a.79.79 0 0 0-.725-.21"/></svg>