<svg xmlns="http://www.w3.org/2000/svg" viewBox="0 0 24 24"><path d="M4.656 2.282a2.75 2.75 0 0 0-2.112 1.495c-.294.601-.284.466-.284 3.723 0 2.7.005 2.94.073 3.18a2.82 2.82 0 0 0 1.987 1.987c.247.069.632.073 7.68.073 7.07 0 7.432-.003 7.68-.073a2.83 2.83 0 0 0 1.987-1.987c.068-.241.073-.471.073-3.18s-.005-2.939-.073-3.18a2.8 2.8 0 0 0-1.465-1.782c-.602-.297.047-.275-8.042-.282-3.993-.004-7.37.008-7.504.026m13.717 5.073c.242.151.36.363.36.648 0 .2-.019.267-.117.406-.064.092-.18.204-.257.249-.138.082-.163.082-6.359.082s-6.221 0-6.359-.082a1 1 0 0 1-.257-.249c-.286-.406-.054-1.014.431-1.131.069-.017 2.888-.028 6.265-.024l6.14.006zM10.42 13.26a2 2 0 0 1-.149.037c-.121.027-.366.226-.443.358-.035.062-.054.576-.068 1.865-.019 1.711-.023 1.787-.105 1.965a1.42 1.42 0 0 1-.592.626c-.167.085-.272.107-.589.121-.233.01-.441-.001-.527-.03a1.04 1.04 0 0 1-.567-.485c-.108-.196-.119-.252-.12-.58 0-.327.011-.379.107-.525a.76.76 0 0 1 .573-.352c.11-.014.255-.043.323-.064.24-.073.498-.441.496-.705-.002-.289-.307-.663-.583-.714-.226-.043-.67.014-.957.122a2.25 2.25 0 0 0-1.398 1.559c-.07.273-.081 1.025-.019 1.302a2.7 2.7 0 0 0 .79 1.358c.82.725 2.158.847 3.217.294.564-.295 1.088-.918 1.299-1.543l.111-.329.013-1.8c.007-.99.002-1.859-.012-1.931-.027-.148-.22-.387-.376-.466-.112-.056-.359-.105-.424-.083m3.391.018a.88.88 0 0 0-.481.374c-.065.118-.07.338-.07 2.948 0 2.603.006 2.84.073 3.08.219.784.75 1.436 1.447 1.777.459.225.726.281 1.36.282.477.001.605-.013.86-.093a2.5 2.5 0 0 0 1.36-1.02c.467-.71.533-1.868.151-2.632-.495-.99-2.005-1.475-2.458-.79a.78.78 0 0 0 .033.895c.11.139.33.246.578.279.428.058.576.256.576.768-.001.405-.046.56-.228.772-.217.254-.394.32-.86.321-.64.002-1.036-.216-1.274-.7l-.098-.199-.02-2.78c-.02-2.711-.022-2.783-.102-2.919a.81.81 0 0 0-.847-.363"/></svg>