<svg xmlns="http://www.w3.org/2000/svg" viewBox="0 0 24 24"><path d="M4.617 2.283q-.873.101-1.552.781a2.74 2.74 0 0 0-.696 1.116l-.109.32v6l.109.32c.151.445.362.783.695 1.116.335.334.675.546 1.116.693.314.104.344.107 1.559.122 1.36.018 1.449.007 1.688-.202a.716.716 0 0 0 .06-1.043c-.23-.243-.236-.244-1.587-.266-1.151-.019-1.253-.026-1.42-.104a1.45 1.45 0 0 1-.607-.608l-.093-.188V4.66l.093-.188a1.43 1.43 0 0 1 .599-.599l.188-.093h14.68l.188.093c.239.118.481.36.599.599l.093.188v5.68l-.093.188a1.45 1.45 0 0 1-.607.608c-.167.078-.269.085-1.42.104-1.351.022-1.357.023-1.587.266a.716.716 0 0 0 .06 1.043c.239.209.328.22 1.688.202 1.215-.015 1.245-.018 1.559-.122a2.7 2.7 0 0 0 1.116-.693c.333-.333.544-.671.695-1.116l.109-.32v-6l-.109-.32a2.74 2.74 0 0 0-.696-1.116c-.472-.471-.961-.709-1.606-.783-.426-.049-14.293-.047-14.712.002M5.805 7.28c-.391.092-.633.519-.524.924.059.218.288.453.5.511.225.063 12.213.063 12.438 0a.84.84 0 0 0 .306-.191.739.739 0 0 0-.348-1.246c-.194-.045-12.181-.043-12.372.002m4.615 3.98a2 2 0 0 1-.149.037c-.147.032-.39.251-.457.411-.043.104-.054.632-.054 2.703 0 2.587-.015 2.907-.146 3.161-.101.195-.341.43-.551.539-.172.089-.267.107-.623.12-.4.015-.43.011-.638-.099a.99.99 0 0 1-.528-.73c-.113-.641.137-1.076.656-1.141a3 3 0 0 0 .333-.065c.24-.074.498-.441.496-.705-.002-.252-.247-.596-.492-.688-.286-.109-.911-.01-1.323.208-.313.165-.767.619-.931.929-.211.401-.264.682-.243 1.3.022.658.104.945.393 1.377.243.362.558.652.913.837.382.2.647.268 1.145.294.963.05 1.704-.244 2.33-.927.291-.318.504-.712.61-1.125.075-.293.079-.453.079-3.08 0-1.86-.014-2.808-.043-2.883a.9.9 0 0 0-.357-.391c-.108-.055-.355-.104-.42-.082m3.4.016a.73.73 0 0 0-.54.525c-.029.107-.039 1.363-.031 3.928l.011 3.771.109.32c.151.445.362.783.695 1.116.335.335.675.546 1.116.692.289.096.38.107.94.109.493.002.669-.012.86-.071.41-.125.7-.305 1.041-.645.506-.507.687-.926.727-1.683.029-.555-.029-.907-.214-1.292a2.11 2.11 0 0 0-1.847-1.166.746.746 0 0 0-.696 1.048c.106.241.3.382.593.434.343.06.449.112.559.273.086.127.097.187.097.516 0 .419-.044.559-.245.788-.206.235-.387.299-.843.3-.294.001-.442-.019-.605-.08-.258-.096-.542-.362-.674-.63l-.093-.189-.02-3.78c-.021-4.035-.012-3.849-.215-4.074a.79.79 0 0 0-.725-.21" fill-rule="evenodd"/></svg>