<svg xmlns="http://www.w3.org/2000/svg" viewBox="0 0 24 24"><path d="M3.82 2.276a.73.73 0 0 0-.538.515c-.024.087-.042.63-.042 1.293v1.145l-.241.025a1.3 1.3 0 0 0-.355.084.8.8 0 0 0-.362.453c-.024.086-.041.607-.041 1.229 0 1.156.035 1.458.202 1.785.113.223.529.639.752.752.257.131.651.202 1.134.202l.428.001.012 3.85.012 3.85.111.36c.435 1.41 1.5 2.443 2.888 2.806.334.087.49.105.94.106 1.15.004 2.034-.36 2.843-1.169.426-.426.7-.834.901-1.338.287-.725.269-.34.294-6.225.021-5.028.026-5.31.096-5.5.154-.414.325-.682.645-1.004.258-.261.388-.357.661-.488a2.504 2.504 0 0 1 3.298 1.076c.293.554.278.318.292 4.446l.013 3.71-.371.001c-.822.002-1.199.127-1.616.539-.478.471-.534.705-.535 2.2 0 .667.016 1.141.044 1.239.087.315.423.54.805.541h.15v1.15c0 .716.017 1.21.045 1.309.056.204.292.44.496.496.218.061 3.22.061 3.438 0a.82.82 0 0 0 .496-.496c.028-.099.045-.593.045-1.309v-1.15h.15c.382-.001.718-.226.805-.541.028-.098.044-.572.044-1.239-.001-1.495-.057-1.729-.535-2.2-.417-.411-.794-.537-1.613-.539l-.368-.001-.012-3.85-.012-3.85-.111-.36c-.348-1.126-1.08-2.003-2.086-2.499a3.9 3.9 0 0 0-2.174-.396 3.5 3.5 0 0 0-1.175.298 4.1 4.1 0 0 0-2.137 2.192c-.287.725-.269.34-.294 6.225-.021 5.028-.026 5.31-.096 5.5a2.54 2.54 0 0 1-.645 1.004c-.539.545-1.119.767-1.892.726-.499-.027-.844-.138-1.225-.393a2.65 2.65 0 0 1-1.049-1.397c-.068-.205-.073-.475-.086-3.95l-.013-3.73.432-.001c.782-.001 1.147-.127 1.556-.535.478-.479.534-.71.535-2.204 0-.622-.017-1.143-.041-1.229a.8.8 0 0 0-.362-.453 1.3 1.3 0 0 0-.355-.084l-.241-.025V4.084c0-.663-.018-1.206-.042-1.293a.83.83 0 0 0-.373-.462c-.112-.062-.3-.07-1.765-.076-.902-.004-1.694.007-1.76.023M6.24 4.5v.74H4.76V3.76h1.48zm1 2.927c0 .564-.01.678-.066.74-.062.068-.167.073-1.667.073-1.433 0-1.608-.007-1.674-.066s-.073-.138-.073-.74V6.76h3.48zm12.927 8.399c.065.059.073.138.073.74v.674h-3.48v-.667c0-.564.01-.678.066-.74.062-.068.167-.073 1.667-.073 1.433 0 1.608.007 1.674.066M19.24 19.5v.74h-1.48v-1.48h1.48z" fill-rule="evenodd"/></svg>