<svg xmlns="http://www.w3.org/2000/svg" viewBox="0 0 24 24"><path d="M11.811 3.278a.88.88 0 0 0-.481.374c-.066.121-.071.604-.08 8.262-.008 5.846.002 8.181.033 8.299a.8.8 0 0 0 .515.506.745.745 0 0 0 .921-.517c.028-.104.038-2.771.031-8.288-.01-8.116-.01-8.134-.092-8.273a.81.81 0 0 0-.847-.363M3.664 6.063a1 1 0 0 0-.533.448L3.02 6.7l-.011 5.214c-.007 3.522.003 5.263.032 5.368.061.227.272.479.498.596l.199.102 2.698.011c3.052.012 2.954.021 3.264-.289.321-.321.3.082.3-5.702s.021-5.381-.299-5.701c-.308-.308-.213-.299-3.218-.296-2.207.002-2.69.012-2.819.06m11 0a1 1 0 0 0-.533.448l-.111.189-.011 5.214c-.007 3.522.003 5.263.032 5.368.061.227.272.479.498.596l.199.102 2.698.011c3.052.012 2.954.021 3.264-.289.321-.321.3.082.3-5.702s.021-5.381-.299-5.701c-.308-.308-.213-.299-3.218-.296-2.207.002-2.69.012-2.819.06m-6.27 5.308a.7.7 0 0 1 .339.636c0 .196-.019.264-.117.402-.184.262-.33.326-.781.344-.446.018-.617-.025-.824-.207a.712.712 0 0 1 .004-1.096.8.8 0 0 1 .256-.153c.06-.013.127-.031.149-.04s.215-.01.429-.003c.338.012.409.027.545.117m11 0a.7.7 0 0 1 .339.636c0 .196-.019.264-.117.402-.184.262-.33.326-.781.344-.446.018-.617-.025-.824-.207a.712.712 0 0 1 .004-1.096.8.8 0 0 1 .256-.153c.06-.013.127-.031.149-.04s.215-.01.429-.003c.338.012.409.027.545.117"/></svg>