<svg fill="none" xmlns="http://www.w3.org/2000/svg" viewBox="0 0 24 24"><path d="M11.820 3.276 C 11.554 3.342,11.353 3.534,11.282 3.791 C 11.222 4.007,11.225 20.003,11.285 20.219 C 11.344 20.432,11.578 20.660,11.798 20.719 C 12.198 20.827,12.610 20.599,12.718 20.209 C 12.776 20.002,12.776 3.998,12.718 3.791 C 12.670 3.617,12.514 3.419,12.365 3.343 C 12.224 3.271,11.967 3.240,11.820 3.276 M3.701 5.285 C 3.369 5.333,3.063 5.497,2.776 5.780 C 2.490 6.062,2.376 6.267,2.298 6.634 C 2.214 7.029,2.214 16.971,2.298 17.366 C 2.375 17.732,2.490 17.937,2.776 18.224 C 3.063 18.510,3.268 18.625,3.634 18.702 C 4.023 18.785,8.977 18.785,9.366 18.702 C 9.732 18.625,9.937 18.510,10.224 18.224 C 10.510 17.937,10.625 17.732,10.702 17.366 C 10.786 16.971,10.786 7.029,10.702 6.634 C 10.624 6.267,10.510 6.062,10.224 5.780 C 9.928 5.488,9.632 5.335,9.260 5.282 C 8.916 5.232,4.041 5.235,3.701 5.285 M14.701 5.285 C 14.369 5.333,14.063 5.497,13.776 5.780 C 13.490 6.062,13.376 6.267,13.298 6.634 C 13.214 7.029,13.214 16.971,13.298 17.366 C 13.375 17.732,13.490 17.937,13.776 18.224 C 14.063 18.510,14.268 18.625,14.634 18.702 C 15.023 18.785,19.977 18.785,20.366 18.702 C 20.732 18.625,20.937 18.510,21.224 18.224 C 21.510 17.937,21.625 17.732,21.702 17.366 C 21.786 16.971,21.786 7.029,21.702 6.634 C 21.624 6.267,21.510 6.062,21.224 5.780 C 20.928 5.488,20.632 5.335,20.260 5.282 C 19.916 5.232,15.041 5.235,14.701 5.285 M9.167 6.826 C 9.237 6.890,9.240 7.102,9.240 11.993 C 9.240 16.683,9.235 17.100,9.174 17.167 C 9.111 17.236,8.976 17.240,6.507 17.240 C 4.143 17.240,3.900 17.234,3.833 17.174 C 3.763 17.110,3.760 16.898,3.760 12.007 C 3.760 7.317,3.765 6.900,3.826 6.833 C 3.889 6.764,4.024 6.760,6.493 6.760 C 8.857 6.760,9.100 6.766,9.167 6.826 M20.167 6.826 C 20.237 6.890,20.240 7.102,20.240 11.993 C 20.240 16.683,20.235 17.100,20.174 17.167 C 20.111 17.236,19.976 17.240,17.507 17.240 C 15.143 17.240,14.900 17.234,14.833 17.174 C 14.763 17.110,14.760 16.898,14.760 12.007 C 14.760 7.317,14.765 6.900,14.826 6.833 C 14.889 6.764,15.024 6.760,17.493 6.760 C 19.857 6.760,20.100 6.766,20.167 6.826 M7.420 11.260 C 7.398 11.267,7.331 11.284,7.271 11.297 C 7.124 11.329,6.881 11.548,6.814 11.708 C 6.703 11.973,6.759 12.288,6.953 12.495 C 7.132 12.688,7.338 12.758,7.720 12.759 C 8.158 12.760,8.344 12.706,8.525 12.524 C 8.938 12.111,8.742 11.409,8.177 11.278 C 8.028 11.244,7.506 11.231,7.420 11.260 M18.420 11.260 C 18.398 11.267,18.331 11.284,18.271 11.297 C 18.124 11.329,17.881 11.548,17.814 11.708 C 17.703 11.973,17.759 12.288,17.953 12.495 C 18.132 12.688,18.338 12.758,18.720 12.759 C 19.158 12.760,19.344 12.706,19.525 12.524 C 19.938 12.111,19.742 11.409,19.177 11.278 C 19.028 11.244,18.506 11.231,18.420 11.260 " stroke="none" fill-rule="evenodd" fill="currentColor"/></svg>