<svg xmlns="http://www.w3.org/2000/svg" viewBox="0 0 24 24"><path d="M11.82 3.276a.73.73 0 0 0-.538.515c-.06.216-.057 16.212.003 16.428.059.213.293.441.513.5.4.108.812-.12.92-.51.058-.207.058-16.211 0-16.418a.8.8 0 0 0-.353-.448.95.95 0 0 0-.545-.067M3.701 5.285q-.496.071-.925.495c-.286.282-.4.487-.478.854-.084.395-.084 10.337 0 10.732.077.366.192.571.478.858.287.286.492.401.858.478.389.083 5.343.083 5.732 0 .366-.077.571-.192.858-.478.286-.287.401-.492.478-.858.084-.395.084-10.337 0-10.732-.078-.367-.192-.572-.478-.854-.296-.292-.592-.445-.964-.498-.344-.05-5.219-.047-5.559.003m11 0q-.496.071-.925.495c-.286.282-.4.487-.478.854-.084.395-.084 10.337 0 10.732.077.366.192.571.478.858.287.286.492.401.858.478.389.083 5.343.083 5.732 0 .366-.077.571-.192.858-.478.286-.287.401-.492.478-.858.084-.395.084-10.337 0-10.732-.078-.367-.192-.572-.478-.854-.296-.292-.592-.445-.964-.498-.344-.05-5.219-.047-5.559.003M9.167 6.826c.07.064.073.276.073 5.167 0 4.69-.005 5.107-.066 5.174-.063.069-.198.073-2.667.073-2.364 0-2.607-.006-2.674-.066-.07-.064-.073-.276-.073-5.167 0-4.69.005-5.107.066-5.174.063-.069.198-.073 2.667-.073 2.364 0 2.607.006 2.674.066m11 0c.07.064.073.276.073 5.167 0 4.69-.005 5.107-.066 5.174-.063.069-.198.073-2.667.073-2.364 0-2.607-.006-2.674-.066-.07-.064-.073-.276-.073-5.167 0-4.69.005-5.107.066-5.174.063-.069.198-.073 2.667-.073 2.364 0 2.607.006 2.674.066M7.42 11.26a2 2 0 0 1-.149.037c-.147.032-.39.251-.457.411a.74.74 0 0 0 .139.787c.179.193.385.263.767.264.438.001.624-.053.805-.235a.739.739 0 0 0-.348-1.246c-.149-.034-.671-.047-.757-.018m11 0a2 2 0 0 1-.149.037c-.147.032-.39.251-.457.411a.74.74 0 0 0 .139.787c.179.193.385.263.767.264.438.001.624-.053.805-.235a.739.739 0 0 0-.348-1.246c-.149-.034-.671-.047-.757-.018" fill-rule="evenodd"/></svg>