<svg xmlns="http://www.w3.org/2000/svg" viewBox="0 0 24 24"><path d="M11.82 3.276a.73.73 0 0 0-.538.515c-.06.216-.057 16.212.003 16.428.059.213.293.441.513.5.4.108.812-.12.92-.51.058-.207.058-16.211 0-16.418a.8.8 0 0 0-.353-.448.95.95 0 0 0-.545-.067M3.664 6.063a1 1 0 0 0-.533.448L3.02 6.7l-.011 5.214c-.007 3.522.003 5.263.032 5.368.061.227.272.479.498.596l.199.102 2.698.011c3.052.012 2.954.021 3.264-.289.321-.321.3.082.3-5.702s.021-5.381-.299-5.701c-.308-.308-.213-.299-3.218-.296-2.207.002-2.69.012-2.819.06m11 0a1 1 0 0 0-.533.448l-.111.189-.011 5.214c-.007 3.522.003 5.263.032 5.368.061.227.272.479.498.596l.199.102 2.698.011c3.052.012 2.954.021 3.264-.289.321-.321.3.082.3-5.702s.021-5.381-.299-5.701c-.308-.308-.213-.299-3.218-.296-2.207.002-2.69.012-2.819.06m-6.487 5.215a.739.739 0 0 1 .348 1.246c-.181.182-.367.236-.805.235-.382-.001-.588-.071-.767-.264a.74.74 0 0 1-.139-.787c.067-.16.31-.379.457-.411.06-.013.127-.03.149-.037.086-.029.608-.016.757.018m11 0a.739.739 0 0 1 .348 1.246c-.181.182-.367.236-.805.235-.382-.001-.588-.071-.767-.264a.74.74 0 0 1-.139-.787c.067-.16.31-.379.457-.411.06-.013.127-.03.149-.037.086-.029.608-.016.757.018" fill-rule="evenodd"/></svg>