<svg xmlns="http://www.w3.org/2000/svg" viewBox="0 0 24 24"><path d="M11.617 2.283c-.585.069-1.098.328-1.552.781a2.7 2.7 0 0 0-.693 1.116c-.091.277-.105.387-.105.82s.014.543.105.82c.146.44.357.781.692 1.116s.676.546 1.116.692c.277.091.387.105.82.105s.543-.014.82-.105c.44-.146.781-.357 1.116-.692s.546-.676.692-1.116c.091-.277.105-.387.105-.82s-.014-.543-.105-.82c-.425-1.294-1.642-2.06-3.011-1.897M3.805 8.28c-.391.092-.633.519-.524.924.059.218.288.453.5.511.111.031 1.269.045 3.809.045h3.65v3.392l-3.919 3.185c-2.573 2.091-3.943 3.229-3.988 3.314a.9.9 0 0 0-.07.357c-.001.189.018.256.118.398.168.238.346.333.626.333.191 0 .257-.021.406-.125.098-.069 1.907-1.532 4.022-3.25l3.844-3.124h4.285l.098.098.098.098v2.86c0 1.922.014 2.896.043 2.971.093.249.438.491.697.491s.604-.242.697-.491c.029-.076.043-1.079.043-3.08-.001-3.22.005-3.126-.225-3.55a2 2 0 0 0-.698-.679c-.374-.191-.453-.197-2.567-.198h-1.99v-3h3.65c2.54 0 3.698-.014 3.809-.045a.84.84 0 0 0 .306-.191.739.739 0 0 0-.348-1.246c-.194-.045-16.181-.043-16.372.002" fill-rule="evenodd"/></svg>