<svg xmlns="http://www.w3.org/2000/svg" viewBox="0 0 24 24"><path d="M9.82 3.276a.73.73 0 0 0-.538.515c-.06.216-.057 16.212.003 16.428.056.204.292.44.496.496.22.062 4.218.062 4.438 0a.82.82 0 0 0 .496-.496c.06-.216.063-16.212.003-16.428a.83.83 0 0 0-.373-.462c-.113-.063-.327-.07-2.265-.076-1.177-.003-2.194.007-2.26.023m8.81.589c-.211.12-.391.413-.389.633.001.133.111.403.238.581a.6.6 0 0 1 .081.137c0 .013-.58.024-1.29.025-.709 0-1.361.017-1.447.037a.739.739 0 0 0-.348 1.246.84.84 0 0 0 .306.191c.101.028.637.045 1.469.045.721 0 1.31.011 1.31.024a.6.6 0 0 1-.081.137c-.127.178-.237.448-.238.581-.001.185.177.504.345.618.121.082.196.1.414.1.403 0 .462-.056 1.135-1.065.611-.917.669-1.049.589-1.341-.064-.23-1.136-1.813-1.309-1.932a.77.77 0 0 0-.785-.017m-11.825.414a.77.77 0 0 0-.544.597c-.078.462.303.883.801.884.175 0 .454-.156.596-.334.109-.137.122-.182.122-.426 0-.245-.012-.288-.124-.426a1.1 1.1 0 0 0-.24-.221 1 1 0 0 0-.611-.074M13.24 12v7.24h-2.48V4.76h2.48zM4.277 6.282c-.776.126-1.241 1.005-.91 1.721a1.22 1.22 0 0 0 1.133.734A1.22 1.22 0 0 0 5.737 7.5c0-.775-.684-1.345-1.46-1.218m.385 1.056c.054.054.098.127.098.162s-.044.108-.098.162-.127.098-.162.098c-.082 0-.26-.178-.26-.26 0-.035.044-.108.098-.162s.127-.098.162-.098.108.044.162.098M18.63 9.865c-.211.12-.391.413-.389.633.001.133.111.403.238.581a.6.6 0 0 1 .081.137c0 .013-.58.024-1.29.025-.709 0-1.361.017-1.447.037a.739.739 0 0 0-.348 1.246.84.84 0 0 0 .306.191c.101.028.637.045 1.469.045.721 0 1.31.011 1.31.024a.6.6 0 0 1-.081.137c-.127.178-.237.448-.238.581-.001.185.177.504.345.618.121.082.196.1.414.1.403 0 .462-.056 1.135-1.065.611-.917.669-1.049.589-1.341-.064-.23-1.136-1.813-1.309-1.932a.77.77 0 0 0-.785-.017m-11.353.417c-.776.126-1.241 1.005-.91 1.721a1.24 1.24 0 0 0 2.266 0c.08-.172.104-.287.104-.503 0-.775-.684-1.345-1.46-1.218m-3.472.997a.77.77 0 0 0-.544.597c-.077.453.303.883.781.884.157 0 .441-.164.576-.334.109-.137.122-.182.122-.426 0-.245-.012-.288-.124-.426-.212-.262-.506-.369-.811-.295m3.857.059c.054.054.098.127.098.162 0 .082-.178.26-.26.26s-.26-.178-.26-.26.178-.26.26-.26c.035 0 .108.044.162.098m-.762 2.92a2 2 0 0 1-.149.039c-.164.036-.377.245-.453.443-.221.577.349 1.161.956.981.23-.068.489-.343.525-.557.057-.338-.097-.678-.373-.821-.11-.057-.435-.111-.506-.085m11.73 1.607c-.211.12-.391.413-.389.633.001.133.111.403.238.581a.6.6 0 0 1 .081.137c0 .013-.58.024-1.29.025-.709 0-1.361.017-1.447.037a.739.739 0 0 0-.348 1.246.84.84 0 0 0 .306.191c.101.028.637.045 1.469.045.721 0 1.31.011 1.31.024a.6.6 0 0 1-.081.137c-.127.178-.237.448-.238.581-.001.185.177.504.345.618.121.082.196.1.414.1.403 0 .462-.056 1.135-1.065.611-.917.669-1.049.589-1.341-.064-.23-1.136-1.813-1.309-1.932a.77.77 0 0 0-.785-.017m-13.353.417c-.776.126-1.241 1.005-.91 1.721.366.796 1.399.988 2.012.376.358-.359.463-.929.255-1.382a1.25 1.25 0 0 0-1.357-.715m.385 1.056c.054.054.098.127.098.162 0 .082-.178.26-.26.26s-.26-.178-.26-.26.178-.26.26-.26c.035 0 .108.044.162.098" fill-rule="evenodd"/></svg>