<svg xmlns="http://www.w3.org/2000/svg" viewBox="0 0 24 24"><path d="M5.9 3.259a2 2 0 0 1-.16.04c-.182.04-2.357 2.218-2.445 2.449-.213.557.321 1.127.91.971.153-.04.315-.184 1.288-1.152.612-.609 1.137-1.153 1.166-1.208.188-.356.048-.841-.294-1.016-.111-.056-.397-.108-.465-.084m12 0a2 2 0 0 1-.149.038c-.165.036-.377.245-.454.444a.76.76 0 0 0 .041.613c.031.058.557.604 1.169 1.213.973.968 1.135 1.112 1.288 1.152a.749.749 0 0 0 .924-.924c-.04-.153-.184-.315-1.152-1.288-.609-.612-1.152-1.136-1.207-1.165-.106-.056-.392-.107-.46-.083m-6.531 2.024A7.86 7.86 0 0 0 7.1 7c-.382.314-1.038.996-1.307 1.361-1.118 1.512-1.669 3.403-1.52 5.209.06.726.164 1.233.391 1.905a7.35 7.35 0 0 0 1.773 2.898c.688.706 1.238 1.115 2.079 1.543a7.68 7.68 0 0 0 5.959.42 7.36 7.36 0 0 0 2.88-1.755c.947-.915 1.574-1.897 1.979-3.101a7.58 7.58 0 0 0 .002-4.955 7.4 7.4 0 0 0-1.754-2.88c-.702-.724-1.295-1.159-2.162-1.587a7.5 7.5 0 0 0-2.869-.777c-.577-.044-.579-.044-1.182.002m1.46 1.537a6.3 6.3 0 0 1 2.891 1.171 8 8 0 0 1 1.289 1.289 6.253 6.253 0 0 1-1.109 8.588c-.778.625-1.658 1.035-2.7 1.258-.609.13-1.791.13-2.4 0-1.042-.223-1.922-.633-2.7-1.258A6.25 6.25 0 0 1 6.991 9.28 8 8 0 0 1 8.28 7.991c1.295-.96 2.981-1.394 4.549-1.171m-1.182 1.026a.8.8 0 0 0-.28.247l-.107.161-.012 2.403c-.009 1.641.001 2.45.031 2.551.058.2.223.388.419.477.149.067.296.073 1.802.073 1.51 0 1.653-.006 1.8-.074a.73.73 0 0 0 .398-.413c.154-.368-.018-.78-.398-.955-.144-.067-.279-.074-1.349-.075l-1.188-.001-.012-1.993-.011-1.994-.114-.165a.77.77 0 0 0-.979-.242" fill-rule="evenodd"/></svg>