<svg fill="none" xmlns="http://www.w3.org/2000/svg" viewBox="0 0 24 24"><path d="M5.900 3.259 C 5.878 3.267,5.806 3.285,5.740 3.299 C 5.558 3.339,3.383 5.517,3.295 5.748 C 3.082 6.305,3.616 6.875,4.205 6.719 C 4.358 6.679,4.520 6.535,5.493 5.567 C 6.105 4.958,6.630 4.414,6.659 4.359 C 6.847 4.003,6.707 3.518,6.365 3.343 C 6.254 3.287,5.968 3.235,5.900 3.259 M17.900 3.259 C 17.878 3.267,17.811 3.284,17.751 3.297 C 17.586 3.333,17.374 3.542,17.297 3.741 C 17.224 3.935,17.239 4.167,17.338 4.354 C 17.369 4.412,17.895 4.958,18.507 5.567 C 19.480 6.535,19.642 6.679,19.795 6.719 C 20.366 6.870,20.870 6.366,20.719 5.795 C 20.679 5.642,20.535 5.480,19.567 4.507 C 18.958 3.895,18.415 3.371,18.360 3.342 C 18.254 3.286,17.968 3.235,17.900 3.259 M11.369 5.283 C 9.848 5.400,8.286 6.028,7.100 7.000 C 6.718 7.314,6.062 7.996,5.793 8.361 C 4.675 9.873,4.124 11.764,4.273 13.570 C 4.333 14.296,4.437 14.803,4.664 15.475 C 5.046 16.608,5.601 17.515,6.437 18.373 C 7.125 19.079,7.675 19.488,8.516 19.916 C 10.357 20.854,12.493 21.004,14.475 20.336 C 15.599 19.957,16.496 19.410,17.355 18.581 C 18.302 17.666,18.929 16.684,19.334 15.480 C 19.890 13.830,19.891 12.171,19.336 10.525 C 18.958 9.403,18.401 8.489,17.582 7.645 C 16.880 6.921,16.287 6.486,15.420 6.058 C 14.505 5.606,13.601 5.361,12.551 5.281 C 11.974 5.237,11.972 5.237,11.369 5.283 M13.140 6.858 C 13.338 6.894,13.715 6.995,13.978 7.083 C 16.125 7.800,17.726 9.644,18.146 11.885 C 18.244 12.406,18.244 13.594,18.146 14.115 C 18.007 14.855,17.676 15.707,17.293 16.310 C 16.779 17.118,16.015 17.876,15.253 18.334 C 14.657 18.692,13.943 18.972,13.234 19.127 C 12.879 19.205,12.703 19.218,12.000 19.218 C 11.297 19.218,11.121 19.205,10.766 19.127 C 10.058 18.973,9.346 18.693,8.747 18.334 C 8.118 17.958,7.359 17.246,6.908 16.611 C 6.414 15.917,6.008 14.956,5.853 14.120 C 5.756 13.597,5.756 12.407,5.852 11.888 C 6.340 9.255,8.477 7.198,11.120 6.818 C 11.601 6.748,12.649 6.769,13.140 6.858 M11.700 7.817 C 11.530 7.893,11.403 8.026,11.316 8.216 C 11.246 8.370,11.242 8.523,11.241 10.720 C 11.241 12.306,11.255 13.111,11.285 13.219 C 11.341 13.423,11.577 13.659,11.781 13.715 C 11.999 13.776,15.001 13.776,15.219 13.715 C 15.307 13.691,15.444 13.605,15.525 13.524 C 15.938 13.111,15.742 12.409,15.177 12.278 C 15.091 12.258,14.512 12.241,13.890 12.241 L 12.760 12.240 12.759 10.310 C 12.758 8.517,12.753 8.369,12.684 8.220 C 12.598 8.034,12.427 7.863,12.267 7.803 C 12.114 7.745,11.846 7.752,11.700 7.817 " stroke="none" fill-rule="evenodd" fill="currentColor"/></svg>