<svg xmlns="http://www.w3.org/2000/svg" viewBox="0 0 24 24"><path d="M5.9 3.259a2 2 0 0 1-.16.04c-.182.04-2.357 2.218-2.445 2.449-.213.557.321 1.127.91.971.153-.04.315-.184 1.288-1.152.612-.609 1.137-1.153 1.166-1.208.188-.356.048-.841-.294-1.016-.111-.056-.397-.108-.465-.084m12 0a2 2 0 0 1-.149.038c-.165.036-.377.245-.454.444a.76.76 0 0 0 .041.613c.031.058.557.604 1.169 1.213.973.968 1.135 1.112 1.288 1.152a.749.749 0 0 0 .924-.924c-.04-.153-.184-.315-1.152-1.288-.609-.612-1.152-1.136-1.207-1.165-.106-.056-.392-.107-.46-.083m-6.531 2.024A7.86 7.86 0 0 0 7.1 7c-.382.314-1.038.996-1.307 1.361-1.118 1.512-1.669 3.403-1.52 5.209.06.726.164 1.233.391 1.905a7.35 7.35 0 0 0 1.773 2.898c.688.706 1.238 1.115 2.079 1.543a7.68 7.68 0 0 0 5.959.42 7.36 7.36 0 0 0 2.88-1.755c.947-.915 1.574-1.897 1.979-3.101a7.58 7.58 0 0 0 .002-4.955 7.4 7.4 0 0 0-1.754-2.88c-.702-.724-1.295-1.159-2.162-1.587a7.5 7.5 0 0 0-2.869-.777c-.577-.044-.579-.044-1.182.002m1.771 1.575c.198.036.575.137.838.225a6.28 6.28 0 0 1 4.168 4.802c.098.521.098 1.709 0 2.23a6.7 6.7 0 0 1-.853 2.195c-.514.808-1.278 1.566-2.04 2.024a6.9 6.9 0 0 1-2.019.793c-.355.078-.531.091-1.234.091s-.879-.013-1.234-.091a6.8 6.8 0 0 1-2.019-.793c-.629-.376-1.388-1.088-1.839-1.723a6.7 6.7 0 0 1-1.055-2.491c-.097-.523-.097-1.713-.001-2.232.488-2.633 2.625-4.69 5.268-5.07.481-.07 1.529-.049 2.02.04m-1.44.959a.76.76 0 0 0-.384.399c-.07.154-.074.307-.075 2.504 0 1.586.014 2.391.044 2.499.056.204.292.44.496.496.218.061 3.22.061 3.438 0a.84.84 0 0 0 .306-.191.739.739 0 0 0-.348-1.246c-.086-.02-.665-.037-1.287-.037l-1.13-.001-.001-1.93c-.001-1.793-.006-1.941-.075-2.09-.086-.186-.257-.357-.417-.417a.9.9 0 0 0-.567.014" fill-rule="evenodd"/></svg>