<svg xmlns="http://www.w3.org/2000/svg" viewBox="0 0 24 24"><path d="M5.9 3.259a2 2 0 0 1-.16.04c-.182.04-2.357 2.218-2.445 2.449-.213.557.321 1.127.91.971.153-.04.315-.184 1.288-1.152.612-.609 1.137-1.153 1.166-1.208.188-.356.048-.841-.294-1.016-.111-.056-.397-.108-.465-.084m12 0a2 2 0 0 1-.149.038c-.165.036-.377.245-.454.444a.76.76 0 0 0 .041.613c.031.058.557.604 1.169 1.213.973.968 1.135 1.112 1.288 1.152a.749.749 0 0 0 .924-.924c-.04-.153-.184-.315-1.152-1.288-.609-.612-1.152-1.136-1.207-1.165-.106-.056-.392-.107-.46-.083m-6.507 2.023C9.06 5.45 6.87 6.737 5.542 8.72c-.932 1.392-1.408 3.214-1.268 4.85.063.737.166 1.242.392 1.91.405 1.204 1.032 2.186 1.979 3.101a7.36 7.36 0 0 0 2.88 1.755 7.58 7.58 0 0 0 4.95 0 7.36 7.36 0 0 0 2.88-1.755c.947-.915 1.574-1.897 1.979-3.101a7.57 7.57 0 0 0 0-4.96c-.405-1.204-1.032-2.186-1.979-3.101-1.328-1.282-2.957-2.004-4.828-2.139a11 11 0 0 0-.627-.034zm.874 2.521c.14.052.319.218.407.377.058.106.067.343.078 2.087l.012 1.968 1.228.012c1.212.013 1.23.014 1.381.108.242.151.36.363.36.648 0 .2-.019.267-.117.406-.064.092-.18.204-.257.249-.134.079-.198.082-1.859.082s-1.725-.003-1.859-.082a1 1 0 0 1-.26-.253l-.121-.172v-2.426c0-1.335.014-2.476.031-2.536.041-.147.259-.39.408-.455a.9.9 0 0 1 .568-.013" fill-rule="evenodd"/></svg>