<svg fill="none" xmlns="http://www.w3.org/2000/svg" viewBox="0 0 24 24"><path d="M5.900 3.259 C 5.878 3.267,5.806 3.285,5.740 3.299 C 5.558 3.339,3.383 5.517,3.295 5.748 C 3.082 6.305,3.616 6.875,4.205 6.719 C 4.358 6.679,4.520 6.535,5.493 5.567 C 6.105 4.958,6.630 4.414,6.659 4.359 C 6.847 4.003,6.707 3.518,6.365 3.343 C 6.254 3.287,5.968 3.235,5.900 3.259 M17.900 3.259 C 17.878 3.267,17.811 3.284,17.751 3.297 C 17.586 3.333,17.374 3.542,17.297 3.741 C 17.224 3.935,17.239 4.167,17.338 4.354 C 17.369 4.412,17.895 4.958,18.507 5.567 C 19.480 6.535,19.642 6.679,19.795 6.719 C 20.366 6.870,20.870 6.366,20.719 5.795 C 20.679 5.642,20.535 5.480,19.567 4.507 C 18.958 3.895,18.415 3.371,18.360 3.342 C 18.254 3.286,17.968 3.235,17.900 3.259 M11.369 5.283 C 9.848 5.400,8.286 6.028,7.100 7.000 C 6.718 7.314,6.062 7.996,5.793 8.361 C 4.675 9.873,4.124 11.764,4.273 13.570 C 4.333 14.296,4.437 14.803,4.664 15.475 C 5.046 16.608,5.601 17.515,6.437 18.373 C 7.125 19.079,7.675 19.488,8.516 19.916 C 10.357 20.854,12.493 21.004,14.475 20.336 C 15.599 19.957,16.496 19.410,17.355 18.581 C 18.302 17.666,18.929 16.684,19.334 15.480 C 19.890 13.830,19.891 12.171,19.336 10.525 C 18.958 9.403,18.401 8.489,17.582 7.645 C 16.880 6.921,16.287 6.486,15.420 6.058 C 14.505 5.606,13.601 5.361,12.551 5.281 C 11.974 5.237,11.972 5.237,11.369 5.283 M12.267 7.803 C 12.427 7.863,12.598 8.034,12.684 8.220 C 12.753 8.369,12.758 8.517,12.759 10.310 L 12.760 12.240 13.890 12.241 C 14.512 12.241,15.091 12.258,15.177 12.278 C 15.742 12.409,15.938 13.111,15.525 13.524 C 15.444 13.605,15.307 13.691,15.219 13.715 C 15.001 13.776,11.999 13.776,11.781 13.715 C 11.577 13.659,11.341 13.423,11.285 13.219 C 11.255 13.111,11.241 12.306,11.241 10.720 C 11.242 8.523,11.246 8.370,11.316 8.216 C 11.487 7.839,11.895 7.662,12.267 7.803 " stroke="none" fill-rule="evenodd" fill="currentColor"/></svg>