<svg xmlns="http://www.w3.org/2000/svg" viewBox="0 0 24 24"><path d="M4.617 2.283q-.873.101-1.552.781A2.7 2.7 0 0 0 2.37 4.18l-.108.32-.013 1.766c-.01 1.192 0 1.819.029 1.928a.75.75 0 0 0 1.202.38c.265-.223.258-.173.28-2.134.02-1.76.021-1.782.113-1.968a1.43 1.43 0 0 1 .599-.599c.186-.092.208-.093 1.968-.113 1.961-.022 1.911-.015 2.134-.28a.747.747 0 0 0-.397-1.202c-.193-.045-3.169-.04-3.56.005m11.188-.003c-.515.122-.725.788-.379 1.2.223.265.173.258 2.134.28 1.76.02 1.782.021 1.968.113.239.118.481.36.599.599.092.186.093.208.113 1.968.022 1.961.015 1.911.28 2.134a.75.75 0 0 0 1.202-.38c.029-.109.039-.736.029-1.928L21.738 4.5l-.108-.32a2.7 2.7 0 0 0-.695-1.116c-.472-.471-.961-.709-1.606-.783-.409-.047-3.326-.048-3.524-.001M5.664 5.063a1 1 0 0 0-.533.448L5.02 5.7v12.6l.111.189c.061.103.17.234.243.289.308.235-.078.222 6.624.222 6.905 0 6.381.023 6.703-.299S19 18.903 19 12s.023-6.379-.299-6.701.205-.299-6.718-.296c-5.244.002-6.186.011-6.319.06M2.82 15.276a.73.73 0 0 0-.542.53c-.029.109-.039.736-.029 1.928l.013 1.766.108.32c.149.443.36.782.694 1.116s.673.545 1.116.694l.32.108 1.766.013c1.255.01 1.816.001 1.939-.032a.8.8 0 0 0 .514-.515.74.74 0 0 0-.542-.926c-.086-.02-.89-.037-1.785-.037-1.534-.001-1.642-.006-1.845-.082-.258-.096-.542-.362-.674-.63-.092-.187-.093-.206-.113-1.969-.021-1.883-.018-1.857-.215-2.074a.79.79 0 0 0-.725-.21m18.08-.017a1 1 0 0 1-.147.037c-.138.031-.337.199-.424.359-.061.111-.071.323-.089 1.905-.02 1.763-.021 1.782-.113 1.969-.132.268-.416.534-.674.63-.203.076-.311.081-1.845.082-.895 0-1.699.017-1.785.037a.74.74 0 0 0-.542.926.8.8 0 0 0 .514.515c.123.033.684.042 1.939.032l1.766-.013.32-.108c.443-.149.782-.36 1.116-.694s.545-.673.694-1.116l.108-.32.013-1.766c.01-1.192 0-1.819-.029-1.928a.8.8 0 0 0-.357-.463c-.111-.056-.397-.108-.465-.084" fill-rule="evenodd"/></svg>