<svg xmlns="http://www.w3.org/2000/svg" viewBox="0 0 24 24"><path d="M6.656 2.281a2.75 2.75 0 0 0-2.112 1.496c-.306.625-.284.103-.284 6.723 0 5.599.004 5.934.073 6.18.219.783.75 1.436 1.446 1.777.573.28.526.276 2.956.301l2.195.022.731 1.339c.44.804.78 1.382.854 1.448.467.418 1.226.066 1.223-.567-.001-.213-.046-.302-1.364-2.72a571 571 0 0 1-1.478-2.72c-.105-.2-.116-.257-.116-.62 0-.336.014-.426.088-.565.354-.662 1.214-.82 1.751-.322.149.138.318.427.961 1.645.429.812.829 1.53.89 1.595a.7.7 0 0 0 .526.227c.291 0 .482-.117.669-.409l.095-.149V8.835l.09.027a3.24 3.24 0 0 1 1.454.876c.316.316.392.422.57.784.374.759.342.255.365 5.798.019 4.529.026 4.909.09 5.025.323.591 1.211.504 1.389-.136.057-.203.057-9.308.001-9.757a4.9 4.9 0 0 0-.688-1.962c-.246-.395-.803-1.002-1.184-1.291-.403-.305-1.149-.661-1.654-.789l-.428-.108-.016-1.381c-.013-1.164-.027-1.419-.086-1.621a2.8 2.8 0 0 0-1.461-1.762c-.573-.283-.422-.272-4.042-.281-1.793-.005-3.37.006-3.504.024m5.164 3.045c.159.088.325.267.377.407.027.07.043.548.043 1.267s-.016 1.197-.043 1.267c-.06.16-.231.331-.417.417-.147.068-.287.074-1.78.074s-1.633-.006-1.78-.074c-.186-.086-.357-.257-.417-.417-.067-.177-.057-2.395.011-2.559.067-.16.31-.379.457-.411.06-.013.127-.03.149-.038s.769-.011 1.66-.007c1.425.007 1.634.016 1.74.074"/></svg>