<svg fill="none" xmlns="http://www.w3.org/2000/svg" viewBox="0 0 24 24"><path d="M6.617 2.283 C 6.034 2.351,5.519 2.610,5.065 3.064 C 4.732 3.396,4.521 3.735,4.369 4.180 L 4.260 4.500 4.260 10.500 L 4.260 16.500 4.369 16.820 C 4.520 17.265,4.731 17.603,5.064 17.936 C 5.397 18.269,5.737 18.480,6.180 18.630 L 6.500 18.738 8.715 18.759 L 10.930 18.780 11.639 20.080 C 12.028 20.795,12.409 21.446,12.484 21.526 C 12.738 21.798,13.151 21.819,13.469 21.576 C 13.654 21.435,13.736 21.259,13.736 21.000 C 13.737 20.786,13.697 20.708,12.374 18.280 C 10.631 15.082,10.790 15.407,10.768 15.009 C 10.746 14.605,10.817 14.387,11.056 14.126 C 11.479 13.665,12.166 13.634,12.620 14.054 C 12.768 14.190,12.939 14.484,13.580 15.698 C 14.009 16.510,14.409 17.228,14.470 17.293 C 14.609 17.441,14.793 17.520,14.996 17.520 C 15.287 17.520,15.478 17.403,15.665 17.111 L 15.760 16.962 15.760 12.900 L 15.760 8.838 15.870 8.864 C 16.651 9.045,17.527 9.776,17.934 10.586 C 17.991 10.700,18.078 10.925,18.128 11.086 L 18.218 11.380 18.239 16.300 C 18.258 20.847,18.265 21.229,18.329 21.345 C 18.652 21.936,19.540 21.849,19.718 21.209 C 19.774 21.007,19.775 11.996,19.719 11.500 C 19.488 9.463,17.985 7.792,15.993 7.358 L 15.766 7.309 15.751 5.904 C 15.736 4.507,15.736 4.498,15.629 4.180 C 15.481 3.737,15.270 3.398,14.935 3.064 C 14.463 2.593,13.974 2.355,13.329 2.281 C 12.910 2.233,7.031 2.235,6.617 2.283 M13.399 3.820 C 13.760 3.947,14.101 4.302,14.196 4.650 C 14.230 4.776,14.240 5.974,14.231 9.252 L 14.220 13.685 14.051 13.428 C 13.722 12.928,13.122 12.496,12.536 12.339 C 12.211 12.251,11.534 12.252,11.200 12.339 C 10.511 12.519,9.805 13.099,9.508 13.728 C 9.313 14.141,9.262 14.386,9.262 14.920 C 9.261 15.557,9.333 15.803,9.764 16.630 L 10.082 17.240 8.422 17.240 C 6.856 17.240,6.751 17.235,6.547 17.159 C 6.289 17.063,6.005 16.797,5.873 16.529 L 5.780 16.340 5.769 10.580 C 5.760 6.283,5.769 4.777,5.804 4.650 C 5.897 4.310,6.237 3.950,6.586 3.822 C 6.823 3.735,13.154 3.733,13.399 3.820 M8.420 5.259 C 8.398 5.267,8.331 5.284,8.271 5.297 C 8.124 5.329,7.881 5.548,7.814 5.708 C 7.746 5.872,7.736 8.090,7.803 8.267 C 7.863 8.427,8.034 8.598,8.220 8.684 C 8.367 8.752,8.507 8.758,10.000 8.758 C 11.493 8.758,11.633 8.752,11.780 8.684 C 11.966 8.598,12.137 8.427,12.197 8.267 C 12.224 8.197,12.240 7.719,12.240 7.000 C 12.240 6.281,12.224 5.803,12.197 5.733 C 12.145 5.593,11.979 5.414,11.820 5.326 C 11.714 5.268,11.505 5.259,10.080 5.252 C 9.189 5.248,8.442 5.251,8.420 5.259 M10.760 7.000 L 10.760 7.240 10.000 7.240 L 9.240 7.240 9.240 7.000 L 9.240 6.760 10.000 6.760 L 10.760 6.760 10.760 7.000 " stroke="none" fill-rule="evenodd" fill="currentColor"/></svg>