<svg xmlns="http://www.w3.org/2000/svg" viewBox="0 0 24 24"><path d="M6.617 2.283q-.873.101-1.552.781a2.74 2.74 0 0 0-.696 1.116l-.109.32v12l.109.32c.151.445.362.783.695 1.116s.673.544 1.116.694l.32.108 2.215.021 2.215.021.709 1.3c.389.715.77 1.366.845 1.446.254.272.667.293.985.05.185-.141.267-.317.267-.576.001-.214-.039-.292-1.362-2.72-1.743-3.198-1.584-2.873-1.606-3.271-.022-.404.049-.622.288-.883a1.09 1.09 0 0 1 1.564-.072c.148.136.319.43.96 1.644.429.812.829 1.53.89 1.595a.7.7 0 0 0 .526.227c.291 0 .482-.117.669-.409l.095-.149V8.838l.11.026c.781.181 1.657.912 2.064 1.722.057.114.144.339.194.5l.09.294.021 4.92c.019 4.547.026 4.929.09 5.045.323.591 1.211.504 1.389-.136.056-.202.057-9.213.001-9.709a4.79 4.79 0 0 0-3.726-4.142l-.227-.049-.015-1.405c-.015-1.397-.015-1.406-.122-1.724a2.7 2.7 0 0 0-.694-1.116c-.472-.471-.961-.709-1.606-.783-.419-.048-6.298-.046-6.712.002m6.903 1.59c.24.125.487.37.604.6l.096.187.011 4.52.01 4.52-.146-.22c-.681-1.03-1.919-1.473-3.055-1.094a2.65 2.65 0 0 0-1.668 1.671c-.094.283-.107.388-.108.843-.002.738.072.976.596 1.93l.225.41H8.43c-1.892 0-1.892 0-2.242-.32a1.7 1.7 0 0 1-.309-.385l-.099-.195V4.66l.093-.18c.165-.316.476-.588.773-.675.083-.024 1.372-.036 3.414-.032l3.28.007zm-5.22 1.4a.77.77 0 0 0-.438.341l-.102.173v1.211c0 1.17.003 1.216.087 1.366a1 1 0 0 0 .247.265l.159.111h3.494l.159-.111a1 1 0 0 0 .247-.265c.084-.15.087-.196.087-1.364 0-1.167-.003-1.214-.087-1.364a1 1 0 0 0-.25-.265l-.163-.111-1.68-.007c-.924-.004-1.716.005-1.76.02M10.76 7v.24H9.24v-.48h1.52z"/></svg>