<svg xmlns="http://www.w3.org/2000/svg" viewBox="0 0 24 24"><path d="M6.617 2.283q-.873.101-1.552.781a2.74 2.74 0 0 0-.696 1.116l-.109.32v12l.109.32c.151.445.362.783.695 1.116s.673.544 1.116.694l.32.108 2.215.021 2.215.021.709 1.3c.389.715.77 1.366.845 1.446.254.272.667.293.985.05.185-.141.267-.317.267-.576.001-.214-.039-.292-1.362-2.72-1.743-3.198-1.584-2.873-1.606-3.271-.022-.404.049-.622.288-.883a1.09 1.09 0 0 1 1.564-.072c.148.136.319.43.96 1.644.429.812.829 1.53.89 1.595a.7.7 0 0 0 .526.227c.291 0 .482-.117.669-.409l.095-.149V8.838l.11.026c.781.181 1.657.912 2.064 1.722.057.114.144.339.194.5l.09.294.021 4.92c.019 4.547.026 4.929.09 5.045.323.591 1.211.504 1.389-.136.056-.202.057-9.213.001-9.709a4.79 4.79 0 0 0-3.726-4.142l-.227-.049-.015-1.405c-.015-1.397-.015-1.406-.122-1.724a2.7 2.7 0 0 0-.694-1.116c-.472-.471-.961-.709-1.606-.783-.419-.048-6.298-.046-6.712.002m6.782 1.537c.361.127.702.482.797.83.034.126.044 1.324.035 4.602l-.011 4.433-.169-.257a2.8 2.8 0 0 0-1.515-1.089c-.325-.088-1.002-.087-1.336 0-.689.18-1.395.76-1.692 1.389-.195.413-.246.658-.246 1.192-.001.637.071.883.502 1.71l.318.61h-1.66c-1.566 0-1.671-.005-1.875-.081-.258-.096-.542-.362-.674-.63l-.093-.189-.011-5.76c-.009-4.297 0-5.803.035-5.93.093-.34.433-.7.782-.828.237-.087 6.568-.089 6.813-.002M8.42 5.259a2 2 0 0 1-.149.038c-.147.032-.39.251-.457.411-.068.164-.078 2.382-.011 2.559.06.16.231.331.417.417.147.068.287.074 1.78.074s1.633-.006 1.78-.074c.186-.086.357-.257.417-.417.027-.07.043-.548.043-1.267s-.016-1.197-.043-1.267c-.052-.14-.218-.319-.377-.407-.106-.058-.315-.067-1.74-.074a50 50 0 0 0-1.66.007M10.76 7v.24H9.24v-.48h1.52z" fill-rule="evenodd"/></svg>