<svg xmlns="http://www.w3.org/2000/svg" viewBox="0 0 24 24"><path d="M6.259 3.291c-.066.027-1.038.511-2.16 1.075-1.252.63-2.08 1.07-2.146 1.14a.67.67 0 0 0-.193.477c0 .076.237 1.085.526 2.243.483 1.931.537 2.118.65 2.246.242.276.302.286 1.634.287l1.19.001v2.856c0 3.096.002 3.125.228 3.841a4.76 4.76 0 0 0 1.383 2.108 4.67 4.67 0 0 0 2.609 1.152c.47.056 3.57.056 4.04 0 1.885-.224 3.434-1.492 3.996-3.27.219-.696.224-.78.224-3.852V10.76l1.19-.001c1.332-.001 1.392-.011 1.634-.287.113-.128.167-.315.65-2.246.289-1.158.526-2.169.526-2.247a.7.7 0 0 0-.225-.504c-.063-.058-1.06-.58-2.215-1.16L17.7 3.26H16c-1.509 0-1.713.007-1.82.066-.231.128-.331.28-.477.728-.465 1.42-1.361 2.012-2.333 1.541-.422-.204-.825-.783-1.073-1.541-.146-.448-.246-.6-.477-.728-.106-.058-.319-.067-1.78-.075-1.231-.006-1.691.004-1.781.04M9.02 4.95c.169.453.555 1.061.893 1.407A2.9 2.9 0 0 0 12 7.24a2.9 2.9 0 0 0 2.087-.883c.338-.346.724-.954.893-1.407l.071-.19h1.709v3.93l-.001 3.93-.342.3c-.39.342-.954.963-1.34 1.476-.986 1.311-1.664 2.946-1.776 4.284a8 8 0 0 1-.045.43l-.02.13h-2.472l-.02-.13a8 8 0 0 1-.045-.43c-.112-1.336-.792-2.977-1.776-4.284-.397-.528-.937-1.122-1.331-1.465l-.352-.307V4.76h1.709zM5.76 7.24v2H4.082l-.028-.11-.355-1.41-.327-1.3 1.164-.588a41 41 0 0 1 1.194-.59c.017-.001.03.898.03 1.998m13.693-1.414 1.174.587-.315 1.263-.355 1.414-.04.15H18.24v-2c0-1.1.009-2 .02-2s.548.264 1.193.586M7.718 15.3c.736.979 1.252 2.111 1.419 3.12.107.644.112.585-.042.52-.539-.225-1.212-.897-1.513-1.51-.253-.515-.306-.813-.327-1.83l-.02-.9.106.12c.059.066.228.282.377.48m9.031.31c-.026 1.005-.081 1.31-.331 1.82-.3.612-.974 1.285-1.511 1.51l-.132.055.03-.248c.133-1.077.643-2.313 1.365-3.304.221-.302.56-.723.583-.723.01 0 .008.4-.004.89" fill-rule="evenodd"/></svg>