<svg xmlns="http://www.w3.org/2000/svg" viewBox="0 0 24 24"><path d="M10.82 3.342c-2.672.394-5.037 2.137-6.317 4.656-.267.524-.583 1.27-.583 1.375 0 .034-.094.115-.21.182a3.04 3.04 0 0 0-1.188 1.265c-.205.427-.261.678-.261 1.18s.056.753.261 1.18c.242.504.691.983 1.188 1.267.116.067.21.148.21.181 0 .104.317.852.583 1.374a8.9 8.9 0 0 0 3.103 3.45 8.14 8.14 0 0 0 8.788 0 8.9 8.9 0 0 0 3.103-3.45c.257-.505.583-1.276.583-1.379 0-.03.094-.109.21-.176a3 3 0 0 0 1.338-1.627c.091-.277.105-.388.105-.82s-.014-.543-.105-.82a3 3 0 0 0-1.338-1.625c-.115-.067-.21-.146-.21-.177 0-.104-.325-.873-.583-1.38a8.9 8.9 0 0 0-3.117-3.46 8.9 8.9 0 0 0-2.5-1.063c-.631-.148-1.672-.266-1.16-.132.869.228 1.609.939 1.91 1.837.106.313.108.341.108 1.32 0 .981-.002 1.006-.108 1.32a2.7 2.7 0 0 1-.694 1.116 2.7 2.7 0 0 1-1.116.692c-.277.091-.387.105-.82.105s-.543-.014-.82-.105a2.7 2.7 0 0 1-1.116-.692 2.7 2.7 0 0 1-.805-1.678c-.061-.616.22-.991.741-.991.231 0 .357.046.514.188.146.133.208.285.244.605.04.363.152.603.391.839.591.582 1.602.394 1.978-.37.088-.18.093-.23.093-1.029 0-.797-.005-.85-.093-1.028a1.4 1.4 0 0 0-.591-.594 1.8 1.8 0 0 0-.476-.12c-.338-.038-.487-.104-.634-.278a.752.752 0 0 1 .171-1.109l.135-.091-.276.004a6 6 0 0 0-.636.058m-1.404 7.011c.063.037.171.136.24.221.112.138.124.181.124.426 0 .244-.013.289-.122.426-.314.394-.844.438-1.183.098a.745.745 0 0 1 .09-1.134c.213-.158.611-.175.851-.037m6 0c.063.037.171.136.24.221.112.138.124.181.124.426 0 .244-.013.289-.122.426-.314.394-.844.438-1.183.098a.745.745 0 0 1 .09-1.134c.213-.158.611-.175.851-.037M10.5 14.4c.782.316 1.454.398 2.146.263.283-.056.377-.085 1.03-.322.266-.097.313-.103.48-.061.437.11.678.498.566.912-.091.337-.347.512-1.123.768a5.17 5.17 0 0 1-3.198 0c-.516-.17-.853-.335-.972-.477a.74.74 0 0 1 .112-1.066c.266-.204.487-.208.959-.017"/></svg>