<svg xmlns="http://www.w3.org/2000/svg" viewBox="0 0 24 24"><path d="M11.6 3.264c-2.74.182-5.034 1.531-6.611 3.887-.374.558-1.069 2.003-1.069 2.222 0 .034-.094.115-.21.182a3.04 3.04 0 0 0-1.188 1.265c-.205.427-.261.678-.261 1.18s.056.753.261 1.18c.242.504.691.983 1.188 1.267.116.067.21.148.21.181 0 .104.317.852.583 1.374a8.9 8.9 0 0 0 3.103 3.45 8.14 8.14 0 0 0 8.788 0 8.9 8.9 0 0 0 3.103-3.45c.257-.505.583-1.276.583-1.379 0-.03.095-.109.21-.176a3 3 0 0 0 1.338-1.627c.091-.277.105-.388.105-.82s-.014-.543-.105-.82a3 3 0 0 0-1.338-1.625c-.115-.067-.21-.146-.21-.177 0-.104-.325-.873-.583-1.38-.876-1.724-2.282-3.118-3.957-3.922a7.9 7.9 0 0 0-2.4-.736c-.439-.062-1.195-.099-1.54-.076m.928 1.609c.239.118.481.36.599.599.088.178.093.231.093 1.028 0 .799-.005.849-.093 1.029-.376.764-1.387.952-1.978.37-.239-.236-.351-.476-.392-.84-.035-.314-.075-.421-.212-.573-.136-.15-.308-.219-.545-.219-.521 0-.802.375-.741.991.063.638.337 1.21.805 1.678.335.335.676.546 1.116.692.277.091.387.105.82.105s.543-.014.82-.105c.44-.146.781-.357 1.116-.692.336-.336.547-.677.691-1.116.096-.291.107-.393.124-1.122.01-.473 0-.914-.025-1.078-.024-.152-.036-.284-.027-.293.029-.029.826.431 1.157.667 1.349.962 2.27 2.244 2.838 3.949.171.513.247.604.697.837.691.358.983.956.787 1.613-.088.298-.456.683-.811.849-.413.193-.501.301-.673.815-.473 1.422-1.157 2.498-2.165 3.409Q14.564 19.24 12 19.24c-1.711 0-3.218-.591-4.529-1.775-1.01-.912-1.691-1.983-2.165-3.408-.172-.514-.26-.622-.673-.815-.355-.166-.723-.551-.811-.849-.198-.665.095-1.254.808-1.626.433-.225.503-.312.686-.849.29-.851.535-1.363.955-1.996 1.076-1.62 2.805-2.781 4.556-3.058l.493-.079c.055-.01.307-.014.56-.011.392.005.488.02.648.099m-3.723 5.406a.77.77 0 0 0-.544.597c-.078.462.303.883.801.884.175 0 .454-.156.596-.334.109-.137.122-.182.122-.426 0-.245-.012-.288-.124-.426a1.1 1.1 0 0 0-.24-.221 1 1 0 0 0-.611-.074m6 0a.77.77 0 0 0-.544.597c-.078.462.303.883.801.884.175 0 .454-.156.596-.334.109-.137.122-.182.122-.426 0-.245-.012-.288-.124-.426a1.1 1.1 0 0 0-.24-.221 1 1 0 0 0-.611-.074m-4.994 3.999a.75.75 0 0 0-.533.914c.091.337.347.512 1.123.768a5.17 5.17 0 0 0 3.198 0c.776-.256 1.032-.431 1.123-.768.112-.414-.129-.802-.566-.912-.167-.042-.214-.036-.48.061-.653.237-.747.266-1.03.322-.692.135-1.364.053-2.146-.263-.331-.134-.513-.166-.689-.122" fill-rule="evenodd"/></svg>