<svg xmlns="http://www.w3.org/2000/svg" viewBox="0 0 24 24"><path d="M11.3 3.284c-2.834.232-5.436 2.037-6.797 4.714-.269.529-.583 1.27-.583 1.377 0 .035-.07.099-.156.143-.466.238-1.002.799-1.243 1.302-.204.427-.26.679-.26 1.18 0 .502.056.753.261 1.18.242.504.691.983 1.188 1.267.116.067.21.148.21.181 0 .104.317.852.583 1.374a8.9 8.9 0 0 0 3.103 3.45 8.14 8.14 0 0 0 8.788 0 8.9 8.9 0 0 0 3.103-3.45c.257-.505.583-1.276.583-1.379 0-.03.095-.109.21-.176a3 3 0 0 0 1.338-1.627c.091-.277.105-.388.105-.82s-.014-.543-.105-.82a3 3 0 0 0-1.338-1.627c-.115-.067-.21-.146-.21-.176 0-.103-.326-.874-.583-1.379a8.7 8.7 0 0 0-1.656-2.279c-1.429-1.428-3.213-2.268-5.181-2.437a6.6 6.6 0 0 0-1.36.002m1.22 1.589c.239.125.487.37.604.6.092.18.096.22.096 1.027 0 .816-.003.846-.099 1.035-.13.253-.467.559-.707.641a1.4 1.4 0 0 1-.828 0c-.237-.081-.578-.388-.698-.629a1.7 1.7 0 0 1-.124-.476c-.049-.434-.18-.638-.493-.769-.377-.158-.803.03-.969.427-.185.442.085 1.414.555 2.001.497.62 1.35 1.03 2.143 1.03.794 0 1.652-.413 2.141-1.03.26-.328.485-.81.562-1.202.052-.265.061-.5.046-1.18-.01-.466-.032-.89-.049-.941-.029-.089-.014-.085.296.071 1.686.848 3.044 2.473 3.664 4.386.206.635.23.665.744.923.342.172.635.479.75.786.247.661-.056 1.274-.835 1.688-.424.225-.466.281-.662.884-.389 1.2-1.139 2.399-2.01 3.209-1.347 1.255-2.9 1.885-4.647 1.885-1.85 0-3.506-.716-4.854-2.096a7.7 7.7 0 0 1-1.806-3.007c-.193-.594-.236-.651-.659-.875-.602-.32-.921-.757-.921-1.261 0-.474.336-.962.836-1.213.513-.258.538-.288.742-.917.627-1.935 1.98-3.549 3.691-4.403.957-.478 1.912-.71 2.851-.695.394.007.486.022.64.101M8.7 10.316a.73.73 0 0 0-.398.413c-.164.393.059.853.482.992.43.142.946-.162 1.004-.592.033-.246-.018-.434-.16-.596-.243-.277-.611-.364-.928-.217m6 0a.73.73 0 0 0-.398.413c-.164.393.059.853.482.992.43.142.946-.162 1.004-.592.033-.246-.018-.434-.16-.596-.243-.277-.611-.364-.928-.217m-4.954 3.982c-.283.101-.503.403-.505.693a.9.9 0 0 0 .211.524c.193.21 1.089.542 1.747.647.415.067 1.27.058 1.701-.018.629-.11 1.465-.43 1.648-.629a.9.9 0 0 0 .211-.524c-.002-.303-.253-.627-.55-.709-.231-.064-.3-.053-.722.117-.602.243-.866.295-1.487.295s-.885-.052-1.487-.295c-.426-.171-.53-.185-.767-.101"/></svg>