<svg xmlns="http://www.w3.org/2000/svg" viewBox="0 0 24 24"><path d="M10.78 3.344C7.705 3.82 5.093 6.055 3.982 9.16c-.105.293-.114.304-.371.46-.338.205-.789.657-.982.984a3.6 3.6 0 0 0-.257.576c-.091.277-.105.387-.105.82s.014.543.105.82a2.94 2.94 0 0 0 1.336 1.624c.15.085.18.129.275.396.869 2.453 2.768 4.455 5.086 5.362a10 10 0 0 0 1.851.482c.489.067 1.671.067 2.16 0 3.123-.428 5.8-2.684 6.936-5.844.095-.266.127-.311.276-.396a2.94 2.94 0 0 0 1.336-1.624c.091-.277.105-.388.105-.82 0-.433-.014-.543-.105-.82a3.6 3.6 0 0 0-.257-.576c-.191-.323-.643-.776-.983-.984-.255-.155-.265-.169-.371-.46-1.083-2.982-3.504-5.157-6.387-5.738a8 8 0 0 0-.83-.121l-.34-.021.229.059c.945.243 1.738 1.048 1.98 2.011.098.389.098 1.911 0 2.3a2.81 2.81 0 0 1-1.989 2.015c-.35.095-1.009.096-1.36 0-1.196-.325-2.029-1.376-2.052-2.589-.006-.268.006-.323.1-.465A.7.7 0 0 1 10 6.267q.658 0 .753.777c.048.391.156.63.385.852.624.607 1.717.371 2.019-.436.073-.196.083-.311.083-.96 0-.646-.01-.764-.082-.957-.165-.439-.567-.726-1.104-.786-.355-.04-.511-.121-.67-.348-.098-.138-.117-.206-.117-.402 0-.279.102-.476.326-.628l.146-.099-.3.004a6 6 0 0 0-.659.06M9.399 10.34a.82.82 0 0 1 .4.669.9.9 0 0 1-.074.293.772.772 0 0 1-1.35.098c-.272-.411-.04-1.003.44-1.123.154-.039.45-.007.584.063m6 0a.82.82 0 0 1 .4.669.9.9 0 0 1-.074.293.772.772 0 0 1-1.35.098c-.272-.411-.04-1.003.44-1.123.154-.039.45-.007.584.063m-4.909 4.058c.505.229.867.301 1.51.301.65 0 1.018-.074 1.513-.306.367-.172.661-.175.895-.009a.746.746 0 0 1 .021 1.219c-.347.252-1.257.526-1.99.599-.745.074-1.595-.054-2.385-.359a2.7 2.7 0 0 1-.483-.24c-.395-.286-.408-.898-.025-1.19.265-.203.52-.207.944-.015"/></svg>