<svg xmlns="http://www.w3.org/2000/svg" viewBox="0 0 24 24"><path d="M2.811 2.278c-.396.097-.638.519-.531.926.041.157.214.344 1.607 1.74l1.56 1.565-.258.355A9.6 9.6 0 0 0 3.982 9.16c-.105.293-.114.304-.371.46-.338.205-.789.657-.982.984a3.6 3.6 0 0 0-.257.576c-.091.277-.105.387-.105.82s.014.543.105.82a2.94 2.94 0 0 0 1.336 1.624c.15.085.18.129.275.396.869 2.453 2.768 4.455 5.086 5.362a10 10 0 0 0 1.851.482c.496.068 1.683.069 2.14.002.518-.076 1.3-.271 1.74-.434.826-.306 1.793-.867 2.435-1.411l.295-.25 1.545 1.541c1.372 1.369 1.565 1.547 1.72 1.588a.75.75 0 0 0 .925-.925c-.041-.156-.221-.35-1.607-1.74l-1.561-1.565.229-.309a9.3 9.3 0 0 0 1.196-2.242c.137-.37.161-.408.316-.496a2.94 2.94 0 0 0 1.335-1.623c.091-.277.105-.388.105-.82 0-.433-.014-.543-.105-.82a3.6 3.6 0 0 0-.257-.576c-.191-.323-.643-.776-.983-.984-.255-.155-.265-.169-.371-.46-1.083-2.982-3.504-5.157-6.387-5.738a8 8 0 0 0-.83-.121l-.34-.021.229.059c.945.243 1.738 1.048 1.98 2.011.098.389.098 1.911 0 2.3a2.81 2.81 0 0 1-1.989 2.015c-.35.095-1.009.096-1.36 0-1.194-.324-2.029-1.376-2.052-2.585-.005-.252.009-.326.088-.453a.71.71 0 0 1 .641-.36q.662 0 .756.777c.048.391.156.63.385.852.624.607 1.717.371 2.019-.436.073-.196.083-.311.083-.96 0-.646-.01-.764-.082-.957-.165-.439-.567-.726-1.104-.786-.355-.04-.511-.121-.67-.348-.098-.138-.117-.206-.117-.402 0-.279.102-.476.326-.628l.146-.099h-.228c-.588 0-1.698.23-2.38.494a9 9 0 0 0-2.366 1.387l-.295.248-1.525-1.52c-.839-.836-1.561-1.538-1.605-1.56a1 1 0 0 0-.529-.051m9.729 9.202 5.96 5.96-.53.53-.53.53-1.47-1.466-1.47-1.466-.12.076a3.4 3.4 0 0 1-.44.201c-.78.303-1.635.431-2.379.357-.733-.073-1.643-.347-1.99-.599a.746.746 0 0 1 .021-1.219c.234-.166.528-.163.895.009.506.237.861.307 1.533.303.532-.003.641-.016.959-.112a4 4 0 0 0 .378-.128c.011-.011-.781-.82-1.759-1.798L9.82 10.879l-.026.174c-.068.463-.443.757-.881.691-.391-.059-.646-.351-.646-.741 0-.406.262-.691.687-.747l.214-.027-1.833-1.834L5.501 6.56l.519-.52c.285-.286.528-.52.539-.52s2.703 2.682 5.981 5.96m2.859-1.14a.82.82 0 0 1 .4.669.9.9 0 0 1-.074.293.772.772 0 0 1-1.35.098c-.272-.411-.04-1.003.44-1.123.154-.039.45-.007.584.063"/></svg>