<svg fill="none" xmlns="http://www.w3.org/2000/svg" viewBox="0 0 24 24"><path d="M11.600 3.264 C 8.860 3.446,6.566 4.795,4.989 7.151 C 4.615 7.709,3.920 9.154,3.920 9.373 C 3.920 9.407,3.826 9.488,3.710 9.555 C 3.207 9.844,2.764 10.316,2.522 10.820 C 2.317 11.247,2.261 11.498,2.261 12.000 C 2.261 12.502,2.317 12.753,2.522 13.180 C 2.764 13.684,3.213 14.163,3.710 14.447 C 3.826 14.514,3.920 14.595,3.920 14.628 C 3.920 14.732,4.237 15.480,4.503 16.002 C 5.219 17.412,6.297 18.610,7.606 19.452 C 10.273 21.169,13.727 21.169,16.394 19.452 C 17.703 18.610,18.781 17.412,19.497 16.002 C 19.754 15.497,20.080 14.726,20.080 14.623 C 20.080 14.593,20.175 14.514,20.290 14.447 C 20.910 14.093,21.409 13.486,21.628 12.820 C 21.719 12.543,21.733 12.432,21.733 12.000 C 21.733 11.568,21.719 11.457,21.628 11.180 C 21.409 10.513,20.916 9.915,20.290 9.555 C 20.175 9.488,20.080 9.409,20.080 9.378 C 20.080 9.274,19.755 8.505,19.497 7.998 C 18.621 6.274,17.215 4.880,15.540 4.076 C 14.735 3.689,13.979 3.457,13.140 3.340 C 12.701 3.278,11.945 3.241,11.600 3.264 M12.520 4.873 C 12.759 4.998,13.007 5.243,13.124 5.473 C 13.216 5.653,13.220 5.693,13.220 6.500 C 13.220 7.316,13.217 7.346,13.121 7.535 C 12.991 7.788,12.654 8.094,12.414 8.176 C 12.173 8.258,11.827 8.258,11.586 8.176 C 11.349 8.095,11.008 7.788,10.888 7.547 C 10.836 7.444,10.782 7.236,10.764 7.071 C 10.715 6.637,10.584 6.433,10.271 6.302 C 9.894 6.144,9.468 6.332,9.302 6.729 C 9.117 7.171,9.387 8.143,9.857 8.730 C 10.354 9.350,11.207 9.760,12.000 9.760 C 12.794 9.760,13.652 9.347,14.141 8.730 C 14.401 8.402,14.626 7.920,14.703 7.528 C 14.755 7.263,14.764 7.028,14.749 6.348 C 14.739 5.882,14.717 5.458,14.700 5.407 C 14.671 5.318,14.686 5.322,14.996 5.478 C 16.682 6.326,18.040 7.951,18.660 9.864 C 18.866 10.499,18.890 10.529,19.404 10.787 C 19.746 10.959,20.039 11.266,20.154 11.573 C 20.401 12.234,20.098 12.847,19.319 13.261 C 18.895 13.486,18.853 13.542,18.657 14.145 C 18.268 15.345,17.518 16.544,16.647 17.354 C 15.300 18.609,13.747 19.239,12.000 19.239 C 10.150 19.239,8.494 18.523,7.146 17.143 C 6.330 16.307,5.707 15.270,5.340 14.136 C 5.147 13.542,5.104 13.485,4.681 13.261 C 4.079 12.941,3.760 12.504,3.760 12.000 C 3.760 11.526,4.096 11.038,4.596 10.787 C 5.109 10.529,5.134 10.499,5.338 9.870 C 5.965 7.935,7.318 6.321,9.029 5.467 C 9.986 4.989,10.941 4.757,11.880 4.772 C 12.274 4.779,12.366 4.794,12.520 4.873 M8.700 10.316 C 8.506 10.405,8.384 10.532,8.302 10.729 C 8.138 11.122,8.361 11.582,8.784 11.721 C 9.214 11.863,9.730 11.559,9.788 11.129 C 9.821 10.883,9.770 10.695,9.628 10.533 C 9.385 10.256,9.017 10.169,8.700 10.316 M14.700 10.316 C 14.506 10.405,14.384 10.532,14.302 10.729 C 14.138 11.122,14.361 11.582,14.784 11.721 C 15.214 11.863,15.730 11.559,15.788 11.129 C 15.821 10.883,15.770 10.695,15.628 10.533 C 15.385 10.256,15.017 10.169,14.700 10.316 M9.746 14.298 C 9.463 14.399,9.243 14.701,9.241 14.991 C 9.240 15.153,9.334 15.387,9.452 15.515 C 9.645 15.725,10.541 16.057,11.199 16.162 C 11.614 16.229,12.469 16.220,12.900 16.144 C 13.529 16.034,14.365 15.714,14.548 15.515 C 14.666 15.387,14.760 15.152,14.759 14.991 C 14.757 14.688,14.506 14.364,14.209 14.282 C 13.978 14.218,13.909 14.229,13.487 14.399 C 12.885 14.642,12.621 14.694,12.000 14.694 C 11.379 14.694,11.115 14.642,10.513 14.399 C 10.087 14.228,9.983 14.214,9.746 14.298 " stroke="none" fill-rule="evenodd"/></svg>