<svg xmlns="http://www.w3.org/2000/svg" viewBox="0 0 24 24"><path d="M2.9 2.259a1 1 0 0 1-.147.037c-.236.052-.51.407-.512.664-.002.328.016.35 1.647 1.985l1.56 1.565-.219.296a8 8 0 0 0-.769 1.275c-.241.48-.54 1.195-.54 1.292 0 .034-.094.115-.21.182a3.04 3.04 0 0 0-1.188 1.265c-.205.427-.261.678-.261 1.18s.056.753.261 1.18c.242.504.691.983 1.188 1.267.116.067.21.148.21.181 0 .104.317.852.583 1.374a8.9 8.9 0 0 0 3.103 3.45 8.16 8.16 0 0 0 7.472.687 9 9 0 0 0 2.157-1.299l.295-.249 1.545 1.541c1.372 1.369 1.565 1.547 1.72 1.588a.75.75 0 0 0 .925-.925c-.041-.156-.221-.35-1.607-1.74l-1.561-1.565.219-.296c.293-.396.505-.747.769-1.275.232-.461.54-1.202.54-1.296 0-.03.094-.109.21-.176a3 3 0 0 0 1.338-1.627c.091-.277.105-.388.105-.82s-.014-.543-.105-.82a3 3 0 0 0-1.338-1.625c-.115-.067-.21-.146-.21-.177 0-.104-.325-.873-.583-1.38-.876-1.724-2.282-3.118-3.957-3.922-1.163-.559-2.283-.815-3.54-.809a7.7 7.7 0 0 0-1.8.193c-1.194.268-2.505.916-3.435 1.7l-.295.249-1.525-1.52c-.839-.836-1.561-1.538-1.605-1.56-.092-.045-.38-.091-.44-.07m9.628 2.614c.239.118.481.36.599.599.088.178.093.231.093 1.028 0 .799-.005.849-.093 1.029-.376.764-1.387.952-1.978.37-.239-.236-.351-.476-.392-.84-.035-.314-.075-.421-.212-.573-.136-.15-.308-.219-.545-.219-.521 0-.802.375-.741.991.063.638.337 1.21.805 1.678.335.335.676.546 1.116.692.277.091.387.105.82.105s.543-.014.82-.105c.44-.146.781-.357 1.116-.692.336-.336.547-.677.691-1.116.096-.291.107-.393.124-1.122.01-.473 0-.914-.025-1.078-.024-.152-.036-.284-.027-.293.029-.029.826.431 1.157.667 1.349.962 2.27 2.244 2.838 3.949.171.513.247.604.697.837.691.358.983.956.787 1.613-.088.298-.456.683-.811.849-.402.188-.503.306-.651.755a10 10 0 0 1-.601 1.443c-.188.348-.587.96-.628.96-.015 0-2.257-2.23-4.982-4.955C9.287 8.227 7.56 6.472 7.579 6.441c.061-.099.833-.643 1.21-.854a6 6 0 0 1 2.038-.723l.493-.079c.055-.01.307-.014.56-.011.392.005.488.02.648.099M7.85 8.91c1.143 1.143 1.433 1.451 1.27 1.35-.072-.044-.399.027-.53.116-.635.428-.31 1.382.472 1.384.171 0 .453-.155.587-.323a.66.66 0 0 0 .138-.353l.025-.212 1.774 1.774c.976.976 1.774 1.785 1.774 1.8 0 .035-.479.177-.777.231-.332.06-.882.054-1.229-.014-.282-.056-.381-.086-1.022-.32-.345-.125-.535-.11-.772.062a.735.735 0 0 0-.131 1.078c.18.214.969.524 1.672.657.477.09 1.321.09 1.798 0 .44-.083.962-.251 1.336-.43l.282-.134.971.975.972.974-.18.162c-.287.258-1.029.734-1.453.933a6.4 6.4 0 0 1-2.827.62q-2.565 0-4.529-1.775c-1.01-.912-1.691-1.983-2.165-3.408-.172-.514-.26-.622-.673-.815-.355-.166-.723-.551-.811-.849-.198-.665.095-1.254.808-1.626.433-.225.503-.312.686-.849.197-.578.363-.975.569-1.357.187-.348.587-.961.627-.961.015 0 .617.589 1.338 1.31m6.955 1.369a.77.77 0 0 0-.544.597c-.078.462.303.883.801.884.175 0 .454-.156.596-.334.109-.137.122-.182.122-.426 0-.245-.012-.288-.124-.426a1.1 1.1 0 0 0-.24-.221 1 1 0 0 0-.611-.074" fill-rule="evenodd"/></svg>