<svg fill="none" xmlns="http://www.w3.org/2000/svg" viewBox="0 0 24 24"><path d="M10.820 3.342 C 8.148 3.736,5.783 5.479,4.503 7.998 C 4.236 8.522,3.920 9.268,3.920 9.373 C 3.920 9.407,3.826 9.488,3.710 9.555 C 3.207 9.844,2.764 10.316,2.522 10.820 C 2.317 11.247,2.261 11.498,2.261 12.000 C 2.261 12.502,2.317 12.753,2.522 13.180 C 2.764 13.684,3.213 14.163,3.710 14.447 C 3.826 14.514,3.920 14.595,3.920 14.628 C 3.920 14.732,4.237 15.480,4.503 16.002 C 5.219 17.412,6.297 18.610,7.606 19.452 C 10.273 21.169,13.727 21.169,16.394 19.452 C 17.703 18.610,18.781 17.412,19.497 16.002 C 19.754 15.497,20.080 14.726,20.080 14.623 C 20.080 14.593,20.174 14.514,20.290 14.447 C 20.910 14.093,21.409 13.486,21.628 12.820 C 21.719 12.543,21.733 12.432,21.733 12.000 C 21.733 11.568,21.719 11.457,21.628 11.180 C 21.409 10.513,20.916 9.915,20.290 9.555 C 20.175 9.488,20.080 9.409,20.080 9.378 C 20.080 9.274,19.755 8.505,19.497 7.998 C 18.779 6.584,17.703 5.391,16.380 4.538 C 15.688 4.092,14.676 3.662,13.880 3.475 C 13.249 3.327,12.208 3.209,12.720 3.343 C 13.589 3.571,14.329 4.282,14.630 5.180 C 14.736 5.493,14.738 5.521,14.738 6.500 C 14.738 7.481,14.736 7.506,14.630 7.820 C 14.481 8.263,14.269 8.603,13.936 8.936 C 13.601 9.271,13.260 9.482,12.820 9.628 C 12.543 9.719,12.433 9.733,12.000 9.733 C 11.567 9.733,11.457 9.719,11.180 9.628 C 10.740 9.482,10.399 9.271,10.064 8.936 C 9.596 8.468,9.322 7.896,9.259 7.258 C 9.198 6.642,9.479 6.267,10.000 6.267 C 10.231 6.267,10.357 6.313,10.514 6.455 C 10.660 6.588,10.722 6.740,10.758 7.060 C 10.798 7.423,10.910 7.663,11.149 7.899 C 11.740 8.481,12.751 8.293,13.127 7.529 C 13.215 7.349,13.220 7.299,13.220 6.500 C 13.220 5.703,13.215 5.650,13.127 5.472 C 13.010 5.234,12.767 4.990,12.536 4.878 C 12.436 4.830,12.222 4.776,12.060 4.758 C 11.722 4.720,11.573 4.654,11.426 4.480 C 11.139 4.139,11.219 3.626,11.597 3.371 L 11.732 3.280 11.456 3.284 C 11.304 3.287,11.018 3.313,10.820 3.342 M9.416 10.353 C 9.479 10.390,9.587 10.489,9.656 10.574 C 9.768 10.712,9.780 10.755,9.780 11.000 C 9.780 11.244,9.767 11.289,9.658 11.426 C 9.344 11.820,8.814 11.864,8.475 11.524 C 8.148 11.197,8.190 10.667,8.565 10.390 C 8.778 10.232,9.176 10.215,9.416 10.353 M15.416 10.353 C 15.479 10.390,15.587 10.489,15.656 10.574 C 15.768 10.712,15.780 10.755,15.780 11.000 C 15.780 11.244,15.767 11.289,15.658 11.426 C 15.344 11.820,14.814 11.864,14.475 11.524 C 14.148 11.197,14.190 10.667,14.565 10.390 C 14.778 10.232,15.176 10.215,15.416 10.353 M10.500 14.400 C 11.282 14.716,11.954 14.798,12.646 14.663 C 12.929 14.607,13.023 14.578,13.676 14.341 C 13.942 14.244,13.989 14.238,14.156 14.280 C 14.593 14.390,14.834 14.778,14.722 15.192 C 14.631 15.529,14.375 15.704,13.599 15.960 C 12.572 16.298,11.428 16.298,10.401 15.960 C 9.885 15.790,9.548 15.625,9.429 15.483 C 9.155 15.158,9.206 14.672,9.541 14.417 C 9.807 14.213,10.028 14.209,10.500 14.400 " stroke="none" fill-rule="evenodd"/></svg>