<svg xmlns="http://www.w3.org/2000/svg" viewBox="0 0 24 24"><path d="M10.74 3.423c-.44.118-1.226.503-1.587.776-.381.289-.938.896-1.184 1.291a5 5 0 0 0-.729 2.519v.231h4V5.78c0-2.317-.004-2.46-.07-2.457a4 4 0 0 0-.43.1m2.02 2.353V8.24h4v-.231a5 5 0 0 0-.729-2.519c-.247-.396-.805-1.003-1.184-1.29-.506-.381-1.329-.747-1.942-.862l-.145-.027zM7.24 10.74v1.5l-2.13.001c-1.172 0-2.201.017-2.287.037a.739.739 0 0 0-.348 1.246.84.84 0 0 0 .615.236h.15v5.469l-.241.025c-.284.03-.431.098-.573.266-.344.409-.146 1.056.365 1.198.207.058 18.211.058 18.418 0 .511-.142.709-.789.365-1.198-.142-.168-.289-.236-.573-.266l-.241-.025V13.76h.15a.84.84 0 0 0 .615-.236.739.739 0 0 0-.348-1.246c-.086-.02-1.115-.037-2.287-.037l-2.13-.001v-3H7.24zm0 5.76v2.74H4.76v-5.48h2.48zm12 0v2.74h-2.48v-5.48h2.48z"/></svg>