<svg xmlns="http://www.w3.org/2000/svg" viewBox="0 0 24 24"><path d="M11.5 3.284c-1.948.202-3.616 1.643-4.096 3.537-.142.563-.163.977-.164 3.229v2.19l-2.13.001c-1.172 0-2.201.017-2.287.037a.739.739 0 0 0-.348 1.246.84.84 0 0 0 .615.236h.15v5.469l-.241.025c-.284.03-.431.098-.573.266-.344.409-.146 1.056.365 1.198.101.028 3.1.042 9.209.042s9.108-.014 9.209-.042c.511-.142.709-.789.365-1.198-.142-.168-.289-.236-.573-.266l-.241-.025V13.76h.15a.84.84 0 0 0 .615-.236.739.739 0 0 0-.348-1.246c-.086-.02-1.115-.037-2.287-.037l-2.13-.001v-2.19c-.001-1.222-.019-2.349-.041-2.55a4.75 4.75 0 0 0-4.273-4.218c-.456-.046-.484-.046-.946.002m-.26 3.256v1.7H8.748l.024-.43c.048-.843.302-1.432.886-2.045a3.6 3.6 0 0 1 .902-.687c.16-.081.57-.23.65-.236.017-.001.03.763.03 1.698m1.971-1.559c.354.139.65.332.977.635.676.629.989 1.289 1.04 2.194l.024.43H12.76V4.838l.11.026c.061.014.214.066.341.117M15.24 11v1.24H8.76V9.76h6.48zm-8 5.5v2.74H4.76v-5.48h2.48zm4 0v2.74H8.76v-5.48h2.48zm4 0v2.74h-2.48v-5.48h2.48zm4 0v2.74h-2.48v-5.48h2.48z" fill-rule="evenodd"/></svg>