<svg xmlns="http://www.w3.org/2000/svg" viewBox="0 0 24 24"><path d="m11.32 2.264-.52.057a9.3 9.3 0 0 0-3.136.946 8.3 8.3 0 0 0-1.5.93c-2.076 1.55-3.43 3.841-3.83 6.483-.097.639-.097 2.001 0 2.66.161 1.09.45 2.015.931 2.98.552 1.107 1.101 1.853 2.001 2.72 1.487 1.432 3.309 2.319 5.394 2.626.659.097 2.021.097 2.66 0 3.3-.5 5.988-2.453 7.443-5.407a9.7 9.7 0 0 0 .922-3.059c.068-.491.068-1.909 0-2.4-.211-1.534-.742-2.96-1.558-4.18a9.84 9.84 0 0 0-6.787-4.283c-.39-.058-1.741-.106-2.02-.073m1.512 1.538c.474.052 1.169.189 1.234.243.087.072.302.644.382 1.014.088.409.148 1.9.085 2.138l-.037.137-.218-.197c-.874-.79-2.091-1.578-3.378-2.184-.514-.243-1.593-.669-1.71-.676-.098-.006.627-.236 1.005-.319a8.7 8.7 0 0 1 2.637-.156m3.445 1.145a8.6 8.6 0 0 1 2.069 1.793l.332.4-.504.048a9 9 0 0 0-1.726.337c-.227.068-.418.117-.424.109a3 3 0 0 1 .025-.394c.062-.627.003-1.889-.11-2.39-.011-.049-.008-.09.007-.09s.164.084.331.187m-8.496.49c1.543.377 2.879.965 4.239 1.866.557.369 1.18.842 1.18.896 0 .016-.266.04-.59.054-3.154.138-6.207.853-8.245 1.931-.228.12-.424.21-.435.199-.032-.032.15-.731.297-1.143a8.2 8.2 0 0 1 1.93-3.044c.529-.53.946-.873 1.064-.875.045 0 .297.052.56.116m11.788 3.299c.06.092.345.938.425 1.264.185.747.221 1.068.224 1.96.001.473-.013.93-.031 1.016l-.033.157-.141-.257c-.681-1.233-1.936-2.647-3.211-3.617l-.259-.197.29-.09a8 8 0 0 1 1.487-.29c.463-.04 1.209-.008 1.249.054M14.24 10.35a41 41 0 0 1-.141 3.03c-.258 2.833-.936 4.949-2.059 6.419-.364.477-.322.456-.827.404-1.945-.203-3.677-1.021-5.036-2.38S4 14.732 3.797 12.787c-.052-.499-.104-.408.459-.793 1.985-1.359 5.587-2.234 9.334-2.268l.65-.006zm2.04.418c1.35 1.1 2.462 2.624 3.039 4.163.088.236.161.46.161.496 0 .037-.092.239-.205.45a8.3 8.3 0 0 1-5.482 4.179c-.105.024-.104.019.096-.326.946-1.637 1.52-3.817 1.751-6.65.031-.376.111-2.173.119-2.675.001-.065-.029-.086.521.363" fill-rule="evenodd"/></svg>