<svg xmlns="http://www.w3.org/2000/svg" viewBox="0 0 24 24"><path d="M11.32 2.28A9.74 9.74 0 0 0 3.258 7.7c-.46.94-.762 1.914-.924 2.98-.097.636-.097 2.004 0 2.64.446 2.941 2.052 5.409 4.533 6.968 1.075.676 2.441 1.17 3.813 1.378.636.097 2.004.097 2.64 0 2.1-.319 3.932-1.206 5.405-2.618 1.601-1.534 2.6-3.479 2.941-5.728.097-.636.097-2.004 0-2.64-.443-2.919-2.04-5.389-4.49-6.941-.824-.522-2.118-1.053-3.056-1.253a11 11 0 0 0-2.8-.206m4.633 2.482c1.19.641 2.34 1.73 3.061 2.898l.148.24-.591.024c-1.171.049-2.247.336-3.189.85-.175.096-.322.19-.328.21-.005.02.183.149.418.287 1.408.827 2.858 2.269 3.726 3.705.302.5.682 1.279.682 1.397 0 .276-.578 1.538-.983 2.147-1.043 1.569-2.573 2.744-4.317 3.315-.7.229-1.942.46-1.868.348l.254-.383c.581-.877 1.074-2.049 1.394-3.315.401-1.592.588-3.354.628-5.931l.024-1.545-.549-.03c-.63-.033-1.677-.001-2.737.084-3.234.261-5.985 1.059-7.868 2.282-.078.051-.081.046-.068-.096a8.14 8.14 0 0 1 2.386-5.073c.66-.659 1.705-1.416 1.956-1.416.137 0 1.354.396 1.856.605a14.8 14.8 0 0 1 3.361 1.963c.388.308 1.238 1.136 1.458 1.422.091.117.179.199.195.182.035-.036.138-.531.224-1.068.032-.2.068-.715.081-1.144.027-.877-.017-1.394-.17-1.996-.053-.21-.097-.387-.097-.392 0-.02.625.275.913.43"/></svg>