<svg xmlns="http://www.w3.org/2000/svg" viewBox="0 0 24 24"><path d="M11.825 2.285c-.212.049-8.284 5.095-8.408 5.256a.78.78 0 0 0-.138.658c.062.227.289.459.508.517.117.032 2.458.042 8.278.034 7.91-.01 8.119-.012 8.27-.087a.83.83 0 0 0 .404-.54.75.75 0 0 0-.193-.623c-.168-.166-8.174-5.166-8.327-5.201l-.179-.038a.7.7 0 0 0-.215.024m2.857 3.275 2.655 1.66-2.669.01c-1.467.006-3.869.006-5.336 0l-2.668-.01 2.658-1.666c1.462-.917 2.669-1.664 2.682-1.66.013.003 1.218.753 2.678 1.666M5.82 10.276a.73.73 0 0 0-.538.515c-.06.214-.057 7.214.003 7.428.059.213.293.441.513.5.4.108.812-.12.92-.51.057-.205.057-7.213 0-7.418a.8.8 0 0 0-.353-.448.95.95 0 0 0-.545-.067m4 0a.73.73 0 0 0-.538.515c-.06.214-.057 7.214.003 7.428.059.213.293.441.513.5.4.108.812-.12.92-.51.057-.205.057-7.213 0-7.418a.8.8 0 0 0-.353-.448.95.95 0 0 0-.545-.067m4 0a.73.73 0 0 0-.538.515c-.06.214-.057 7.214.003 7.428.059.213.293.441.513.5.4.108.812-.12.92-.51.057-.205.057-7.213 0-7.418a.8.8 0 0 0-.353-.448.95.95 0 0 0-.545-.067m4 0a.73.73 0 0 0-.538.515c-.06.214-.057 7.214.003 7.428.059.213.293.441.513.5.4.108.812-.12.92-.51.057-.205.057-7.213 0-7.418a.8.8 0 0 0-.353-.448.95.95 0 0 0-.545-.067M2.805 20.28c-.391.092-.633.519-.524.924.059.218.288.453.5.511.226.063 18.212.063 18.438 0a.84.84 0 0 0 .306-.191.739.739 0 0 0-.348-1.246c-.194-.045-18.181-.043-18.372.002" fill-rule="evenodd"/></svg>