<svg fill="none" xmlns="http://www.w3.org/2000/svg" viewBox="0 0 24 24"><path d="M11.440 3.145 C 11.030 3.223,10.629 3.362,10.117 3.603 C 9.790 3.757,9.384 3.918,9.215 3.961 C 8.813 4.064,8.300 4.063,7.738 3.959 C 7.295 3.877,6.601 3.848,6.300 3.899 C 5.568 4.024,4.894 4.499,4.561 5.125 C 4.493 5.251,4.400 5.496,4.354 5.667 C 4.240 6.087,4.232 6.819,4.336 7.220 C 4.545 8.023,5.161 8.679,5.958 8.947 L 6.220 9.036 6.240 13.768 L 6.260 18.500 6.369 18.820 C 6.520 19.265,6.731 19.603,7.064 19.936 C 7.397 20.269,7.735 20.480,8.180 20.631 L 8.500 20.740 12.000 20.740 L 15.500 20.740 15.820 20.631 C 16.265 20.480,16.603 20.269,16.936 19.936 C 17.272 19.600,17.484 19.258,17.626 18.820 C 17.716 18.543,17.733 18.409,17.750 17.833 L 17.770 17.167 17.955 17.121 C 18.953 16.870,19.889 16.103,20.371 15.140 C 20.663 14.556,20.805 13.743,20.727 13.106 C 20.676 12.690,20.529 12.176,20.371 11.860 C 20.109 11.338,19.647 10.792,19.180 10.456 C 18.903 10.255,18.341 9.985,18.023 9.899 L 17.757 9.827 17.769 9.431 L 17.780 9.035 18.042 8.947 C 18.622 8.752,19.185 8.284,19.446 7.780 C 19.664 7.358,19.737 7.025,19.734 6.460 C 19.729 5.697,19.546 5.156,19.130 4.681 C 18.798 4.302,18.225 3.988,17.704 3.900 C 17.401 3.849,16.701 3.877,16.260 3.958 C 15.691 4.062,15.184 4.063,14.785 3.961 C 14.616 3.918,14.211 3.757,13.884 3.603 C 13.087 3.228,12.805 3.154,12.100 3.139 C 11.792 3.132,11.495 3.135,11.440 3.145 M12.580 4.684 C 12.668 4.708,13.001 4.849,13.320 4.998 C 14.220 5.416,14.680 5.533,15.440 5.537 C 15.796 5.539,16.094 5.512,16.477 5.445 C 17.440 5.276,17.846 5.374,18.096 5.839 C 18.302 6.219,18.285 6.821,18.059 7.153 C 17.942 7.325,17.687 7.503,17.464 7.568 C 17.189 7.648,16.629 7.621,16.131 7.504 C 15.229 7.293,14.570 7.297,13.280 7.524 C 12.261 7.704,11.739 7.704,10.720 7.524 C 9.445 7.300,8.785 7.293,7.889 7.496 C 7.299 7.630,7.020 7.654,6.719 7.600 C 6.108 7.489,5.806 7.163,5.768 6.572 C 5.735 6.060,5.892 5.690,6.223 5.496 C 6.491 5.339,6.841 5.325,7.523 5.445 C 7.906 5.512,8.204 5.539,8.560 5.537 C 9.317 5.533,9.799 5.412,10.640 5.013 C 11.154 4.769,11.435 4.666,11.700 4.625 C 11.874 4.599,12.394 4.633,12.580 4.684 M10.365 10.343 C 10.514 10.419,10.670 10.617,10.718 10.791 C 10.777 11.004,10.775 17.005,10.715 17.219 C 10.656 17.432,10.422 17.660,10.202 17.719 C 9.802 17.827,9.390 17.599,9.282 17.209 C 9.225 17.005,9.225 10.995,9.282 10.791 C 9.327 10.627,9.482 10.423,9.614 10.352 C 9.831 10.235,10.147 10.232,10.365 10.343 M14.365 10.343 C 14.514 10.419,14.670 10.617,14.718 10.791 C 14.777 11.004,14.775 17.005,14.715 17.219 C 14.656 17.432,14.422 17.660,14.202 17.719 C 13.802 17.827,13.390 17.599,13.282 17.209 C 13.225 17.005,13.225 10.995,13.282 10.791 C 13.327 10.627,13.482 10.423,13.614 10.352 C 13.831 10.235,14.147 10.232,14.365 10.343 M18.114 11.550 C 18.496 11.781,18.819 12.126,19.003 12.500 C 19.489 13.488,19.235 14.575,18.348 15.294 C 18.178 15.432,17.878 15.600,17.802 15.600 C 17.773 15.600,17.760 14.927,17.760 13.500 C 17.760 11.788,17.770 11.400,17.813 11.400 C 17.842 11.400,17.977 11.468,18.114 11.550 " stroke="none" fill-rule="evenodd"/></svg>