<svg xmlns="http://www.w3.org/2000/svg" viewBox="0 0 24 24"><path d="M11.44 3.145c-.41.078-.811.217-1.323.458a7 7 0 0 1-.902.358c-.402.103-.915.102-1.477-.002-.443-.082-1.137-.111-1.438-.06-.732.125-1.406.6-1.739 1.226a3 3 0 0 0-.207.542c-.114.42-.122 1.152-.018 1.553a2.5 2.5 0 0 0 1.622 1.727l.262.089.021 4.712c.024 5.247.003 4.862.302 5.472.341.697.993 1.228 1.777 1.447.242.068.497.073 3.68.073 3.193 0 3.437-.005 3.68-.073a2.83 2.83 0 0 0 1.981-1.967c.044-.159.074-.459.088-.886l.02-.647.186-.046c.998-.251 1.934-1.017 2.416-1.981.292-.584.434-1.397.356-2.034a4.3 4.3 0 0 0-.356-1.246 4.1 4.1 0 0 0-1.191-1.404 4.6 4.6 0 0 0-1.157-.557l-.266-.072.012-.396.011-.396.262-.088c.58-.195 1.143-.663 1.404-1.167.218-.422.291-.755.288-1.32-.005-.763-.188-1.304-.604-1.779-.332-.379-.905-.693-1.426-.781-.303-.051-1.003-.023-1.444.058-.569.104-1.076.105-1.475.003-.169-.043-.574-.204-.901-.358-.797-.375-1.079-.449-1.784-.464a7 7 0 0 0-.66.006m1.14 1.539c.088.024.421.165.74.314.9.418 1.36.535 2.12.539.356.002.654-.025 1.037-.092.963-.169 1.369-.071 1.619.394.206.38.189.982-.037 1.314a1.2 1.2 0 0 1-.595.415c-.275.08-.835.053-1.337-.065a6 6 0 0 0-1.728-.14c-.208.017-.712.09-1.119.162-1.019.179-1.541.179-2.56 0a16 16 0 0 0-1.119-.162 6.1 6.1 0 0 0-1.708.132c-.594.135-.872.159-1.174.105-.611-.111-.913-.437-.951-1.028-.033-.512.124-.882.455-1.076.268-.157.618-.171 1.3-.051.383.067.681.094 1.037.092.757-.004 1.239-.125 2.08-.524.514-.244.795-.347 1.06-.388.174-.026.694.008.88.059m-2.175 5.697c.08.051.188.162.24.246l.095.153v6.453l-.121.172c-.166.236-.346.334-.619.334s-.453-.098-.619-.334l-.121-.172V10.78l.093-.149c.233-.375.691-.484 1.052-.25m4 0c.08.051.188.162.24.246l.095.153v6.453l-.121.172c-.166.236-.346.334-.619.334s-.453-.098-.619-.334l-.121-.172V10.78l.093-.149c.233-.375.691-.484 1.052-.25m3.709 1.169c.382.231.705.576.889.95.486.988.232 2.075-.655 2.794-.17.138-.47.306-.546.306-.029 0-.042-.673-.042-2.1 0-1.712.01-2.1.053-2.1.029 0 .164.068.301.15" fill-rule="evenodd"/></svg>