<svg xmlns="http://www.w3.org/2000/svg" viewBox="0 0 24 24"><path d="M11.44 3.145c-.41.078-.811.217-1.323.458a7 7 0 0 1-.902.358c-.402.103-.915.102-1.477-.002-.443-.082-1.137-.111-1.438-.06-.732.125-1.406.6-1.739 1.226a3 3 0 0 0-.207.542c-.114.42-.122 1.152-.018 1.553a2.5 2.5 0 0 0 1.622 1.727l.262.089.02 4.732.02 4.732.109.32c.151.445.362.783.695 1.116s.671.544 1.116.695l.32.109h7l.32-.109a2.74 2.74 0 0 0 1.116-.695c.336-.336.548-.678.69-1.116.09-.277.107-.411.124-.987l.02-.666.185-.046c.998-.251 1.934-1.018 2.416-1.981.292-.584.434-1.397.356-2.034a4.3 4.3 0 0 0-.356-1.246 4.1 4.1 0 0 0-1.191-1.404 4.6 4.6 0 0 0-1.157-.557l-.266-.072.012-.396.011-.396.262-.088c.58-.195 1.143-.663 1.404-1.167.218-.422.291-.755.288-1.32-.005-.763-.188-1.304-.604-1.779-.332-.379-.905-.693-1.426-.781-.303-.051-1.003-.023-1.444.058-.569.104-1.076.105-1.475.003-.169-.043-.574-.204-.901-.358-.797-.375-1.079-.449-1.784-.464a7 7 0 0 0-.66.006m1.14 1.539c.088.024.421.165.74.314.9.418 1.36.535 2.12.539.356.002.654-.025 1.037-.092.963-.169 1.369-.071 1.619.394.206.38.189.982-.037 1.314a1.2 1.2 0 0 1-.595.415c-.275.08-.835.053-1.333-.064-.902-.211-1.561-.207-2.851.02-1.019.18-1.541.18-2.56 0-1.275-.224-1.935-.231-2.831-.028-.59.134-.869.158-1.17.104-.611-.111-.913-.437-.951-1.028-.033-.512.124-.882.455-1.076.268-.157.618-.171 1.3-.051.383.067.681.094 1.037.092.757-.004 1.239-.125 2.08-.524.514-.244.795-.347 1.06-.388.174-.026.694.008.88.059m-2.215 5.659a.8.8 0 0 1 .353.448c.059.213.057 6.214-.003 6.428-.059.213-.293.441-.513.5a.747.747 0 0 1-.92-.51c-.057-.204-.057-6.214 0-6.418.045-.164.2-.368.332-.439a.87.87 0 0 1 .751-.009m4 0a.8.8 0 0 1 .353.448c.059.213.057 6.214-.003 6.428-.059.213-.293.441-.513.5a.747.747 0 0 1-.92-.51c-.057-.204-.057-6.214 0-6.418.045-.164.2-.368.332-.439a.87.87 0 0 1 .751-.009m3.749 1.207c.382.231.705.576.889.95.486.988.232 2.075-.655 2.794-.17.138-.47.306-.546.306-.029 0-.042-.673-.042-2.1 0-1.712.01-2.1.053-2.1.029 0 .164.068.301.15"/></svg>