<svg fill="none" xmlns="http://www.w3.org/2000/svg" viewBox="0 0 24 24"><path d="M9.270 4.296 C 9.114 4.353,9.017 4.416,8.929 4.520 C 8.901 4.553,8.239 5.853,7.459 7.410 L 6.040 10.240 4.510 10.241 C 3.668 10.241,2.909 10.258,2.823 10.278 C 2.258 10.409,2.062 11.111,2.475 11.524 C 2.666 11.716,2.840 11.760,3.407 11.760 L 3.874 11.760 3.916 11.970 C 3.940 12.085,4.184 13.386,4.459 14.860 C 4.735 16.334,4.998 17.666,5.044 17.820 C 5.176 18.262,5.350 18.550,5.700 18.904 C 6.173 19.383,6.634 19.623,7.266 19.720 C 7.451 19.749,9.051 19.758,12.180 19.750 C 17.394 19.736,16.975 19.760,17.620 19.428 C 17.859 19.305,18.026 19.176,18.281 18.921 C 18.652 18.549,18.820 18.275,18.956 17.820 C 19.002 17.666,19.265 16.334,19.541 14.860 C 19.816 13.386,20.060 12.085,20.084 11.970 L 20.126 11.760 20.593 11.760 C 21.160 11.760,21.334 11.716,21.525 11.524 C 21.938 11.111,21.742 10.409,21.177 10.278 C 21.091 10.258,20.332 10.241,19.490 10.241 L 17.960 10.240 16.544 7.407 C 15.406 5.132,15.099 4.550,14.984 4.449 C 14.501 4.025,13.760 4.365,13.760 5.012 C 13.760 5.176,13.908 5.494,15.020 7.719 L 16.280 10.240 12.000 10.240 L 7.720 10.240 8.980 7.719 C 10.337 5.004,10.324 5.037,10.184 4.704 C 10.043 4.366,9.610 4.173,9.270 4.296 M9.267 12.803 C 9.427 12.863,9.598 13.034,9.684 13.220 C 9.752 13.367,9.758 13.507,9.758 15.000 C 9.758 16.493,9.752 16.633,9.684 16.780 C 9.547 17.075,9.303 17.240,9.000 17.240 C 8.697 17.240,8.453 17.075,8.316 16.780 C 8.248 16.633,8.242 16.493,8.242 15.000 C 8.242 13.505,8.247 13.367,8.316 13.216 C 8.487 12.839,8.895 12.662,9.267 12.803 M12.267 12.803 C 12.427 12.863,12.598 13.034,12.684 13.220 C 12.752 13.367,12.758 13.507,12.758 15.000 C 12.758 16.493,12.752 16.633,12.684 16.780 C 12.547 17.075,12.303 17.240,12.000 17.240 C 11.697 17.240,11.453 17.075,11.316 16.780 C 11.248 16.633,11.242 16.493,11.242 15.000 C 11.242 13.505,11.247 13.367,11.316 13.216 C 11.487 12.839,11.895 12.662,12.267 12.803 M15.267 12.803 C 15.427 12.863,15.598 13.034,15.684 13.220 C 15.752 13.367,15.758 13.507,15.758 15.000 C 15.758 16.493,15.752 16.633,15.684 16.780 C 15.547 17.075,15.303 17.240,15.000 17.240 C 14.697 17.240,14.453 17.075,14.316 16.780 C 14.248 16.633,14.242 16.493,14.242 15.000 C 14.242 13.505,14.247 13.367,14.316 13.216 C 14.487 12.839,14.895 12.662,15.267 12.803 " stroke="none" fill-rule="evenodd"/></svg>