<svg xmlns="http://www.w3.org/2000/svg" viewBox="0 0 24 24"><path d="M9.27 4.296a.74.74 0 0 0-.341.224c-.028.033-.69 1.333-1.47 2.89L6.04 10.24l-1.53.001c-.842 0-1.601.017-1.687.037a.739.739 0 0 0-.348 1.246c.191.192.365.236.932.236h.467l.042.21c.024.115.268 1.416.543 2.89.276 1.474.539 2.806.585 2.96.132.442.306.73.656 1.084.473.479.934.719 1.566.816.185.029 1.785.038 4.914.03 5.214-.014 4.795.01 5.44-.322.239-.123.406-.252.661-.507.371-.372.539-.646.675-1.101.046-.154.309-1.486.585-2.96s.519-2.775.543-2.89l.042-.21h.467c.567 0 .741-.044.932-.236a.739.739 0 0 0-.348-1.246c-.086-.02-.845-.037-1.687-.037l-1.53-.001-1.416-2.833c-1.138-2.275-1.445-2.857-1.56-2.958a.735.735 0 0 0-1.224.563c0 .164.148.482 1.26 2.707l1.26 2.521H7.72l1.26-2.521c1.357-2.715 1.344-2.682 1.204-3.015-.141-.338-.574-.531-.914-.408m9.315 7.534c-.012.038-.247 1.277-.523 2.752-.276 1.476-.53 2.766-.565 2.868-.083.243-.316.504-.583.651l-.214.119-4.613.011c-3.073.007-4.665-.003-4.767-.031-.346-.093-.75-.474-.838-.791-.023-.082-.268-1.355-.544-2.829a247 247 0 0 0-.523-2.75c-.019-.066.313-.07 6.585-.07s6.604.004 6.585.07m-9.885.987a.76.76 0 0 0-.384.399c-.069.151-.074.289-.074 1.784 0 1.493.006 1.633.074 1.78.137.295.381.46.684.46s.547-.165.684-.46c.068-.147.074-.287.074-1.78s-.006-1.633-.074-1.78c-.086-.186-.257-.357-.417-.417a.9.9 0 0 0-.567.014m3 0a.76.76 0 0 0-.384.399c-.069.151-.074.289-.074 1.784 0 1.493.006 1.633.074 1.78.137.295.381.46.684.46s.547-.165.684-.46c.068-.147.074-.287.074-1.78s-.006-1.633-.074-1.78c-.086-.186-.257-.357-.417-.417a.9.9 0 0 0-.567.014m3 0a.76.76 0 0 0-.384.399c-.069.151-.074.289-.074 1.784 0 1.493.006 1.633.074 1.78.137.295.381.46.684.46s.547-.165.684-.46c.068-.147.074-.287.074-1.78s-.006-1.633-.074-1.78c-.086-.186-.257-.357-.417-.417a.9.9 0 0 0-.567.014" fill-rule="evenodd"/></svg>