<svg xmlns="http://www.w3.org/2000/svg" viewBox="0 0 24 24"><path d="M9.27 4.296a.74.74 0 0 0-.341.224c-.028.033-.69 1.333-1.47 2.89L6.04 10.24l-1.53.001c-.842 0-1.601.017-1.687.037a.739.739 0 0 0-.348 1.246c.191.192.365.236.932.236h.467l.042.21c.024.115.268 1.416.542 2.89.275 1.474.548 2.83.607 3.014.269.839.95 1.49 1.855 1.772l.3.094h9.56l.3-.094c.902-.281 1.587-.935 1.854-1.769.059-.185.333-1.543.608-3.017s.518-2.775.542-2.89l.042-.21h.467c.567 0 .741-.044.932-.236a.739.739 0 0 0-.348-1.246c-.086-.02-.845-.037-1.687-.037l-1.53-.001-1.416-2.833c-1.138-2.275-1.445-2.857-1.56-2.958a.735.735 0 0 0-1.224.563c0 .164.148.482 1.26 2.707l1.26 2.521H7.72l1.26-2.521c1.357-2.715 1.344-2.682 1.204-3.015-.141-.338-.574-.531-.914-.408m.022 8.518c.155.065.375.305.417.457.04.142.04 3.316 0 3.458-.042.152-.262.392-.417.457a.85.85 0 0 1-.584 0c-.155-.065-.375-.305-.417-.457-.04-.142-.04-3.316 0-3.458.041-.147.259-.39.408-.455a.88.88 0 0 1 .593-.002m3 0c.155.065.375.305.417.457.04.142.04 3.316 0 3.458-.042.152-.262.392-.417.457a.85.85 0 0 1-.584 0c-.155-.065-.375-.305-.417-.457-.04-.142-.04-3.316 0-3.458.041-.147.259-.39.408-.455a.88.88 0 0 1 .593-.002m3 0c.155.065.375.305.417.457.04.142.04 3.316 0 3.458-.042.152-.262.392-.417.457a.85.85 0 0 1-.584 0c-.155-.065-.375-.305-.417-.457-.04-.142-.04-3.316 0-3.458.041-.147.259-.39.408-.455a.88.88 0 0 1 .593-.002" fill-rule="evenodd"/></svg>