<svg xmlns="http://www.w3.org/2000/svg" viewBox="0 0 24 24"><path d="M9.27 4.296a.74.74 0 0 0-.341.224c-.028.033-.69 1.333-1.47 2.89L6.04 10.24l-1.53.001c-.842 0-1.601.017-1.687.037a.739.739 0 0 0-.348 1.246c.191.192.365.236.932.236h.467l.042.21c.024.115.268 1.416.543 2.89.276 1.474.539 2.806.585 2.96.132.442.306.73.656 1.084.473.479.934.719 1.566.816.185.029 1.785.038 4.914.03 5.214-.014 4.795.01 5.44-.322.239-.123.406-.252.661-.507.371-.372.539-.646.675-1.101.046-.154.309-1.486.585-2.96s.519-2.775.543-2.89l.042-.21h.467c.567 0 .741-.044.932-.236a.739.739 0 0 0-.348-1.246c-.086-.02-.845-.037-1.687-.037l-1.53-.001-1.416-2.833c-1.138-2.275-1.445-2.857-1.56-2.958a.735.735 0 0 0-1.224.563c0 .164.148.482 1.26 2.707l1.26 2.521H7.72l1.26-2.521c1.357-2.715 1.344-2.682 1.204-3.015-.141-.338-.574-.531-.914-.408m9.311 7.514a317 317 0 0 0-.523 2.77c-.343 1.845-.535 2.785-.596 2.922-.121.27-.292.458-.549.6l-.213.118H7.3l-.213-.118a1.2 1.2 0 0 1-.549-.6c-.061-.137-.253-1.077-.596-2.922a317 317 0 0 0-.523-2.77c-.013-.04 1.321-.05 6.581-.05s6.594.01 6.581.05m-9.934 1.036a.8.8 0 0 0-.28.247l-.107.161v3.493l.111.159A.74.74 0 0 0 9 17.24a.74.74 0 0 0 .629-.334l.111-.159v-3.494l-.114-.165a.77.77 0 0 0-.979-.242m3 0a.8.8 0 0 0-.28.247l-.107.161v3.493l.111.159a.74.74 0 0 0 .629.334.74.74 0 0 0 .629-.334l.111-.159v-3.494l-.114-.165a.77.77 0 0 0-.979-.242m3 0a.8.8 0 0 0-.28.247l-.107.161v3.493l.111.159a.74.74 0 0 0 .629.334.74.74 0 0 0 .629-.334l.111-.159v-3.494l-.114-.165a.77.77 0 0 0-.979-.242"/></svg>