<svg fill="none" xmlns="http://www.w3.org/2000/svg" viewBox="0 0 24 24"><path d="M9.270 4.296 C 9.114 4.353,9.017 4.416,8.929 4.520 C 8.901 4.553,8.239 5.853,7.459 7.410 L 6.040 10.240 4.510 10.241 C 3.668 10.241,2.909 10.258,2.823 10.278 C 2.258 10.409,2.062 11.111,2.475 11.524 C 2.666 11.716,2.840 11.760,3.407 11.760 L 3.874 11.760 3.916 11.970 C 3.940 12.085,4.184 13.386,4.459 14.860 C 4.735 16.334,4.998 17.666,5.044 17.820 C 5.176 18.262,5.350 18.550,5.700 18.904 C 6.173 19.383,6.634 19.623,7.266 19.720 C 7.451 19.749,9.051 19.758,12.180 19.750 C 17.394 19.736,16.975 19.760,17.620 19.428 C 17.859 19.305,18.026 19.176,18.281 18.921 C 18.652 18.549,18.820 18.275,18.956 17.820 C 19.002 17.666,19.265 16.334,19.541 14.860 C 19.816 13.386,20.060 12.085,20.084 11.970 L 20.126 11.760 20.593 11.760 C 21.160 11.760,21.334 11.716,21.525 11.524 C 21.938 11.111,21.742 10.409,21.177 10.278 C 21.091 10.258,20.332 10.241,19.490 10.241 L 17.960 10.240 16.544 7.407 C 15.406 5.132,15.099 4.550,14.984 4.449 C 14.501 4.025,13.760 4.365,13.760 5.012 C 13.760 5.176,13.908 5.494,15.020 7.719 L 16.280 10.240 12.000 10.240 L 7.720 10.240 8.980 7.719 C 10.337 5.004,10.324 5.037,10.184 4.704 C 10.043 4.366,9.610 4.173,9.270 4.296 M18.581 11.810 C 18.572 11.838,18.337 13.084,18.058 14.580 C 17.715 16.425,17.523 17.365,17.462 17.502 C 17.341 17.772,17.170 17.960,16.913 18.102 L 16.700 18.220 12.000 18.220 L 7.300 18.220 7.087 18.102 C 6.830 17.960,6.659 17.772,6.538 17.502 C 6.477 17.365,6.285 16.425,5.942 14.580 C 5.663 13.084,5.428 11.838,5.419 11.810 C 5.406 11.770,6.740 11.760,12.000 11.760 C 17.260 11.760,18.594 11.770,18.581 11.810 M8.647 12.846 C 8.545 12.896,8.429 12.998,8.367 13.093 L 8.260 13.254 8.260 15.000 L 8.260 16.747 8.371 16.906 C 8.522 17.125,8.739 17.240,9.000 17.240 C 9.261 17.240,9.478 17.125,9.629 16.906 L 9.740 16.747 9.740 15.000 L 9.740 13.253 9.626 13.088 C 9.410 12.777,8.994 12.674,8.647 12.846 M11.647 12.846 C 11.545 12.896,11.429 12.998,11.367 13.093 L 11.260 13.254 11.260 15.000 L 11.260 16.747 11.371 16.906 C 11.522 17.125,11.739 17.240,12.000 17.240 C 12.261 17.240,12.478 17.125,12.629 16.906 L 12.740 16.747 12.740 15.000 L 12.740 13.253 12.626 13.088 C 12.410 12.777,11.994 12.674,11.647 12.846 M14.647 12.846 C 14.545 12.896,14.429 12.998,14.367 13.093 L 14.260 13.254 14.260 15.000 L 14.260 16.747 14.371 16.906 C 14.522 17.125,14.739 17.240,15.000 17.240 C 15.261 17.240,15.478 17.125,15.629 16.906 L 15.740 16.747 15.740 15.000 L 15.740 13.253 15.626 13.088 C 15.410 12.777,14.994 12.674,14.647 12.846 " stroke="none" fill-rule="evenodd"/></svg>