<svg xmlns="http://www.w3.org/2000/svg" viewBox="0 0 24 24"><path d="M9.001 3.046c-2.57.268-4.823 2.083-5.639 4.542-.346 1.041-.362 1.247-.361 4.531.001 2.63.005 2.79.076 2.946a.76.76 0 0 0 .524.412c.099.023.672.041 1.289.042L6 15.52l.001 2.19c.001 2.464-.006 2.4.302 2.635l.151.115 5.183.011c2.851.007 5.243.001 5.315-.012a.75.75 0 0 0 .29-.166c.276-.249.278-.265.278-2.66V15.52h1.113c1.293 0 1.43-.023 1.66-.278a.8.8 0 0 0 .167-.29c.013-.072.018-1.5.01-3.172l-.014-3.04-.104-.42a7 7 0 0 0-.512-1.47 6.74 6.74 0 0 0-3.58-3.361c-.834-.34-1.455-.451-2.64-.472-.782-.014-.858-.01-.68.037.68.178 1.184.726 1.305 1.421.056.316-.002.719-.148 1.027-.116.245.041.064-3.172 3.678l-2.489 2.8 4.275.02 4.275.02.166.11a.75.75 0 0 1 .103 1.157c-.225.211-.23.212-2.128.233l-1.773.02.507.638c.278.351.531.688.562.748.135.261.03.724-.207.91-.244.192-.641.207-.888.033-.069-.049-.452-.501-.85-1.004-.399-.503-.739-.899-.756-.88s-.359.446-.76.949c-.629.788-.756.925-.913.995-.346.153-.796.007-.946-.307-.202-.426-.142-.589.514-1.412l.534-.67-1.786-.02c-1.76-.02-1.787-.021-1.955-.111-.342-.183-.492-.593-.341-.933.052-.116.869-1.063 2.38-2.76l2.301-2.584-.597-.676c-.328-.372-.639-.748-.691-.837-.265-.451-.294-1.096-.07-1.589a1.75 1.75 0 0 1 1.132-.967c.21-.056.198-.058-.484-.055a14 14 0 0 0-1.039.038m1.781 1.563a.35.35 0 0 0-.062.16c0 .039.219.319.487.621l.514.582c.015.018.255-.224.533-.538.527-.594.586-.708.443-.851-.053-.054-.197-.063-.958-.063-.879 0-.896.002-.957.089"/></svg>