<svg xmlns="http://www.w3.org/2000/svg" viewBox="0 0 24 24"><path d="M9.68 3.265c-2.094.129-3.87 1.084-5.125 2.755-.599.797-1.005 1.766-1.224 2.92-.081.425-.125 5.984-.05 6.263.059.219.288.453.5.512.099.028.593.045 1.309.045h1.15v2.15c0 1.445.015 2.202.045 2.309.056.204.292.44.496.496.225.063 10.213.063 10.438 0a.82.82 0 0 0 .496-.496c.03-.107.045-.864.045-2.309v-2.15h1.15c.716 0 1.21-.017 1.309-.045.212-.059.441-.293.5-.512.035-.128.042-.93.029-3.058-.019-3.058-.019-3.06-.223-3.845A6.76 6.76 0 0 0 15.7 3.475c-.755-.195-.902-.204-3.42-.215a130 130 0 0 0-2.6.005m3.257 1.558c.147.147.086.269-.427.854-.27.306-.499.557-.51.557s-.24-.251-.51-.557c-.513-.585-.574-.707-.427-.854.094-.094 1.78-.094 1.874 0m-3.456.187c.003.552.145.817.898 1.671l.614.694-.167.189c-.091.104-.814.919-1.606 1.81l-1.44 1.62-.02-1.107c-.021-1.189-.03-1.236-.246-1.432-.157-.142-.283-.188-.514-.188-.354 0-.628.2-.718.524-.027.096-.042 1.1-.042 2.799v2.65H4.76v-2.32c0-2.564.016-2.794.245-3.509A5.3 5.3 0 0 1 7.7 5.289c.508-.253 1.247-.47 1.65-.484l.13-.005zm5.474-.168c.959.156 1.99.703 2.745 1.458a5.16 5.16 0 0 1 1.295 2.111c.229.715.245.945.245 3.509v2.32h-1.48v-2.65c0-1.699-.015-2.703-.042-2.799-.09-.324-.364-.524-.718-.524s-.628.2-.718.524c-.026.091-.042.787-.042 1.799v1.65H8.68l2.744-3.087c1.509-1.698 2.784-3.152 2.833-3.23.154-.249.231-.494.253-.813.024-.354.002-.34.445-.268M10.4 13.781c0 .012-.228.304-.506.65s-.542.71-.586.809c-.071.159-.075.205-.035.397.121.575.804.804 1.221.41.062-.059.419-.489.793-.957s.695-.85.713-.85.339.383.713.85c.374.468.731.898.793.957.417.394 1.1.165 1.221-.41.04-.192.036-.238-.035-.397-.044-.099-.308-.463-.586-.809a13 13 0 0 1-.506-.65c0-.012.594-.021 1.32-.021h1.32v5.48H7.76v-5.48h1.32c.726 0 1.32.009 1.32.021" fill-rule="evenodd"/></svg>