<svg xmlns="http://www.w3.org/2000/svg" viewBox="0 0 24 24"><path d="M9.329 4.279a1 1 0 0 0-.281.135c-.082.057-.8.757-1.595 1.555C6.24 7.187 6.001 7.446 5.964 7.58c-.062.227-.053.375.033.565.189.416.723.552 1.111.283.284-.197 3.004-2.959 3.07-3.117A.744.744 0 0 0 9.6 4.27a.9.9 0 0 0-.271.009m4.411-.019a2 2 0 0 1-.16.039c-.089.019-.526.432-1.67 1.573-1.676 1.673-1.708 1.712-1.653 2.056.079.495.63.792 1.066.572.181-.091 3.014-2.911 3.144-3.13.202-.341.083-.811-.253-.996-.15-.082-.393-.141-.474-.114m4.16-.001a2 2 0 0 1-.16.04c-.169.037-3.2 3.059-3.265 3.256-.056.171-.052.457.008.575.135.262.388.431.652.436.35.007.368-.007 1.992-1.636 1.307-1.311 1.553-1.575 1.589-1.71.054-.198.054-.242.002-.429a.8.8 0 0 0-.353-.448c-.111-.056-.397-.108-.465-.084M2.805 10.28c-.547.129-.735.839-.33 1.244.168.168.366.235.695.236.126 0 .23.013.231.03 0 .017.027.215.059.442a9 9 0 0 0 1.683 4.077l.218.289-1.036 1.556c-.57.855-1.049 1.612-1.064 1.681a.79.79 0 0 0 .331.791.76.76 0 0 0 .877-.043c.062-.052.527-.718 1.032-1.478.506-.761.939-1.376.964-1.367s.197.131.38.271c1.633 1.247 3.744 1.879 5.745 1.719 1.719-.137 3.246-.712 4.565-1.719.183-.14.354-.262.38-.271.025-.009.468.618.985 1.393.629.943.983 1.438 1.071 1.496.535.353 1.255-.122 1.147-.757-.02-.119-.298-.569-1.064-1.719l-1.038-1.557.219-.287a8.7 8.7 0 0 0 1.259-2.358c.241-.688.353-1.172.465-1.999l.026-.19h.227c.327-.001.525-.068.693-.236a.739.739 0 0 0-.348-1.246c-.194-.045-18.181-.043-18.372.002m16.275 1.502c0 .107-.105.674-.185.998a7.2 7.2 0 0 1-1.969 3.439 7 7 0 0 1-3.613 1.909c-.389.079-.574.092-1.313.092s-.924-.013-1.313-.092c-2.761-.559-4.899-2.608-5.581-5.348-.08-.323-.186-.89-.186-.998 0-.012 3.186-.022 7.08-.022s7.08.01 7.08.022" fill-rule="evenodd"/></svg>