<svg xmlns="http://www.w3.org/2000/svg" viewBox="0 0 24 24"><path d="M11.98 2.497c-.905.174-2.014.804-2.177 1.236a.9.9 0 0 0-.001.534.81.81 0 0 0 .539.457c.262.058.415.012.759-.228.79-.553 1.644-.705 2.447-.435.465.156.94.465 1.201.78l.087.106-.807-.019c-1.137-.026-1.775.073-2.512.39-1.167.502-1.924 1.461-2.203 2.79-.1.478-.076.635.138.879a.714.714 0 0 0 1.098 0c.127-.145.155-.217.271-.707.269-1.129 1.088-1.736 2.515-1.864l.315-.028-.477.476c-1.221 1.217-1.865 2.634-2.18 4.796-.079.538-.067 2.545.019 3.138.036.251.058.465.049.475s-.185.033-.389.053c-2.36.228-4.735 1.201-6.632 2.717-.528.422-1.455 1.32-1.606 1.555-.244.381-.108.858.304 1.063l.198.099h9.046c6.758 0 9.08-.012 9.182-.046a.747.747 0 0 0 .435-1.056c-.101-.209-1.061-1.153-1.639-1.614a12.67 12.67 0 0 0-6.801-2.731l-.551-.047-.027-.163c-.154-.946-.192-2.463-.082-3.297.289-2.187 1.15-3.686 2.633-4.585.172-.105.321-.181.332-.17.046.045.015 1.194-.041 1.509a3.65 3.65 0 0 1-.905 1.862c-.223.247-.296.437-.26.678.087.58.777.848 1.221.474.188-.158.572-.643.78-.987.468-.77.74-1.821.741-2.857 0-.248.014-.45.031-.45.068 0 .51.475.67.72.335.512.476.977.534 1.754.038.512.087.653.285.82a.75.75 0 0 0 1.204-.386c.053-.192-.007-1.045-.1-1.428-.322-1.322-.989-2.272-2.058-2.931l-.334-.206.114-.094c.205-.168.903-.481 1.231-.552.512-.11 1.026-.051 1.556.179.424.184.838.054 1.031-.324.148-.289.061-.712-.184-.905-.16-.126-.671-.324-1.053-.409a4.8 4.8 0 0 0-1.577-.021 4.8 4.8 0 0 0-1.775.745c-.279.189-.285.191-.324.105-.113-.247-.71-.867-1.117-1.16-.289-.207-.973-.525-1.354-.629-.407-.111-1.372-.144-1.8-.061m-6.857 7.786c-.415.054-.879.301-1.22.649-.692.705-.851 1.688-.415 2.579.178.366.635.823 1.001 1.001.901.441 1.883.277 2.592-.431.569-.569.784-1.281.62-2.052-.19-.896-.977-1.63-1.874-1.748-.344-.045-.337-.045-.704.002"/></svg>