<svg xmlns="http://www.w3.org/2000/svg" viewBox="0 0 24 24"><path d="M6.701 2.285a2 2 0 0 0-.46.144c-.265.132-.676.526-.798.766a2.5 2.5 0 0 0-.202.868l-.001.162-.385.045c-.274.032-.45.078-.61.157-.269.134-.679.527-.802.768-.207.405-.202.214-.202 7.31-.001 4.328.013 6.678.04 6.819a1.76 1.76 0 0 0 1.424 1.397c.318.052 14.272.052 14.59 0a1.75 1.75 0 0 0 1.426-1.426c.024-.144.038-2.779.038-6.815 0-7.07.005-6.881-.202-7.285-.123-.241-.533-.634-.802-.768-.16-.079-.336-.125-.61-.157l-.385-.045-.001-.162a2.5 2.5 0 0 0-.202-.868c-.122-.24-.533-.634-.797-.765-.329-.162-.64-.188-2.26-.188s-1.931.026-2.26.188c-.264.131-.675.525-.797.765-.103.2-.201.628-.202.875l-.001.17h-.48l-.001-.17c-.001-.247-.099-.675-.202-.875-.122-.24-.533-.634-.797-.765a2 2 0 0 0-.5-.148c-.338-.049-3.223-.046-3.559.003m3.466 1.541c.067.061.073.151.073 1.16 0 1.041-.004 1.098-.08 1.174-.077.077-.133.08-1.66.08s-1.583-.003-1.66-.08c-.076-.076-.08-.133-.08-1.167 0-.955.008-1.096.066-1.16.062-.068.167-.073 1.667-.073 1.433 0 1.608.007 1.674.066m7 0c.067.061.073.151.073 1.16 0 1.041-.004 1.098-.08 1.174-.077.077-.133.08-1.66.08s-1.583-.003-1.66-.08c-.076-.076-.08-.133-.08-1.167 0-.955.008-1.096.066-1.16.062-.068.167-.073 1.667-.073 1.433 0 1.608.007 1.674.066M5.24 5.935c0 .893.619 1.647 1.465 1.786.306.05 3.284.05 3.59 0 .855-.14 1.463-.892 1.465-1.811v-.15h.48v.175c0 .893.619 1.647 1.465 1.786.306.05 3.284.05 3.59 0 .855-.14 1.463-.892 1.465-1.811 0-.149.001-.15.167-.15.335 0 .313-.178.313 2.53v2.398l-.19-.025c-.105-.013-3.277-.311-7.05-.663s-6.946-.65-7.05-.663l-.19-.025V7.609c0-1.93-.013-1.849.306-1.849h.174zm9.98 9.543c.298.105.626.135.89.081.466-.095.644-.219 1.92-1.339l1.21-1.061v2.96c0 2.908-.001 2.962-.08 3.041s-.133.08-7.16.08-7.081-.001-7.16-.08-.08-.133-.08-4.055V11.13l5.13 2.139a683 683 0 0 0 5.33 2.209m-1.575-3.816c2.47.232 4.498.428 4.505.435.008.008-.492.457-1.11.998-.754.661-1.154.985-1.215.985-.066 0-3.929-1.59-6.805-2.801-.071-.03-.069-.034.026-.036.059-.002 2.128.187 4.599.419" fill-rule="evenodd"/></svg>