<svg xmlns="http://www.w3.org/2000/svg" viewBox="0 0 24 24"><path d="M8.42 3.259a2 2 0 0 1-.149.038c-.147.032-.39.251-.457.411-.084.201-.079 6.595.006 7.038A4.24 4.24 0 0 0 9.005 13c.176.176.306.32.289.32-.016 0-.877.181-1.912.402-2.124.455-2.246.495-2.617.867-.259.26-.417.557-.481.908-.029.154-.044 1.009-.043 2.42.001 2.736.008 2.779.535 3.307.287.286.492.401.858.478.396.084 12.336.084 12.732 0 .366-.077.571-.192.858-.478.527-.528.534-.571.535-3.307.001-1.388-.015-2.267-.042-2.415a1.7 1.7 0 0 0-.483-.913c-.369-.372-.491-.412-2.616-.867a162 162 0 0 0-1.912-.402c-.017 0 .113-.144.289-.32a4.24 4.24 0 0 0 1.185-2.254c.05-.262.06-.849.06-3.607 0-2.23-.014-3.33-.043-3.406-.052-.14-.218-.319-.377-.407-.109-.06-.45-.067-3.74-.073a246 246 0 0 0-3.66.006m6.331 2.491-.011.99H9.26l-.011-.99-.01-.99h5.522zm.001 3.33c.023 1.624-.133 2.171-.816 2.855a2.7 2.7 0 0 1-1.116.693c-.277.091-.387.105-.82.105s-.543-.014-.82-.105a2.7 2.7 0 0 1-1.116-.693c-.471-.472-.709-.961-.783-1.606-.045-.391-.056-2.021-.014-2.063.015-.014 1.252-.022 2.75-.016l2.723.01zm.305 5.843c1.652.354 3.044.669 3.093.701l.09.058v2.206c0 1.996-.006 2.213-.066 2.279-.059.065-.138.073-.74.073h-.674v-.65c0-.711-.031-.885-.186-1.07-.149-.177-.321-.253-.574-.253s-.425.076-.574.253c-.155.185-.186.359-.186 1.07v.65H8.76v-.65c0-.711-.031-.885-.186-1.07-.149-.177-.321-.253-.574-.253s-.425.076-.574.253c-.155.185-.186.359-.186 1.07v.65h-.667c-.564 0-.678-.01-.74-.066-.069-.063-.073-.186-.073-2.279v-2.213l.09-.058c.085-.055 5.899-1.33 6.107-1.339.054-.003 1.449.284 3.1.638m-3.237.353c-.5.125-.73.71-.446 1.132a.75.75 0 0 0 1.311-.106.74.74 0 0 0-.137-.815.8.8 0 0 0-.728-.211m-.12 2.541c-.248.111-.457.423-.459.685-.001.185.177.504.345.618.121.082.196.1.414.1s.293-.018.414-.1c.168-.114.346-.433.345-.618-.002-.263-.243-.605-.492-.699a.9.9 0 0 0-.567.014" fill-rule="evenodd"/></svg>