<svg xmlns="http://www.w3.org/2000/svg" viewBox="0 0 24 24"><path d="M8.42 3.259a2 2 0 0 1-.149.038c-.147.032-.39.251-.457.411-.084.201-.079 6.595.006 7.038A4.24 4.24 0 0 0 9.005 13c.176.176.306.32.289.32-.016 0-.877.181-1.912.402-2.124.455-2.246.495-2.617.867-.259.26-.417.557-.481.908-.029.154-.044 1.009-.043 2.42.001 2.736.008 2.779.535 3.307.287.286.492.401.858.478.396.084 12.336.084 12.732 0 .366-.077.571-.192.858-.478.527-.528.534-.571.535-3.307.001-1.388-.015-2.267-.042-2.415a1.7 1.7 0 0 0-.483-.913c-.369-.372-.491-.412-2.616-.867a162 162 0 0 0-1.912-.402c-.017 0 .113-.144.289-.32a4.24 4.24 0 0 0 1.185-2.254c.05-.262.06-.849.06-3.607 0-2.23-.014-3.33-.043-3.406-.052-.14-.218-.319-.377-.407-.109-.06-.45-.067-3.74-.073a246 246 0 0 0-3.66.006m6.34 2.481v.98H9.24V4.76h5.52zm-.008 3.34c.023 1.624-.133 2.171-.816 2.855a2.7 2.7 0 0 1-1.116.693c-.277.091-.387.105-.82.105s-.543-.014-.82-.105a2.7 2.7 0 0 1-1.116-.693c-.471-.472-.709-.961-.783-1.606-.045-.391-.056-2.021-.014-2.063.015-.014 1.252-.022 2.75-.016l2.723.01zm.288 5.844c1.661.355 3.061.67 3.11.701l.09.057v2.206c0 1.996-.006 2.213-.066 2.279-.059.065-.138.073-.74.073h-.674v-.681c0-.525-.014-.716-.062-.83a.745.745 0 0 0-1.382-.029c-.063.136-.074.265-.075.85l-.001.69H8.76l-.001-.69c-.001-.748-.036-.907-.244-1.098a.746.746 0 0 0-1.199.248c-.063.136-.074.265-.075.85l-.001.69h-.667c-.564 0-.678-.01-.74-.066-.069-.063-.073-.186-.073-2.275 0-1.969.007-2.215.064-2.262.051-.043 5.928-1.339 6.136-1.354.033-.002 1.419.286 3.08.641m-3.34.392a.745.745 0 0 0 .029 1.382.65.65 0 0 0 .542 0 .748.748 0 0 0 0-1.396.67.67 0 0 0-.571.014m-.053 2.53a.737.737 0 0 0-.326.975c.255.527 1.017.567 1.325.069a.78.78 0 0 0-.02-.802.77.77 0 0 0-.979-.242"/></svg>