<svg xmlns="http://www.w3.org/2000/svg" viewBox="0 0 24 24"><path d="M13.805 6.279c-.393.097-.633.52-.524.925.059.218.288.453.5.511.091.026.494.045.939.045l.78.001.169.429.192.495c.021.058-.059.067-.749.086-1.21.032-1.588.123-3.272.787s-1.839.702-2.84.702c-1.046 0-1.157-.03-3.36-.909-1.389-.555-1.515-.598-1.707-.582a.69.69 0 0 0-.594.409c-.211.421-.058.768.481 1.092 1.806 1.088 3.614 2.678 4.558 4.01.261.368.671 1.143.725 1.372l.027.112-.226-.012-.227-.012-.111-.323c-.165-.476-.372-.791-.803-1.217-.306-.304-.456-.418-.749-.571-.526-.273-.875-.355-1.514-.355-.637 0-.98.08-1.511.353-.3.154-.441.261-.753.571-.433.431-.655.772-.818 1.26a3.3 3.3 0 0 0 .271 2.682c.214.367.804.957 1.171 1.171a3.3 3.3 0 0 0 3.28 0c.349-.204.951-.8 1.16-1.148.084-.141.204-.402.266-.58l.112-.323 2.131-.02c2.09-.02 2.134-.022 2.293-.107.199-.106.484-.41.564-.6.032-.078.076-.352.097-.608.045-.551.145-.944.341-1.333l.143-.284.237.237.237.237-.137.273c-.478.95-.437 2.16.105 3.085.214.367.804.957 1.171 1.171a3.3 3.3 0 0 0 3.28 0c.367-.214.957-.804 1.171-1.171a3.3 3.3 0 0 0 .269-2.685c-.162-.486-.383-.827-.816-1.255-.307-.303-.458-.418-.75-.571-.526-.273-.875-.355-1.514-.355-.608 0-.965.077-1.421.307l-.291.146-.24-.24-.24-.24.283-.143c.523-.263.761-.308 1.809-.343 1.028-.035 1.205-.068 1.531-.283.252-.167.541-.494.653-.738.128-.28.191-.695.163-1.077-.041-.575-.249-1.012-.656-1.385-.367-.335-.713-.477-1.249-.515l-.338-.023-.408-1.02c-.224-.561-.445-1.078-.491-1.149a.8.8 0 0 0-.255-.22c-.164-.088-.209-.091-1.29-.098-.616-.004-1.181.007-1.255.026M20.7 8.817a.76.76 0 0 0-.384.399c-.068.149-.074.283-.075 1.504 0 .801.016 1.4.041 1.489.108.39.52.618.92.51.22-.059.454-.287.513-.5.029-.102.044-.642.044-1.499-.001-1.479-.008-1.529-.264-1.767a.75.75 0 0 0-.795-.136M5.94 14.814c.425.114.859.436 1.054.784l.091.162h-.884c-.999 0-1.091.022-1.309.307-.099.13-.112.181-.112.436 0 .263.011.303.121.439.231.285.287.298 1.291.298h.893l-.091.162c-.117.208-.45.524-.672.637-.714.364-1.541.23-2.078-.339-1.048-1.108-.287-2.918 1.236-2.936.143-.002.35.021.46.05m12.006.002a1.744 1.744 0 0 1 1.293 1.684q0 .69-.483 1.2a1.726 1.726 0 0 1-2.512 0 1.74 1.74 0 0 1-.438-1.606l.045-.182.605.6c.332.33.662.629.732.664.254.127.673.048.857-.162a.78.78 0 0 0 .118-.846c-.043-.081-.34-.409-.661-.728l-.584-.58.151-.047c.208-.064.629-.063.877.003"/></svg>