<svg xmlns="http://www.w3.org/2000/svg" viewBox="0 0 24 24"><path d="M4.617 3.283c-.584.069-1.098.328-1.552.781-.628.626-.905 1.435-.786 2.296.118.848.669 1.664 1.37 2.029a.76.76 0 0 0 1.072-.452c.104-.314-.032-.627-.38-.875-.682-.486-.781-1.373-.216-1.937.259-.259.476-.345.875-.345.275 0 .376.018.528.093.239.118.481.36.599.599l.093.188.02 6.92.02 6.92.109.32c.151.445.362.783.695 1.116s.671.544 1.116.695l.32.109h11l.32-.109a2.74 2.74 0 0 0 1.116-.695c.335-.335.546-.676.692-1.116.091-.277.105-.387.105-.82s-.014-.543-.105-.82a3.5 3.5 0 0 0-.257-.575c-.296-.498-.868-.985-1.377-1.17l-.232-.085-.012-5.425c-.012-6.043.009-5.577-.288-6.185-.308-.628-.958-1.145-1.748-1.388l-.294-.091-6.26-.006c-3.443-.003-6.388.009-6.543.028M17.6 4.923c.299.165.53.436.597.701.03.118.043 1.795.043 5.394v5.222l-4.63.001c-2.635 0-4.698.017-4.787.037a.747.747 0 0 0-.397 1.202c.146.174.289.236.64.281.579.073 1.033.434 1.139.904.184.823-.391 1.575-1.205 1.575-.474 0-.913-.277-1.127-.711l-.093-.189-.02-6.92-.02-6.92-.105-.3a15 15 0 0 0-.134-.371c-.029-.067.202-.07 4.904-.06l4.935.011zM9.805 8.28c-.391.092-.633.519-.524.924.059.218.288.453.5.511.223.062 6.215.062 6.438 0a.84.84 0 0 0 .306-.191.739.739 0 0 0-.348-1.246c-.193-.044-6.183-.043-6.372.002m0 4c-.391.092-.633.519-.524.924.059.218.288.453.5.511.223.062 6.215.062 6.438 0a.84.84 0 0 0 .306-.191.739.739 0 0 0-.348-1.246c-.193-.044-6.183-.043-6.372.002m9.723 5.593c.239.118.481.36.599.599.133.27.133.787 0 1.057-.132.268-.416.534-.674.63-.211.079-.303.081-4.099.081-3.682 0-3.881-.004-3.853-.07.298-.712.326-1.48.08-2.16l-.091-.251 3.925.01 3.925.011z" fill-rule="evenodd"/></svg>