<svg xmlns="http://www.w3.org/2000/svg" viewBox="0 0 24 24"><path d="M11.32 2.28A9.74 9.74 0 0 0 3.258 7.7c-.46.94-.762 1.914-.924 2.98-.097.636-.097 2.004 0 2.64.446 2.941 2.052 5.409 4.533 6.968 1.075.676 2.441 1.17 3.813 1.378.636.097 2.004.097 2.64 0 2.1-.319 3.932-1.206 5.405-2.618 1.601-1.534 2.6-3.479 2.941-5.728.097-.636.097-2.004 0-2.64-.443-2.919-2.04-5.389-4.49-6.941-.824-.522-2.118-1.053-3.056-1.253a11 11 0 0 0-2.8-.206m2 1.578a8.28 8.28 0 0 1 4.628 2.435c1.176 1.231 1.913 2.713 2.2 4.423.1.593.1 1.975 0 2.568-.612 3.649-3.463 6.426-7.08 6.895-3.771.489-7.369-1.653-8.767-5.219a9 9 0 0 1-.449-1.676c-.1-.593-.1-1.975 0-2.568.299-1.783 1.066-3.282 2.324-4.54 1.389-1.388 2.977-2.138 5.064-2.391.313-.038 1.715.011 2.08.073m-1.8.424a5.68 5.68 0 0 0-3.576 1.662c-.817.816-1.342 1.8-1.587 2.976-.125.596-.125 1.564 0 2.16.245 1.176.77 2.16 1.587 2.976.816.817 1.8 1.342 2.976 1.587.334.07.555.088 1.08.088s.746-.018 1.08-.088c1.176-.245 2.16-.77 2.976-1.587.817-.816 1.342-1.8 1.587-2.976.07-.334.088-.555.088-1.08s-.018-.746-.088-1.08c-.246-1.178-.771-2.162-1.588-2.976a5.69 5.69 0 0 0-4.535-1.662m1.218 1.541a4.25 4.25 0 0 1 3.442 3.458c.366 2.079-.878 4.114-2.921 4.774-.756.245-1.762.245-2.518 0-1.531-.495-2.646-1.763-2.918-3.317-.327-1.868.604-3.695 2.317-4.548a4.26 4.26 0 0 1 2.598-.367m-1.037.462c-.334.048-.639.213-.932.502a1.57 1.57 0 0 0-.491.942c-.058.339.003.743.16 1.053l.11.218-.11.218a1.81 1.81 0 0 0-.017 1.535c.127.279.547.699.826.826.324.147.697.199 1.023.143.401-.069.66-.204.954-.498s.429-.553.498-.953a1.8 1.8 0 0 0-.16-1.053L13.452 9l.11-.218a1.74 1.74 0 0 0-.258-1.931c-.417-.46-.975-.658-1.603-.566m.466 1.541c.152.138.045.414-.16.414a.243.243 0 0 1-.181-.407c.083-.091.244-.094.341-.007m0 2c.152.138.045.414-.16.414a.243.243 0 0 1-.181-.407c.083-.091.244-.094.341-.007" fill-rule="evenodd"/></svg>