<svg xmlns="http://www.w3.org/2000/svg" viewBox="0 0 24 24"><path d="M11.34 2.281c-1.875.117-3.691.798-5.256 1.971-.501.375-1.468 1.344-1.839 1.84a9.9 9.9 0 0 0-1.892 4.48c-.114.705-.123 2.019-.02 2.728a9.96 9.96 0 0 0 1.912 4.608c.377.504 1.343 1.47 1.847 1.847a9.95 9.95 0 0 0 4.608 1.911c.333.048.732.07 1.3.07 1.556 0 2.894-.306 4.26-.974 1.052-.515 1.77-1.03 2.621-1.881s1.367-1.57 1.88-2.621c1.616-3.305 1.23-7.202-1.006-10.164-1.541-2.041-3.921-3.42-6.475-3.751a11 11 0 0 0-1.94-.064m1.385 3.538A4.25 4.25 0 0 1 16.24 10 4.23 4.23 0 0 1 12 14.24a4.24 4.24 0 0 1-4.181-3.515c-.399-2.279 1.149-4.491 3.434-4.906a5.1 5.1 0 0 1 1.472 0m-1.024.466c-.334.048-.639.213-.932.502a1.57 1.57 0 0 0-.491.942c-.058.339.003.743.16 1.053l.11.218-.11.218a1.81 1.81 0 0 0-.017 1.535c.127.279.547.699.826.826.324.147.697.199 1.023.143.401-.069.66-.204.954-.498s.429-.553.498-.953a1.8 1.8 0 0 0-.16-1.053L13.452 9l.11-.218a1.74 1.74 0 0 0-.258-1.931c-.417-.46-.975-.658-1.603-.566m.466 1.541c.152.138.045.414-.16.414a.243.243 0 0 1-.181-.407c.083-.091.244-.094.341-.007m0 2c.152.138.045.414-.16.414a.243.243 0 0 1-.181-.407c.083-.091.244-.094.341-.007"/></svg>