<svg xmlns="http://www.w3.org/2000/svg" viewBox="0 0 24 24"><path d="M4.617 3.283c-.584.069-1.098.328-1.552.781-.628.626-.905 1.435-.786 2.296.118.848.669 1.664 1.37 2.029a.76.76 0 0 0 1.072-.452c.104-.314-.032-.627-.38-.875-.682-.486-.781-1.373-.216-1.937.259-.259.476-.345.875-.345.275 0 .376.018.528.093.239.118.481.36.599.599l.093.188.02 6.92.02 6.92.109.32c.151.445.362.783.695 1.116s.671.544 1.116.695l.32.109h11l.32-.109a2.74 2.74 0 0 0 1.116-.695c.335-.335.546-.676.692-1.116.091-.277.105-.387.105-.82s-.014-.543-.105-.82a3.5 3.5 0 0 0-.257-.575c-.296-.498-.868-.985-1.377-1.17l-.232-.085-.012-5.425c-.012-6.043.009-5.577-.288-6.185-.308-.628-.958-1.145-1.748-1.388l-.294-.091-6.26-.006c-3.443-.003-6.388.009-6.543.028m11.771 5.084a.7.7 0 0 1 .345.64c0 .196-.019.264-.117.402-.064.092-.18.204-.257.249-.137.081-.186.082-3.359.082s-3.222-.001-3.359-.082a1 1 0 0 1-.257-.249c-.286-.406-.054-1.014.431-1.131.069-.017 1.539-.028 3.268-.024l3.143.006zm0 4a.7.7 0 0 1 .345.64c0 .196-.019.264-.117.402-.064.092-.18.204-.257.249-.137.081-.186.082-3.359.082s-3.222-.001-3.359-.082a1 1 0 0 1-.257-.249c-.286-.406-.054-1.014.431-1.131.069-.017 1.539-.028 3.268-.024l3.143.006zm3.14 5.506c.239.118.481.36.599.599.133.27.133.787 0 1.057-.132.268-.416.534-.674.63-.211.079-.303.081-4.099.081-3.682 0-3.881-.004-3.853-.07.298-.712.326-1.48.08-2.16l-.091-.251 3.925.01 3.925.011z"/></svg>