<svg xmlns="http://www.w3.org/2000/svg" viewBox="0 0 24 24"><path d="M10.617 2.283q-.873.101-1.552.781a2.7 2.7 0 0 0-.813 1.803l-.024.373-2.124.001c-1.168 0-2.195.017-2.281.037a.739.739 0 0 0-.348 1.246.84.84 0 0 0 .306.191c.087.025.451.045.808.045h.649l.011 5.87.011 5.87.109.32c.151.445.362.783.695 1.116s.671.544 1.116.695l.32.109h9l.32-.109a2.74 2.74 0 0 0 1.116-.695c.333-.333.544-.671.695-1.116l.109-.32.011-5.87.011-5.87h.649c.357 0 .721-.02.808-.045a.84.84 0 0 0 .306-.191.739.739 0 0 0-.348-1.246c-.086-.02-1.113-.037-2.281-.037l-2.124-.001-.024-.373a2.7 2.7 0 0 0-.813-1.803c-.472-.471-.961-.709-1.606-.783-.41-.047-2.303-.045-2.712.002m2.911 1.59c.425.209.68.599.706 1.077l.015.29H9.76v-.235c0-.406.184-.767.513-1.009.309-.228.349-.233 1.767-.224 1.27.008 1.304.01 1.488.101m3.702 8.677-.01 5.79-.093.189c-.132.268-.416.534-.674.63-.212.079-.302.081-4.453.081s-4.241-.002-4.453-.081c-.258-.096-.542-.362-.674-.63l-.093-.189-.01-5.79-.011-5.79h10.482zM9.82 9.276a.73.73 0 0 0-.538.515c-.057.204-.057 6.214 0 6.418.108.39.52.618.92.51.22-.059.454-.287.513-.5.06-.214.062-6.215.003-6.428a.8.8 0 0 0-.353-.448.95.95 0 0 0-.545-.067m4 0a.73.73 0 0 0-.538.515c-.057.204-.057 6.214 0 6.418.108.39.52.618.92.51.22-.059.454-.287.513-.5.06-.214.062-6.215.003-6.428a.8.8 0 0 0-.353-.448.95.95 0 0 0-.545-.067" fill-rule="evenodd"/></svg>