<svg xmlns="http://www.w3.org/2000/svg" viewBox="0 0 24 24"><path d="M10.617 2.283q-.873.101-1.552.781a2.7 2.7 0 0 0-.813 1.803l-.024.373-2.124.001c-1.168 0-2.195.017-2.281.037a.739.739 0 0 0-.348 1.246.84.84 0 0 0 .306.191c.087.025.451.045.808.045h.649l.012 5.85c.011 5.488.017 5.865.084 6.09a2.84 2.84 0 0 0 1.986 1.967c.244.069.531.073 4.68.073 4.163 0 4.435-.004 4.68-.073.971-.274 1.69-.986 1.986-1.967.068-.226.073-.583.084-6.09l.012-5.85h.649c.357 0 .721-.02.808-.045a.84.84 0 0 0 .306-.191.739.739 0 0 0-.348-1.246c-.086-.02-1.113-.037-2.281-.037l-2.124-.001-.024-.373a2.7 2.7 0 0 0-.813-1.803c-.472-.471-.961-.709-1.606-.783-.41-.047-2.303-.045-2.712.002m2.911 1.59c.425.209.68.599.706 1.077l.015.29H9.76v-.235c0-.406.184-.767.513-1.009.309-.228.349-.233 1.767-.224 1.27.008 1.304.01 1.488.101m-3.123 5.508c.08.051.188.162.24.246l.095.153v6.453l-.121.172c-.166.236-.346.334-.619.334s-.453-.098-.619-.334l-.121-.172V9.78l.093-.149c.233-.375.691-.484 1.052-.25m4 0c.08.051.188.162.24.246l.095.153v6.453l-.121.172c-.166.236-.346.334-.619.334s-.453-.098-.619-.334l-.121-.172V9.78l.093-.149c.233-.375.691-.484 1.052-.25" fill-rule="evenodd"/></svg>