<svg xmlns="http://www.w3.org/2000/svg" viewBox="0 0 24 24"><path d="M2.9 2.259a1 1 0 0 1-.147.037c-.236.052-.51.407-.512.664-.002.296.073.406.72 1.06.622.628.633.642.577.74a4 4 0 0 0-.164.42c-.094.279-.107.384-.107.82 0 .433.014.543.105.82.146.44.357.781.692 1.116s.676.546 1.116.692c.277.091.387.105.82.105.436 0 .541-.013.82-.107.176-.059.365-.133.42-.165.099-.056.114-.043 1.227 1.068l1.127 1.125-.073.143c-.184.361-.26.724-.257 1.223.004.556.104.934.365 1.376.193.328.647.782.975.975.442.261.82.361 1.376.365.499.003.862-.073 1.223-.257l.143-.073 1.125 1.127c1.111 1.113 1.124 1.128 1.068 1.227a3.4 3.4 0 0 0-.165.42c-.094.279-.107.384-.107.82 0 .433.014.543.105.82.146.44.357.781.692 1.116s.676.546 1.116.692c.277.091.387.105.82.105.436 0 .541-.013.82-.107.176-.059.365-.133.42-.164.098-.056.112-.045.74.577.693.686.809.757 1.144.7a.756.756 0 0 0 .595-.944c-.039-.147-.148-.277-.68-.815-.622-.628-.633-.642-.577-.74.031-.055.105-.244.164-.42.094-.279.107-.384.107-.82 0-.433-.014-.543-.105-.82a2.7 2.7 0 0 0-.693-1.116c-.47-.469-.962-.71-1.596-.782-.541-.061-1.167.039-1.564.252l-.115.061-1.127-1.124-1.127-1.125.073-.143c.184-.361.26-.724.257-1.223-.004-.556-.104-.934-.365-1.376-.185-.314-.642-.777-.946-.959-.772-.462-1.906-.51-2.65-.111l-.115.061-1.127-1.124-1.127-1.125.073-.143c.184-.361.26-.724.257-1.223-.004-.556-.104-.934-.365-1.376-.185-.314-.642-.777-.946-.959-.773-.463-1.882-.51-2.652-.112l-.119.062-.597-.6c-.328-.33-.642-.624-.697-.653-.106-.055-.392-.107-.46-.083m8.717 1.024c-.585.069-1.098.328-1.552.781a2.7 2.7 0 0 0-.693 1.116c-.091.277-.105.387-.105.82s.014.543.105.82c.146.44.357.781.692 1.116s.676.546 1.116.692c.277.091.387.105.82.105s.543-.014.82-.105c.44-.146.781-.357 1.116-.692s.546-.676.692-1.116c.091-.277.105-.387.105-.82s-.014-.543-.105-.82c-.425-1.294-1.642-2.06-3.011-1.897m6 0c-.585.069-1.098.328-1.552.781a2.7 2.7 0 0 0-.693 1.116c-.091.277-.105.387-.105.82s.014.543.105.82c.146.44.357.781.692 1.116s.676.546 1.116.692c.277.091.387.105.82.105s.543-.014.82-.105c.44-.146.781-.357 1.116-.692s.546-.676.692-1.116c.091-.277.105-.387.105-.82s-.014-.543-.105-.82c-.425-1.294-1.642-2.06-3.011-1.897M6.399 4.82c.499.176.869.697.834 1.172l-.013.17-.7-.701-.699-.701h.204c.113 0 .281.027.374.06m6.129.053c.239.117.481.359.599.599.133.27.133.787 0 1.057-.464.943-1.795.943-2.252 0a1.43 1.43 0 0 1-.074-.871c.097-.348.43-.703.785-.838.232-.088.708-.061.942.053m6 0c.239.117.481.359.599.599.133.27.133.787 0 1.057-.464.943-1.795.943-2.252 0a1.43 1.43 0 0 1-.074-.871c.097-.348.43-.703.785-.838.232-.088.708-.061.942.053M5.967 7.232c-.277.017-.594-.112-.818-.333a1.18 1.18 0 0 1-.381-.819l-.015-.26.704.7.705.7zm-.35 2.051c-.585.069-1.098.328-1.552.781a2.7 2.7 0 0 0-.693 1.116c-.091.277-.105.387-.105.82s.014.543.105.82c.146.44.357.781.692 1.116s.676.546 1.116.692c.277.091.387.105.82.105s.543-.014.82-.105c.44-.146.781-.357 1.116-.692s.546-.676.692-1.116c.091-.277.105-.387.105-.82s-.014-.543-.105-.82c-.425-1.294-1.642-2.06-3.011-1.897m12 0c-.585.069-1.098.328-1.552.781a2.7 2.7 0 0 0-.693 1.116c-.091.277-.105.387-.105.82s.014.543.105.82c.146.44.357.781.692 1.116s.676.546 1.116.692c.277.091.387.105.82.105s.543-.014.82-.105c.44-.146.781-.357 1.116-.692s.546-.676.692-1.116c.091-.277.105-.387.105-.82s-.014-.543-.105-.82c-.425-1.294-1.642-2.06-3.011-1.897m-11.089 1.59c.239.117.481.359.599.599.133.27.133.787 0 1.057-.464.943-1.795.943-2.252 0a1.43 1.43 0 0 1-.074-.871c.097-.348.43-.703.785-.838.232-.088.708-.061.942.053m5.871-.053c.499.176.869.697.834 1.172l-.013.17-.7-.701-.699-.701h.204c.113 0 .281.027.374.06m6.129.053c.239.117.481.359.599.599.133.27.133.787 0 1.057-.464.943-1.795.943-2.252 0a1.43 1.43 0 0 1-.074-.871c.097-.348.43-.703.785-.838.232-.088.708-.061.942.053m-6.561 2.359c-.277.017-.594-.112-.818-.333a1.18 1.18 0 0 1-.381-.819l-.015-.26.704.7.705.7zm-6.35 2.051c-.585.069-1.098.328-1.552.781a2.7 2.7 0 0 0-.693 1.116c-.091.277-.105.387-.105.82s.014.543.105.82c.146.44.357.781.692 1.116s.676.546 1.116.692c.277.091.387.105.82.105s.543-.014.82-.105c.44-.146.781-.357 1.116-.692s.546-.676.692-1.116c.091-.277.105-.387.105-.82s-.014-.543-.105-.82c-.425-1.294-1.642-2.06-3.011-1.897m6 0c-.585.069-1.098.328-1.552.781a2.7 2.7 0 0 0-.693 1.116c-.091.277-.105.387-.105.82s.014.543.105.82c.146.44.357.781.692 1.116s.676.546 1.116.692c.277.091.387.105.82.105s.543-.014.82-.105c.44-.146.781-.357 1.116-.692s.546-.676.692-1.116c.091-.277.105-.387.105-.82s-.014-.543-.105-.82c-.425-1.294-1.642-2.06-3.011-1.897m-5.089 1.59c.239.117.481.359.599.599.133.27.133.787 0 1.057-.464.943-1.795.943-2.252 0a1.43 1.43 0 0 1-.074-.871c.097-.348.43-.703.785-.838.232-.088.708-.061.942.053m6 0c.239.117.481.359.599.599.133.27.133.787 0 1.057-.464.943-1.795.943-2.252 0a1.43 1.43 0 0 1-.074-.871c.097-.348.43-.703.785-.838.232-.088.708-.061.942.053m5.871-.053c.499.176.869.697.834 1.172l-.013.17-.7-.701-.699-.701h.204c.113 0 .281.027.374.06m-.432 2.412c-.277.017-.594-.112-.818-.333a1.18 1.18 0 0 1-.381-.819l-.015-.26.704.7.705.7z" fill-rule="evenodd"/></svg>