<svg xmlns="http://www.w3.org/2000/svg" viewBox="0 0 24 24"><path d="M6.595 3.283c-.458.049-.772.14-1.215.356-1.073.52-1.771 1.402-2.046 2.581-.07.304-.074.598-.074 5.78s.004 5.476.074 5.78c.172.74.503 1.342 1.024 1.862.504.505 1.042.809 1.782 1.009l.32.087 6.28.013c4.436.009 6.356-.001 6.54-.032.39-.066.651-.203.944-.495.292-.293.429-.554.495-.944.031-.184.041-2.104.032-6.54l-.013-6.28-.087-.32c-.317-1.174-.982-1.992-2.031-2.501-.46-.224-.739-.303-1.265-.358-.452-.048-10.309-.046-10.76.002m10.961 1.539c.141.033.366.118.5.189.314.166.767.619.933.933.253.479.25.422.25 4.025l.001 3.269-6.41.012c-5.959.012-6.428.018-6.67.083-.488.131-.896.308-1.212.523a1 1 0 0 1-.17.104c-.01 0-.018-1.633-.017-3.63 0-4.001-.005-3.904.25-4.386.166-.315.619-.767.934-.934.482-.255.198-.243 6.035-.246 4.612-.002 5.354.005 5.576.058M19.24 15.5v.74H8.296l-.158-.163a1.5 1.5 0 0 0-.306-.24c-.309-.16-.718-.061-.937.227a.79.79 0 0 0-.06.775l.084.162-.079.149a.82.82 0 0 0-.006.69.71.71 0 0 0 .6.392c.279.02.465-.061.704-.309l.158-.163H19.24v.667c0 .564-.01.678-.066.74-.064.07-.311.073-6.284.073-6.868 0-6.44.016-6.95-.253-.31-.164-.764-.618-.929-.931a2.3 2.3 0 0 1-.17-1.639c.1-.394.27-.683.581-.995.307-.306.6-.48.979-.579.29-.076.479-.079 6.569-.081l6.27-.002z" fill-rule="evenodd"/></svg>