<svg xmlns="http://www.w3.org/2000/svg" viewBox="0 0 24 24"><path d="M12.71 2.306c-.117.049-1.144 1.167-4.715 5.136-2.511 2.79-4.598 5.122-4.638 5.183-.248.378-.019.967.424 1.09.111.031 1.405.045 4.309.045h4.15v1.478l-4.737.011-4.736.011-.172.121a1 1 0 0 0-.252.259c-.11.188-.111.536-.002.708.117.186 2.932 3.396 3.205 3.655.379.36.808.581 1.357.697.414.088 9.78.088 10.194 0a2.75 2.75 0 0 0 1.32-.658c.208-.193 2.996-3.356 3.185-3.613a.75.75 0 0 0-.257-1.1c-.115-.064-.42-.07-3.855-.08l-3.73-.011V13.76h3.15c2.043 0 3.202-.015 3.299-.042a.75.75 0 0 0 .511-.922c-.042-.16-.357-.487-3.503-3.636L13.76 5.699l-.001-1.419c-.001-1.295-.007-1.434-.075-1.58a.743.743 0 0 0-.974-.394m-.483 9.921c-.008.007-1.477.009-3.266.003l-3.251-.01 3.255-3.617 3.255-3.616.01 3.613c.006 1.987.004 3.619-.003 3.627m3.753-2.187 2.2 2.2h-4.42v-2.2c0-1.21.005-2.2.01-2.2.006 0 1 .99 2.21 2.2m3.293 6.79c-.611.717-1.784 2.03-1.913 2.14-.334.287.001.27-5.36.27s-5.026.017-5.36-.27c-.129-.11-1.302-1.423-1.913-2.14-.057-.067.294-.07 7.273-.07s7.33.003 7.273.07" fill-rule="evenodd"/></svg>