<svg xmlns="http://www.w3.org/2000/svg" viewBox="0 0 24 24"><path d="M12.71 2.306c-.117.049-1.144 1.167-4.715 5.136-2.511 2.79-4.598 5.122-4.638 5.183-.248.378-.019.967.424 1.09.111.031 1.405.045 4.309.045h4.15V16H2.998l1.533 1.75c1.607 1.834 1.738 1.961 2.209 2.139l.24.091h10.04l.23-.088c.488-.186.603-.298 2.217-2.14L21.002 16H13.76l-.001-6.57c-.001-6.302-.004-6.577-.075-6.73a.743.743 0 0 0-.974-.394m2.442 5.536c-.303.16-.444.486-.374.866.025.134.228.353 1.712 1.84l1.683 1.687-1.436.013c-1.249.01-1.453.021-1.557.078-.582.323-.56 1.081.04 1.358.15.07.307.074 2.5.075 1.489 0 2.394-.014 2.489-.041a.75.75 0 0 0 .511-.922c-.042-.159-.274-.404-2.393-2.529-1.295-1.298-2.414-2.387-2.495-2.43a.8.8 0 0 0-.68.005"/></svg>