<svg xmlns="http://www.w3.org/2000/svg" viewBox="0 0 24 24"><path d="M11.665 2.042c-1.006.252-2.835 1.922-3.964 3.618-1.107 1.662-1.577 3.229-1.424 4.74.151 1.482.657 2.624 1.561 3.522.77.764 1.809 1.277 2.995 1.48.57.098.755.097.391-.001-1.11-.299-1.818-1.167-1.944-2.383-.07-.673.046-1.212.416-1.925.232-.447.572-.901.994-1.325.493-.497.942-.763 1.294-.767.38-.004.846.276 1.384.831 1.009 1.04 1.463 2.114 1.351 3.194-.126 1.219-.817 2.06-1.958 2.382l-.261.074.26-.023a6 6 0 0 0 2.689-.949c1.331-.891 2.117-2.339 2.278-4.199.141-1.622-.459-3.371-1.753-5.115-1.05-1.415-2.49-2.712-3.413-3.076-.251-.099-.669-.135-.896-.078M3.787 15.289c-.339.09-.586.482-.526.834.031.187.217.454.368.53.061.03 1.259.341 2.661.691s2.55.645 2.55.656-1.148.306-2.55.655c-1.784.444-2.594.662-2.695.727-.31.198-.432.648-.262.969a.9.9 0 0 0 .54.388c.119.02.973-.18 4.078-.957 2.161-.54 3.983-.982 4.049-.982s1.889.443 4.05.984c3.766.943 3.937.982 4.109.938.373-.097.576-.351.578-.726a.71.71 0 0 0-.344-.626c-.076-.045-1.232-.353-2.683-.714-1.402-.35-2.55-.645-2.55-.656s1.148-.307 2.55-.656c1.403-.35 2.6-.661 2.661-.691.151-.076.337-.343.368-.53a.75.75 0 0 0-.568-.84c-.19-.046-.295-.022-4.123.935-2.16.54-3.982.982-4.048.982s-1.884-.441-4.04-.98-3.942-.978-3.97-.976a2 2 0 0 0-.203.045" fill-rule="evenodd"/></svg>