<svg xmlns="http://www.w3.org/2000/svg" viewBox="0 0 24 24"><path d="M15.74 3.019c-.132.029-1.086.28-2.12.558-2.152.579-2.339.651-2.668 1.024l-.209.238-.048-.234c-.068-.333-.191-.549-.471-.825-.296-.292-.592-.445-.964-.498-.366-.053-4.154-.053-4.52 0-.372.053-.668.206-.964.498-.286.282-.4.487-.478.854-.084.397-.084 14.335 0 14.732.077.366.192.571.478.858.526.525.582.535 3.224.535 2.223 0 2.44-.015 2.788-.193.214-.109.54-.409.69-.635.281-.425.26.08.282-6.735l.02-6.144 1.715 6.364c1.231 4.57 1.752 6.445 1.849 6.65.168.355.439.611.856.809.275.13.33.142.66.141.338 0 .485-.034 2.371-.549 1.107-.302 2.088-.578 2.18-.615.722-.282 1.213-1.133 1.072-1.857-.096-.491-3.684-13.738-3.791-13.995-.199-.478-.738-.897-1.287-1-.269-.05-.363-.047-.665.019m.534 1.535c.07.07.236.629.198.667-.01.01-.979.278-2.154.595-1.5.405-2.146.564-2.166.532a2 2 0 0 1-.095-.32c-.088-.361-.054-.44.231-.529.514-.16 3.703-1.011 3.802-1.015a.28.28 0 0 1 .184.07m-7.107.272c.065.059.073.138.073.74v.674H4.76v-.667c0-.564.01-.678.066-.74.063-.069.183-.073 2.167-.073 1.899 0 2.108.006 2.174.066m7.9 2.497c.092.339.16.623.152.631a311 311 0 0 1-4.303 1.166c-.03 0-.366-1.243-.342-1.267.029-.029 4.243-1.166 4.286-1.156.022.005.115.287.207.626M9.24 12v4.24H4.76V7.76h4.48zm9.298.775c.498 1.845.898 3.362.888 3.372-.042.043-4.289 1.166-4.312 1.141-.024-.026-1.836-6.703-1.821-6.712.022-.011 4.328-1.166 4.333-1.162s.414 1.516.912 3.361m1.363 5.055c.109.375.114.463.033.558-.058.067-.489.197-2.022.609-1.072.287-1.994.523-2.049.523a.2.2 0 0 1-.16-.09c-.063-.098-.205-.622-.175-.651.015-.015 4.189-1.161 4.279-1.175.015-.002.057.099.094.226m-10.661.597c0 .564-.01.678-.066.74-.063.069-.183.073-2.167.073-1.899 0-2.108-.006-2.174-.066-.065-.059-.073-.138-.073-.74v-.674h4.48z" fill-rule="evenodd"/></svg>