<svg fill="none" xmlns="http://www.w3.org/2000/svg" viewBox="0 0 24 24"><path d="M15.740 3.019 C 15.608 3.048,14.654 3.299,13.620 3.577 C 11.468 4.156,11.281 4.228,10.952 4.601 L 10.743 4.839 10.695 4.605 C 10.627 4.272,10.504 4.056,10.224 3.780 C 9.928 3.488,9.632 3.335,9.260 3.282 C 8.894 3.229,5.106 3.229,4.740 3.282 C 4.368 3.335,4.072 3.488,3.776 3.780 C 3.490 4.062,3.376 4.267,3.298 4.634 C 3.214 5.031,3.214 18.969,3.298 19.366 C 3.375 19.732,3.490 19.937,3.776 20.224 C 4.302 20.749,4.358 20.759,7.000 20.759 C 9.223 20.759,9.440 20.744,9.788 20.566 C 10.002 20.457,10.328 20.157,10.478 19.931 C 10.759 19.506,10.738 20.011,10.760 13.196 L 10.780 7.052 12.495 13.416 C 13.726 17.986,14.247 19.861,14.344 20.066 C 14.512 20.421,14.783 20.677,15.200 20.875 C 15.475 21.005,15.530 21.017,15.860 21.016 C 16.198 21.016,16.345 20.982,18.231 20.467 C 19.338 20.165,20.319 19.889,20.411 19.852 C 21.133 19.570,21.624 18.719,21.483 17.995 C 21.387 17.504,17.799 4.257,17.692 4.000 C 17.493 3.522,16.954 3.103,16.405 3.000 C 16.136 2.950,16.042 2.953,15.740 3.019 M16.253 4.530 C 16.315 4.576,16.511 5.183,16.475 5.219 C 16.454 5.240,12.183 6.392,12.169 6.380 C 12.163 6.375,12.121 6.239,12.077 6.078 C 11.986 5.750,12.000 5.617,12.131 5.557 C 12.258 5.499,16.003 4.486,16.102 4.483 C 16.148 4.481,16.215 4.503,16.253 4.530 M9.167 4.826 C 9.232 4.885,9.240 4.964,9.240 5.566 L 9.240 6.240 7.000 6.240 L 4.760 6.240 4.760 5.573 C 4.760 5.009,4.770 4.895,4.826 4.833 C 4.889 4.764,5.009 4.760,6.993 4.760 C 8.892 4.760,9.101 4.766,9.167 4.826 M17.063 7.323 C 17.211 7.870,17.222 7.943,17.165 7.969 C 17.071 8.010,12.911 9.125,12.900 9.111 C 12.881 9.087,12.562 7.865,12.572 7.854 C 12.596 7.831,16.822 6.690,16.859 6.698 C 16.880 6.702,16.972 6.983,17.063 7.323 M9.240 12.000 L 9.240 16.240 7.000 16.240 L 4.760 16.240 4.760 12.000 L 4.760 7.760 7.000 7.760 L 9.240 7.760 9.240 12.000 M18.539 12.797 C 19.034 14.632,19.434 16.139,19.427 16.146 C 19.390 16.183,15.136 17.309,15.115 17.287 C 15.086 17.255,13.320 10.705,13.320 10.628 C 13.320 10.591,13.987 10.395,15.470 9.995 C 16.652 9.675,17.624 9.425,17.630 9.437 C 17.635 9.450,18.044 10.962,18.539 12.797 M19.923 17.922 C 20.011 18.240,20.001 18.375,19.885 18.437 C 19.793 18.486,15.970 19.520,15.880 19.520 C 15.751 19.520,15.678 19.414,15.595 19.108 C 15.548 18.937,15.517 18.790,15.525 18.782 C 15.546 18.762,19.817 17.608,19.831 17.620 C 19.837 17.625,19.879 17.761,19.923 17.922 M9.240 18.427 C 9.240 18.991,9.230 19.105,9.174 19.167 C 9.111 19.236,8.991 19.240,7.007 19.240 C 5.108 19.240,4.899 19.234,4.833 19.174 C 4.768 19.115,4.760 19.036,4.760 18.434 L 4.760 17.760 7.000 17.760 L 9.240 17.760 9.240 18.427 " stroke="none" fill-rule="evenodd"/></svg>