<svg xmlns="http://www.w3.org/2000/svg" viewBox="0 0 24 24"><path d="M15.74 3.019c-.132.029-1.086.28-2.12.558-2.152.579-2.339.651-2.668 1.024l-.209.238-.048-.234c-.068-.333-.191-.549-.471-.825-.296-.292-.592-.445-.964-.498-.366-.053-4.154-.053-4.52 0-.372.053-.668.206-.964.498-.286.282-.4.487-.478.854-.084.397-.084 14.335 0 14.732.077.366.192.571.478.858.526.525.582.535 3.224.535 2.223 0 2.44-.015 2.788-.193.214-.109.54-.409.69-.635.281-.425.26.08.282-6.735l.02-6.144 1.715 6.364c1.231 4.57 1.752 6.445 1.849 6.65.168.355.439.611.856.809.275.13.33.142.66.141.338 0 .485-.034 2.371-.549 1.107-.302 2.088-.578 2.18-.615.722-.282 1.213-1.133 1.072-1.857-.096-.491-3.684-13.738-3.791-13.995-.199-.478-.738-.897-1.287-1-.269-.05-.363-.047-.665.019m.513 1.511c.062.046.258.653.222.689-.021.021-4.292 1.173-4.306 1.161a3 3 0 0 1-.092-.302c-.091-.328-.077-.461.054-.521.127-.058 3.872-1.071 3.971-1.074a.3.3 0 0 1 .151.047m-7.086.296c.065.059.073.138.073.74v.674H4.76v-.667c0-.564.01-.678.066-.74.063-.069.183-.073 2.167-.073 1.899 0 2.108.006 2.174.066m7.896 2.497c.148.547.159.62.102.646-.094.041-4.254 1.156-4.265 1.142a23 23 0 0 1-.328-1.257c.024-.023 4.25-1.164 4.287-1.156.021.004.113.285.204.625M9.24 12v4.24H4.76V7.76h4.48zm9.299.797c.495 1.835.895 3.342.888 3.349-.037.037-4.291 1.163-4.312 1.141-.029-.032-1.795-6.582-1.795-6.659 0-.037.667-.233 2.15-.633 1.182-.32 2.154-.57 2.16-.558.005.013.414 1.525.909 3.36m1.384 5.125c.088.318.078.453-.038.515-.092.049-3.915 1.083-4.005 1.083-.129 0-.202-.106-.285-.412-.047-.171-.078-.318-.07-.326.021-.02 4.292-1.174 4.306-1.162.006.005.048.141.092.302m-10.683.505c0 .564-.01.678-.066.74-.063.069-.183.073-2.167.073-1.899 0-2.108-.006-2.174-.066-.065-.059-.073-.138-.073-.74v-.674h4.48z"/></svg>