<svg fill="none" xmlns="http://www.w3.org/2000/svg" viewBox="0 0 24 24"><path d="M15.740 3.019 C 15.608 3.048,14.654 3.299,13.620 3.577 C 11.468 4.156,11.281 4.228,10.952 4.601 L 10.743 4.839 10.695 4.605 C 10.627 4.272,10.504 4.056,10.224 3.780 C 9.928 3.488,9.632 3.335,9.260 3.282 C 8.894 3.229,5.106 3.229,4.740 3.282 C 4.368 3.335,4.072 3.488,3.776 3.780 C 3.490 4.062,3.376 4.267,3.298 4.634 C 3.214 5.031,3.214 18.969,3.298 19.366 C 3.375 19.732,3.490 19.937,3.776 20.224 C 4.302 20.749,4.358 20.759,7.000 20.759 C 9.223 20.759,9.440 20.744,9.788 20.566 C 10.002 20.457,10.328 20.157,10.478 19.931 C 10.759 19.506,10.738 20.011,10.760 13.196 L 10.780 7.052 12.495 13.416 C 13.726 17.986,14.247 19.861,14.344 20.066 C 14.512 20.421,14.783 20.677,15.200 20.875 C 15.475 21.005,15.530 21.017,15.860 21.016 C 16.198 21.016,16.345 20.982,18.231 20.467 C 19.338 20.165,20.319 19.889,20.411 19.852 C 21.133 19.570,21.624 18.719,21.483 17.995 C 21.387 17.504,17.799 4.257,17.692 4.000 C 17.493 3.522,16.954 3.103,16.405 3.000 C 16.136 2.950,16.042 2.953,15.740 3.019 M16.274 4.554 C 16.344 4.624,16.510 5.183,16.472 5.221 C 16.462 5.231,15.493 5.499,14.318 5.816 C 12.818 6.221,12.172 6.380,12.152 6.348 C 12.137 6.323,12.094 6.179,12.057 6.028 C 11.969 5.667,12.003 5.588,12.288 5.499 C 12.802 5.339,15.991 4.488,16.090 4.484 C 16.151 4.482,16.233 4.513,16.274 4.554 M9.167 4.826 C 9.232 4.885,9.240 4.964,9.240 5.566 L 9.240 6.240 7.000 6.240 L 4.760 6.240 4.760 5.573 C 4.760 5.009,4.770 4.895,4.826 4.833 C 4.889 4.764,5.009 4.760,6.993 4.760 C 8.892 4.760,9.101 4.766,9.167 4.826 M17.067 7.323 C 17.159 7.662,17.227 7.946,17.219 7.954 C 17.204 7.969,12.957 9.120,12.916 9.120 C 12.886 9.120,12.550 7.877,12.574 7.853 C 12.603 7.824,16.817 6.687,16.860 6.697 C 16.882 6.702,16.975 6.984,17.067 7.323 M9.240 12.000 L 9.240 16.240 7.000 16.240 L 4.760 16.240 4.760 12.000 L 4.760 7.760 7.000 7.760 L 9.240 7.760 9.240 12.000 M18.538 12.775 C 19.036 14.620,19.436 16.137,19.426 16.147 C 19.384 16.190,15.137 17.313,15.114 17.288 C 15.090 17.262,13.278 10.585,13.293 10.576 C 13.315 10.565,17.621 9.410,17.626 9.414 C 17.630 9.418,18.040 10.930,18.538 12.775 M19.901 17.830 C 20.010 18.205,20.015 18.293,19.934 18.388 C 19.876 18.455,19.445 18.585,17.912 18.997 C 16.840 19.284,15.918 19.520,15.863 19.520 C 15.802 19.520,15.739 19.484,15.703 19.430 C 15.640 19.332,15.498 18.808,15.528 18.779 C 15.543 18.764,19.717 17.618,19.807 17.604 C 19.822 17.602,19.864 17.703,19.901 17.830 M9.240 18.427 C 9.240 18.991,9.230 19.105,9.174 19.167 C 9.111 19.236,8.991 19.240,7.007 19.240 C 5.108 19.240,4.899 19.234,4.833 19.174 C 4.768 19.115,4.760 19.036,4.760 18.434 L 4.760 17.760 7.000 17.760 L 9.240 17.760 9.240 18.427 " stroke="none" fill-rule="evenodd" fill="currentColor"/></svg>