<svg xmlns="http://www.w3.org/2000/svg" viewBox="0 0 24 24"><path d="M11.34 3.281A8.68 8.68 0 0 0 5.819 5.82c-1.344 1.343-2.192 3.027-2.485 4.94-.096.63-.096 1.85 0 2.48.398 2.594 1.87 4.839 4.07 6.205 1.518.943 3.456 1.42 5.206 1.282 2.156-.17 4.071-1.045 5.57-2.546 1.505-1.508 2.377-3.414 2.547-5.571.214-2.714-.976-5.533-3.073-7.281-1.795-1.495-4.014-2.215-6.314-2.048m1.892 1.575a7.25 7.25 0 0 1 3.883 2.029c1.088 1.088 1.776 2.428 2.052 3.995.032.183.052.62.052 1.12s-.02.937-.052 1.12c-.275 1.564-.96 2.9-2.047 3.992-1.037 1.042-2.281 1.708-3.76 2.013-.404.084-.569.095-1.36.095s-.956-.011-1.36-.095c-1.461-.301-2.72-.97-3.731-1.981-1.122-1.122-1.79-2.418-2.075-4.024-.071-.4-.071-1.84 0-2.24a9 9 0 0 1 .384-1.441 7.4 7.4 0 0 1 4.221-4.221c.522-.201 1.029-.32 1.861-.435.266-.037 1.615.014 1.932.073m1.573 2.423a.77.77 0 0 0-.544.597c-.077.453.303.883.781.884.157 0 .441-.164.576-.334.109-.137.122-.182.122-.426 0-.245-.012-.288-.124-.426-.212-.262-.506-.369-.811-.295m-2 2a.77.77 0 0 0-.544.597c-.077.453.303.883.781.884.157 0 .441-.164.576-.334.109-.137.122-.182.122-.426 0-.245-.012-.288-.124-.426-.212-.262-.506-.369-.811-.295m3 1a.77.77 0 0 0-.544.597c-.077.453.303.883.781.884.157 0 .441-.164.576-.334.109-.137.122-.182.122-.426 0-.245-.012-.288-.124-.426-.212-.262-.506-.369-.811-.295" fill-rule="evenodd"/></svg>