<svg xmlns="http://www.w3.org/2000/svg" viewBox="0 0 24 24"><path d="M8.331 3.279c-.346.082-.458.236-.699.959-.199.6-.207.638-.209 1.082-.004.575.056.803.386 1.475l.247.505-.002.36c-.002.307-.024.421-.148.778-.151.432-.176.636-.103.829.093.249.438.491.697.491a.8.8 0 0 0 .28-.073c.291-.134.362-.245.587-.92.201-.604.208-.641.21-1.085.004-.572-.055-.798-.382-1.475-.336-.694-.349-.865-.119-1.569.175-.535.197-.721.11-.928-.071-.171-.307-.373-.495-.426-.168-.046-.178-.046-.36-.003m3.456.01a.9.9 0 0 0-.306.186c-.132.126-.176.221-.335.716-.211.653-.268 1.025-.222 1.442.041.377.112.589.41 1.227.312.669.318.802.07 1.558-.189.576-.195.745-.031.988a.73.73 0 0 0 .865.295c.308-.103.41-.251.62-.903.207-.643.259-.981.218-1.414-.037-.383-.107-.595-.409-1.243-.315-.674-.321-.808-.072-1.56.182-.55.192-.696.064-.943-.078-.15-.28-.3-.479-.354-.183-.05-.187-.05-.393.005m3.544-.01c-.346.082-.458.236-.699.959-.199.6-.207.638-.209 1.082-.004.575.056.803.386 1.475l.247.505-.002.36c-.002.307-.024.421-.148.778-.151.432-.176.636-.103.829.093.249.438.491.697.491a.8.8 0 0 0 .28-.073c.291-.134.362-.245.587-.92.201-.604.208-.641.21-1.085.004-.572-.055-.798-.382-1.475-.336-.694-.349-.865-.119-1.569.175-.535.197-.721.11-.928-.071-.171-.307-.373-.495-.426-.168-.046-.178-.046-.36-.003M2.82 10.277a.66.66 0 0 0-.395.244c-.161.192-.198.397-.168.939.178 3.217 1.865 6.097 4.572 7.806.554.35 1.316.714 1.991.952.068.024.057.036-.074.082a.738.738 0 0 0-.271 1.224.84.84 0 0 0 .306.191c.223.062 6.215.062 6.438 0a.84.84 0 0 0 .306-.191.738.738 0 0 0-.271-1.224c-.131-.046-.142-.058-.074-.082 2.456-.867 4.425-2.607 5.561-4.916a9.8 9.8 0 0 0 1.002-3.842c.037-.678-.056-.944-.398-1.131-.117-.065-.715-.069-9.265-.075-5.027-.003-9.194.007-9.26.023"/></svg>