<svg xmlns="http://www.w3.org/2000/svg" viewBox="0 0 24 24"><path d="M11.36 3.281a8.4 8.4 0 0 0-3.22.879c-2.805 1.379-4.618 4.072-4.867 7.23-.138 1.749.34 3.688 1.28 5.203a9.1 9.1 0 0 0 2.854 2.854c1.515.94 3.454 1.418 5.203 1.28 2.157-.17 4.066-1.043 5.57-2.547s2.377-3.413 2.547-5.57c.214-2.713-.977-5.533-3.073-7.281-1.792-1.493-3.976-2.204-6.294-2.048m4 4.06a.78.78 0 0 1 .338.388c.215.514-.241 1.097-.792 1.014-.666-.1-.882-.961-.339-1.348a.8.8 0 0 1 .793-.054m-2 2a.78.78 0 0 1 .338.388c.215.514-.241 1.097-.792 1.014-.666-.1-.882-.961-.339-1.348a.8.8 0 0 1 .793-.054m3 1a.78.78 0 0 1 .338.388c.215.514-.241 1.097-.792 1.014-.666-.1-.882-.961-.339-1.348a.8.8 0 0 1 .793-.054"/></svg>