<svg fill="none" xmlns="http://www.w3.org/2000/svg" viewBox="0 0 24 24"><path d="M11.589 2.441 C 11.378 2.494,11.561 2.395,7.601 4.614 C 4.393 6.412,3.996 6.645,3.778 6.860 C 3.515 7.119,3.358 7.403,3.285 7.752 C 3.222 8.050,3.222 15.950,3.285 16.248 C 3.358 16.596,3.515 16.881,3.777 17.140 C 3.995 17.355,4.387 17.586,7.560 19.368 C 9.507 20.461,11.208 21.406,11.340 21.468 C 11.555 21.568,11.624 21.580,12.000 21.580 C 12.376 21.580,12.445 21.568,12.660 21.468 C 12.792 21.406,14.493 20.461,16.440 19.368 C 19.613 17.586,20.005 17.355,20.223 17.140 C 20.485 16.881,20.642 16.596,20.715 16.248 C 20.778 15.950,20.778 8.050,20.715 7.752 C 20.642 7.403,20.485 7.119,20.222 6.860 C 20.004 6.645,19.605 6.410,16.399 4.612 C 14.431 3.508,12.734 2.566,12.628 2.519 C 12.408 2.422,11.834 2.379,11.589 2.441 M15.255 5.693 C 16.989 6.669,18.408 7.482,18.408 7.502 C 18.409 7.543,16.245 8.769,16.201 8.752 C 16.028 8.684,9.774 5.133,9.793 5.114 C 9.892 5.016,11.918 3.920,12.000 3.920 C 12.060 3.920,13.395 4.648,15.255 5.693 M11.461 7.809 C 13.230 8.804,14.664 9.631,14.649 9.645 C 14.535 9.749,12.016 11.123,11.965 11.108 C 11.824 11.068,5.581 7.529,5.592 7.496 C 5.605 7.459,8.154 6.007,8.213 6.002 C 8.230 6.001,9.692 6.814,11.461 7.809 M8.240 10.752 L 11.220 12.429 11.230 16.054 C 11.236 18.049,11.229 19.680,11.216 19.680 C 11.176 19.680,4.907 16.153,4.830 16.087 C 4.764 16.031,4.760 15.806,4.760 12.412 L 4.760 8.796 5.010 8.936 C 5.147 9.013,6.601 9.830,8.240 10.752 M19.170 16.085 C 19.132 16.122,17.795 16.885,16.200 17.781 C 14.605 18.678,13.178 19.479,13.030 19.563 L 12.760 19.716 12.770 16.070 L 12.780 12.424 16.000 10.613 L 19.220 8.802 19.230 12.409 C 19.240 15.805,19.236 16.021,19.170 16.085 " fill="currentColor" stroke="none" fill-rule="evenodd"/></svg>