<svg xmlns="http://www.w3.org/2000/svg" viewBox="0 0 24 24"><path d="M11.589 2.441c-.211.053-.028-.046-3.988 2.173C4.393 6.412 3.996 6.645 3.778 6.86a1.7 1.7 0 0 0-.493.892c-.063.298-.063 8.198 0 8.496.073.348.23.633.492.892.218.215.61.446 3.783 2.228 1.947 1.093 3.648 2.038 3.78 2.1.215.1.284.112.66.112s.445-.012.66-.112c.132-.062 1.833-1.007 3.78-2.1 3.173-1.782 3.565-2.013 3.783-2.228.262-.259.419-.544.492-.892.063-.298.063-8.198 0-8.496a1.7 1.7 0 0 0-.493-.892c-.218-.215-.617-.45-3.823-2.248-1.968-1.104-3.665-2.046-3.771-2.093-.22-.097-.794-.14-1.039-.078m3.666 3.252c1.734.976 3.153 1.789 3.153 1.809.001.041-2.163 1.267-2.207 1.25-.173-.068-6.427-3.619-6.408-3.638C9.892 5.016 11.918 3.92 12 3.92c.06 0 1.395.728 3.255 1.773m-3.794 2.116c1.769.995 3.203 1.822 3.188 1.836-.114.104-2.633 1.478-2.684 1.463-.141-.04-6.384-3.579-6.373-3.612.013-.037 2.562-1.489 2.621-1.494.017-.001 1.479.812 3.248 1.807m7.709 8.276c-.038.037-1.375.8-2.97 1.696l-3.17 1.782-.27.153.01-3.646.01-3.646L16 10.613l3.22-1.811.01 3.607c.01 3.396.006 3.612-.06 3.676"/></svg>