<svg xmlns="http://www.w3.org/2000/svg" viewBox="0 0 24 24"><path d="M9.617 3.283q-.873.101-1.552.781a2.7 2.7 0 0 0-.692 1.116c-.098.296-.107.385-.124 1.19l-.018.87H6.126c-.608.001-1.263.019-1.455.041-.645.074-1.134.312-1.606.783a2.74 2.74 0 0 0-.696 1.116l-.109.32v9l.109.32c.151.445.362.783.695 1.116s.671.544 1.116.695l.32.109h15l.32-.109a2.74 2.74 0 0 0 1.116-.695c.333-.333.544-.671.695-1.116l.109-.32v-9l-.109-.32a2.74 2.74 0 0 0-.696-1.116c-.472-.471-.961-.709-1.606-.783-.192-.022-.847-.04-1.455-.041h-1.105l-.018-.87c-.017-.805-.026-.894-.124-1.19a2.7 2.7 0 0 0-.692-1.116c-.472-.471-.961-.709-1.606-.783-.414-.048-4.302-.045-4.712.002m4.911 1.59c.239.118.481.36.599.599.086.174.094.247.105.978l.013.79H8.76v-.735c0-.806.027-.948.236-1.233.065-.087.189-.212.277-.276.322-.237.259-.232 2.767-.224l2.3.008zm5 4c.239.118.481.36.599.599.091.185.093.213.104 1.677l.012 1.488-.172.125c-1.091.793-3.019 1.664-4.507 2.036-1.381.344-2.022.42-3.564.42s-2.183-.076-3.564-.42c-1.487-.372-3.416-1.243-4.506-2.035l-.17-.124v-1.434c0-1.567.006-1.62.236-1.933.14-.19.38-.373.59-.45.131-.048 1.254-.056 7.454-.049l7.3.007zm-7.723 3.406a.77.77 0 0 0-.544.597c-.077.453.303.883.781.884.157 0 .441-.164.576-.334.109-.137.122-.182.122-.426 0-.245-.012-.288-.124-.426-.212-.262-.506-.369-.811-.295m-6.966 2.76c2.492 1.248 5.293 1.84 7.971 1.685.938-.055 1.45-.119 2.305-.289a16.3 16.3 0 0 0 4.777-1.788l.35-.202-.011 1.948-.011 1.947-.093.189c-.132.268-.416.534-.674.63-.214.08-.294.081-7.453.081s-7.239-.001-7.453-.081c-.258-.096-.542-.362-.674-.63l-.093-.189-.011-1.947-.011-1.948.35.202c.193.111.522.287.731.392" fill-rule="evenodd"/></svg>