<svg fill="none" xmlns="http://www.w3.org/2000/svg" viewBox="0 0 24 24"><path d="M19.340 4.277 C 19.274 4.293,19.175 4.329,19.120 4.358 C 19.065 4.386,17.234 6.192,15.052 8.372 L 11.083 12.336 10.311 11.575 C 9.682 10.955,9.491 10.791,9.279 10.687 C 8.819 10.460,8.200 10.454,7.765 10.671 C 7.425 10.841,4.089 13.237,3.886 13.458 C 3.659 13.704,3.529 13.997,3.472 14.389 C 3.432 14.662,3.435 14.747,3.493 14.981 C 3.530 15.131,3.610 15.341,3.670 15.448 C 3.743 15.576,4.646 16.508,6.320 18.183 C 8.711 20.575,8.877 20.733,9.154 20.870 C 9.408 20.996,9.494 21.018,9.798 21.032 C 10.363 21.059,10.762 20.909,11.124 20.532 C 11.394 20.251,13.712 16.984,13.850 16.690 C 14.069 16.223,14.037 15.586,13.772 15.127 C 13.712 15.024,13.326 14.597,12.913 14.178 L 12.163 13.417 16.082 9.498 C 18.238 7.343,20.048 5.514,20.104 5.433 C 20.295 5.159,20.282 4.776,20.072 4.537 C 19.874 4.312,19.601 4.215,19.340 4.277 M10.511 13.890 C 11.553 14.930,12.432 15.830,12.464 15.890 C 12.508 15.974,12.512 16.021,12.479 16.082 C 12.342 16.339,10.031 19.513,9.970 19.529 C 9.843 19.562,9.750 19.497,9.362 19.105 L 8.984 18.722 9.488 18.209 C 9.902 17.788,10.001 17.663,10.040 17.519 C 10.164 17.060,9.865 16.614,9.403 16.569 C 9.069 16.537,8.946 16.608,8.398 17.145 L 7.896 17.638 7.379 17.119 L 6.862 16.601 7.686 15.770 C 8.140 15.314,8.542 14.879,8.580 14.804 C 8.687 14.592,8.650 14.213,8.503 14.020 C 8.298 13.751,7.922 13.651,7.609 13.782 C 7.514 13.822,7.154 14.149,6.618 14.683 L 5.776 15.521 5.368 15.106 C 4.962 14.693,4.910 14.601,5.010 14.469 C 5.038 14.433,5.816 13.863,6.740 13.203 C 7.828 12.426,8.455 12.002,8.518 12.001 C 8.595 12.000,9.029 12.411,10.511 13.890 " stroke="none" fill-rule="evenodd"/></svg>