<svg fill="none" xmlns="http://www.w3.org/2000/svg" viewBox="0 0 24 24"><path d="M19.080 3.861 C 18.992 3.900,17.459 5.403,14.960 7.900 L 10.980 11.876 10.218 11.123 C 9.545 10.459,9.420 10.353,9.156 10.226 C 8.662 9.989,8.101 9.987,7.636 10.222 C 7.388 10.347,4.109 12.691,3.871 12.912 C 3.768 13.009,3.639 13.163,3.586 13.254 C 3.266 13.802,3.293 14.633,3.647 15.123 C 3.717 15.221,3.959 15.489,4.185 15.720 L 4.595 16.140 5.988 14.755 C 7.491 13.260,7.501 13.253,7.883 13.289 C 8.142 13.314,8.338 13.453,8.461 13.698 C 8.691 14.158,8.676 14.181,7.049 15.810 L 5.661 17.200 6.180 17.720 C 6.465 18.006,6.717 18.240,6.740 18.240 C 6.762 18.240,7.230 17.789,7.780 17.237 C 8.330 16.686,8.829 16.209,8.888 16.177 C 9.015 16.110,9.347 16.102,9.507 16.163 C 9.867 16.299,10.055 16.774,9.899 17.149 C 9.859 17.244,9.472 17.663,8.816 18.322 L 7.796 19.348 8.281 19.813 C 8.826 20.335,9.090 20.494,9.533 20.568 C 10.031 20.650,10.578 20.489,10.943 20.153 C 11.158 19.955,13.553 16.624,13.723 16.287 C 13.963 15.811,13.959 15.283,13.711 14.762 C 13.609 14.547,13.460 14.373,12.826 13.730 L 12.064 12.957 16.028 8.988 C 18.208 6.806,20.024 4.957,20.063 4.880 C 20.161 4.690,20.158 4.373,20.059 4.203 C 20.015 4.129,19.912 4.014,19.829 3.947 C 19.646 3.798,19.308 3.760,19.080 3.861 " stroke="none" fill-rule="evenodd"/></svg>