<svg xmlns="http://www.w3.org/2000/svg" viewBox="0 0 24 24"><path d="M19.08 3.861c-.088.039-1.621 1.542-4.12 4.039l-3.98 3.977-.76-.75c-.847-.835-1.044-.97-1.534-1.054a1.76 1.76 0 0 0-1.041.145c-.256.129-3.533 2.47-3.776 2.697-.119.111-.246.29-.338.475-.128.259-.149.343-.164.654-.031.65.167 1.039.89 1.755l.342.338 1.391-1.383c1.501-1.494 1.511-1.501 1.893-1.465a.71.71 0 0 1 .648.729c0 .113-.022.25-.049.304s-.674.723-1.436 1.488L5.661 17.2l.519.52c.285.286.537.52.56.52.022 0 .49-.451 1.04-1.003s1.049-1.028 1.108-1.06c.127-.067.459-.075.619-.014.363.137.553.626.386.991-.039.085-.494.576-1.082 1.17l-1.015 1.024.485.465c.545.522.809.681 1.254.755a1.73 1.73 0 0 0 1.403-.415c.219-.192 2.732-3.689 2.833-3.942.19-.475.17-.966-.06-1.449-.102-.215-.251-.389-.885-1.032l-.762-.773 3.964-3.969c2.18-2.182 3.996-4.031 4.035-4.108.098-.19.095-.507-.004-.677a1.2 1.2 0 0 0-.23-.256c-.183-.149-.521-.187-.749-.086" fill-rule="evenodd"/></svg>