<svg xmlns="http://www.w3.org/2000/svg" viewBox="0 0 24 24"><path d="M19.34 4.277a1 1 0 0 0-.22.081c-.055.028-1.886 1.834-4.068 4.014l-3.969 3.964-.772-.761c-.629-.62-.82-.784-1.032-.888-.46-.227-1.079-.233-1.514-.016-.34.17-3.676 2.566-3.879 2.787-.227.246-.357.539-.414.931-.04.273-.037.358.021.592.037.15.117.36.177.467.073.128.976 1.06 2.65 2.735 2.391 2.392 2.557 2.55 2.834 2.687.254.126.34.148.644.162.565.027.964-.123 1.326-.5.27-.281 2.588-3.548 2.726-3.842.219-.467.187-1.104-.078-1.563-.06-.103-.446-.53-.859-.949l-.75-.761 3.919-3.919c2.156-2.155 3.966-3.984 4.022-4.065.191-.274.178-.657-.032-.896-.198-.225-.471-.322-.732-.26m-8.829 9.613c1.042 1.04 1.921 1.94 1.953 2 .044.084.048.131.015.192-.137.257-2.448 3.431-2.509 3.447-.127.033-.22-.032-.608-.424l-.378-.383.504-.513c.414-.421.513-.546.552-.69a.742.742 0 0 0-.637-.95c-.334-.032-.457.039-1.005.576l-.502.493-.517-.519-.517-.518.824-.831c.454-.456.856-.891.894-.966.107-.212.07-.591-.077-.784a.766.766 0 0 0-.894-.238c-.095.04-.455.367-.991.901l-.842.838-.408-.415c-.406-.413-.458-.505-.358-.637.028-.036.806-.606 1.73-1.266 1.088-.777 1.715-1.201 1.778-1.202.077-.001.511.41 1.993 1.889"/></svg>