<svg xmlns="http://www.w3.org/2000/svg" viewBox="0 0 24 24"><path d="M19.08 3.861c-.088.039-1.621 1.542-4.12 4.039l-3.98 3.976-.762-.753c-.673-.664-.798-.77-1.062-.897a1.72 1.72 0 0 0-1.52-.004c-.248.125-3.527 2.469-3.765 2.69a2 2 0 0 0-.285.342c-.32.548-.293 1.379.061 1.869.07.098.312.366.538.597l.41.42 1.393-1.385c1.503-1.495 1.513-1.502 1.895-1.466a.7.7 0 0 1 .578.409c.23.46.215.483-1.412 2.112L5.661 17.2l.519.52c.285.286.537.52.56.52.022 0 .49-.451 1.04-1.003s1.049-1.028 1.108-1.06c.127-.067.459-.075.619-.014.36.136.548.611.392.986-.04.095-.427.514-1.083 1.173l-1.02 1.026.485.465c.545.522.809.681 1.252.755a1.72 1.72 0 0 0 1.41-.415c.215-.198 2.61-3.529 2.78-3.866.24-.476.236-1.004-.012-1.525-.102-.215-.251-.389-.885-1.032l-.762-.773 3.964-3.969c2.18-2.182 3.996-4.031 4.035-4.108.098-.19.095-.507-.004-.677a1.2 1.2 0 0 0-.23-.256c-.183-.149-.521-.187-.749-.086"/></svg>