<svg fill="none" xmlns="http://www.w3.org/2000/svg" viewBox="0 0 24 24"><path d="M19.340 4.277 C 19.274 4.293,19.175 4.329,19.120 4.358 C 19.065 4.386,17.234 6.192,15.052 8.372 L 11.083 12.336 10.311 11.575 C 9.682 10.955,9.491 10.791,9.279 10.687 C 8.819 10.460,8.200 10.454,7.765 10.671 C 7.425 10.841,4.089 13.237,3.886 13.458 C 3.659 13.704,3.529 13.997,3.472 14.389 C 3.432 14.662,3.435 14.747,3.493 14.981 C 3.530 15.131,3.610 15.341,3.670 15.448 C 3.743 15.576,4.646 16.508,6.320 18.183 C 8.711 20.575,8.877 20.733,9.154 20.870 C 9.408 20.996,9.494 21.018,9.798 21.032 C 10.363 21.059,10.762 20.909,11.124 20.532 C 11.394 20.251,13.712 16.984,13.850 16.690 C 14.069 16.223,14.037 15.586,13.772 15.127 C 13.712 15.024,13.326 14.597,12.913 14.178 L 12.163 13.417 16.082 9.498 C 18.238 7.343,20.048 5.514,20.104 5.433 C 20.295 5.159,20.282 4.776,20.072 4.537 C 19.874 4.312,19.601 4.215,19.340 4.277 M10.492 13.870 C 11.522 14.898,12.403 15.791,12.448 15.853 C 12.516 15.947,12.522 15.983,12.485 16.066 C 12.402 16.247,10.071 19.482,9.993 19.524 C 9.951 19.546,9.886 19.555,9.848 19.543 C 9.810 19.531,9.600 19.341,9.381 19.121 L 8.983 18.721 9.450 18.249 C 10.081 17.609,10.182 17.377,9.990 17.001 C 9.818 16.664,9.504 16.509,9.133 16.579 C 9.007 16.602,8.888 16.699,8.449 17.132 L 7.919 17.658 7.379 17.119 L 6.840 16.581 7.698 15.720 C 8.170 15.247,8.575 14.809,8.598 14.747 C 8.821 14.148,8.241 13.559,7.648 13.781 C 7.497 13.838,7.295 14.015,6.619 14.685 L 5.777 15.519 5.365 15.105 C 5.008 14.746,4.955 14.677,4.967 14.576 C 4.978 14.473,5.177 14.319,6.699 13.230 C 7.851 12.406,8.452 12.000,8.518 12.000 C 8.596 12.000,9.024 12.406,10.492 13.870 " stroke="none" fill-rule="evenodd" fill="currentColor"/></svg>