<svg xmlns="http://www.w3.org/2000/svg" viewBox="0 0 24 24"><path d="M19.34 4.277a1 1 0 0 0-.22.081c-.055.028-1.886 1.834-4.068 4.014l-3.969 3.964-.772-.761c-.629-.62-.82-.784-1.032-.888-.46-.227-1.079-.233-1.514-.016-.34.17-3.676 2.566-3.879 2.787-.227.246-.357.539-.414.931-.04.273-.037.358.021.592.037.15.117.36.177.467.073.128.976 1.06 2.65 2.735 2.391 2.392 2.557 2.55 2.834 2.687.254.126.34.148.644.162.565.027.964-.123 1.326-.5.27-.281 2.588-3.548 2.726-3.842.219-.467.187-1.104-.078-1.563-.06-.103-.446-.53-.859-.949l-.75-.761 3.919-3.919c2.156-2.155 3.966-3.984 4.022-4.065.191-.274.178-.657-.032-.896-.198-.225-.471-.322-.732-.26m-8.791 9.653c1.063 1.061 1.942 1.961 1.954 1.998.012.038 0 .11-.027.16s-.58.836-1.229 1.746c-.766 1.073-1.214 1.666-1.276 1.69-.131.049-.171.022-.61-.421l-.378-.382.467-.472c.631-.64.732-.872.54-1.248a.756.756 0 0 0-.857-.422c-.126.023-.245.12-.684.553l-.53.526-.54-.539-.539-.538.858-.861c.472-.473.877-.911.9-.973.223-.599-.357-1.188-.95-.966-.151.057-.353.234-1.029.904l-.842.834-.412-.414c-.357-.359-.41-.428-.398-.529.011-.103.21-.257 1.732-1.346C7.851 12.406 8.452 12 8.518 12c.079 0 .517.417 2.031 1.93" fill-rule="evenodd"/></svg>