<svg xmlns="http://www.w3.org/2000/svg" viewBox="0 0 24 24"><path d="M7.656 2.281a2.75 2.75 0 0 0-2.112 1.496c-.308.629-.281-.161-.294 8.613l-.011 7.85-1.13.001c-.621 0-1.2.017-1.286.037a.739.739 0 0 0-.348 1.246.84.84 0 0 0 .306.191c.226.063 18.212.063 18.438 0a.84.84 0 0 0 .306-.191.739.739 0 0 0-.348-1.246c-.086-.02-.665-.037-1.286-.037l-1.13-.001-.011-7.85c-.011-7.445-.015-7.862-.084-8.09-.241-.796-.749-1.408-1.464-1.762-.585-.289-.306-.273-5.042-.282-2.343-.004-4.37.007-4.504.025m2.732 3.086a.7.7 0 0 1 .345.64c0 .196-.019.264-.117.402-.216.308-.295.331-1.116.331s-.9-.023-1.116-.331c-.286-.406-.056-1.009.431-1.133.069-.017.414-.028.768-.024.624.008.648.011.805.115m5 0a.7.7 0 0 1 .345.64c0 .196-.019.264-.117.402-.216.308-.295.331-1.116.331s-.9-.023-1.116-.331c-.286-.406-.056-1.009.431-1.133.069-.017.414-.028.768-.024.624.008.648.011.805.115m-5 3a.7.7 0 0 1 .345.64c0 .196-.019.264-.117.402-.216.308-.295.331-1.116.331s-.9-.023-1.116-.331c-.286-.406-.056-1.009.431-1.133.069-.017.414-.028.768-.024.624.008.648.011.805.115m5 0a.7.7 0 0 1 .345.64c0 .196-.019.264-.117.402-.216.308-.295.331-1.116.331s-.9-.023-1.116-.331c-.286-.406-.056-1.009.431-1.133.069-.017.414-.028.768-.024.624.008.648.011.805.115m-5 3a.7.7 0 0 1 .345.64c0 .196-.019.264-.117.402-.216.308-.295.331-1.116.331s-.9-.023-1.116-.331c-.286-.406-.056-1.009.431-1.133.069-.017.414-.028.768-.024.624.008.648.011.805.115m5 0a.7.7 0 0 1 .345.64c0 .196-.019.264-.117.402-.216.308-.295.331-1.116.331s-.9-.023-1.116-.331c-.286-.406-.056-1.009.431-1.133.069-.017.414-.028.768-.024.624.008.648.011.805.115M13.16 16.84c.077.077.08.133.08 1.74v1.66h-2.48v-1.66c0-1.607.003-1.663.08-1.74.076-.076.133-.08 1.16-.08s1.084.004 1.16.08" fill-rule="evenodd"/></svg>