<svg xmlns="http://www.w3.org/2000/svg" viewBox="0 0 24 24"><path d="M7.617 2.283q-.873.101-1.552.781a2.74 2.74 0 0 0-.696 1.116l-.109.32-.011 7.87-.01 7.87-1.13.001c-.621 0-1.2.017-1.286.037a.739.739 0 0 0-.348 1.246.84.84 0 0 0 .306.191c.226.063 18.212.063 18.438 0a.84.84 0 0 0 .306-.191.739.739 0 0 0-.348-1.246c-.086-.02-.665-.037-1.286-.037l-1.13-.001-.01-7.87-.011-7.87-.109-.32a2.74 2.74 0 0 0-.696-1.116c-.472-.471-.961-.709-1.606-.783-.422-.049-8.296-.046-8.712.002m8.911 1.59c.239.118.481.36.599.599l.093.188.01 7.79.011 7.79H14.76l-.001-1.67c-.001-2.157-.026-2.288-.535-2.79-.296-.292-.592-.445-.964-.498-.363-.052-2.157-.052-2.52 0-.372.053-.668.206-.964.498-.509.502-.534.633-.535 2.79l-.001 1.67H6.76v-7.735c0-8.483-.017-7.888.236-8.233.14-.19.38-.373.59-.45.13-.048.833-.056 4.454-.049l4.3.007zM8.805 5.28c-.547.129-.735.839-.33 1.244.197.197.364.236 1.025.236s.828-.039 1.025-.236a.739.739 0 0 0-.348-1.246c-.19-.044-1.183-.042-1.372.002m5 0c-.547.129-.735.839-.33 1.244.197.197.364.236 1.025.236s.828-.039 1.025-.236a.739.739 0 0 0-.348-1.246c-.19-.044-1.183-.042-1.372.002m-5 3c-.547.129-.735.839-.33 1.244.197.197.364.236 1.025.236s.828-.039 1.025-.236a.739.739 0 0 0-.348-1.246c-.19-.044-1.183-.042-1.372.002m5 0c-.547.129-.735.839-.33 1.244.197.197.364.236 1.025.236s.828-.039 1.025-.236a.739.739 0 0 0-.348-1.246c-.19-.044-1.183-.042-1.372.002m-5 3c-.547.129-.735.839-.33 1.244.197.197.364.236 1.025.236s.828-.039 1.025-.236a.739.739 0 0 0-.348-1.246c-.19-.044-1.183-.042-1.372.002m5 0c-.547.129-.735.839-.33 1.244.197.197.364.236 1.025.236s.828-.039 1.025-.236a.739.739 0 0 0-.348-1.246c-.19-.044-1.183-.042-1.372.002m-.638 5.546c.068.062.073.169.073 1.74v1.674h-2.48v-1.667c0-1.495.007-1.674.066-1.74.061-.067.152-.073 1.167-.073.968 0 1.11.008 1.174.066" fill-rule="evenodd"/></svg>