<svg xmlns="http://www.w3.org/2000/svg" viewBox="0 0 24 24"><path d="M11.28 3.28a9.6 9.6 0 0 0-6.101 2.819c-.565.566-.972 1.075-1.135 1.421-.089.189-.104.274-.104.602 0 .361.008.399.151.687.234.475.58.748 1.127.889.211.055 1.015.062 6.782.062s6.571-.007 6.782-.062c.547-.141.893-.414 1.127-.889.143-.288.151-.326.151-.687 0-.328-.015-.413-.104-.602-.163-.346-.57-.855-1.135-1.421-1.493-1.494-3.359-2.438-5.412-2.737a11.3 11.3 0 0 0-2.129-.082m-.875 2.101c.223.144.328.345.328.626 0 .196-.019.264-.117.402-.163.233-.345.33-.616.33s-.453-.097-.616-.33c-.098-.138-.117-.206-.117-.402a.729.729 0 0 1 1.138-.626m4 1c.223.144.328.345.328.626 0 .196-.019.264-.117.402-.163.233-.345.33-.616.33s-.453-.097-.616-.33c-.098-.138-.117-.206-.117-.402a.729.729 0 0 1 1.138-.626M2.7 10.817c-.248.111-.458.425-.458.683s.242.604.491.697c.158.06 18.376.06 18.534 0 .249-.093.491-.438.491-.697s-.242-.604-.491-.697c-.078-.03-2.896-.043-9.28-.041-7.589.001-9.188.01-9.287.055m3.16 2.45c-.277.062-1.187.39-1.306.471-.226.153-.291.333-.307.842-.05 1.537.41 2.763 1.41 3.763A4.64 4.64 0 0 0 8.5 19.719c.497.056 7.045.054 7.52-.002 1.261-.15 2.379-.757 3.143-1.708.748-.929 1.077-1.888 1.077-3.136 0-.694-.067-.863-.408-1.037-.232-.119-.423-.094-1.176.153l-.699.228-1.989-.492-1.988-.493-1.99.499-1.99.499-1.982-.495c-1.091-.272-2.004-.493-2.03-.49a1 1 0 0 0-.128.022" fill-rule="evenodd"/></svg>