<svg xmlns="http://www.w3.org/2000/svg" viewBox="0 0 24 24"><path d="M11.336 3.283a9.66 9.66 0 0 0-5.377 2.1c-.746.596-1.678 1.636-1.915 2.137-.089.189-.104.274-.104.602 0 .361.008.399.151.687.237.48.646.794 1.181.906.3.064 13.156.064 13.456 0a1.65 1.65 0 0 0 1.181-.906c.143-.288.151-.326.151-.687 0-.328-.015-.413-.104-.602-.237-.501-1.169-1.541-1.915-2.137-1.266-1.012-2.822-1.717-4.374-1.982-.404-.069-1.601-.173-1.787-.155-.033.003-.278.02-.544.037M13.4 4.879a8.14 8.14 0 0 1 3.703 1.685c.601.475 1.478 1.436 1.449 1.587-.012.065-.401.069-6.552.069s-6.54-.004-6.552-.069c-.028-.147.826-1.088 1.432-1.576a8.14 8.14 0 0 1 3.72-1.692c.635-.111.718-.116 1.58-.102.555.01.884.036 1.22.098m-3.7.437a.745.745 0 0 0 .029 1.382.65.65 0 0 0 .542 0 .748.748 0 0 0 0-1.396.67.67 0 0 0-.571.014m4 1a.745.745 0 0 0 .029 1.382.65.65 0 0 0 .542 0 .748.748 0 0 0 0-1.396.67.67 0 0 0-.571.014m-11 4.501c-.248.111-.458.425-.458.683s.242.604.491.697c.158.06 18.376.06 18.534 0 .249-.093.491-.438.491-.697s-.242-.604-.491-.697c-.078-.03-2.896-.043-9.28-.041-7.589.001-9.188.01-9.287.055m3.16 2.45c-.044.01-.788.253-1.653.54-1.425.473-1.587.535-1.726.667a.73.73 0 0 0-.108.931.74.74 0 0 0 .474.321c.179.047.214.04.764-.138.318-.104.596-.188.618-.188s.053.105.067.234c.04.35.203.923.37 1.296.233.52.549.971.991 1.413A4.64 4.64 0 0 0 8.5 19.719c.497.056 7.045.054 7.52-.002 1.885-.224 3.434-1.492 3.996-3.27.122-.389.224-.937.224-1.209v-.191l.57-.19c.47-.156.596-.215.716-.335.317-.314.29-.834-.056-1.096-.159-.121-.429-.197-.579-.164-.061.014-.745.235-1.52.491l-1.409.466-1.991-.494-1.991-.493-1.99.499-1.99.499-1.982-.495c-1.091-.272-2.004-.493-2.03-.49a1 1 0 0 0-.128.022m2.17 2.021 1.969.491L12 15.28l2.001-.499 1.969.491c1.084.269 2.007.49 2.053.489s.214-.046.375-.1l.292-.1-.025.158c-.135.845-.906 1.803-1.785 2.217-.634.299-.363.281-4.46.295-2.491.008-3.77-.002-3.959-.031a3.1 3.1 0 0 1-1.687-.85c-.615-.586-.943-1.273-1-2.099-.026-.363-.024-.37.07-.408A.7.7 0 0 1 6 14.801c.033-.002.946.218 2.03.487"/></svg>