<svg fill="none" xmlns="http://www.w3.org/2000/svg" viewBox="0 0 24 24"><path d="M11.336 3.283 C 9.404 3.406,7.504 4.148,5.959 5.383 C 5.213 5.979,4.281 7.019,4.044 7.520 C 3.955 7.709,3.940 7.794,3.940 8.122 C 3.940 8.483,3.948 8.521,4.091 8.809 C 4.328 9.289,4.737 9.603,5.272 9.715 C 5.572 9.779,18.428 9.779,18.728 9.715 C 19.263 9.603,19.672 9.289,19.909 8.809 C 20.052 8.521,20.060 8.483,20.060 8.122 C 20.060 7.794,20.045 7.709,19.956 7.520 C 19.719 7.019,18.787 5.979,18.041 5.383 C 16.775 4.371,15.219 3.666,13.667 3.401 C 13.263 3.332,12.066 3.228,11.880 3.246 C 11.847 3.249,11.602 3.266,11.336 3.283 M12.872 4.802 C 15.006 5.035,16.982 6.115,18.334 7.788 C 18.725 8.273,19.506 8.220,12.000 8.220 C 4.494 8.220,5.275 8.273,5.666 7.788 C 7.001 6.136,8.991 5.039,11.080 4.804 C 11.520 4.755,12.426 4.754,12.872 4.802 M9.805 5.279 C 9.414 5.374,9.154 5.838,9.279 6.218 C 9.379 6.521,9.696 6.758,10.000 6.758 C 10.384 6.758,10.760 6.383,10.760 6.000 C 10.760 5.763,10.571 5.449,10.365 5.343 C 10.220 5.269,9.967 5.240,9.805 5.279 M13.805 6.279 C 13.414 6.374,13.154 6.838,13.279 7.218 C 13.379 7.521,13.696 7.758,14.000 7.758 C 14.384 7.758,14.760 7.383,14.760 7.000 C 14.760 6.763,14.571 6.449,14.365 6.343 C 14.220 6.269,13.967 6.240,13.805 6.279 M2.700 10.817 C 2.452 10.928,2.242 11.242,2.242 11.500 C 2.242 11.759,2.484 12.104,2.733 12.197 C 2.891 12.257,21.109 12.257,21.267 12.197 C 21.516 12.104,21.758 11.759,21.758 11.500 C 21.758 11.241,21.516 10.896,21.267 10.803 C 21.189 10.773,18.371 10.760,11.987 10.762 C 4.398 10.763,2.799 10.772,2.700 10.817 M5.860 13.267 C 5.816 13.277,5.072 13.520,4.207 13.807 C 2.782 14.280,2.620 14.342,2.481 14.474 C 2.223 14.720,2.177 15.117,2.373 15.405 C 2.491 15.578,2.624 15.668,2.847 15.726 C 3.026 15.773,3.061 15.766,3.611 15.588 C 3.929 15.484,4.207 15.400,4.229 15.400 C 4.251 15.400,4.282 15.505,4.296 15.634 C 4.336 15.984,4.499 16.557,4.666 16.930 C 4.899 17.450,5.215 17.901,5.657 18.343 C 6.452 19.138,7.393 19.593,8.500 19.719 C 8.997 19.775,15.545 19.773,16.020 19.717 C 17.905 19.493,19.454 18.225,20.016 16.447 C 20.138 16.058,20.240 15.510,20.240 15.238 L 20.240 15.047 20.810 14.857 C 21.280 14.701,21.406 14.642,21.526 14.522 C 21.843 14.208,21.816 13.688,21.470 13.426 C 21.311 13.305,21.041 13.229,20.891 13.262 C 20.830 13.276,20.146 13.497,19.371 13.753 L 17.962 14.219 15.971 13.725 L 13.980 13.232 11.990 13.731 L 10.000 14.230 8.018 13.735 C 6.927 13.463,6.014 13.242,5.988 13.245 C 5.961 13.247,5.904 13.257,5.860 13.267 M16.042 15.281 L 18.023 15.775 18.352 15.672 C 18.736 15.552,18.731 15.545,18.597 15.986 C 18.268 17.066,17.295 17.948,16.179 18.179 C 15.750 18.268,8.806 18.270,8.345 18.182 C 7.759 18.070,7.286 17.824,6.812 17.384 C 6.139 16.758,5.797 16.037,5.785 15.221 L 5.780 14.860 5.925 14.824 C 6.049 14.794,6.363 14.861,8.045 15.279 L 10.020 15.770 12.000 15.269 C 13.089 14.993,13.998 14.772,14.020 14.777 C 14.042 14.783,14.952 15.010,16.042 15.281 " stroke="none" fill-rule="evenodd" fill="currentColor"/></svg>