<svg xmlns="http://www.w3.org/2000/svg" viewBox="0 0 24 24"><path d="M6.617 3.283q-.873.101-1.552.781c-.551.549-.779 1.099-.814 1.958l-.022.523-.851.427c-.905.455-1.021.543-1.1.836a.747.747 0 0 0 .53.914c.231.062.36.028.911-.243.267-.132.493-.239.503-.239s.018 2.017.018 4.482c0 4.821-.002 4.765.206 5.294.271.688.907 1.308 1.604 1.565l.19.07v.704c0 .391.02.776.045.864.059.213.293.441.513.5.4.108.812-.12.92-.51.023-.082.042-.441.042-.799v-.65h8.48v.65c0 .358.02.722.045.809.059.213.293.441.513.5.4.108.812-.12.92-.51.023-.082.042-.466.042-.854v-.705l.235-.088c.654-.245 1.278-.856 1.545-1.515.224-.55.22-.463.22-5.325 0-2.465.008-4.482.018-4.482s.236.107.503.239c.551.271.68.305.911.243a.747.747 0 0 0 .53-.914c-.079-.293-.195-.381-1.1-.836l-.851-.427-.022-.523c-.035-.859-.263-1.409-.814-1.958-.472-.471-.961-.709-1.606-.783-.424-.049-10.294-.046-10.712.002m10.911 1.59c.239.118.481.36.599.599l.093.188.011 2.79.011 2.79H5.76V8.505c0-2.991-.006-2.902.236-3.233.14-.19.38-.373.59-.45.13-.048.973-.056 5.454-.049l5.3.007zm-6.723.407c-.391.092-.633.519-.524.924.059.218.288.453.5.511.214.06 2.224.06 2.438 0a.84.84 0 0 0 .306-.191.739.739 0 0 0-.348-1.246c-.191-.044-2.183-.043-2.372.002M8.79 14.822a.61.61 0 0 1 .375.358c.129.282.06.681-.151.868a.9.9 0 0 1-.534.192c-.419 0-.72-.311-.72-.744a.73.73 0 0 1 1.03-.674m7 0a.61.61 0 0 1 .375.358c.129.282.06.681-.151.868a.9.9 0 0 1-.534.192c-.419 0-.72-.311-.72-.744a.73.73 0 0 1 1.03-.674" fill-rule="evenodd"/></svg>