<svg xmlns="http://www.w3.org/2000/svg" viewBox="0 0 24 24"><path d="M6.617 3.283q-.873.101-1.552.781c-.551.549-.779 1.099-.814 1.958l-.022.523-.851.427c-.905.455-1.021.543-1.1.836a.747.747 0 0 0 .53.914c.231.062.36.028.911-.243.267-.132.493-.239.502-.239s.022 2.083.028 4.63l.011 4.63.109.32c.06.176.177.435.26.575.296.498.868.985 1.378 1.171l.233.085v.704c0 .391.02.776.045.864.059.213.293.441.513.5.4.108.812-.12.92-.51.023-.082.042-.441.042-.799v-.65h8.48v.65c0 .358.02.722.045.809.059.213.293.441.513.5.4.108.812-.12.92-.51.023-.082.042-.466.042-.854v-.704l.233-.085c.51-.186 1.082-.673 1.378-1.171.083-.14.2-.399.26-.575l.109-.32.011-4.63c.006-2.547.019-4.63.028-4.63s.235.107.502.239c.551.271.68.305.911.243a.747.747 0 0 0 .53-.914c-.079-.293-.195-.381-1.1-.836l-.851-.427-.022-.523c-.035-.859-.263-1.409-.814-1.958-.472-.471-.961-.709-1.606-.783-.424-.049-10.294-.046-10.712.002m10.911 1.59c.239.118.481.36.599.599l.093.188.011 2.79.011 2.79H5.76V8.505c0-2.991-.006-2.902.236-3.233.14-.19.38-.373.59-.45.13-.048.973-.056 5.454-.049l5.3.007zm-6.723.407c-.391.092-.633.519-.524.924.059.218.288.453.5.511.214.06 2.224.06 2.438 0a.84.84 0 0 0 .306-.191.739.739 0 0 0-.348-1.246c-.191-.044-2.183-.043-2.372.002m7.426 9.77-.011 2.29-.093.189c-.132.268-.416.534-.674.63-.213.08-.3.081-5.453.081s-5.24-.001-5.453-.081c-.258-.096-.542-.362-.674-.63l-.093-.189-.011-2.29-.011-2.29h12.484zM8.18 14.823q-.431.225-.431.677c0 .431.316.74.756.74a.73.73 0 0 0 .735-.74c0-.193-.1-.435-.226-.545-.222-.195-.599-.254-.834-.132m7 0q-.431.225-.431.677c0 .431.316.74.756.74a.73.73 0 0 0 .735-.74c0-.193-.1-.435-.226-.545-.222-.195-.599-.254-.834-.132" fill-rule="evenodd"/></svg>