<svg fill="none" xmlns="http://www.w3.org/2000/svg" viewBox="0 0 24 24"><path d="M9.805 3.280 C 9.414 3.372,9.172 3.799,9.281 4.204 C 9.340 4.422,9.569 4.657,9.781 4.715 C 10.001 4.777,13.999 4.777,14.219 4.715 C 14.307 4.691,14.444 4.605,14.525 4.524 C 14.938 4.111,14.742 3.409,14.177 3.278 C 13.985 3.234,9.994 3.235,9.805 3.280 M7.593 5.285 C 7.014 5.359,6.501 5.622,6.040 6.080 C 5.599 6.518,5.482 6.772,5.039 8.260 C 4.835 8.942,4.660 9.515,4.650 9.534 C 4.639 9.553,4.475 9.415,4.285 9.228 C 3.890 8.839,3.758 8.760,3.500 8.760 C 3.135 8.760,2.809 9.036,2.770 9.378 C 2.728 9.755,2.758 9.807,3.403 10.461 C 3.732 10.793,4.000 11.077,4.000 11.091 C 4.000 11.106,3.946 11.179,3.880 11.254 C 3.684 11.477,3.484 11.838,3.369 12.180 L 3.260 12.500 3.260 14.500 L 3.260 16.500 3.369 16.820 C 3.429 16.996,3.546 17.255,3.629 17.395 C 3.925 17.893,4.497 18.380,5.007 18.566 L 5.240 18.651 5.240 19.355 C 5.240 19.743,5.259 20.127,5.282 20.209 C 5.390 20.599,5.802 20.827,6.202 20.719 C 6.422 20.660,6.656 20.432,6.715 20.219 C 6.740 20.132,6.760 19.768,6.760 19.410 L 6.760 18.760 12.000 18.760 L 17.240 18.760 17.240 19.410 C 17.240 19.768,17.260 20.132,17.285 20.219 C 17.344 20.432,17.578 20.660,17.798 20.719 C 18.198 20.827,18.610 20.599,18.718 20.209 C 18.741 20.127,18.760 19.743,18.760 19.355 L 18.760 18.651 18.993 18.566 C 19.503 18.380,20.075 17.893,20.371 17.395 C 20.454 17.255,20.571 16.996,20.631 16.820 L 20.740 16.500 20.740 14.500 L 20.740 12.500 20.631 12.180 C 20.516 11.838,20.316 11.477,20.120 11.254 C 20.054 11.179,20.000 11.104,20.000 11.088 C 20.000 11.072,20.244 10.816,20.543 10.519 C 20.841 10.223,21.120 9.913,21.163 9.832 C 21.298 9.571,21.249 9.218,21.045 8.986 C 20.861 8.776,20.442 8.697,20.188 8.824 C 20.118 8.859,19.905 9.041,19.715 9.228 C 19.525 9.415,19.361 9.553,19.350 9.534 C 19.340 9.515,19.165 8.942,18.961 8.260 C 18.518 6.772,18.401 6.518,17.960 6.080 C 17.481 5.604,16.993 5.362,16.354 5.282 C 15.949 5.231,7.989 5.234,7.593 5.285 M16.545 6.868 C 16.788 6.998,16.948 7.146,17.068 7.350 C 17.127 7.451,17.356 8.135,17.582 8.886 L 17.989 10.240 12.000 10.240 L 6.011 10.240 6.385 8.990 C 6.591 8.303,6.788 7.665,6.822 7.573 C 6.954 7.220,7.233 6.945,7.588 6.817 C 7.713 6.772,8.496 6.764,12.060 6.771 L 16.380 6.780 16.545 6.868 M18.528 11.873 C 18.767 11.991,19.009 12.233,19.127 12.472 L 19.220 12.660 19.220 14.500 L 19.220 16.340 19.127 16.529 C 18.995 16.797,18.711 17.063,18.453 17.159 C 18.240 17.239,18.156 17.240,12.000 17.240 C 5.844 17.240,5.760 17.239,5.547 17.159 C 5.289 17.063,5.005 16.797,4.873 16.529 C 4.780 16.341,4.780 16.331,4.768 14.580 C 4.760 13.320,4.770 12.772,4.804 12.650 C 4.898 12.309,5.237 11.950,5.586 11.822 C 5.717 11.774,6.700 11.766,12.040 11.773 L 18.340 11.780 18.528 11.873 M6.700 13.817 C 6.452 13.928,6.242 14.242,6.242 14.500 C 6.242 14.759,6.484 15.104,6.733 15.197 C 6.795 15.221,7.135 15.240,7.500 15.240 C 7.865 15.240,8.205 15.221,8.267 15.197 C 8.516 15.104,8.758 14.759,8.758 14.500 C 8.758 14.241,8.516 13.896,8.267 13.803 C 8.098 13.739,6.849 13.750,6.700 13.817 M15.700 13.817 C 15.452 13.928,15.242 14.242,15.242 14.500 C 15.242 14.759,15.484 15.104,15.733 15.197 C 15.795 15.221,16.135 15.240,16.500 15.240 C 16.865 15.240,17.205 15.221,17.267 15.197 C 17.516 15.104,17.758 14.759,17.758 14.500 C 17.758 14.241,17.516 13.896,17.267 13.803 C 17.098 13.739,15.849 13.750,15.700 13.817 " stroke="none" fill-rule="evenodd" fill="currentColor"/></svg>