<svg xmlns="http://www.w3.org/2000/svg" viewBox="0 0 24 24"><path d="M9.805 3.28c-.391.092-.633.519-.524.924.059.218.288.453.5.511.22.062 4.218.062 4.438 0a.84.84 0 0 0 .306-.191.739.739 0 0 0-.348-1.246c-.192-.044-4.183-.043-4.372.002M7.593 5.285c-.579.074-1.092.337-1.553.795-.441.438-.558.692-1.001 2.18a62 62 0 0 1-.389 1.274c-.011.019-.175-.119-.365-.306-.395-.389-.527-.468-.785-.468-.365 0-.691.276-.73.618-.042.377-.012.429.633 1.083.329.332.597.616.597.63a.7.7 0 0 1-.12.163 2.9 2.9 0 0 0-.511.926l-.109.32v4l.109.32c.06.176.177.435.26.575.296.498.868.985 1.378 1.171l.233.085v.704c0 .388.019.772.042.854.108.39.52.618.92.51.22-.059.454-.287.513-.5.025-.087.045-.451.045-.809v-.65h10.48v.65c0 .358.02.722.045.809.059.213.293.441.513.5.4.108.812-.12.92-.51.023-.082.042-.466.042-.854v-.704l.233-.085c.51-.186 1.082-.673 1.378-1.171.083-.14.2-.399.26-.575l.109-.32v-4l-.109-.32a2.9 2.9 0 0 0-.511-.926.7.7 0 0 1-.12-.166c0-.016.244-.272.543-.569.298-.296.577-.606.62-.687a.78.78 0 0 0-.118-.846c-.184-.21-.603-.289-.857-.162-.07.035-.283.217-.473.404s-.354.325-.365.306a62 62 0 0 1-.389-1.274c-.443-1.488-.56-1.742-1.001-2.18-.479-.476-.967-.718-1.606-.798-.405-.051-8.365-.048-8.761.003m8.952 1.583c.243.13.403.278.523.482.059.101.288.785.514 1.536l.407 1.354H6.011l.374-1.25c.206-.687.403-1.325.437-1.417.132-.353.411-.628.766-.756.125-.045.908-.053 4.472-.046l4.32.009zm1.983 5.005c.239.118.481.36.599.599l.093.188v3.68l-.093.189c-.132.268-.416.534-.674.63-.213.08-.297.081-6.453.081s-6.24-.001-6.453-.081c-.258-.096-.542-.362-.674-.63-.093-.188-.093-.198-.105-1.949-.008-1.26.002-1.808.036-1.93.094-.341.433-.7.782-.828.131-.048 1.114-.056 6.454-.049l6.3.007zM6.7 13.817c-.248.111-.458.425-.458.683s.242.604.491.697c.062.024.402.043.767.043s.705-.019.767-.043c.249-.093.491-.438.491-.697s-.242-.604-.491-.697c-.169-.064-1.418-.053-1.567.014m9 0c-.248.111-.458.425-.458.683s.242.604.491.697c.062.024.402.043.767.043s.705-.019.767-.043c.249-.093.491-.438.491-.697s-.242-.604-.491-.697c-.169-.064-1.418-.053-1.567.014" fill-rule="evenodd"/></svg>