<svg xmlns="http://www.w3.org/2000/svg" viewBox="0 0 24 24"><path d="M9.805 3.28c-.391.092-.633.519-.524.924.059.218.288.453.5.511.22.062 4.218.062 4.438 0a.84.84 0 0 0 .306-.191.739.739 0 0 0-.348-1.246c-.192-.044-4.183-.043-4.372.002M7.593 5.285c-.579.074-1.092.337-1.553.795-.441.438-.558.692-1.001 2.18a62 62 0 0 1-.389 1.274c-.011.019-.175-.119-.365-.306-.395-.389-.527-.468-.785-.468-.365 0-.691.276-.73.618-.042.378-.013.428.641 1.09l.604.613-.088.109a3.6 3.6 0 0 0-.469.767c-.199.49-.218.713-.218 2.543 0 1.809.019 2.04.206 2.516.271.688.907 1.308 1.604 1.565l.19.07v.704c0 .388.019.772.042.854.108.39.52.618.92.51.22-.059.454-.287.513-.5.025-.087.045-.451.045-.809v-.65h10.48v.65c0 .358.02.722.045.809.059.213.293.441.513.5.4.108.812-.12.92-.51.023-.082.042-.466.042-.854v-.705l.235-.088c.654-.245 1.278-.856 1.545-1.515.201-.494.22-.714.22-2.547 0-1.401-.011-1.758-.064-2.011-.103-.499-.271-.849-.626-1.3l-.087-.111.564-.569c.311-.313.594-.627.629-.697.122-.244.065-.603-.131-.826-.184-.21-.603-.289-.857-.162-.07.035-.283.217-.473.404s-.354.325-.365.306a62 62 0 0 1-.389-1.274c-.443-1.488-.56-1.742-1.001-2.18-.479-.476-.967-.718-1.606-.798-.405-.051-8.365-.048-8.761.003m8.952 1.583c.243.13.403.278.523.482.059.101.288.785.514 1.536l.407 1.354H6.011l.374-1.25c.206-.687.403-1.325.437-1.417.132-.353.411-.628.766-.756.125-.045.908-.053 4.472-.046l4.32.009zm-8.278 6.935a.75.75 0 0 1 .464.697.69.69 0 0 1-.237.547c-.18.171-.296.193-.994.193s-.814-.022-.994-.193a.69.69 0 0 1-.237-.547c0-.3.189-.591.451-.695.136-.054 1.405-.056 1.547-.002m9 0a.75.75 0 0 1 .464.697.69.69 0 0 1-.237.547c-.18.171-.296.193-.994.193s-.814-.022-.994-.193a.69.69 0 0 1-.237-.547c0-.3.189-.591.451-.695.136-.054 1.405-.056 1.547-.002" fill-rule="evenodd"/></svg>