<svg fill="none" xmlns="http://www.w3.org/2000/svg" viewBox="0 0 24 24"><path d="M9.805 3.280 C 9.414 3.372,9.172 3.799,9.281 4.204 C 9.340 4.422,9.569 4.657,9.781 4.715 C 9.868 4.740,10.232 4.760,10.590 4.760 L 11.240 4.760 11.240 5.519 C 11.240 6.275,11.240 6.279,11.150 6.295 C 11.101 6.304,10.840 6.349,10.572 6.396 C 9.371 6.602,8.075 7.201,7.100 8.000 C 6.718 8.314,6.062 8.996,5.793 9.361 C 5.301 10.027,4.929 10.740,4.664 11.525 C 4.344 12.473,4.240 13.202,4.240 14.490 L 4.240 15.240 3.610 15.241 C 2.749 15.242,2.580 15.290,2.373 15.595 C 2.105 15.988,2.324 16.588,2.781 16.715 C 3.007 16.778,20.993 16.778,21.219 16.715 C 21.676 16.588,21.895 15.988,21.627 15.595 C 21.420 15.290,21.251 15.242,20.390 15.241 L 19.760 15.240 19.760 14.487 C 19.760 13.214,19.653 12.464,19.336 11.525 C 18.787 9.897,17.724 8.513,16.280 7.542 C 15.485 7.009,14.358 6.556,13.428 6.396 C 13.160 6.349,12.900 6.304,12.850 6.295 C 12.760 6.279,12.760 6.275,12.760 5.519 L 12.760 4.760 13.410 4.760 C 13.768 4.760,14.132 4.740,14.219 4.715 C 14.307 4.691,14.444 4.605,14.525 4.524 C 14.938 4.111,14.742 3.409,14.177 3.278 C 13.985 3.234,9.994 3.235,9.805 3.280 M13.140 7.858 C 13.650 7.951,14.386 8.206,14.870 8.459 C 16.323 9.218,17.416 10.501,17.922 12.043 C 18.163 12.776,18.207 13.089,18.229 14.230 L 18.249 15.240 12.000 15.240 L 5.751 15.240 5.772 14.210 C 5.796 13.065,5.835 12.782,6.065 12.070 C 6.790 9.827,8.778 8.155,11.120 7.818 C 11.601 7.748,12.649 7.769,13.140 7.858 M2.805 18.280 C 2.414 18.372,2.172 18.799,2.281 19.204 C 2.340 19.422,2.569 19.657,2.781 19.715 C 3.007 19.778,20.993 19.778,21.219 19.715 C 21.307 19.691,21.444 19.605,21.525 19.524 C 21.938 19.111,21.742 18.409,21.177 18.278 C 20.983 18.233,2.996 18.235,2.805 18.280 " stroke="none" fill-rule="evenodd" fill="currentColor"/></svg>