<svg xmlns="http://www.w3.org/2000/svg" viewBox="0 0 24 24"><path d="M11.811 2.278c-.193.047-.363.194-.772.667C9.663 4.539 8.452 6.611 7.898 8.32a8 8 0 0 1-.12.353c-.006.007-.148-.065-.317-.16l-.307-.173.021-.36c.027-.463-.025-.671-.214-.856-.138-.135-2.374-1.45-2.692-1.583a.9.9 0 0 0-.278-.06.9.9 0 0 0-.537.244c-.047.052-.334.526-.638 1.053-.507.88-.552.973-.554 1.16a.75.75 0 0 0 .274.6c.183.138 2.413 1.423 2.628 1.514.274.117.475.073.89-.196l.34-.22.493.286c.271.157.497.29.503.295.005.005-.02.206-.056.446-.102.674-.093 2.072.019 2.797.305 1.986 1.119 3.995 2.377 5.873.629.94 1.665 2.199 1.921 2.334.169.09.529.09.698 0 .247-.131 1.271-1.368 1.883-2.276.747-1.107 1.449-2.484 1.814-3.56.092-.27.171-.497.177-.504s.147.065.316.16l.307.173-.023.353c-.028.431.024.657.191.843.122.135 2.186 1.357 2.66 1.575.239.11.412.107.662-.012.179-.085.235-.166.865-1.258.444-.769.497-.882.511-1.083.019-.262-.081-.503-.261-.629-.25-.174-2.523-1.468-2.671-1.519-.248-.087-.449-.035-.834.214l-.34.22-.493-.286c-.271-.157-.497-.29-.503-.295-.005-.005.02-.206.056-.446.102-.674.093-2.072-.019-2.797-.358-2.328-1.358-4.565-3.027-6.773-.505-.67-1.051-1.291-1.228-1.398a.85.85 0 0 0-.581-.091M4.98 7.658l.64.374.012.154c.01.135-.003.163-.109.226l-.121.071-.671-.387a63 63 0 0 1-.685-.399c-.027-.022.215-.417.254-.415.022.001.328.17.68.376m7.219 1.408c.286.169.58.869.695 1.654.09.62.116.97.069.954a44 44 0 0 1-.942-.534l-.903-.52.025-.16a4.7 4.7 0 0 1 .321-.98c.224-.428.474-.568.735-.414m-.22 3.794.903.52-.025.16c-.088.552-.419 1.253-.658 1.394-.537.318-1.031-.667-1.178-2.348-.015-.174-.01-.269.016-.26.021.008.446.248.942.534m7.295 3.053.681.393-.118.207c-.065.114-.132.206-.148.206a12 12 0 0 1-.669-.373l-.64-.371-.012-.157c-.01-.136.004-.168.1-.227.062-.038.115-.069.119-.07s.312.176.687.392" fill-rule="evenodd"/></svg>