<svg xmlns="http://www.w3.org/2000/svg" viewBox="0 0 24 24"><path d="M11.805 2.279c-.189.046-.3.137-.661.545-1.363 1.539-2.567 3.56-3.213 5.396a4 4 0 0 1-.166.428c-.014.015-.158-.048-.32-.14L7.15 8.34l.023-.36c.03-.463-.022-.67-.212-.856-.138-.135-2.374-1.45-2.692-1.583a.9.9 0 0 0-.278-.06.9.9 0 0 0-.537.244c-.047.052-.334.526-.638 1.053-.507.88-.552.973-.554 1.16a.75.75 0 0 0 .274.6c.183.138 2.413 1.423 2.628 1.514.274.117.475.073.892-.197l.341-.221.503.289c.468.27.502.297.483.394-.119.61-.155 2.134-.068 2.863.298 2.474 1.449 5.021 3.365 7.444.538.68.906 1.042 1.116 1.097.372.096.576-.003 1.013-.494 1.386-1.558 2.538-3.472 3.228-5.36.103-.282.204-.512.225-.512.021.001.161.07.312.153l.274.152-.024.353c-.029.431.022.656.19.843.122.135 2.186 1.357 2.66 1.575.239.11.412.107.662-.012.179-.085.235-.166.865-1.258.444-.769.497-.882.511-1.083.019-.262-.081-.503-.261-.629-.25-.174-2.523-1.468-2.671-1.519-.248-.087-.449-.035-.836.216l-.342.221-.502-.287c-.496-.284-.502-.289-.482-.414.126-.796.157-2.079.067-2.826-.22-1.838-.88-3.651-2.013-5.531-.691-1.146-1.972-2.795-2.305-2.965a.95.95 0 0 0-.562-.065m.342 2.031c1.277 1.593 2.301 3.521 2.746 5.17a9.6 9.6 0 0 1 .338 2.81c-.011.348-.03.643-.042.654s-.336-.16-.72-.382l-.698-.404-.029-.549c-.093-1.751-.559-2.942-1.274-3.251a1.25 1.25 0 0 0-.936 0c-.424.183-.813.763-1.016 1.514-.072.266-.102.327-.153.307-.171-.065-1.243-.712-1.243-.751 0-.085.361-1.107.515-1.458.379-.859.832-1.69 1.338-2.45.401-.602.973-1.36 1.027-1.36.015 0 .081.068.147.15M4.98 7.658l.64.374.012.154c.01.135-.003.163-.109.226l-.121.071-.671-.387a63 63 0 0 1-.685-.399c-.027-.022.215-.417.254-.415.022.001.328.17.68.376m7.075 2.652c.062.273.145.758.145.842v.093l-.201-.109q-.203-.11-.183-.173a3 3 0 0 0 .042-.223c.04-.262.115-.54.145-.54.015 0 .039.05.052.11m-2.507 1.142.681.392.028.54c.09 1.747.558 2.942 1.275 3.26.284.126.652.126.936 0 .423-.187.81-.762 1.013-1.504.048-.176.094-.327.101-.335s.304.152.658.356l.644.371-.027.124c-.134.617-.777 2.08-1.329 3.024-.381.651-1.047 1.613-1.426 2.06l-.102.12-.102-.12c-1.142-1.345-2.308-3.5-2.757-5.096a10.2 10.2 0 0 1-.381-2.628c0-.538.037-.985.08-.967.015.006.334.187.708.403m2.638 1.524c.007.005-.085.508-.127.694-.036.159-.081.167-.114.02a8 8 0 0 1-.145-.844v-.094l.19.11zm7.088 2.937.681.393-.118.207c-.065.114-.132.206-.148.206a12 12 0 0 1-.669-.373l-.64-.371-.012-.157c-.01-.136.004-.168.1-.227.062-.038.115-.069.119-.07s.312.176.687.392" fill-rule="evenodd"/></svg>