<svg xmlns="http://www.w3.org/2000/svg" viewBox="0 0 24 24"><path d="M5.617 3.283q-.873.101-1.552.781a2.74 2.74 0 0 0-.696 1.116l-.109.32v13l.109.32c.151.445.362.783.695 1.116s.672.544 1.116.695l.32.108 3.3.021 3.3.02 1.34.308c1.541.354 1.706.378 2.141.312 1.022-.153 1.887-.848 2.215-1.78.046-.132.707-2.94 1.469-6.24 1.331-5.766 1.385-6.016 1.384-6.4 0-.456-.085-.784-.315-1.225-.299-.572-.836-1.06-1.402-1.276-.128-.049-1.284-.302-2.569-.563-1.286-.261-2.42-.501-2.52-.534a3 3 0 0 0-.463-.101c-.34-.048-7.347-.046-7.763.002m7.666 1.538c.447.094.799.413.913.829.035.127.044 1.753.035 6.43l-.011 6.26-.093.189c-.132.268-.416.534-.674.63-.211.079-.304.081-3.953.081s-3.742-.002-3.953-.081c-.258-.096-.542-.362-.674-.63l-.093-.189-.011-6.26c-.009-4.677 0-6.303.035-6.43.093-.34.433-.7.782-.828.238-.087 7.282-.089 7.697-.001m-.463.455a.67.67 0 0 0-.394.244c-.152.181-.186.359-.186.98 0 .308.019.627.042.709.151.543.84.719 1.242.316.197-.197.236-.364.236-1.025 0-.622-.034-.799-.186-.98a.78.78 0 0 0-.754-.244m4.215.304c.708.142 1.354.294 1.436.336.226.115.448.353.563.601.19.414.228.215-1.265 6.667-.989 4.274-1.39 5.941-1.466 6.09a1.24 1.24 0 0 1-1.108.638l-.211-.012.128-.146c.203-.23.402-.587.519-.934l.109-.32v-6.4c0-3.52-.013-6.485-.029-6.59s-.014-.19.004-.19.613.117 1.32.26M9.051 8.696c-.404.249-.97.675-1.468 1.105-1.348 1.164-1.9 2.314-1.555 3.239.213.571.712.992 1.356 1.143.327.078.898.058 1.171-.04.096-.035.182-.063.19-.063s.015.14.015.311c0 .36.067.521.295.705.259.211.687.188.959-.051.153-.134.226-.348.226-.663 0-.166.007-.302.015-.302s.094.028.19.063c.273.098.844.118 1.171.04.644-.151 1.143-.572 1.356-1.143.271-.728-.011-1.592-.826-2.534-.427-.492-1.515-1.389-2.188-1.804-.393-.243-.522-.244-.907-.006m1.007 1.292c.592.443 1.351 1.158 1.606 1.515.213.299.366.622.399.844.093.619-.601 1.047-1.346.83a1.9 1.9 0 0 1-.734-.417c-.212-.193-.306-.24-.483-.24s-.271.047-.483.24a1.9 1.9 0 0 1-.734.417c-.745.217-1.439-.211-1.346-.83.064-.426.389-.909 1.03-1.529.422-.409 1.44-1.217 1.533-1.217.022 0 .273.174.558.387M5.82 16.276a.73.73 0 0 0-.538.515c-.054.193-.054 1.225 0 1.418.151.543.84.719 1.242.316.197-.197.236-.364.236-1.025 0-.622-.034-.799-.186-.98a.78.78 0 0 0-.754-.244" fill-rule="evenodd"/></svg>