<svg xmlns="http://www.w3.org/2000/svg" viewBox="0 0 24 24"><path d="M5.656 3.281a2.75 2.75 0 0 0-2.112 1.496c-.307.627-.284.043-.284 7.223 0 6.082.004 6.434.073 6.68.219.783.75 1.436 1.446 1.777.595.291.399.277 4.041.301l3.28.022 1.34.308c1.529.351 1.712.378 2.121.315 1.008-.157 1.818-.776 2.196-1.678.049-.119.711-2.9 1.47-6.18 1.527-6.597 1.502-6.463 1.355-7.122a3.1 3.1 0 0 0-.55-1.129c-.324-.39-.813-.729-1.252-.869-.11-.035-1.19-.263-2.4-.507s-2.371-.492-2.58-.551l-.38-.106-3.76-.006c-2.068-.004-3.87.008-4.004.026m7.749 2.1c.08.051.188.162.24.246.091.146.095.184.095.88v.726l-.121.172c-.166.236-.346.334-.619.334s-.453-.098-.619-.334l-.121-.172v-.726c0-.691.005-.734.093-.876.233-.375.691-.484 1.052-.25m3.63.199c.739.149 1.354.294 1.445.34.222.114.435.339.544.577.203.444.276.058-1.24 6.614-1.099 4.756-1.402 6.012-1.491 6.174-.215.395-.655.65-1.082.627l-.216-.012.183-.236a2.9 2.9 0 0 0 .489-.984c.069-.247.073-.577.073-6.62 0-3.498-.015-6.445-.032-6.55-.02-.113-.018-.19.004-.19.02 0 .616.117 1.323.26M9.836 8.626c.345.2 1.063.731 1.529 1.131 1.255 1.077 1.854 2.159 1.675 3.024-.178.863-.962 1.458-1.92 1.458a2.8 2.8 0 0 1-.81-.141c-.063-.024-.07.004-.071.268-.001.447-.129.679-.449.812a.74.74 0 0 1-.58 0c-.32-.133-.448-.365-.449-.812-.001-.264-.008-.292-.071-.268a2.8 2.8 0 0 1-.81.141c-.799 0-1.477-.407-1.795-1.076-.133-.282-.143-.33-.143-.683-.001-.402.056-.635.249-1.02.359-.717 1.215-1.602 2.315-2.392.823-.592.981-.644 1.33-.442m-3.431 7.755c.08.051.188.162.24.246.091.146.095.184.095.88v.726l-.121.172c-.166.236-.346.334-.619.334s-.453-.098-.619-.334l-.121-.172v-.726c0-.691.005-.734.093-.876.233-.375.691-.484 1.052-.25"/></svg>