<svg xmlns="http://www.w3.org/2000/svg" viewBox="0 0 24 24"><path d="M5.617 3.283q-.873.101-1.552.781a2.74 2.74 0 0 0-.696 1.116l-.109.32v13l.109.32c.151.445.362.783.695 1.116s.672.544 1.116.695l.32.108 3.3.021 3.3.02 1.34.308c1.541.354 1.706.378 2.141.312 1.022-.153 1.887-.848 2.215-1.78.046-.132.707-2.94 1.469-6.24 1.331-5.766 1.385-6.016 1.384-6.4 0-.456-.085-.784-.315-1.225-.299-.572-.836-1.06-1.402-1.276-.128-.049-1.284-.302-2.569-.563-1.286-.261-2.42-.501-2.52-.534a3 3 0 0 0-.463-.101c-.34-.048-7.347-.046-7.763.002m7.748 2.06a.8.8 0 0 1 .353.448c.055.198.053 1.227-.003 1.428-.059.213-.293.441-.513.5a.747.747 0 0 1-.92-.51c-.023-.082-.042-.401-.042-.709s.019-.627.042-.709c.045-.164.2-.368.332-.439a.87.87 0 0 1 .751-.009m3.67.237c.708.142 1.354.294 1.436.336.226.115.448.353.563.601.19.414.228.215-1.265 6.667-.989 4.274-1.39 5.941-1.466 6.09a1.24 1.24 0 0 1-1.108.638l-.211-.012.128-.146c.203-.23.402-.587.519-.934l.109-.32v-6.4c0-3.52-.013-6.485-.029-6.59s-.014-.19.004-.19.613.117 1.32.26M9.958 8.702c.673.415 1.761 1.312 2.188 1.804.815.942 1.097 1.806.826 2.534-.213.571-.712.992-1.356 1.143-.327.078-.898.058-1.171-.04a2 2 0 0 0-.19-.063c-.008 0-.015.136-.015.302 0 .315-.073.529-.226.663-.272.239-.7.262-.959.051-.228-.184-.295-.345-.295-.705a1.7 1.7 0 0 0-.015-.311c-.008 0-.094.028-.19.063-.273.098-.844.118-1.171.04-.644-.151-1.143-.572-1.356-1.143-.408-1.093.412-2.443 2.36-3.888.953-.707 1.09-.746 1.57-.45M8.941 9.989c-.976.729-1.727 1.547-1.937 2.11-.1.267-.105.413-.022.612.09.217.244.358.487.449.482.18 1.082.025 1.548-.4.212-.193.306-.24.483-.24s.271.047.483.24c.213.195.467.339.734.417.745.217 1.439-.211 1.346-.83-.064-.426-.389-.909-1.03-1.529-.422-.409-1.44-1.217-1.533-1.217-.022 0-.274.175-.559.388m-2.576 6.354a.8.8 0 0 1 .353.448c.055.198.053 1.227-.003 1.428-.059.213-.293.441-.513.5a.747.747 0 0 1-.92-.51c-.054-.193-.054-1.225 0-1.418.045-.164.2-.368.332-.439a.87.87 0 0 1 .751-.009" fill-rule="evenodd"/></svg>