<svg xmlns="http://www.w3.org/2000/svg" viewBox="0 0 24 24"><path d="M5.617 3.283q-.873.101-1.552.781a2.74 2.74 0 0 0-.696 1.116l-.109.32v13l.109.32c.151.445.362.783.695 1.116s.672.544 1.116.695l.32.108 3.3.021 3.3.02 1.34.308c1.541.354 1.706.378 2.141.312 1.022-.153 1.887-.848 2.215-1.78.046-.132.707-2.94 1.469-6.24 1.331-5.766 1.385-6.016 1.384-6.4 0-.456-.085-.784-.315-1.225-.299-.572-.836-1.06-1.402-1.276-.128-.049-1.284-.302-2.569-.563-1.286-.261-2.42-.501-2.52-.534a3 3 0 0 0-.463-.101c-.34-.048-7.347-.046-7.763.002m7.622 1.537c.156.033.333.085.393.116.156.083.386.336.495.544l.093.18v12.68l-.099.195c-.13.253-.467.559-.707.641-.168.057-.598.064-3.914.064s-3.746-.007-3.914-.064c-.24-.082-.577-.388-.707-.641l-.099-.195V5.66l.093-.18c.165-.317.477-.589.773-.674.081-.024 1.542-.04 3.721-.042 3.04-.003 3.631.005 3.872.056m-.539.496c-.384.177-.46.374-.459 1.193.001.684.04.852.244 1.039a.746.746 0 0 0 1.199-.248c.062-.134.074-.262.074-.8s-.012-.666-.074-.8c-.181-.392-.607-.558-.984-.384m4.335.264c.708.142 1.354.294 1.436.336.226.115.448.353.563.601.19.414.228.215-1.265 6.667-.989 4.274-1.39 5.941-1.466 6.09a1.24 1.24 0 0 1-1.108.638l-.211-.012.128-.146c.203-.23.402-.587.519-.934l.109-.32v-6.4c0-3.52-.013-6.485-.029-6.59s-.014-.19.004-.19.613.117 1.32.26M9.373 8.527c-.299.08-1.483.953-2.119 1.563-.839.806-1.336 1.685-1.333 2.358.005 1.015.854 1.792 1.959 1.792.266 0 .592-.057.81-.141.063-.025.07.003.07.274 0 .345.04.479.193.642a.77.77 0 0 0 1.094 0c.153-.163.193-.297.193-.642 0-.271.007-.299.07-.274.218.084.544.141.81.141 1.105 0 1.954-.777 1.959-1.792.003-.673-.494-1.552-1.333-2.358a13 13 0 0 0-1.501-1.206c-.542-.363-.662-.413-.872-.357m.467 1.307c.419.292.834.636 1.233 1.024.965.936 1.227 1.652.771 2.107-.429.429-1.229.329-1.898-.239-.363-.308-.53-.308-.893.001-.647.549-1.425.661-1.87.27-.499-.438-.238-1.186.744-2.139.598-.581 1.516-1.283 1.608-1.231.025.014.162.107.305.207M5.7 16.316c-.384.177-.46.374-.459 1.193.001.684.04.852.244 1.039a.746.746 0 0 0 1.199-.248c.062-.134.074-.262.074-.8s-.012-.666-.074-.8c-.181-.392-.607-.558-.984-.384" fill-rule="evenodd"/></svg>