<svg xmlns="http://www.w3.org/2000/svg" viewBox="0 0 24 24"><path d="M5.82 1.276a.73.73 0 0 0-.538.515c-.06.217-.058 20.211.003 20.428.059.213.293.441.513.5.4.108.812-.12.92-.51.024-.087.042-.631.042-1.299v-1.15h1.48v1.15c0 .668.018 1.212.042 1.299.108.39.52.618.92.51.22-.059.454-.287.513-.5.028-.099.045-.593.045-1.309v-1.15h1.48v1.15c0 .716.017 1.21.045 1.309.059.213.293.441.513.5.4.108.812-.12.92-.51.024-.087.042-.631.042-1.299v-1.15h1.48v1.15c0 .668.018 1.212.042 1.299.108.39.52.618.92.51.22-.059.454-.287.513-.5.028-.099.045-.593.045-1.309v-1.15h1.48v1.15c0 .716.017 1.21.045 1.309.059.213.293.441.513.5.4.108.812-.12.92-.51.058-.208.058-20.21 0-20.418-.09-.324-.364-.524-.718-.524s-.628.2-.718.524c-.024.087-.042.631-.042 1.299v1.15h-1.48V3.09c0-.668-.018-1.212-.042-1.299-.09-.324-.364-.524-.718-.524s-.628.2-.718.524c-.024.087-.042.631-.042 1.299v1.15h-1.48V3.09c0-.668-.018-1.212-.042-1.299-.09-.324-.364-.524-.718-.524s-.628.2-.718.524c-.024.087-.042.631-.042 1.299v1.15H9.76V3.09c0-.668-.018-1.212-.042-1.299-.09-.324-.364-.524-.718-.524s-.628.2-.718.524c-.024.087-.042.631-.042 1.299v1.15H6.76V3.09c0-.668-.018-1.212-.042-1.299a.8.8 0 0 0-.353-.448.95.95 0 0 0-.545-.067M17.24 12v6.24H6.76V5.76h10.48zm-5.435-3.721a.8.8 0 0 0-.24.108c-.058.042-.592.804-1.188 1.695-1.122 1.677-1.16 1.747-1.108 2.067.028.174 2.092 3.303 2.272 3.444.24.189.611.203.868.034.186-.124 2.288-3.272 2.322-3.477.052-.321.014-.391-1.108-2.07-.928-1.388-1.106-1.632-1.243-1.707a.8.8 0 0 0-.575-.094m.755 2.921.532.8-.532.8c-.293.44-.545.8-.56.8s-.267-.36-.56-.8l-.532-.8.532-.8c.293-.44.545-.8.56-.8s.267.36.56.8" fill-rule="evenodd"/></svg>