<svg xmlns="http://www.w3.org/2000/svg" viewBox="0 0 24 24"><path d="M5.82 1.276a.73.73 0 0 0-.538.515c-.06.217-.058 20.211.003 20.428.059.213.293.441.513.5.4.108.812-.12.92-.51.024-.087.042-.631.042-1.299v-1.15h1.48v1.15c0 .668.018 1.212.042 1.299.108.39.52.618.92.51.22-.059.454-.287.513-.5.028-.099.045-.593.045-1.309v-1.15h1.48v1.15c0 .716.017 1.21.045 1.309.059.213.293.441.513.5.4.108.812-.12.92-.51.024-.087.042-.631.042-1.299v-1.15h1.48v1.15c0 .668.018 1.212.042 1.299.108.39.52.618.92.51.22-.059.454-.287.513-.5.028-.099.045-.593.045-1.309v-1.15h1.48v1.15c0 .716.017 1.21.045 1.309.059.213.293.441.513.5.4.108.812-.12.92-.51.058-.208.058-20.21 0-20.418-.09-.324-.364-.524-.718-.524s-.628.2-.718.524c-.024.087-.042.631-.042 1.299v1.15h-1.48V3.09c0-.668-.018-1.212-.042-1.299-.09-.324-.364-.524-.718-.524s-.628.2-.718.524c-.024.087-.042.631-.042 1.299v1.15h-1.48V3.09c0-.668-.018-1.212-.042-1.299-.09-.324-.364-.524-.718-.524s-.628.2-.718.524c-.024.087-.042.631-.042 1.299v1.15H9.76V3.09c0-.668-.018-1.212-.042-1.299-.09-.324-.364-.524-.718-.524s-.628.2-.718.524c-.024.087-.042.631-.042 1.299v1.15H6.76V3.09c0-.668-.018-1.212-.042-1.299a.8.8 0 0 0-.353-.448.95.95 0 0 0-.545-.067M17.24 12v6.24H6.76V5.76h10.48zM11.7 8.316a.9.9 0 0 0-.245.169 60 60 0 0 0-1.126 1.659c-1.1 1.655-1.138 1.728-1.053 2.041.063.23 2.151 3.333 2.317 3.443a.75.75 0 0 0 .869-.037c.17-.134 2.241-3.27 2.274-3.443a1 1 0 0 0 0-.296c-.019-.098-.386-.685-1.096-1.75-.588-.881-1.106-1.635-1.152-1.676a.96.96 0 0 0-.508-.183.8.8 0 0 0-.28.073m.86 2.884.532.8-.532.8c-.293.44-.545.8-.56.8s-.267-.36-.56-.8l-.532-.8.532-.8c.293-.44.545-.8.56-.8s.267.36.56.8"/></svg>