<svg xmlns="http://www.w3.org/2000/svg" viewBox="0 0 24 24"><path d="M5.82 1.276a.73.73 0 0 0-.538.515c-.06.217-.058 20.211.003 20.428.059.213.293.441.513.5.4.108.812-.12.92-.51.024-.087.042-.631.042-1.299v-1.15h1.48v1.15c0 .668.018 1.212.042 1.299.108.39.52.618.92.51.22-.059.454-.287.513-.5.028-.099.045-.593.045-1.309v-1.15h1.48v1.15c0 .716.017 1.21.045 1.309.059.213.293.441.513.5.4.108.812-.12.92-.51.024-.087.042-.631.042-1.299v-1.15h1.48v1.15c0 .668.018 1.212.042 1.299.108.39.52.618.92.51.22-.059.454-.287.513-.5.028-.099.045-.593.045-1.309v-1.15h1.48v1.15c0 .716.017 1.21.045 1.309.059.213.293.441.513.5.4.108.812-.12.92-.51.058-.208.058-20.21 0-20.418-.09-.324-.364-.524-.718-.524s-.628.2-.718.524c-.024.087-.042.631-.042 1.299v1.15h-1.48V3.09c0-.668-.018-1.212-.042-1.299-.09-.324-.364-.524-.718-.524s-.628.2-.718.524c-.024.087-.042.631-.042 1.299v1.15h-1.48V3.09c0-.668-.018-1.212-.042-1.299-.09-.324-.364-.524-.718-.524s-.628.2-.718.524c-.024.087-.042.631-.042 1.299v1.15H9.76V3.09c0-.668-.018-1.212-.042-1.299-.09-.324-.364-.524-.718-.524s-.628.2-.718.524c-.024.087-.042.631-.042 1.299v1.15H6.76V3.09c0-.668-.018-1.212-.042-1.299a.8.8 0 0 0-.353-.448.95.95 0 0 0-.545-.067m6.58 7.102c.102.066.437.536 1.237 1.737l1.096 1.646v.479l-1.116 1.67c-1.231 1.84-1.221 1.829-1.617 1.829s-.386.011-1.617-1.829l-1.116-1.67v-.479l1.095-1.644c.604-.907 1.147-1.681 1.211-1.726a.75.75 0 0 1 .827-.013m-.94 2.769c-.286.432-.52.816-.52.853 0 .065 1.018 1.638 1.06 1.638s1.06-1.573 1.06-1.638-1.018-1.638-1.06-1.638c-.011 0-.254.353-.54.785" fill-rule="evenodd"/></svg>