<svg xmlns="http://www.w3.org/2000/svg" viewBox="0 0 24 24"><path d="M11.82 2.276c-.369.092-.579.394-.58.833 0 .144-.013.172-.09.186l-.578.101C9.371 3.602 8.075 4.201 7.1 5c-.382.314-1.038.996-1.307 1.361a8.1 8.1 0 0 0-1.491 3.683l-.025.185-.257.024c-.299.028-.45.095-.594.267-.344.409-.146 1.056.365 1.198.207.058 16.211.058 16.418 0 .511-.142.709-.789.365-1.198-.145-.172-.295-.239-.594-.267l-.259-.024-.021-.145c-.216-1.455-.689-2.636-1.493-3.723-.269-.365-.925-1.047-1.307-1.361-.975-.799-2.271-1.398-3.472-1.604l-.578-.101c-.077-.014-.09-.042-.09-.186-.001-.347-.153-.642-.395-.766a.95.95 0 0 0-.545-.067M2.7 13.315a.74.74 0 0 0-.398.414c-.053.128-.062.443-.061 2.26.001 2.66.009 2.708.542 3.241.412.412.938.586 1.487.492.401-.069.66-.204.953-.498q.422-.42.482-.876c.021-.156.038-.187.09-.166.036.014.15.038.253.052.176.024.277.102 1.612 1.246.783.671 1.53 1.287 1.66 1.369s.376.2.548.261l.312.11h5.16l.293-.107c.162-.059.393-.167.514-.24.252-.153 4.426-3.746 4.802-4.134.638-.66.773-1.536.365-2.364a2.26 2.26 0 0 0-.765-.828 2.11 2.11 0 0 0-2.32.14c-.095.073-.58.482-1.077.908s-.918.773-.935.772-.061-.099-.097-.216c-.192-.62-.745-1.272-1.34-1.579-.649-.334-.11-.307-6.36-.32-5.354-.011-5.566-.009-5.72.063m11.147 1.486c.211.059.509.271.66.47.147.193.201.357.238.719l.026.25-.895.001c-.493 0-.967.017-1.053.037a.739.739 0 0 0-.348 1.246.84.84 0 0 0 .306.191c.102.029.642.044 1.499.044 1.211-.001 1.355-.008 1.5-.074.088-.04.889-.698 1.78-1.463.891-.764 1.662-1.406 1.713-1.426a.54.54 0 0 1 .691.252c.101.197.088.468-.029.598-.128.143-4.366 3.805-4.532 3.916-.286.192-.449.204-2.783.19l-2.16-.012-.22-.104c-.15-.07-.69-.506-1.698-1.37-.892-.765-1.558-1.307-1.682-1.368a1.6 1.6 0 0 0-.412-.125l-.208-.024V14.76h3.73c2.415 0 3.782.015 3.877.041" fill-rule="evenodd"/></svg>