<svg xmlns="http://www.w3.org/2000/svg" viewBox="0 0 24 24"><path d="M6.535 3.077c-.575.155-1.116.504-1.443.928-.24.312-1.808 3.045-1.936 3.375-.157.404-.217.866-.16 1.245.123.827.506 1.493 1.098 1.91.135.095 1.209.727 2.386 1.405a350 350 0 0 1 2.157 1.246c.019.017-.448 1.612-.56 1.914a1.33 1.33 0 0 1-.534.64c-.117.069-.567.192-1.457.4-.708.165-1.296.3-1.307.3s-.019-.338-.019-.75c0-.811-.028-.982-.186-1.17-.149-.177-.321-.253-.574-.253-.354 0-.628.2-.718.524-.027.095-.041 1-.041 2.489.001 2.193.005 2.35.075 2.5.225.486.807.619 1.178.267.232-.219.244-.275.266-1.205l.02-.858 1.42-.33c1.618-.377 1.891-.466 2.269-.734.693-.491.907-.858 1.315-2.25.108-.368.211-.67.23-.67s.537.29 1.151.645c.629.363 1.223.677 1.36.72.629.195 1.326 0 1.784-.5l.199-.218.476.584c.824 1.012.963 1.14 1.398 1.29.476.163.892.138 1.36-.083.426-.201.59-.421 1.498-1.997.449-.781.857-1.519.905-1.64a1.724 1.724 0 0 0-.83-2.164c-.216-.11-.404-.155-1.235-.297-.539-.092-.976-.184-.971-.204s.04-.117.079-.216c.05-.129.069-.288.067-.56-.003-.534-.129-.84-.492-1.2-.241-.238-.609-.459-4.323-2.6C9.825 4.053 8.28 3.186 8.1 3.123c-.392-.135-1.152-.158-1.565-.046m1.033 1.458c.169.05 7.968 4.522 8.122 4.656.116.101.082.24-.163.665l-2.086 3.616c-.199.347-.32.488-.42.488-.091 0-8.011-4.603-8.154-4.739-.237-.226-.363-.538-.365-.904-.002-.367-.04-.287.98-2.054.406-.702.801-1.338.878-1.414.325-.318.793-.44 1.208-.314m-.416 1.304a.69.69 0 0 0-.383.616c-.016.289.059.458.285.641.168.135.485.183.714.108.321-.106.541-.516.464-.862-.046-.206-.114-.309-.296-.448-.195-.149-.563-.175-.784-.055m10.418 5.936c1.076.18 1.19.218 1.19.402 0 .082-1.503 2.728-1.632 2.875-.041.046-.107.068-.185.06-.103-.01-.226-.138-.853-.892a30 30 0 0 1-.754-.927c-.012-.025.197-.426.465-.891l.488-.844.125.023c.07.013.589.1 1.156.194" fill-rule="evenodd"/></svg>