<svg xmlns="http://www.w3.org/2000/svg" viewBox="0 0 24 24"><path d="M6.529 3.078c-.548.148-1.142.536-1.455.949-.176.232-1.726 2.903-1.862 3.208a2.84 2.84 0 0 0-.132 1.793c.155.566.514 1.123.928 1.443.117.09 1.202.734 2.412 1.432s2.208 1.275 2.217 1.283c.019.017-.448 1.613-.56 1.914a1.33 1.33 0 0 1-.534.64c-.117.069-.567.192-1.457.4-.708.165-1.296.3-1.307.3s-.019-.338-.019-.75c0-.811-.028-.982-.186-1.17-.149-.177-.321-.253-.574-.253-.354 0-.628.2-.718.524-.027.095-.041 1-.041 2.489.001 2.193.005 2.35.075 2.5.225.486.807.619 1.178.267.232-.219.244-.275.266-1.205l.02-.858 1.42-.33c1.618-.377 1.891-.466 2.269-.734.693-.491.907-.858 1.315-2.25.108-.368.211-.67.23-.67s.537.29 1.151.645c.629.363 1.223.677 1.36.72.629.195 1.326 0 1.784-.5l.199-.218.476.584c.824 1.012.963 1.14 1.398 1.29.476.163.892.138 1.36-.083.426-.201.59-.421 1.498-1.997.868-1.509.978-1.732 1.02-2.083.057-.471-.149-1.051-.498-1.4-.342-.342-.629-.447-1.682-.618-.495-.08-.921-.152-.947-.16-.034-.011-.024-.075.032-.223a1.7 1.7 0 0 0-.441-1.844c-.177-.162-1.193-.768-4.28-2.548-2.567-1.48-4.154-2.372-4.336-2.437-.401-.142-1.149-.166-1.579-.05m1.31 2.762c.249.127.375.325.392.615.016.288-.059.458-.284.64-.347.281-.924.139-1.111-.272a.8.8 0 0 1 .116-.837c.19-.215.616-.285.887-.146m9.731 5.935c1.076.18 1.19.218 1.19.402 0 .082-1.503 2.728-1.632 2.875-.041.046-.107.068-.185.06-.103-.01-.226-.138-.853-.892a30 30 0 0 1-.754-.927c-.012-.025.197-.426.465-.891l.488-.844.125.023c.07.013.589.1 1.156.194" fill-rule="evenodd"/></svg>