<svg xmlns="http://www.w3.org/2000/svg" viewBox="0 0 24 24"><path d="M7.656 2.281a2.75 2.75 0 0 0-2.112 1.496c-.309.63-.284-.08-.284 8.223 0 7.048.004 7.433.073 7.68a2.82 2.82 0 0 0 1.987 1.987c.244.069.531.073 4.68.073 4.163 0 4.435-.004 4.68-.073a2.83 2.83 0 0 0 1.987-1.987c.07-.248.073-.61.073-7.68s-.003-7.432-.073-7.68a2.8 2.8 0 0 0-1.465-1.782c-.585-.289-.306-.273-5.042-.282-2.343-.004-4.37.007-4.504.025m4.684 14.785c.369.126.66.538.66.934 0 .527-.473 1-1 1-.242 0-.521-.119-.701-.299a.984.984 0 0 1 .001-1.403.98.98 0 0 1 1.04-.232"/></svg>