<svg xmlns="http://www.w3.org/2000/svg" viewBox="0 0 24 24"><path d="M7.617 2.283q-.873.101-1.552.781a2.74 2.74 0 0 0-.696 1.116l-.109.32v15l.109.32c.151.445.362.783.695 1.116s.671.544 1.116.695l.32.109h9l.32-.109a2.74 2.74 0 0 0 1.116-.695c.333-.333.544-.671.695-1.116l.109-.32v-15l-.109-.32a2.74 2.74 0 0 0-.696-1.116c-.472-.471-.961-.709-1.606-.783-.422-.049-8.296-.046-8.712.002m8.911 1.59c.239.118.481.36.599.599l.093.188v14.68l-.093.189c-.132.268-.416.534-.674.63-.212.079-.302.081-4.453.081s-4.241-.002-4.453-.081c-.258-.096-.542-.362-.674-.63l-.093-.189-.011-7.26c-.009-5.436 0-7.303.035-7.43.093-.34.433-.699.782-.828.13-.048.833-.056 4.454-.049l4.3.007zm-4.864 13.19a1 1 0 0 0-.533.448c-.095.161-.111.233-.111.489s.016.328.111.489a.993.993 0 0 0 1.57.212c.18-.18.299-.459.299-.701 0-.674-.705-1.168-1.336-.937" fill-rule="evenodd"/></svg>