<svg xmlns="http://www.w3.org/2000/svg" viewBox="0 0 24 24"><path d="M9.66 2.278c-.622.079-1.099.32-1.584.801-.396.393-.626.798-.733 1.29-.093.429-.823 6.341-.822 6.659.001.409.097.79.304 1.21.32.649.9 1.143 1.635 1.393l.32.109 3.055.012c3.276.012 3.366.008 3.897-.192 1.004-.378 1.745-1.45 1.747-2.532.001-.318-.729-6.23-.822-6.659a3.2 3.2 0 0 0-.226-.62c-.221-.447-.711-.939-1.171-1.177-.606-.313-.52-.304-3.08-.315-1.254-.005-2.388.005-2.52.021m4.852 1.594c.259.138.474.352.586.582.09.184.14.527.481 3.254.21 1.677.381 3.171.381 3.32a1.2 1.2 0 0 1-.88 1.167c-.136.036-.916.045-3.18.037l-3-.012-.193-.099a1.24 1.24 0 0 1-.667-1.093c0-.463.751-6.336.835-6.527.137-.308.419-.563.76-.686.114-.042.629-.051 2.425-.044l2.28.009zM2.805 10.278c-.394.098-.633.521-.524.926.059.218.288.453.5.511.087.025.458.045.823.045h.664l.048.29a5.5 5.5 0 0 0 .393 1.21 4.6 4.6 0 0 0 2.477 2.215c.652.24.774.253 2.484.274l1.57.019v2.472h-1.11c-1.591.001-1.984.063-2.555.405-.304.182-.761.645-.946.959-.285.484-.45 1.222-.352 1.584a.75.75 0 0 0 1.203.386c.174-.147.24-.296.278-.634.018-.162.072-.376.12-.476.112-.231.356-.474.594-.591.183-.091.222-.093 1.478-.105l1.29-.011v.651c0 .359.019.719.042.801.108.39.52.618.92.51.22-.059.454-.287.513-.5.025-.087.045-.452.045-.811v-.651l1.29.011c1.256.012 1.295.014 1.478.105.238.117.482.36.594.591.048.1.102.314.12.476.038.338.104.487.278.634a.75.75 0 0 0 1.203-.386c.098-.362-.067-1.1-.352-1.584-.185-.314-.642-.777-.946-.959-.571-.342-.964-.404-2.555-.405h-1.11v-2.48l1.35-.001c1.535-.001 1.979-.042 2.57-.241.813-.273 1.396-.664 1.998-1.342.505-.569.918-1.469 1.021-2.226l.026-.19h.667c.368 0 .74-.02.827-.045.212-.058.441-.293.5-.511.124-.459-.172-.885-.655-.945-.117-.015-.624-.02-1.128-.013l-.916.014-.217.12c-.369.204-.563.555-.563 1.019 0 1.27-1.033 2.512-2.317 2.784-.387.082-7.459.082-7.846 0-1.288-.273-2.317-1.512-2.317-2.789 0-.459-.195-.81-.563-1.014l-.217-.12-1.02-.008c-.561-.004-1.081.008-1.155.026" fill-rule="evenodd"/></svg>