<svg xmlns="http://www.w3.org/2000/svg" viewBox="0 0 24 24"><path d="M6.656 3.281a2.75 2.75 0 0 0-2.112 1.496c-.306.626-.281-.039-.294 7.613l-.011 6.85-.63.001c-.86.001-1.029.049-1.236.354-.268.393-.049.993.408 1.12.225.063 15.213.063 15.438 0a.84.84 0 0 0 .306-.191.739.739 0 0 0-.348-1.246c-.086-.02-.665-.037-1.287-.037l-1.13-.001v-7.48h.174c.322 0 .306-.104.307 2.043 0 2.099.012 2.229.247 2.708.178.366.635.823 1.001 1.001a2.25 2.25 0 0 0 2.022 0c.366-.178.823-.635 1.002-1.001.255-.523.251-.448.238-4.565L20.74 8.22l-.093-.26c-.188-.523-.29-.65-1.503-1.873-.64-.645-1.231-1.208-1.312-1.25-.434-.225-1.009.068-1.062.541-.046.405-.061.383 1.166 1.622.621.627 1.164 1.194 1.207 1.26.074.116.077.243.088 3.77s.008 3.655-.066 3.8q-.224.438-.728.402a.69.69 0 0 1-.597-.393c-.077-.149-.08-.238-.081-2.047-.001-2.407-.017-2.501-.535-3.012-.332-.328-.597-.453-1.077-.509l-.383-.045-.014-2.343c-.013-2.104-.022-2.368-.086-2.583a2.8 2.8 0 0 0-1.462-1.762c-.573-.283-.422-.272-4.042-.281-1.793-.005-3.37.006-3.504.024m3.76 5.11c.202.14.319.368.319.617 0 .168-.067.33-.507 1.213l-.506 1.019h.909c.511 0 .975.019 1.06.042.188.053.424.255.495.426.133.318.113.372-.764 2.126-.592 1.184-.852 1.664-.942 1.74-.483.407-1.213.055-1.215-.585 0-.165.069-.331.507-1.21l.506-1.019-.949-.001c-.838-.001-.968-.009-1.109-.075-.303-.14-.46-.381-.46-.706 0-.15.125-.426.819-1.815.68-1.358.844-1.656.961-1.746a.73.73 0 0 1 .876-.026" fill-rule="evenodd"/></svg>