<svg xmlns="http://www.w3.org/2000/svg" viewBox="0 0 24 24"><path d="M11.32 2.28c-1.88.127-3.677.804-5.236 1.972-.474.355-1.329 1.199-1.735 1.712a10 10 0 0 0-2.033 4.896c-.065.515-.065 1.765 0 2.28.118.937.438 2.088.801 2.874q.163.354.163.521c0 .091-.072.445-.16.786l-.321 1.239c-.206.798-.265 1.275-.203 1.65.119.72.514 1.096 1.253 1.196.395.053.784.003 1.576-.202l1.233-.319c.351-.091.713-.165.806-.165q.168 0 .522.163c.496.229 1.426.533 1.994.651a9.7 9.7 0 0 0 6.32-.792 9.72 9.72 0 0 0 4.442-4.442c1.349-2.756 1.349-5.844 0-8.6a9.8 9.8 0 0 0-3.566-3.961c-.824-.522-2.118-1.053-3.056-1.253a11 11 0 0 0-2.8-.206m1.526 1.522a8.4 8.4 0 0 1 4.291 1.749c.363.287 1.025.949 1.312 1.312a8.4 8.4 0 0 1 1.749 4.291c.25 2.466-.624 4.932-2.355 6.646-1.192 1.18-2.502 1.909-4.023 2.239-1.807.391-3.537.212-5.254-.547-.272-.12-.604-.235-.737-.257-.333-.053-.85.014-1.601.208l-1.141.296c-.294.076-.643.15-.776.165l-.243.028.027-.236a9 9 0 0 1 .188-.856l.298-1.146c.285-1.098.276-1.477-.053-2.225-.582-1.322-.802-2.406-.757-3.728.043-1.249.286-2.236.83-3.361A8.2 8.2 0 0 1 9.4 4.185a8.2 8.2 0 0 1 3.446-.383M7.7 11.316a.745.745 0 0 0 .029 1.382.65.65 0 0 0 .542 0 .748.748 0 0 0 0-1.396.67.67 0 0 0-.571.014m4 0a.745.745 0 0 0 .029 1.382.65.65 0 0 0 .542 0 .748.748 0 0 0 0-1.396.67.67 0 0 0-.571.014m4 0a.745.745 0 0 0 .029 1.382.65.65 0 0 0 .542 0 .748.748 0 0 0 0-1.396.67.67 0 0 0-.571.014"/></svg>