<svg xmlns="http://www.w3.org/2000/svg" viewBox="0 0 24 24"><path d="M11.32 2.28c-1.88.127-3.677.804-5.236 1.972-.474.355-1.329 1.199-1.735 1.712a10 10 0 0 0-2.033 4.896c-.065.515-.065 1.765 0 2.28.118.937.438 2.088.801 2.874q.163.354.163.521c0 .091-.072.445-.16.786l-.321 1.239c-.206.798-.265 1.275-.203 1.65.119.72.514 1.096 1.253 1.196.395.053.784.003 1.576-.202l1.233-.319c.351-.091.713-.165.806-.165q.168 0 .522.163c.496.229 1.426.533 1.994.651a9.7 9.7 0 0 0 6.32-.792 9.72 9.72 0 0 0 4.442-4.442c1.349-2.756 1.349-5.844 0-8.6a9.8 9.8 0 0 0-3.566-3.961c-.824-.522-2.118-1.053-3.056-1.253a11 11 0 0 0-2.8-.206m-2.955 9.063c.206.106.395.42.395.657 0 .267-.202.568-.458.685-.529.24-1.13-.212-1.044-.785a.76.76 0 0 1 1.107-.557m4 0c.206.106.395.42.395.657 0 .267-.202.568-.458.685-.529.24-1.13-.212-1.044-.785a.76.76 0 0 1 1.107-.557m4 0c.206.106.395.42.395.657 0 .267-.202.568-.458.685-.529.24-1.13-.212-1.044-.785a.76.76 0 0 1 1.107-.557"/></svg>