<svg fill="none" xmlns="http://www.w3.org/2000/svg" viewBox="0 0 24 24"><path d="M11.320 2.280 C 9.440 2.407,7.643 3.084,6.084 4.252 C 5.610 4.607,4.755 5.451,4.349 5.964 C 3.260 7.343,2.540 9.077,2.316 10.860 C 2.251 11.375,2.251 12.625,2.316 13.140 C 2.434 14.077,2.754 15.228,3.117 16.014 C 3.225 16.249,3.280 16.424,3.280 16.535 C 3.280 16.626,3.208 16.980,3.120 17.321 C 3.031 17.661,2.887 18.219,2.799 18.560 C 2.593 19.358,2.534 19.835,2.596 20.210 C 2.715 20.930,3.110 21.306,3.849 21.406 C 4.244 21.459,4.633 21.409,5.425 21.204 C 5.752 21.120,6.307 20.976,6.658 20.885 C 7.009 20.794,7.371 20.720,7.464 20.720 C 7.576 20.720,7.750 20.774,7.986 20.883 C 8.482 21.112,9.412 21.416,9.980 21.534 C 12.146 21.984,14.339 21.709,16.300 20.742 C 18.243 19.782,19.800 18.226,20.742 16.300 C 22.091 13.544,22.091 10.456,20.742 7.700 C 19.952 6.085,18.721 4.718,17.176 3.739 C 16.352 3.217,15.058 2.686,14.120 2.486 C 13.247 2.300,12.184 2.222,11.320 2.280 M8.365 11.343 C 8.571 11.449,8.760 11.763,8.760 12.000 C 8.760 12.267,8.558 12.568,8.302 12.685 C 7.773 12.925,7.172 12.473,7.258 11.900 C 7.335 11.385,7.896 11.103,8.365 11.343 M12.365 11.343 C 12.571 11.449,12.760 11.763,12.760 12.000 C 12.760 12.267,12.558 12.568,12.302 12.685 C 11.773 12.925,11.172 12.473,11.258 11.900 C 11.335 11.385,11.896 11.103,12.365 11.343 M16.365 11.343 C 16.571 11.449,16.760 11.763,16.760 12.000 C 16.760 12.267,16.558 12.568,16.302 12.685 C 15.773 12.925,15.172 12.473,15.258 11.900 C 15.335 11.385,15.896 11.103,16.365 11.343 " stroke="none" fill-rule="evenodd"/></svg>