<svg xmlns="http://www.w3.org/2000/svg" viewBox="0 0 24 24"><path d="M11.32 2.28A9.74 9.74 0 0 0 3.258 7.7c-.688 1.406-.993 2.726-.993 4.3 0 1.445.253 2.657.827 3.957l.202.457-.047.323c-.026.178-.156.719-.289 1.203-.518 1.886-.514 2.55.019 3.083.521.521 1.217.534 2.943.056.894-.248 1.371-.357 1.564-.358.086-.001.287.065.497.162.765.353 1.897.671 2.859.802.561.076 1.875.066 2.46-.02a9.9 9.9 0 0 0 4.608-1.91c.504-.377 1.47-1.343 1.847-1.847a9.94 9.94 0 0 0 1.911-4.608c.049-.335.07-.727.07-1.3s-.021-.965-.07-1.3a9.95 9.95 0 0 0-1.911-4.608c-.332-.442-1.23-1.364-1.662-1.704-1.136-.896-2.647-1.619-3.973-1.902a11 11 0 0 0-2.8-.206m-2.915 9.101c.223.144.328.345.328.626 0 .196-.019.264-.117.402-.163.233-.345.33-.616.33s-.453-.097-.616-.33c-.098-.138-.117-.206-.117-.402a.729.729 0 0 1 1.138-.626m4 0c.223.144.328.345.328.626 0 .196-.019.264-.117.402-.163.233-.345.33-.616.33s-.453-.097-.616-.33c-.098-.138-.117-.206-.117-.402a.729.729 0 0 1 1.138-.626m4 0c.223.144.328.345.328.626 0 .196-.019.264-.117.402-.163.233-.345.33-.616.33s-.453-.097-.616-.33c-.098-.138-.117-.206-.117-.402a.729.729 0 0 1 1.138-.626"/></svg>