<svg xmlns="http://www.w3.org/2000/svg" viewBox="0 0 24 24"><path d="M11.32 2.28c-1.88.127-3.677.804-5.236 1.972-.474.355-1.329 1.199-1.735 1.712a10 10 0 0 0-2.033 4.896c-.065.515-.065 1.765 0 2.28.118.937.438 2.088.801 2.874q.163.354.163.521c0 .091-.072.445-.16.786l-.321 1.239c-.206.798-.265 1.275-.203 1.65.119.72.514 1.096 1.253 1.196.395.053.784.003 1.576-.202l1.233-.319c.351-.091.713-.165.806-.165q.168 0 .522.163c.496.229 1.426.533 1.994.651a9.7 9.7 0 0 0 6.32-.792 9.72 9.72 0 0 0 4.442-4.442c1.349-2.756 1.349-5.844 0-8.6a9.8 9.8 0 0 0-3.566-3.961c-.824-.522-2.118-1.053-3.056-1.253a11 11 0 0 0-2.8-.206m2 1.578c1.758.298 3.253 1.068 4.504 2.318 1.258 1.258 2.025 2.757 2.324 4.54.1.593.1 1.975 0 2.568-.343 2.043-1.352 3.8-2.928 5.097-1.133.932-2.355 1.487-3.88 1.762-.482.087-1.706.121-2.207.06a8.2 8.2 0 0 1-2.653-.749l-.42-.194-.56.001c-.608.001-.541-.012-2.24.438a9 9 0 0 1-.936.207l-.257.026.025-.236c.023-.223.08-.462.463-1.936.315-1.212.308-1.513-.053-2.332-.756-1.717-.933-3.435-.541-5.248.512-2.37 2.141-4.451 4.349-5.554.905-.453 1.769-.701 2.93-.841.313-.038 1.715.011 2.08.073m-5.515 7.421c-.391.095-.651.559-.526.939.1.303.417.54.721.54.384 0 .76-.375.76-.758 0-.237-.189-.551-.395-.657a.95.95 0 0 0-.56-.064m4 0c-.391.095-.651.559-.526.939.1.303.417.54.721.54.384 0 .76-.375.76-.758 0-.237-.189-.551-.395-.657a.95.95 0 0 0-.56-.064m4 0c-.391.095-.651.559-.526.939.1.303.417.54.721.54.384 0 .76-.375.76-.758 0-.237-.189-.551-.395-.657a.95.95 0 0 0-.56-.064" fill-rule="evenodd"/></svg>