<svg xmlns="http://www.w3.org/2000/svg" viewBox="0 0 24 24"><path d="M5.617 2.283q-.873.101-1.552.781a2.74 2.74 0 0 0-.696 1.116l-.109.32v15l.109.32c.151.445.362.783.695 1.116s.671.544 1.116.695l.32.109h13l.32-.109a2.74 2.74 0 0 0 1.116-.695c.333-.333.544-.671.695-1.116l.109-.32v-15l-.109-.32a2.74 2.74 0 0 0-.696-1.116c-.472-.471-.961-.709-1.606-.783-.425-.049-12.293-.046-12.712.002m1.56 2.995a.739.739 0 0 1 .348 1.246.84.84 0 0 1-.306.191c-.093.026-.507.044-.999.044-.732-.001-.86-.01-1-.075-.521-.241-.625-.866-.205-1.234a.8.8 0 0 1 .256-.153c.06-.013.127-.03.149-.037.092-.031 1.613-.015 1.757.018m10.183.063a.78.78 0 0 1 .338.388c.275.658-.513 1.297-1.106.897-.545-.367-.405-1.192.228-1.35a.95.95 0 0 1 .54.065m-4.964 2.94a4.63 4.63 0 0 1 3.029 1.448c1.531 1.596 1.752 4 .541 5.871-.286.441-.925 1.08-1.366 1.366a4.73 4.73 0 0 1-5.2 0c-.441-.286-1.08-.925-1.366-1.366-1.212-1.872-.991-4.274.541-5.871.763-.795 1.678-1.264 2.785-1.43.439-.065.493-.066 1.036-.018m-.81 1.538c-.357.138-.688.491-.785.839-.07.25-.037.642.073.87.118.243.379.503.605.604.113.05.368.1.685.133.807.084 1.259.288 1.771.799.157.156.353.399.436.54.164.278.349.808.349 1 0 .165.058.117.2-.165.227-.448.298-.794.298-1.439 0-.481-.015-.633-.089-.892-.302-1.052-1.18-1.936-2.215-2.229-.39-.11-1.112-.143-1.328-.06m-2.371 1.505c-.099.122-.258.487-.344.784-.129.45-.129 1.334 0 1.784.167.582.458 1.042.941 1.492.474.44.947.686 1.533.798.7.134 1.173.045 1.506-.283.282-.278.369-.491.369-.899 0-.399-.086-.616-.345-.875-.251-.252-.463-.334-.961-.372-.787-.062-1.339-.305-1.85-.818-.425-.425-.7-.947-.775-1.466-.023-.159-.039-.189-.074-.145"/></svg>