<svg xmlns="http://www.w3.org/2000/svg" viewBox="0 0 24 24"><path d="M3.805 3.28c-.384.091-.633.519-.528.908.023.086.11.236.192.334.083.098 1.865 2.107 3.961 4.465l3.81 4.288v5.965l-1.63.001c-.897 0-1.701.017-1.787.037a.739.739 0 0 0-.348 1.246.84.84 0 0 0 .306.191c.224.063 8.214.063 8.438 0a.84.84 0 0 0 .306-.191.739.739 0 0 0-.348-1.246c-.086-.02-.89-.037-1.787-.037l-1.63-.001v-5.965l3.906-4.394c2.148-2.417 3.943-4.454 3.989-4.526.113-.179.114-.523.002-.715a1 1 0 0 0-.252-.259l-.172-.121-8.146-.006c-4.481-.004-8.208.008-8.282.026"/></svg>