<svg xmlns="http://www.w3.org/2000/svg" viewBox="0 0 24 24"><path d="M6.82 3.276a.73.73 0 0 0-.538.515c-.058.209-.056 3.218.003 3.428.059.213.293.441.513.5.4.108.812-.12.92-.51.056-.2.056-3.218 0-3.418a.8.8 0 0 0-.353-.448.95.95 0 0 0-.545-.067m4 0a.73.73 0 0 0-.538.515c-.058.209-.056 3.218.003 3.428.059.213.293.441.513.5.4.108.812-.12.92-.51.056-.2.056-3.218 0-3.418a.8.8 0 0 0-.353-.448.95.95 0 0 0-.545-.067m4 0a.73.73 0 0 0-.538.515c-.058.209-.056 3.218.003 3.428.059.213.293.441.513.5.4.108.812-.12.92-.51.056-.2.056-3.218 0-3.418a.8.8 0 0 0-.353-.448.95.95 0 0 0-.545-.067M3.7 8.816a.8.8 0 0 0-.402.443c-.059.155-.064.393-.046 2.327.016 1.675.033 2.225.08 2.474.289 1.549.881 2.684 1.953 3.747l.431.428-1.208.012c-1.035.011-1.225.023-1.328.079-.582.323-.56 1.081.04 1.358.154.071.454.074 8 .075 5.599 0 7.885-.012 7.999-.044a.84.84 0 0 0 .306-.191.739.739 0 0 0-.348-1.246c-.086-.02-.66-.037-1.275-.037l-1.118-.001.413-.41c.588-.583.991-1.13 1.326-1.799.07-.138.13-.255.134-.26a3 3 0 0 1 .3-.051 3.4 3.4 0 0 0 1.179-.408c.354-.209.855-.688 1.091-1.043.4-.601.533-1.17.533-2.276 0-1.038-.116-1.517-.497-2.05-.398-.558-1.041-.998-1.643-1.123-.399-.083-15.732-.087-15.92-.004m14.049 3.094c-.021 1.828-.043 2.049-.275 2.744a5.32 5.32 0 0 1-3.027 3.217 8 8 0 0 1-.76.241l-.427.108h-1.98c-1.766 0-2.017-.008-2.319-.073A5.24 5.24 0 0 1 6.3 16.701a5.2 5.2 0 0 1-1.295-2.112c-.215-.672-.245-1.008-.245-2.769v-1.58h13.009zm1.876-1.487c.193.11.379.312.505.548.083.155.091.232.104.929.015.827-.017 1.068-.183 1.397a1.97 1.97 0 0 1-.696.722l-.206.112.031-.115c.017-.064.039-.931.048-1.926l.017-1.81.108.025c.059.013.181.067.272.118" fill-rule="evenodd"/></svg>