<svg fill="none" xmlns="http://www.w3.org/2000/svg" viewBox="0 0 24 24"><path d="M6.820 3.276 C 6.554 3.342,6.353 3.534,6.282 3.791 C 6.224 4.000,6.226 7.009,6.285 7.219 C 6.344 7.432,6.578 7.660,6.798 7.719 C 7.198 7.827,7.610 7.599,7.718 7.209 C 7.774 7.009,7.774 3.991,7.718 3.791 C 7.670 3.617,7.514 3.419,7.365 3.343 C 7.224 3.271,6.967 3.240,6.820 3.276 M10.820 3.276 C 10.554 3.342,10.353 3.534,10.282 3.791 C 10.224 4.000,10.226 7.009,10.285 7.219 C 10.344 7.432,10.578 7.660,10.798 7.719 C 11.198 7.827,11.610 7.599,11.718 7.209 C 11.774 7.009,11.774 3.991,11.718 3.791 C 11.670 3.617,11.514 3.419,11.365 3.343 C 11.224 3.271,10.967 3.240,10.820 3.276 M14.820 3.276 C 14.554 3.342,14.353 3.534,14.282 3.791 C 14.224 4.000,14.226 7.009,14.285 7.219 C 14.344 7.432,14.578 7.660,14.798 7.719 C 15.198 7.827,15.610 7.599,15.718 7.209 C 15.774 7.009,15.774 3.991,15.718 3.791 C 15.670 3.617,15.514 3.419,15.365 3.343 C 15.224 3.271,14.967 3.240,14.820 3.276 M3.700 8.816 C 3.527 8.892,3.374 9.061,3.298 9.259 C 3.239 9.414,3.234 9.652,3.252 11.586 C 3.268 13.261,3.285 13.811,3.332 14.060 C 3.621 15.609,4.213 16.744,5.285 17.807 L 5.716 18.235 4.508 18.247 C 3.473 18.258,3.283 18.270,3.180 18.326 C 2.598 18.649,2.620 19.407,3.220 19.684 C 3.374 19.755,3.674 19.758,11.220 19.759 C 16.819 19.759,19.105 19.747,19.219 19.715 C 19.307 19.691,19.444 19.605,19.525 19.524 C 19.938 19.111,19.742 18.409,19.177 18.278 C 19.091 18.258,18.517 18.241,17.902 18.241 L 16.784 18.240 17.197 17.830 C 17.785 17.247,18.188 16.700,18.523 16.031 C 18.593 15.893,18.653 15.776,18.657 15.771 C 18.661 15.766,18.796 15.743,18.957 15.720 C 19.354 15.664,19.804 15.508,20.136 15.312 C 20.490 15.103,20.991 14.624,21.227 14.269 C 21.627 13.668,21.760 13.099,21.760 11.993 C 21.760 10.955,21.644 10.476,21.263 9.943 C 20.865 9.385,20.222 8.945,19.620 8.820 C 19.221 8.737,3.888 8.733,3.700 8.816 M17.749 11.910 C 17.728 13.738,17.706 13.959,17.474 14.654 C 16.992 16.102,15.852 17.312,14.447 17.871 C 14.264 17.943,13.922 18.052,13.687 18.112 L 13.260 18.220 11.280 18.220 C 9.514 18.220,9.263 18.212,8.961 18.147 C 7.926 17.924,7.037 17.441,6.300 16.701 C 5.689 16.088,5.261 15.390,5.005 14.589 C 4.790 13.917,4.760 13.581,4.760 11.820 L 4.760 10.240 11.265 10.240 L 17.769 10.240 17.749 11.910 M19.625 10.423 C 19.818 10.533,20.004 10.735,20.130 10.971 C 20.213 11.126,20.221 11.203,20.234 11.900 C 20.249 12.727,20.217 12.968,20.051 13.297 C 19.919 13.559,19.608 13.881,19.355 14.019 L 19.149 14.131 19.180 14.016 C 19.197 13.952,19.219 13.085,19.228 12.090 L 19.245 10.280 19.353 10.305 C 19.412 10.318,19.534 10.372,19.625 10.423 " stroke="none" fill-rule="evenodd" fill="currentColor"/></svg>