<svg fill="none" xmlns="http://www.w3.org/2000/svg" viewBox="0 0 24 24"><path d="M5.617 2.283 C 5.034 2.351,4.519 2.610,4.065 3.064 C 3.732 3.396,3.521 3.735,3.369 4.180 L 3.260 4.500 3.260 12.000 L 3.260 19.500 3.369 19.820 C 3.520 20.265,3.731 20.603,4.064 20.936 C 4.397 21.269,4.735 21.480,5.180 21.631 L 5.500 21.740 12.000 21.740 L 18.500 21.740 18.820 21.631 C 19.265 21.480,19.603 21.269,19.936 20.936 C 20.269 20.603,20.480 20.265,20.631 19.820 L 20.740 19.500 20.740 12.000 L 20.740 4.500 20.631 4.180 C 20.479 3.735,20.268 3.396,19.935 3.064 C 19.463 2.593,18.974 2.355,18.329 2.281 C 17.904 2.232,6.036 2.235,5.617 2.283 M18.528 3.873 C 18.767 3.991,19.009 4.233,19.127 4.472 L 19.220 4.660 19.220 12.000 L 19.220 19.340 19.127 19.529 C 18.995 19.797,18.711 20.063,18.453 20.159 C 18.240 20.239,18.156 20.240,12.000 20.240 C 5.844 20.240,5.760 20.239,5.547 20.159 C 5.289 20.063,5.005 19.797,4.873 19.529 L 4.780 19.340 4.770 13.050 L 4.759 6.760 5.910 6.760 C 6.626 6.760,7.120 6.743,7.219 6.715 C 7.307 6.691,7.444 6.605,7.525 6.524 C 7.938 6.111,7.742 5.409,7.177 5.278 C 7.091 5.258,6.511 5.241,5.890 5.241 L 4.760 5.240 4.760 5.005 C 4.760 4.599,4.944 4.238,5.273 3.996 C 5.608 3.750,5.161 3.765,12.040 3.773 L 18.340 3.780 18.528 3.873 M16.820 5.276 C 16.320 5.401,16.090 5.986,16.374 6.408 C 16.707 6.902,17.439 6.842,17.685 6.302 C 17.810 6.026,17.757 5.711,17.548 5.487 C 17.378 5.304,17.068 5.215,16.820 5.276 M11.360 8.299 C 10.253 8.465,9.338 8.934,8.575 9.729 C 7.043 11.326,6.822 13.728,8.034 15.600 C 8.320 16.041,8.959 16.680,9.400 16.966 C 11.004 18.005,12.996 18.005,14.600 16.966 C 15.041 16.680,15.680 16.041,15.966 15.600 C 17.177 13.729,16.956 11.325,15.425 9.729 C 14.598 8.868,13.593 8.387,12.396 8.281 C 11.853 8.233,11.799 8.234,11.360 8.299 M12.914 9.879 C 13.746 10.115,14.526 10.775,14.935 11.588 C 15.147 12.010,15.218 12.366,15.218 13.000 C 15.218 13.645,15.147 13.991,14.920 14.439 C 14.778 14.721,14.720 14.769,14.720 14.604 C 14.720 14.412,14.535 13.882,14.371 13.604 C 14.288 13.463,14.092 13.220,13.935 13.064 C 13.423 12.553,12.971 12.349,12.164 12.265 C 11.847 12.232,11.592 12.182,11.479 12.132 C 11.253 12.031,10.992 11.771,10.874 11.528 C 10.764 11.300,10.731 10.908,10.801 10.658 C 10.898 10.310,11.229 9.957,11.586 9.819 C 11.802 9.736,12.524 9.769,12.914 9.879 M9.414 11.935 C 9.555 12.323,9.744 12.615,10.064 12.935 C 10.575 13.448,11.127 13.691,11.914 13.753 C 12.412 13.791,12.624 13.873,12.875 14.125 C 13.134 14.384,13.220 14.601,13.220 15.000 C 13.220 15.408,13.133 15.621,12.851 15.899 C 12.518 16.227,12.045 16.316,11.345 16.182 C 10.759 16.070,10.286 15.824,9.812 15.384 C 9.329 14.934,9.038 14.474,8.871 13.892 C 8.797 13.633,8.782 13.481,8.782 13.000 C 8.782 12.366,8.853 12.010,9.065 11.588 C 9.235 11.250,9.256 11.239,9.289 11.469 C 9.305 11.580,9.361 11.790,9.414 11.935 " stroke="none" fill-rule="evenodd" fill="currentColor"/></svg>