<svg xmlns="http://www.w3.org/2000/svg" viewBox="0 0 24 24"><path d="M5.656 2.282a2.75 2.75 0 0 0-2.112 1.495c-.309.63-.284-.08-.284 8.223 0 7.048.004 7.433.073 7.68a2.82 2.82 0 0 0 1.987 1.987c.246.069.598.073 6.68.073 6.101 0 6.433-.004 6.68-.073a2.83 2.83 0 0 0 1.987-1.987c.07-.248.073-.61.073-7.68s-.003-7.432-.073-7.68a2.8 2.8 0 0 0-1.465-1.782c-.598-.295-.071-.274-7.042-.282-3.443-.004-6.37.008-6.504.026M18.52 3.874c.245.129.466.346.593.586l.107.2v14.68l-.108.204c-.146.278-.467.559-.723.636-.178.052-.989.06-6.389.06s-6.211-.008-6.389-.06c-.256-.077-.577-.358-.723-.636l-.108-.204-.01-6.29-.011-6.29 1.191-.001c1.071-.001 1.206-.008 1.35-.075a.73.73 0 0 0 .398-.413c.154-.368-.018-.78-.398-.955-.144-.067-.279-.074-1.355-.075L4.749 5.24l.019-.29a1.27 1.27 0 0 1 .912-1.153c.055-.017 2.926-.028 6.38-.024l6.28.007zM16.7 5.316a.745.745 0 0 0 .029 1.382.65.65 0 0 0 .542 0 .748.748 0 0 0 0-1.396.67.67 0 0 0-.571.014m-5.48 2.989c-1.774.32-3.193 1.543-3.743 3.225a4.73 4.73 0 0 0 1.164 4.829 4.734 4.734 0 0 0 6.718 0 4.734 4.734 0 0 0 0-6.718c-1.085-1.084-2.68-1.599-4.139-1.336m1.653 1.573a3.29 3.29 0 0 1 2.256 2.27c.073.255.09.411.09.852 0 .622-.076.961-.327 1.452l-.147.288-.032-.205c-.081-.531-.353-1.046-.778-1.47-.511-.512-.963-.716-1.771-.8-.317-.033-.572-.083-.685-.133-.226-.101-.487-.361-.605-.604a1.44 1.44 0 0 1-.073-.87c.097-.348.428-.701.785-.839.216-.083.901-.051 1.287.059m-3.459 2.057c.141.388.33.68.65 1 .511.513 1.063.756 1.85.818.498.038.71.12.961.372.259.259.345.476.345.875 0 .408-.087.621-.369.899-.279.274-.532.355-1.031.328-1.395-.076-2.556-1.01-2.949-2.375-.073-.255-.09-.411-.09-.852 0-.622.076-.961.327-1.452l.147-.288.032.205c.017.113.074.325.127.47" fill-rule="evenodd"/></svg>