<svg fill="none" xmlns="http://www.w3.org/2000/svg" viewBox="0 0 24 24"><path d="M3.805 3.280 C 3.421 3.371,3.172 3.799,3.277 4.188 C 3.300 4.274,3.387 4.424,3.469 4.522 C 3.552 4.620,5.334 6.629,7.430 8.987 L 11.240 13.275 11.240 16.257 L 11.240 19.240 9.610 19.241 C 8.713 19.241,7.909 19.258,7.823 19.278 C 7.258 19.409,7.062 20.111,7.475 20.524 C 7.556 20.605,7.693 20.691,7.781 20.715 C 8.005 20.778,15.995 20.778,16.219 20.715 C 16.307 20.691,16.444 20.605,16.525 20.524 C 16.938 20.111,16.742 19.409,16.177 19.278 C 16.091 19.258,15.287 19.241,14.390 19.241 L 12.760 19.240 12.760 16.258 L 12.760 13.275 16.666 8.881 C 18.814 6.464,20.609 4.427,20.655 4.355 C 20.768 4.176,20.769 3.832,20.657 3.640 C 20.613 3.564,20.499 3.447,20.405 3.381 L 20.233 3.260 12.087 3.254 C 7.606 3.250,3.879 3.262,3.805 3.280 " stroke="none" fill-rule="evenodd"/></svg>