<svg fill="none" xmlns="http://www.w3.org/2000/svg" viewBox="0 0 24 24"><path d="M14.140 1.829 C 13.399 1.931,12.626 2.412,12.222 3.020 L 12.080 3.234 10.050 3.251 C 7.774 3.270,7.816 3.265,7.220 3.572 C 6.794 3.792,6.282 4.296,6.068 4.708 C 5.788 5.245,5.760 5.443,5.760 6.884 C 5.760 7.685,5.776 8.196,5.803 8.267 C 5.895 8.512,6.239 8.757,6.491 8.759 C 6.719 8.761,7.045 8.560,7.173 8.340 C 7.205 8.286,7.228 7.845,7.244 7.000 C 7.259 6.200,7.285 5.686,7.316 5.591 C 7.419 5.268,7.814 4.895,8.153 4.801 C 8.243 4.776,8.976 4.760,10.030 4.760 L 11.760 4.760 11.760 12.002 L 11.760 19.243 9.950 19.232 L 8.140 19.220 7.937 19.113 C 7.727 19.002,7.487 18.766,7.386 18.572 C 7.273 18.352,7.240 17.982,7.240 16.915 C 7.240 16.256,7.224 15.802,7.197 15.733 C 7.095 15.460,6.807 15.269,6.500 15.269 C 6.193 15.269,5.905 15.460,5.803 15.733 C 5.776 15.804,5.760 16.315,5.760 17.116 C 5.760 18.554,5.789 18.758,6.063 19.281 C 6.332 19.792,6.916 20.330,7.428 20.538 C 7.936 20.745,8.127 20.760,10.178 20.760 L 12.079 20.760 12.186 20.930 C 12.359 21.205,12.757 21.593,13.059 21.780 C 13.605 22.120,14.357 22.273,14.927 22.162 C 15.066 22.135,16.364 21.820,17.812 21.461 C 20.905 20.696,20.854 20.715,21.422 20.144 C 21.835 19.729,22.034 19.393,22.161 18.896 C 22.238 18.595,22.240 18.425,22.240 12.000 C 22.240 5.575,22.238 5.405,22.161 5.104 C 22.034 4.606,21.835 4.271,21.422 3.858 C 20.850 3.287,20.899 3.304,17.878 2.556 C 14.792 1.791,14.633 1.760,14.140 1.829 M17.300 3.959 C 18.722 4.311,19.961 4.632,20.053 4.673 C 20.258 4.765,20.538 5.062,20.654 5.313 L 20.740 5.500 20.740 12.000 L 20.740 18.500 20.653 18.689 C 20.522 18.971,20.230 19.263,19.986 19.354 C 19.798 19.424,15.361 20.535,14.765 20.661 C 14.173 20.786,13.608 20.493,13.345 19.925 L 13.260 19.740 13.260 12.000 L 13.260 4.260 13.372 4.032 C 13.504 3.762,13.810 3.471,14.051 3.386 C 14.417 3.257,14.558 3.282,17.300 3.959 M6.768 9.284 C 6.455 9.378,6.204 9.789,6.260 10.118 C 6.301 10.360,6.406 10.486,6.879 10.863 L 7.328 11.220 5.054 11.240 C 2.544 11.262,2.653 11.251,2.426 11.520 C 2.329 11.635,2.240 11.865,2.240 12.000 C 2.240 12.135,2.329 12.365,2.426 12.480 C 2.653 12.749,2.544 12.738,5.053 12.760 L 7.326 12.780 6.864 13.150 C 6.610 13.353,6.371 13.578,6.333 13.650 C 6.292 13.727,6.264 13.871,6.263 14.004 C 6.260 14.508,6.753 14.872,7.221 14.711 C 7.412 14.645,9.985 12.604,10.118 12.412 C 10.289 12.166,10.276 11.776,10.088 11.553 C 9.983 11.428,7.480 9.406,7.333 9.327 C 7.216 9.264,6.911 9.241,6.768 9.284 M14.820 11.258 C 14.798 11.266,14.731 11.284,14.671 11.297 C 14.524 11.329,14.281 11.548,14.214 11.708 C 13.962 12.312,14.544 12.903,15.209 12.718 C 15.594 12.611,15.827 12.198,15.722 11.808 C 15.671 11.619,15.520 11.422,15.361 11.341 C 15.252 11.284,14.894 11.229,14.820 11.258 " stroke="none" fill-rule="evenodd" fill="currentColor"/></svg>