<svg fill="none" xmlns="http://www.w3.org/2000/svg" viewBox="0 0 24 24"><path d="M9.500 1.857 C 9.346 1.887,8.077 2.194,6.680 2.539 C 3.692 3.278,3.604 3.310,3.084 3.834 C 2.735 4.186,2.524 4.524,2.369 4.980 L 2.260 5.300 2.260 12.000 L 2.260 18.700 2.369 19.021 C 2.676 19.927,3.371 20.607,4.240 20.852 C 4.361 20.887,5.603 21.198,7.000 21.545 L 9.540 22.176 10.020 22.175 C 10.429 22.174,10.547 22.158,10.820 22.068 C 11.401 21.877,11.912 21.504,12.234 21.037 L 12.420 20.767 14.460 20.753 L 16.500 20.738 16.820 20.630 C 17.263 20.480,17.603 20.269,17.936 19.936 C 18.270 19.602,18.481 19.262,18.629 18.820 C 18.734 18.505,18.736 18.479,18.751 17.237 C 18.768 15.877,18.753 15.733,18.574 15.520 C 18.425 15.343,18.253 15.267,18.000 15.267 C 17.763 15.267,17.591 15.336,17.455 15.486 C 17.263 15.698,17.261 15.714,17.240 17.060 C 17.221 18.299,17.217 18.346,17.127 18.529 C 16.995 18.797,16.711 19.063,16.453 19.159 C 16.249 19.236,16.144 19.240,14.498 19.240 L 12.760 19.240 12.760 11.999 L 12.760 4.758 14.550 4.769 C 16.329 4.780,16.341 4.781,16.528 4.873 C 16.767 4.991,17.009 5.233,17.127 5.472 C 17.217 5.654,17.221 5.704,17.240 6.940 C 17.257 8.049,17.269 8.237,17.329 8.345 C 17.586 8.816,18.233 8.886,18.574 8.480 C 18.753 8.267,18.768 8.123,18.751 6.763 C 18.736 5.521,18.734 5.495,18.629 5.180 C 18.481 4.738,18.270 4.398,17.935 4.064 C 17.463 3.593,16.974 3.355,16.329 3.281 C 16.137 3.259,15.179 3.240,14.200 3.239 L 12.420 3.237 12.230 2.959 C 11.900 2.477,11.289 2.055,10.700 1.901 C 10.355 1.811,9.831 1.792,9.500 1.857 M10.553 3.443 C 10.844 3.588,11.049 3.813,11.160 4.108 C 11.239 4.321,11.240 4.411,11.240 12.000 C 11.240 19.589,11.239 19.679,11.160 19.892 C 10.984 20.362,10.516 20.692,10.031 20.688 C 9.681 20.685,4.674 19.445,4.391 19.291 C 4.169 19.171,4.003 18.997,3.870 18.749 L 3.780 18.580 3.780 12.000 L 3.780 5.420 3.870 5.251 C 4.007 4.995,4.177 4.822,4.410 4.701 C 4.554 4.627,5.419 4.395,7.180 3.959 C 10.095 3.238,10.132 3.232,10.553 3.443 M18.768 9.284 C 18.455 9.378,18.204 9.789,18.260 10.118 C 18.301 10.360,18.406 10.486,18.879 10.863 L 19.328 11.220 17.054 11.240 C 14.544 11.262,14.653 11.251,14.426 11.520 C 14.329 11.635,14.240 11.865,14.240 12.000 C 14.240 12.135,14.329 12.365,14.426 12.480 C 14.653 12.749,14.544 12.738,17.053 12.760 L 19.326 12.780 18.864 13.150 C 18.610 13.353,18.371 13.578,18.333 13.650 C 18.292 13.727,18.264 13.871,18.263 14.004 C 18.260 14.508,18.753 14.872,19.221 14.711 C 19.412 14.645,21.985 12.604,22.118 12.412 C 22.289 12.166,22.276 11.776,22.088 11.553 C 21.983 11.428,19.480 9.406,19.333 9.327 C 19.216 9.264,18.911 9.241,18.768 9.284 M9.420 11.258 C 9.398 11.266,9.331 11.284,9.271 11.297 C 9.124 11.329,8.881 11.548,8.814 11.708 C 8.562 12.312,9.144 12.903,9.809 12.718 C 10.194 12.611,10.427 12.198,10.322 11.808 C 10.271 11.619,10.120 11.422,9.961 11.341 C 9.852 11.284,9.494 11.229,9.420 11.258 " stroke="none" fill-rule="evenodd" fill="currentColor"/></svg>