<svg xmlns="http://www.w3.org/2000/svg" viewBox="0 0 24 24"><path d="M9.5 1.857c-.154.03-1.423.337-2.82.682-2.988.739-3.076.771-3.596 1.295a2.8 2.8 0 0 0-.715 1.146l-.109.32v13.4l.109.321c.307.906 1.002 1.586 1.871 1.831.121.035 1.363.346 2.76.693l2.54.631.48-.001c.409-.001.527-.017.8-.107a2.8 2.8 0 0 0 1.414-1.031l.186-.27 2.04-.014 2.04-.015.32-.108c.443-.15.783-.361 1.116-.694.334-.334.545-.674.693-1.116.105-.315.107-.341.122-1.583.017-1.36.002-1.504-.177-1.717-.149-.177-.321-.253-.574-.253-.237 0-.409.069-.545.219-.192.212-.194.228-.215 1.574-.019 1.239-.023 1.286-.113 1.469-.132.268-.416.534-.674.63-.204.077-.309.081-1.955.081H12.76V4.758l1.79.011c1.779.011 1.791.012 1.978.104.239.118.481.36.599.599.09.182.094.232.113 1.468.017 1.109.029 1.297.089 1.405a.76.76 0 0 0 1.245.135c.179-.213.194-.357.177-1.717-.015-1.242-.017-1.268-.122-1.583a2.7 2.7 0 0 0-.694-1.116c-.472-.471-.961-.709-1.606-.783-.192-.022-1.15-.041-2.129-.042l-1.78-.002-.19-.278c-.33-.482-.941-.904-1.53-1.058a3.1 3.1 0 0 0-1.2-.044m1.053 1.586c.291.145.496.37.607.665.079.213.08.303.08 7.892s-.001 7.679-.08 7.892c-.176.47-.644.8-1.129.796-.35-.003-5.357-1.243-5.64-1.397a1.26 1.26 0 0 1-.521-.542l-.09-.169V5.42l.09-.169c.137-.256.307-.429.54-.55.144-.074 1.009-.306 2.77-.742 2.915-.721 2.952-.727 3.373-.516m8.215 5.841c-.313.094-.564.505-.508.834.041.242.146.368.619.745l.449.357-2.274.02c-2.51.022-2.401.011-2.628.28a.9.9 0 0 0-.186.48c0 .135.089.365.186.48.227.269.118.258 2.627.28l2.273.02-.462.37c-.254.203-.493.428-.531.5a.9.9 0 0 0-.07.354c-.003.504.49.868.958.707.191-.066 2.764-2.107 2.897-2.299.171-.246.158-.636-.03-.859-.105-.125-2.608-2.147-2.755-2.226-.117-.063-.422-.086-.565-.043M9.42 11.258a2 2 0 0 1-.149.039c-.147.032-.39.251-.457.411-.252.604.33 1.195.995 1.01a.75.75 0 0 0 .513-.91.8.8 0 0 0-.361-.467c-.109-.057-.467-.112-.541-.083" fill-rule="evenodd"/></svg>