<svg xmlns="http://www.w3.org/2000/svg" viewBox="0 0 24 24"><path d="M9.5 1.857c-.154.03-1.423.337-2.82.682-2.988.739-3.076.771-3.596 1.295a2.8 2.8 0 0 0-.715 1.146l-.109.32v13.4l.109.321c.253.746.751 1.325 1.428 1.661.249.123.477.183 4.923 1.285.799.198.892.212 1.32.209.383-.003.514-.021.78-.108a2.8 2.8 0 0 0 1.414-1.031l.186-.27 2.04-.014 2.04-.015.32-.108c.443-.15.783-.361 1.116-.694.334-.334.545-.674.693-1.116.105-.315.107-.341.122-1.583.017-1.36.002-1.504-.177-1.717-.149-.177-.321-.253-.574-.253-.237 0-.409.069-.545.219-.192.212-.194.228-.215 1.574-.019 1.239-.023 1.286-.113 1.469-.132.268-.416.534-.674.63-.204.077-.309.081-1.955.081H12.76V4.758l1.79.011c1.779.011 1.791.012 1.978.104.239.118.481.36.599.599.09.182.094.232.113 1.468.017 1.109.029 1.297.089 1.405a.76.76 0 0 0 1.245.135c.179-.213.194-.357.177-1.717-.015-1.242-.017-1.268-.122-1.583a2.7 2.7 0 0 0-.694-1.116c-.472-.471-.961-.709-1.606-.783-.192-.022-1.15-.041-2.129-.042l-1.78-.002-.19-.278c-.574-.837-1.721-1.3-2.73-1.102m1.069 1.594c.266.156.539.478.611.72.053.178.06 1.145.06 7.829 0 8.564.026 7.869-.305 8.237-.271.301-.483.412-.829.433-.264.015-.488-.033-2.905-.631-1.441-.356-2.688-.682-2.772-.725a1.43 1.43 0 0 1-.563-.588l-.086-.186V5.46l.086-.186c.097-.211.346-.476.542-.579.073-.039 1.302-.363 2.732-.721 2.435-.61 2.621-.65 2.924-.64.266.009.356.03.505.117m8.199 5.833c-.313.094-.564.505-.508.834.041.242.146.368.619.745l.449.357-2.274.02c-2.51.022-2.401.011-2.628.28a.9.9 0 0 0-.186.48c0 .135.089.365.186.48.227.269.118.258 2.627.28l2.273.02-.462.37c-.254.203-.493.428-.531.5a.9.9 0 0 0-.07.354c-.003.504.49.868.958.707.191-.066 2.764-2.107 2.897-2.299.171-.246.158-.636-.03-.859-.105-.125-2.608-2.147-2.755-2.226-.117-.063-.422-.086-.565-.043M9.3 11.274c-.469.153-.686.676-.453 1.09.238.424.858.526 1.24.204.432-.364.316-1.044-.216-1.266a1 1 0 0 0-.571-.028"/></svg>