<svg xmlns="http://www.w3.org/2000/svg" viewBox="0 0 24 24"><path d="M14.14 1.826c-.771.124-1.493.572-1.92 1.192l-.149.216-2.005.016c-2.246.018-2.215.015-2.815.315a2.8 2.8 0 0 0-1.36 1.57c-.108.323-.109.333-.122 1.625-.008.715-.003 1.359.01 1.431.05.262.43.566.712.568.228.002.554-.199.682-.419.032-.054.053-.493.067-1.36l.02-1.28.111-.226c.122-.249.332-.461.597-.602.171-.091.182-.092 1.982-.104l1.81-.011v14.486l-1.81-.011-1.81-.012-.203-.107a1.43 1.43 0 0 1-.591-.628c-.08-.173-.086-.269-.106-1.465-.013-.866-.035-1.306-.067-1.36a1.2 1.2 0 0 0-.371-.341c-.136-.07-.479-.063-.627.013-.174.09-.367.323-.396.477-.013.072-.018.716-.01 1.431.013 1.292.014 1.302.122 1.625.281.838.951 1.483 1.849 1.78.275.091.313.093 2.306.106l2.026.014.111.167c.187.283.581.665.876.848.553.343 1.292.495 1.868.382a206 206 0 0 0 2.888-.701c3.08-.762 3.025-.742 3.61-1.32.306-.302.391-.416.526-.701.311-.655.289-.094.289-7.44 0-7.34.021-6.788-.286-7.432a2.83 2.83 0 0 0-1.397-1.312c-.131-.054-1.44-.394-2.908-.757-2.208-.547-2.731-.663-3.029-.676a4 4 0 0 0-.48.003M6.768 9.284c-.188.056-.435.319-.489.52-.103.382.02.598.608 1.065l.441.351-2.277.02-2.277.02-.169.112c-.389.258-.471.761-.179 1.108.227.27.118.258 2.628.28l2.274.02-.441.351c-.525.417-.626.558-.626.873 0 .491.457.846.928.719.112-.03.521-.332 1.395-1.028 1.398-1.114 1.523-1.224 1.601-1.404a.75.75 0 0 0-.118-.767c-.1-.11-2.623-2.138-2.734-2.197-.117-.063-.422-.086-.565-.043m8.637 2.095c.223.147.328.348.328.628 0 .196-.019.264-.117.402a.73.73 0 0 1-.567.337c-.763.091-1.199-.8-.634-1.296a.8.8 0 0 1 .256-.153c.06-.013.127-.031.149-.039.1-.039.453.035.585.121"/></svg>