<svg xmlns="http://www.w3.org/2000/svg" viewBox="0 0 24 24"><path d="M9.58 1.838c-.11.019-1.379.325-2.82.682-2.841.702-3.01.757-3.49 1.138-.42.334-.773.876-.939 1.442-.066.224-.071.673-.081 6.76-.012 7.012-.018 6.8.19 7.352.267.709.944 1.354 1.682 1.601.1.033 1.36.354 2.8.712l2.618.651.48-.001c.41-.001.527-.017.8-.107.594-.197 1.126-.589 1.44-1.062l.16-.241 2.02-.015c1.788-.013 2.048-.023 2.26-.086a2.84 2.84 0 0 0 1.967-1.984c.064-.228.073-.422.073-1.58 0-1.496.003-1.482-.331-1.716-.14-.099-.205-.117-.409-.117s-.269.018-.409.117c-.329.231-.328.229-.351 1.676-.02 1.258-.022 1.283-.118 1.479a1.3 1.3 0 0 1-.665.619c-.21.078-.301.082-1.959.082H12.76V4.758l1.79.011 1.79.011.197.097c.251.123.463.335.586.586.095.193.097.223.117 1.477.017 1.109.029 1.297.089 1.405a.76.76 0 0 0 1.245.135c.178-.212.193-.356.175-1.695-.013-1.03-.028-1.286-.086-1.485a2.8 2.8 0 0 0-1.461-1.762c-.539-.266-.567-.269-2.782-.288l-2-.018-.186-.27a2.72 2.72 0 0 0-2.091-1.141 3.5 3.5 0 0 0-.563.017m9.188 7.446c-.188.056-.435.319-.489.52-.103.382.02.598.608 1.065l.441.351-2.277.02-2.277.02-.169.112c-.389.258-.471.761-.179 1.108.227.27.118.258 2.628.28l2.274.02-.441.351c-.525.417-.626.558-.626.873 0 .491.457.846.928.719.112-.03.521-.332 1.395-1.028 1.398-1.114 1.523-1.224 1.601-1.404a.75.75 0 0 0-.118-.767c-.1-.11-2.623-2.138-2.734-2.197-.117-.063-.422-.086-.565-.043m-8.763 2.095c.223.147.328.348.328.628 0 .196-.019.264-.117.402a.73.73 0 0 1-.567.337c-.763.091-1.199-.8-.634-1.296a.8.8 0 0 1 .256-.153c.06-.013.127-.031.149-.039.1-.039.453.035.585.121"/></svg>