<svg xmlns="http://www.w3.org/2000/svg" viewBox="0 0 24 24"><path d="M14.14 1.829c-.741.102-1.514.583-1.918 1.191l-.142.214-2.03.017c-2.276.019-2.234.014-2.83.321-.426.22-.938.724-1.152 1.136-.28.537-.308.735-.308 2.176 0 .801.016 1.312.043 1.383.092.245.436.49.688.492.228.002.554-.199.682-.419.032-.054.055-.495.071-1.34.015-.8.041-1.314.072-1.409.103-.323.498-.696.837-.79.09-.025.823-.041 1.877-.041h1.73v14.483l-1.81-.011-1.81-.012-.203-.107a1.5 1.5 0 0 1-.551-.541c-.113-.22-.146-.59-.146-1.657 0-.659-.016-1.113-.043-1.182a.75.75 0 0 0-.697-.464.75.75 0 0 0-.697.464c-.027.071-.043.582-.043 1.383 0 1.438.029 1.642.303 2.165.269.511.853 1.049 1.365 1.257.508.207.699.222 2.75.222h1.901l.107.17c.173.275.571.663.873.85.546.34 1.298.493 1.868.382.139-.027 1.437-.342 2.885-.701 3.093-.765 3.042-.746 3.61-1.317.413-.415.612-.751.739-1.248.077-.301.079-.471.079-6.896s-.002-6.595-.079-6.896c-.127-.498-.326-.833-.739-1.246-.572-.571-.523-.554-3.544-1.302-3.086-.765-3.245-.796-3.738-.727m3.155 2.133c1.433.354 2.684.682 2.78.73.236.117.503.424.592.679.069.199.073.523.073 6.629s-.004 6.43-.073 6.629c-.089.255-.368.575-.598.686-.093.045-1.339.372-2.769.726-2.342.579-2.628.642-2.88.63-.347-.018-.536-.105-.804-.371a1.1 1.1 0 0 1-.28-.421c-.074-.212-.076-.453-.076-7.879 0-7.279.004-7.67.072-7.867.158-.453.654-.813 1.119-.813.174 0 .95.175 2.844.642M6.768 9.284c-.313.094-.564.505-.508.834.041.242.146.368.619.745l.449.357-2.274.02c-2.51.022-2.401.011-2.628.28a.9.9 0 0 0-.186.48c0 .135.089.365.186.48.227.269.118.258 2.627.28l2.273.02-.462.37c-.254.203-.493.428-.531.5a.9.9 0 0 0-.07.354c-.003.504.49.868.958.707.191-.066 2.764-2.107 2.897-2.299.171-.246.158-.636-.03-.859-.105-.125-2.608-2.147-2.755-2.226-.117-.063-.422-.086-.565-.043m7.932 1.99c-.469.153-.686.676-.453 1.09.238.424.858.526 1.24.204.432-.364.316-1.044-.216-1.266a1 1 0 0 0-.571-.028"/></svg>