<svg xmlns="http://www.w3.org/2000/svg" viewBox="0 0 24 24"><path d="M11.72 3.264c-.787.08-1.278.214-1.867.509a4.9 4.9 0 0 0-2.158 2.221l-.141.296-.287-.025c-.388-.035-1.045.033-1.507.156s-1.241.5-1.607.778c-.382.29-.938.897-1.184 1.291a4.76 4.76 0 0 0 0 5.023c.428.693 1.388 1.538 2.055 1.809l.216.087v1.826c0 1.208.015 1.879.045 1.984.056.204.292.44.496.496.225.063 12.213.063 12.438 0a.82.82 0 0 0 .496-.496c.03-.105.045-.776.045-1.984v-1.826l.216-.087c.667-.271 1.627-1.116 2.055-1.809a4.8 4.8 0 0 0 .698-2.083c.104-.978-.155-2.07-.698-2.94-.246-.394-.802-1.001-1.184-1.291-.366-.278-1.145-.655-1.607-.778-.461-.122-1.119-.191-1.505-.156l-.284.025-.189-.375a4.82 4.82 0 0 0-2.768-2.418c-.486-.163-1.345-.276-1.774-.233m-4.329 8.103c.098.06.392.468 1.052 1.458.504.756.917 1.383.917 1.395 0 .011-.396.02-.88.02H7.6l-.667-1-.666-1.001v-.234a.733.733 0 0 1 1.124-.638m5.014.014c.08.051.188.162.24.246.094.151.095.169.108 1.383l.012 1.23h-1.53l.012-1.23c.013-1.206.015-1.233.106-1.379.233-.375.691-.484 1.052-.25m5-.001c.222.145.328.347.328.625v.234l-.666 1.001-.667 1h-.88c-.484 0-.88-.009-.88-.02 0-.073 1.851-2.778 1.942-2.837a.75.75 0 0 1 .823-.003M17.24 17v1.24H6.76v-2.48h10.48z"/></svg>