<svg fill="none" xmlns="http://www.w3.org/2000/svg" viewBox="0 0 24 24"><path d="M11.540 3.279 C 10.376 3.388,9.383 3.880,8.529 4.773 C 8.162 5.158,7.901 5.536,7.692 5.989 L 7.553 6.290 7.286 6.268 C 6.929 6.239,6.218 6.303,5.844 6.399 C 4.173 6.828,2.860 8.123,2.417 9.779 C 2.068 11.082,2.291 12.460,3.036 13.600 C 3.476 14.275,4.216 14.928,4.915 15.260 L 5.240 15.414 5.240 17.237 C 5.240 18.444,5.255 19.114,5.285 19.219 C 5.341 19.423,5.577 19.659,5.781 19.715 C 6.006 19.778,17.994 19.778,18.219 19.715 C 18.423 19.659,18.659 19.423,18.715 19.219 C 18.745 19.114,18.760 18.444,18.760 17.237 L 18.760 15.414 19.085 15.260 C 19.784 14.928,20.524 14.275,20.964 13.600 C 22.178 11.740,21.956 9.326,20.425 7.729 C 19.791 7.068,19.034 6.624,18.156 6.399 C 17.782 6.303,17.071 6.239,16.714 6.268 L 16.447 6.290 16.308 5.989 C 15.799 4.887,14.741 3.928,13.591 3.525 C 12.978 3.310,12.203 3.217,11.540 3.279 M12.820 4.858 C 13.331 4.996,13.845 5.290,14.254 5.677 C 14.678 6.080,14.966 6.565,15.123 7.143 C 15.308 7.825,15.578 7.979,16.340 7.833 C 17.465 7.619,18.455 7.905,19.254 8.676 C 19.575 8.986,19.837 9.365,19.995 9.747 C 20.185 10.208,20.220 10.414,20.218 11.040 C 20.216 11.587,20.208 11.642,20.086 12.000 C 19.904 12.532,19.686 12.881,19.284 13.284 C 18.770 13.797,18.214 14.092,17.560 14.197 C 17.300 14.239,16.440 14.257,16.440 14.221 C 16.440 14.210,16.727 13.769,17.078 13.242 C 17.465 12.660,17.726 12.227,17.742 12.141 C 17.868 11.473,17.073 10.988,16.539 11.408 C 16.481 11.454,16.020 12.110,15.516 12.866 L 14.599 14.240 13.680 14.240 L 12.760 14.240 12.759 13.050 C 12.758 11.979,12.751 11.844,12.684 11.700 C 12.595 11.506,12.468 11.384,12.271 11.302 C 11.903 11.148,11.491 11.320,11.316 11.700 C 11.249 11.844,11.242 11.979,11.241 13.050 L 11.240 14.240 10.320 14.240 L 9.401 14.240 8.484 12.866 C 7.980 12.110,7.519 11.454,7.461 11.408 C 6.927 10.988,6.132 11.473,6.258 12.141 C 6.274 12.227,6.535 12.660,6.922 13.242 C 7.273 13.769,7.560 14.210,7.560 14.221 C 7.560 14.257,6.700 14.239,6.440 14.197 C 5.825 14.098,5.259 13.810,4.774 13.350 C 4.311 12.909,3.993 12.370,3.836 11.760 C 3.761 11.467,3.761 10.533,3.836 10.240 C 3.989 9.644,4.304 9.103,4.746 8.676 C 5.546 7.904,6.536 7.618,7.663 7.835 C 8.070 7.913,8.122 7.915,8.305 7.861 C 8.616 7.768,8.752 7.592,8.886 7.108 C 9.204 5.962,10.162 5.075,11.360 4.818 C 11.692 4.747,12.491 4.769,12.820 4.858 M17.240 17.000 L 17.240 18.240 12.000 18.240 L 6.760 18.240 6.760 17.000 L 6.760 15.760 12.000 15.760 L 17.240 15.760 17.240 17.000 " stroke="none" fill-rule="evenodd"/></svg>