<svg fill="none" xmlns="http://www.w3.org/2000/svg" viewBox="0 0 24 24"><path d="M11.540 3.279 C 10.376 3.388,9.383 3.880,8.529 4.773 C 8.162 5.158,7.901 5.536,7.692 5.989 L 7.553 6.290 7.286 6.268 C 6.929 6.239,6.218 6.303,5.844 6.399 C 4.173 6.828,2.860 8.123,2.417 9.779 C 2.068 11.082,2.291 12.460,3.036 13.600 C 3.476 14.275,4.216 14.928,4.915 15.260 L 5.240 15.414 5.240 17.237 C 5.240 18.444,5.255 19.114,5.285 19.219 C 5.341 19.423,5.577 19.659,5.781 19.715 C 6.006 19.778,17.994 19.778,18.219 19.715 C 18.423 19.659,18.659 19.423,18.715 19.219 C 18.745 19.114,18.760 18.444,18.760 17.237 L 18.760 15.414 19.085 15.260 C 19.784 14.928,20.524 14.275,20.964 13.600 C 22.178 11.740,21.956 9.326,20.425 7.729 C 19.791 7.068,19.034 6.624,18.156 6.399 C 17.782 6.303,17.071 6.239,16.714 6.268 L 16.447 6.290 16.308 5.989 C 15.799 4.887,14.741 3.928,13.591 3.525 C 12.978 3.310,12.203 3.217,11.540 3.279 M12.560 4.803 C 13.214 4.908,13.770 5.203,14.284 5.716 C 14.705 6.138,14.907 6.473,15.112 7.091 C 15.275 7.581,15.340 7.687,15.540 7.790 C 15.767 7.908,15.909 7.916,16.312 7.832 C 16.797 7.731,17.463 7.751,17.914 7.879 C 18.950 8.173,19.827 9.056,20.129 10.108 C 20.258 10.558,20.258 11.442,20.129 11.892 C 19.962 12.474,19.671 12.934,19.188 13.384 C 18.529 13.996,17.875 14.240,16.896 14.240 C 16.645 14.240,16.440 14.231,16.440 14.221 C 16.440 14.210,16.726 13.771,17.076 13.245 C 17.426 12.719,17.724 12.233,17.739 12.164 C 17.896 11.452,16.942 10.949,16.455 11.486 C 16.408 11.538,15.972 12.178,15.485 12.910 L 14.599 14.240 13.680 14.240 L 12.760 14.240 12.760 13.090 C 12.760 12.422,12.742 11.878,12.718 11.791 C 12.628 11.467,12.354 11.267,12.000 11.267 C 11.646 11.267,11.372 11.467,11.282 11.791 C 11.258 11.878,11.240 12.422,11.240 13.090 L 11.240 14.240 10.320 14.240 L 9.401 14.240 8.515 12.910 C 8.028 12.178,7.592 11.538,7.545 11.486 C 7.150 11.050,6.359 11.293,6.260 11.880 C 6.245 11.967,6.246 12.095,6.261 12.164 C 6.276 12.233,6.574 12.719,6.924 13.245 C 7.274 13.771,7.560 14.210,7.560 14.221 C 7.560 14.231,7.355 14.240,7.104 14.240 C 6.125 14.240,5.471 13.996,4.812 13.384 C 4.329 12.934,4.038 12.474,3.871 11.892 C 3.742 11.442,3.742 10.558,3.871 10.108 C 4.117 9.251,4.767 8.477,5.586 8.066 C 6.150 7.783,7.001 7.688,7.682 7.833 C 7.989 7.898,8.100 7.906,8.254 7.873 C 8.530 7.814,8.733 7.608,8.819 7.300 C 8.855 7.168,8.937 6.929,9.000 6.769 C 9.389 5.787,10.383 4.975,11.405 4.805 C 11.710 4.754,12.255 4.753,12.560 4.803 M17.240 17.000 L 17.240 18.240 12.000 18.240 L 6.760 18.240 6.760 17.000 L 6.760 15.760 12.000 15.760 L 17.240 15.760 17.240 17.000 " stroke="none" fill-rule="evenodd" fill="currentColor"/></svg>