<svg xmlns="http://www.w3.org/2000/svg" viewBox="0 0 24 24"><path d="M11.54 3.279c-1.164.109-2.157.601-3.011 1.494a4.3 4.3 0 0 0-.837 1.216l-.139.301-.267-.022c-.357-.029-1.068.035-1.442.131a4.77 4.77 0 0 0-3.427 3.38 4.72 4.72 0 0 0 .619 3.821c.44.675 1.18 1.328 1.879 1.66l.325.154v1.823c0 1.207.015 1.877.045 1.982.056.204.292.44.496.496.225.063 12.213.063 12.438 0a.82.82 0 0 0 .496-.496c.03-.105.045-.775.045-1.982v-1.823l.325-.154c.699-.332 1.439-.985 1.879-1.66a4.72 4.72 0 0 0-.539-5.871 4.7 4.7 0 0 0-2.269-1.33c-.374-.096-1.085-.16-1.442-.131l-.267.022-.139-.301c-.509-1.102-1.567-2.061-2.717-2.464a5.1 5.1 0 0 0-2.051-.246m-4.18 8.062c.159.082.222.168 1.155 1.569l.886 1.33-.911-.001-.91-.001-.629-.949c-.346-.522-.649-1.008-.674-1.08-.057-.163-.02-.43.082-.598.192-.315.665-.443 1.001-.27m5.005.002a.8.8 0 0 1 .353.448c.024.087.042.631.042 1.299v1.15h-1.52v-1.15c0-.668.018-1.212.042-1.299.045-.164.2-.368.332-.439a.87.87 0 0 1 .751-.009m5.013.03c.29.159.447.54.345.836-.025.072-.328.558-.674 1.08l-.629.949-.911.001-.91.001.93-1.388c.512-.764.978-1.423 1.036-1.464.227-.164.531-.169.813-.015M17.24 17v1.24H6.76v-2.48h10.48z"/></svg>