<svg xmlns="http://www.w3.org/2000/svg" viewBox="0 0 24 24"><path d="M11.54 3.279c-1.164.109-2.157.601-3.011 1.494a4.3 4.3 0 0 0-.837 1.216l-.139.301-.267-.022c-.357-.029-1.068.035-1.442.131a4.77 4.77 0 0 0-3.427 3.38 4.72 4.72 0 0 0 .619 3.821c.44.675 1.18 1.328 1.879 1.66l.325.154v1.823c0 1.207.015 1.877.045 1.982.056.204.292.44.496.496.225.063 12.213.063 12.438 0a.82.82 0 0 0 .496-.496c.03-.105.045-.775.045-1.982v-1.823l.325-.154c.699-.332 1.439-.985 1.879-1.66a4.72 4.72 0 0 0-.539-5.871 4.7 4.7 0 0 0-2.269-1.33c-.374-.096-1.085-.16-1.442-.131l-.267.022-.139-.301c-.509-1.102-1.567-2.061-2.717-2.464a5.1 5.1 0 0 0-2.051-.246m1.02 1.524c.654.105 1.21.4 1.724.913.421.422.623.757.828 1.375.163.49.228.596.428.699.227.118.369.126.772.042.485-.101 1.151-.081 1.602.047 1.036.294 1.913 1.177 2.215 2.229.129.45.129 1.334 0 1.784-.167.582-.458 1.042-.941 1.492-.659.612-1.313.856-2.292.856-.251 0-.456-.009-.456-.019s.286-.45.636-.976.648-1.012.663-1.081c.157-.712-.797-1.215-1.284-.678-.047.052-.483.692-.97 1.424l-.886 1.33H12.76v-1.15c0-.668-.018-1.212-.042-1.299-.09-.324-.364-.524-.718-.524s-.628.2-.718.524c-.024.087-.042.631-.042 1.299v1.15H9.401l-.886-1.33a45 45 0 0 0-.97-1.424c-.395-.436-1.186-.193-1.285.394a.9.9 0 0 0 .001.284c.015.069.313.555.663 1.081s.636.965.636.976c0 .01-.205.019-.456.019-.979 0-1.633-.244-2.292-.856-.483-.45-.774-.91-.941-1.492-.129-.45-.129-1.334 0-1.784.246-.857.896-1.631 1.715-2.042.564-.283 1.415-.378 2.096-.233.307.065.418.073.572.04.276-.059.479-.265.565-.573.036-.132.118-.371.181-.531.389-.982 1.383-1.794 2.405-1.964.305-.051.85-.052 1.155-.002M17.24 17v1.24H6.76v-2.48h10.48z" fill-rule="evenodd"/></svg>