<svg xmlns="http://www.w3.org/2000/svg" viewBox="0 0 24 24"><path d="M11.54 3.279c-1.164.109-2.157.601-3.011 1.494a4.3 4.3 0 0 0-.837 1.216l-.139.301-.267-.022c-.357-.029-1.068.035-1.442.131a4.77 4.77 0 0 0-3.427 3.38 4.72 4.72 0 0 0 .619 3.821c.44.675 1.18 1.328 1.879 1.66l.325.154v1.823c0 1.207.015 1.877.045 1.982.056.204.292.44.496.496.225.063 12.213.063 12.438 0a.82.82 0 0 0 .496-.496c.03-.105.045-.775.045-1.982v-1.823l.325-.154c.699-.332 1.439-.985 1.879-1.66a4.72 4.72 0 0 0-.539-5.871 4.7 4.7 0 0 0-2.269-1.33c-.374-.096-1.085-.16-1.442-.131l-.267.022-.139-.301c-.509-1.102-1.567-2.061-2.717-2.464a5.1 5.1 0 0 0-2.051-.246m1.28 1.579a3.46 3.46 0 0 1 1.434.819c.424.403.712.888.869 1.466.185.682.455.836 1.217.69 1.125-.214 2.115.072 2.914.843.321.31.583.689.741 1.071.19.461.225.667.223 1.293-.002.547-.01.602-.132.96-.182.532-.4.881-.802 1.284-.514.513-1.07.808-1.724.913-.26.042-1.12.06-1.12.024 0-.011.287-.452.638-.979.387-.582.648-1.015.664-1.101.126-.668-.669-1.153-1.203-.733-.058.046-.519.702-1.023 1.458l-.917 1.374H12.76l-.001-1.19c-.001-1.071-.008-1.206-.075-1.35a.73.73 0 0 0-.413-.398c-.368-.154-.78.018-.955.398-.067.144-.074.279-.075 1.35l-.001 1.19H9.401l-.917-1.374c-.504-.756-.965-1.412-1.023-1.458-.534-.42-1.329.065-1.203.733.016.086.277.519.664 1.101.351.527.638.968.638.979 0 .036-.86.018-1.12-.024a3.13 3.13 0 0 1-1.666-.847 3.3 3.3 0 0 1-.938-1.59c-.075-.293-.075-1.227 0-1.52a3.3 3.3 0 0 1 .91-1.564c.8-.772 1.79-1.058 2.917-.841.407.078.459.08.642.026.311-.093.447-.269.581-.753.318-1.146 1.276-2.033 2.474-2.29.332-.071 1.131-.049 1.46.04M17.24 17v1.24H6.76v-2.48h10.48z"/></svg>