<svg xmlns="http://www.w3.org/2000/svg" viewBox="0 0 24 24"><path d="M2.811 5.279a.88.88 0 0 0-.481.373c-.066.12-.071.509-.081 6.262-.007 4.394.003 6.18.034 6.298.057.21.29.446.498.503.226.063 18.212.063 18.438 0 .208-.057.441-.293.498-.503.031-.118.041-1.904.034-6.298-.011-6.1-.011-6.135-.093-6.273a1 1 0 0 0-.253-.26l-.172-.121-9.146-.006c-5.031-.003-9.205.008-9.276.025m8.009 2.556a.61.61 0 0 1 .358.375.8.8 0 0 1-.13.804c-.111.126-.373.224-.598.225l-.21.001v.989l.241.025c.275.029.413.09.566.252a.67.67 0 0 1 .193.494c0 .444-.356.757-.861.759l-.24.001-.072.202c-.198.557-.733 1.177-1.247 1.444-.483.252-.767.32-1.43.344-.665.024-.65.014-.493.324.116.229.366.464.618.581.173.08.265.086 1.465.105.867.014 1.306.035 1.36.067.106.061.278.248.341.371.07.136.063.479-.013.627-.09.174-.323.367-.477.396-.072.013-.716.018-1.431.01-1.292-.013-1.302-.014-1.625-.122a2.8 2.8 0 0 1-1.57-1.36c-.238-.475-.297-.748-.301-1.409-.004-.523.002-.57.091-.713.052-.084.168-.201.257-.26l.162-.107 1.043-.021c1.031-.02 1.045-.021 1.243-.126.11-.058.253-.161.317-.229l.118-.124-1.558-.001c-1.43-.001-1.57-.007-1.717-.075-.486-.225-.619-.807-.267-1.178.238-.252.183-.245 2.077-.258l1.73-.012V9.24H7.059c-1.8 0-1.864-.006-2.073-.192-.203-.179-.278-.565-.164-.838a.61.61 0 0 1 .358-.375c.15-.069.324-.073 2.82-.073s2.67.004 2.82.073m8 0a.61.61 0 0 1 .358.375.8.8 0 0 1-.13.804.8.8 0 0 1-.228.151c-.15.068-.317.073-2.567.074q-2.408.002-2.52-.042a.75.75 0 0 1-.464-.697c0-.3.189-.591.451-.695.062-.025 1.014-.041 2.52-.042 2.266-.001 2.43.003 2.58.072m0 3.491c.488.27.569.869.167 1.223a1 1 0 0 1-.296.171c-.105.031-.882.041-2.531.032-2.315-.012-2.384-.014-2.519-.094a1 1 0 0 1-.257-.249c-.286-.406-.055-1.013.431-1.132.069-.017 1.196-.027 2.505-.024 2.135.006 2.392.014 2.5.073m-2.03 3.496a.61.61 0 0 1 .375.358c.129.282.06.681-.151.868-.204.182-.296.192-1.77.192-.891 0-1.44-.015-1.511-.043a.75.75 0 0 1-.464-.697c0-.3.189-.591.451-.695.059-.024.676-.041 1.511-.042 1.184-.003 1.435.007 1.559.059"/></svg>