<svg xmlns="http://www.w3.org/2000/svg" viewBox="0 0 24 24"><path d="M2.82 5.277a.73.73 0 0 0-.538.514c-.06.216-.057 12.212.003 12.428.056.204.292.44.496.496.226.063 18.212.063 18.438 0a.82.82 0 0 0 .496-.496c.06-.216.063-12.212.003-12.428a.83.83 0 0 0-.373-.462c-.117-.065-.715-.069-9.265-.075-5.027-.003-9.194.007-9.26.023M20.24 12v5.24H3.76V6.76h16.48zM5.152 7.842a1 1 0 0 0-.26.225c-.099.13-.112.181-.112.436 0 .263.011.303.121.439.248.307.187.298 2.128.298H8.76v.996l-1.73.012c-1.523.011-1.744.02-1.85.078-.582.323-.56 1.081.04 1.358.147.068.287.074 1.717.075l1.558.001-.118.124a1.5 1.5 0 0 1-.317.229c-.198.104-.213.106-1.24.127-1.14.024-1.186.033-1.394.28-.143.17-.186.356-.186.812 0 .936.291 1.624.939 2.219.318.291.712.504 1.125.61.276.071.446.079 1.58.079.801 0 1.312-.016 1.383-.043.245-.092.49-.436.492-.688.002-.228-.199-.554-.419-.682-.054-.032-.493-.053-1.36-.067-1.193-.019-1.292-.026-1.462-.104a1.36 1.36 0 0 1-.601-.553c-.194-.339-.19-.343.345-.343 1.015 0 1.678-.273 2.294-.945.223-.244.511-.729.573-.965.021-.08.049-.09.257-.091.498-.002.854-.318.854-.759a.67.67 0 0 0-.193-.494c-.153-.162-.291-.223-.566-.252l-.241-.025V9.24h.222c.456 0 .778-.306.778-.74a.72.72 0 0 0-.408-.664c-.142-.072-.276-.076-2.84-.074-2.591.001-2.698.004-2.84.08m8.548-.025c-.248.111-.458.425-.458.683s.242.604.491.697q.113.043 2.531.043c2.295 0 2.427-.004 2.568-.076a.72.72 0 0 0 .408-.664.72.72 0 0 0-.408-.664c-.141-.072-.272-.076-2.58-.074-1.948.001-2.456.012-2.552.055m.105 3.462c-.392.095-.633.52-.524.925.059.218.288.453.5.511.108.03.913.044 2.499.044 2.193-.001 2.35-.005 2.5-.075.486-.225.619-.807.267-1.178-.244-.258-.112-.245-2.727-.253-1.309-.003-2.441.008-2.515.026m-.105 3.538c-.248.111-.458.425-.458.683s.242.604.491.697c.071.028.626.043 1.531.043 1.314 0 1.43-.006 1.568-.076a.68.68 0 0 0 .343-.352c.128-.253.049-.673-.161-.857-.219-.192-.244-.195-1.762-.193-1.11.001-1.459.013-1.552.055" fill-rule="evenodd"/></svg>