<svg xmlns="http://www.w3.org/2000/svg" viewBox="0 0 24 24"><path d="M14.46 3.224a6 6 0 0 0-2.748.979c-2.316 1.553-4.347 4.75-4.917 7.74-.122.642-.133 1.755-.021 2.233l.074.315-.65.651-.649.65-.205-.166a2.6 2.6 0 0 0-.464-.286c-.245-.113-.289-.12-.76-.12-.492 0-.505.002-.8.144-.344.165-.657.43-.836.709a2 2 0 0 0 .031 2.167c.252.365.539.564 1.26.869l.643.273.273.643c.195.46.326.709.461.876a1.91 1.91 0 0 0 1.965.664c.522-.131.892-.39 1.179-.821.238-.359.315-.657.295-1.144-.02-.484-.105-.745-.342-1.056l-.189-.25c-.03-.041.115-.209.605-.699l.645-.644.275.074c.222.06.421.074 1.035.074.825 0 1.191-.052 2.12-.304 1.007-.274 2.431-.904 3.397-1.504.768-.476.878-.656.758-1.236a3 3 0 0 1-.047-.773c.015-.4.032-.49.123-.667.297-.578 1.09-.814 1.989-.593.559.138.866-.137 1.257-1.128.486-1.235.499-2.452.04-3.68-.709-1.892-2.65-3.576-4.51-3.912-.346-.062-1.02-.103-1.287-.078m1.052 1.559c1.61.33 3.268 2.033 3.526 3.62a3.8 3.8 0 0 1-.159 1.781l-.082.246-.569.021c-.672.024-.912.081-1.428.338a2.3 2.3 0 0 0-.684.49c-.34.337-.472.54-.615.95-.14.401-.188.763-.175 1.307l.012.477-.159.1c-.902.572-2.387 1.163-3.499 1.394-.602.126-1.497.153-1.695.052-.073-.038-.196-.195-.343-.439-.294-.488-.461-.656-.933-.938-.212-.126-.408-.256-.434-.288-.069-.083-.101-.583-.069-1.063.083-1.201.585-2.652 1.417-4.095 1.249-2.165 2.981-3.673 4.557-3.969.323-.061.995-.053 1.332.016M8.16 15.64c.158.158.117.219-.738 1.08-.942.949-1.021 1.068-1.021 1.54 0 .362.112.608.435.956.337.362.365.549.12.794-.108.108-.139.118-.318.101-.109-.011-.233-.05-.275-.089s-.216-.405-.385-.815c-.17-.411-.344-.797-.387-.858-.094-.135-.257-.219-1.106-.571-.721-.299-.805-.369-.805-.671 0-.259.285-.475.543-.41.056.014.219.135.362.268s.36.288.482.343c.193.088.262.099.527.084.213-.013.361-.047.486-.111.111-.057.496-.406 1-.906.859-.852.921-.894 1.08-.735" fill-rule="evenodd"/></svg>