<svg xmlns="http://www.w3.org/2000/svg" viewBox="0 0 24 24"><path d="M4.701 3.285a2 2 0 0 0-.46.144c-.265.132-.676.526-.798.766-.208.406-.202.169-.202 7.869l-.001 7.165-.241.025c-.284.03-.431.098-.573.266-.344.409-.146 1.056.365 1.198.207.058 18.211.058 18.418 0 .511-.142.709-.789.365-1.198-.142-.168-.289-.236-.573-.266l-.241-.025-.001-5.165c0-5.541.002-5.47-.202-5.869-.122-.24-.533-.634-.797-.765a2 2 0 0 0-.5-.148c-.364-.052-3.156-.052-3.52 0-.372.053-.668.206-.964.498-.515.508-.534.615-.535 2.934-.001 1.712-.005 1.813-.071 1.786-.537-.217-.887-.259-2.17-.259s-1.633.042-2.17.259c-.066.027-.07-.169-.071-3.786 0-4.085-.002-4.129-.202-4.519-.122-.24-.533-.634-.797-.765a2 2 0 0 0-.5-.148c-.338-.049-3.223-.046-3.559.003m3.466 1.541c.07.064.073.341.073 7.24v7.174H4.76v-7.167c0-6.613.005-7.172.066-7.24s.167-.073 1.667-.073c1.433 0 1.608.007 1.674.066M6.42 5.26a2 2 0 0 1-.149.037c-.147.032-.39.251-.457.411-.04.096-.054.369-.054 1.061 0 1.046.012 1.098.295 1.327.269.218.763.177.99-.082.183-.208.195-.287.195-1.249 0-.553-.017-.965-.043-1.032a.9.9 0 0 0-.357-.391c-.108-.055-.355-.104-.42-.082m12.747 3.566c.07.064.073.279.073 5.24v5.174h-3.48v-5.167c0-4.752.005-5.173.066-5.24s.167-.073 1.667-.073c1.433 0 1.608.007 1.674.066M6.42 10.26a2 2 0 0 1-.149.037c-.147.032-.39.251-.457.411-.04.096-.054.369-.054 1.061 0 1.046.012 1.098.295 1.327.269.218.763.177.99-.082.183-.208.195-.287.195-1.249 0-.553-.017-.965-.043-1.032a.9.9 0 0 0-.357-.391c-.108-.055-.355-.104-.42-.082m11 0a2 2 0 0 1-.149.037c-.147.032-.39.251-.457.411-.04.096-.054.369-.054 1.061 0 1.046.012 1.098.295 1.327.269.218.763.177.99-.082.183-.208.195-.287.195-1.249 0-.553-.017-.965-.043-1.032a.9.9 0 0 0-.357-.391c-.108-.055-.355-.104-.42-.082m-3.892 3.613c.239.118.481.36.599.599l.093.188.011 2.29.011 2.29H9.76v-2.235c0-2.443-.003-2.407.236-2.733.065-.087.189-.212.277-.276.309-.228.349-.233 1.767-.224 1.27.008 1.304.01 1.488.101M6.42 15.26a2 2 0 0 1-.149.037c-.147.032-.39.251-.457.411-.04.096-.054.369-.054 1.061 0 1.046.012 1.098.295 1.327.269.218.763.177.99-.082.183-.208.195-.287.195-1.249 0-.553-.017-.965-.043-1.032a.9.9 0 0 0-.357-.391c-.108-.055-.355-.104-.42-.082m5.4.016a.73.73 0 0 0-.538.515c-.023.082-.041.527-.041.989.001.926.026 1.045.264 1.267.375.351.954.22 1.179-.267.065-.14.074-.268.075-1 .001-.9-.024-1.069-.185-1.26a.78.78 0 0 0-.754-.244m5.6-.016a2 2 0 0 1-.149.037c-.147.032-.39.251-.457.411-.04.096-.054.369-.054 1.061 0 1.046.012 1.098.295 1.327.269.218.763.177.99-.082.183-.208.195-.287.195-1.249 0-.553-.017-.965-.043-1.032a.9.9 0 0 0-.357-.391c-.108-.055-.355-.104-.42-.082" fill-rule="evenodd"/></svg>