<svg xmlns="http://www.w3.org/2000/svg" viewBox="0 0 24 24"><path d="M4.687 3.285c-.461.076-.995.456-1.218.865-.239.44-.228.046-.228 7.894l-.001 7.185-.241.025c-.284.03-.431.098-.573.266-.344.409-.146 1.056.365 1.198.207.058 18.211.058 18.418 0 .511-.142.709-.789.365-1.198-.142-.168-.289-.236-.573-.266l-.241-.025-.001-5.185c0-5.657.007-5.461-.228-5.894-.137-.252-.507-.594-.783-.724-.342-.162-.623-.185-2.248-.185s-1.906.023-2.248.185c-.276.13-.646.472-.783.724-.214.394-.228.546-.228 2.544-.001 1.731-.005 1.833-.071 1.808-.592-.229-.853-.26-2.17-.26s-1.578.031-2.17.26c-.066.025-.07-.173-.071-3.808 0-4.18.003-4.119-.228-4.544-.137-.252-.507-.594-.783-.724a2 2 0 0 0-.471-.144c-.311-.05-3.284-.048-3.59.003M6.84 5.342c.137.07.306.255.357.391.026.067.043.473.043 1.011 0 1.11-.04 1.246-.42 1.421-.282.129-.681.06-.868-.151-.171-.192-.192-.332-.192-1.274 0-.668.014-.936.054-1.032.067-.16.31-.379.457-.411.06-.013.127-.03.149-.037.065-.022.312.027.42.082m0 5c.137.07.306.255.357.391.026.067.043.473.043 1.011 0 1.11-.04 1.246-.42 1.421a.77.77 0 0 1-.64 0 .61.61 0 0 1-.358-.375c-.085-.201-.091-1.884-.008-2.082.067-.16.31-.379.457-.411.06-.013.127-.03.149-.037.065-.022.312.027.42.082m11 0c.137.07.306.255.357.391.026.067.043.473.043 1.011 0 1.11-.04 1.246-.42 1.421a.77.77 0 0 1-.64 0 .61.61 0 0 1-.358-.375c-.085-.201-.091-1.884-.008-2.082.067-.16.31-.379.457-.411.06-.013.127-.03.149-.037.065-.022.312.027.42.082m-11 5c.137.07.306.255.357.391.026.067.043.473.043 1.011 0 1.11-.04 1.246-.42 1.421a.77.77 0 0 1-.64 0 .61.61 0 0 1-.358-.375c-.085-.201-.091-1.884-.008-2.082.067-.16.31-.379.457-.411.06-.013.127-.03.149-.037.065-.022.312.027.42.082m5.565.039c.08.051.188.162.24.246.093.149.095.174.095 1.073 0 .506-.014.969-.031 1.029-.042.152-.262.392-.417.457a.74.74 0 0 1-.842-.201.8.8 0 0 1-.159-.256c-.017-.06-.031-.523-.031-1.029 0-.893.003-.924.093-1.069.233-.375.691-.484 1.052-.25m5.435-.039c.137.07.306.255.357.391.026.067.043.473.043 1.011 0 1.11-.04 1.246-.42 1.421a.77.77 0 0 1-.64 0 .61.61 0 0 1-.358-.375c-.085-.201-.091-1.884-.008-2.082.067-.16.31-.379.457-.411.06-.013.127-.03.149-.037.065-.022.312.027.42.082" fill-rule="evenodd"/></svg>