<svg xmlns="http://www.w3.org/2000/svg" viewBox="0 0 24 24"><path d="M11.34 2.281c-1.875.117-3.691.798-5.256 1.971-.501.375-1.468 1.344-1.839 1.84a9.9 9.9 0 0 0-1.892 4.48c-.114.705-.123 2.019-.02 2.728a9.96 9.96 0 0 0 1.912 4.608c.377.504 1.343 1.47 1.847 1.847a9.95 9.95 0 0 0 4.608 1.911c.333.048.732.07 1.3.07 1.556 0 2.894-.306 4.26-.974 1.052-.515 1.77-1.03 2.621-1.881s1.367-1.57 1.88-2.621c1.616-3.305 1.23-7.202-1.006-10.164-1.541-2.041-3.921-3.42-6.475-3.751a11 11 0 0 0-1.94-.064m.927 2.522c.14.052.319.218.407.377.06.109.067.425.077 3.32l.011 3.2 1.677 1.68c1.147 1.148 1.698 1.727 1.74 1.829a.75.75 0 0 1-.001.581.61.61 0 0 1-.358.375.76.76 0 0 1-.64-.001c-.225-.105-3.842-3.738-3.887-3.904-.042-.152-.044-6.842-.002-6.989s.259-.39.408-.455a.9.9 0 0 1 .568-.013"/></svg>