<svg xmlns="http://www.w3.org/2000/svg" viewBox="0 0 24 24"><path d="M11.32 2.28A9.74 9.74 0 0 0 3.258 7.7c-.46.94-.762 1.914-.924 2.98-.097.636-.097 2.004 0 2.64.446 2.941 2.052 5.409 4.533 6.968 1.075.676 2.441 1.17 3.813 1.378.636.097 2.004.097 2.64 0 2.1-.319 3.932-1.206 5.405-2.618 1.601-1.534 2.6-3.479 2.941-5.728.097-.636.097-2.004 0-2.64-.443-2.919-2.04-5.389-4.49-6.941-.824-.522-2.118-1.053-3.056-1.253a11 11 0 0 0-2.8-.206m2 1.578a8.28 8.28 0 0 1 4.628 2.435c1.176 1.231 1.913 2.713 2.2 4.423.1.593.1 1.975 0 2.568-.612 3.649-3.463 6.426-7.08 6.895-3.771.489-7.369-1.653-8.767-5.219a9 9 0 0 1-.449-1.676c-.1-.593-.1-1.975 0-2.568.299-1.783 1.066-3.282 2.324-4.54 1.389-1.388 2.977-2.138 5.064-2.391.313-.038 1.715.011 2.08.073m-1.62.959a.76.76 0 0 0-.384.399c-.071.156-.074.331-.075 3.504 0 2.265.013 3.391.043 3.5.036.136.32.438 1.909 2.03 1.026 1.028 1.923 1.897 1.992 1.93.248.118.608.059.829-.135.219-.192.289-.607.149-.877-.043-.081-.826-.895-1.74-1.808L12.76 11.7l-.001-3.16c-.001-2.99-.005-3.169-.075-3.32-.086-.186-.257-.357-.417-.417a.9.9 0 0 0-.567.014" fill-rule="evenodd"/></svg>