<svg xmlns="http://www.w3.org/2000/svg" viewBox="0 0 24 24"><path d="M11.32 2.28A9.74 9.74 0 0 0 3.258 7.7c-.46.94-.762 1.914-.924 2.98-.097.636-.097 2.004 0 2.64.446 2.941 2.052 5.409 4.533 6.968 1.075.676 2.441 1.17 3.813 1.378.636.097 2.004.097 2.64 0 2.1-.319 3.932-1.206 5.405-2.618 1.601-1.534 2.6-3.479 2.941-5.728.097-.636.097-2.004 0-2.64-.443-2.919-2.04-5.389-4.49-6.941-.824-.522-2.118-1.053-3.056-1.253a11 11 0 0 0-2.8-.206m1.526 1.522a8.4 8.4 0 0 1 4.291 1.749c.363.287 1.025.949 1.312 1.312a8.4 8.4 0 0 1 1.749 4.291 8.26 8.26 0 0 1-4.37 8.146 8.7 8.7 0 0 1-2.528.847c-.563.098-2.037.098-2.6 0-1.776-.308-3.28-1.081-4.523-2.324a7.9 7.9 0 0 1-1.58-2.203C2.604 11.529 4.301 6.584 8.38 4.597a8.35 8.35 0 0 1 4.466-.795m-1.199 1.044a.8.8 0 0 0-.28.247l-.107.161-.012 3.403c-.009 2.45.001 3.448.033 3.563.038.135.343.459 1.912 2.034 1.062 1.066 1.922 1.898 1.996 1.93a.97.97 0 0 0 .598.013.8.8 0 0 0 .398-.386 1 1 0 0 0 .013-.598c-.023-.062-.806-.878-1.739-1.813l-1.698-1.7-.01-3.223-.011-3.224-.114-.165a.77.77 0 0 0-.979-.242" fill-rule="evenodd"/></svg>