<svg xmlns="http://www.w3.org/2000/svg" viewBox="0 0 24 24"><path d="M6.563 3.282c-1.269.134-2.356 1.081-2.708 2.358-.103.372-.102 1.195.001 1.6.058.227.599 1.345 2.226 4.603l2.15 4.303.019 1.197c.016 1.043.029 1.238.101 1.517.188.725.498 1.275 1.006 1.782.73.73 1.606 1.092 2.642 1.092s1.912-.362 2.642-1.092c.508-.507.818-1.057 1.006-1.782.072-.279.085-.474.101-1.517l.019-1.197 2.147-4.303c1.484-2.973 2.17-4.39 2.222-4.583a3.6 3.6 0 0 0 .045-1.423 3.18 3.18 0 0 0-2.342-2.484c-.466-.122-1.191-.112-1.653.024-.563.166-.951.396-1.383.823l-.25.245-.292-.278a3.277 3.277 0 0 0-4.524 0l-.292.278-.25-.245c-.722-.712-1.622-1.025-2.633-.918m1.003 1.593c.316.123.715.496.872.817.112.228.184.622.881 4.828.418 2.519.768 4.612.777 4.65.015.062-.019.07-.31.07h-.327l-2.072-4.15c-1.758-3.522-2.078-4.188-2.11-4.4-.126-.814.412-1.655 1.2-1.878.267-.075.812-.043 1.089.063m5.21.059c.538.266.913.779.991 1.354.038.281.012.454-.664 4.512a982 982 0 0 1-.727 4.33c-.022.11-.022.11-.376.11s-.354 0-.376-.11c-.013-.06-.34-2.009-.728-4.33-.676-4.051-.702-4.232-.665-4.51a2 2 0 0 1 .148-.512c.217-.443.72-.864 1.166-.976.085-.021.33-.033.545-.027.355.012.416.026.686.159m5.005-.016a1.69 1.69 0 0 1 .938 1.749c-.033.25-.214.628-2.107 4.423l-2.071 4.15h-.327c-.291 0-.325-.008-.31-.07.009-.038.359-2.13.777-4.647.61-3.679.779-4.619.857-4.79.107-.233.435-.605.652-.739.275-.17.562-.236.96-.22.318.013.406.033.631.144"/></svg>