<svg xmlns="http://www.w3.org/2000/svg" viewBox="0 0 24 24"><path d="M16.701 3.285a2 2 0 0 0-.46.144c-.265.132-.676.526-.798.766-.103.2-.201.628-.202.875l-.001.17h-3.61c-2.145.001-3.752.017-3.959.041-.399.045-.77.169-1.096.364-.304.182-.761.645-.946.959-.289.491-.45 1.222-.349 1.595.06.223.286.457.501.516.099.028.593.045 1.309.045h1.15l.001.17c.001.247.099.675.202.875.203.399.753.822 1.167.897l.15.027v.486c0 .552.042.677.295.881.269.218.763.177.99-.082.163-.185.195-.319.195-.808v-.477l.15-.027c.414-.075.964-.498 1.167-.897.103-.2.201-.628.202-.875l.001-.17h2.48v10.48h-2.606l.293-.294c.343-.344.554-.682.702-1.126.105-.315.107-.341.122-1.583.017-1.36.002-1.504-.177-1.717-.231-.274-.062-.26-3.074-.26-2.493 0-2.73.006-2.845.069-.268.146-.413.421-.416.791l-.002.18-.064-.12a.7.7 0 0 0-.341-.344c-.312-.159-.719-.059-.94.23l-.112.148-.011.743c-.013.838.005.913.286 1.139.115.094.196.123.379.136q.508.037.735-.407c.056-.11.059-.099.082.281.046.744.303 1.319.822 1.84l.293.294-2.193.001c-1.206 0-2.264.017-2.35.037a.739.739 0 0 0-.348 1.246.84.84 0 0 0 .306.191c.216.06 16.212.063 16.428.003.511-.142.709-.789.365-1.198-.142-.168-.289-.236-.573-.266l-.241-.025-.001-7.165c0-7.7.006-7.463-.202-7.869-.122-.24-.533-.634-.797-.765a2 2 0 0 0-.5-.148c-.333-.048-1.223-.046-1.559.003M15.24 7v.24h-4.099c-4.495 0-4.232.016-3.88-.237.348-.249.132-.237 4.229-.24l3.75-.003zm-4 1.927c0 .294-.043.313-.733.313-.7 0-.747-.019-.747-.306V8.76h1.48z" fill-rule="evenodd"/></svg>