<svg xmlns="http://www.w3.org/2000/svg" viewBox="0 0 24 24"><path d="M11.68 3.048c-.448.098-2.282.608-2.487.692-.908.369-1.592 1.334-1.661 2.341q-.032.464.13 1.059c.02.074-.118.117-1.99.614-1.107.294-2.105.576-2.218.626-.292.13-.43.368-.406.698.03.419.328.702.732.695.129-.002 2.922-.734 7.88-2.065l7.795-2.091c.179-.044.45-.329.503-.529.12-.448-.25-.928-.716-.928-.114 0-3.727.937-4.236 1.098-.064.02-.084-.007-.124-.167-.248-.986-.987-1.727-2.002-2.008a3 3 0 0 0-1.2-.035m1.068 1.577c.291.138.545.433.653.759.048.143.081.267.073.274C13.45 5.68 9.242 6.8 9.183 6.8c-.081 0-.157-.368-.133-.656.032-.408.3-.815.647-.982.17-.083 1.957-.58 2.303-.642.254-.045.506-.009.748.105M2.805 10.28c-.391.092-.633.519-.524.924.059.218.288.453.5.511.087.025.451.045.807.045h.648l.014 2.89c.014 2.801.017 2.9.1 3.21.196.735.502 1.277 1.008 1.782.52.521 1.122.852 1.862 1.024.302.07.573.074 4.78.074s4.478-.004 4.78-.074a3.73 3.73 0 0 0 1.862-1.024c.506-.505.812-1.047 1.008-1.782.083-.31.086-.409.1-3.21l.014-2.89h.648c.356 0 .72-.02.807-.045a.84.84 0 0 0 .306-.191.739.739 0 0 0-.348-1.246c-.194-.045-18.181-.043-18.372.002m15.434 4.25c0 3.055 0 3.054-.25 3.526-.165.313-.619.767-.929.931-.501.264-.283.253-5.06.253s-4.559.011-5.06-.253c-.31-.164-.764-.618-.929-.931-.25-.472-.25-.471-.25-3.526l-.001-2.77h12.48z" fill-rule="evenodd"/></svg>