<svg xmlns="http://www.w3.org/2000/svg" viewBox="0 0 24 24"><path d="M10.617 2.283c-.585.069-1.098.328-1.552.781a2.7 2.7 0 0 0-.692 1.116c-.148.45-.156 1.139-.019 1.579.115.366.235.608.429.863.09.117.13.2.102.21-.113.037-.535.389-.794.661-.661.696-1.034 1.474-1.274 2.657-.018.086-.036.09-.428.091-.625.001-.823.07-1.016.354-.349.513.057 1.164.727 1.165h.16l-.011 4.13c-.008 2.856.002 4.21.032 4.39.024.143.087.356.14.473.115.252.523.677.774.804.393.201.411.202 4.805.202s4.412-.001 4.805-.202c.251-.127.659-.552.774-.804a2.3 2.3 0 0 0 .14-.473c.03-.18.04-1.534.032-4.39l-.011-4.13h.16c.453-.001.764-.239.84-.645.053-.286-.122-.642-.384-.777a1.3 1.3 0 0 0-.355-.084l-.241-.025V9.084c0-.704-.017-1.206-.044-1.304-.035-.127-.17-.288-.65-.773-.333-.337-.66-.642-.726-.677-.154-.081-.525-.081-.68 0-.226.118-.42.413-.42.639.001.271.087.41.544.873l.456.462v1.936h-.519c-.507 0-.52-.002-.538-.09-.24-1.183-.613-1.961-1.274-2.657-.259-.272-.681-.624-.794-.661-.028-.01.012-.093.102-.21.194-.255.314-.497.429-.863.137-.44.129-1.129-.018-1.579-.424-1.293-1.642-2.06-3.011-1.897m.911 1.59c.239.117.481.359.599.599.133.27.133.787 0 1.057-.464.943-1.795.943-2.252 0a1.43 1.43 0 0 1-.074-.871c.097-.348.43-.703.785-.838.232-.088.708-.061.942.053m.238 3.981c.411.132.652.284.998.626.296.294.372.399.549.76.113.231.241.55.284.71l.078.29h-5.35l.078-.29c.043-.16.171-.479.284-.71.177-.361.253-.466.549-.76.42-.417.651-.54 1.304-.697.162-.039 1.044.012 1.226.071" fill-rule="evenodd"/></svg>