<svg xmlns="http://www.w3.org/2000/svg" viewBox="0 0 24 24"><path d="M7.981 4.283c-.885.102-1.646.626-2.09 1.437-.066.121-.63 1.413-1.253 2.87l-1.132 2.65-.263.001c-.472.002-.691.091-.87.354a.74.74 0 0 0 .102.929c.172.172.366.235.725.236h.26l1.014 3.05c.647 1.947 1.079 3.186 1.196 3.425.387.795 1.168 1.352 2.079 1.484.163.024 1.86.039 4.251.039s4.088-.015 4.251-.039c.911-.132 1.692-.689 2.079-1.484.117-.239.549-1.478 1.196-3.425l1.014-3.05h.26c.359-.001.553-.064.725-.236a.74.74 0 0 0 .102-.929c-.179-.263-.398-.352-.87-.354l-.263-.001-1.133-2.65c-.623-1.457-1.187-2.749-1.254-2.87-.291-.527-.662-.893-1.167-1.151a2.5 2.5 0 0 0-.97-.288c-.418-.048-7.573-.046-7.989.002m8.238 1.595c.43.211.424.2 1.552 2.835a606 606 0 0 1 1.054 2.466c.021.054-.723.061-6.821.061-3.764 0-6.844-.007-6.844-.017 0-.076 2.103-4.898 2.181-5 .124-.163.383-.34.599-.408.125-.039 1.022-.049 4.12-.043l3.96.008zM7.805 8.28c-.391.092-.633.519-.524.924.059.218.288.453.5.511.224.063 8.214.063 8.438 0a.84.84 0 0 0 .306-.191.739.739 0 0 0-.348-1.246c-.193-.044-8.182-.043-8.372.002"/></svg>