<svg xmlns="http://www.w3.org/2000/svg" viewBox="0 0 24 24"><path d="M2.152 1.842c-.303.16-.444.486-.374.866.025.132.186.31 1.245 1.373L4.24 5.303v13.849l-1.162.93c-1.251 1-1.318 1.072-1.318 1.418 0 .193.1.435.226.545.213.187.565.251.802.145.062-.027.647-.477 1.302-1l1.19-.95h13.44l1.19.95c.655.523 1.24.973 1.302 1 .248.111.658.024.833-.176a.78.78 0 0 0 .117-.85c-.058-.114-.374-.39-1.24-1.082l-1.162-.93V5.299l1.163-1.159c.639-.638 1.197-1.227 1.24-1.308a.78.78 0 0 0-.118-.846c-.192-.219-.607-.289-.877-.149-.081.043-.67.601-1.308 1.24L18.701 4.24H5.299L4.14 3.077c-.638-.639-1.227-1.197-1.308-1.24a.8.8 0 0 0-.68.005M18.24 12.26v6.5h-1.48l-.001-4.93c0-5.288.001-5.237-.202-5.635-.122-.24-.533-.634-.797-.765a2 2 0 0 0-.5-.148c-.374-.054-6.146-.054-6.52 0a2 2 0 0 0-.5.148c-.264.131-.675.525-.797.765-.203.398-.202.347-.202 5.635l-.001 4.93H5.76v-13h12.48zm-3.073-3.434c.07.064.073.271.073 5v4.934H8.76v-4.927c0-4.528.005-4.933.066-5 .063-.07.214-.073 3.167-.073 2.829 0 3.107.006 3.174.066m-1.844 4.442a.82.82 0 0 0-.487.379.757.757 0 0 0 .552 1.096c.208.033.418-.035.601-.197.485-.425.238-1.195-.409-1.277a1 1 0 0 0-.257-.001" fill-rule="evenodd"/></svg>