<svg xmlns="http://www.w3.org/2000/svg" viewBox="0 0 24 24"><path d="M2.152 1.842c-.303.16-.444.486-.374.866.025.132.186.31 1.245 1.373L4.24 5.303v13.849l-1.162.93c-1.251 1-1.318 1.072-1.318 1.418 0 .193.1.435.226.545.213.187.565.251.802.145.062-.027.647-.477 1.302-1l1.19-.95h13.44l1.19.95c.655.523 1.24.973 1.302 1 .248.111.658.024.833-.176a.78.78 0 0 0 .117-.85c-.058-.114-.374-.39-1.24-1.082l-1.162-.93V5.299l1.163-1.159c.639-.638 1.197-1.227 1.24-1.308a.78.78 0 0 0-.118-.846c-.192-.219-.607-.289-.877-.149-.081.043-.67.601-1.308 1.24L18.701 4.24H5.299L4.14 3.077c-.638-.639-1.227-1.197-1.308-1.24a.8.8 0 0 0-.68.005M18.24 12.26v6.5h-1.48l-.001-4.95c0-5.401.007-5.228-.228-5.66-.137-.252-.507-.594-.783-.724a2 2 0 0 0-.471-.144c-.349-.056-6.205-.056-6.554 0a2 2 0 0 0-.471.144c-.276.13-.646.472-.783.724-.235.432-.228.259-.228 5.66l-.001 4.95H5.76v-13h12.48zm-4.4 1.082c.463.236.54.861.149 1.204-.495.435-1.229.114-1.229-.538 0-.564.58-.922 1.08-.666"/></svg>