<svg xmlns="http://www.w3.org/2000/svg" viewBox="0 0 24 24"><path d="M4.617 5.283q-.873.101-1.552.781a2.74 2.74 0 0 0-.696 1.116l-.109.32v9l.109.32c.151.445.362.783.695 1.116s.671.544 1.116.695l.32.109h15l.32-.109a2.74 2.74 0 0 0 1.116-.695c.333-.333.544-.671.695-1.116l.109-.32v-9l-.109-.32a2.74 2.74 0 0 0-.696-1.116c-.472-.471-.961-.709-1.606-.783-.426-.049-14.293-.047-14.712.002M11.24 12v5.24H8.002c-3.15 0-3.245-.002-3.455-.081-.193-.072-.587-.392-.587-.477 0-.016.144-.068.32-.115 1.296-.346 2.491-1.379 3.054-2.637a4.74 4.74 0 0 0-.893-5.186c-.616-.649-1.465-1.15-2.271-1.342-.116-.027-.209-.062-.209-.076.003-.048.177-.231.323-.339.308-.229.181-.221 3.706-.224l3.25-.003zm8.288-5.127c.177.087.512.38.512.448 0 .017-.095.054-.21.081-.806.192-1.655.693-2.271 1.342-1.517 1.595-1.732 3.992-.525 5.856.286.441.925 1.08 1.366 1.366.415.269.895.488 1.32.601.176.047.32.099.32.115 0 .085-.394.405-.587.477-.21.079-.305.081-3.455.081H12.76V6.759l3.29.01 3.29.011zM4.211 8.981c.687.27 1.375.912 1.724 1.607.212.422.283.778.283 1.412 0 .481-.015.633-.089.892-.167.582-.458 1.042-.941 1.492-.402.373-.884.65-1.318.757l-.11.028V8.838l.11.026c.061.014.214.066.341.117m16.029 3.023v3.165l-.11-.028c-.793-.196-1.659-.921-2.065-1.729-.212-.422-.283-.778-.283-1.412 0-.635.072-.992.284-1.412.31-.614.895-1.205 1.494-1.51.16-.081.57-.23.65-.236.017-.001.03 1.422.03 3.162" fill-rule="evenodd"/></svg>