<svg xmlns="http://www.w3.org/2000/svg" viewBox="0 0 24 24"><path d="M4.66 5.28a2.74 2.74 0 0 0-2.202 1.676c-.12.296-.105.322.188.323.402.002 1.065.173 1.613.418.362.162.972.584 1.288.893.949.926 1.43 2.075 1.43 3.41 0 1.064-.293 1.982-.891 2.789-.85 1.146-2.012 1.799-3.477 1.953-.292.03-.289.013-.067.478.327.684.966 1.209 1.758 1.445.22.065.513.072 3.59.085l3.35.013V5.24l-3.17.005c-1.743.003-3.278.019-3.41.035m8.1 6.719v6.764l3.35-.013c3.077-.013 3.37-.02 3.59-.085.792-.236 1.42-.753 1.756-1.445.228-.468.231-.449-.084-.48-1.78-.178-3.272-1.245-3.967-2.835-.737-1.687-.448-3.573.773-5.033.707-.844 1.974-1.501 3.049-1.58.18-.013.347-.036.373-.052.032-.02.015-.102-.058-.284-.315-.773-.991-1.368-1.842-1.62-.22-.065-.523-.072-3.59-.086l-3.35-.014zM2.24 12v3.24h.21c.549-.001 1.328-.305 1.843-.72A3.2 3.2 0 0 0 5.488 12a3.22 3.22 0 0 0-2.579-3.177 3 3 0 0 0-.487-.063H2.24zm18.84-3.178c-1.213.258-2.16 1.173-2.483 2.398a3.5 3.5 0 0 0 0 1.56c.25.946.883 1.726 1.735 2.138.372.18.907.321 1.218.322h.21V8.76l-.21.003a3 3 0 0 0-.47.059"/></svg>