<svg xmlns="http://www.w3.org/2000/svg" viewBox="0 0 24 24"><path d="M8.82 2.276a.73.73 0 0 0-.538.515c-.023.082-.042.441-.042.799v.65h-.61c-1.366.001-1.918.178-2.565.824a2.7 2.7 0 0 0-.692 1.116c-.098.296-.107.385-.124 1.19l-.018.87-.625.001c-.857.001-1.026.05-1.233.354-.268.393-.049.993.408 1.12.087.025.451.045.809.045h.65v4.48l-.63.001c-.861.001-1.03.049-1.237.354-.268.393-.049.993.408 1.12.087.025.45.045.805.045h.645l.018.87c.017.805.026.894.124 1.19.144.44.355.78.691 1.116s.676.547 1.116.691c.296.098.385.107 1.19.124l.87.018v.645c0 .355.02.718.045.805.059.213.293.441.513.5.4.108.812-.12.92-.51.023-.082.042-.441.042-.799v-.65h4.48v.65c0 .358.02.722.045.809.059.213.293.441.513.5.4.108.812-.12.92-.51.023-.082.042-.44.042-.795v-.645l.87-.018c.805-.017.894-.026 1.19-.124.44-.144.78-.355 1.116-.691s.547-.676.691-1.116c.098-.296.107-.385.124-1.19l.018-.87h.645c.355 0 .718-.02.805-.045.457-.127.676-.727.408-1.12-.207-.305-.376-.353-1.237-.354l-.63-.001V9.76h.65c.358 0 .722-.02.809-.045.457-.127.676-.727.408-1.12-.207-.304-.376-.353-1.233-.354l-.625-.001-.018-.87c-.017-.805-.026-.894-.124-1.19a2.7 2.7 0 0 0-.692-1.116c-.647-.646-1.199-.823-2.565-.824h-.61v-.65c0-.711-.031-.885-.186-1.07-.149-.177-.321-.253-.574-.253s-.425.076-.574.253c-.155.185-.186.359-.186 1.07v.65H9.76v-.65c0-.711-.031-.885-.186-1.07a.78.78 0 0 0-.754-.244m8.708 3.597c.239.118.481.36.599.599l.093.188v10.68l-.093.189c-.132.268-.416.534-.674.63-.213.08-.3.081-5.453.081s-5.24-.001-5.453-.081c-.258-.096-.542-.362-.674-.63l-.093-.189-.011-5.26c-.009-3.917 0-5.304.035-5.43.093-.34.433-.7.782-.828.13-.048.973-.056 5.454-.049l5.3.007zM9.701 8.285q-.496.071-.925.495c-.525.517-.535.578-.535 3.22s.01 2.698.535 3.224c.526.525.582.535 3.224.535s2.698-.01 3.224-.535c.525-.526.535-.582.535-3.224s-.01-2.703-.535-3.22c-.296-.292-.592-.445-.964-.498-.342-.049-4.22-.047-4.559.003m4.466 1.541c.069.063.073.183.073 2.167 0 1.899-.006 2.108-.066 2.174-.063.069-.183.073-2.167.073-1.899 0-2.108-.006-2.174-.066-.069-.063-.073-.183-.073-2.167 0-1.899.006-2.108.066-2.174.063-.069.183-.073 2.167-.073 1.899 0 2.108.006 2.174.066" fill-rule="evenodd"/></svg>