<svg xmlns="http://www.w3.org/2000/svg" viewBox="0 0 24 24"><path d="M8.82 2.276a.73.73 0 0 0-.538.515c-.023.082-.042.439-.042.794v.644l-.83.023c-.929.025-1.17.068-1.614.287a2.76 2.76 0 0 0-1.252 1.238c-.239.488-.272.672-.293 1.613l-.019.85-.626.001c-.857.001-1.026.05-1.233.354-.268.393-.049.993.408 1.12.087.025.451.045.809.045h.65v4.48l-.63.001c-.861.001-1.03.049-1.237.354-.268.393-.049.993.408 1.12.087.025.45.045.805.045h.646l.019.85c.021.94.054 1.125.292 1.61.257.525.712.98 1.236 1.237.486.238.671.271 1.611.292l.85.019v.646c0 .355.02.718.045.805.059.213.293.441.513.5.4.108.812-.12.92-.51.023-.082.042-.441.042-.799v-.65h4.48v.65c0 .358.02.722.045.809.059.213.293.441.513.5.4.108.812-.12.92-.51.023-.082.042-.44.042-.795v-.646l.85-.019c.636-.014.91-.036 1.09-.087a2.84 2.84 0 0 0 1.962-1.962c.051-.18.073-.454.087-1.09l.019-.85h.646c.355 0 .718-.02.805-.045.457-.127.676-.727.408-1.12-.207-.305-.376-.353-1.237-.354l-.63-.001V9.76h.65c.358 0 .722-.02.809-.045.457-.127.676-.727.408-1.12-.207-.304-.376-.353-1.233-.354l-.626-.001-.019-.85c-.014-.636-.036-.91-.087-1.09a2.8 2.8 0 0 0-1.46-1.762c-.442-.218-.684-.261-1.612-.286l-.83-.023v-.644c0-.706-.031-.881-.186-1.065-.149-.177-.321-.253-.574-.253s-.425.076-.574.253c-.155.185-.186.359-.186 1.07v.65H9.76v-.65c0-.711-.031-.885-.186-1.07a.78.78 0 0 0-.754-.244m5.457 6.006c.37.06.666.215.946.495s.435.576.495.946c.055.343.055 4.211 0 4.554a1.7 1.7 0 0 1-.459.917c-.25.27-.508.421-.862.504-.38.09-4.414.09-4.794 0a1.6 1.6 0 0 1-.862-.504 1.7 1.7 0 0 1-.459-.917c-.055-.343-.055-4.211 0-4.554.06-.37.215-.666.495-.946.27-.269.58-.437.91-.492.308-.051 4.276-.054 4.59-.003M9.826 9.833c-.06.066-.066.275-.066 2.174 0 1.984.004 2.104.073 2.167.066.06.275.066 2.174.066 1.984 0 2.104-.004 2.167-.073.06-.066.066-.275.066-2.174 0-1.984-.004-2.104-.073-2.167-.066-.06-.275-.066-2.174-.066-1.984 0-2.104.004-2.167.073" fill-rule="evenodd"/></svg>