<svg xmlns="http://www.w3.org/2000/svg" viewBox="0 0 24 24"><path d="M6.94 4.785c-1.162.173-2.328.568-3.74 1.268-.648.321-.84.478-.914.75-.038.136-.046 1.37-.037 5.304l.011 5.126.121.172c.16.228.343.331.596.333.176.002.295-.044.903-.344 2.012-.996 3.312-1.295 4.5-1.034.775.17 1.867.582 2.76 1.042l.98.505c1.042.537 2.35 1.026 3.26 1.219.629.134 1.611.134 2.234.001.905-.194 1.983-.589 3.102-1.137.772-.378.933-.513 1.003-.836.033-.157.042-1.575.033-5.301l-.012-5.086-.12-.17a.75.75 0 0 0-.62-.334c-.141.003-.332.079-.88.347-1.98.972-3.3 1.29-4.389 1.058-.871-.185-1.909-.578-2.971-1.124-1.614-.83-2.107-1.05-3.06-1.366-.85-.282-1.377-.383-2.08-.398a8 8 0 0 0-.68.005m-.638 3.29c.181.083.363.278.408.438.017.059.03 1.079.03 2.267v2.16l-.106.18a.73.73 0 0 1-1.268 0l-.106-.18v-2.16c0-1.188.013-2.208.03-2.267.073-.262.42-.511.71-.511.077 0 .213.033.302.073m6.25.988a2.72 2.72 0 0 1 2.179 2.655c.002.507-.06.786-.279 1.24-.153.319-.235.431-.527.721-.56.557-1.161.81-1.925.81-.763 0-1.366-.253-1.925-.807-.292-.29-.372-.4-.527-.722-.219-.457-.281-.735-.279-1.242a2.726 2.726 0 0 1 3.283-2.655m5.75 1.012c.181.083.363.278.408.438.017.059.03 1.079.03 2.267v2.16l-.106.18a.73.73 0 0 1-1.268 0l-.106-.18v-2.16c0-1.188.013-2.208.03-2.267.073-.262.42-.511.71-.511.077 0 .213.033.302.073" fill-rule="evenodd"/></svg>