<svg xmlns="http://www.w3.org/2000/svg" viewBox="0 0 24 24"><path d="M6.94 4.785c-1.162.173-2.328.568-3.74 1.268-.648.321-.84.478-.914.75-.038.136-.046 1.37-.037 5.304l.011 5.126.121.172c.16.228.343.331.596.333.176.002.295-.044.903-.344 2.012-.996 3.312-1.295 4.5-1.034.775.17 1.867.582 2.76 1.042l.98.505c1.042.537 2.35 1.026 3.26 1.219.629.134 1.611.134 2.234.001.905-.194 1.983-.589 3.102-1.137.772-.378.933-.513 1.003-.836.033-.157.042-1.575.033-5.301l-.012-5.086-.12-.17a.75.75 0 0 0-.62-.334c-.141.003-.332.079-.88.347-1.98.972-3.3 1.29-4.389 1.058-.871-.185-1.909-.578-2.971-1.124-1.614-.83-2.107-1.05-3.06-1.366-.85-.282-1.377-.383-2.08-.398a8 8 0 0 0-.68.005M8.4 6.368c.733.154 1.845.573 2.74 1.034l.98.505c1.042.537 2.35 1.026 3.26 1.219.63.134 1.611.134 2.237 0 .562-.12 1.397-.389 2.069-.667.291-.12.535-.219.542-.219s.012 1.873.012 4.163v4.162l-.418.196q-2.088.978-3.322.977c-.921 0-2.229-.418-3.74-1.194-1.614-.83-2.107-1.049-3.06-1.366-.935-.31-1.415-.396-2.2-.396-.508 0-.735.019-1.1.092-.535.107-1.553.436-2.17.701a8 8 0 0 1-.45.185c-.011 0-.016-1.876-.01-4.168l.01-4.168.5-.23c1.075-.494 2.132-.838 2.8-.912.39-.043.847-.013 1.32.086M5.82 8.276a.73.73 0 0 0-.538.515c-.059.211-.056 4.216.003 4.428.059.213.293.441.513.5.4.108.812-.12.92-.51.056-.202.056-4.216 0-4.418a.8.8 0 0 0-.353-.448.95.95 0 0 0-.545-.067m5.797 1.007c-.585.069-1.098.328-1.552.781a2.7 2.7 0 0 0-.693 1.116c-.091.277-.105.387-.105.82s.014.543.105.82c.146.44.357.781.692 1.116s.676.546 1.116.692c.277.091.387.105.82.105s.543-.014.82-.105c.44-.146.781-.357 1.116-.692s.546-.676.692-1.116c.091-.277.105-.387.105-.82s-.014-.543-.105-.82c-.425-1.294-1.642-2.06-3.011-1.897m6.203.993a.73.73 0 0 0-.538.515c-.059.211-.056 4.216.003 4.428.059.213.293.441.513.5.4.108.812-.12.92-.51.056-.202.056-4.216 0-4.418a.8.8 0 0 0-.353-.448.95.95 0 0 0-.545-.067m-5.292.597c.239.117.481.359.599.599.133.27.133.787 0 1.057-.464.943-1.795.943-2.252 0a1.43 1.43 0 0 1-.074-.871c.097-.348.43-.703.785-.838.232-.088.708-.061.942.053" fill-rule="evenodd"/></svg>