<svg xmlns="http://www.w3.org/2000/svg" viewBox="0 0 24 24"><path d="M5.805 7.279c-.516.126-.725.789-.379 1.201.217.258.217.258 1.731.28l1.377.02.334.716c.183.394.329.719.323.723a4 4 0 0 1-.265.052 1 1 0 0 0-.38.142c-.077.059-.34.452-.677 1.011-.303.504-.566.941-.586.972-.03.047-.074.046-.298-.01a4.2 4.2 0 0 0-1.96-.004c-.338.086-.993.411-1.306.649-.679.516-1.149 1.246-1.369 2.129a4 4 0 0 0 0 1.68c.183.733.493 1.287 1.008 1.802.73.73 1.606 1.092 2.642 1.092s1.912-.362 2.642-1.092S9.734 17.036 9.734 16c0-.969-.331-1.829-.977-2.536a1.4 1.4 0 0 1-.197-.243c0-.015.194-.351.43-.746l.43-.718.257.012.257.011.95 2.036c.522 1.12.988 2.087 1.034 2.15.117.158.363.274.582.274a.73.73 0 0 0 .74-.743c0-.16-.119-.442-.804-1.912-.443-.949-.814-1.747-.825-1.775-.015-.04.476-.05 2.379-.05h2.399l.066.33c.036.182.065.36.065.397 0 .041-.113.127-.303.229-.959.518-1.594 1.349-1.867 2.444a4 4 0 0 0 0 1.68c.183.733.493 1.287 1.008 1.802.73.73 1.606 1.092 2.642 1.092s1.912-.362 2.642-1.092 1.092-1.606 1.092-2.642c0-1.475-.779-2.713-2.114-3.361a3.2 3.2 0 0 0-1.239-.354 3 3 0 0 1-.359-.05c-.021-.022-.582-2.842-.582-2.925 0-.063.054-.07.573-.07h.573l.437.65c.26.386.49.685.568.736.533.354 1.255-.12 1.147-.755-.018-.112-.192-.408-.577-.985-.565-.848-.699-1.01-.894-1.083-.071-.028-.62-.043-1.511-.043-1.474 0-1.568.01-1.769.192a.82.82 0 0 0-.227.519c0 .085.072.512.16.949s.16.8.16.807-1.173.009-2.607.003l-2.607-.01-.595-1.277c-.328-.702-.632-1.328-.677-1.391a.8.8 0 0 0-.247-.203c-.164-.087-.195-.089-1.787-.096-.891-.004-1.681.008-1.755.026m.581 6.512c.031.019-.147.35-.539 1.005-.57.951-.586.982-.584 1.2.001.276.087.447.3.602a.74.74 0 0 0 .905-.014c.062-.052.373-.527.691-1.056l.577-.961.095.126c.478.638.545 1.632.158 2.363a2.7 2.7 0 0 1-.409.524c-.456.456-.944.66-1.58.66s-1.124-.204-1.58-.66c-.454-.454-.659-.945-.659-1.58s.205-1.126.659-1.58q.466-.465 1.005-.597c.25-.06.884-.082.961-.032m12.67.22c.314.166.767.619.933.933.334.63.334 1.482 0 2.112a2.7 2.7 0 0 1-.409.524c-.456.456-.944.66-1.58.66s-1.124-.204-1.58-.66c-.454-.454-.659-.945-.659-1.58 0-.543.149-.977.476-1.392.188-.238.562-.547.603-.5.016.018.124.515.241 1.106.225 1.14.263 1.245.511 1.412.401.27.989.054 1.13-.416.046-.154.033-.256-.159-1.219a98 98 0 0 0-.23-1.138c-.02-.088-.02-.088.23-.029.137.032.359.116.493.187" fill-rule="evenodd"/></svg>