<svg xmlns="http://www.w3.org/2000/svg" viewBox="0 0 24 24"><path d="M5.805 7.279c-.516.126-.725.789-.379 1.201.217.258.217.258 1.731.28l1.377.02.334.716c.183.394.329.719.323.723a4 4 0 0 1-.265.052 1 1 0 0 0-.38.142c-.077.059-.34.452-.677 1.011-.303.504-.566.941-.586.972-.03.047-.074.046-.298-.01a4.2 4.2 0 0 0-1.96-.004c-.338.086-.993.411-1.306.649-.679.516-1.149 1.246-1.369 2.129a4 4 0 0 0 0 1.68c.183.733.493 1.287 1.008 1.802.73.73 1.606 1.092 2.642 1.092s1.912-.362 2.642-1.092S9.734 17.036 9.734 16c0-.969-.331-1.829-.977-2.536a1.4 1.4 0 0 1-.197-.243c0-.015.194-.351.43-.746l.43-.718.257.012.257.011.95 2.036c.522 1.12.988 2.087 1.034 2.15.117.158.363.274.582.274a.73.73 0 0 0 .74-.743c0-.16-.119-.442-.804-1.912-.443-.949-.814-1.747-.825-1.775-.015-.04.476-.05 2.379-.05h2.399l.066.33c.036.182.065.36.065.397 0 .041-.113.127-.303.229-.959.518-1.594 1.349-1.867 2.444a4 4 0 0 0 0 1.68c.183.733.493 1.287 1.008 1.802.73.73 1.606 1.092 2.642 1.092s1.912-.362 2.642-1.092 1.092-1.606 1.092-2.642c0-1.475-.779-2.713-2.114-3.361a3.2 3.2 0 0 0-1.239-.354 3 3 0 0 1-.359-.05c-.021-.022-.582-2.842-.582-2.925 0-.063.054-.07.573-.07h.573l.437.65c.26.386.49.685.568.736.533.354 1.255-.12 1.147-.755-.018-.112-.192-.408-.577-.985-.565-.848-.699-1.01-.894-1.083-.071-.028-.62-.043-1.511-.043-1.474 0-1.568.01-1.769.192a.82.82 0 0 0-.227.519c0 .085.072.512.16.949s.16.8.16.807-1.173.009-2.607.003l-2.607-.01-.595-1.277c-.328-.702-.632-1.328-.677-1.391a.8.8 0 0 0-.247-.203c-.164-.087-.195-.089-1.787-.096-.891-.004-1.681.008-1.755.026" fill-rule="evenodd"/></svg>