<svg xmlns="http://www.w3.org/2000/svg" viewBox="0 0 24 24"><path d="M20.18 2.826c-.066.034-.627.567-1.247 1.185l-1.127 1.123-.233-.105q-.483-.216-1.169-.178-.95.051-1.591.669c-.102.099-1.266 1.44-2.585 2.98a256 256 0 0 1-2.461 2.85c-.047.037-.356.05-1.225.051-1.466.001-1.711.046-2.295.427-.27.175-2.581 2.449-2.832 2.787-.462.619-.444 1.563.042 2.159.214.263.503.483.783.595.203.082.299.09 1.247.103l1.027.014.014 1.027c.013.948.021 1.044.103 1.247.112.28.332.569.595.783.596.485 1.54.504 2.159.043.129-.096.793-.74 1.475-1.43 1.317-1.334 1.461-1.514 1.621-2.03.12-.386.158-.848.16-1.926l.002-.98 2.781-2.38c1.53-1.309 2.894-2.497 3.032-2.64.462-.48.66-.939.694-1.608.024-.484-.025-.806-.177-1.168l-.099-.237 1.119-1.123c.616-.618 1.148-1.182 1.183-1.252.127-.254.048-.673-.162-.857-.222-.195-.596-.253-.834-.129m-3.112 3.639c.373.177.584.529.583.974 0 .308-.07.494-.268.712-.174.193-2.167 1.904-2.235 1.92-.062.014-1.243-1.168-1.223-1.224.018-.051 1.485-1.773 1.771-2.078a2 2 0 0 1 .328-.291c.284-.176.69-.181 1.044-.013m-3.442 4.941a5 5 0 0 1-.387.314c-.011 0-.234-.214-.495-.476l-.475-.477.095-.119c.053-.066.195-.237.316-.38l.22-.26.546.542.547.542zm-1.927.913c.243.244.383.413.36.434-.022.02-.327.278-.679.575s-.874.742-1.16.989c-.623.538-.721.595-.884.517a.4.4 0 0 1-.17-.17c-.082-.17-.028-.252.766-1.176.385-.446.84-.982 1.013-1.189s.324-.378.336-.379c.011 0 .2.18.418.399m-3.304.631c-.03.038-.152.185-.27.326-.684.817-.67 1.859.035 2.564a1.815 1.815 0 0 0 2.05.371c.137-.065.394-.238.57-.385l.32-.267.012.35c.016.432-.046.771-.18.987-.123.199-2.307 2.406-2.462 2.488-.122.065-.279.041-.358-.054-.039-.047-.057-.395-.072-1.426-.02-1.359-.02-1.365-.118-1.536a.9.9 0 0 0-.24-.26c-.137-.085-.187-.089-1.531-.108-1.322-.019-1.393-.024-1.467-.1-.076-.078-.098-.158-.089-.318.006-.101 2.193-2.298 2.475-2.486.253-.169.422-.206.965-.212.389-.004.411 0 .36.066" fill-rule="evenodd"/></svg>