<svg xmlns="http://www.w3.org/2000/svg" viewBox="0 0 24 24"><path d="M20.18 2.826c-.066.034-.627.567-1.247 1.185l-1.127 1.123-.233-.105q-.483-.216-1.169-.178-.95.051-1.591.669c-.102.099-1.426 1.625-2.94 3.39l-2.754 3.21-.669.001c-.892.002-1.196.045-1.57.221-.283.134-.377.219-1.624 1.47-1.446 1.451-1.428 1.427-1.424 1.895.003.374.24.741.592.916.143.071.265.078 1.504.089l1.349.011.011 1.349c.011 1.239.018 1.361.089 1.504.175.352.542.589.916.592.469.004.442.024 1.909-1.444 1.132-1.133 1.36-1.381 1.453-1.577.178-.375.224-.685.224-1.517l.001-.749 3.21-2.754c1.765-1.515 3.301-2.851 3.413-2.971.418-.447.615-.922.647-1.564.024-.484-.025-.806-.177-1.168l-.099-.237 1.119-1.123c.616-.618 1.148-1.182 1.183-1.252.127-.254.048-.673-.162-.857-.222-.195-.596-.253-.834-.129m-3.112 3.639c.373.177.584.529.583.974 0 .308-.07.494-.268.712-.174.193-2.167 1.904-2.235 1.92-.062.014-1.243-1.168-1.223-1.224.018-.051 1.485-1.773 1.771-2.078a2 2 0 0 1 .328-.291c.284-.176.69-.181 1.044-.013m-3.442 4.941a5 5 0 0 1-.387.314c-.011 0-.234-.214-.495-.476l-.475-.477.095-.119c.053-.066.195-.237.316-.38l.22-.26.546.542.547.542zm-1.927.913.398.399-.177.151-1.238 1.062c-.584.501-1.103.922-1.153.935-.228.059-.466-.195-.385-.412.033-.091 2.091-2.53 2.137-2.533.011 0 .199.179.418.398" fill-rule="evenodd"/></svg>