<svg xmlns="http://www.w3.org/2000/svg" viewBox="0 0 24 24"><path d="M4.656 4.282a2.75 2.75 0 0 0-2.112 1.495c-.301.615-.284.315-.284 4.983v4.18l.094.3c.281.9.936 1.587 1.781 1.868.31.103.373.109 1.365.13.572.012 1.063.037 1.092.056.029.018.378.522.777 1.12.838 1.255 1.029 1.477 1.442 1.67l.289.136h5.8l.289-.136c.413-.193.604-.415 1.442-1.67.399-.598.748-1.102.777-1.12s.52-.044 1.092-.056c.995-.021 1.054-.027 1.369-.132.839-.278 1.497-.969 1.777-1.866l.094-.3v-4.18c0-3.93-.004-4.196-.073-4.44a2.8 2.8 0 0 0-1.465-1.782c-.602-.297.047-.275-8.042-.282-3.993-.004-7.37.008-7.504.026m2.134 3.54a.61.61 0 0 1 .375.358c.064.14.073.273.074 1.067.001.547-.016.953-.042 1.02-.093.249-.438.491-.697.491s-.604-.242-.697-.491c-.026-.067-.043-.473-.043-1.011 0-.938.021-1.078.192-1.27.179-.203.565-.278.838-.164m3.502-.008c.155.065.375.305.417.457.017.06.031.526.031 1.036v.926l-.121.172c-.166.237-.346.334-.619.334s-.453-.097-.619-.334l-.121-.172v-.926c0-.51.014-.976.031-1.036.041-.147.259-.39.408-.455a.88.88 0 0 1 .593-.002m4 0c.155.065.375.305.417.457.017.06.031.526.031 1.036v.926l-.121.172c-.166.237-.346.334-.619.334s-.453-.097-.619-.334l-.121-.172v-.926c0-.51.014-.976.031-1.036.041-.147.259-.39.408-.455a.88.88 0 0 1 .593-.002m3.498.008a.61.61 0 0 1 .375.358c.064.14.073.273.074 1.067.001.547-.016.953-.042 1.02-.093.249-.438.491-.697.491s-.604-.242-.697-.491c-.026-.067-.043-.473-.043-1.011 0-.938.021-1.078.192-1.27.179-.203.565-.278.838-.164"/></svg>