<svg xmlns="http://www.w3.org/2000/svg" viewBox="0 0 24 24"><path d="M4.617 4.283q-.873.101-1.552.781a2.74 2.74 0 0 0-.696 1.116l-.109.32-.011 4.1c-.013 4.463-.015 4.411.212 4.97.209.514.746 1.098 1.258 1.367.492.258.762.303 1.83.303.576 0 .966.016 1.015.042.043.023.404.531.804 1.13.839 1.257 1.03 1.479 1.443 1.672l.289.136h5.8l.289-.136c.413-.193.604-.415 1.443-1.672.4-.599.761-1.107.804-1.13.049-.026.439-.042 1.015-.042 1.068 0 1.338-.045 1.83-.303.512-.269 1.049-.853 1.258-1.367.227-.559.225-.507.212-4.97l-.011-4.1-.109-.32a2.74 2.74 0 0 0-.696-1.116c-.472-.471-.961-.709-1.606-.783-.426-.049-14.293-.047-14.712.002m14.911 1.59c.239.118.481.36.599.599l.093.188v8.2l-.092.172a1.4 1.4 0 0 1-.602.597l-.226.111-1.1.02-1.1.02-.269.127c-.436.207-.613.409-1.436 1.641-.414.621-.788 1.147-.831 1.17-.108.058-5.019.058-5.127.001-.042-.023-.417-.55-.832-1.17-.824-1.232-1.003-1.436-1.436-1.642L6.9 15.78l-1.1-.02-1.1-.02-.226-.111a1.4 1.4 0 0 1-.602-.597l-.092-.172-.012-4.02c-.008-2.981.001-4.064.036-4.19.093-.34.433-.7.782-.828.131-.048 1.254-.056 7.454-.049l7.3.007zM6.152 7.842a1 1 0 0 0-.26.225l-.112.147-.012.923c-.007.508-.002.982.012 1.054.049.266.431.567.72.567.259 0 .604-.242.697-.491.026-.067.043-.479.043-1.031 0-.823-.008-.935-.076-1.068a1 1 0 0 0-.15-.213.79.79 0 0 0-.862-.113M9.7 7.817a.76.76 0 0 0-.384.399c-.065.143-.074.271-.075 1.004 0 .462.018.907.041.989.108.39.52.618.92.51.22-.059.454-.287.513-.5.026-.093.044-.507.044-.999-.001-.926-.026-1.045-.264-1.267a.75.75 0 0 0-.795-.136m4 0a.76.76 0 0 0-.384.399c-.065.143-.074.271-.075 1.004 0 .462.018.907.041.989.108.39.52.618.92.51.22-.059.454-.287.513-.5.026-.093.044-.507.044-.999-.001-.926-.026-1.045-.264-1.267a.75.75 0 0 0-.795-.136m3.452.025a1 1 0 0 0-.26.225l-.112.147-.012.923c-.007.508-.002.982.012 1.054.049.266.431.567.72.567.259 0 .604-.242.697-.491.026-.067.043-.479.043-1.031 0-.823-.008-.935-.076-1.068a1 1 0 0 0-.15-.213.79.79 0 0 0-.862-.113" fill-rule="evenodd"/></svg>