<svg xmlns="http://www.w3.org/2000/svg" viewBox="0 0 24 24"><path d="M10.52 4.038c-3.443.327-6.355.615-6.471.641-.379.085-.762.309-1.089.639-.501.504-.696.975-.696 1.682s.195 1.178.696 1.683c.356.358.738.567 1.2.657.165.032 1.191.14 2.28.24s2.056.192 2.15.205l.17.024v.772c0 .842.049 1.21.214 1.619.35.868 1.165 1.629 2.036 1.902l.23.073v3.442c0 2.245.015 3.495.042 3.592.108.39.52.618.92.51.22-.059.454-.287.513-.5.031-.11.045-1.213.045-3.602v-3.442l.23-.073c.513-.16.975-.463 1.394-.914.617-.664.856-1.311.856-2.315v-.48l.15.022c.514.076 1.613.15 1.869.126.324-.03.84-.194 1.112-.354.484-.283.93-.779 1.135-1.258l.107-.252.504.498c.412.407.535.506.678.544a.749.749 0 0 0 .924-.924c-.038-.14-.132-.261-.471-.605l-.423-.43.397-.001c.444-.001.637-.063.825-.264A.67.67 0 0 0 22.24 7a.67.67 0 0 0-.193-.494c-.185-.196-.314-.238-.78-.258l-.432-.018.418-.425c.495-.503.565-.655.465-1.014a.8.8 0 0 0-.373-.459c-.15-.078-.525-.086-.665-.014-.055.028-.317.266-.583.529l-.483.478-.108-.253c-.303-.712-1.031-1.329-1.806-1.531-.508-.132-.658-.122-7.18.497m7.032 1.037c.221.114.459.36.576.597.09.183.092.218.092 1.328s-.002 1.145-.092 1.328a1.46 1.46 0 0 1-.576.597c-.27.139-.622.135-2.268-.022-.823-.079-1.503-.143-1.51-.143a3 3 0 0 1-.014-.41c0-.473-.042-.659-.186-.83-.149-.177-.321-.253-.574-.253s-.425.076-.574.253c-.138.164-.186.355-.186.75 0 .317-.004.33-.092.33-.05 0-1.045-.09-2.21-.2s-2.132-.2-2.148-.2-.03-.185-.031-.41c-.001-.476-.062-.657-.292-.858a.745.745 0 0 0-.89-.045q-.337.227-.337.821c0 .318-.004.332-.09.332-.05 0-.455-.036-.902-.079-.897-.087-1.075-.139-1.265-.365a.85.85 0 0 1-.223-.602c0-.357.215-.68.545-.818.094-.04 4.596-.497 4.885-.496q.05.001.05.19c.001.29.074.493.236.655a.74.74 0 0 0 1.098-.045c.133-.158.185-.354.186-.69 0-.194.015-.27.052-.27.028 0 1.005-.09 2.17-.2s2.15-.2 2.188-.2c.063 0 .07.049.07.47 0 .57.044.744.236.935.402.403 1.091.227 1.242-.316.023-.082.042-.399.042-.704V4.95l.31.018c.212.013.364.047.482.107m-6.322 4.962c.031.009.004 2.523-.026 2.523-.06 0-.423-.301-.553-.459-.315-.383-.409-.757-.41-1.643l-.001-.522.49.049c.27.027.495.051.5.052m2.03.182c.535.039.5.01.499.414-.001.703-.115 1.11-.41 1.468-.13.158-.493.459-.553.459-.021 0-.036-.507-.036-1.203 0-1.126.004-1.201.07-1.183.038.011.232.031.43.045" fill-rule="evenodd"/></svg>