<svg xmlns="http://www.w3.org/2000/svg" viewBox="0 0 24 24"><path d="M10.54 4.036c-3.432.326-6.331.612-6.441.636-.58.125-1.114.504-1.475 1.048-.363.547-.467 1.369-.255 2.011.272.821.974 1.45 1.798 1.61.161.031 1.184.138 2.273.238s2.056.191 2.15.203l.17.023v.774c0 .844.048 1.212.214 1.621.35.868 1.165 1.629 2.036 1.902l.23.073v3.442c0 2.245.015 3.495.042 3.592.108.39.52.618.92.51.22-.059.454-.287.513-.5.031-.11.045-1.213.045-3.602v-3.442l.23-.073c.513-.16.975-.463 1.394-.914.616-.664.856-1.311.856-2.314v-.479l.17.022c.646.084 1.571.147 1.825.125.981-.087 1.898-.738 2.271-1.613l.107-.252.504.498c.412.407.535.506.678.544a.749.749 0 0 0 .924-.924c-.038-.14-.132-.261-.471-.605l-.423-.43.397-.001c.444-.001.637-.063.825-.264A.67.67 0 0 0 22.24 7a.67.67 0 0 0-.193-.494c-.185-.196-.314-.238-.78-.258l-.432-.018.418-.425c.495-.503.565-.655.465-1.014a.8.8 0 0 0-.373-.459c-.15-.078-.525-.086-.665-.014-.055.028-.317.266-.583.529l-.483.478-.108-.253c-.298-.7-.993-1.302-1.742-1.508-.574-.159-.568-.159-7.224.472m-.273.767c.14.052.319.219.406.377.051.092.067.228.067.587 0 .454-.003.471-.121.638-.166.236-.346.334-.619.334s-.453-.097-.619-.334c-.116-.165-.121-.189-.121-.598 0-.235.014-.476.031-.536.041-.147.259-.39.408-.455a.9.9 0 0 1 .568-.013m6 0c.14.052.319.219.406.377.051.092.067.228.067.587 0 .454-.003.471-.121.638-.166.236-.346.334-.619.334s-.453-.097-.619-.334c-.116-.165-.121-.189-.121-.598 0-.235.014-.476.031-.536.041-.147.259-.39.408-.455a.9.9 0 0 1 .568-.013m-9 2c.14.052.319.219.406.377.051.092.067.228.067.587 0 .454-.003.471-.121.638-.166.236-.346.334-.619.334s-.453-.097-.619-.334c-.116-.165-.121-.189-.121-.598 0-.235.014-.476.031-.536.041-.147.259-.39.408-.455a.9.9 0 0 1 .568-.013m6.138.578c.08.051.188.162.24.246.086.138.095.198.095.613 0 .501-.032.605-.246.807A.67.67 0 0 1 13 9.24a.67.67 0 0 1-.494-.193c-.214-.202-.246-.306-.246-.807 0-.412.01-.476.093-.609.233-.375.691-.484 1.052-.25m-2.175 2.655c.031.012.004 2.524-.026 2.524-.06 0-.423-.301-.553-.459-.315-.383-.409-.757-.41-1.642l-.001-.521.49.047c.27.026.495.049.5.051m2.19.197.32.027.012.32c.026.674-.102 1.155-.403 1.521-.13.158-.493.459-.553.459-.021 0-.036-.504-.036-1.195V10.17l.17.017c.093.01.314.03.49.046" fill-rule="evenodd"/></svg>