<svg xmlns="http://www.w3.org/2000/svg" viewBox="0 0 24 24"><path d="M10.52 4.038c-3.443.327-6.355.615-6.471.641-.379.085-.762.309-1.089.639-.501.504-.696.975-.696 1.682s.195 1.178.696 1.683c.356.358.738.567 1.2.657.165.032 1.191.14 2.28.24s2.056.192 2.15.205l.17.024v.772c0 .842.049 1.21.214 1.619.35.868 1.165 1.629 2.036 1.902l.23.073v3.442c0 2.245.015 3.495.042 3.592.108.39.52.618.92.51.22-.059.454-.287.513-.5.031-.11.045-1.213.045-3.602v-3.442l.23-.073c.513-.16.975-.463 1.394-.914.617-.664.856-1.311.856-2.315v-.48l.15.022c.514.076 1.613.15 1.869.126.324-.03.84-.194 1.112-.354.484-.283.93-.779 1.135-1.258l.107-.252.504.498c.412.407.535.506.678.544a.749.749 0 0 0 .924-.924c-.038-.14-.132-.261-.471-.605l-.423-.43.397-.001c.444-.001.637-.063.825-.264A.67.67 0 0 0 22.24 7a.67.67 0 0 0-.193-.494c-.185-.196-.314-.238-.78-.258l-.432-.018.418-.425c.495-.503.565-.655.465-1.014a.8.8 0 0 0-.373-.459c-.15-.078-.525-.086-.665-.014-.055.028-.317.266-.583.529l-.483.478-.108-.253c-.303-.712-1.031-1.329-1.806-1.531-.508-.132-.658-.122-7.18.497m6.936 1.004c.162.061.277.144.44.321.325.35.344.442.344 1.637s-.019 1.287-.344 1.637c-.255.276-.529.403-.868.403-.114 0-.872-.063-1.684-.14s-1.501-.14-1.53-.14c-.042 0-.054-.1-.055-.45-.001-.352-.017-.485-.075-.61-.181-.392-.607-.558-.984-.384-.339.156-.46.399-.46.923 0 .268-.013.361-.052.361-.028 0-1.005-.09-2.17-.2s-2.148-.2-2.184-.2c-.056 0-.068-.067-.08-.473-.013-.445-.021-.484-.128-.639-.3-.432-.971-.431-1.257.002-.093.14-.109.21-.122.555-.011.259-.032.395-.062.395-.196-.001-1.75-.17-1.841-.201-.318-.107-.584-.49-.584-.839 0-.35.248-.706.58-.833.088-.034 4.613-.487 4.862-.487.021 0 .038.1.038.221 0 .376.157.643.46.783a.67.67 0 0 0 .6 0c.325-.15.46-.403.46-.863 0-.26.01-.301.07-.301.038 0 1.023-.09 2.188-.2s2.142-.2 2.17-.2c.04 0 .052.121.053.51.001.553.051.74.244.918a.746.746 0 0 0 1.199-.248c.061-.132.074-.262.075-.75l.001-.59h.238c.143 0 .327.033.458.082m-6.226 4.995c.031.009.004 2.523-.026 2.523-.06 0-.423-.301-.553-.459-.315-.383-.409-.757-.41-1.643l-.001-.522.49.049c.27.027.495.051.5.052m2.03.182c.535.039.5.01.499.414-.001.703-.115 1.11-.41 1.468-.13.158-.493.459-.553.459-.021 0-.036-.507-.036-1.203 0-1.126.004-1.201.07-1.183.038.011.232.031.43.045"/></svg>