<svg xmlns="http://www.w3.org/2000/svg" viewBox="0 0 24 24"><path d="M6.698 4.315a.749.749 0 0 0-.106 1.311c.491.331 1.171-.057 1.167-.666a.8.8 0 0 0-.075-.26c-.181-.392-.605-.558-.986-.385m.122 1.961a.73.73 0 0 0-.538.515c-.027.096-.042 1.1-.042 2.799v2.65l-1.13.001c-.621 0-1.201.017-1.287.037a.739.739 0 0 0-.348 1.246.84.84 0 0 0 .306.191c.111.031 1.269.045 3.809.045h3.65v5.48l-1.13.001c-.621 0-1.201.017-1.287.037a.739.739 0 0 0-.348 1.246.84.84 0 0 0 .306.191c.223.062 6.215.062 6.438 0a.84.84 0 0 0 .306-.191.739.739 0 0 0-.348-1.246c-.086-.02-.665-.037-1.287-.037l-1.13-.001v-5.48h3.65c2.54 0 3.698-.014 3.809-.045a.84.84 0 0 0 .306-.191.739.739 0 0 0-.348-1.246c-.086-.02-.635-.037-1.219-.037l-1.062-.001.016-.14a.69.69 0 0 0-.16-.563c-.153-.174-.278-.241-.519-.277l-.187-.028-.025-.306c-.093-1.13-.469-1.943-1.246-2.69a3.6 3.6 0 0 0-.915-.646c-.168-.085-.211-.131-.267-.284-.156-.42-.637-.877-1.047-.992a2.5 2.5 0 0 0-.496-.046c-.3 0-.358.014-.628.147a1.77 1.77 0 0 0-.809.833c-.098.213-.132.246-.396.391A4 4 0 0 0 9.401 9.75c-.139.383-.241.914-.241 1.25v.23l-.206.027a1.2 1.2 0 0 0-.315.084c-.253.131-.432.49-.38.765l.025.134H7.76V9.59c0-1.699-.015-2.703-.042-2.799a.8.8 0 0 0-.353-.448.95.95 0 0 0-.545-.067m6.828 2.448c.65.134 1.327.683 1.63 1.32.158.332.241.686.242 1.026v.17h-4.84v-.264c0-.981.748-1.936 1.74-2.221.28-.081.911-.097 1.228-.031" fill-rule="evenodd"/></svg>