<svg xmlns="http://www.w3.org/2000/svg" viewBox="0 0 24 24"><path d="M11.579 2.279c-1.063.117-2.105.748-2.691 1.631-.139.209-.15.217-.286.193-.694-.12-1.124-.115-1.713.02a3.74 3.74 0 0 0-2.558 2.12c-.328.761-.402 1.521-.23 2.377.023.113.006.133-.284.34-1.091.778-1.702 2.145-1.543 3.45a4.1 4.1 0 0 0 .511 1.518c.226.379.764.948 1.108 1.175.218.143.232.161.209.275-.173.853-.1 1.618.229 2.379.634 1.465 2.235 2.396 3.799 2.21.226-.026.456-.058.512-.071.09-.02.121.006.256.211.379.576 1.135 1.167 1.797 1.407.368.132.969.246 1.305.246s.937-.114 1.305-.246c.662-.24 1.418-.831 1.797-1.407.135-.205.166-.231.256-.211.398.088.943.118 1.308.071a3.76 3.76 0 0 0 3.318-3.507 4.2 4.2 0 0 0-.086-1.082c-.023-.114-.009-.132.209-.276.576-.379 1.167-1.135 1.407-1.797.132-.368.246-.969.246-1.305s-.114-.937-.246-1.305a3.84 3.84 0 0 0-1.331-1.735c-.29-.207-.307-.227-.284-.34.172-.856.098-1.616-.23-2.377a3.74 3.74 0 0 0-2.558-2.12c-.589-.135-1.019-.14-1.713-.02-.136.024-.147.016-.286-.193-.75-1.129-2.161-1.781-3.533-1.631m3.826 6.102a.69.69 0 0 1 .328.619c0 .164-.024.267-.084.364-.047.075-1.477 1.525-3.177 3.223-2.795 2.79-3.109 3.091-3.267 3.133a.73.73 0 0 1-.938-.717c0-.167.023-.27.084-.367.047-.075 1.476-1.525 3.177-3.223 2.324-2.322 3.122-3.094 3.212-3.114.066-.014.138-.032.16-.04.091-.033.37.035.505.122m-5.566.459c.249.127.375.325.392.615.016.288-.059.458-.284.64-.347.281-.924.139-1.111-.272a.8.8 0 0 1 .116-.837c.19-.215.616-.285.887-.146m5 5c.249.127.375.325.392.615.016.288-.059.458-.284.64-.347.281-.924.139-1.111-.272a.8.8 0 0 1 .116-.837c.19-.215.616-.285.887-.146"/></svg>