<svg xmlns="http://www.w3.org/2000/svg" viewBox="0 0 24 24"><path d="M10.82 2.276a.73.73 0 0 0-.538.515c-.023.082-.042.449-.042.817v.667l-.19.025c-2.118.283-3.804 1.095-5.231 2.52-1.344 1.343-2.192 3.027-2.485 4.94-.096.63-.096 1.85 0 2.48.398 2.594 1.87 4.839 4.07 6.205 1.518.943 3.456 1.42 5.206 1.282 2.156-.17 4.071-1.045 5.57-2.546 1.505-1.508 2.377-3.414 2.547-5.571.213-2.707-.97-5.519-3.059-7.27-1.37-1.148-2.856-1.791-4.718-2.04l-.19-.025v-.667c0-.729-.03-.903-.186-1.088a.78.78 0 0 0-.754-.244m7 0c-.36.09-.579.395-.58.808v.145l-.241.025a1.3 1.3 0 0 0-.355.084c-.262.135-.437.491-.384.777.076.402.387.644.83.645.147 0 .15.003.15.15.001.328.158.625.396.748.538.278 1.123-.111 1.124-.748 0-.147.003-.15.15-.15.443-.001.754-.243.83-.645.053-.286-.122-.642-.384-.777a1.3 1.3 0 0 0-.355-.084l-.241-.025v-.145c-.001-.322-.16-.621-.395-.741a.95.95 0 0 0-.545-.067m3 3c-.36.09-.579.395-.58.808v.145l-.241.025a1.3 1.3 0 0 0-.355.084c-.262.135-.437.491-.384.777.076.402.387.644.83.645.147 0 .15.003.15.15.001.328.158.625.396.748.538.278 1.123-.111 1.124-.748 0-.147.003-.15.15-.15.443-.001.754-.243.83-.645.053-.286-.122-.642-.384-.777a1.3 1.3 0 0 0-.355-.084l-.241-.025v-.145c-.001-.322-.16-.621-.395-.741a.95.95 0 0 0-.545-.067m-9.488.607c.654.433 1.354 2.094 1.665 3.95.083.5.178 1.364.222 2.037l.024.37H8.757l.024-.37c.045-.681.141-1.566.222-2.05.311-1.842 1.014-3.506 1.665-3.937.245-.162.419-.162.664 0m-2.907.602c-.42.924-.779 2.209-.964 3.454-.087.584-.181 1.576-.181 1.908 0 .435.188.393-1.764.393-1.608 0-1.716-.004-1.716-.07 0-.122.11-.697.2-1.05.485-1.898 1.912-3.655 3.72-4.581.254-.13.815-.373.831-.36.005.005-.051.143-.126.306m5.542-.083a7 7 0 0 1 2.182 1.523 7.1 7.1 0 0 1 1.786 3.003c.117.388.265 1.09.265 1.259 0 .043-.319.053-1.716.053-1.953 0-1.764.043-1.764-.397 0-.736-.221-2.37-.445-3.283-.199-.815-.508-1.712-.761-2.21-.041-.082-.057-.15-.035-.15.023 0 .243.091.488.202M7.256 13.89c.011.072.031.345.044.609.093 1.843.58 3.957 1.186 5.151.098.195.07.193-.423-.029-1.584-.715-2.895-1.999-3.61-3.537a7.5 7.5 0 0 1-.633-2.114l-.028-.21h3.444zm5.964.22c-.121 1.725-.314 2.824-.702 3.986-.418 1.251-1.05 2.144-1.518 2.144-.715 0-1.624-1.849-1.997-4.06a25 25 0 0 1-.222-2.05l-.024-.37h4.487zm4.963-.14c-.276 2.117-1.604 4.137-3.443 5.238-.39.233-1.3.664-1.3.615 0-.007.057-.136.126-.287.424-.932.789-2.234.973-3.475.087-.584.181-1.576.181-1.908 0-.435-.189-.393 1.769-.393h1.721z"/></svg>