<svg xmlns="http://www.w3.org/2000/svg" viewBox="0 0 24 24"><path d="M11.58 2.28a3.4 3.4 0 0 0-.938.227c-.656.258-1.332.788-1.706 1.335-.183.267-.202.283-.315.26-1.31-.263-2.533.075-3.455.955-.659.63-1.031 1.394-1.136 2.332-.044.388-.017.829.074 1.252.019.089-.012.124-.262.295-.845.577-1.444 1.596-1.57 2.667-.153 1.306.489 2.722 1.57 3.461.25.171.281.206.262.295-.012.056-.044.268-.071.471-.108.814.14 1.829.618 2.525.178.26.608.702.885.91.839.632 2.009.869 3.105.631.089-.019.124.012.295.262.577.845 1.596 1.444 2.667 1.57 1.306.153 2.722-.489 3.461-1.57.171-.25.206-.281.295-.262 1.096.238 2.266.001 3.105-.631.277-.208.707-.65.885-.91.478-.696.726-1.711.618-2.525a10 10 0 0 0-.071-.471c-.019-.089.012-.124.262-.295 1.08-.738 1.723-2.156 1.57-3.461-.126-1.071-.725-2.09-1.57-2.667-.25-.171-.281-.206-.262-.295.012-.056.044-.268.071-.471.115-.868-.164-1.919-.698-2.63-.91-1.208-2.362-1.745-3.89-1.438-.113.023-.132.007-.315-.26-.49-.718-1.4-1.323-2.25-1.498a4.5 4.5 0 0 0-1.234-.064m1.169 1.608c.461.165.913.53 1.178.953.035.056.12.238.19.405.138.332.229.439.452.532s.386.076.797-.083c.903-.35 1.799-.173 2.454.484.446.447.657.954.658 1.581 0 .362-.043.569-.199.947-.133.323-.148.506-.057.724.093.223.2.314.532.452.167.07.349.155.405.19.421.264.786.713.955 1.178.091.25.105.351.105.749 0 .377-.017.507-.092.72a2.28 2.28 0 0 1-1.317 1.373c-.342.139-.486.25-.574.443-.102.225-.094.421.028.715.164.393.215.625.214.969-.002.65-.207 1.148-.661 1.605-.448.451-.95.655-1.612.655-.324 0-.582-.06-.984-.228-.477-.2-.861-.048-1.065.421-.258.593-.464.869-.851 1.144-.426.302-.795.421-1.305.421s-.879-.119-1.305-.421c-.387-.275-.593-.551-.851-1.144-.204-.469-.588-.621-1.065-.421-.402.168-.66.228-.984.228-.662 0-1.163-.203-1.613-.655-.456-.458-.663-.962-.662-1.617.001-.335.054-.567.22-.967.2-.48.069-.857-.368-1.062-.549-.258-.646-.313-.825-.465a2.6 2.6 0 0 1-.661-.965c-.091-.249-.105-.352-.105-.749s.014-.5.105-.749c.169-.465.534-.914.955-1.178.056-.035.238-.12.405-.19.332-.138.439-.229.532-.452.088-.212.077-.397-.042-.682-.162-.389-.215-.624-.216-.957-.001-.654.206-1.16.659-1.613.66-.66 1.554-.835 2.461-.481.453.177.661.178.923.005.128-.085.191-.17.281-.376.258-.593.463-.868.853-1.147.268-.19.355-.232.723-.345.352-.108.942-.084 1.329.053m2.071 4.388a1 1 0 0 0-.2.075c-.044.024-1.478 1.445-3.187 3.156-2.808 2.814-3.111 3.13-3.153 3.288a.75.75 0 0 0 .925.925c.158-.042.474-.345 3.288-3.153 1.712-1.709 3.137-3.153 3.166-3.208.189-.355.048-.841-.294-1.016a.95.95 0 0 0-.545-.067m-5.668.563a.69.69 0 0 0-.383.616c-.016.289.059.458.285.641.168.135.485.183.714.108.321-.106.541-.516.464-.862-.046-.206-.114-.309-.296-.448-.195-.149-.563-.175-.784-.055m5 5a.69.69 0 0 0-.383.616c-.016.289.059.458.285.641.168.135.485.183.714.108.321-.106.541-.516.464-.862-.046-.206-.114-.309-.296-.448-.195-.149-.563-.175-.784-.055" fill-rule="evenodd"/></svg>