<svg xmlns="http://www.w3.org/2000/svg" viewBox="0 0 24 24"><path d="M11.66 5.28c-.723.1-1.383.53-1.865 1.215-.202.288-.414.778-.46 1.066-.024.153-.043.176-.191.233a10.4 10.4 0 0 0-1.424.749 7.5 7.5 0 0 0-1.302 1.102 7.4 7.4 0 0 0-1.754 2.88c-.32.948-.424 1.677-.424 2.965v.75l-.63.001c-.861.001-1.03.049-1.237.354-.268.393-.049.993.408 1.12.226.063 18.212.063 18.438 0 .457-.127.676-.727.408-1.12-.207-.305-.376-.353-1.237-.354l-.63-.001v-.753c0-1.273-.107-2.023-.424-2.962a7.77 7.77 0 0 0-3.056-3.982 10.4 10.4 0 0 0-1.424-.749c-.148-.057-.167-.079-.191-.234-.044-.272-.238-.728-.438-1.03-.601-.903-1.589-1.384-2.567-1.25m.76 1.576c.18.085.541.402.497.437a4 4 0 0 1-.467-.019 8 8 0 0 0-.9 0 4 4 0 0 1-.467.019c-.01-.008.053-.088.14-.179.214-.223.5-.353.777-.353.149 0 .285.031.42.095m.72 2.002c.51.093 1.246.348 1.73.601a6.24 6.24 0 0 1 3.052 3.584c.241.733.285 1.046.307 2.187l.02 1.01H5.751l.021-1.03c.024-1.145.063-1.428.293-2.14.725-2.243 2.713-3.915 5.055-4.252.481-.07 1.529-.049 2.02.04" fill-rule="evenodd"/></svg>