<svg xmlns="http://www.w3.org/2000/svg" viewBox="0 0 24 24"><path d="M5.617 3.283q-.873.101-1.552.781a2.74 2.74 0 0 0-.696 1.116l-.109.32-.011 6.34c-.012 6.858-.019 6.628.196 7.173a2.87 2.87 0 0 0 1.605 1.568l.19.07v.204c.001.304.071.506.236.67.501.501 1.283.127 1.284-.615v-.15h10.48v.15c.001.637.586 1.026 1.124.748.253-.131.395-.419.396-.803v-.205l.235-.088c.655-.245 1.278-.856 1.546-1.517.23-.567.222-.294.21-7.205L20.74 5.5l-.109-.32a2.74 2.74 0 0 0-.696-1.116c-.472-.471-.961-.709-1.606-.783-.425-.049-12.293-.046-12.712.002M14.24 6.5v1.74H4.76V7.005c0-1.349.01-1.425.236-1.733.14-.19.38-.373.59-.45.129-.047.855-.057 4.404-.059l4.25-.003zm4.288-1.627c.239.118.481.36.599.599.091.183.093.222.105 1.478l.011 1.29H15.76V4.757l1.29.011c1.256.012 1.295.014 1.478.105m-11.376.969a1 1 0 0 0-.26.225c-.099.13-.112.181-.112.436 0 .263.011.303.121.439.252.312.131.298 2.59.298 2.072 0 2.2-.004 2.341-.076a.72.72 0 0 0 .408-.664.72.72 0 0 0-.408-.664c-.141-.072-.267-.076-2.34-.074-2.095.001-2.199.005-2.34.08m10-.003a.69.69 0 0 0-.383.616c-.016.289.059.458.285.641.168.135.485.183.714.108.321-.106.541-.516.464-.862-.046-.206-.114-.309-.296-.448-.195-.149-.563-.175-.784-.055m-7.158 6.077c.533.179.888.399 1.29.8.398.399.618.751.804 1.29.124.359.129.399.129.994s-.005.635-.129.994a3.1 3.1 0 0 1-.804 1.29 3.1 3.1 0 0 1-1.293.809c-.352.119-.402.125-.991.125s-.639-.006-.991-.125a3.1 3.1 0 0 1-1.293-.809A3.06 3.06 0 0 1 5.913 16c-.125-.365-.13-.404-.13-1s.005-.635.13-1c.171-.495.39-.86.737-1.226a3.2 3.2 0 0 1 1.197-.803c.471-.177.685-.209 1.273-.194.433.011.55.03.874.139m3.076-.096c.928.219 1.688 1.027 2.035 2.162.1.328.109.413.109 1.018s-.009.69-.109 1.018c-.209.685-.599 1.306-1.045 1.665-.687.553-1.668.726-2.074.365-.116-.102-.224-.368-.224-.548s.108-.446.224-.548a.93.93 0 0 1 .491-.192c.066 0 .218-.036.337-.081.255-.096.563-.398.719-.705.11-.218.227-.718.227-.974a2.7 2.7 0 0 0-.25-1.012c-.225-.424-.684-.748-1.059-.748-.117 0-.363-.101-.465-.192-.113-.1-.224-.366-.225-.539a.9.9 0 0 1 .191-.523c.191-.216.63-.281 1.118-.166m3 0c.928.219 1.688 1.027 2.035 2.162.1.328.109.413.109 1.018s-.009.69-.109 1.018c-.209.685-.599 1.306-1.045 1.665-.687.553-1.668.726-2.074.365-.116-.102-.224-.368-.224-.548s.108-.446.224-.548a.93.93 0 0 1 .491-.192c.066 0 .218-.036.337-.081.255-.096.563-.398.719-.705.11-.218.227-.718.227-.974a2.7 2.7 0 0 0-.25-1.012c-.225-.424-.684-.748-1.059-.748-.117 0-.363-.101-.465-.192-.113-.1-.224-.366-.225-.539a.9.9 0 0 1 .191-.523c.191-.216.63-.281 1.118-.166m-7.383 1.463c-.31.054-.619.215-.887.463a1.71 1.71 0 0 0-.002 2.509c.693.661 1.711.661 2.404 0 .814-.777.703-2.058-.234-2.704a1.84 1.84 0 0 0-1.281-.268" fill-rule="evenodd"/></svg>