<svg fill="none" xmlns="http://www.w3.org/2000/svg" viewBox="0 0 24 24"><path d="M11.660 5.280 C 10.937 5.380,10.277 5.810,9.795 6.495 C 9.593 6.783,9.381 7.273,9.335 7.561 C 9.311 7.714,9.292 7.737,9.144 7.794 C 8.815 7.920,8.051 8.322,7.720 8.543 C 7.237 8.867,6.879 9.170,6.418 9.645 C 5.599 10.489,5.042 11.403,4.664 12.525 C 4.344 13.473,4.240 14.202,4.240 15.490 L 4.240 16.240 3.610 16.241 C 2.749 16.242,2.580 16.290,2.373 16.595 C 2.105 16.988,2.324 17.588,2.781 17.715 C 3.007 17.778,20.993 17.778,21.219 17.715 C 21.676 17.588,21.895 16.988,21.627 16.595 C 21.420 16.290,21.251 16.242,20.390 16.241 L 19.760 16.240 19.760 15.487 C 19.760 14.214,19.653 13.464,19.336 12.525 C 18.787 10.897,17.721 9.508,16.280 8.543 C 15.949 8.322,15.185 7.920,14.856 7.794 C 14.708 7.737,14.689 7.715,14.665 7.560 C 14.621 7.288,14.427 6.832,14.227 6.530 C 13.626 5.627,12.638 5.146,11.660 5.280 M12.420 6.856 C 12.600 6.941,12.961 7.258,12.917 7.293 C 12.908 7.300,12.697 7.292,12.450 7.274 C 12.203 7.256,11.797 7.256,11.550 7.274 C 11.303 7.292,11.092 7.300,11.083 7.293 C 11.073 7.285,11.136 7.205,11.223 7.114 C 11.437 6.891,11.723 6.761,12.000 6.761 C 12.149 6.761,12.285 6.792,12.420 6.856 M12.829 8.820 C 14.240 9.020,15.408 9.601,16.403 10.597 C 17.027 11.220,17.443 11.840,17.763 12.620 C 18.119 13.491,18.238 14.188,18.239 15.410 L 18.240 16.240 12.000 16.240 L 5.760 16.240 5.761 15.410 C 5.762 14.217,5.867 13.573,6.200 12.709 C 6.385 12.232,6.677 11.704,6.991 11.280 C 7.276 10.895,7.895 10.276,8.280 9.991 C 9.575 9.031,11.261 8.597,12.829 8.820 " stroke="none" fill-rule="evenodd" fill="currentColor"/></svg>