<svg xmlns="http://www.w3.org/2000/svg" viewBox="0 0 24 24"><path d="M5.58 3.267c-.791.108-1.635.71-2.008 1.433-.341.662-.312-.022-.312 7.3v6.5l.109.32c.06.176.177.435.26.575.296.498.868.985 1.378 1.171l.233.085v.204c.001.304.071.506.236.67.501.501 1.283.127 1.284-.615v-.15h10.48v.15c.001.637.586 1.026 1.124.748.253-.131.395-.419.396-.803v-.204l.233-.085c.51-.186 1.082-.673 1.378-1.171.083-.14.2-.399.26-.575l.109-.32V12c0-6.199-.003-6.511-.074-6.74-.279-.911-.974-1.613-1.906-1.926-.21-.071-.511-.074-6.64-.078-3.531-.003-6.474.003-6.54.011M14.24 6.5v1.74H4.76V7.026c0-.751.016-1.266.043-1.35a1.29 1.29 0 0 1 .837-.861c.102-.034 1.274-.048 4.37-.051l4.23-.004zm4.188-1.654c.314.115.611.412.726.726.081.217.086.303.086 1.45V8.24h-3.48V4.76h1.218c1.147 0 1.233.005 1.45.086m-11.276.996a1 1 0 0 0-.26.225c-.099.13-.112.181-.112.436 0 .263.011.303.121.439.252.312.131.298 2.59.298 2.072 0 2.2-.004 2.341-.076a.72.72 0 0 0 .408-.664.72.72 0 0 0-.408-.664c-.141-.072-.267-.076-2.34-.074-2.095.001-2.199.005-2.34.08m10-.003a.69.69 0 0 0-.383.616c-.016.289.059.458.285.641.168.135.485.183.714.108.321-.106.541-.516.464-.862-.046-.206-.114-.309-.296-.448-.195-.149-.563-.175-.784-.055m2.079 8.211-.011 4.29-.093.189c-.132.268-.416.534-.674.63-.213.08-.297.081-6.453.081s-6.24-.001-6.453-.081c-.258-.096-.542-.362-.674-.63l-.093-.189-.011-4.29-.01-4.29h14.482zM8.433 11.798c-.731.134-1.287.444-1.817 1.014-.591.636-.856 1.314-.856 2.188 0 .934.28 1.6.96 2.28.677.677 1.349.96 2.28.96s1.603-.283 2.28-.96.96-1.349.96-2.28c0-.869-.268-1.555-.856-2.188-.445-.478-.91-.773-1.47-.934-.329-.093-1.16-.138-1.481-.08m3.719.041a.69.69 0 0 0-.383.616c-.025.442.219.719.694.789.366.053.484.103.685.288.395.363.58.831.58 1.468 0 .61-.14.995-.505 1.393a1 1 0 0 1-.69.352c-.296.033-.498.135-.641.322-.099.13-.112.181-.112.436 0 .263.011.303.121.439.207.256.343.307.759.284.606-.032 1.114-.265 1.585-.726.717-.703 1.032-1.563.984-2.689-.029-.681-.16-1.15-.462-1.649-.517-.856-1.255-1.341-2.107-1.386-.309-.016-.381-.007-.508.063m3 0a.69.69 0 0 0-.383.616c-.025.442.219.719.694.789.366.053.484.103.685.288.395.363.58.831.58 1.468 0 .61-.14.995-.505 1.393a1 1 0 0 1-.69.352c-.296.033-.498.135-.641.322-.099.13-.112.181-.112.436 0 .263.011.303.121.439.207.256.343.307.759.284.606-.032 1.114-.265 1.585-.726.717-.703 1.032-1.563.984-2.689-.029-.681-.16-1.15-.462-1.649-.517-.856-1.255-1.341-2.107-1.386-.309-.016-.381-.007-.508.063M9.5 13.328c.395.098.857.494 1.069.915.218.432.218 1.077.001 1.517-.145.293-.547.696-.817.819a1.8 1.8 0 0 1-1.023.143 1.57 1.57 0 0 1-.943-.491c-.297-.301-.452-.597-.503-.961-.082-.585.081-1.076.496-1.49q.704-.705 1.72-.452" fill-rule="evenodd"/></svg>