<svg xmlns="http://www.w3.org/2000/svg" viewBox="0 0 24 24"><path d="M7.617 2.283a2.8 2.8 0 0 0-1.042.362c-.304.182-.761.645-.946.959-.285.484-.45 1.222-.352 1.584a.75.75 0 0 0 1.203.386c.174-.147.24-.296.278-.634.018-.162.072-.376.12-.476.112-.231.356-.474.594-.591.187-.092.199-.093 1.978-.104l1.79-.011v.468l-.451.045c-.746.073-1.221.291-1.724.793a2.65 2.65 0 0 0-.691 1.116c-.086.267-.107.42-.124.922l-.02.602-.165.094c-.824.471-1.438 1.308-1.716 2.342-.086.318-.086.351-.099 5.1-.01 3.358 0 4.857.031 5.04.065.387.203.652.489.937.293.293.496.407.864.485.394.084 8.338.084 8.732 0 .368-.078.571-.192.864-.485.286-.285.424-.55.489-.937.031-.183.041-1.682.031-5.04-.013-4.749-.013-4.782-.099-5.1-.278-1.034-.892-1.871-1.716-2.342l-.165-.094-.02-.602c-.017-.502-.038-.655-.124-.922a2.65 2.65 0 0 0-.691-1.116c-.503-.502-.978-.72-1.724-.793l-.451-.045V3.76h1.15c.716 0 1.21-.017 1.309-.045a.84.84 0 0 0 .306-.191.739.739 0 0 0-.348-1.246c-.196-.045-7.169-.04-7.56.005m5.911 3.59c.425.209.68.599.706 1.077l.015.29H9.76v-.235c0-.406.184-.767.513-1.009.309-.228.349-.233 1.767-.224 1.27.008 1.304.01 1.488.101" fill-rule="evenodd"/></svg>