<svg xmlns="http://www.w3.org/2000/svg" viewBox="0 0 24 24"><path d="M11.5 1.857c-.154.03-1.423.337-2.82.682-2.988.739-3.076.771-3.596 1.295a2.8 2.8 0 0 0-.715 1.146l-.109.32v13.4l.109.321c.307.906 1.002 1.586 1.871 1.831.121.035 1.363.346 2.76.693l2.54.631.48-.001c.409-.001.527-.017.8-.107a2.8 2.8 0 0 0 1.414-1.031l.186-.27 2.04-.014 2.04-.015.32-.108c.443-.15.783-.361 1.116-.694s.544-.671.695-1.116l.109-.32v-13l-.109-.32a2.74 2.74 0 0 0-.696-1.116c-.472-.471-.961-.709-1.606-.783-.192-.022-1.15-.041-2.129-.042l-1.78-.002-.19-.278c-.33-.482-.941-.904-1.53-1.058a3.1 3.1 0 0 0-1.2-.044m1.053 1.586c.291.145.496.37.607.665.079.213.08.303.08 7.892s-.001 7.679-.08 7.892c-.176.47-.644.8-1.129.796-.35-.003-5.357-1.243-5.64-1.397a1.26 1.26 0 0 1-.521-.542l-.09-.169V5.42l.09-.169c.137-.256.307-.429.54-.55.144-.074 1.009-.306 2.77-.742 2.915-.721 2.952-.727 3.373-.516m5.975 1.43c.239.118.481.36.599.599l.093.188v12.68l-.093.189c-.132.268-.416.534-.674.63-.204.077-.309.081-1.955.081H14.76V4.758l1.79.011c1.779.011 1.791.012 1.978.104m-7.108 6.385a2 2 0 0 1-.149.039c-.147.032-.39.251-.457.411-.252.604.33 1.195.995 1.01a.75.75 0 0 0 .513-.91.8.8 0 0 0-.361-.467c-.109-.057-.467-.112-.541-.083" fill-rule="evenodd"/></svg>