<svg xmlns="http://www.w3.org/2000/svg" viewBox="0 0 24 24"><path d="M11.478 2.28c-.896.084-2.233.434-3.454.903-.47.181-.672.347-.744.615-.044.164-.026.287.216 1.505l.264 1.328v1.901c0 1.521.012 1.963.06 2.214A4.24 4.24 0 0 0 9.005 13c.176.176.306.32.289.32-.016 0-.877.181-1.912.402-2.124.455-2.246.495-2.617.867-.259.26-.417.557-.481.908-.029.154-.044 1.009-.043 2.42 0 2.331.014 2.52.202 2.888.113.223.529.639.752.752.403.206.253.202 6.805.202s6.402.004 6.805-.202c.223-.113.639-.529.752-.752.188-.368.202-.557.202-2.888.001-1.388-.015-2.267-.042-2.415a1.7 1.7 0 0 0-.483-.913c-.369-.372-.491-.412-2.616-.867a162 162 0 0 0-1.912-.402c-.017 0 .113-.144.289-.32a4.24 4.24 0 0 0 1.185-2.254c.048-.251.06-.693.06-2.214V6.631l.264-1.328c.242-1.218.26-1.341.216-1.505-.097-.358-.346-.501-1.603-.918-1.462-.484-2.698-.688-3.639-.6m1.249 1.539c.489.073 1.05.214 1.803.45.455.142.59.2.59.252 0 .059-.16.892-.22 1.149l-.022.09H9.122L9.1 5.67c-.06-.257-.22-1.09-.22-1.149 0-.051.136-.11.59-.253 1.505-.474 2.334-.588 3.257-.449m1.753 3.457c0 .087-.462.447-.767.597-.578.286-.858.342-1.713.342s-1.135-.056-1.713-.342c-.305-.15-.767-.51-.767-.597 0-.021 1.038-.036 2.48-.036s2.48.015 2.48.036M9.64 9.227c.739.364 1.413.509 2.36.509s1.621-.145 2.36-.509c.187-.091.353-.173.37-.18s.03.199.03.46c-.001 1.218-.199 1.802-.824 2.428a2.7 2.7 0 0 1-1.116.693c-.277.091-.387.105-.82.105s-.543-.014-.82-.105a2.7 2.7 0 0 1-1.116-.693c-.625-.626-.823-1.21-.824-2.428 0-.261.014-.468.03-.46.017.007.183.089.37.18m5.417 5.696c1.652.354 3.044.669 3.093.701l.09.058v2.206c0 1.996-.006 2.213-.066 2.279-.059.065-.138.073-.74.073h-.674v-.65c0-.711-.031-.885-.186-1.07-.149-.177-.321-.253-.574-.253s-.425.076-.574.253c-.155.185-.186.359-.186 1.07v.65H8.76v-.65c0-.711-.031-.885-.186-1.07-.149-.177-.321-.253-.574-.253s-.425.076-.574.253c-.155.185-.186.359-.186 1.07v.65h-.667c-.564 0-.678-.01-.74-.066-.069-.063-.073-.186-.073-2.279v-2.213l.09-.058c.085-.055 5.899-1.33 6.107-1.339.054-.003 1.449.284 3.1.638m-3.237.353c-.5.125-.73.71-.446 1.132a.75.75 0 0 0 1.311-.106.74.74 0 0 0-.137-.815.8.8 0 0 0-.728-.211m-.12 2.541c-.248.111-.457.423-.459.685-.001.185.177.504.345.618.121.082.196.1.414.1s.293-.018.414-.1c.168-.114.346-.433.345-.618-.002-.263-.243-.605-.492-.699a.9.9 0 0 0-.567.014" fill-rule="evenodd"/></svg>