<svg xmlns="http://www.w3.org/2000/svg" viewBox="0 0 24 24"><path d="M11.478 2.28c-.896.084-2.233.434-3.454.903-.47.181-.672.347-.744.615-.044.164-.026.287.216 1.505l.264 1.328v1.901c0 1.521.012 1.963.06 2.214A4.24 4.24 0 0 0 9.005 13c.176.176.306.32.289.32-.016 0-.877.181-1.912.402-2.124.455-2.246.495-2.617.867-.259.26-.417.557-.481.908-.029.154-.044 1.009-.043 2.42 0 2.331.014 2.52.202 2.888.113.223.529.639.752.752.403.206.253.202 6.805.202s6.402.004 6.805-.202c.223-.113.639-.529.752-.752.188-.368.202-.557.202-2.888.001-1.388-.015-2.267-.042-2.415a1.7 1.7 0 0 0-.483-.913c-.369-.372-.491-.412-2.616-.867a162 162 0 0 0-1.912-.402c-.017 0 .113-.144.289-.32a4.24 4.24 0 0 0 1.185-2.254c.048-.251.06-.693.06-2.214V6.631l.264-1.328c.242-1.218.26-1.341.216-1.505-.097-.358-.346-.501-1.603-.918-1.462-.484-2.698-.688-3.639-.6m1.677 1.619c.496.106 1.55.409 1.821.522.079.033.144.075.144.094 0 .034-.179.941-.22 1.115l-.022.09H9.122L9.1 5.63a33 33 0 0 1-.22-1.115c0-.112 1.752-.608 2.58-.731.33-.048 1.215.011 1.695.115m1.325 3.377c0 .087-.462.447-.767.597-.578.286-.858.342-1.713.342s-1.135-.056-1.713-.342c-.305-.15-.767-.51-.767-.597 0-.021 1.038-.036 2.48-.036s2.48.015 2.48.036M9.64 9.227c.739.364 1.413.509 2.36.509s1.621-.145 2.36-.509c.187-.091.353-.173.37-.18s.03.199.03.46c-.001 1.218-.199 1.802-.824 2.428a2.7 2.7 0 0 1-1.116.693c-.277.091-.387.105-.82.105s-.543-.014-.82-.105a2.7 2.7 0 0 1-1.116-.693c-.625-.626-.823-1.21-.824-2.428 0-.261.014-.468.03-.46.017.007.183.089.37.18m5.4 5.697c1.661.355 3.061.67 3.11.701l.09.057v2.206c0 1.996-.006 2.213-.066 2.279-.059.065-.138.073-.74.073h-.674v-.681c0-.525-.014-.716-.062-.83a.745.745 0 0 0-1.382-.029c-.063.136-.074.265-.075.85l-.001.69H8.76l-.001-.69c-.001-.748-.036-.907-.244-1.098a.746.746 0 0 0-1.199.248c-.063.136-.074.265-.075.85l-.001.69h-.667c-.564 0-.678-.01-.74-.066-.069-.063-.073-.186-.073-2.275 0-1.969.007-2.215.064-2.262.051-.043 5.928-1.339 6.136-1.354.033-.002 1.419.286 3.08.641m-3.34.392a.745.745 0 0 0 .029 1.382.65.65 0 0 0 .542 0 .748.748 0 0 0 0-1.396.67.67 0 0 0-.571.014m-.053 2.53a.737.737 0 0 0-.326.975c.255.527 1.017.567 1.325.069a.78.78 0 0 0-.02-.802.77.77 0 0 0-.979-.242"/></svg>