<svg xmlns="http://www.w3.org/2000/svg" viewBox="0 0 24 24"><path d="M11.478 2.28c-.896.084-2.233.434-3.454.903-.47.181-.672.347-.744.615-.044.164-.026.287.216 1.505l.264 1.328v1.901c0 1.521.012 1.963.06 2.214A4.24 4.24 0 0 0 9.005 13c.176.176.306.32.289.32-.016 0-.877.181-1.912.402-2.124.455-2.246.495-2.617.867-.259.26-.417.557-.481.908-.029.154-.044 1.009-.043 2.42 0 2.331.014 2.52.202 2.888.113.223.529.639.752.752.403.206.253.202 6.805.202s6.402.004 6.805-.202c.223-.113.639-.529.752-.752.188-.368.202-.557.202-2.888.001-1.388-.015-2.267-.042-2.415a1.7 1.7 0 0 0-.483-.913c-.369-.372-.491-.412-2.616-.867a162 162 0 0 0-1.912-.402c-.017 0 .113-.144.289-.32a4.24 4.24 0 0 0 1.185-2.254c.048-.251.06-.693.06-2.214V6.631l.264-1.328c.242-1.218.26-1.341.216-1.505-.097-.358-.346-.501-1.603-.918-1.462-.484-2.698-.688-3.639-.6m3.002 4.996c0 .087-.462.447-.767.597-.578.286-.858.342-1.713.342s-1.135-.056-1.713-.342c-.305-.15-.767-.51-.767-.597 0-.021 1.038-.036 2.48-.036s2.48.015 2.48.036M9.64 9.227c.739.364 1.413.509 2.36.509s1.621-.145 2.36-.509c.187-.091.353-.173.37-.18s.03.199.03.46c-.001 1.218-.199 1.802-.824 2.428a2.7 2.7 0 0 1-1.116.693c-.277.091-.387.105-.82.105s-.543-.014-.82-.105a2.7 2.7 0 0 1-1.116-.693c-.625-.626-.823-1.21-.824-2.428 0-.261.014-.468.03-.46.017.007.183.089.37.18m2.72 6.114a.78.78 0 0 1 .338.388c.275.658-.513 1.297-1.106.897-.545-.367-.405-1.192.228-1.35a.95.95 0 0 1 .54.065m-.093 2.462c.249.094.49.436.492.699.001.185-.177.504-.345.618-.121.082-.196.1-.414.1-.335 0-.516-.109-.661-.398-.118-.235-.123-.384-.023-.606.171-.377.579-.554.951-.413"/></svg>