<svg xmlns="http://www.w3.org/2000/svg" viewBox="0 0 24 24"><path d="M11.478 2.28c-.896.084-2.233.434-3.454.903-.47.181-.672.347-.744.615-.044.164-.026.287.216 1.505l.264 1.328v1.901c0 1.521.012 1.963.06 2.214A4.24 4.24 0 0 0 9.005 13c.176.176.306.32.289.32-.016 0-.877.181-1.912.402-1.58.337-1.928.423-2.168.54a1.73 1.73 0 0 0-.929 1.21q-.045.21-.044 2.44c0 2.38.01 2.517.204 2.897.118.231.476.597.709.724.432.235.147.226 6.846.226s6.414.009 6.846-.226c.233-.127.591-.493.709-.724.194-.38.204-.517.204-2.897q.001-2.23-.044-2.44a1.73 1.73 0 0 0-.929-1.21c-.24-.117-.588-.203-2.168-.54a162 162 0 0 0-1.912-.402c-.017 0 .113-.144.289-.32a4.24 4.24 0 0 0 1.185-2.254c.048-.251.06-.693.06-2.214V6.631l.264-1.328c.242-1.218.26-1.341.216-1.505-.097-.358-.346-.501-1.603-.918-1.462-.484-2.698-.688-3.639-.6m3.002 4.996c0 .087-.462.447-.767.597-.578.286-.858.342-1.713.342s-1.135-.056-1.713-.342c-.305-.15-.767-.51-.767-.597 0-.021 1.038-.036 2.48-.036s2.48.015 2.48.036M9.64 9.227c.739.364 1.413.509 2.36.509s1.621-.145 2.36-.509c.187-.091.353-.173.37-.18s.03.199.03.46c-.001 1.218-.199 1.802-.824 2.428a2.7 2.7 0 0 1-1.116.693c-.277.091-.387.105-.82.105s-.543-.014-.82-.105a2.7 2.7 0 0 1-1.116-.693c-.625-.626-.823-1.21-.824-2.428 0-.261.014-.468.03-.46.017.007.183.089.37.18m2.765 6.154a.69.69 0 0 1 .328.615.9.9 0 0 1-.065.349.78.78 0 0 1-.786.395c-.647-.109-.848-.966-.315-1.345a.75.75 0 0 1 .838-.014m-.138 2.422a.75.75 0 0 1 .464.697.69.69 0 0 1-.237.547c-.465.44-1.225.1-1.225-.547 0-.3.189-.591.451-.695a.95.95 0 0 1 .547-.002" fill-rule="evenodd"/></svg>