<svg fill="none" xmlns="http://www.w3.org/2000/svg" viewBox="0 0 24 24"><path d="M11.478 2.280 C 10.582 2.364,9.245 2.714,8.024 3.183 C 7.554 3.364,7.352 3.530,7.280 3.798 C 7.236 3.962,7.254 4.085,7.496 5.303 L 7.760 6.631 7.760 8.532 C 7.760 10.053,7.772 10.495,7.820 10.746 C 7.989 11.628,8.383 12.378,9.005 13.000 C 9.181 13.176,9.311 13.320,9.294 13.320 C 9.278 13.320,8.417 13.501,7.382 13.722 C 5.258 14.177,5.136 14.217,4.765 14.589 C 4.506 14.849,4.348 15.146,4.284 15.497 C 4.255 15.651,4.240 16.506,4.241 17.917 C 4.241 20.248,4.255 20.437,4.443 20.805 C 4.556 21.028,4.972 21.444,5.195 21.557 C 5.598 21.763,5.448 21.759,12.000 21.759 C 18.552 21.759,18.402 21.763,18.805 21.557 C 19.028 21.444,19.444 21.028,19.557 20.805 C 19.745 20.437,19.759 20.248,19.759 17.917 C 19.760 16.529,19.744 15.650,19.717 15.502 C 19.653 15.154,19.491 14.848,19.234 14.589 C 18.865 14.217,18.743 14.177,16.618 13.722 C 15.583 13.501,14.722 13.320,14.706 13.320 C 14.689 13.320,14.819 13.176,14.995 13.000 C 15.617 12.378,16.011 11.628,16.180 10.746 C 16.228 10.495,16.240 10.053,16.240 8.532 L 16.240 6.631 16.504 5.303 C 16.746 4.085,16.764 3.962,16.720 3.798 C 16.623 3.440,16.374 3.297,15.117 2.880 C 13.655 2.396,12.419 2.192,11.478 2.280 M14.480 7.276 C 14.480 7.363,14.018 7.723,13.713 7.873 C 13.135 8.159,12.855 8.215,12.000 8.215 C 11.145 8.215,10.865 8.159,10.287 7.873 C 9.982 7.723,9.520 7.363,9.520 7.276 C 9.520 7.255,10.558 7.240,12.000 7.240 C 13.442 7.240,14.480 7.255,14.480 7.276 M9.640 9.227 C 10.379 9.591,11.053 9.736,12.000 9.736 C 12.947 9.736,13.621 9.591,14.360 9.227 C 14.547 9.136,14.713 9.054,14.730 9.047 C 14.747 9.039,14.760 9.246,14.760 9.507 C 14.759 10.725,14.561 11.309,13.936 11.935 C 13.601 12.271,13.261 12.482,12.820 12.628 C 12.543 12.719,12.433 12.733,12.000 12.733 C 11.567 12.733,11.457 12.719,11.180 12.628 C 10.739 12.482,10.399 12.271,10.064 11.935 C 9.439 11.309,9.241 10.725,9.240 9.507 C 9.240 9.246,9.254 9.039,9.270 9.047 C 9.287 9.054,9.453 9.136,9.640 9.227 M12.360 15.341 C 12.501 15.414,12.626 15.557,12.698 15.729 C 12.973 16.387,12.185 17.026,11.592 16.626 C 11.047 16.259,11.187 15.434,11.820 15.276 C 11.966 15.240,12.224 15.271,12.360 15.341 M12.267 17.803 C 12.516 17.897,12.757 18.239,12.759 18.502 C 12.760 18.687,12.582 19.006,12.414 19.120 C 12.293 19.202,12.218 19.220,12.000 19.220 C 11.665 19.220,11.484 19.111,11.339 18.822 C 11.221 18.587,11.216 18.438,11.316 18.216 C 11.487 17.839,11.895 17.662,12.267 17.803 " stroke="none" fill-rule="evenodd"/></svg>