<svg xmlns="http://www.w3.org/2000/svg" viewBox="0 0 24 24"><path d="M11.5 1.857c-.154.03-1.423.337-2.82.683-2.755.681-2.932.739-3.41 1.118-.42.334-.773.876-.939 1.442-.066.224-.071.673-.081 6.76-.012 7.012-.018 6.8.19 7.352.267.711.944 1.354 1.686 1.602.102.034 1.362.355 2.8.712l2.614.65.48-.001c.409-.001.527-.017.8-.107a2.8 2.8 0 0 0 1.414-1.031l.186-.27 2.04-.014 2.04-.015.32-.108c.443-.15.783-.361 1.116-.694s.544-.671.695-1.116l.109-.32v-13l-.109-.32a2.74 2.74 0 0 0-.696-1.116c-.472-.471-.961-.709-1.606-.783-.192-.022-1.15-.041-2.129-.042l-1.78-.002-.189-.277c-.32-.466-.872-.862-1.451-1.038a3 3 0 0 0-1.28-.065m7.028 3.016c.239.118.481.36.599.599l.093.188v12.68l-.093.189c-.132.268-.416.534-.674.63-.204.077-.309.081-1.955.081H14.76V4.758l1.79.011c1.779.011 1.791.012 1.978.104m-6.523 6.506c.223.147.328.348.328.628 0 .196-.019.264-.117.402a.73.73 0 0 1-.567.337c-.763.091-1.199-.8-.634-1.296a.8.8 0 0 1 .256-.153c.06-.013.127-.031.149-.039.1-.039.453.035.585.121" fill-rule="evenodd"/></svg>