<svg xmlns="http://www.w3.org/2000/svg" viewBox="0 0 24 24"><path d="M8.82 2.276a.73.73 0 0 0-.538.515c-.024.087-.042.651-.042 1.362v1.213l-.635 1.487c-.686 1.604-.709 1.667-.747 1.967-.051.399.022.604.681 1.931.341.689.621 1.282.621 1.32 0 .037-.562 1.751-1.25 3.808L5.66 19.62v.4c0 .377.008.417.145.703a1.74 1.74 0 0 0 1.183.977c.349.091 9.681.09 10.031-.001a1.76 1.76 0 0 0 1.176-.976c.137-.286.145-.326.145-.703v-.4l-1.25-3.741c-.688-2.057-1.25-3.772-1.25-3.81s.27-.61.601-1.271c.653-1.305.745-1.565.701-1.968-.035-.311-.028-.291-.747-1.977l-.635-1.487V4.153c0-.711-.018-1.275-.042-1.362-.09-.324-.364-.524-.718-.524s-.628.2-.718.524c-.024.087-.042.641-.042 1.331v1.182l-.345.434c-.75.945-1.452 1.502-1.893 1.502-.476 0-1.297-.682-2.075-1.724l-.167-.223V4.116c0-.685-.018-1.238-.042-1.325a.8.8 0 0 0-.353-.448.95.95 0 0 0-.545-.067m6 9.05c.582.323.56 1.081-.04 1.358-.151.07-.314.074-2.78.074s-2.629-.004-2.78-.074c-.521-.241-.625-.866-.205-1.234a.8.8 0 0 1 .256-.153c.06-.013.127-.03.149-.038a126 126 0 0 1 2.66-.007c2.358.007 2.632.015 2.74.074" fill-rule="evenodd"/></svg>