<svg xmlns="http://www.w3.org/2000/svg" viewBox="0 0 24 24"><path d="M8.82 2.276a.73.73 0 0 0-.538.515c-.024.087-.042.651-.042 1.362v1.213l-.661 1.543C7.111 8 6.904 8.532 6.871 8.723c-.081.473-.031.623.667 2.028.342.689.622 1.282.622 1.32 0 .037-.562 1.751-1.25 3.808L5.66 19.62v.4c0 .377.008.417.145.703.165.346.436.641.74.806.444.24.227.231 5.455.231s5.011.009 5.455-.231c.304-.165.575-.46.74-.806.137-.286.145-.326.145-.703v-.4l-1.25-3.741c-.688-2.057-1.25-3.772-1.25-3.81s.27-.61.601-1.271c.741-1.482.799-1.675.658-2.214-.033-.128-.348-.905-.7-1.726l-.639-1.492V4.153c0-.711-.018-1.275-.042-1.362-.09-.324-.364-.524-.718-.524s-.628.2-.718.524c-.024.087-.042.64-.042 1.325v1.177l-.22.292c-.55.73-1.213 1.362-1.64 1.561a.85.85 0 0 1-.76 0c-.427-.199-1.09-.831-1.64-1.561l-.22-.292V4.116c0-.685-.018-1.238-.042-1.325a.8.8 0 0 0-.353-.448.95.95 0 0 0-.545-.067m1.44 5.769c1.461 1.097 2.621.927 4.143-.606l.424-.427.406.952c.224.523.407.98.407 1.014s-.247.557-.55 1.162l-.549 1.1H9.459l-.549-1.1c-.303-.605-.55-1.128-.55-1.162s.183-.491.407-1.014l.406-.952.424.427c.232.234.531.507.663.606m5.39 8.285c.655 1.964 1.19 3.614 1.19 3.667s-.03.13-.066.17c-.064.07-.264.073-4.767.073-4.318 0-4.707-.005-4.774-.066a.26.26 0 0 1-.073-.17c0-.057.535-1.71 1.19-3.674l1.19-3.57h4.92z"/></svg>