<svg xmlns="http://www.w3.org/2000/svg" viewBox="0 0 24 24"><path d="M11.81 3.278c-.25.061-1.109.783-2.049 1.722-2.317 2.315-3.83 4.839-4.319 7.206-.14.675-.18 1.083-.179 1.834.003 2.041.613 3.641 1.859 4.88 1.951 1.939 5.515 2.408 8.218 1.083 1.84-.901 2.982-2.54 3.326-4.771.096-.618.095-1.806 0-2.432-.37-2.427-1.626-4.774-3.859-7.214-.715-.781-1.944-1.909-2.401-2.205a.82.82 0 0 0-.596-.103m4.034 10.065c.162.082.349.32.38.483.068.365-.044 1.277-.22 1.784-.296.852-.96 1.552-1.834 1.931-.631.273-.853.275-1.157.008A.7.7 0 0 1 12.76 17c0-.345.186-.575.602-.744.142-.057.329-.141.415-.185.205-.104.566-.447.684-.65.142-.243.253-.701.281-1.154.014-.224.042-.464.064-.534.047-.154.31-.402.463-.435.061-.014.129-.031.151-.038.065-.022.312.027.424.083"/></svg>