<svg xmlns="http://www.w3.org/2000/svg" viewBox="0 0 24 24"><path d="M11.81 3.278c-.378.092-2.087 1.663-3.113 2.863-2.793 3.264-3.885 6.412-3.292 9.494.385 1.999 1.57 3.568 3.331 4.409 1.962.937 4.566.937 6.528 0 1.507-.72 2.584-1.958 3.116-3.582.683-2.084.419-4.527-.743-6.882-.936-1.898-2.621-3.998-4.508-5.62-.765-.657-.975-.766-1.319-.682m.824 2.256c2.002 1.84 3.538 4.039 4.197 6.006.639 1.908.518 4.04-.305 5.411-.242.402-.302.478-.674.86-.654.673-1.477 1.093-2.612 1.336-.486.103-1.989.104-2.48.001-.85-.179-1.532-.467-2.099-.886-1.257-.929-1.901-2.369-1.901-4.247 0-2.4 1.158-4.814 3.58-7.463.527-.577 1.585-1.555 1.667-1.542.038.005.32.241.627.524m2.786 7.726c-.022.007-.09.024-.151.038-.152.033-.416.28-.465.435-.023.07-.06.343-.083.607-.064.747-.213 1.118-.584 1.454-.207.187-.303.243-.857.502-.352.164-.482.322-.511.621-.035.366.146.654.498.788.209.08.343.062.751-.102a3.6 3.6 0 0 0 1.187-.753c.422-.403.692-.846.858-1.408.157-.532.23-1.457.134-1.709a.9.9 0 0 0-.357-.391c-.108-.055-.355-.104-.42-.082" fill-rule="evenodd"/></svg>