<svg xmlns="http://www.w3.org/2000/svg" viewBox="0 0 24 24"><path d="M11.607 1.281a3 3 0 0 0-.4.082c-.463.148-.96.548-1.178.947-.248.455-.348 1.244-.195 1.53a.71.71 0 0 0 .6.392c.479.034.763-.239.824-.792.015-.143.055-.318.089-.388.087-.185.331-.292.665-.292.345 0 .563.086.64.253.07.152.121.549.078.612-.047.069-.179.098-.608.131-.478.037-.631.119-.783.422-.091.181-.099.242-.099.74v.543l-2.39.794c-1.315.437-2.5.847-2.634.912-.284.138-.595.44-.768.749-.067.119-.792.998-1.611 1.954-1.417 1.654-1.591 1.883-1.595 2.11a.83.83 0 0 0 .232.543c.132.131.272.187 1.456.581l1.31.435.001 2.781c0 2.972.008 3.106.202 3.485.113.223.529.639.752.752.399.204.333.202 5.805.202s5.406.002 5.805-.202c.223-.113.639-.529.752-.752.194-.379.202-.513.202-3.485l.001-2.781 1.31-.435c1.184-.394 1.324-.45 1.456-.581a.83.83 0 0 0 .232-.543c-.004-.227-.178-.456-1.595-2.11-.819-.956-1.544-1.835-1.611-1.954-.173-.309-.484-.611-.768-.749-.134-.065-1.319-.475-2.634-.912l-2.39-.794v-.13c0-.109.018-.133.11-.154.605-.132.984-.421 1.223-.932.103-.22.123-.318.139-.667.042-.946-.321-1.677-1.018-2.047-.422-.225-1.061-.324-1.607-.25M13 7.125c.539.179.988.333.998.342.046.041-.203.411-.441.653-.831.85-2.283.85-3.114 0-.238-.242-.487-.612-.441-.653.024-.021 1.926-.66 1.978-.664.022-.002.481.143 1.02.322M8.666 8.21c.336.68.973 1.322 1.627 1.64a3.66 3.66 0 0 0 1.707.39 3.6 3.6 0 0 0 1.797-.441c.596-.31 1.216-.948 1.53-1.574.067-.135.128-.251.135-.259.025-.028 1.639.526 1.708.585.066.058.07.361.07 5.302 0 4.82-.005 5.247-.066 5.314-.064.07-.276.073-5.167.073-4.69 0-5.107-.005-5.174-.066-.07-.064-.073-.281-.073-5.315 0-4.794.006-5.254.065-5.304.058-.049 1.573-.584 1.676-.592.023-.002.097.109.165.247M5.24 11.257v.697l-.443-.148c-.244-.082-.445-.164-.447-.184-.004-.03.851-1.062.88-1.062.005 0 .01.314.01.697m14.016-.14c.234.274.411.51.395.525a4 4 0 0 1-.461.17l-.43.142v-.705c0-.418.015-.69.036-.667.02.021.227.262.46.535" fill-rule="evenodd"/></svg>