<svg xmlns="http://www.w3.org/2000/svg" viewBox="0 0 24 24"><path d="M11.607 1.281a3 3 0 0 0-.4.082c-.463.148-.96.548-1.178.947-.248.455-.348 1.244-.195 1.53a.71.71 0 0 0 .6.392c.479.034.763-.239.824-.792.015-.143.055-.318.089-.388.087-.185.331-.292.665-.292.345 0 .563.086.64.253.07.152.121.549.078.612-.047.069-.179.098-.608.131-.478.037-.631.119-.783.422-.091.181-.099.242-.099.74v.543l-2.39.794c-1.315.437-2.5.847-2.634.912-.284.138-.595.44-.768.749-.067.119-.792.998-1.611 1.954-1.417 1.654-1.591 1.883-1.595 2.11a.83.83 0 0 0 .232.543c.132.131.272.187 1.456.581l1.31.435.001 2.781c0 2.972.008 3.106.202 3.485.113.223.529.639.752.752.399.204.333.202 5.805.202s5.406.002 5.805-.202c.223-.113.639-.529.752-.752.194-.379.202-.513.202-3.485l.001-2.781 1.31-.435c1.184-.394 1.324-.45 1.456-.581a.83.83 0 0 0 .232-.543c-.004-.227-.178-.456-1.595-2.11-.819-.956-1.544-1.835-1.611-1.954-.173-.309-.484-.611-.768-.749-.134-.065-1.319-.475-2.634-.912l-2.39-.794v-.13c0-.109.018-.133.11-.154.605-.132.984-.421 1.223-.932.103-.22.123-.318.139-.667.042-.946-.321-1.677-1.018-2.047-.422-.225-1.061-.324-1.607-.25M13 7.125c.539.179.988.333.998.342.046.041-.203.411-.441.653-.831.85-2.283.85-3.114 0-.238-.242-.487-.612-.441-.653.024-.021 1.926-.66 1.978-.664.022-.002.481.143 1.02.322m-4.386.993c.312.705 1.064 1.461 1.799 1.805.505.236.816.293 1.587.293s1.082-.057 1.587-.293c.725-.339 1.383-.987 1.752-1.723.061-.121.116-.226.123-.234.023-.025 1.599.513 1.69.577l.088.062v5.244c0 4.824-.005 5.251-.066 5.318-.064.07-.276.073-5.167.073-4.69 0-5.107-.005-5.174-.066-.07-.064-.073-.281-.073-5.319V8.602l.095-.063c.088-.057 1.551-.569 1.647-.576.024-.002.074.068.112.155M5.24 11.257v.697l-.443-.148c-.244-.082-.445-.164-.447-.184-.004-.03.851-1.062.88-1.062.005 0 .01.314.01.697m14.016-.14c.234.274.411.51.395.525a4 4 0 0 1-.461.17l-.43.142v-.705c0-.418.015-.69.036-.667.02.021.227.262.46.535"/></svg>