<svg fill="none" xmlns="http://www.w3.org/2000/svg" viewBox="0 0 24 24"><path d="M11.607 1.281 C 11.468 1.300,11.288 1.337,11.207 1.363 C 10.744 1.511,10.247 1.911,10.029 2.310 C 9.781 2.765,9.681 3.554,9.834 3.840 C 9.962 4.078,10.168 4.213,10.434 4.232 C 10.913 4.266,11.197 3.993,11.258 3.440 C 11.273 3.297,11.313 3.122,11.347 3.052 C 11.434 2.867,11.678 2.760,12.012 2.760 C 12.357 2.760,12.575 2.846,12.652 3.013 C 12.722 3.165,12.773 3.562,12.730 3.625 C 12.683 3.694,12.551 3.723,12.122 3.756 C 11.644 3.793,11.491 3.875,11.339 4.178 C 11.248 4.359,11.240 4.420,11.240 4.918 L 11.240 5.461 8.850 6.255 C 7.535 6.692,6.350 7.102,6.216 7.167 C 5.932 7.305,5.621 7.607,5.448 7.916 C 5.381 8.035,4.656 8.914,3.837 9.870 C 2.420 11.524,2.246 11.753,2.242 11.980 C 2.239 12.157,2.337 12.386,2.474 12.523 C 2.606 12.654,2.746 12.710,3.930 13.104 L 5.240 13.539 5.241 16.320 C 5.241 19.292,5.249 19.426,5.443 19.805 C 5.556 20.028,5.972 20.444,6.195 20.557 C 6.594 20.761,6.528 20.759,12.000 20.759 C 17.472 20.759,17.406 20.761,17.805 20.557 C 18.028 20.444,18.444 20.028,18.557 19.805 C 18.751 19.426,18.759 19.292,18.759 16.320 L 18.760 13.539 20.070 13.104 C 21.254 12.710,21.394 12.654,21.526 12.523 C 21.663 12.386,21.761 12.157,21.758 11.980 C 21.754 11.753,21.580 11.524,20.163 9.870 C 19.344 8.914,18.619 8.035,18.552 7.916 C 18.379 7.607,18.068 7.305,17.784 7.167 C 17.650 7.102,16.465 6.692,15.150 6.255 L 12.760 5.461 12.760 5.331 C 12.760 5.222,12.778 5.198,12.870 5.177 C 13.475 5.045,13.854 4.756,14.093 4.245 C 14.196 4.025,14.216 3.927,14.232 3.578 C 14.274 2.632,13.911 1.901,13.214 1.531 C 12.792 1.306,12.153 1.207,11.607 1.281 M13.000 7.125 C 13.539 7.304,13.988 7.458,13.998 7.467 C 14.044 7.508,13.795 7.878,13.557 8.120 C 12.726 8.970,11.274 8.970,10.443 8.120 C 10.205 7.878,9.956 7.508,10.002 7.467 C 10.026 7.446,11.928 6.807,11.980 6.803 C 12.002 6.801,12.461 6.946,13.000 7.125 " stroke="none" fill-rule="evenodd"/></svg>