<svg xmlns="http://www.w3.org/2000/svg" viewBox="0 0 24 24"><path d="M14.48 3.277c-.231.041-2.742.509-5.58 1.041-4.711.883-5.174.976-5.318 1.075a.9.9 0 0 0-.24.248c-.08.136-.082.201-.093 2.771-.008 1.777.003 2.683.032 2.79.05.189.233.409.393.476.064.026 2.012.403 4.331.838l4.215.79.02 2.697c.022 2.962.008 2.8.266 3.044.17.161.297.193.77.193h.431l.086.35c.13.533.33.892.707 1.27.324.326.592.497 1.02.655.497.182 1.37.289 1.679.206.476-.129.702-.723.428-1.126-.176-.259-.398-.352-.847-.355-.753-.004-1.356-.366-1.519-.91-.025-.086-.016-.09.206-.091.274 0 .504-.111.635-.306.047-.069.657-1.499 1.356-3.179l1.271-3.054.372-.365c1.094-1.075 1.634-2.342 1.634-3.835 0-.748-.121-1.375-.388-2.02A5.37 5.37 0 0 0 16.6 3.315c-.506-.119-1.559-.138-2.12-.038m1.771 1.506c.974.203 1.912.866 2.422 1.711.986 1.631.657 3.689-.784 4.915-.716.609-1.756.962-2.656.9-.169-.012-2.594-.45-5.39-.973l-5.083-.953V6.62l4.991-.934c2.744-.514 5.098-.949 5.229-.967.302-.042.916-.011 1.271.064m-.572 1.495c-.797.107-1.522.694-1.805 1.462-.13.353-.132 1.13-.004 1.5.205.59.743 1.144 1.321 1.361a2.26 2.26 0 0 0 1.104.127c.553-.085.92-.272 1.3-.659.478-.487.625-.857.625-1.569 0-.703-.144-1.073-.607-1.553a2.25 2.25 0 0 0-1.934-.669m.588 1.525a.75.75 0 0 1 .464.697.69.69 0 0 1-.237.547c-.465.44-1.225.1-1.225-.547 0-.3.189-.591.451-.695a.95.95 0 0 1 .547-.002m.337 6.087c-.039.1-1.404 3.379-1.533 3.68l-.081.19h-1.23v-3.867l.99.014c.708.011 1.098 0 1.37-.04.549-.081.524-.082.484.023" fill-rule="evenodd"/></svg>