<svg xmlns="http://www.w3.org/2000/svg" viewBox="0 0 24 24"><path d="M11.32 2.28A9.74 9.74 0 0 0 3.258 7.7c-.46.94-.762 1.914-.924 2.98-.097.636-.097 2.004 0 2.64.446 2.941 2.052 5.409 4.533 6.968 1.075.676 2.441 1.17 3.813 1.378.636.097 2.004.097 2.64 0 2.1-.319 3.932-1.206 5.405-2.618 1.601-1.534 2.6-3.479 2.941-5.728.097-.636.097-2.004 0-2.64-.443-2.919-2.04-5.389-4.49-6.941-.824-.522-2.118-1.053-3.056-1.253a11 11 0 0 0-2.8-.206m-.08 3.15c0 1.066.016 1.685.045 1.789.059.213.293.441.513.5.4.108.812-.12.92-.51.026-.091.042-.781.042-1.779V3.8h.09c.385.001 1.525.271 2.11.501 2.767 1.085 4.694 3.468 5.188 6.415.1.593.1 1.975 0 2.568-.402 2.398-1.776 4.469-3.799 5.726-.978.607-2.284 1.069-3.319 1.174l-.27.027v-1.635c0-1.002-.016-1.694-.042-1.785-.09-.324-.364-.524-.718-.524s-.628.2-.718.524c-.026.091-.042.783-.042 1.785v1.635l-.27-.027c-1.035-.105-2.341-.567-3.319-1.174-1.757-1.091-3.096-2.896-3.614-4.866-.207-.79-.256-1.202-.256-2.144 0-.638.018-.969.071-1.284.299-1.783 1.066-3.282 2.324-4.54a8.1 8.1 0 0 1 4.404-2.298 6 6 0 0 1 .53-.075l.13-.003zM7.617 9.283c-.585.069-1.098.328-1.552.781a2.7 2.7 0 0 0-.693 1.116c-.091.277-.105.387-.105.82s.014.543.105.82c.146.44.357.781.692 1.116s.676.546 1.116.692c.277.091.387.105.82.105s.543-.014.82-.105c.44-.146.781-.357 1.116-.692s.546-.676.692-1.116c.091-.277.105-.387.105-.82s-.014-.543-.105-.82c-.425-1.294-1.642-2.06-3.011-1.897m8 0c-.585.069-1.098.328-1.552.781a2.7 2.7 0 0 0-.693 1.116c-.091.277-.105.387-.105.82s.014.543.105.82c.146.44.357.781.692 1.116s.676.546 1.116.692c.277.091.387.105.82.105s.543-.014.82-.105c.44-.146.781-.357 1.116-.692s.546-.676.692-1.116c.091-.277.105-.387.105-.82s-.014-.543-.105-.82c-.425-1.294-1.642-2.06-3.011-1.897m-7.089 1.59c.239.117.481.359.599.599.133.27.133.787 0 1.057-.464.943-1.795.943-2.252 0a1.43 1.43 0 0 1-.074-.871c.097-.348.43-.703.785-.838.232-.088.708-.061.942.053m8 0c.239.117.481.359.599.599.133.27.133.787 0 1.057-.464.943-1.795.943-2.252 0a1.43 1.43 0 0 1-.074-.871c.097-.348.43-.703.785-.838.232-.088.708-.061.942.053" fill-rule="evenodd"/></svg>