<svg xmlns="http://www.w3.org/2000/svg" viewBox="0 0 24 24"><path d="M11.34 2.281c-1.875.117-3.691.798-5.256 1.971-.501.375-1.468 1.344-1.839 1.84a9.9 9.9 0 0 0-1.892 4.48c-.114.705-.123 2.019-.02 2.728a9.96 9.96 0 0 0 1.912 4.608c.377.504 1.343 1.47 1.847 1.847a9.95 9.95 0 0 0 4.608 1.911c.333.048.732.07 1.3.07 1.556 0 2.894-.306 4.26-.974 1.052-.515 1.77-1.03 2.621-1.881s1.367-1.57 1.88-2.621c1.616-3.305 1.23-7.202-1.006-10.164-1.541-2.041-3.921-3.42-6.475-3.751a11 11 0 0 0-1.94-.064m.952 1.533c.155.065.375.305.417.457.017.06.031.751.031 1.536v1.426l-.121.172c-.166.237-.346.334-.619.334s-.453-.097-.619-.334l-.121-.172V5.807c0-.785.014-1.476.031-1.536.041-.147.259-.39.408-.455a.88.88 0 0 1 .593-.002M8.67 9.343c.935.209 1.767 1.046 1.995 2.007.082.346.082.954 0 1.3-.228.96-1.002 1.745-1.985 2.015-.35.095-1.009.096-1.36 0-.978-.266-1.758-1.057-1.985-2.015a3.5 3.5 0 0 1 0-1.3 2.85 2.85 0 0 1 .947-1.488c.688-.541 1.499-.717 2.388-.519m8 0c.935.209 1.767 1.046 1.995 2.007.082.346.082.954 0 1.3-.228.96-1.002 1.745-1.985 2.015-.35.095-1.009.096-1.36 0-.978-.266-1.758-1.057-1.985-2.015a3.5 3.5 0 0 1 0-1.3 2.85 2.85 0 0 1 .947-1.488c.688-.541 1.499-.717 2.388-.519m-9.079 1.476a1.245 1.245 0 0 0-.831 1.185c0 1.1 1.339 1.653 2.118.874a1.246 1.246 0 0 0-.339-1.999c-.243-.119-.715-.149-.948-.06m8 0a1.245 1.245 0 0 0-.831 1.185c0 1.1 1.339 1.653 2.118.874a1.246 1.246 0 0 0-.339-1.999c-.243-.119-.715-.149-.948-.06m-3.186 5.562c.08.051.188.162.24.246l.095.153v1.42c0 .781-.014 1.469-.031 1.529-.042.152-.262.392-.417.457a.74.74 0 0 1-.842-.201.8.8 0 0 1-.159-.256c-.017-.06-.031-.748-.031-1.529 0-1.416 0-1.42.093-1.569.233-.375.691-.484 1.052-.25"/></svg>