<svg fill="none" xmlns="http://www.w3.org/2000/svg" viewBox="0 0 24 24"><path d="M11.320 2.280 C 7.872 2.513,4.779 4.593,3.258 7.700 C 2.798 8.640,2.496 9.614,2.334 10.680 C 2.237 11.316,2.237 12.684,2.334 13.320 C 2.780 16.261,4.386 18.729,6.867 20.288 C 7.942 20.964,9.308 21.458,10.680 21.666 C 11.316 21.763,12.684 21.763,13.320 21.666 C 15.420 21.347,17.252 20.460,18.725 19.048 C 20.326 17.514,21.325 15.569,21.666 13.320 C 21.763 12.684,21.763 11.316,21.666 10.680 C 21.223 7.761,19.626 5.291,17.176 3.739 C 16.352 3.217,15.058 2.686,14.120 2.486 C 13.247 2.300,12.184 2.222,11.320 2.280 M12.267 3.803 C 12.427 3.863,12.598 4.034,12.684 4.220 C 12.752 4.366,12.758 4.501,12.759 5.720 C 12.759 6.577,12.744 7.117,12.715 7.219 C 12.656 7.432,12.422 7.660,12.202 7.719 C 11.802 7.827,11.390 7.599,11.282 7.209 C 11.257 7.120,11.241 6.521,11.241 5.720 C 11.242 4.499,11.248 4.365,11.316 4.216 C 11.487 3.839,11.895 3.662,12.267 3.803 M8.700 9.344 C 9.568 9.550,10.331 10.277,10.628 11.180 C 10.719 11.457,10.733 11.568,10.733 12.000 C 10.733 12.433,10.719 12.543,10.628 12.820 C 10.482 13.260,10.271 13.601,9.936 13.936 C 9.601 14.271,9.260 14.482,8.820 14.628 C 8.543 14.719,8.433 14.733,8.000 14.733 C 7.567 14.733,7.457 14.719,7.180 14.628 C 6.740 14.482,6.399 14.271,6.064 13.936 C 5.729 13.601,5.518 13.260,5.372 12.820 C 5.281 12.543,5.267 12.433,5.267 12.000 C 5.267 11.567,5.281 11.457,5.372 11.180 C 5.430 11.004,5.546 10.745,5.629 10.604 C 5.814 10.290,6.271 9.827,6.575 9.645 C 7.191 9.276,7.959 9.167,8.700 9.344 M16.700 9.344 C 17.568 9.550,18.331 10.277,18.628 11.180 C 18.719 11.457,18.733 11.568,18.733 12.000 C 18.733 12.433,18.719 12.543,18.628 12.820 C 18.482 13.260,18.271 13.601,17.936 13.936 C 17.601 14.271,17.260 14.482,16.820 14.628 C 16.543 14.719,16.433 14.733,16.000 14.733 C 15.567 14.733,15.457 14.719,15.180 14.628 C 14.740 14.482,14.399 14.271,14.064 13.936 C 13.729 13.601,13.518 13.260,13.372 12.820 C 13.281 12.543,13.267 12.433,13.267 12.000 C 13.267 11.567,13.281 11.457,13.372 11.180 C 13.430 11.004,13.546 10.745,13.629 10.604 C 13.814 10.290,14.271 9.827,14.575 9.645 C 15.191 9.276,15.959 9.167,16.700 9.344 M7.586 10.820 C 7.363 10.905,7.126 11.091,6.979 11.298 C 6.408 12.102,7.006 13.240,8.000 13.240 C 8.474 13.240,8.913 12.963,9.127 12.529 C 9.260 12.259,9.260 11.742,9.127 11.472 C 9.009 11.232,8.767 10.990,8.528 10.873 C 8.294 10.759,7.818 10.732,7.586 10.820 M15.586 10.820 C 15.363 10.905,15.126 11.091,14.979 11.298 C 14.408 12.102,15.006 13.240,16.000 13.240 C 16.474 13.240,16.913 12.963,17.127 12.529 C 17.260 12.259,17.260 11.742,17.127 11.472 C 17.009 11.232,16.767 10.990,16.528 10.873 C 16.294 10.759,15.818 10.732,15.586 10.820 M12.365 16.343 C 12.514 16.419,12.670 16.617,12.718 16.791 C 12.743 16.880,12.759 17.479,12.759 18.280 C 12.758 19.759,12.751 19.809,12.495 20.047 C 12.120 20.398,11.541 20.267,11.316 19.780 C 11.248 19.634,11.242 19.499,11.241 18.280 C 11.241 17.479,11.257 16.880,11.282 16.791 C 11.327 16.627,11.482 16.423,11.614 16.352 C 11.831 16.235,12.147 16.232,12.365 16.343 " stroke="none" fill-rule="evenodd" fill="currentColor"/></svg>