<svg xmlns="http://www.w3.org/2000/svg" viewBox="0 0 24 24"><path d="M11.32 2.28A9.74 9.74 0 0 0 3.258 7.7c-.46.94-.762 1.914-.924 2.98-.097.636-.097 2.004 0 2.64.446 2.941 2.052 5.409 4.533 6.968 1.075.676 2.441 1.17 3.813 1.378.636.097 2.004.097 2.64 0 2.1-.319 3.932-1.206 5.405-2.618 1.601-1.534 2.6-3.479 2.941-5.728.097-.636.097-2.004 0-2.64-.443-2.919-2.04-5.389-4.49-6.941-.824-.522-2.118-1.053-3.056-1.253a11 11 0 0 0-2.8-.206m.947 1.523c.16.06.331.231.417.417.068.146.074.281.075 1.5 0 .857-.015 1.397-.044 1.499-.059.213-.293.441-.513.5a.747.747 0 0 1-.92-.51c-.025-.089-.041-.688-.041-1.489.001-1.221.007-1.355.075-1.504.171-.377.579-.554.951-.413M8.7 9.344c.868.206 1.631.933 1.928 1.836.091.277.105.388.105.82 0 .433-.014.543-.105.82-.146.44-.357.781-.692 1.116a2.7 2.7 0 0 1-1.116.692c-.277.091-.387.105-.82.105s-.543-.014-.82-.105a2.7 2.7 0 0 1-1.116-.692 2.7 2.7 0 0 1-.692-1.116c-.091-.277-.105-.387-.105-.82s.014-.543.105-.82a3.6 3.6 0 0 1 .257-.576c.185-.314.642-.777.946-.959.616-.369 1.384-.478 2.125-.301m8 0c.868.206 1.631.933 1.928 1.836.091.277.105.388.105.82 0 .433-.014.543-.105.82-.146.44-.357.781-.692 1.116a2.7 2.7 0 0 1-1.116.692c-.277.091-.387.105-.82.105s-.543-.014-.82-.105a2.7 2.7 0 0 1-1.116-.692 2.7 2.7 0 0 1-.692-1.116c-.091-.277-.105-.387-.105-.82s.014-.543.105-.82a3.6 3.6 0 0 1 .257-.576c.185-.314.642-.777.946-.959.616-.369 1.384-.478 2.125-.301M7.586 10.82a1.4 1.4 0 0 0-.607.478c-.571.804.027 1.942 1.021 1.942.474 0 .913-.277 1.127-.711.133-.27.133-.787 0-1.057a1.4 1.4 0 0 0-.599-.599c-.234-.114-.71-.141-.942-.053m8 0a1.4 1.4 0 0 0-.607.478c-.571.804.027 1.942 1.021 1.942.474 0 .913-.277 1.127-.711.133-.27.133-.787 0-1.057a1.4 1.4 0 0 0-.599-.599c-.234-.114-.71-.141-.942-.053m-3.221 5.523a.8.8 0 0 1 .353.448c.025.089.041.688.041 1.489-.001 1.479-.008 1.529-.264 1.767-.375.351-.954.22-1.179-.267-.068-.146-.074-.281-.075-1.5 0-.801.016-1.4.041-1.489.045-.164.2-.368.332-.439a.87.87 0 0 1 .751-.009" fill-rule="evenodd"/></svg>