<svg xmlns="http://www.w3.org/2000/svg" viewBox="0 0 24 24"><path d="M11.34 2.281c-1.875.117-3.691.798-5.256 1.971-.501.375-1.468 1.344-1.839 1.84a9.9 9.9 0 0 0-1.892 4.48c-.114.705-.123 2.019-.02 2.728a9.96 9.96 0 0 0 1.912 4.608c.377.504 1.343 1.47 1.847 1.847a9.95 9.95 0 0 0 4.608 1.911c.333.048.732.07 1.3.07 1.556 0 2.894-.306 4.26-.974 1.052-.515 1.77-1.03 2.621-1.881s1.367-1.57 1.88-2.621c1.616-3.305 1.23-7.202-1.006-10.164-1.541-2.041-3.921-3.42-6.475-3.751a11 11 0 0 0-1.94-.064m-.099 3.189c.001 1.538.007 1.683.075 1.83a.743.743 0 0 0 1.368 0c.068-.147.074-.292.075-1.835l.001-1.674.23.026c2.476.285 4.768 1.775 6.086 3.956.887 1.469 1.305 3.351 1.123 5.059-.27 2.531-1.614 4.708-3.78 6.127-.919.601-2.32 1.105-3.409 1.224l-.25.027v-1.666c0-1.414-.009-1.689-.062-1.815a.748.748 0 0 0-1.396 0c-.053.126-.062.401-.062 1.81V20.2h-.09c-.175 0-.855-.124-1.245-.226a8.33 8.33 0 0 1-4.983-3.75C4.182 14.998 3.76 13.464 3.76 12a8.24 8.24 0 0 1 5.66-7.821c.577-.19 1.32-.352 1.71-.373l.11-.006zM7.4 9.302c-.143.031-.431.14-.639.243A2.76 2.76 0 0 0 5.241 12c0 1.033.599 2 1.52 2.455.831.41 1.647.41 2.478 0A2.76 2.76 0 0 0 10.759 12c0-1.033-.599-2-1.52-2.455A3.4 3.4 0 0 0 8.58 9.3a3.2 3.2 0 0 0-1.18.002m8 0c-.143.031-.431.14-.639.243A2.76 2.76 0 0 0 13.241 12c0 1.033.599 2 1.52 2.455.831.41 1.647.41 2.478 0A2.76 2.76 0 0 0 18.759 12c0-1.033-.599-2-1.52-2.455a3.4 3.4 0 0 0-.659-.245 3.2 3.2 0 0 0-1.18.002M8.54 10.89c.238.123.456.343.585.59.077.148.094.241.094.52 0 .291-.015.369-.106.54-.127.24-.348.458-.593.585-.148.077-.241.094-.52.094s-.372-.017-.52-.094a1.45 1.45 0 0 1-.593-.585c-.091-.171-.106-.249-.106-.54 0-.279.017-.372.094-.52.168-.323.46-.572.805-.685.196-.064.646-.015.86.095m8 0c.238.123.456.343.585.59.077.148.094.241.094.52 0 .291-.015.369-.106.54-.127.24-.348.458-.593.585-.148.077-.241.094-.52.094s-.372-.017-.52-.094a1.45 1.45 0 0 1-.593-.585c-.091-.171-.106-.249-.106-.54 0-.279.017-.372.094-.52.168-.323.46-.572.805-.685.196-.064.646-.015.86.095" fill-rule="evenodd"/></svg>