<svg fill="none" xmlns="http://www.w3.org/2000/svg" viewBox="0 0 24 24"><path d="M11.320 2.280 C 7.872 2.513,4.779 4.593,3.258 7.700 C 2.798 8.640,2.496 9.614,2.334 10.680 C 2.237 11.316,2.237 12.684,2.334 13.320 C 2.780 16.261,4.386 18.729,6.867 20.288 C 7.942 20.964,9.308 21.458,10.680 21.666 C 11.316 21.763,12.684 21.763,13.320 21.666 C 15.420 21.347,17.252 20.460,18.725 19.048 C 20.326 17.514,21.325 15.569,21.666 13.320 C 21.763 12.684,21.763 11.316,21.666 10.680 C 21.223 7.761,19.626 5.291,17.176 3.739 C 16.352 3.217,15.058 2.686,14.120 2.486 C 13.247 2.300,12.184 2.222,11.320 2.280 M11.240 5.430 C 11.240 6.496,11.256 7.115,11.285 7.219 C 11.344 7.432,11.578 7.660,11.798 7.719 C 12.198 7.827,12.610 7.599,12.718 7.209 C 12.744 7.118,12.760 6.428,12.760 5.430 L 12.760 3.800 12.850 3.800 C 13.235 3.801,14.375 4.071,14.960 4.301 C 17.727 5.386,19.654 7.769,20.148 10.716 C 20.248 11.309,20.248 12.691,20.148 13.284 C 19.746 15.682,18.372 17.753,16.349 19.010 C 15.371 19.617,14.065 20.079,13.030 20.184 L 12.760 20.211 12.760 18.576 C 12.760 17.574,12.744 16.882,12.718 16.791 C 12.628 16.467,12.354 16.267,12.000 16.267 C 11.646 16.267,11.372 16.467,11.282 16.791 C 11.256 16.882,11.240 17.574,11.240 18.576 L 11.240 20.211 10.970 20.184 C 9.935 20.079,8.629 19.617,7.651 19.010 C 5.894 17.919,4.555 16.114,4.037 14.144 C 3.830 13.354,3.781 12.942,3.781 12.000 C 3.781 11.362,3.799 11.031,3.852 10.716 C 4.151 8.933,4.918 7.434,6.176 6.176 C 7.405 4.947,8.872 4.182,10.580 3.878 C 10.800 3.839,11.038 3.805,11.110 3.803 L 11.240 3.800 11.240 5.430 M7.617 9.283 C 7.032 9.352,6.519 9.611,6.065 10.064 C 5.729 10.399,5.518 10.739,5.372 11.180 C 5.281 11.457,5.267 11.567,5.267 12.000 C 5.267 12.433,5.281 12.543,5.372 12.820 C 5.518 13.260,5.729 13.601,6.064 13.936 C 6.399 14.271,6.740 14.482,7.180 14.628 C 7.457 14.719,7.567 14.733,8.000 14.733 C 8.433 14.733,8.543 14.719,8.820 14.628 C 9.260 14.482,9.601 14.271,9.936 13.936 C 10.271 13.601,10.482 13.260,10.628 12.820 C 10.719 12.543,10.733 12.433,10.733 12.000 C 10.733 11.568,10.719 11.457,10.628 11.180 C 10.203 9.886,8.986 9.120,7.617 9.283 M15.617 9.283 C 15.032 9.352,14.519 9.611,14.065 10.064 C 13.729 10.399,13.518 10.739,13.372 11.180 C 13.281 11.457,13.267 11.567,13.267 12.000 C 13.267 12.433,13.281 12.543,13.372 12.820 C 13.518 13.260,13.729 13.601,14.064 13.936 C 14.399 14.271,14.740 14.482,15.180 14.628 C 15.457 14.719,15.567 14.733,16.000 14.733 C 16.433 14.733,16.543 14.719,16.820 14.628 C 17.260 14.482,17.601 14.271,17.936 13.936 C 18.271 13.601,18.482 13.260,18.628 12.820 C 18.719 12.543,18.733 12.433,18.733 12.000 C 18.733 11.568,18.719 11.457,18.628 11.180 C 18.203 9.886,16.986 9.120,15.617 9.283 M8.528 10.873 C 8.767 10.990,9.009 11.232,9.127 11.472 C 9.260 11.742,9.260 12.259,9.127 12.529 C 8.663 13.472,7.332 13.472,6.875 12.529 C 6.764 12.300,6.730 11.909,6.801 11.658 C 6.898 11.310,7.231 10.955,7.586 10.820 C 7.818 10.732,8.294 10.759,8.528 10.873 M16.528 10.873 C 16.767 10.990,17.009 11.232,17.127 11.472 C 17.260 11.742,17.260 12.259,17.127 12.529 C 16.663 13.472,15.332 13.472,14.875 12.529 C 14.764 12.300,14.730 11.909,14.801 11.658 C 14.898 11.310,15.231 10.955,15.586 10.820 C 15.818 10.732,16.294 10.759,16.528 10.873 " stroke="none" fill-rule="evenodd" fill="currentColor"/></svg>