<svg xmlns="http://www.w3.org/2000/svg" viewBox="0 0 24 24"><path d="M12.871 2.042a5.9 5.9 0 0 0-2.891 1.11 6.6 6.6 0 0 0-1.516 1.679c-.333.553-.613 1.337-.725 2.028a7.2 7.2 0 0 0 0 1.802c.051.316.187.838.28 1.079.017.044-.74-.689-1.684-1.628-.943-.94-1.766-1.727-1.828-1.75a1 1 0 0 0-.6.013c-.297.123-1.036 1.087-1.341 1.746-.777 1.685-.734 3.551.121 5.159.266.502.532.863.95 1.294 1.122 1.155 2.516 1.746 4.123 1.746.71 0 1.42-.122 1.98-.339.044-.017-.688.74-1.626 1.684-.938.943-1.727 1.757-1.753 1.809-.064.124-.065.391-.005.575.097.292.912.948 1.633 1.316.831.423 1.648.612 2.631.608a5.1 5.1 0 0 0 1.876-.315c1.455-.504 2.725-1.677 3.336-3.078.332-.763.448-1.282.476-2.142.028-.838-.077-1.533-.327-2.178-.017-.044.74.688 1.684 1.626.943.938 1.756 1.726 1.805 1.751.121.061.405.064.583.005.172-.056.569-.471.894-.933a6.1 6.1 0 0 0 .961-2.317c.101-.556.09-1.526-.025-2.072-.254-1.21-.786-2.184-1.654-3.026a5.8 5.8 0 0 0-2.525-1.439c-1.08-.281-2.44-.216-3.444.165-.044.017.698-.75 1.648-1.705 1.658-1.664 1.73-1.742 1.757-1.915.016-.099.027-.189.025-.2l-.027-.172c-.03-.187-.24-.423-.683-.768a5.76 5.76 0 0 0-4.109-1.218m1.609 1.61c.401.105.854.296 1.169.493l.189.117L12.88 7.22c-1.626 1.626-2.963 2.948-2.971 2.938-.073-.091-.284-.479-.382-.702a4.235 4.235 0 0 1 .946-4.744c.619-.594 1.305-.959 2.087-1.109.121-.023.256-.05.3-.061s.341-.012.66-.004c.457.011.661.035.96.114m-4.32 10.431c0 .057-.645.383-.994.502-.569.195-1.056.269-1.586.242a4.22 4.22 0 0 1-2.715-1.146c-.663-.633-1.037-1.282-1.257-2.181-.105-.431-.093-1.448.022-1.909.105-.418.239-.751.461-1.143l.165-.292 2.952 2.952c1.624 1.624 2.952 2.962 2.952 2.975m6.547-4.88a4.12 4.12 0 0 1 2.448 1.137c.635.603 1.02 1.275 1.237 2.16.105.433.093 1.447-.023 1.913-.101.4-.31.908-.501 1.216l-.13.209-2.957-2.957c-1.627-1.627-2.949-2.964-2.939-2.972.224-.179.867-.473 1.282-.587a4 4 0 0 1 1.583-.119m-4.284 1.624c.271.092.658.479.75.75.085.25.086.594.002.839-.095.28-.443.639-.719.742a1.34 1.34 0 0 1-.912 0c-.276-.103-.624-.462-.719-.742a1.4 1.4 0 0 1 .002-.839c.088-.259.479-.658.733-.747.239-.084.619-.086.863-.003m1.753 3.143c.511.867.724 1.782.626 2.692a4.2 4.2 0 0 1-1.326 2.678c-.498.47-1.064.791-1.776 1.006-.333.1-.415.109-1.08.11-.614.002-.768-.01-1.043-.084a4.6 4.6 0 0 1-1.129-.461l-.292-.167 2.952-2.952a314 314 0 0 1 2.972-2.952c.011 0 .054.059.096.13" fill-rule="evenodd"/></svg>