<svg xmlns="http://www.w3.org/2000/svg" viewBox="0 0 24 24"><path d="M12.871 2.042a5.9 5.9 0 0 0-2.891 1.11 6.6 6.6 0 0 0-1.516 1.679c-.333.553-.613 1.337-.725 2.028a7.2 7.2 0 0 0 0 1.802c.051.316.187.838.28 1.079.017.044-.74-.689-1.684-1.628-.943-.94-1.766-1.727-1.828-1.75a1 1 0 0 0-.6.013c-.297.123-1.036 1.087-1.341 1.746-.777 1.685-.734 3.551.121 5.159.266.502.532.863.95 1.294 1.122 1.155 2.516 1.746 4.123 1.746.71 0 1.42-.122 1.98-.339.044-.017-.688.74-1.626 1.684-.938.943-1.727 1.757-1.753 1.809-.064.124-.065.391-.005.575.097.292.912.948 1.633 1.316.831.423 1.648.612 2.631.608a5.1 5.1 0 0 0 1.876-.315c1.455-.504 2.725-1.677 3.336-3.078.332-.763.448-1.282.476-2.142.028-.838-.077-1.533-.327-2.178-.017-.044.74.688 1.684 1.626.943.938 1.756 1.726 1.805 1.751.121.061.405.064.583.005.172-.056.569-.471.894-.933a6.1 6.1 0 0 0 .961-2.317c.101-.556.09-1.526-.025-2.072-.254-1.21-.786-2.184-1.654-3.026a5.8 5.8 0 0 0-2.525-1.439c-1.08-.281-2.44-.216-3.444.165-.044.017.698-.75 1.648-1.705 1.658-1.664 1.73-1.742 1.757-1.915.016-.099.027-.189.025-.2l-.027-.172c-.03-.187-.24-.423-.683-.768a5.76 5.76 0 0 0-4.109-1.218m-.448 8.785c.271.092.658.479.75.75.085.25.086.594.002.839-.095.28-.443.639-.719.742a1.34 1.34 0 0 1-.912 0c-.276-.103-.624-.462-.719-.742a1.4 1.4 0 0 1 .002-.839c.088-.259.479-.658.733-.747.239-.084.619-.086.863-.003"/></svg>