<svg xmlns="http://www.w3.org/2000/svg" viewBox="0 0 24 24"><path d="M4.82 2.276c-.066.017-.156.05-.2.074-.044.025-.578.545-1.186 1.157-.921.926-1.114 1.14-1.15 1.273-.062.228-.061 15.216.001 15.439.056.204.292.44.496.496.22.062 4.218.062 4.438 0a.82.82 0 0 0 .496-.496c.029-.104.045-.729.045-1.809v-1.65h1.48v1.65c0 1.08.016 1.705.045 1.809.056.204.292.44.496.496.22.062 4.218.062 4.438 0a.82.82 0 0 0 .496-.496c.029-.104.045-.729.045-1.809v-1.65h1.48v1.65c0 1.08.016 1.705.045 1.809.056.204.292.44.496.496.22.062 4.218.062 4.438 0a.82.82 0 0 0 .496-.496c.062-.223.063-15.211.001-15.439-.036-.133-.23-.347-1.15-1.273-.608-.612-1.16-1.141-1.226-1.176a.9.9 0 0 0-.34-.064.9.9 0 0 0-.34.064c-.066.035-.618.564-1.226 1.176-.92.926-1.114 1.14-1.15 1.273-.027.097-.044.61-.044 1.31v1.15h-1.48V6.09c0-.7-.017-1.213-.044-1.31-.036-.133-.23-.347-1.15-1.273-.608-.612-1.16-1.141-1.226-1.176-.155-.083-.525-.083-.68 0-.066.035-.618.564-1.226 1.176-.92.926-1.114 1.14-1.15 1.273-.027.097-.044.61-.044 1.31v1.15H7.76V6.09c0-.7-.017-1.213-.044-1.31-.036-.133-.23-.347-1.15-1.273-.608-.612-1.151-1.136-1.206-1.165a.94.94 0 0 0-.54-.066m.81 2.414.61.609V19.24H3.76V5.301l.61-.611c.335-.335.618-.61.629-.61s.295.274.631.61m7 0 .61.609V19.24h-2.48V5.301l.61-.611c.335-.335.618-.61.629-.61s.295.274.631.61m7 0 .61.609V19.24h-2.48V5.301l.61-.611c.335-.335.618-.61.629-.61s.295.274.631.61M9.24 12v3.24H7.76V8.76h1.48zm7 0v3.24h-1.48V8.76h1.48z" fill-rule="evenodd"/></svg>