<svg xmlns="http://www.w3.org/2000/svg" viewBox="0 0 24 24"><path d="M11.82 2.276a.73.73 0 0 0-.538.515c-.024.087-.042.631-.042 1.299v1.15l-2.11.001c-1.19 0-2.232.018-2.39.041-.372.053-.668.206-.964.498-.522.514-.534.59-.535 3.128l-.001 2.009-.15.039c-1.062.273-1.161.315-1.439.617-.336.364-.436.722-.394 1.407.141 2.329 1.171 4.324 2.926 5.664 1.757 1.342 3.681 2.499 4.809 2.891.797.278 1.219.278 2.016 0 1.128-.392 3.052-1.549 4.809-2.891 1.755-1.34 2.785-3.335 2.926-5.664.042-.685-.058-1.043-.394-1.407-.278-.302-.377-.344-1.439-.617l-.15-.039-.001-2.009c-.001-2.538-.013-2.614-.535-3.128-.296-.292-.592-.445-.964-.498-.158-.023-1.2-.041-2.39-.041l-2.11-.001V4.09c0-.668-.018-1.212-.042-1.299a.8.8 0 0 0-.353-.448.95.95 0 0 0-.545-.067m5.347 4.55c.069.062.073.174.073 1.885s-.004 1.817-.07 1.8l-2.62-.654L12 9.221l-2.55.636-2.62.654c-.066.017-.07-.088-.07-1.793 0-1.63.007-1.819.066-1.885.064-.07.276-.073 5.167-.073 4.69 0 5.107.005 5.174.066m-5.838 8.519c.323.591 1.211.504 1.389-.136.026-.094.042-.91.042-2.193v-2.043l3.245.803 3.245.804-.027.44a6.16 6.16 0 0 1-1.452 3.627c-.415.493-1.071 1.006-2.531 1.979-1.57 1.047-2.708 1.614-3.24 1.614-.531 0-1.672-.568-3.24-1.613-1.454-.969-2.116-1.487-2.531-1.98a6.2 6.2 0 0 1-1.455-3.638l-.024-.429 3.235-.801 3.235-.801.02 2.121c.018 1.904.027 2.134.089 2.246" fill-rule="evenodd"/></svg>