<svg xmlns="http://www.w3.org/2000/svg" viewBox="0 0 24 24"><path d="M11.82 2.276a.73.73 0 0 0-.538.515c-.024.087-.042.631-.042 1.299v1.15l-2.11.001c-1.19 0-2.232.018-2.39.041-.372.053-.668.206-.964.498-.522.514-.534.59-.535 3.128l-.001 2.009-.15.039c-1.076.276-1.168.317-1.463.645a1.7 1.7 0 0 0-.274.431c-.182.454-.087 1.714.208 2.738.473 1.649 1.367 2.934 2.769 3.983 1.979 1.48 3.774 2.533 4.896 2.872.5.152 1.048.152 1.548 0 .918-.278 2.196-.979 3.786-2.076 1.42-.98 2.017-1.493 2.592-2.225.971-1.236 1.571-2.953 1.583-4.524.003-.475-.007-.567-.088-.768a1.7 1.7 0 0 0-.274-.431c-.295-.328-.387-.369-1.463-.645l-.15-.039-.001-2.009c-.001-2.538-.013-2.614-.535-3.128-.296-.292-.592-.445-.964-.498-.158-.023-1.2-.041-2.39-.041l-2.11-.001V4.09c0-.668-.018-1.212-.042-1.299a.8.8 0 0 0-.353-.448.95.95 0 0 0-.545-.067m5.347 4.55c.069.062.073.174.073 1.885s-.004 1.817-.07 1.8l-2.62-.654L12 9.221l-2.55.636-2.62.654c-.066.017-.07-.088-.07-1.793 0-1.63.007-1.819.066-1.885.064-.07.276-.073 5.167-.073 4.69 0 5.107.005 5.174.066m-4.865 4.249c.181.083.363.278.408.438.017.059.03 1.079.03 2.267v2.16l-.106.18a.73.73 0 0 1-1.268 0l-.106-.18v-2.16c0-1.188.013-2.208.03-2.267.073-.262.42-.511.71-.511.077 0 .213.033.302.073" fill-rule="evenodd"/></svg>