<svg xmlns="http://www.w3.org/2000/svg" viewBox="0 0 24 24"><path d="m13.94 2.742-1.96.496-.684.001c-.908.001-1.61.062-2.068.178-2.156.547-3.702 2.33-3.945 4.551-.058.527-.059 9.033-.001 9.241.108.39.52.618.92.51.22-.059.454-.287.513-.5.025-.087.045-.451.045-.809v-.65h1.48v2.175c0 1.311.016 2.259.041 2.389a1.76 1.76 0 0 0 1.424 1.397c.306.05 4.284.05 4.59 0a1.74 1.74 0 0 0 1.428-1.447c.025-.16.035-2.214.027-5.534-.012-5.265-.013-5.281-.099-5.6-.24-.892-.701-1.601-1.37-2.109-.306-.233-.968-.564-1.281-.642l-.22-.054-.011-.603-.011-.603 2.531 1.057c2.44 1.019 2.539 1.057 2.757 1.043a.7.7 0 0 0 .371-.111c.165-.112.343-.432.343-.618 0-.157-.171-.499-.295-.588-.051-.037-.965-.43-2.029-.873-1.065-.444-1.961-.82-1.99-.837-.032-.018.331-.126.88-.262.513-.127.984-.257 1.045-.287.151-.076.337-.343.368-.53a.754.754 0 0 0-.552-.837 1.3 1.3 0 0 0-.235-.042c-.028.002-.934.226-2.012.498m-2.709 2.806-.011.787-.22.054c-.313.078-.975.409-1.281.642-.67.508-1.133 1.223-1.369 2.109-.081.306-.086.425-.1 2.71l-.015 2.39H6.757l.012-3.19c.013-3.134.014-3.195.1-3.498.399-1.415 1.539-2.479 2.924-2.729.169-.031.564-.057.878-.059l.571-.004zm1.325 2.274c.141.033.366.118.5.189.314.166.767.619.933.933.245.463.25.521.25 3.026l.001 2.27H9.76l.001-2.27c0-2.505.005-2.563.25-3.026.166-.315.619-.767.934-.934.456-.241 1.079-.314 1.611-.188" fill-rule="evenodd"/></svg>