<svg xmlns="http://www.w3.org/2000/svg" viewBox="0 0 24 24"><path d="M14.54 3.28c-1.773.153-3.885 1.215-5.748 2.889-.292.263-.309.272-.795.412-1.618.466-2.929 1.253-4.083 2.453-.899.935-1.504 1.931-1.636 2.696-.105.608.194 1.394.915 2.409.32.449 1.341 1.467 1.846 1.838.946.697 2.077 1.234 3.121 1.483.279.066.324.093.64.376 1.346 1.206 2.822 2.102 4.22 2.56.859.281 1.812.423 2.179.324a.77.77 0 0 0 .54-.844c-.029-.172-.086-.258-.45-.683-.379-.442-1.409-2.021-1.409-2.16 0-.017.106-.083.236-.148.994-.493 2.087-1.329 2.854-2.185.178-.198.335-.365.35-.371s.482.687 1.037 1.54c.556.853 1.071 1.608 1.144 1.679.31.298.848.248 1.093-.101.172-.245.179-.355.071-1.076-.362-2.409-.476-4.3-.349-5.791.065-.771.228-2.146.348-2.948.112-.742.1-.886-.09-1.112-.151-.18-.32-.253-.585-.253-.402 0-.428.029-1.595 1.813-.568.869-1.047 1.58-1.065 1.58s-.187-.171-.376-.38A10.2 10.2 0 0 0 14.3 7.216c-.231-.123-.42-.236-.42-.251 0-.137 1.039-1.729 1.408-2.158.364-.423.422-.511.451-.683.051-.297-.118-.649-.374-.782-.152-.078-.413-.098-.825-.062m-1.376 1.913c-.022.041-.128.217-.237.392a10 10 0 0 0-.32.556 5 5 0 0 1-.157.288c-.027.039-.12.033-.432-.026a10 10 0 0 0-.676-.103l-.277-.028.337-.217a12 12 0 0 1 1.789-.934c.007-.001-.006.032-.027.072M11.68 7.859c1.669.301 3.384 1.406 4.636 2.988.551.696.571.719.698.796.219.133.438.14.68.022.202-.099.239-.144.679-.811l.466-.706-.03.396c-.038.512-.038 2.401 0 2.913l.03.398-.458-.7c-.477-.726-.577-.827-.888-.893-.168-.036-.421.036-.571.163a4 4 0 0 0-.372.435c-1.1 1.465-2.499 2.54-3.95 3.035-.798.272-1.111.319-2.12.322-.724.002-.98-.012-1.311-.073-.226-.042-.436-.096-.466-.12-.093-.073-.343-2.042-.423-3.334-.061-.986.014-2.091.264-3.91.058-.418.122-.781.142-.806.031-.038.314-.09 1.054-.19.29-.04 1.58.01 1.94.075m-4.655.851c-.013.083-.073.555-.133 1.05-.097.806-.108 1.038-.109 2.22-.001 1.333.018 1.624.2 2.975.034.25.052.463.041.474-.051.051-.893-.487-1.366-.872-.382-.311-1.028-.994-1.309-1.386-.303-.423-.588-.99-.588-1.171 0-.179.283-.743.588-1.174.273-.385 1.205-1.332 1.561-1.587.31-.221 1.053-.679 1.103-.679.021 0 .026.067.012.15m-1.873 2.129a.69.69 0 0 0-.383.616c-.016.289.059.458.285.641.168.135.485.183.714.108.321-.106.541-.516.464-.862-.046-.206-.114-.309-.296-.448-.195-.149-.563-.175-.784-.055m7.43 6.971c.083.16.239.432.347.607.313.507.308.476.062.38-.309-.121-1.03-.502-1.51-.798l-.42-.258.38-.049c.208-.026.496-.074.639-.106s.28-.06.305-.062.113.127.197.286" fill-rule="evenodd"/></svg>