<svg xmlns="http://www.w3.org/2000/svg" viewBox="0 0 24 24"><path d="M6.701 2.285q-.496.071-.925.495c-.525.517-.534.577-.535 3.226-.001 2.241.012 2.427.199 2.926.119.316.438.782.691 1.011.115.104.554.419.976.701.764.511.907.64 1.042.938.066.147.073.43.093 4.018.024 4.291.006 4.019.301 4.62.341.697.993 1.228 1.777 1.447.229.064.43.073 1.68.073 1.255 0 1.45-.009 1.68-.073a2.84 2.84 0 0 0 1.985-1.967c.066-.221.073-.545.093-4.1.02-3.588.027-3.871.093-4.018.134-.297.274-.423 1.044-.94.424-.284.864-.601.977-.702.25-.225.57-.693.688-1.008.187-.499.2-.685.199-2.926-.001-2.649-.01-2.709-.535-3.226-.296-.292-.592-.445-.964-.498-.349-.05-10.215-.048-10.559.003m10.466 1.541c.068.061.073.154.073 1.24V6.24H6.76V5.073c0-1.029.008-1.175.066-1.24.064-.07.276-.073 5.167-.073 4.69 0 5.107.005 5.174.066m-4.762 5.555c.08.051.188.162.24.246l.095.153v4.453l-.121.172c-.166.236-.346.334-.619.334s-.453-.098-.619-.334l-.121-.172V9.78l.093-.149c.233-.375.691-.484 1.052-.25" fill-rule="evenodd"/></svg>