<svg xmlns="http://www.w3.org/2000/svg" viewBox="0 0 24 24"><path d="M6.701 2.285q-.496.071-.925.495c-.525.518-.535.578-.534 3.22.001 2.23.016 2.452.198 2.932.119.315.438.783.687 1.007.113.101.531.402.929.668.841.562.915.625 1.058.893l.106.2.02 3.9.02 3.9.109.32c.151.444.362.783.695 1.116s.672.544 1.116.695l.32.109h3l.32-.109a2.74 2.74 0 0 0 1.116-.695c.333-.333.544-.672.695-1.116l.109-.32.02-3.9.02-3.9.106-.2c.143-.268.217-.331 1.058-.893.398-.266.816-.567.929-.668.249-.224.568-.692.687-1.007.182-.48.197-.702.198-2.932.001-2.642-.009-2.702-.534-3.22-.296-.292-.592-.445-.964-.498-.349-.05-10.215-.048-10.559.003m10.466 1.541c.068.061.073.154.073 1.24V6.24H6.76V5.073c0-1.029.008-1.175.066-1.24.064-.07.276-.073 5.167-.073 4.69 0 5.107.005 5.174.066m.064 4.204c-.023.324-.159.619-.372.805-.08.071-.469.344-.864.608s-.792.546-.881.627c-.33.299-.632.804-.781 1.31-.065.22-.072.564-.092 4.1l-.021 3.86-.093.189c-.132.268-.416.534-.674.63-.2.075-.311.081-1.453.081s-1.253-.006-1.453-.081c-.258-.096-.542-.362-.674-.63l-.093-.189-.021-3.86c-.02-3.536-.027-3.88-.092-4.1-.149-.506-.451-1.011-.781-1.31-.089-.081-.486-.363-.881-.627a15 15 0 0 1-.864-.608c-.213-.186-.349-.481-.372-.805l-.02-.27h10.502zM11.82 9.276a.73.73 0 0 0-.538.515c-.059.211-.056 4.216.003 4.428.059.213.293.441.513.5.4.108.812-.12.92-.51.056-.202.056-4.216 0-4.418a.8.8 0 0 0-.353-.448.95.95 0 0 0-.545-.067" fill-rule="evenodd"/></svg>