<svg xmlns="http://www.w3.org/2000/svg" viewBox="0 0 24 24"><path d="M11.413 2.532c-.773.794-1.186 1.358-1.529 2.088-.39.83-.644 1.913-.644 2.74 0 .198-.011.36-.024.36a1 1 0 0 1-.172-.117c-.396-.314-1.151-.726-1.693-.924-.814-.299-1.392-.392-2.641-.426l-.95-.026v.907c0 1.204.096 1.841.402 2.671a6.76 6.76 0 0 0 4.033 4.033c.761.281 1.487.402 2.405.402h.64v2.281l-.23-.187a4.66 4.66 0 0 0-2.614-1.053c-.596-.053-2.704-.052-3.031.001a1.16 1.16 0 0 0-.723.365c-.354.351-.455.791-.347 1.503.245 1.605 1.311 2.876 2.844 3.391.633.213.766.219 4.861.219s4.228-.006 4.861-.219c1.576-.529 2.656-1.859 2.86-3.521.078-.635-.029-1.041-.363-1.373a1.16 1.16 0 0 0-.723-.365c-.327-.053-2.435-.054-3.031-.001a4.66 4.66 0 0 0-2.614 1.053l-.23.187V14.24h.64c.361 0 .812-.026 1.034-.059a6.8 6.8 0 0 0 4.747-3.062c.427-.663.779-1.557.938-2.381.07-.363.152-1.601.16-2.414l.001-.097-.97.026c-1.268.034-1.842.126-2.661.426-.542.198-1.297.61-1.693.924a1 1 0 0 1-.172.117c-.013 0-.024-.162-.024-.36s-.028-.544-.061-.769c-.182-1.213-.604-2.229-1.314-3.169C13.151 3.114 12.059 1.96 12 1.96c-.016 0-.28.258-.587.572m.84 1.888c.443.606.793 1.44.927 2.205.077.444.077 1.306 0 1.75a5.7 5.7 0 0 1-.508 1.515c-.199.39-.607.99-.672.99s-.473-.6-.672-.99a5.7 5.7 0 0 1-.513-1.541c-.089-.515-.057-1.551.063-2.029.119-.473.254-.833.468-1.248.188-.364.592-.952.654-.952.019 0 .133.135.253.3M6.04 7.866c2.242.446 3.901 2.283 4.182 4.63l.029.236-.323-.027C8.186 12.56 6.492 11.33 5.732 9.66c-.262-.576-.452-1.311-.452-1.75v-.159l.23.027c.126.015.365.055.53.088m12.68.007c0 .229-.155.962-.28 1.329-.613 1.789-2.179 3.133-4.026 3.456a4 4 0 0 1-.509.062h-.154l.027-.23c.293-2.44 2.014-4.258 4.422-4.67.483-.083.52-.079.52.053m-9.806 9.001c.571.172 1.029.464 1.47.938.377.407.652.889.753 1.32l.026.112-1.652-.013c-1.577-.012-1.663-.017-1.911-.101-.946-.32-1.69-1.204-1.819-2.163l-.029-.213 1.434.016c1.336.015 1.454.022 1.728.104m9.305.096c-.129.955-.875 1.84-1.819 2.16-.248.084-.334.089-1.911.101l-1.652.013.026-.112c.221-.95 1.187-1.952 2.152-2.232.406-.118.579-.13 1.919-.135l1.314-.005z" fill-rule="evenodd"/></svg>