<svg fill="none" xmlns="http://www.w3.org/2000/svg" viewBox="0 0 24 24"><path d="M11.413 2.532 C 10.640 3.326,10.227 3.890,9.884 4.620 C 9.494 5.450,9.240 6.533,9.240 7.360 C 9.240 7.558,9.229 7.720,9.216 7.720 C 9.202 7.720,9.125 7.667,9.044 7.603 C 8.648 7.289,7.893 6.877,7.351 6.679 C 6.537 6.380,5.959 6.287,4.710 6.253 L 3.760 6.227 3.760 7.134 C 3.760 8.338,3.856 8.975,4.162 9.805 C 4.857 11.689,6.311 13.143,8.195 13.838 C 8.956 14.119,9.682 14.240,10.600 14.240 L 11.240 14.240 11.240 15.380 L 11.240 16.521 11.010 16.334 C 10.249 15.714,9.393 15.369,8.396 15.281 C 7.800 15.228,5.692 15.229,5.365 15.282 C 5.047 15.334,4.864 15.426,4.642 15.647 C 4.288 15.998,4.187 16.438,4.295 17.150 C 4.540 18.755,5.606 20.026,7.139 20.541 C 7.772 20.754,7.905 20.760,12.000 20.760 C 16.095 20.760,16.228 20.754,16.861 20.541 C 18.437 20.012,19.517 18.682,19.721 17.020 C 19.799 16.385,19.692 15.979,19.358 15.647 C 19.136 15.426,18.953 15.334,18.635 15.282 C 18.308 15.229,16.200 15.228,15.604 15.281 C 14.607 15.369,13.751 15.714,12.990 16.334 L 12.760 16.521 12.760 15.380 L 12.760 14.240 13.400 14.240 C 13.761 14.240,14.212 14.214,14.434 14.181 C 16.406 13.885,18.109 12.786,19.181 11.119 C 19.608 10.456,19.960 9.562,20.119 8.738 C 20.189 8.375,20.271 7.137,20.279 6.324 L 20.280 6.227 19.310 6.253 C 18.042 6.287,17.468 6.379,16.649 6.679 C 16.107 6.877,15.352 7.289,14.956 7.603 C 14.875 7.667,14.798 7.720,14.784 7.720 C 14.771 7.720,14.760 7.558,14.760 7.360 C 14.760 7.162,14.732 6.816,14.699 6.591 C 14.517 5.378,14.095 4.362,13.385 3.422 C 13.151 3.114,12.059 1.960,12.000 1.960 C 11.984 1.960,11.720 2.218,11.413 2.532 M12.195 4.333 C 12.907 5.297,13.240 6.306,13.240 7.498 C 13.240 8.364,13.079 9.077,12.720 9.805 C 12.554 10.141,12.160 10.757,12.056 10.843 C 11.978 10.908,11.932 10.863,11.659 10.457 C 11.042 9.538,10.760 8.612,10.760 7.503 C 10.760 6.684,10.882 6.084,11.188 5.388 C 11.398 4.909,11.904 4.120,12.000 4.120 C 12.021 4.120,12.108 4.216,12.195 4.333 M5.800 7.820 C 6.891 7.984,7.897 8.497,8.700 9.300 C 9.503 10.103,10.016 11.109,10.180 12.200 C 10.270 12.797,10.293 12.750,9.930 12.713 C 8.289 12.544,6.788 11.559,5.948 10.100 C 5.603 9.501,5.348 8.711,5.295 8.078 C 5.264 7.708,5.216 7.732,5.800 7.820 M18.704 8.030 C 18.506 9.977,17.235 11.658,15.420 12.373 C 14.968 12.551,14.514 12.666,14.090 12.710 C 13.704 12.750,13.730 12.799,13.820 12.200 C 14.071 10.528,15.152 9.061,16.700 8.289 C 17.240 8.020,18.099 7.785,18.616 7.765 L 18.731 7.760 18.704 8.030 M8.914 16.874 C 9.485 17.046,9.943 17.338,10.384 17.812 C 10.761 18.219,11.036 18.701,11.137 19.132 L 11.163 19.244 9.511 19.231 C 7.934 19.219,7.848 19.214,7.600 19.130 C 6.654 18.810,5.910 17.926,5.781 16.967 L 5.752 16.754 7.186 16.770 C 8.522 16.785,8.640 16.792,8.914 16.874 M18.219 16.970 C 18.090 17.925,17.344 18.810,16.400 19.130 C 16.152 19.214,16.066 19.219,14.489 19.231 L 12.837 19.244 12.863 19.132 C 13.084 18.182,14.050 17.180,15.015 16.900 C 15.421 16.782,15.594 16.770,16.934 16.765 L 18.248 16.760 18.219 16.970 " stroke="none" fill-rule="evenodd" fill="currentColor"/></svg>