<svg xmlns="http://www.w3.org/2000/svg" viewBox="0 0 24 24"><path d="M11.413 2.532c-.773.794-1.186 1.358-1.529 2.088-.39.83-.644 1.913-.644 2.74 0 .198-.011.36-.024.36a1 1 0 0 1-.172-.117c-.396-.314-1.151-.726-1.693-.924-.814-.299-1.392-.392-2.641-.426l-.95-.026v.907c0 1.204.096 1.841.402 2.671a6.76 6.76 0 0 0 4.033 4.033c.761.281 1.487.402 2.405.402h.64v2.281l-.23-.187a4.66 4.66 0 0 0-2.614-1.053c-.596-.053-2.704-.052-3.031.001a1.16 1.16 0 0 0-.723.365c-.354.351-.455.791-.347 1.503.245 1.605 1.311 2.876 2.844 3.391.633.213.766.219 4.861.219s4.228-.006 4.861-.219c1.576-.529 2.656-1.859 2.86-3.521.078-.635-.029-1.041-.363-1.373a1.16 1.16 0 0 0-.723-.365c-.327-.053-2.435-.054-3.031-.001a4.66 4.66 0 0 0-2.614 1.053l-.23.187V14.24h.64c.361 0 .812-.026 1.034-.059a6.8 6.8 0 0 0 4.747-3.062c.427-.663.779-1.557.938-2.381.07-.363.152-1.601.16-2.414l.001-.097-.97.026c-1.268.034-1.842.126-2.661.426-.542.198-1.297.61-1.693.924a1 1 0 0 1-.172.117c-.013 0-.024-.162-.024-.36s-.028-.544-.061-.769c-.182-1.213-.604-2.229-1.314-3.169C13.151 3.114 12.059 1.96 12 1.96c-.016 0-.28.258-.587.572m.782 1.801c.712.964 1.045 1.973 1.045 3.165 0 .866-.161 1.579-.52 2.307-.166.336-.56.952-.664 1.038-.078.065-.124.02-.397-.386a5.04 5.04 0 0 1-.899-2.954c0-.819.122-1.419.428-2.115.21-.479.716-1.268.812-1.268.021 0 .108.096.195.213M5.8 7.82A5.18 5.18 0 0 1 8.7 9.3a5.18 5.18 0 0 1 1.48 2.9c.09.597.113.55-.25.513-1.641-.169-3.142-1.154-3.982-2.613-.345-.599-.6-1.389-.653-2.022-.031-.37-.079-.346.505-.258m12.904.21a5.24 5.24 0 0 1-3.284 4.343 5 5 0 0 1-1.33.337c-.386.04-.36.089-.27-.51.251-1.672 1.332-3.139 2.88-3.911.54-.269 1.399-.504 1.916-.524l.115-.005zm-9.79 8.844c.571.172 1.029.464 1.47.938.377.407.652.889.753 1.32l.026.112-1.652-.013c-1.577-.012-1.663-.017-1.911-.101-.946-.32-1.69-1.204-1.819-2.163l-.029-.213 1.434.016c1.336.015 1.454.022 1.728.104m9.305.096c-.129.955-.875 1.84-1.819 2.16-.248.084-.334.089-1.911.101l-1.652.013.026-.112c.221-.95 1.187-1.952 2.152-2.232.406-.118.579-.13 1.919-.135l1.314-.005z" fill-rule="evenodd"/></svg>