<svg xmlns="http://www.w3.org/2000/svg" viewBox="0 0 24 24"><path d="M6.68 3.282c-.354.04-.574.104-.859.247-1.026.518-1.584 1.47-2.282 3.891-.286.995-.347 1.539-.257 2.32.115 1.011.527 2.359 1.02 3.343.189.378.373.57.607.635.206.057 3.976.057 4.182 0 .326-.091.569-.446.928-1.358.656-1.667.87-3.067.639-4.184-.086-.415-.499-1.79-.692-2.304-.465-1.238-1.011-1.951-1.796-2.347-.413-.208-.982-.301-1.49-.243m10 2c-.354.04-.574.104-.859.247-1.026.518-1.584 1.47-2.282 3.891-.286.995-.347 1.539-.257 2.32.115 1.011.527 2.359 1.02 3.343.189.378.373.57.607.635.206.057 3.976.057 4.182 0 .326-.091.569-.446.928-1.358.656-1.667.87-3.067.639-4.184-.086-.415-.499-1.79-.692-2.304-.465-1.238-1.011-1.951-1.796-2.347-.413-.208-.982-.301-1.49-.243M4.82 14.276a.67.67 0 0 0-.395.245c-.169.201-.196.386-.175 1.219.016.683.029.793.123 1.08.144.439.355.78.691 1.116.335.335.676.546 1.116.692.277.091.387.105.82.105s.543-.014.82-.105c.44-.146.781-.357 1.116-.692.336-.336.547-.677.691-1.116.094-.287.107-.397.123-1.08.021-.833-.006-1.018-.176-1.22-.227-.27-.129-.259-2.494-.267-1.177-.003-2.194.007-2.26.023m10 2a.67.67 0 0 0-.395.245c-.169.201-.196.386-.175 1.219.016.683.029.793.123 1.08.144.439.355.78.691 1.116.335.335.676.546 1.116.692.277.091.387.105.82.105s.543-.014.82-.105c.44-.146.781-.357 1.116-.692.336-.336.547-.677.691-1.116.094-.287.107-.397.123-1.08.021-.833-.006-1.018-.176-1.22-.227-.27-.129-.259-2.494-.267-1.177-.003-2.194.007-2.26.023"/></svg>