<svg xmlns="http://www.w3.org/2000/svg" viewBox="0 0 24 24"><path d="M6.68 3.282c-.354.04-.574.104-.859.247-1.026.518-1.584 1.47-2.282 3.891-.286.995-.347 1.539-.257 2.32.115 1.011.527 2.359 1.02 3.343.189.378.373.57.607.635.206.057 3.976.057 4.182 0 .326-.091.569-.446.928-1.358.656-1.667.87-3.067.639-4.184-.086-.415-.499-1.79-.692-2.304-.465-1.238-1.011-1.951-1.796-2.347-.413-.208-.982-.301-1.49-.243m.836 1.596c.271.139.54.449.759.877.228.445.357.798.695 1.905l.244.8.002.66c.001.541-.016.736-.09 1.08-.098.449-.414 1.431-.582 1.81l-.103.23H5.559l-.103-.23a13.4 13.4 0 0 1-.581-1.81c-.072-.334-.091-.551-.093-1.06L4.78 8.5l.209-.703c.617-2.073.982-2.737 1.639-2.982.221-.082.667-.051.888.063m9.164.404c-.354.04-.574.104-.859.247-1.026.518-1.584 1.47-2.282 3.891-.286.995-.347 1.539-.257 2.32.115 1.011.527 2.359 1.02 3.343.189.378.373.57.607.635.206.057 3.976.057 4.182 0 .326-.091.569-.446.928-1.358.656-1.667.87-3.067.639-4.184-.086-.415-.499-1.79-.692-2.304-.465-1.238-1.011-1.951-1.796-2.347-.413-.208-.982-.301-1.49-.243m.836 1.596c.271.139.54.449.759.877.228.445.357.798.695 1.905l.244.8.002.66c.001.541-.016.736-.09 1.08-.098.449-.414 1.431-.582 1.81l-.103.23h-2.882l-.103-.23a13.4 13.4 0 0 1-.581-1.81c-.072-.334-.091-.551-.093-1.06l-.002-.64.209-.703c.617-2.073.982-2.737 1.639-2.982.221-.082.667-.051.888.063M4.82 14.276a.67.67 0 0 0-.395.245c-.169.201-.196.386-.175 1.219.016.683.029.793.123 1.08.144.439.355.78.691 1.116.335.335.676.546 1.116.692.277.091.387.105.82.105s.543-.014.82-.105c.44-.146.781-.357 1.116-.692.336-.336.547-.677.691-1.116.094-.287.107-.397.123-1.08.021-.833-.006-1.018-.176-1.22-.227-.27-.129-.259-2.494-.267-1.177-.003-2.194.007-2.26.023m3.414 1.774a1.17 1.17 0 0 1-.383.849 1.23 1.23 0 0 1-1.702 0 1.17 1.17 0 0 1-.383-.849l-.015-.29h2.498zm6.586.226a.67.67 0 0 0-.395.245c-.169.201-.196.386-.175 1.219.016.683.029.793.123 1.08.144.439.355.78.691 1.116.335.335.676.546 1.116.692.277.091.387.105.82.105s.543-.014.82-.105c.44-.146.781-.357 1.116-.692.336-.336.547-.677.691-1.116.094-.287.107-.397.123-1.08.021-.833-.006-1.018-.176-1.22-.227-.27-.129-.259-2.494-.267-1.177-.003-2.194.007-2.26.023m3.414 1.774a1.17 1.17 0 0 1-.383.849 1.23 1.23 0 0 1-1.702 0 1.17 1.17 0 0 1-.383-.849l-.015-.29h2.498z" fill-rule="evenodd"/></svg>