<svg xmlns="http://www.w3.org/2000/svg" viewBox="0 0 24 24"><path d="M11.617 3.283c-.585.069-1.098.328-1.552.781a2.7 2.7 0 0 0-.692 1.116c-.148.45-.156 1.139-.019 1.579.115.366.235.608.429.863.09.117.13.2.102.21-.113.037-.535.389-.794.661-.661.696-1.034 1.474-1.274 2.657l-.019.09-2.409.001c-1.325 0-2.48.017-2.566.037a.739.739 0 0 0-.348 1.246q.235.235.625.236h.16l-.012 1.13c-.013 1.21.014 1.513.168 1.85.108.238.431.601.658.74l.164.1.001 1.74c.001 1.143.017 1.795.046 1.899.059.213.293.441.513.5.4.108.812-.12.92-.51.026-.091.042-.787.042-1.799v-1.65h12.48v1.65c0 1.012.016 1.708.042 1.799.108.39.52.618.92.51.22-.059.454-.287.513-.5.029-.104.045-.756.046-1.899l.001-1.74.164-.1c.227-.139.55-.502.658-.74.154-.337.181-.64.168-1.85l-.012-1.13h.16q.39-.001.625-.236a.739.739 0 0 0-.348-1.246c-.086-.02-1.241-.037-2.566-.037l-2.409-.001-.019-.09c-.24-1.183-.613-1.961-1.274-2.657-.259-.272-.681-.624-.794-.661-.028-.01.012-.093.102-.21.194-.255.314-.497.429-.863.137-.44.129-1.129-.018-1.579-.424-1.293-1.642-2.06-3.011-1.897m.911 1.59c.239.117.481.359.599.599.133.27.133.787 0 1.057-.464.943-1.795.943-2.252 0a1.43 1.43 0 0 1-.074-.871c.097-.348.43-.703.785-.838.232-.088.708-.061.942.053m.238 3.981c.411.132.652.284.998.626.296.294.372.399.549.76.113.231.241.55.284.71l.078.29h-5.35l.078-.29c.043-.16.171-.479.284-.71.177-.361.253-.466.549-.76.42-.417.651-.54 1.304-.697.162-.039 1.044.012 1.226.071" fill-rule="evenodd"/></svg>