<svg xmlns="http://www.w3.org/2000/svg" viewBox="0 0 24 24"><path d="M6.805 2.28c-.547.129-.735.839-.33 1.244.172.172.366.235.725.236.328.001.932.092 1.313.2.739.207 1.498.728 1.97 1.352.175.231.582.96.551.985-.008.006-.227.05-.487.098A7.9 7.9 0 0 0 7.1 8c-.382.314-1.038.996-1.307 1.361-1.118 1.512-1.669 3.403-1.52 5.209a7.3 7.3 0 0 0 .393 1.91 8 8 0 0 0 1.315 2.401c.3.367 1.024 1.064 1.38 1.327 1.511 1.116 3.404 1.668 5.206 1.519a7.3 7.3 0 0 0 1.913-.393 7.8 7.8 0 0 0 2.416-1.331c.377-.309 1.031-.99 1.309-1.363 1.112-1.49 1.675-3.417 1.521-5.21a7.4 7.4 0 0 0-.39-1.905 7.4 7.4 0 0 0-1.754-2.88c-.653-.673-1.268-1.137-2.012-1.516-.203-.104-.37-.198-.37-.21s.067-.056.149-.1c.228-.121.711-.598.883-.873.32-.512.494-1.08.568-1.852.054-.566.006-1.188-.108-1.382-.19-.326-.482-.429-1.213-.431-1.785-.004-3.05.76-3.513 2.123-.038.111-.082.201-.099.2-.016-.001-.134-.133-.261-.293-.923-1.159-2.345-1.898-3.868-2.01-.671-.049-.802-.052-.933-.021m8.494 1.75c-.092.8-.34 1.28-.799 1.551-.198.116-.647.243-.996.28l-.264.028.001-.194c.001-.493.226-1.113.504-1.39.278-.279.866-.494 1.368-.502l.213-.003zM13.14 7.858c.198.036.575.137.838.225a6.28 6.28 0 0 1 4.168 4.802c.098.521.098 1.709 0 2.23a6.7 6.7 0 0 1-.853 2.195c-.514.808-1.278 1.566-2.04 2.024a6.9 6.9 0 0 1-2.019.793c-.355.078-.531.091-1.234.091s-.879-.013-1.234-.091a6.8 6.8 0 0 1-2.019-.793c-.629-.376-1.388-1.088-1.839-1.723a6.7 6.7 0 0 1-1.055-2.491c-.097-.523-.097-1.713-.001-2.232.488-2.633 2.625-4.69 5.268-5.07.481-.07 1.529-.049 2.02.04m2.76 5.401a1 1 0 0 1-.147.037c-.138.031-.339.201-.419.355-.034.067-.078.309-.099.545-.079.921-.371 1.547-1 2.146-.609.58-1.154.818-2.044.897-.466.041-.606.093-.765.281a.75.75 0 0 0 .386 1.203c.381.104 1.459-.095 2.118-.389a4.94 4.94 0 0 0 2.404-2.404c.294-.659.493-1.737.389-2.118a.8.8 0 0 0-.358-.469c-.111-.056-.397-.108-.465-.084" fill-rule="evenodd"/></svg>