<svg xmlns="http://www.w3.org/2000/svg" viewBox="0 0 24 24"><path d="M6.805 2.28c-.547.129-.735.839-.33 1.244.172.172.366.235.725.236.328.001.932.092 1.313.2.739.207 1.498.728 1.97 1.352.175.231.582.96.551.985-.008.006-.227.05-.487.098a7.6 7.6 0 0 0-3.902 2.024c-.947.915-1.574 1.897-1.979 3.101a7.58 7.58 0 0 0-.002 4.955 7.7 7.7 0 0 0 1.131 2.165c.278.373.932 1.054 1.309 1.363 1.512 1.239 3.563 1.886 5.466 1.723a7.3 7.3 0 0 0 1.91-.392c1.204-.405 2.186-1.032 3.101-1.979a7.36 7.36 0 0 0 1.755-2.88 7.58 7.58 0 0 0-.002-4.955 8.2 8.2 0 0 0-.876-1.8c-.74-1.105-1.853-2.09-2.988-2.645-.148-.073-.27-.142-.27-.154s.067-.058.149-.102c.228-.121.711-.598.883-.873.32-.512.494-1.08.568-1.852.054-.566.006-1.188-.108-1.382-.19-.326-.482-.429-1.213-.431-1.785-.004-3.05.76-3.513 2.123-.038.111-.082.201-.099.2-.016-.001-.134-.133-.261-.293-.923-1.159-2.345-1.898-3.868-2.01-.671-.049-.802-.052-.933-.021m8.494 1.75c-.092.8-.34 1.28-.799 1.551-.198.116-.647.243-.996.28l-.264.028.001-.194c.001-.493.226-1.113.504-1.39.278-.279.866-.494 1.368-.502l.213-.003zm1.09 9.337c.309.188.39.449.332 1.065a4.6 4.6 0 0 1-.48 1.668c-.289.585-.527.905-1.018 1.367-.77.726-1.665 1.136-2.749 1.259-.624.072-.887-.007-1.099-.326a.77.77 0 0 1-.017-.777c.163-.264.332-.342.828-.382.858-.07 1.505-.365 2.098-.957.591-.592.878-1.22.954-2.086.043-.487.108-.646.329-.803a.76.76 0 0 1 .822-.028"/></svg>