<svg xmlns="http://www.w3.org/2000/svg" viewBox="0 0 24 24"><path d="M6.31 5.285C4.941 5.417 3.637 6.474 3.207 7.8a5 5 0 0 0-.125.447c-.044.199-.642 7.258-.642 7.571 0 .274.11.763.246 1.089.355.856 1.103 1.502 2.036 1.757.35.096 1.083.097 1.438.001.143-.038.427-.15.63-.248.467-.225.745-.482 1.495-1.382.306-.369.645-.734.751-.812.259-.19.655-.372.92-.422.286-.054 3.802-.054 4.088 0 .265.05.661.232.92.422.106.078.445.443.751.812.75.9 1.028 1.157 1.495 1.382.526.253.8.318 1.35.318 1.02 0 1.884-.457 2.474-1.308.294-.425.526-1.134.526-1.609 0-.4-.604-7.389-.659-7.626-.134-.58-.317-.979-.652-1.424a3.73 3.73 0 0 0-2.632-1.486c-.53-.051-10.783-.048-11.307.003m11.418 1.519c.308.063.747.29 1.003.518.387.345.655.838.727 1.338.08.556.585 6.966.569 7.223a1.43 1.43 0 0 1-.818 1.206c-.249.122-.296.131-.668.131-.661-.001-.764-.072-1.663-1.141-.766-.912-1.076-1.176-1.731-1.477-.697-.321-1.043-.361-3.147-.361s-2.45.04-3.147.361c-.655.301-.965.565-1.731 1.477-.899 1.069-1.002 1.14-1.662 1.141-.358 0-.427-.012-.652-.116a1.46 1.46 0 0 1-.835-1.221c-.016-.257.489-6.667.569-7.223.125-.868.822-1.637 1.667-1.842.282-.068 11.191-.082 11.519-.014M7.82 8.276a.67.67 0 0 0-.394.244c-.144.171-.186.357-.186.83v.41h-.462c-.531 0-.695.057-.886.307-.099.13-.112.181-.112.436 0 .263.011.303.121.439.206.255.332.298.868.298h.471v.41c.001.509.049.688.236.875a.74.74 0 0 0 1.098-.045c.144-.171.186-.357.186-.83v-.41h.462c.472 0 .609-.034.792-.195.21-.184.289-.604.161-.857-.176-.348-.354-.428-.953-.428H8.76v-.41c0-.473-.042-.659-.186-.83a.78.78 0 0 0-.754-.244m8.88.541c-.248.111-.457.423-.459.685-.001.185.177.504.345.618.121.082.196.1.414.1s.293-.018.414-.1c.168-.114.346-.433.345-.618-.002-.263-.243-.605-.492-.699a.9.9 0 0 0-.567.014m-2 2c-.248.111-.457.423-.459.685-.001.185.177.504.345.618.121.082.196.1.414.1s.293-.018.414-.1c.168-.114.346-.433.345-.618-.002-.263-.243-.605-.492-.699a.9.9 0 0 0-.567.014" fill-rule="evenodd"/></svg>