<svg xmlns="http://www.w3.org/2000/svg" viewBox="0 0 24 24"><path d="M6.31 5.285C4.941 5.417 3.637 6.474 3.207 7.8a5 5 0 0 0-.125.447c-.044.199-.642 7.258-.642 7.571 0 .274.11.763.246 1.089.355.856 1.103 1.502 2.036 1.757.35.096 1.083.097 1.438.001.143-.038.427-.15.63-.248.467-.225.745-.482 1.495-1.382.306-.369.645-.734.751-.812.259-.19.655-.372.92-.422.286-.054 3.802-.054 4.088 0 .265.05.661.232.92.422.106.078.445.443.751.812.75.9 1.028 1.157 1.495 1.382.526.253.8.318 1.35.318 1.02 0 1.884-.457 2.474-1.308.294-.425.526-1.134.526-1.609 0-.4-.604-7.389-.659-7.626-.134-.58-.317-.979-.652-1.424a3.73 3.73 0 0 0-2.632-1.486c-.53-.051-10.783-.048-11.307.003m2.055 3.058a.8.8 0 0 1 .353.448c.023.082.042.334.042.559v.41h.462c.599 0 .777.08.953.428.128.253.049.673-.161.857-.183.161-.32.195-.792.195H8.76v.41c0 .473-.042.659-.186.83a.74.74 0 0 1-1.098.045c-.187-.187-.235-.366-.236-.875v-.41h-.471c-.536 0-.662-.043-.868-.298-.11-.136-.121-.176-.121-.439 0-.255.013-.306.112-.436.191-.25.355-.307.886-.307h.462v-.41c0-.225.019-.477.042-.559.045-.164.2-.368.332-.439a.87.87 0 0 1 .751-.009m8.902.46c.249.094.49.436.492.699.001.185-.177.504-.345.618-.121.082-.196.1-.414.1-.335 0-.516-.109-.661-.398-.118-.235-.123-.384-.023-.606.171-.377.579-.554.951-.413m-2 2c.249.094.49.436.492.699.001.185-.177.504-.345.618-.121.082-.196.1-.414.1-.335 0-.516-.109-.661-.398-.118-.235-.123-.384-.023-.606.171-.377.579-.554.951-.413"/></svg>