<svg xmlns="http://www.w3.org/2000/svg" viewBox="0 0 24 24"><path d="M6.315 5.281a4.1 4.1 0 0 0-1.708.646c-.3.203-.813.747-1.023 1.084a4 4 0 0 0-.483 1.16c-.089.383-.672 7.422-.645 7.789.048.662.334 1.326.775 1.803.608.657 1.327.973 2.209.973.548 0 .925-.092 1.408-.342.411-.214.747-.532 1.432-1.354.31-.371.65-.739.756-.817.259-.19.655-.372.92-.422.127-.024.969-.041 2.059-.04 2.001 0 2.135.012 2.556.224.383.193.582.375 1.144 1.05.307.368.682.786.833.928.32.302.771.552 1.234.683.444.126 1.11.127 1.55.002a3.02 3.02 0 0 0 2.182-2.434c.062-.366.062-.376-.229-3.9-.16-1.944-.317-3.699-.348-3.901-.225-1.461-1.297-2.64-2.772-3.046l-.385-.106-5.6-.006c-3.08-.003-5.719.008-5.865.026m2.09 3.1c.268.173.33.329.348.887l.017.492.445.001c.611.001.816.097.963.449a.74.74 0 0 1 0 .58c-.147.352-.352.448-.963.449l-.445.001-.017.499c-.016.476-.022.507-.135.668-.165.235-.346.332-.618.332s-.453-.097-.618-.332c-.113-.161-.119-.192-.135-.668l-.017-.499-.445-.001c-.611-.001-.816-.097-.963-.449a.8.8 0 0 1 .13-.804c.147-.166.362-.224.833-.225l.445-.001.017-.492c.014-.424.028-.511.107-.639a.743.743 0 0 1 1.051-.248m8.862.422a.75.75 0 0 1 .464.697.69.69 0 0 1-.237.547c-.465.44-1.225.1-1.225-.547 0-.3.189-.591.451-.695a.95.95 0 0 1 .547-.002m-2 2a.75.75 0 0 1 .464.697.69.69 0 0 1-.237.547c-.465.44-1.225.1-1.225-.547 0-.3.189-.591.451-.695a.95.95 0 0 1 .547-.002"/></svg>