<svg xmlns="http://www.w3.org/2000/svg" viewBox="0 0 24 24"><path d="M6.31 5.285C4.941 5.417 3.637 6.474 3.207 7.8a5 5 0 0 0-.125.447c-.044.199-.642 7.258-.642 7.571 0 .274.11.763.246 1.089.355.856 1.103 1.502 2.036 1.757.35.096 1.083.097 1.438.001.143-.038.427-.15.63-.248.467-.225.745-.482 1.495-1.382.306-.369.645-.734.751-.812.259-.19.655-.372.92-.422.286-.054 3.802-.054 4.088 0 .265.05.661.232.92.422.106.078.445.443.751.812.75.9 1.028 1.157 1.495 1.382.526.253.8.318 1.35.318 1.02 0 1.884-.457 2.474-1.308.294-.425.526-1.134.526-1.609 0-.4-.604-7.389-.659-7.626-.134-.58-.317-.979-.652-1.424a3.73 3.73 0 0 0-2.632-1.486c-.53-.051-10.783-.048-11.307.003M18.015 6.89c.728.291 1.248.889 1.404 1.61.081.379.633 7.05.61 7.384-.034.512-.382 1.004-.868 1.232-.193.09-.272.103-.621.101-.663-.003-.758-.068-1.618-1.095-.775-.925-1.03-1.154-1.622-1.454-.768-.389-1.064-.427-3.3-.427s-2.532.038-3.3.427c-.592.3-.847.529-1.622 1.454-.86 1.027-.955 1.092-1.618 1.095-.349.002-.428-.011-.621-.101-.486-.228-.834-.72-.868-1.232-.023-.334.529-7.005.61-7.384.18-.833.885-1.53 1.719-1.7.088-.017 2.698-.029 5.8-.026l5.64.006zM7.7 8.316c-.355.163-.46.392-.46 1v.438l-.516.013c-.508.013-.519.015-.67.136a.71.71 0 0 0-.294.588c0 .234.073.414.225.556.174.163.298.193.798.193h.457l.001.45c.001.489.057.686.244.858a.746.746 0 0 0 1.199-.248c.058-.125.074-.258.075-.61l.001-.45h.457c.5 0 .624-.03.798-.193a.72.72 0 0 0 .225-.556.71.71 0 0 0-.294-.588c-.151-.121-.162-.123-.67-.136l-.516-.013-.001-.447c-.001-.349-.017-.482-.075-.607-.181-.392-.607-.558-.984-.384m8.947.53a.737.737 0 0 0-.326.975c.255.527 1.017.567 1.325.069a.78.78 0 0 0-.02-.802.77.77 0 0 0-.979-.242m-2 2a.737.737 0 0 0-.326.975c.255.527 1.017.567 1.325.069a.78.78 0 0 0-.02-.802.77.77 0 0 0-.979-.242"/></svg>