<svg fill="none" xmlns="http://www.w3.org/2000/svg" viewBox="0 0 24 24"><path d="M6.310 5.285 C 4.941 5.417,3.637 6.474,3.207 7.800 C 3.160 7.943,3.104 8.144,3.082 8.247 C 3.038 8.446,2.440 15.505,2.440 15.818 C 2.440 16.092,2.550 16.581,2.686 16.907 C 3.041 17.763,3.789 18.409,4.722 18.664 C 5.072 18.760,5.805 18.761,6.160 18.665 C 6.303 18.627,6.587 18.515,6.790 18.417 C 7.257 18.192,7.535 17.935,8.285 17.035 C 8.591 16.666,8.930 16.301,9.036 16.223 C 9.295 16.033,9.691 15.851,9.956 15.801 C 10.242 15.747,13.758 15.747,14.044 15.801 C 14.309 15.851,14.705 16.033,14.964 16.223 C 15.070 16.301,15.409 16.666,15.715 17.035 C 16.465 17.935,16.743 18.192,17.210 18.417 C 17.736 18.670,18.010 18.735,18.560 18.735 C 19.580 18.735,20.444 18.278,21.034 17.427 C 21.328 17.002,21.560 16.293,21.560 15.818 C 21.560 15.418,20.956 8.429,20.901 8.192 C 20.767 7.612,20.584 7.213,20.249 6.768 C 19.611 5.918,18.658 5.380,17.617 5.282 C 17.087 5.231,6.834 5.234,6.310 5.285 M8.365 8.343 C 8.514 8.419,8.670 8.617,8.718 8.791 C 8.741 8.873,8.760 9.125,8.760 9.350 L 8.760 9.760 9.222 9.760 C 9.821 9.760,9.999 9.840,10.175 10.188 C 10.303 10.441,10.224 10.861,10.014 11.045 C 9.831 11.206,9.694 11.240,9.222 11.240 L 8.760 11.240 8.760 11.650 C 8.760 12.123,8.718 12.309,8.574 12.480 C 8.289 12.818,7.789 12.839,7.476 12.525 C 7.289 12.338,7.241 12.159,7.240 11.650 L 7.240 11.240 6.769 11.240 C 6.233 11.240,6.107 11.197,5.901 10.942 C 5.791 10.806,5.780 10.766,5.780 10.503 C 5.780 10.248,5.793 10.197,5.892 10.067 C 6.083 9.817,6.247 9.760,6.778 9.760 L 7.240 9.760 7.240 9.350 C 7.240 9.125,7.259 8.873,7.282 8.791 C 7.327 8.627,7.482 8.423,7.614 8.352 C 7.831 8.235,8.147 8.232,8.365 8.343 M17.267 8.803 C 17.516 8.897,17.757 9.239,17.759 9.502 C 17.760 9.687,17.582 10.006,17.414 10.120 C 17.293 10.202,17.218 10.220,17.000 10.220 C 16.665 10.220,16.484 10.111,16.339 9.822 C 16.221 9.587,16.216 9.438,16.316 9.216 C 16.487 8.839,16.895 8.662,17.267 8.803 M15.267 10.803 C 15.516 10.897,15.757 11.239,15.759 11.502 C 15.760 11.687,15.582 12.006,15.414 12.120 C 15.293 12.202,15.218 12.220,15.000 12.220 C 14.665 12.220,14.484 12.111,14.339 11.822 C 14.221 11.587,14.216 11.438,14.316 11.216 C 14.487 10.839,14.895 10.662,15.267 10.803 " stroke="none" fill-rule="evenodd"/></svg>