<svg xmlns="http://www.w3.org/2000/svg" viewBox="0 0 24 24"><path d="M6.617 3.283q-.873.101-1.552.781a2.74 2.74 0 0 0-.696 1.116l-.109.32-.011 6.87-.011 6.87-.629.001c-.86.001-1.029.049-1.236.354-.268.393-.049.993.408 1.12.225.063 15.213.063 15.438 0a.84.84 0 0 0 .306-.191.739.739 0 0 0-.348-1.246c-.086-.02-.665-.037-1.287-.037l-1.13-.001v-7.48h.174c.322 0 .306-.104.307 2.043 0 2.099.012 2.229.247 2.708.178.366.635.823 1.001 1.001a2.25 2.25 0 0 0 2.022 0c.366-.178.823-.635 1.002-1.001.255-.523.251-.448.238-4.565L20.74 8.22l-.093-.26c-.188-.523-.29-.65-1.503-1.873-.64-.645-1.231-1.208-1.312-1.25-.434-.225-1.009.068-1.062.541-.046.405-.061.383 1.166 1.622.621.627 1.164 1.194 1.207 1.26.074.116.077.243.088 3.77s.008 3.655-.066 3.8q-.224.438-.728.402a.69.69 0 0 1-.597-.393c-.077-.149-.08-.238-.081-2.047-.001-2.407-.017-2.501-.535-3.012-.332-.328-.597-.453-1.077-.509l-.383-.045-.013-2.363-.012-2.363-.109-.32a2.7 2.7 0 0 0-.695-1.116c-.472-.471-.961-.709-1.606-.783-.419-.048-6.298-.046-6.712.002m6.911 1.59c.239.118.481.36.599.599l.093.188.01 6.79.011 6.79H5.76v-6.735c0-7.384-.016-6.889.236-7.233.065-.087.189-.212.277-.276.328-.241.167-.232 3.767-.224l3.3.008zM8.805 9.28c-.391.092-.633.519-.524.924.059.218.288.453.5.511.214.06 2.224.06 2.438 0a.84.84 0 0 0 .306-.191.739.739 0 0 0-.348-1.246c-.191-.044-2.183-.043-2.372.002" fill-rule="evenodd"/></svg>