<svg xmlns="http://www.w3.org/2000/svg" viewBox="0 0 24 24"><path d="M6.656 3.281a2.75 2.75 0 0 0-2.112 1.496c-.306.626-.281-.039-.294 7.613l-.011 6.85-.63.001c-.86.001-1.029.049-1.236.354-.268.393-.049.993.408 1.12.225.063 15.213.063 15.438 0a.84.84 0 0 0 .306-.191.739.739 0 0 0-.348-1.246c-.086-.02-.665-.037-1.287-.037l-1.13-.001v-7.48h.174c.322 0 .306-.104.307 2.043 0 2.099.012 2.229.247 2.708.178.366.635.823 1.001 1.001a2.25 2.25 0 0 0 2.022 0c.366-.178.823-.635 1.002-1.001.255-.523.251-.448.238-4.565L20.74 8.22l-.093-.26c-.188-.523-.29-.65-1.503-1.873-.64-.645-1.231-1.208-1.312-1.25-.434-.225-1.009.068-1.062.541-.046.405-.061.383 1.166 1.622.621.627 1.164 1.194 1.207 1.26.074.116.077.243.088 3.77s.008 3.655-.066 3.8q-.224.438-.728.402a.69.69 0 0 1-.597-.393c-.077-.149-.08-.238-.081-2.047-.001-2.407-.017-2.501-.535-3.012-.332-.328-.597-.453-1.077-.509l-.383-.045-.014-2.343c-.013-2.104-.022-2.368-.086-2.583a2.8 2.8 0 0 0-1.462-1.762c-.573-.283-.422-.272-4.042-.281-1.793-.005-3.37.006-3.504.024m4.732 6.086a.7.7 0 0 1 .345.64c0 .196-.019.264-.117.402-.232.331-.233.331-1.616.331s-1.384 0-1.616-.331c-.286-.406-.056-1.011.431-1.132.069-.017.639-.028 1.268-.024l1.143.007z" fill-rule="evenodd"/></svg>