<svg xmlns="http://www.w3.org/2000/svg" viewBox="0 0 24 24"><path d="M11.2 3.058a5.7 5.7 0 0 0-1.88.582c-1.662.835-2.793 2.311-3.209 4.19-.125.565-.125 1.775 0 2.34.54 2.435 2.324 4.219 4.71 4.71.213.044.395.08.403.08s.016.513.016 1.14v1.14l-1.13.001c-.621 0-1.201.017-1.287.037a.739.739 0 0 0-.348 1.246.84.84 0 0 0 .306.191c.099.028.593.045 1.309.045h1.15v1.15c0 .668.018 1.212.042 1.299.108.39.52.618.92.51.22-.059.454-.287.513-.5.028-.099.045-.593.045-1.309v-1.15h1.15c.716 0 1.21-.017 1.309-.045a.84.84 0 0 0 .306-.191.739.739 0 0 0-.348-1.246c-.086-.02-.665-.037-1.287-.037l-1.13-.001V16.1c0-.627.007-1.14.016-1.14.008 0 .19-.036.403-.08 2.385-.49 4.173-2.278 4.708-4.706.126-.571.126-1.777 0-2.348-.546-2.475-2.413-4.297-4.846-4.729-.489-.087-1.381-.106-1.841-.039" fill-rule="evenodd"/></svg>