<svg xmlns="http://www.w3.org/2000/svg" viewBox="0 0 24 24"><path d="M11.68 2.267c-2.052.106-3.871 1.084-5.125 2.753-.621.826-1.064 1.916-1.238 3.04-.064.412-.064 1.468 0 1.88.233 1.506.867 2.768 1.921 3.822a6.62 6.62 0 0 0 3.682 1.894l.3.047.011.769.011.768-1.131.001c-.622 0-1.202.017-1.288.037a.739.739 0 0 0-.348 1.246.84.84 0 0 0 .306.191c.099.028.593.045 1.309.045h1.15v1.15c0 .716.017 1.21.045 1.309.059.213.293.441.513.5.4.108.812-.12.92-.51.024-.087.042-.631.042-1.299v-1.15h1.15c.716 0 1.21-.017 1.309-.045a.84.84 0 0 0 .306-.191.739.739 0 0 0-.348-1.246c-.086-.02-.666-.037-1.288-.037l-1.131-.001.011-.768.011-.769.3-.047c2.365-.373 4.418-2.059 5.242-4.305A6.4 6.4 0 0 0 18.733 9a6.4 6.4 0 0 0-.411-2.351c-.755-2.058-2.535-3.65-4.682-4.187a7.5 7.5 0 0 0-1.96-.195m1.36 1.593c.409.089.963.281 1.299.45a5.25 5.25 0 0 1 2.738 5.976A5.26 5.26 0 0 1 12 14.24a5.25 5.25 0 0 1-4.953-3.54c-.213-.628-.267-.97-.267-1.7s.054-1.072.267-1.7a5.25 5.25 0 0 1 3.609-3.365c.53-.139.838-.172 1.464-.156.366.009.743.042.92.081" fill-rule="evenodd"/></svg>