<svg xmlns="http://www.w3.org/2000/svg" viewBox="0 0 24 24"><path d="M17.22 2.42a2 2 0 0 1-.16.039c-.089.019-.566.47-1.834 1.734-1.733 1.726-1.863 1.875-1.865 2.149-.001.18.177.504.336.612.099.067.725.24 2.211.612l2.227.559.155.041-1.181 1.187c-1.043 1.048-1.186 1.208-1.229 1.365-.154.573.308 1.053.907.944.135-.024.357-.231 1.887-1.755.982-.978 1.759-1.783 1.79-1.856a.75.75 0 0 0-.264-.897c-.124-.081-.677-.233-2.381-.659l-2.218-.554 1.157-1.161c.766-.767 1.179-1.21 1.22-1.309a.744.744 0 0 0-.578-1.042.6.6 0 0 0-.18-.009M7.358 8.554c-.251.162-2.509 2.457-2.693 2.738-.803 1.225-.867 2.737-.168 3.962.227.396.364.565.98 1.198l.498.512-.849.85c-.741.742-.856.874-.906 1.04-.131.434.148.876.608.96a.8.8 0 0 0 .318-.034c.166-.05.298-.165 1.04-.906l.85-.849.512.498c.633.616.802.753 1.198.98 1.236.705 2.763.634 3.979-.185.314-.212 2.603-2.472 2.742-2.708a.77.77 0 0 0 .03-.698c-.036-.072-.361-.429-.721-.793l-.655-.661.662-.659c.364-.362.689-.709.721-.77.073-.137.081-.411.019-.601-.095-.287-.454-.495-.789-.457-.242.027-.383.135-1.074.828l-.599.601-1.23-1.229-1.229-1.228.659-.666c.671-.679.779-.831.779-1.097 0-.161-.089-.4-.192-.513-.187-.207-.591-.288-.859-.171-.071.031-.426.354-.788.719l-.659.664-.661-.655c-.364-.36-.719-.684-.789-.719a.8.8 0 0 0-.734.049m5.533 8.569c-.914.906-1.157 1.1-1.551 1.24-.331.117-.913.146-1.27.062-.588-.139-.622-.166-2.432-1.97-1.71-1.705-1.854-1.871-2.011-2.33-.109-.318-.132-.874-.05-1.22.129-.552.277-.757 1.261-1.757l.897-.912 3.014 3.012 3.014 3.012z"/></svg>