<svg xmlns="http://www.w3.org/2000/svg" viewBox="0 0 24 24"><path d="M8.14 2.277c-.631.083-1.103.322-1.581.802C6.002 3.636 5.76 4.218 5.76 5c0 .77.242 1.359.783 1.91l.324.33-1.423.001c-.783 0-1.55.019-1.704.041-.372.053-.668.206-.964.498-.479.473-.535.703-.535 2.22 0 1.475.05 1.704.473 2.165.108.118.27.26.359.315l.163.1.012 3.46.012 3.46.109.32c.151.445.362.783.695 1.116s.671.544 1.116.695l.32.109h13l.32-.109a2.74 2.74 0 0 0 1.116-.695c.333-.333.544-.671.695-1.116l.109-.32.012-3.46.012-3.46.163-.1c.089-.055.251-.197.359-.315.423-.461.473-.69.473-2.165 0-1.517-.056-1.747-.535-2.22-.296-.292-.592-.445-.964-.498-.154-.022-.921-.041-1.704-.041l-1.423-.001.324-.33c.541-.551.783-1.14.783-1.91 0-.782-.242-1.364-.799-1.921-.377-.378-.774-.615-1.241-.743-.396-.109-1.579-.098-2.02.019-.853.224-1.726.922-2.071 1.653-.049.104-.098.189-.109.189s-.06-.085-.109-.189c-.346-.733-1.23-1.438-2.068-1.649-.357-.089-1.284-.135-1.683-.082M9.455 3.82a1.75 1.75 0 0 1 1.268 1.45c.019.149.035.428.036.622l.001.352-1.31-.012-1.31-.012-.203-.107a1.5 1.5 0 0 1-.551-.541c-.155-.299-.155-.843-.002-1.141.138-.266.423-.505.731-.616.207-.074 1.049-.07 1.34.005m6.574.051q.579.306.687.899c.045.253.001.602-.102.802a1.5 1.5 0 0 1-.551.541l-.203.107-1.31.012-1.31.012.001-.352c.003-.793.143-1.232.509-1.598.431-.431.745-.537 1.55-.522.491.009.581.021.729.099M11.24 10v1.24H7.573c-3.356 0-3.673-.006-3.74-.066s-.073-.152-.073-1.167c0-.968.008-1.11.066-1.174.063-.07.232-.073 3.74-.073h3.674zm8.927-1.174c.067.061.073.152.073 1.167 0 .968-.008 1.11-.066 1.174-.063.07-.232.073-3.74.073H12.76V8.76h3.667c3.356 0 3.673.006 3.74.066M11.24 16.5v3.74H8.502c-2.649 0-2.746-.003-2.955-.081-.258-.096-.542-.362-.674-.63l-.093-.189-.011-3.29-.01-3.29h6.481zm7.991-.45-.011 3.29-.093.189c-.132.268-.416.534-.674.63-.209.078-.306.081-2.955.081H12.76v-7.48h6.481z" fill-rule="evenodd"/></svg>