<svg xmlns="http://www.w3.org/2000/svg" viewBox="0 0 24 24"><path d="M8.14 2.277c-.631.083-1.103.322-1.581.802C6.002 3.636 5.76 4.218 5.76 5c0 .77.242 1.359.783 1.91l.324.33-1.423.001c-.783 0-1.55.019-1.704.041-.372.053-.668.206-.964.498-.479.473-.535.703-.535 2.22 0 1.475.05 1.704.473 2.165.108.118.27.26.36.315l.162.1.014 3.44c.015 3.825-.001 3.6.293 4.2.336.688.978 1.215 1.757 1.445.218.065.503.073 3.09.085l2.85.013V12.76h1.52v9.003l2.85-.013c2.597-.013 2.871-.02 3.09-.085a2.86 2.86 0 0 0 1.965-1.965c.066-.221.073-.512.085-3.68l.014-3.44.162-.1c.09-.055.252-.197.36-.315.423-.461.473-.69.473-2.165 0-1.517-.056-1.747-.535-2.22-.296-.292-.592-.445-.964-.498-.154-.022-.921-.041-1.704-.041l-1.423-.001.324-.33c.541-.551.783-1.14.783-1.91 0-.782-.242-1.364-.799-1.921-.377-.378-.774-.615-1.241-.743-.396-.109-1.579-.098-2.02.019-.853.224-1.726.922-2.071 1.653-.049.104-.098.189-.109.189s-.06-.085-.109-.189c-.346-.733-1.23-1.438-2.068-1.649-.357-.089-1.284-.135-1.683-.082M9.455 3.82a1.75 1.75 0 0 1 1.268 1.45c.019.149.035.428.036.622l.001.352-1.31-.012-1.31-.012-.203-.107a1.5 1.5 0 0 1-.551-.541c-.155-.299-.155-.843-.002-1.141.138-.266.423-.505.731-.616.207-.074 1.049-.07 1.34.005m6.574.051q.579.306.687.899c.045.253.001.602-.102.802a1.5 1.5 0 0 1-.551.541l-.203.107-1.31.012-1.31.012.001-.352c.003-.793.143-1.232.509-1.598.431-.431.745-.537 1.55-.522.491.009.581.021.729.099M11.24 10v1.24H7.573c-3.356 0-3.673-.006-3.74-.066s-.073-.152-.073-1.167c0-.968.008-1.11.066-1.174.063-.07.232-.073 3.74-.073h3.674zm8.927-1.174c.067.061.073.152.073 1.167 0 .968-.008 1.11-.066 1.174-.063.07-.232.073-3.74.073H12.76V8.76h3.667c3.356 0 3.673.006 3.74.066" fill-rule="evenodd"/></svg>