<svg xmlns="http://www.w3.org/2000/svg" viewBox="0 0 24 24"><path d="M9.18 2.268a6.3 6.3 0 0 0-3.44 1.246 8 8 0 0 0-.594.522A6.16 6.16 0 0 0 3.281 7.94c-.059.631-.056 11.066.004 11.279.057.208.293.441.503.498.118.031 1.766.041 5.798.034 4.802-.009 5.651-.019 5.746-.068.179-.092 5.342-5.75 5.519-6.048.252-.425.358-.815.379-1.402.015-.386.003-.58-.048-.812-.218-.98-1.043-1.829-2.022-2.083-.344-.089-1.015-.09-1.36-.002-.642.164-1.127.492-1.66 1.124l-.36.427-.025-1.534c-.015-.877-.045-1.644-.072-1.793-.261-1.444-.842-2.563-1.829-3.524a6.2 6.2 0 0 0-2.334-1.447c-.623-.225-1.577-.356-2.34-.321m1.097 1.553a5 5 0 0 1 1.883.744c.335.218 1.057.94 1.275 1.275.227.35.458.831.584 1.219.208.643.221.837.221 3.516 0 1.824.013 2.518.049 2.638a.758.758 0 0 0 1.08.443c.061-.032.563-.6 1.116-1.262a41 41 0 0 1 1.13-1.319c.245-.224.449-.295.845-.295.312.001.386.015.56.107.261.139.514.403.625.653.068.154.088.278.089.54.001.386-.051.579-.229.847-.069.103-1.183 1.34-2.475 2.75l-2.351 2.563H4.76v-5.07c0-5.51-.002-5.45.224-6.127.126-.379.36-.864.581-1.203.218-.335.94-1.057 1.275-1.275a4.84 4.84 0 0 1 3.437-.744M3.805 20.28c-.391.092-.633.519-.524.924.059.218.288.453.5.511.225.063 11.213.063 11.438 0a.84.84 0 0 0 .306-.191.739.739 0 0 0-.348-1.246c-.194-.045-11.182-.043-11.372.002" fill-rule="evenodd"/></svg>