<svg xmlns="http://www.w3.org/2000/svg" viewBox="0 0 24 24"><path d="M9.18 2.268a6.3 6.3 0 0 0-3.44 1.246 8 8 0 0 0-.594.522A6.16 6.16 0 0 0 3.281 7.94c-.059.631-.056 11.066.004 11.279.057.208.293.441.503.498.118.031 1.766.041 5.798.034 4.802-.009 5.651-.019 5.746-.068.179-.092 5.342-5.75 5.519-6.048.252-.425.358-.815.379-1.402.015-.386.003-.58-.048-.812-.218-.98-1.043-1.829-2.022-2.083-.344-.089-1.015-.09-1.36-.002-.642.164-1.127.492-1.66 1.124l-.36.427-.025-1.534c-.015-.877-.045-1.644-.072-1.793-.261-1.444-.842-2.563-1.829-3.524a6.2 6.2 0 0 0-2.334-1.447c-.623-.225-1.577-.356-2.34-.321M3.805 20.28c-.391.092-.633.519-.524.924.059.218.288.453.5.511.225.063 11.213.063 11.438 0a.84.84 0 0 0 .306-.191.739.739 0 0 0-.348-1.246c-.194-.045-11.182-.043-11.372.002"/></svg>