<svg xmlns="http://www.w3.org/2000/svg" viewBox="0 0 24 24"><path d="M11.393 2.282C9.06 2.45 6.87 3.737 5.542 5.72c-.932 1.392-1.408 3.214-1.268 4.85.063.737.166 1.242.392 1.91.405 1.204 1.032 2.186 1.979 3.101a7.36 7.36 0 0 0 2.88 1.755 7.58 7.58 0 0 0 4.95 0 7.36 7.36 0 0 0 2.88-1.755c.947-.915 1.574-1.897 1.979-3.101a7.57 7.57 0 0 0 0-4.96c-.405-1.204-1.032-2.186-1.979-3.101-1.328-1.282-2.957-2.004-4.828-2.139a11 11 0 0 0-.627-.034zm4.967 8.059a.78.78 0 0 1 .338.388c.215.514-.241 1.097-.792 1.014-.666-.1-.882-.961-.339-1.348a.8.8 0 0 1 .793-.054m-2 2a.78.78 0 0 1 .338.388c.215.514-.241 1.097-.792 1.014-.666-.1-.882-.961-.339-1.348a.8.8 0 0 1 .793-.054m-6.662 5.654c-.332.151-.512.505-.424.834.074.278.182.397.499.548.777.371 2.545.823 3.219.823.242 0 .248.011.248.454 0 .469.042.655.186.826a.74.74 0 0 0 1.098.045c.187-.187.235-.366.236-.871 0-.443.006-.454.248-.454.674 0 2.442-.452 3.219-.823.317-.151.425-.27.499-.548.088-.329-.092-.683-.424-.834-.235-.107-.373-.093-.832.081-1.309.496-2.174.661-3.47.661s-2.161-.165-3.47-.661c-.459-.174-.597-.188-.832-.081" fill-rule="evenodd"/></svg>