<svg xmlns="http://www.w3.org/2000/svg" viewBox="0 0 24 24"><path d="M11.369 2.283A7.86 7.86 0 0 0 7.1 4c-.382.314-1.038.996-1.307 1.361-1.118 1.512-1.669 3.403-1.52 5.209.06.726.164 1.233.391 1.905a7.35 7.35 0 0 0 1.773 2.898c.688.706 1.238 1.115 2.079 1.543a7.76 7.76 0 0 0 4.054.811 7.3 7.3 0 0 0 1.905-.391 7.36 7.36 0 0 0 2.88-1.755c.947-.915 1.574-1.897 1.979-3.101a7.58 7.58 0 0 0 .002-4.955 7.4 7.4 0 0 0-1.754-2.88c-.702-.724-1.295-1.159-2.162-1.587a7.5 7.5 0 0 0-2.869-.777c-.577-.044-.579-.044-1.182.002m1.771 1.575c.198.036.575.137.838.225a6.28 6.28 0 0 1 4.168 4.802c.098.521.098 1.709 0 2.23a6.7 6.7 0 0 1-.853 2.195c-.514.808-1.278 1.566-2.04 2.024a6.9 6.9 0 0 1-2.019.793c-.355.078-.531.091-1.234.091s-.879-.013-1.234-.091a6.8 6.8 0 0 1-2.019-.793c-.629-.376-1.388-1.088-1.839-1.723a6.7 6.7 0 0 1-1.055-2.491c-.097-.523-.097-1.713-.001-2.232.488-2.633 2.625-4.69 5.268-5.07.481-.07 1.529-.049 2.02.04m2.665 6.421a.77.77 0 0 0-.544.597c-.077.453.303.883.781.884.157 0 .441-.164.576-.334.109-.137.122-.182.122-.426 0-.245-.012-.288-.124-.426-.212-.262-.506-.369-.811-.295m-2 2a.77.77 0 0 0-.544.597c-.077.453.303.883.781.884.157 0 .441-.164.576-.334.109-.137.122-.182.122-.426 0-.245-.012-.288-.124-.426-.212-.262-.506-.369-.811-.295m-6.107 5.716c-.332.151-.512.505-.424.834.074.278.182.397.499.548.777.371 2.545.823 3.219.823.242 0 .248.011.248.454 0 .469.042.655.186.826a.74.74 0 0 0 1.098.045c.187-.187.235-.366.236-.871 0-.443.006-.454.248-.454.674 0 2.442-.452 3.219-.823.317-.151.425-.27.499-.548.088-.329-.092-.683-.424-.834-.235-.107-.373-.093-.832.081-1.309.496-2.174.661-3.47.661s-2.161-.165-3.47-.661c-.459-.174-.597-.188-.832-.081" fill-rule="evenodd"/></svg>