<svg xmlns="http://www.w3.org/2000/svg" viewBox="0 0 24 24"><path d="M4.617 3.283q-.873.101-1.552.781a2.74 2.74 0 0 0-.696 1.116l-.109.32v13l.109.32c.151.445.362.783.695 1.116s.671.544 1.116.695l.32.109h15l.32-.109a2.74 2.74 0 0 0 1.116-.695c.333-.333.544-.671.695-1.116l.109-.32v-13l-.109-.32a2.74 2.74 0 0 0-.696-1.116c-.472-.471-.961-.709-1.606-.783-.426-.049-14.293-.047-14.712.002M5.24 12v7.24h-.233c-.128 0-.318-.029-.421-.064-.24-.082-.577-.388-.707-.641l-.099-.195V5.66l.093-.18c.165-.317.477-.589.773-.674.074-.021.238-.04.364-.042l.23-.004zm4 0v7.24H6.76V4.76h2.48zm4 0v7.24h-2.48V4.76h2.48zm4 0v7.24h-2.48V4.76h2.48zm2.286-7.123c.233.12.481.367.598.596l.096.187v12.68l-.099.195c-.13.253-.467.559-.707.641a1.6 1.6 0 0 1-.421.064h-.233V4.749l.296.019q.295.02.47.109" fill-rule="evenodd"/></svg>