<svg xmlns="http://www.w3.org/2000/svg" viewBox="0 0 24 24"><path d="M4.656 3.282a2.75 2.75 0 0 0-2.112 1.495c-.307.627-.284.043-.284 7.223 0 6.082.004 6.434.073 6.68a2.82 2.82 0 0 0 1.987 1.987c.247.069.632.073 7.68.073 7.07 0 7.432-.003 7.68-.073a2.83 2.83 0 0 0 1.987-1.987c.069-.247.073-.579.073-6.68s-.004-6.433-.073-6.68a2.8 2.8 0 0 0-1.465-1.782c-.602-.297.047-.275-8.042-.282-3.993-.004-7.37.008-7.504.026m1.749 2.099c.08.051.188.162.24.246l.095.153v12.453l-.121.172c-.166.236-.346.334-.619.334s-.453-.098-.619-.334l-.121-.172V5.78l.093-.149c.233-.375.691-.484 1.052-.25m4 0c.08.051.188.162.24.246l.095.153v12.453l-.121.172c-.166.236-.346.334-.619.334s-.453-.098-.619-.334l-.121-.172V5.78l.093-.149c.233-.375.691-.484 1.052-.25m4 0c.08.051.188.162.24.246l.095.153v12.453l-.121.172c-.166.236-.346.334-.619.334s-.453-.098-.619-.334l-.121-.172V5.78l.093-.149c.233-.375.691-.484 1.052-.25m4 0c.08.051.188.162.24.246l.095.153v12.453l-.121.172c-.166.236-.346.334-.619.334s-.453-.098-.619-.334l-.121-.172V5.78l.093-.149c.233-.375.691-.484 1.052-.25"/></svg>