<svg xmlns="http://www.w3.org/2000/svg" viewBox="0 0 24 24"><path d="M6.34 4.48c-1.267.224-2.358 1.13-2.839 2.357-.232.592-.312 1.483-.185 2.063.148.676.463 1.299.894 1.767l.155.167-.193.11c-1.018.583-2.077 1.64-2.526 2.524a.737.737 0 0 0 .606 1.082c.345.026.515-.09.834-.57.698-1.049 1.717-1.822 2.873-2.182.449-.139.615-.253.726-.496a.67.67 0 0 0 .013-.573c-.096-.229-.206-.32-.647-.535-.344-.168-.448-.243-.665-.476-.461-.499-.659-1.048-.614-1.711.029-.434.137-.75.375-1.1a2.25 2.25 0 0 1 2.056-.972c.707.059 1.283.361 1.657.869.231.314.335.607.378 1.057.039.408.098.558.282.713a.75.75 0 0 0 1.203-.386c.051-.189.024-.584-.067-.988-.286-1.271-1.294-2.298-2.596-2.644-.358-.096-1.359-.14-1.72-.076m9.845.02c-1.445.3-2.534 1.335-2.841 2.7-.091.404-.118.799-.067.988a.742.742 0 0 0 1.247.337c.161-.16.235-.365.236-.647.001-.808.648-1.599 1.516-1.854.982-.288 2.023.068 2.577.883.238.35.346.666.375 1.1.045.663-.153 1.212-.614 1.711-.217.233-.321.308-.665.476-.441.215-.551.306-.647.535a.67.67 0 0 0 .013.573c.111.243.277.357.726.496 1.156.36 2.175 1.133 2.873 2.182.319.48.489.596.834.57a.737.737 0 0 0 .606-1.082c-.438-.862-1.466-1.902-2.441-2.472l-.278-.162.155-.168c.431-.467.746-1.09.894-1.766.078-.355.068-1.137-.018-1.509-.318-1.377-1.33-2.453-2.666-2.833-.393-.112-1.401-.144-1.815-.058m-4.59 4.782c-.46.05-.773.142-1.215.357-1.06.514-1.74 1.36-2.03 2.521a4 4 0 0 0 0 1.68 3.8 3.8 0 0 0 .889 1.691l.192.211-.485.25c-1.531.789-2.651 2.03-3.249 3.603-.196.514-.071.888.363 1.089.153.071.398.074 5.94.074s5.787-.003 5.94-.074c.438-.202.558-.573.359-1.102-.578-1.536-1.728-2.809-3.245-3.59l-.485-.25.192-.211A3.66 3.66 0 0 0 15.734 13c0-1.589-.926-2.924-2.441-3.515-.441-.173-1.171-.26-1.698-.203" fill-rule="evenodd"/></svg>