<svg xmlns="http://www.w3.org/2000/svg" viewBox="0 0 24 24"><path d="M17.156 3.253a.79.79 0 0 0-.428.663c-.026.363.038.493.457.925l.373.384-.198.195-.199.196-.35-.343c-.43-.418-.555-.489-.871-.491a.846.846 0 0 0-.86.834c.001.289.079.427.471.832l.385.396-1.044 1.044-1.044 1.043-.123-.088a4 4 0 0 0-.466-.248 4.25 4.25 0 0 0-4.108.311c-.555.369-.996.849-1.391 1.514-.413.695-.891 1.051-1.72 1.28a4.6 4.6 0 0 0-2.319 1.492c-.67.809-1.011 1.774-1.015 2.868-.004.976.222 1.729.768 2.56.244.371 1.535 1.662 1.906 1.906.98.644 2.14.911 3.198.737 1.517-.25 2.741-1.132 3.394-2.445.145-.291.23-.522.411-1.112.129-.418.394-.849.678-1.099.108-.094.349-.264.537-.376a4.7 4.7 0 0 0 1.069-.844c1.182-1.263 1.462-3.117.71-4.704a3 3 0 0 0-.246-.453c-.064-.07-.016-.125.979-1.12l1.046-1.046.397.385c.31.302.435.395.571.432.68.183 1.298-.468 1.055-1.111-.05-.134-.178-.3-.433-.561l-.362-.37.195-.198.196-.199.384.373c.432.419.562.483.925.457.446-.032.769-.39.765-.847-.003-.297-.1-.463-.505-.863l-.342-.339.358-.366c.198-.201.389-.435.424-.521a.836.836 0 0 0-.7-1.168c-.363-.026-.493.038-.924.456l-.385.373-.337-.343c-.186-.188-.41-.376-.498-.417a.95.95 0 0 0-.784.016m-4.893 6.805c.404.128.734.345 1.084.714.51.536.714 1.039.711 1.748-.002.482-.069.752-.29 1.18-.191.37-.606.784-1.055 1.054-1.076.646-1.659 1.392-2.035 2.605-.228.737-.417 1.061-.864 1.482-.508.479-1.137.723-1.874.728-.852.005-1.387-.238-2.167-.981-.91-.868-1.23-1.396-1.332-2.198-.098-.78.194-1.671.731-2.224.424-.436.739-.618 1.472-.845 1.202-.374 1.942-.949 2.599-2.023.461-.754.98-1.149 1.733-1.321.346-.08.891-.045 1.287.081m-.992 1.641a.78.78 0 0 0-.485.31c-.476.624.106 1.526.873 1.355a.844.844 0 0 0 .669-.85.84.84 0 0 0-1.057-.815m-5.025 3.289a1 1 0 0 0-.435.446.98.98 0 0 0 .023.712c.099.19 1.855 1.941 2.04 2.033.163.082.507.087.692.01.172-.073.389-.287.46-.457.077-.184.066-.522-.023-.712-.102-.219-1.85-1.955-2.052-2.039-.193-.08-.536-.077-.705.007"/></svg>