<svg fill="none" xmlns="http://www.w3.org/2000/svg" viewBox="0 0 24 24"><path d="M17.156 3.253 C 16.901 3.388,16.749 3.622,16.728 3.916 C 16.702 4.279,16.766 4.409,17.185 4.841 L 17.558 5.225 17.360 5.420 L 17.161 5.616 16.811 5.273 C 16.381 4.855,16.256 4.784,15.940 4.782 C 15.467 4.779,15.079 5.155,15.080 5.616 C 15.081 5.905,15.159 6.043,15.551 6.448 L 15.936 6.844 14.892 7.888 L 13.848 8.931 13.725 8.843 C 13.657 8.795,13.447 8.683,13.259 8.595 C 11.952 7.983,10.358 8.103,9.151 8.906 C 8.596 9.275,8.155 9.755,7.760 10.420 C 7.347 11.115,6.869 11.471,6.040 11.700 C 5.122 11.955,4.316 12.473,3.721 13.192 C 3.051 14.001,2.710 14.966,2.706 16.060 C 2.702 17.036,2.928 17.789,3.474 18.620 C 3.718 18.991,5.009 20.282,5.380 20.526 C 6.360 21.170,7.520 21.437,8.578 21.263 C 10.095 21.013,11.319 20.131,11.972 18.818 C 12.117 18.527,12.202 18.296,12.383 17.706 C 12.512 17.288,12.777 16.857,13.061 16.607 C 13.169 16.513,13.410 16.343,13.598 16.231 C 14.036 15.969,14.369 15.707,14.667 15.387 C 15.849 14.124,16.129 12.270,15.377 10.683 C 15.278 10.474,15.167 10.270,15.131 10.230 C 15.067 10.160,15.115 10.105,16.110 9.110 L 17.156 8.064 17.553 8.449 C 17.863 8.751,17.988 8.844,18.124 8.881 C 18.804 9.064,19.422 8.413,19.179 7.770 C 19.129 7.636,19.001 7.470,18.746 7.209 L 18.384 6.839 18.579 6.641 L 18.775 6.442 19.159 6.815 C 19.591 7.234,19.721 7.298,20.084 7.272 C 20.530 7.240,20.853 6.882,20.849 6.425 C 20.846 6.128,20.749 5.962,20.344 5.562 L 20.002 5.223 20.360 4.857 C 20.558 4.656,20.749 4.422,20.784 4.336 C 21.008 3.800,20.654 3.209,20.084 3.168 C 19.721 3.142,19.591 3.206,19.160 3.624 L 18.775 3.997 18.438 3.654 C 18.252 3.466,18.028 3.278,17.940 3.237 C 17.710 3.129,17.378 3.136,17.156 3.253 M11.967 9.976 C 12.505 10.079,12.881 10.290,13.321 10.734 C 13.779 11.196,14.017 11.707,14.065 12.326 C 14.141 13.326,13.672 14.164,12.695 14.769 C 12.015 15.190,11.580 15.601,11.212 16.169 C 10.981 16.525,10.844 16.839,10.647 17.462 C 10.451 18.081,10.273 18.394,9.915 18.753 C 9.494 19.175,8.991 19.438,8.402 19.543 C 8.012 19.613,7.795 19.613,7.434 19.544 C 7.041 19.468,6.741 19.351,6.434 19.154 C 6.126 18.956,5.066 17.905,4.867 17.600 C 4.214 16.597,4.291 15.204,5.050 14.296 C 5.454 13.812,5.820 13.580,6.540 13.351 C 7.170 13.151,7.478 13.017,7.831 12.788 C 8.401 12.419,8.822 11.973,9.244 11.293 C 9.910 10.221,10.855 9.764,11.967 9.976 M11.161 11.722 C 10.602 11.957,10.446 12.665,10.855 13.114 C 11.270 13.571,12.089 13.400,12.281 12.817 C 12.357 12.587,12.314 12.233,12.188 12.053 C 12.014 11.803,11.831 11.704,11.524 11.691 C 11.379 11.686,11.216 11.700,11.161 11.722 M6.260 14.996 C 6.073 15.083,5.863 15.292,5.802 15.453 C 5.741 15.616,5.750 15.939,5.821 16.111 C 5.905 16.313,7.641 18.061,7.860 18.163 C 8.050 18.252,8.388 18.263,8.573 18.185 C 8.743 18.114,9.023 17.795,9.055 17.635 C 9.101 17.407,9.081 17.187,9.001 17.021 C 8.899 16.811,7.158 15.081,6.954 14.987 C 6.763 14.899,6.460 14.903,6.260 14.996 " stroke="none" fill-rule="evenodd" fill="currentColor"/></svg>