<svg xmlns="http://www.w3.org/2000/svg" viewBox="0 0 24 24"><path d="M17.156 3.253a.79.79 0 0 0-.428.663c-.026.363.038.493.457.925l.373.384-.198.195-.199.196-.35-.343c-.43-.418-.555-.489-.871-.491a.846.846 0 0 0-.86.834c.001.289.079.427.471.832l.385.396-1.044 1.044-1.044 1.043-.123-.088a4 4 0 0 0-.466-.248 4.25 4.25 0 0 0-4.108.311c-.555.369-.996.849-1.391 1.514-.413.695-.891 1.051-1.72 1.28a4.6 4.6 0 0 0-2.319 1.492c-.67.809-1.011 1.774-1.015 2.868-.004.976.222 1.729.768 2.56.244.371 1.535 1.662 1.906 1.906.98.644 2.14.911 3.198.737 1.517-.25 2.741-1.132 3.394-2.445.145-.291.23-.522.411-1.112.129-.418.394-.849.678-1.099.108-.094.349-.264.537-.376a4.7 4.7 0 0 0 1.069-.844c1.182-1.263 1.462-3.117.71-4.704a3 3 0 0 0-.246-.453c-.064-.07-.016-.125.979-1.12l1.046-1.046.397.385c.31.302.435.395.571.432.68.183 1.298-.468 1.055-1.111-.05-.134-.178-.3-.433-.561l-.362-.37.195-.198.196-.199.384.373c.432.419.562.483.925.457.446-.032.769-.39.765-.847-.003-.297-.1-.463-.505-.863l-.342-.339.358-.366c.198-.201.389-.435.424-.521a.836.836 0 0 0-.7-1.168c-.363-.026-.493.038-.924.456l-.385.373-.337-.343c-.186-.188-.41-.376-.498-.417a.95.95 0 0 0-.784.016m-5.221 8.548c.424.287.518.9.197 1.282-.315.374-.952.389-1.277.031-.333-.366-.297-.966.076-1.25.201-.153.306-.184.593-.173.204.009.298.034.411.11m-4.981 3.186c.204.094 1.945 1.824 2.047 2.034.08.166.1.386.054.614-.032.16-.312.479-.482.55-.185.078-.523.067-.713-.022-.219-.102-1.955-1.85-2.039-2.052-.071-.172-.08-.495-.019-.658.061-.161.271-.37.458-.457a.92.92 0 0 1 .694-.009"/></svg>