<svg xmlns="http://www.w3.org/2000/svg" viewBox="0 0 24 24"><path d="M17.156 3.253a.79.79 0 0 0-.428.663c-.026.363.038.493.457.925l.373.384-.198.195-.199.196-.35-.343c-.43-.418-.555-.489-.871-.491a.846.846 0 0 0-.86.834c.001.289.079.427.471.832l.385.396-1.034 1.034-1.034 1.035-.368-.197a4.07 4.07 0 0 0-2.218-.504 4.23 4.23 0 0 0-2.223.752c-.398.274-.951.864-1.191 1.269-.522.881-.939 1.216-1.832 1.469-1.772.502-3 1.884-3.296 3.711-.176 1.086.082 2.22.729 3.201.251.38 1.537 1.666 1.917 1.917 1.302.859 2.822 1.013 4.271.433a4.54 4.54 0 0 0 1.904-1.472c.265-.349.603-1.047.741-1.532.246-.862.614-1.338 1.374-1.777a4.21 4.21 0 0 0 2.112-3.466c.04-.803-.103-1.445-.486-2.183l-.211-.406 1.033-1.032 1.032-1.032.397.385c.31.302.435.395.571.432.68.183 1.298-.468 1.055-1.111-.05-.134-.178-.3-.433-.561l-.362-.37.195-.198.196-.199.384.373c.432.419.562.483.925.457.446-.032.769-.39.765-.847-.003-.297-.1-.463-.505-.863l-.342-.339.358-.366c.198-.201.389-.435.424-.521a.836.836 0 0 0-.7-1.168c-.363-.026-.493.038-.924.456l-.385.373-.337-.341c-.186-.188-.405-.377-.486-.419-.214-.111-.569-.104-.796.016m-5.222 8.554c.084.058.201.175.26.259.092.134.106.194.106.461 0 .277-.012.323-.122.48-.382.544-1.173.478-1.477-.123-.052-.101-.065-.206-.054-.408.019-.333.157-.559.433-.706.249-.133.629-.116.854.037m-4.952 3.212c.276.137 1.9 1.766 2.015 2.021.101.223.104.49.008.7-.078.172-.312.402-.472.463-.161.061-.501.041-.673-.04-.219-.102-1.955-1.85-2.039-2.052-.301-.73.457-1.443 1.161-1.092"/></svg>