<svg fill="none" xmlns="http://www.w3.org/2000/svg" viewBox="0 0 24 24"><path d="M3.900 3.259 C 3.878 3.267,3.812 3.284,3.753 3.296 C 3.517 3.348,3.243 3.703,3.241 3.960 C 3.239 4.255,3.315 4.366,3.951 5.009 L 4.575 5.638 4.171 6.052 C 3.587 6.653,3.400 7.062,3.400 7.739 C 3.400 8.350,3.583 8.840,3.968 9.261 C 4.114 9.420,4.451 9.686,4.633 9.785 C 4.640 9.789,4.570 9.903,4.478 10.038 C 3.623 11.290,4.265 13.033,5.740 13.463 C 6.062 13.557,6.625 13.557,6.940 13.464 C 7.467 13.308,7.592 13.210,8.771 12.043 L 9.882 10.942 11.470 12.530 L 13.058 14.118 11.957 15.229 C 11.092 16.102,10.830 16.391,10.732 16.580 C 10.540 16.949,10.465 17.252,10.465 17.660 C 10.465 18.289,10.676 18.793,11.128 19.246 C 11.891 20.009,13.079 20.124,13.962 19.522 C 14.097 19.430,14.211 19.360,14.215 19.367 C 14.314 19.549,14.580 19.886,14.739 20.032 C 15.155 20.412,15.651 20.600,16.240 20.600 C 16.933 20.600,17.347 20.413,17.948 19.829 L 18.362 19.425 18.991 20.049 C 19.519 20.573,19.648 20.680,19.795 20.719 C 20.365 20.871,20.871 20.365,20.719 19.795 C 20.680 19.648,20.573 19.519,20.049 18.991 L 19.425 18.362 19.829 17.948 C 20.413 17.347,20.600 16.933,20.600 16.240 C 20.600 15.651,20.412 15.155,20.032 14.739 C 19.886 14.580,19.549 14.314,19.367 14.215 C 19.360 14.211,19.430 14.097,19.522 13.962 C 20.117 13.090,20.009 11.902,19.265 11.147 C 18.978 10.855,18.608 10.632,18.261 10.542 C 17.947 10.460,17.319 10.461,17.037 10.544 C 16.536 10.691,16.399 10.798,15.229 11.957 L 14.118 13.058 12.530 11.470 L 10.942 9.882 12.043 8.771 C 12.908 7.898,13.170 7.609,13.268 7.420 C 13.458 7.055,13.533 6.749,13.533 6.340 C 13.533 5.711,13.324 5.207,12.879 4.761 C 12.596 4.479,12.274 4.286,11.909 4.180 C 11.631 4.100,11.051 4.091,10.752 4.161 C 10.513 4.217,10.126 4.401,9.929 4.551 C 9.857 4.606,9.793 4.644,9.788 4.636 C 9.255 3.780,8.628 3.402,7.738 3.401 C 7.074 3.399,6.652 3.593,6.048 4.177 L 5.637 4.576 5.028 3.972 C 4.694 3.640,4.384 3.351,4.340 3.329 C 4.248 3.284,3.960 3.238,3.900 3.259 M7.969 4.922 C 8.148 4.972,8.341 5.127,8.425 5.289 C 8.515 5.463,8.507 5.791,8.408 5.981 C 8.361 6.073,7.836 6.626,7.173 7.283 C 6.184 8.264,5.995 8.433,5.846 8.476 C 5.282 8.637,4.770 8.127,4.920 7.555 C 4.961 7.401,5.111 7.235,6.154 6.188 C 7.502 4.836,7.547 4.805,7.969 4.922 M11.630 5.685 C 11.949 5.839,12.112 6.235,12.000 6.585 C 11.960 6.710,11.453 7.240,9.385 9.314 C 7.637 11.069,6.769 11.912,6.660 11.963 C 6.202 12.177,5.667 11.882,5.611 11.385 C 5.568 11.010,5.496 11.093,8.254 8.327 C 9.665 6.912,10.883 5.721,10.960 5.679 C 11.148 5.578,11.414 5.580,11.630 5.685 M17.990 12.045 C 18.323 12.206,18.481 12.617,18.346 12.970 C 18.294 13.106,17.767 13.653,15.690 15.728 C 14.255 17.162,13.050 18.335,12.987 18.358 C 12.541 18.525,12.023 18.213,11.971 17.745 C 11.928 17.370,11.856 17.453,14.614 14.686 C 16.361 12.934,17.231 12.088,17.340 12.037 C 17.551 11.938,17.775 11.941,17.990 12.045 M18.725 15.584 C 18.874 15.659,19.030 15.856,19.078 16.031 C 19.130 16.218,19.130 16.262,19.076 16.460 C 19.040 16.593,18.839 16.816,17.866 17.794 C 16.681 18.988,16.523 19.117,16.249 19.119 C 15.988 19.121,15.696 18.942,15.573 18.706 C 15.493 18.552,15.494 18.206,15.576 18.034 C 15.612 17.958,16.168 17.371,16.811 16.731 C 17.890 15.657,17.994 15.565,18.160 15.530 C 18.365 15.488,18.572 15.507,18.725 15.584 " stroke="none" fill-rule="evenodd" fill="currentColor"/></svg>