<svg xmlns="http://www.w3.org/2000/svg" viewBox="0 0 24 24"><path d="M3.9 3.259a1 1 0 0 1-.147.037c-.236.052-.51.407-.512.664-.002.295.074.406.71 1.049l.624.629-.404.414c-.584.601-.771 1.01-.771 1.687 0 .611.183 1.101.568 1.522.146.159.483.425.665.524.007.004-.063.118-.155.253-.855 1.252-.213 2.995 1.262 3.425.322.094.885.094 1.2.001.527-.156.652-.254 1.831-1.421l1.111-1.101 1.588 1.588 1.588 1.588-1.101 1.111c-.865.873-1.127 1.162-1.225 1.351a2.14 2.14 0 0 0-.267 1.08c0 .629.211 1.133.663 1.586a2.23 2.23 0 0 0 2.834.276c.135-.092.249-.162.253-.155.099.182.365.519.524.665.416.38.912.568 1.501.568.693 0 1.107-.187 1.708-.771l.414-.404.629.624c.528.524.657.631.804.67a.749.749 0 0 0 .924-.924c-.039-.147-.146-.276-.67-.804l-.624-.629.404-.414c.584-.601.771-1.015.771-1.708 0-.589-.188-1.085-.568-1.501a3.5 3.5 0 0 0-.665-.524 1.5 1.5 0 0 1 .155-.253 2.234 2.234 0 0 0-.257-2.815 2.3 2.3 0 0 0-1.004-.605c-.314-.082-.942-.081-1.224.002-.501.147-.638.254-1.808 1.413l-1.111 1.101-1.588-1.588-1.588-1.588 1.101-1.111c.865-.873 1.127-1.162 1.225-1.351a2.15 2.15 0 0 0 .265-1.08c0-.629-.209-1.133-.654-1.579a2.24 2.24 0 0 0-.97-.581c-.278-.08-.858-.089-1.157-.019-.239.056-.626.24-.823.39-.072.055-.136.093-.141.085-.533-.856-1.16-1.234-2.05-1.235-.664-.002-1.086.192-1.69.776l-.411.399-.609-.604c-.334-.332-.644-.621-.688-.643-.092-.045-.38-.091-.44-.07m4.069 1.663c.179.05.372.205.456.367.099.193.083.516-.036.719-.056.094-.612.677-1.236 1.294-.969.96-1.158 1.13-1.307 1.173a.746.746 0 0 1-.926-.92c.041-.154.191-.32 1.234-1.367 1.348-1.352 1.393-1.383 1.815-1.266m3.661.763c.319.154.482.55.37.9-.04.125-.549.656-2.634 2.745-2.79 2.796-2.729 2.743-3.106 2.7-.503-.057-.812-.621-.583-1.062.092-.175 5.128-5.211 5.303-5.302.171-.089.444-.081.65.019m6.36 6.36a.74.74 0 0 1 .356.925c-.052.136-.579.683-2.656 2.758-1.435 1.434-2.64 2.607-2.703 2.63-.446.167-.964-.145-1.016-.613-.043-.375-.115-.292 2.643-3.059 1.747-1.752 2.617-2.598 2.726-2.649a.73.73 0 0 1 .65.008m.735 3.539a.8.8 0 0 1 .353.447c.052.187.052.231-.002.429-.036.133-.237.356-1.21 1.334-1.185 1.194-1.343 1.323-1.617 1.325a.81.81 0 0 1-.676-.413c-.08-.154-.079-.5.003-.672.036-.076.592-.663 1.235-1.303 1.079-1.074 1.183-1.166 1.349-1.201a.9.9 0 0 1 .565.054" fill-rule="evenodd"/></svg>