<svg xmlns="http://www.w3.org/2000/svg" viewBox="0 0 24 24"><path d="M3.9 3.259a1 1 0 0 1-.147.037c-.236.052-.51.407-.512.664-.002.295.074.406.71 1.049l.624.629-.404.414c-.584.601-.771 1.01-.771 1.687 0 .611.183 1.101.568 1.522.146.159.483.425.665.524.007.004-.063.118-.155.253-.855 1.252-.213 2.995 1.262 3.425.322.094.885.094 1.2.001.527-.156.652-.254 1.831-1.421l1.111-1.101 1.588 1.588 1.588 1.588-1.101 1.111c-.865.873-1.127 1.162-1.225 1.351a2.14 2.14 0 0 0-.267 1.08c0 .629.211 1.133.663 1.586a2.23 2.23 0 0 0 2.834.276c.135-.092.249-.162.253-.155.099.182.365.519.524.665.416.38.912.568 1.501.568.693 0 1.107-.187 1.708-.771l.414-.404.629.624c.528.524.657.631.804.67a.749.749 0 0 0 .924-.924c-.039-.147-.146-.276-.67-.804l-.624-.629.404-.414c.584-.601.771-1.01.771-1.687 0-.611-.183-1.101-.568-1.522a3.5 3.5 0 0 0-.665-.524 1.5 1.5 0 0 1 .155-.253 2.234 2.234 0 0 0-.257-2.815 2.3 2.3 0 0 0-1.004-.605c-.314-.082-.942-.081-1.224.002-.501.147-.638.254-1.808 1.413l-1.111 1.101-1.588-1.588-1.588-1.588 1.101-1.111c1.167-1.179 1.265-1.304 1.421-1.831.093-.315.093-.878-.001-1.2a2.32 2.32 0 0 0-1.554-1.56c-.278-.08-.858-.089-1.157-.019-.239.056-.626.24-.823.39-.072.055-.136.093-.141.085-.533-.856-1.16-1.234-2.05-1.235-.664-.002-1.086.192-1.69.776l-.411.399-.609-.604c-.334-.332-.644-.621-.688-.643-.092-.045-.38-.091-.44-.07" fill-rule="evenodd"/></svg>