<svg xmlns="http://www.w3.org/2000/svg" viewBox="0 0 24 24"><path d="M3.9 3.259a1 1 0 0 1-.147.037c-.236.052-.51.407-.512.664-.002.295.074.406.71 1.049l.624.629-.404.414c-.584.601-.771 1.01-.771 1.687 0 .611.183 1.101.568 1.522.146.159.483.425.665.524.007.004-.063.118-.155.253-.855 1.252-.213 2.995 1.262 3.425.322.094.885.094 1.2.001.527-.156.652-.254 1.831-1.421l1.111-1.101 1.588 1.588 1.588 1.588-1.101 1.111c-.865.873-1.127 1.162-1.225 1.351a2.14 2.14 0 0 0-.267 1.08c0 .629.211 1.133.663 1.586a2.23 2.23 0 0 0 2.834.276c.135-.092.249-.162.253-.155.099.182.365.519.524.665.416.38.912.568 1.501.568.693 0 1.107-.187 1.708-.771l.414-.404.629.624c.528.524.657.631.804.67a.749.749 0 0 0 .924-.924c-.039-.147-.146-.276-.67-.804l-.624-.629.404-.414c.584-.601.771-1.015.771-1.708 0-.589-.188-1.085-.568-1.501a3.5 3.5 0 0 0-.665-.524 1.5 1.5 0 0 1 .155-.253 2.234 2.234 0 0 0-.257-2.815 2.3 2.3 0 0 0-1.004-.605c-.314-.082-.942-.081-1.224.002-.501.147-.638.254-1.808 1.413l-1.111 1.101-1.588-1.588-1.588-1.588 1.101-1.111c.865-.873 1.127-1.162 1.225-1.351a2.15 2.15 0 0 0 .265-1.08c0-.629-.209-1.133-.654-1.579a2.24 2.24 0 0 0-.97-.581c-.278-.08-.858-.089-1.157-.019-.239.056-.626.24-.823.39-.072.055-.136.093-.141.085-.533-.856-1.16-1.234-2.05-1.235-.664-.002-1.086.192-1.69.776l-.411.399-.609-.604c-.334-.332-.644-.621-.688-.643-.092-.045-.38-.091-.44-.07M8.176 5.03a.76.76 0 0 1 .244.933c-.038.075-.575.644-1.194 1.263S6.038 8.382 5.963 8.42a.83.83 0 0 1-.672-.009.9.9 0 0 1-.27-.247c-.1-.141-.119-.207-.118-.396a.9.9 0 0 1 .066-.348c.036-.066.585-.638 1.221-1.272.86-.858 1.195-1.167 1.312-1.21a.75.75 0 0 1 .674.092m3.447.651a.765.765 0 0 1 .377.904c-.04.125-.546.652-2.615 2.726-1.808 1.813-2.616 2.596-2.738 2.655-.594.288-1.241-.339-.986-.957.085-.206 5.093-5.226 5.319-5.332a.73.73 0 0 1 .643.004m6.454 6.417c.296.205.4.593.246.922-.051.109-.897.979-2.649 2.726-2.767 2.758-2.684 2.686-3.059 2.643a.74.74 0 0 1-.593-1.02c.081-.196 5.086-5.213 5.318-5.332a.74.74 0 0 1 .737.061m.638 3.494c.173.079.347.321.381.529.059.369.036.4-1.229 1.672-.642.645-1.221 1.202-1.287 1.238a.8.8 0 0 1-.352.063c-.19-.001-.261-.022-.396-.118a.9.9 0 0 1-.243-.267.82.82 0 0 1-.009-.672c.079-.154 2.117-2.222 2.349-2.383.253-.176.495-.195.786-.062" fill-rule="evenodd"/></svg>