<svg fill="none" xmlns="http://www.w3.org/2000/svg" viewBox="0 0 24 24"><path d="M3.900 3.259 C 3.878 3.267,3.812 3.284,3.753 3.296 C 3.517 3.348,3.243 3.703,3.241 3.960 C 3.239 4.255,3.315 4.366,3.951 5.009 L 4.575 5.638 4.171 6.052 C 3.587 6.653,3.400 7.062,3.400 7.739 C 3.400 8.350,3.583 8.840,3.968 9.261 C 4.114 9.420,4.451 9.686,4.633 9.785 C 4.640 9.789,4.570 9.903,4.478 10.038 C 3.623 11.290,4.265 13.033,5.740 13.463 C 6.062 13.557,6.625 13.557,6.940 13.464 C 7.467 13.308,7.592 13.210,8.771 12.043 L 9.882 10.942 11.470 12.530 L 13.058 14.118 11.957 15.229 C 11.092 16.102,10.830 16.391,10.732 16.580 C 10.540 16.949,10.465 17.252,10.465 17.660 C 10.465 18.289,10.676 18.793,11.128 19.246 C 11.891 20.009,13.079 20.124,13.962 19.522 C 14.097 19.430,14.211 19.360,14.215 19.367 C 14.314 19.549,14.580 19.886,14.739 20.032 C 15.155 20.412,15.651 20.600,16.240 20.600 C 16.933 20.600,17.347 20.413,17.948 19.829 L 18.362 19.425 18.991 20.049 C 19.519 20.573,19.648 20.680,19.795 20.719 C 20.365 20.871,20.871 20.365,20.719 19.795 C 20.680 19.648,20.573 19.519,20.049 18.991 L 19.425 18.362 19.829 17.948 C 20.413 17.347,20.600 16.933,20.600 16.240 C 20.600 15.651,20.412 15.155,20.032 14.739 C 19.886 14.580,19.549 14.314,19.367 14.215 C 19.360 14.211,19.430 14.097,19.522 13.962 C 20.117 13.090,20.009 11.902,19.265 11.147 C 18.978 10.855,18.608 10.632,18.261 10.542 C 17.947 10.460,17.319 10.461,17.037 10.544 C 16.536 10.691,16.399 10.798,15.229 11.957 L 14.118 13.058 12.530 11.470 L 10.942 9.882 12.043 8.771 C 12.908 7.898,13.170 7.609,13.268 7.420 C 13.458 7.055,13.533 6.749,13.533 6.340 C 13.533 5.711,13.324 5.207,12.879 4.761 C 12.596 4.479,12.274 4.286,11.909 4.180 C 11.631 4.100,11.051 4.091,10.752 4.161 C 10.513 4.217,10.126 4.401,9.929 4.551 C 9.857 4.606,9.793 4.644,9.788 4.636 C 9.255 3.780,8.628 3.402,7.738 3.401 C 7.074 3.399,6.652 3.593,6.048 4.177 L 5.637 4.576 5.028 3.972 C 4.694 3.640,4.384 3.351,4.340 3.329 C 4.248 3.284,3.960 3.238,3.900 3.259 M8.176 5.030 C 8.468 5.235,8.577 5.652,8.420 5.963 C 8.382 6.038,7.845 6.607,7.226 7.226 C 6.607 7.845,6.038 8.382,5.963 8.420 C 5.780 8.513,5.480 8.508,5.291 8.411 C 5.208 8.368,5.086 8.257,5.021 8.164 C 4.921 8.023,4.902 7.957,4.903 7.768 C 4.904 7.635,4.931 7.490,4.969 7.420 C 5.005 7.354,5.554 6.782,6.190 6.148 C 7.050 5.290,7.385 4.981,7.502 4.938 C 7.718 4.858,7.983 4.894,8.176 5.030 M11.623 5.681 C 11.944 5.837,12.111 6.237,12.000 6.585 C 11.960 6.710,11.454 7.237,9.385 9.311 C 7.577 11.124,6.769 11.907,6.647 11.966 C 6.053 12.254,5.406 11.627,5.661 11.009 C 5.746 10.803,10.754 5.783,10.980 5.677 C 11.189 5.579,11.414 5.580,11.623 5.681 M18.077 12.098 C 18.373 12.303,18.477 12.691,18.323 13.020 C 18.272 13.129,17.426 13.999,15.674 15.746 C 12.907 18.504,12.990 18.432,12.615 18.389 C 12.131 18.335,11.834 17.822,12.022 17.369 C 12.103 17.173,17.108 12.156,17.340 12.037 C 17.563 11.923,17.860 11.948,18.077 12.098 M18.715 15.592 C 18.888 15.671,19.062 15.913,19.096 16.121 C 19.155 16.490,19.132 16.521,17.867 17.793 C 17.225 18.438,16.646 18.995,16.580 19.031 C 16.507 19.071,16.370 19.095,16.228 19.094 C 16.038 19.093,15.967 19.072,15.832 18.976 C 15.741 18.912,15.632 18.792,15.589 18.709 C 15.491 18.520,15.487 18.220,15.580 18.037 C 15.659 17.883,17.697 15.815,17.929 15.654 C 18.182 15.478,18.424 15.459,18.715 15.592 " stroke="none" fill-rule="evenodd" fill="currentColor"/></svg>