<svg xmlns="http://www.w3.org/2000/svg" viewBox="0 0 24 24"><path d="M11.62 6.161c-.426.047-.704.121-2.483.66-.903.275-1.657.499-1.675.499s-.431-.148-.918-.329l-.884-.329-.442-.001c-.43-.001-.451.003-.74.146-.365.181-.618.417-.784.733-.102.196-1.359 3.599-1.535 4.157-.076.241-.061.727.031.983.104.29.207.454.427.681.245.252.491.373 1.509.738l.866.311.654.586c2.434 2.183 2.498 2.236 3.054 2.519.354.18.648.29 1.1.41.437.116 1.278.132 3.346.062 1.543-.053 1.787-.07 1.928-.134.09-.04 1.17-.89 2.4-1.889l2.238-1.815.594-.277c1.01-.47 1.148-.541 1.341-.692.555-.434.793-1.286.541-1.94-.22-.573-1.674-3.619-1.816-3.806-.374-.49-1.101-.764-1.695-.638-.119.026-.571.21-1.003.41l-.787.363-1.663-.606c-1.83-.667-2.077-.741-2.669-.802-.441-.045-.52-.045-.935 0M12.74 7.7c.355.075 1.553.504 1.511.541-.017.016-.274.087-.571.159-.297.071-.59.16-.65.197-.169.103-3.787 4.16-3.873 4.343-.223.473.005.845.731 1.196 1.537.744 3.582.644 5.038-.247l.261-.16.416.684c.23.377.422.706.429.732.009.035-.997.883-1.494 1.26-.024.018-.895.061-1.936.095-2.04.069-2.232.06-2.754-.117a3 3 0 0 1-.873-.449c-.212-.16-2.695-2.371-2.695-2.4 0-.047 1.731-4.759 1.759-4.788.068-.07 3.308-1.034 3.621-1.077.279-.039.82-.023 1.08.031m4.7 3.582c.916 1.964.932 2.003.857 2.075-.042.04-.292.247-.554.46-.385.312-.486.376-.526.335a25 25 0 0 1-.617-.992c-.582-.963-.7-1.125-.888-1.224-.129-.067-.522-.074-.645-.011-.048.025-.186.13-.307.233-.776.664-1.599.97-2.601.968-.396 0-.917-.063-1.03-.123-.034-.018.404-.536 1.322-1.562l1.372-1.534 1.259-.31c.692-.17 1.295-.311 1.341-.313.071-.003.215.279 1.017 1.998M5.46 16.407c-.333.183-.498.527-.413.864.09.358.976 1.228 1.853 1.819 1.041.7 2.29 1.17 3.6 1.353.467.065 1.571.066 2.08.001.583-.075.756-.161.904-.452.147-.288.062-.712-.181-.903-.22-.172-.317-.187-.899-.136-1.579.14-2.75-.071-4.004-.718-.661-.342-1.148-.703-1.731-1.286-.281-.282-.557-.529-.613-.55-.136-.052-.496-.047-.596.008"/></svg>