<svg xmlns="http://www.w3.org/2000/svg" viewBox="0 0 24 24"><path d="M7.14 4.284c-2.93.245-5.138 2.911-4.862 5.871.236 2.529 1.843 5.013 4.92 7.603 1.381 1.163 4.006 2.936 4.569 3.087.31.083.572-.038 1.848-.852 2.845-1.813 5.154-3.92 6.489-5.92 1.629-2.441 1.954-4.865.923-6.899-.602-1.189-1.821-2.228-3.107-2.647-1.22-.399-2.734-.335-3.904.163-.677.288-1.431.819-1.852 1.305l-.214.247-.325-.331C10.441 4.704 8.882 4.138 7.14 4.284m1.263 1.541c1.251.214 2.309 1.006 2.781 2.081.136.311.306.482.553.555.176.053.224.053.403.001.253-.074.378-.203.562-.58.565-1.162 1.616-1.91 2.929-2.084 2.509-.334 4.617 1.597 4.475 4.1-.134 2.381-2.013 4.961-5.546 7.618-.925.695-2.496 1.724-2.633 1.724-.067 0-1.17-.696-1.795-1.133-3.37-2.358-5.481-4.756-6.15-6.987-.162-.539-.202-.835-.2-1.48.002-.714.075-1.066.336-1.625.297-.636.777-1.209 1.317-1.573.47-.316 1.143-.581 1.665-.653.297-.042.959-.023 1.303.036" fill-rule="evenodd"/></svg>