<svg xmlns="http://www.w3.org/2000/svg" viewBox="0 0 24 24"><path d="M12.213 2.279c-.413.097-.833.651-.943 1.242-.086.462.093.968.506 1.431.24.269.262.327.157.413a1.3 1.3 0 0 0-.18.233.757.757 0 0 0 .172.998.76.76 0 0 0 .638.128c.247-.074.57-.397.739-.741.337-.684.234-1.298-.325-1.939-.119-.137-.217-.272-.217-.299 0-.028.063-.124.139-.213.167-.195.221-.325.221-.532 0-.472-.45-.83-.907-.721m3.367-.003a1 1 0 0 0-.205.076c-.153.082-.45.449-.584.721-.123.249-.131.292-.131.686 0 .396.008.437.131.681.072.143.229.371.35.507.12.135.219.272.219.305s-.071.145-.158.25c-.259.314-.266.682-.019.971.368.429.917.354 1.305-.178.509-.699.514-1.443.013-2.055l-.287-.352-.107-.132.086-.108c.212-.266.296-.45.296-.646 0-.47-.46-.837-.909-.726m3.351.002c-.409.1-.881.798-.922 1.361-.033.47.123.86.532 1.329.12.138.219.263.219.277s-.07.112-.157.216c-.198.24-.261.471-.197.725a.8.8 0 0 0 .754.573c.297-.002.697-.362.932-.839.118-.24.128-.291.128-.66 0-.364-.011-.423-.123-.66a3 3 0 0 0-.35-.527c-.125-.147-.227-.295-.227-.329s.054-.123.12-.198q.35-.401.178-.817a.755.755 0 0 0-.887-.451M4.617 7.283q-.873.101-1.552.781a2.74 2.74 0 0 0-.696 1.116l-.109.32v9l.109.32c.151.445.362.783.695 1.116a2.7 2.7 0 0 0 1.803.812l.373.024v.144c.001.566.45.941.962.803.331-.089.557-.417.558-.809v-.15h10.48v.15c.001.392.227.72.558.809.512.138.961-.237.962-.803v-.144l.373-.024a2.7 2.7 0 0 0 1.803-.812c.333-.333.544-.671.695-1.116l.109-.32v-9l-.109-.32a2.74 2.74 0 0 0-.696-1.116c-.472-.471-.961-.709-1.606-.783-.426-.049-14.293-.047-14.712.002m14.911 1.59c.239.118.481.36.599.599l.093.188v8.68l-.093.189c-.132.268-.416.534-.674.63-.214.08-.294.081-7.453.081s-7.239-.001-7.453-.081c-.258-.096-.542-.362-.674-.63l-.093-.189-.011-4.26c-.009-3.158 0-4.304.035-4.43.093-.34.433-.7.782-.828.131-.048 1.254-.056 7.454-.049l7.3.007zM5.805 10.279a.77.77 0 0 0-.544.597c-.077.453.303.883.781.884.157 0 .441-.164.576-.334.109-.137.122-.182.122-.426 0-.245-.012-.288-.124-.426-.212-.262-.506-.369-.811-.295m4.015.997a.73.73 0 0 0-.538.515c-.057.204-.057 5.214 0 5.418.108.39.52.618.92.51.22-.059.454-.287.513-.5.06-.213.062-5.216.003-5.428a.8.8 0 0 0-.353-.448.95.95 0 0 0-.545-.067m4 0a.73.73 0 0 0-.538.515c-.057.204-.057 5.214 0 5.418.108.39.52.618.92.51.22-.059.454-.287.513-.5.06-.213.062-5.216.003-5.428a.8.8 0 0 0-.353-.448.95.95 0 0 0-.545-.067m4 0a.73.73 0 0 0-.538.515c-.057.204-.057 5.214 0 5.418.108.39.52.618.92.51.22-.059.454-.287.513-.5.06-.213.062-5.216.003-5.428a.8.8 0 0 0-.353-.448.95.95 0 0 0-.545-.067M5.805 13.279a.77.77 0 0 0-.544.597c-.077.453.303.883.781.884.157 0 .441-.164.576-.334.109-.137.122-.182.122-.426 0-.245-.012-.288-.124-.426-.212-.262-.506-.369-.811-.295m0 3a.77.77 0 0 0-.544.597c-.077.453.303.883.781.884.157 0 .441-.164.576-.334.109-.137.122-.182.122-.426 0-.245-.012-.288-.124-.426-.212-.262-.506-.369-.811-.295" fill-rule="evenodd"/></svg>