<svg xmlns="http://www.w3.org/2000/svg" viewBox="0 0 24 24"><path d="M12.213 2.279c-.413.097-.833.651-.943 1.242-.086.462.093.968.506 1.431.24.269.262.327.157.413a1.3 1.3 0 0 0-.18.233.757.757 0 0 0 .172.998.76.76 0 0 0 .638.128c.247-.074.57-.397.739-.741.337-.684.234-1.298-.325-1.939-.119-.137-.217-.272-.217-.299 0-.028.063-.124.139-.213.167-.195.221-.325.221-.532 0-.472-.45-.83-.907-.721m3.367-.003a1 1 0 0 0-.205.076c-.153.082-.45.449-.584.721-.123.249-.131.292-.131.686 0 .396.008.437.131.681.072.143.229.371.35.507.12.135.219.272.219.305s-.071.145-.158.25c-.259.314-.266.682-.019.971.368.429.917.354 1.305-.178.509-.699.514-1.443.013-2.055l-.287-.352-.107-.132.086-.108c.212-.266.296-.45.296-.646 0-.47-.46-.837-.909-.726m3.351.002c-.409.1-.881.798-.922 1.361-.033.47.123.86.532 1.329.12.138.219.263.219.277s-.07.112-.157.216c-.198.24-.261.471-.197.725a.8.8 0 0 0 .754.573c.297-.002.697-.362.932-.839.118-.24.128-.291.128-.66 0-.364-.011-.423-.123-.66a3 3 0 0 0-.35-.527c-.125-.147-.227-.295-.227-.329s.054-.123.12-.198q.35-.401.178-.817a.755.755 0 0 0-.887-.451M4.656 7.282a2.75 2.75 0 0 0-2.112 1.495c-.302.616-.284.286-.284 5.223 0 4.149.004 4.436.073 4.68.219.783.75 1.436 1.446 1.777a2.8 2.8 0 0 0 1.111.29l.35.025v.144c.001.566.45.941.962.803.331-.089.557-.417.558-.809v-.15h10.48v.15c.001.392.227.72.558.809.512.138.961-.237.962-.803v-.144l.35-.025c.193-.014.458-.054.59-.089.947-.254 1.692-1.004 1.967-1.978.069-.245.073-.517.073-4.68s-.004-4.435-.073-4.68a2.8 2.8 0 0 0-1.465-1.782c-.602-.297.047-.275-8.042-.282-3.993-.004-7.37.008-7.504.026m1.704 3.059a.78.78 0 0 1 .338.388c.215.514-.241 1.097-.792 1.014-.666-.1-.882-.961-.339-1.348a.8.8 0 0 1 .793-.054m4.045 1.04c.08.051.188.162.24.246l.095.153v5.453l-.121.172c-.166.236-.346.334-.619.334s-.453-.098-.619-.334l-.121-.172V11.78l.093-.149c.233-.375.691-.484 1.052-.25m4 0c.08.051.188.162.24.246l.095.153v5.453l-.121.172c-.166.236-.346.334-.619.334s-.453-.098-.619-.334l-.121-.172V11.78l.093-.149c.233-.375.691-.484 1.052-.25m4 0c.08.051.188.162.24.246l.095.153v5.453l-.121.172c-.166.236-.346.334-.619.334s-.453-.098-.619-.334l-.121-.172V11.78l.093-.149c.233-.375.691-.484 1.052-.25M6.36 13.341a.78.78 0 0 1 .338.388c.215.514-.241 1.097-.792 1.014-.666-.1-.882-.961-.339-1.348a.8.8 0 0 1 .793-.054m0 3a.78.78 0 0 1 .338.388c.215.514-.241 1.097-.792 1.014-.666-.1-.882-.961-.339-1.348a.8.8 0 0 1 .793-.054"/></svg>