<svg xmlns="http://www.w3.org/2000/svg" viewBox="0 0 24 24"><path d="M2.805 5.28c-.391.092-.633.519-.524.924.059.218.288.453.5.511.109.031.999.045 2.809.045h2.65v1.48h-.33c-1.184.002-1.981.214-2.769.738-1.049.698-1.721 1.818-1.868 3.115-.083.73.072 1.568.424 2.287.46.938 1.342 1.744 2.28 2.083l.243.088.012.344.011.345h-.675c-.604 0-.683-.008-.742-.073a.27.27 0 0 1-.066-.15.9.9 0 0 0-.186-.497c-.149-.177-.321-.253-.574-.253-.533 0-.821.396-.722.993.066.404.201.667.492.957.293.293.496.407.864.485.394.084 8.338.084 8.732 0 .368-.078.571-.192.864-.485.291-.29.426-.553.492-.957.073-.442-.057-.762-.377-.928-.162-.084-.528-.084-.69 0a.83.83 0 0 0-.415.692c0 .191-.096.216-.815.216h-.668l.011-.345.012-.344.243-.088c1.38-.499 2.454-1.843 2.672-3.343l.049-.34 1.978-.02c2.166-.022 2.088-.013 2.323-.266.198-.213 2.648-4.182 2.687-4.351.118-.52-.407-1.004-.936-.862-.214.058-.393.238-.645.65l-.189.309H9.76V6.76h3.15c2.175 0 3.199-.014 3.309-.045a.84.84 0 0 0 .306-.191.739.739 0 0 0-.348-1.246c-.194-.045-13.181-.043-13.372.002m5.435 4.96c0 .376-.017.523-.077.682-.118.31-.325.534-.633.686l-.268.132-1.191.014c-1.379.015-1.283.055-1.049-.432a2.78 2.78 0 0 1 1.309-1.304c.407-.193.715-.251 1.359-.255l.55-.003zm2.86-.42c.346.072.85.318 1.134.554.986.815 1.288 2.196.729 3.326-.267.54-.75 1.031-1.256 1.278a3.4 3.4 0 0 1-.523.181c-.295.076-.444.081-2.184.081s-1.889-.005-2.184-.081a2.4 2.4 0 0 1-.984-.478 2.9 2.9 0 0 1-.81-1.003c-.23-.479-.333-.438 1.091-.438.695 0 1.336-.019 1.47-.043a3 3 0 0 0 .617-.224c.328-.158.429-.233.741-.548.268-.271.399-.442.511-.665.225-.448.272-.663.296-1.37l.023-.63.524.001c.304 0 .643.025.805.059m7.851.034c-.028.051-.231.384-.451.738l-.4.645-1.771.002c-1.652.001-1.773-.004-1.796-.069a4.5 4.5 0 0 0-.636-1.22l-.145-.19h5.251zM10.24 17v.24H7.76v-.48h2.48z" fill-rule="evenodd"/></svg>