<svg xmlns="http://www.w3.org/2000/svg" viewBox="0 0 24 24"><path d="M11.484 3.903c-.542.146-.515.123-3.407 3.014-2.293 2.293-2.722 2.74-2.829 2.947-.253.489-.247.375-.247 4.544-.001 2.613.013 3.854.043 4 .157.75.798 1.391 1.548 1.548.134.028.798.044 1.81.044H10v-2.573c0-2.904-.008-2.821.299-3.128.28-.281.385-.299 1.701-.299s1.421.018 1.701.299c.307.307.299.224.299 3.128V20h1.598c1.012 0 1.676-.016 1.81-.044a2.06 2.06 0 0 0 1.548-1.548c.03-.146.044-1.387.043-4 0-4.169.006-4.056-.247-4.544-.108-.207-.539-.657-2.829-2.947-2.907-2.907-2.865-2.87-3.425-3.016a2.3 2.3 0 0 0-1.014.002"/></svg>