<svg xmlns="http://www.w3.org/2000/svg" viewBox="0 0 24 24"><path d="M11.486 3.125c-.301.05-.702.216-1.006.418-.178.118-1.128 1.043-3.003 2.925C4.839 9.114 4.727 9.232 4.57 9.54c-.33.648-.31.33-.31 4.9v4.06l.109.32c.151.445.362.783.695 1.116.334.334.673.545 1.116.694l.32.108 1.766.013c1.255.01 1.816.001 1.939-.032.217-.059.452-.288.51-.5.031-.108.045-.981.045-2.743 0-2.452.004-2.587.073-2.65.064-.058.206-.066 1.174-.066 1.015 0 1.106.006 1.167.073s.066.309.066 2.65c0 1.757.015 2.628.045 2.736.058.212.293.441.51.5.123.033.684.042 1.939.032l1.766-.013.32-.108c.443-.149.782-.36 1.116-.694.333-.333.544-.671.695-1.116l.109-.32v-4.04c0-3.251-.011-4.083-.054-4.26a4 4 0 0 0-.234-.6l-.18-.38-2.746-2.752C14.653 4.59 13.697 3.66 13.52 3.543a2.8 2.8 0 0 0-2.034-.418m1.058 1.593c.201.101.626.51 2.881 2.77 2.511 2.517 2.65 2.664 2.731 2.885.085.233.085.237.075 4.1l-.011 3.867-.093.189c-.132.268-.416.534-.674.63-.2.075-.311.081-1.455.081H14.76l-.001-2.17c0-2.317-.014-2.507-.202-2.875-.122-.24-.533-.634-.797-.765-.31-.153-.641-.188-1.76-.188s-1.45.035-1.76.188c-.264.131-.675.525-.797.765-.188.368-.202.558-.202 2.875l-.001 2.17H8.002c-1.144 0-1.255-.006-1.455-.081-.258-.096-.542-.362-.674-.63l-.093-.189-.011-3.867c-.01-3.863-.01-3.867.075-4.1.081-.221.22-.368 2.731-2.885C11.558 4.498 11.437 4.6 12 4.6c.261 0 .343.018.544.118" fill-rule="evenodd"/></svg>