<svg xmlns="http://www.w3.org/2000/svg" viewBox="0 0 24 24"><path d="M11.82 2.277a.73.73 0 0 0-.538.514c-.024.086-.042.612-.042 1.237 0 1.253-.028 1.395-.334 1.709-.106.108-1.326.893-3.366 2.166-2.096 1.308-3.264 2.061-3.387 2.182-.464.46-.618 1.196-.382 1.832.084.227.833 1.377 1.091 1.676.291.337.783.638 1.318.806.208.065.383.088.68.09.363.001.561-.035 2.14-.387.957-.214 1.875-.398 2.04-.409.548-.038 1.307.133 2.132.479.35.147.39.174.371.251-.032.128-2.055 5.782-2.076 5.803-.026.026-.881-.091-1.231-.168a9 9 0 0 1-.659-.179c-1.002-.315-1.591-.622-2.722-1.416-.279-.196-.464-.245-.695-.183a.76.76 0 0 0-.56.716c0 .317.087.441.56.802 1.305.996 2.946 1.659 4.68 1.889.563.075 1.919.063 2.48-.021 2.838-.428 5.242-1.941 6.805-4.284a10.3 10.3 0 0 0 1.368-3.162c.19-.808.243-1.291.243-2.22 0-.616-.02-.99-.07-1.32-.443-2.919-2.04-5.389-4.49-6.941-.824-.522-2.118-1.053-3.056-1.253-.759-.162-2.02-.277-2.3-.209m1.5 1.584c2.881.464 5.301 2.428 6.379 5.179.18.46.353 1.106.449 1.676.1.593.1 1.975 0 2.568-.499 2.979-2.489 5.409-5.281 6.453-.66.246-1.747.492-1.747.395 0-.08 1.929-5.435 1.973-5.477.026-.025.194-.094.374-.153 1.033-.338 2.033-1.07 2.513-1.839.374-.601.649-1.442.744-2.28.053-.463.018-.663-.15-.863-.149-.177-.321-.253-.574-.253-.231 0-.357.046-.514.188-.154.14-.21.293-.25.69-.161 1.571-.786 2.389-2.247 2.937l-.35.132-.15-.084c-.237-.133-.876-.406-1.289-.552-.83-.293-1.427-.394-2.166-.369-.495.017-.662.046-2.265.404-.953.213-1.8.387-1.883.387-.222 0-.53-.102-.719-.24-.193-.139-1.007-1.326-1.007-1.467 0-.048.027-.115.061-.148.033-.033 1.45-.929 3.15-1.99 1.699-1.062 3.179-1.996 3.289-2.077.248-.181.46-.414.662-.726.325-.503.435-.984.437-1.922.001-.733-.062-.669.561-.569m.485 3.418a.77.77 0 0 0-.544.597c-.077.453.303.883.781.884.157 0 .441-.164.576-.334.109-.137.122-.182.122-.426 0-.245-.012-.288-.124-.426-.212-.262-.506-.369-.811-.295" fill-rule="evenodd"/></svg>