<svg xmlns="http://www.w3.org/2000/svg" viewBox="0 0 24 24"><path d="M11.811 2.279a.87.87 0 0 0-.481.373c-.061.111-.073.286-.09 1.348l-.02 1.22-.112.227c-.061.125-.171.28-.244.344S9.311 6.795 7.575 7.88C5.84 8.964 4.339 9.919 4.24 10.001c-.379.316-.642.98-.58 1.47.046.373.168.629.623 1.31.881 1.319 1.444 1.67 2.676 1.666.482-.002.562-.016 2.141-.368.902-.201 1.775-.375 1.94-.386.549-.038 1.307.133 2.132.479.35.147.39.174.371.251-.032.127-2.054 5.782-2.075 5.803-.01.009-.178-.002-.373-.025-1.564-.188-2.729-.665-4.24-1.737-.278-.197-.464-.246-.695-.184-.196.053-.433.253-.506.428a.85.85 0 0 0 .001.586c.123.294 1.099.986 2.045 1.448 2.739 1.339 5.846 1.346 8.56.019 1.051-.513 1.77-1.029 2.621-1.88s1.367-1.57 1.88-2.621c1.616-3.305 1.23-7.202-1.006-10.164-1.569-2.079-4.057-3.493-6.635-3.772-.548-.059-1.16-.08-1.309-.045m2.549 5.062a.78.78 0 0 1 .338.388c.215.514-.241 1.097-.792 1.014-.666-.1-.882-.961-.339-1.348a.8.8 0 0 1 .793-.054"/></svg>