<svg xmlns="http://www.w3.org/2000/svg" viewBox="0 0 24 24"><path d="M11.82 2.277a.73.73 0 0 0-.538.514c-.024.086-.042.612-.042 1.237 0 1.253-.028 1.395-.334 1.709-.106.108-1.326.893-3.366 2.166-2.096 1.308-3.264 2.061-3.387 2.182-.464.46-.618 1.196-.382 1.832.084.227.833 1.377 1.091 1.676.291.337.783.638 1.318.806.208.065.383.088.68.09.363.001.561-.035 2.14-.387.957-.214 1.875-.398 2.04-.409.548-.038 1.307.133 2.132.479.35.147.39.174.371.251-.032.128-2.055 5.782-2.076 5.803-.026.026-.881-.091-1.231-.168a9 9 0 0 1-.659-.179c-1.002-.315-1.591-.622-2.722-1.416-.279-.196-.464-.245-.695-.183a.76.76 0 0 0-.56.716c0 .317.087.441.56.802 1.305.996 2.946 1.659 4.68 1.889.563.075 1.919.063 2.48-.021 2.838-.428 5.242-1.941 6.805-4.284a10.3 10.3 0 0 0 1.368-3.162c.19-.808.243-1.291.243-2.22 0-.616-.02-.99-.07-1.32-.443-2.919-2.04-5.389-4.49-6.941-.824-.522-2.118-1.053-3.056-1.253-.759-.162-2.02-.277-2.3-.209m1.84 1.648c1.201.242 2.482.841 3.477 1.626.363.287 1.025.949 1.312 1.312A8.3 8.3 0 0 1 20.239 12a8.25 8.25 0 0 1-4.411 7.3c-.227.121-.627.3-.889.4-.69.261-1.821.531-1.818.434 0-.019.438-1.257.973-2.753l.972-2.718.437-.166c.839-.318 1.446-.685 1.94-1.176.511-.507.836-1.073 1.072-1.87.125-.42.245-1.112.245-1.407a.79.79 0 0 0-.46-.728c-.5-.231-1.056.152-1.059.73-.001.239-.1.756-.205 1.078-.323.983-.997 1.605-2.166 1.999l-.23.078-.283-.143c-.662-.333-1.623-.673-2.205-.78a5.4 5.4 0 0 0-1.332-.075c-.198.018-1.135.205-2.083.415S6.96 13 6.894 13c-.189 0-.501-.107-.706-.243-.146-.097-.281-.263-.608-.749-.231-.344-.42-.663-.42-.709 0-.047.04-.122.09-.167s1.512-.97 3.25-2.055c3.474-2.168 3.553-2.225 3.879-2.81.292-.526.349-.785.372-1.682l.019-.794.245.027c.135.015.425.063.645.107m.04 3.391c-.392.181-.558.605-.385.986a.74.74 0 0 0 1.165.269c.344-.295.382-.751.087-1.066a.75.75 0 0 0-.867-.189"/></svg>