<svg xmlns="http://www.w3.org/2000/svg" viewBox="0 0 24 24"><path d="M5.288 4.987c-.168.083-.693.642-1.065 1.135Q2.731 8.1 2.334 10.68c-.097.635-.097 2.001 0 2.64.31 2.046 1.187 3.889 2.522 5.307.385.409.507.473.846.445.481-.04.79-.557.602-1.008-.03-.073-.186-.275-.345-.448a8.33 8.33 0 0 1-2.107-4.332c-.1-.593-.1-1.975 0-2.568a8.33 8.33 0 0 1 2.107-4.332c.312-.339.401-.5.401-.724 0-.161-.089-.4-.192-.513-.193-.214-.615-.291-.88-.16m12.772 0c-.185.098-.265.179-.345.353a.76.76 0 0 0-.019.596c.03.073.185.275.344.448a8.3 8.3 0 0 1 2.108 4.332c.1.593.1 1.975 0 2.568a8.3 8.3 0 0 1-2.108 4.332c-.159.173-.314.375-.344.448-.188.451.121.968.602 1.008.339.028.461-.036.845-.445 1.333-1.415 2.213-3.267 2.523-5.307.05-.33.07-.704.07-1.32s-.02-.99-.07-1.32q-.389-2.564-1.9-4.572c-.369-.489-.891-1.042-1.061-1.123-.173-.082-.488-.081-.645.002M7.571 7.038c-.191.047-.29.124-.577.449a6.73 6.73 0 0 0-1.677 3.573c-.064.412-.064 1.468 0 1.88a6.75 6.75 0 0 0 1.713 3.615c.386.431.672.533 1.032.37a.78.78 0 0 0 .416-.476c.088-.315.024-.487-.32-.873C7.241 14.547 6.76 13.316 6.76 12c0-1.312.482-2.547 1.392-3.568.248-.279.368-.5.368-.677-.001-.234-.191-.547-.395-.652a.95.95 0 0 0-.554-.065m8.474.001c-.386.094-.633.52-.528.91.028.102.142.271.323.475.923 1.041 1.4 2.258 1.4 3.576 0 1.342-.481 2.547-1.452 3.634-.287.322-.35.514-.266.815a.78.78 0 0 0 .416.476c.36.163.646.061 1.032-.37.8-.891 1.287-1.798 1.568-2.915.15-.596.195-.972.195-1.64s-.045-1.044-.195-1.64A6.6 6.6 0 0 0 17.43 8c-.287-.383-.702-.834-.824-.896a.95.95 0 0 0-.561-.065m-4.45 1.243c-.46.05-.773.142-1.215.357-1.06.514-1.74 1.36-2.03 2.521a4 4 0 0 0 0 1.68c.183.733.493 1.287 1.008 1.802.73.73 1.606 1.092 2.642 1.092s1.912-.362 2.642-1.092 1.092-1.606 1.092-2.642c0-1.589-.926-2.924-2.441-3.515-.441-.173-1.171-.26-1.698-.203m.961 1.54c.378.089.707.281 1.024.598.454.454.659.945.659 1.58s-.205 1.126-.659 1.58c-.456.456-.944.66-1.58.66s-1.124-.204-1.58-.66c-.454-.454-.659-.945-.659-1.58s.205-1.126.659-1.58q.466-.465 1.005-.597a2.9 2.9 0 0 1 1.131-.001" fill-rule="evenodd"/></svg>