<svg xmlns="http://www.w3.org/2000/svg" viewBox="0 0 24 24"><path d="M4.805 2.28c-.391.092-.633.519-.524.924.059.218.288.453.5.511.087.025.458.045.824.045h.666l.028.31c.26 2.872 1.736 5.659 3.977 7.51.266.22.484.411.484.424s-.221.206-.492.428q-2.472 2.027-3.462 4.988c-.293.874-.526 2.046-.526 2.642v.178l-.65.001c-.883.001-1.049.048-1.257.354-.268.393-.049.993.408 1.12.225.063 14.213.063 14.438 0 .457-.127.676-.727.408-1.12-.208-.306-.374-.353-1.257-.354l-.65-.001v-.178c0-.596-.233-1.768-.526-2.642q-.99-2.96-3.462-4.988c-.271-.222-.492-.415-.492-.428s.218-.204.484-.424a11.14 11.14 0 0 0 3.873-6.751c.042-.247.089-.589.104-.759l.028-.31h.666c.366 0 .737-.02.824-.045a.84.84 0 0 0 .306-.191.739.739 0 0 0-.348-1.246c-.194-.045-14.181-.043-14.372.002m11.378 1.79c-.051.562-.28 1.591-.459 2.06l-.042.11H8.318l-.042-.11c-.179-.468-.418-1.54-.463-2.078l-.025-.292h8.423zm-3.671 9.299c1.18.949 1.922 1.799 2.563 2.939.634 1.125.977 2.246 1.142 3.742l.021.19H7.762l.021-.19c.165-1.496.508-2.617 1.142-3.742.638-1.133 1.368-1.972 2.555-2.937.275-.223.505-.407.512-.409.007-.001.241.182.52.407" fill-rule="evenodd"/></svg>