<svg xmlns="http://www.w3.org/2000/svg" viewBox="0 0 24 24"><path d="M11.44 2.264c-1.414.121-2.584.43-3.7.975C4.799 4.677 2.835 7.38 2.334 10.68c-.097.636-.097 2.004 0 2.64.446 2.941 2.052 5.409 4.533 6.968 1.075.676 2.441 1.17 3.813 1.378.636.097 2.004.097 2.64 0 2.1-.319 3.932-1.206 5.405-2.618 1.601-1.534 2.6-3.479 2.941-5.728.097-.636.097-2.004 0-2.64a10.1 10.1 0 0 0-.924-2.98 9.72 9.72 0 0 0-7.33-5.338c-.531-.077-1.597-.131-1.972-.098m-.2 5.316v3.66H7.753l.022-.15c.011-.082.032-.294.046-.47.209-2.686 1.288-5.227 2.675-6.297.232-.179.615-.401.694-.402.04-.001.05.757.05 3.659m1.792-3.564c.852.432 1.712 1.527 2.28 2.904.454 1.098.781 2.51.867 3.74.014.198.035.41.047.47l.02.11H12.76V7.58c0-2.492.013-3.66.041-3.66.023 0 .127.043.231.096m-5.044.95c-.306.478-.775 1.515-1.002 2.214a15.8 15.8 0 0 0-.69 3.61l-.027.45H3.8v-.09c0-.181.125-.861.237-1.29.524-2.011 1.878-3.806 3.72-4.932.186-.114.344-.2.353-.192.008.009-.047.112-.122.23m8.572.165c1.655 1.096 2.911 2.841 3.403 4.729.112.429.237 1.109.237 1.29v.09h-2.469l-.027-.45c-.128-2.074-.772-4.307-1.668-5.782a3 3 0 0 1-.156-.276c0-.027.32.161.68.399M6.296 13.21c.128 2.075.772 4.307 1.669 5.784.086.141.151.264.143.271-.007.008-.184-.09-.392-.217-1.799-1.097-3.159-2.911-3.679-4.908-.112-.429-.237-1.109-.237-1.29v-.09h2.469zm4.944 3.231v3.68l-.21-.105c-1.211-.608-2.251-2.218-2.825-4.376a15 15 0 0 1-.384-2.28 9 9 0 0 0-.045-.47l-.02-.13h3.484zm4.986-3.571a6 6 0 0 0-.047.47 14.5 14.5 0 0 1-.384 2.3c-.574 2.158-1.614 3.768-2.825 4.376l-.21.105V12.76h3.486zm3.974-.02c0 .05-.028.261-.061.47a8.3 8.3 0 0 1-3.855 5.728c-.208.127-.385.225-.392.217-.008-.007.057-.13.143-.271.897-1.477 1.541-3.709 1.669-5.784l.027-.45H20.2z" fill-rule="evenodd"/></svg>