<svg xmlns="http://www.w3.org/2000/svg" viewBox="0 0 24 24"><path d="M5.617 3.283q-.873.101-1.552.781a2.74 2.74 0 0 0-.696 1.116l-.109.32v13l.109.32c.151.445.362.783.695 1.116s.671.544 1.116.695l.32.109h13l.32-.109a2.74 2.74 0 0 0 1.116-.695c.333-.333.544-.671.695-1.116l.109-.32v-13l-.109-.32a2.74 2.74 0 0 0-.696-1.116c-.472-.471-.961-.709-1.606-.783-.425-.049-12.293-.046-12.712.002m12.911 1.59c.239.118.481.36.599.599l.093.188v12.68l-.093.189c-.132.268-.416.534-.674.63-.213.08-.297.081-6.453.081s-6.24-.001-6.453-.081c-.258-.096-.542-.362-.674-.63l-.093-.189-.011-6.26c-.009-4.677 0-6.303.035-6.43.093-.34.433-.7.782-.828.131-.048 1.114-.056 6.454-.049l6.3.007zM11.82 6.276a.73.73 0 0 0-.538.515c-.06.215-.057 8.213.003 8.428.059.213.293.441.513.5.4.108.812-.12.92-.51.057-.206.057-8.212 0-8.418a.8.8 0 0 0-.353-.448.95.95 0 0 0-.545-.067m-2.4.984a2 2 0 0 1-.149.037c-.147.032-.39.251-.457.411-.044.105-.054.726-.054 3.288 0 2.135.014 3.195.043 3.271.093.249.438.491.697.491s.604-.242.697-.491c.029-.076.043-1.135.043-3.267s-.014-3.191-.043-3.267a.9.9 0 0 0-.357-.391c-.108-.055-.355-.104-.42-.082m5 0a2 2 0 0 1-.149.037c-.147.032-.39.251-.457.411-.044.105-.054.726-.054 3.288 0 2.135.014 3.195.043 3.271.093.249.438.491.697.491s.604-.242.697-.491c.029-.076.043-1.135.043-3.267s-.014-3.191-.043-3.267a.9.9 0 0 0-.357-.391c-.108-.055-.355-.104-.42-.082M6.7 8.817a.76.76 0 0 0-.384.399c-.069.151-.074.289-.074 1.784 0 1.493.006 1.633.074 1.78.137.295.381.46.684.46s.547-.165.684-.46c.068-.147.074-.287.074-1.78s-.006-1.633-.074-1.78c-.086-.186-.257-.357-.417-.417a.9.9 0 0 0-.567.014m10 0a.76.76 0 0 0-.384.399c-.069.151-.074.289-.074 1.784 0 1.493.006 1.633.074 1.78.137.295.381.46.684.46s.547-.165.684-.46c.068-.147.074-.287.074-1.78s-.006-1.633-.074-1.78c-.086-.186-.257-.357-.417-.417a.9.9 0 0 0-.567.014m-9.8 6.442a2 2 0 0 1-.149.038c-.289.064-.545.471-.495.787.039.241.117.367.353.567.92.782 2.454 1.353 4.111 1.53 1.074.115 2.546.056 3.5-.14 1.278-.263 2.448-.776 3.171-1.39.315-.267.417-.526.331-.843-.091-.339-.361-.541-.722-.541-.239 0-.349.043-.55.218-.509.442-1.515.877-2.475 1.071-.725.147-1.106.181-1.975.181s-1.25-.034-1.975-.181c-.96-.194-1.966-.629-2.475-1.071a1.4 1.4 0 0 0-.21-.154c-.09-.047-.379-.094-.44-.072" fill-rule="evenodd"/></svg>