<svg xmlns="http://www.w3.org/2000/svg" viewBox="0 0 24 24"><path d="M5.656 3.282a2.75 2.75 0 0 0-2.112 1.495c-.307.627-.284.043-.284 7.223 0 6.082.004 6.434.073 6.68a2.82 2.82 0 0 0 1.987 1.987c.246.069.598.073 6.68.073 6.101 0 6.433-.004 6.68-.073a2.83 2.83 0 0 0 1.987-1.987c.069-.247.073-.579.073-6.68s-.004-6.433-.073-6.68a2.8 2.8 0 0 0-1.465-1.782c-.598-.295-.071-.274-7.042-.282-3.443-.004-6.37.008-6.504.026M12.31 6.48a.8.8 0 0 1 .21.21c.078.128.08.209.08 4.31s-.002 4.182-.08 4.31a.61.61 0 0 1-1.04 0c-.078-.128-.08-.209-.08-4.31s.002-4.182.08-4.31a.62.62 0 0 1 .83-.21M9.83 7.486c.081.05.171.155.214.25.07.155.074.328.075 3.266l.001 3.101-.09.178a.555.555 0 0 1-.53.326.58.58 0 0 1-.529-.309l-.09-.158v-3.132c-.001-3.029.002-3.136.077-3.285a.623.623 0 0 1 .872-.237m5 0c.081.05.171.155.214.25.07.155.074.328.075 3.266l.001 3.101-.09.178a.555.555 0 0 1-.53.326.58.58 0 0 1-.529-.309l-.09-.158v-3.132c-.001-3.029.002-3.136.077-3.285a.623.623 0 0 1 .872-.237M7.278 8.959c.084.043.192.14.238.214.082.133.084.179.084 1.832v1.696l-.098.144a.6.6 0 0 1-1.004 0l-.098-.144v-1.696c0-1.652.002-1.699.084-1.831a.6.6 0 0 1 .794-.215m10 0c.084.043.192.14.238.214.082.133.084.179.084 1.832v1.696l-.098.144a.6.6 0 0 1-1.004 0l-.098-.144v-1.696c0-1.652.002-1.699.084-1.831a.6.6 0 0 1 .794-.215m-9.934 6.546c.086.058.207.148.269.2.475.398 1.679.87 2.639 1.034 1.396.238 3.168.159 4.337-.195.753-.227 1.417-.544 1.851-.881.297-.231.366-.263.567-.263a.59.59 0 0 1 .593.592c0 .214-.071.354-.271.535-.793.716-2.318 1.301-3.969 1.521-.497.066-2.223.066-2.72 0-1.651-.22-3.176-.805-3.969-1.521-.2-.181-.271-.321-.271-.535a.6.6 0 0 1 .944-.487"/></svg>