<svg xmlns="http://www.w3.org/2000/svg" viewBox="0 0 24 24"><path d="M11.44 2.264c-1.414.121-2.584.43-3.7.975C4.799 4.677 2.835 7.38 2.334 10.68c-.097.636-.097 2.004 0 2.64.446 2.941 2.052 5.409 4.533 6.968 1.075.676 2.441 1.17 3.813 1.378.636.097 2.004.097 2.64 0 2.1-.319 3.932-1.206 5.405-2.618 1.601-1.534 2.6-3.479 2.941-5.728.097-.636.097-2.004 0-2.64a10.1 10.1 0 0 0-.924-2.98 9.72 9.72 0 0 0-7.33-5.338c-.531-.077-1.597-.131-1.972-.098m-.2 5.316v3.66H7.753l.022-.15c.011-.082.032-.294.046-.47.209-2.686 1.288-5.227 2.675-6.297.232-.179.615-.401.694-.402.04-.001.05.757.05 3.659m1.792-3.564c.852.432 1.712 1.527 2.28 2.904.454 1.098.781 2.51.867 3.74.014.198.035.41.047.47l.02.11H12.76V7.58c0-2.492.013-3.66.041-3.66.023 0 .127.043.231.096m-5.03.914c-.2.336-.58 1.101-.732 1.47-.512 1.249-.89 2.947-.974 4.37l-.028.47H3.79l.027-.25c.086-.78.399-1.827.78-2.61.603-1.239 1.598-2.403 2.687-3.143.251-.171.803-.514.829-.516a1.2 1.2 0 0 1-.111.209m8.558.201c1.655 1.096 2.911 2.841 3.403 4.729.112.429.237 1.109.237 1.29v.09h-2.469l-.027-.45c-.128-2.074-.772-4.307-1.668-5.782a3 3 0 0 1-.156-.276c0-.027.32.161.68.399M6.296 13.23c.084 1.423.462 3.121.974 4.37.153.371.532 1.134.735 1.475l.128.216-.197-.113a8.4 8.4 0 0 1-1.759-1.355 7.8 7.8 0 0 1-1.098-1.346c-.632-.96-1.139-2.355-1.262-3.467l-.027-.25h2.478zm4.944 3.211v3.68l-.21-.105c-1.211-.608-2.251-2.218-2.825-4.376a15 15 0 0 1-.384-2.28 9 9 0 0 0-.045-.47l-.02-.13h3.484zm4.986-3.571a6 6 0 0 0-.047.47 14.5 14.5 0 0 1-.384 2.3c-.574 2.158-1.614 3.768-2.825 4.376l-.21.105V12.76h3.486zm3.974-.02c0 .05-.028.261-.061.47a8.3 8.3 0 0 1-3.855 5.728c-.208.127-.385.225-.392.217-.008-.007.057-.13.143-.271.897-1.477 1.541-3.709 1.669-5.784l.027-.45H20.2z"/></svg>