<svg xmlns="http://www.w3.org/2000/svg" viewBox="0 0 24 24"><path d="M8.617 3.283q-.873.101-1.552.781a2.7 2.7 0 0 0-.694 1.116c-.106.318-.107.33-.122 1.69l-.015 1.37-.887.001c-1.145.002-1.394.035-1.824.241-.263.126-.4.225-.62.45-.692.705-.851 1.688-.415 2.579.178.366.635.823 1.001 1.001.449.22.668.247 2.036.247l1.225.001 2.005 1.604c1.103.882 2.005 1.618 2.005 1.636s-.98.816-2.178 1.775c-1.447 1.158-2.202 1.787-2.248 1.874a.9.9 0 0 0-.071.355c-.003.504.49.868.958.707.103-.035.988-.718 2.47-1.903L12 16.959l2.309 1.849c1.482 1.185 2.367 1.868 2.47 1.903.468.161.961-.203.958-.707a.9.9 0 0 0-.071-.355c-.046-.087-.801-.716-2.248-1.874-1.198-.959-2.178-1.758-2.178-1.775 0-.018.902-.754 2.005-1.636l2.005-1.604 1.225-.001c1.368 0 1.587-.027 2.036-.247.366-.178.823-.635 1.001-1.001.435-.889.277-1.877-.412-2.575a2.2 2.2 0 0 0-1.273-.655c-.193-.025-1.599-.041-3.684-.041h-3.371l-.024-.373c-.067-1.015-.643-1.894-1.528-2.328-.5-.246-.635-.266-1.98-.294L8.02 5.22l.14-.131c.294-.275.415-.307 1.28-.33.854-.023.935-.043 1.134-.279a.747.747 0 0 0-.397-1.202c-.19-.044-1.167-.04-1.56.005m1.911 3.59c.425.209.68.599.706 1.077l.015.29H7.76V6.757l1.29.011c1.256.012 1.295.014 1.478.105m2.897 7.027L12 15.041 10.575 13.9l-1.424-1.14h5.698z"/></svg>