<svg xmlns="http://www.w3.org/2000/svg" viewBox="0 0 24 24"><path d="M13.787 3.289a.9.9 0 0 0-.306.186c-.132.126-.176.221-.335.716-.211.653-.268 1.025-.222 1.442.041.377.112.589.41 1.227.312.669.318.802.07 1.558-.189.576-.195.745-.031.988a.73.73 0 0 0 .865.295c.308-.103.41-.251.62-.903.207-.643.259-.981.218-1.414-.037-.383-.107-.595-.409-1.243-.315-.674-.321-.808-.072-1.56.182-.55.192-.696.064-.943-.078-.15-.28-.3-.479-.354-.183-.05-.187-.05-.393.005m3.544-.01c-.346.082-.458.236-.699.959-.199.6-.207.638-.209 1.082-.004.575.056.803.386 1.475l.247.505-.002.36c-.002.307-.024.421-.148.778-.151.432-.176.636-.103.829.093.249.438.491.697.491a.8.8 0 0 0 .28-.073c.291-.134.362-.245.587-.92.201-.604.208-.641.21-1.085.004-.572-.055-.798-.382-1.475-.336-.694-.349-.865-.119-1.569.175-.535.197-.721.11-.928-.071-.171-.307-.373-.495-.426-.168-.046-.178-.046-.36-.003M6.096 6.28c-.398.043-.699.138-1.116.352-.291.149-.434.258-.744.566-.733.729-.993 1.399-.995 2.566l-.001.465-.241.025a1.3 1.3 0 0 0-.355.084.8.8 0 0 0-.362.453c-.054.196-.055 3.23-.001 3.709.054.471.201 1.017.385 1.429.44.984 1.308 1.884 2.249 2.331l.325.154v.323c.001.422.056.609.236.788.501.501 1.283.127 1.284-.615v-.15h10.48v.15c.001.25.081.461.236.615a.74.74 0 0 0 1.098-.045c.138-.164.186-.355.186-.743v-.323l.325-.154c.941-.447 1.809-1.347 2.249-2.331.184-.412.331-.958.385-1.429.054-.479.053-3.513-.001-3.709a.83.83 0 0 0-.373-.462c-.116-.064-.531-.07-5.855-.08l-5.73-.01-.001-.47c-.002-1.173-.261-1.843-.995-2.569-.307-.303-.458-.418-.75-.571a3.34 3.34 0 0 0-1.918-.349m.85 1.536c.305.081.59.251.81.484.37.391.483.729.484 1.45v.49H4.76v-.49c.001-.743.138-1.127.54-1.506a1.74 1.74 0 0 1 1.646-.428m13.286 5.374-.014 1.43-.131.38a3.06 3.06 0 0 1-.803 1.284c-.514.513-1.07.808-1.724.913-.359.058-10.761.058-11.12 0-1.036-.167-2.029-.955-2.428-1.926-.222-.542-.224-.555-.241-2.081l-.017-1.43h16.492z"/></svg>