<svg xmlns="http://www.w3.org/2000/svg" viewBox="0 0 24 24"><path d="M11.467 2.283a5.53 5.53 0 0 0-2.719.943c-.441.293-1.093.896-1.374 1.27l-.183.244-1.229.02-1.228.02-.148.1c-.207.139-.364.465-.334.691.021.163 1.454 3.104 1.637 3.362.063.088.076.151.058.28-.335 2.429-.456 3.519-.563 5.067-.135 1.955-.127 2.227.084 2.758a2.6 2.6 0 0 0 .636.936c.308.303.649.512 1.076.657l.32.109h9l.32-.109c.789-.269 1.424-.86 1.71-1.591.192-.491.223-1.013.126-2.106l-.022-.246.133-.027c.396-.081.865-.315 1.263-.629a3.26 3.26 0 0 0 1.054-1.499l.136-.393v-1.38c0-1.315-.004-1.395-.091-1.693-.319-1.102-1.008-1.947-1.989-2.438-.303-.151-.823-.304-1.128-.33-.535-.046-.509-.033-.589-.289C17 4.639 15.78 3.345 14.318 2.715c-.82-.354-1.884-.515-2.851-.432m1.67 1.613c1.184.307 2.239 1.174 2.719 2.235.178.393.272.767.464 1.849.462 2.615.833 5.978.852 7.74.007.648.002.712-.078.86-.132.245-.403.49-.644.58-.208.078-.313.08-4.45.08s-4.242-.002-4.45-.08c-.241-.09-.512-.335-.644-.58-.078-.146-.086-.216-.081-.8.014-1.783.378-5.098.856-7.8.199-1.123.287-1.475.459-1.848.48-1.04 1.507-1.904 2.628-2.211.477-.131.733-.158 1.372-.142.481.012.679.035.997.117M6.48 6.275c0 .09-.053.285-.078.285-.024 0-.162-.255-.162-.301 0-.011.054-.019.12-.019s.12.016.12.035m5.331.003c-.326.08-.345.11-1.47 2.359-.58 1.161-1.067 2.174-1.081 2.251-.063.332.191.736.521.827.102.029.664.045 1.569.045.776 0 1.41.009 1.41.02s-.332.684-.737 1.494c-.405.811-.749 1.537-.763 1.613-.062.33.16.698.488.81.219.074.263.076.461.021.309-.086.341-.138 1.451-2.358.58-1.159 1.066-2.171 1.08-2.248.054-.287-.12-.633-.395-.783-.11-.061-.298-.07-1.615-.081-.82-.007-1.49-.021-1.49-.03 0-.01.332-.682.737-1.492.405-.811.749-1.537.763-1.613a.8.8 0 0 0-.161-.586.82.82 0 0 0-.768-.249m6.689 1.72c.529.261.969.768 1.146 1.319.072.226.087.391.103 1.163.022 1.059-.015 1.421-.18 1.774-.146.312-.487.66-.793.81-.12.059-.225.1-.232.091a25 25 0 0 1-.12-1.035 83 83 0 0 0-.536-3.924l-.074-.423.183.033c.101.018.327.104.503.192M3.805 20.28c-.391.092-.633.519-.524.924.059.218.288.453.5.511.226.063 16.212.063 16.438 0a.84.84 0 0 0 .306-.191.739.739 0 0 0-.348-1.246c-.194-.045-16.181-.043-16.372.002" fill-rule="evenodd"/></svg>