<svg xmlns="http://www.w3.org/2000/svg" viewBox="0 0 24 24"><path d="M11.48 2.264c-1.703.203-3.057.929-4.052 2.176l-.24.3-1.227.02-1.227.02-.148.1c-.207.139-.364.465-.334.691.021.163 1.454 3.104 1.638 3.363l.081.113-.145 1.047a62 62 0 0 0-.508 5.226c-.04.742-.037.909.016 1.22.171.99.93 1.82 1.926 2.108l.32.092H12c4.163 0 4.435-.004 4.68-.073a2.9 2.9 0 0 0 1.432-.92c.201-.241.457-.752.534-1.067.056-.23.066-1.217.016-1.726l-.026-.267.132-.027c.395-.08.865-.314 1.262-.628a3.26 3.26 0 0 0 1.054-1.499l.136-.393v-1.38c0-1.315-.004-1.395-.091-1.693-.319-1.102-1.008-1.947-1.989-2.438-.303-.151-.823-.304-1.128-.33-.535-.046-.509-.033-.588-.289-.119-.386-.488-1.092-.758-1.45a5.8 5.8 0 0 0-3.544-2.202c-.404-.079-1.328-.132-1.642-.094m-5 4.011c0 .09-.053.285-.078.285-.024 0-.162-.255-.162-.301 0-.011.054-.019.12-.019s.12.016.12.035m5.7.01c.341.094.547.364.552.725.003.175-.072.345-.744 1.693a95 95 0 0 0-.748 1.516c0 .01.662.023 1.47.029l1.47.012.179.101a.74.74 0 0 1 .376.651c0 .175-.108.413-1.066 2.329-1.146 2.293-1.139 2.281-1.496 2.376-.461.123-.906-.235-.908-.729 0-.17.086-.366.747-1.691.412-.825.748-1.508.748-1.518s-.622-.019-1.382-.019c-1.56 0-1.672-.014-1.898-.24a.69.69 0 0 1-.181-.734c.108-.354 2.108-4.274 2.223-4.357.099-.071.376-.184.458-.187.022-.001.112.018.2.043m6.318 1.71c.532.265.971.771 1.148 1.322.072.226.087.391.103 1.163.022 1.057-.015 1.421-.179 1.772-.175.373-.62.785-.955.885-.081.024-.086.005-.133-.486a81 81 0 0 0-.463-3.611c-.078-.495-.152-.979-.166-1.076l-.026-.176.174.023c.096.013.319.096.497.184M3.805 20.28c-.391.092-.633.519-.524.924.059.218.288.453.5.511.226.063 16.212.063 16.438 0a.84.84 0 0 0 .306-.191.739.739 0 0 0-.348-1.246c-.194-.045-16.181-.043-16.372.002" fill-rule="evenodd"/></svg>