<svg xmlns="http://www.w3.org/2000/svg" viewBox="0 0 24 24"><path d="M14.38 2.58a5.8 5.8 0 0 0-3.798 2.314c-.922 1.252-1.296 2.96-.978 4.471.048.228.089.442.091.475s-1.376 1.406-3.063 3.051c-2.776 2.706-3.079 3.014-3.19 3.24-.067.137-.14.346-.162.464-.051.274-.052 2.868-.001 3.178a1.77 1.77 0 0 0 1.144 1.373c.249.09.307.094 1.309.094 1.104-.001 1.228-.016 1.588-.2.225-.115.541-.413.669-.632.181-.308.224-.487.248-1.021.028-.628.027-.627.521-.628.403-.001.805-.078 1.047-.202.223-.113.639-.529.752-.752.124-.242.201-.644.202-1.047.001-.499-.007-.493.672-.519.542-.021.567-.026.854-.168.359-.178.384-.203 1.248-1.273l.693-.858.197.02c.475.048 1.558.018 1.897-.052a6.2 6.2 0 0 0 2.156-.896c.478-.317 1.197-1.045 1.535-1.555 1.544-2.326 1.228-5.369-.757-7.303a5.8 5.8 0 0 0-3.242-1.591c-.374-.056-1.226-.047-1.632.017m1.297 1.462c1.757.18 3.193 1.407 3.672 3.138.101.367.11.456.107 1.08-.002.605-.014.724-.109 1.077-.395 1.476-1.57 2.655-3.016 3.026-.643.165-1.446.18-2.031.038-.26-.063-.529-.048-.7.039-.117.06-.375.35-1.02 1.15-.474.589-.902 1.092-.951 1.119-.053.03-.243.05-.471.05-.641.001-1.017.144-1.408.535-.352.352-.509.809-.51 1.483 0 .422-.037.463-.416.464-.847.004-1.329.206-1.722.721-.249.327-.342.642-.342 1.162 0 .413-.006.445-.098.538-.098.098-.101.098-.92.098-.769 0-.827-.005-.902-.08-.077-.077-.08-.133-.08-1.477v-1.396l3.19-3.105c2.003-1.949 3.223-3.166 3.28-3.269.117-.216.115-.428-.01-.811a4.1 4.1 0 0 1-.208-1.542c.048-1.119.453-2.038 1.243-2.822.808-.801 1.679-1.174 2.931-1.253a6 6 0 0 1 .491.037m.023 2.775c-.248.111-.458.425-.458.683 0 .295.301.671.58.723.686.129 1.182-.57.807-1.137-.186-.28-.622-.407-.929-.269" fill-rule="evenodd"/></svg>