<svg xmlns="http://www.w3.org/2000/svg" viewBox="0 0 24 24"><path d="M14.357 3.342c-2.465.446-4.232 2.668-4.102 5.158.026.503.071.755.225 1.273l.093.313-.436.434c-.24.239-1.67 1.632-3.177 3.097-1.996 1.94-2.767 2.714-2.84 2.852l-.1.189-.012 1.501c-.012 1.692-.01 1.71.281 2.027.268.289.384.314 1.491.314.861 0 .974-.008 1.1-.075.257-.137.381-.254.498-.468.106-.196.117-.256.139-.757.026-.579.045-.64.278-.894.207-.224.377-.279.945-.304.584-.026.808-.101 1.005-.335.186-.221.228-.374.255-.927.028-.567.083-.739.306-.945.253-.233.315-.252.891-.279.588-.026.776-.078.977-.268.063-.059.449-.522.856-1.028.408-.506.784-.966.836-1.022l.094-.102.35.072c.46.096 1.341.101 1.807.011a5 5 0 0 0 1.931-.788 4.97 4.97 0 0 0 2.178-4.311 6 6 0 0 0-.083-.82c-.222-1.005-.677-1.842-1.381-2.542a5 5 0 0 0-2.636-1.376c-.414-.077-1.346-.077-1.769 0m1.993 3.503a.73.73 0 0 1 .33.975c-.268.553-1.063.556-1.348.005-.081-.157-.082-.492-.001-.646a.9.9 0 0 1 .389-.374c.17-.068.444-.05.63.04"/></svg>