<svg xmlns="http://www.w3.org/2000/svg" viewBox="0 0 24 24"><path d="M4.58 5.268c-.787.104-1.635.709-2.008 1.432-.337.653-.312.234-.312 5.3s-.025 4.647.312 5.3c.319.618.972 1.147 1.688 1.366.229.071.57.074 7.74.074h7.5l.32-.109a2.74 2.74 0 0 0 1.116-.695c.333-.333.544-.671.695-1.116l.109-.32v-9l-.109-.32a2.74 2.74 0 0 0-.696-1.116c-.472-.471-.961-.709-1.606-.783-.331-.038-14.467-.051-14.749-.013M5.24 12v5.24h-.218a1.29 1.29 0 0 1-1.176-.812c-.086-.231-.086-.238-.086-4.424 0-2.866.014-4.235.043-4.328.176-.559.629-.901 1.207-.912l.23-.004zm14.288-5.127c.239.118.481.36.599.599l.093.188v8.68l-.093.189c-.132.268-.416.534-.674.63-.213.08-.297.081-6.455.081H6.76V6.759l6.29.011 6.29.01zM16.14 9.279c-.358.044-.566.111-.92.293-.452.233-.945.727-1.166 1.168-.088.176-.17.359-.182.407l-.023.086-1.914.018c-2.147.019-2.124.016-2.715.321-.426.22-.938.724-1.152 1.136-.261.502-.387 1.238-.265 1.559.092.245.436.49.688.492.224.002.563-.204.675-.41.021-.04.065-.237.098-.44.066-.408.17-.626.396-.823.243-.214.45-.297.79-.318l.31-.018v.475c0 .541.043.667.295.871.269.218.763.177.99-.082.161-.183.195-.32.195-.792v-.462h.804c.799 0 .804 0 .827.09.062.236.35.721.573.965.45.491.904.753 1.525.881.389.081.673.081 1.062 0 .619-.127 1.075-.391 1.52-.875.757-.827.912-2.093.381-3.113-.214-.412-.726-.916-1.152-1.136a2.83 2.83 0 0 0-1.64-.293m.889 1.595c.382.196.615.5.687.896.045.253.001.602-.102.802a1.5 1.5 0 0 1-.551.541c-.176.092-.25.106-.563.106s-.387-.014-.563-.106a1.5 1.5 0 0 1-.551-.541c-.155-.299-.155-.843-.002-1.141.137-.264.417-.501.731-.618.215-.08.703-.048.914.061" fill-rule="evenodd"/></svg>