<svg xmlns="http://www.w3.org/2000/svg" viewBox="0 0 24 24"><path d="M4.617 5.283c-.584.069-1.098.328-1.552.781a2.74 2.74 0 0 0-.696 1.116l-.109.32v9l.109.32c.151.445.362.783.695 1.116s.671.544 1.116.695l.32.109h7.46c7.109 0 7.472-.003 7.72-.073a2.83 2.83 0 0 0 1.987-1.987c.069-.245.073-.517.073-4.68s-.004-4.435-.073-4.68a2.8 2.8 0 0 0-1.465-1.782c-.602-.297.047-.275-8.042-.282-3.993-.004-7.388.009-7.543.027M5.24 12v5.24h-.238c-.476 0-.915-.277-1.129-.711l-.093-.189-.011-4.26c-.009-3.158 0-4.304.035-4.43.093-.34.433-.7.782-.828a1.5 1.5 0 0 1 .404-.059l.25-.003zm11.94-2.657c.6.142 1.243.598 1.593 1.129 1.035 1.572.286 3.612-1.533 4.173-.237.073-.393.093-.74.093-.503 0-.852-.087-1.309-.326-.524-.274-1.072-.9-1.252-1.428l-.076-.224H12.24v.441c0 .607-.09.812-.42.964a.75.75 0 0 1-.61.013c-.354-.148-.448-.351-.449-.973l-.001-.455-.31.018c-.635.038-1.116.479-1.19 1.092-.048.407-.067.465-.192.607-.145.165-.391.291-.568.291-.259 0-.604-.242-.697-.491a1.1 1.1 0 0 1-.043-.322c0-.967.61-1.94 1.491-2.38.596-.298.581-.297 2.712-.315l1.903-.017.075-.22c.105-.309.413-.762.698-1.026.68-.63 1.606-.864 2.541-.644" fill-rule="evenodd"/></svg>