<svg xmlns="http://www.w3.org/2000/svg" viewBox="0 0 24 24"><path d="M4.811 3.278a.86.86 0 0 0-.477.374c-.049.094-.123.686-.279 2.228-.117 1.155-.213 2.199-.213 2.32-.001.299.091.665.247.99.156.321.576.763.919.964.523.307 1.35.602 1.942.695l.29.045v4.583c0 3.22.014 4.63.045 4.742.059.213.293.441.513.5.4.108.812-.12.92-.51.028-.099.042-1.704.042-4.734v-4.586l.226-.028c.536-.067 1.484-.401 2.006-.707.346-.203.763-.642.921-.97.15-.309.246-.704.245-1.004 0-.11-.096-1.148-.214-2.307-.236-2.329-.223-2.27-.535-2.489a.746.746 0 0 0-1.012.18c-.171.24-.17.277.045 2.402.112 1.108.197 2.126.189 2.263-.019.318-.15.49-.535.699-.297.162-.89.373-1.166.416l-.17.026V6.655c0-1.744-.015-2.768-.042-2.864-.09-.324-.364-.524-.718-.524s-.628.2-.718.524c-.027.096-.042 1.12-.042 2.864V9.37l-.17-.026c-.276-.043-.869-.254-1.166-.416-.385-.209-.516-.381-.535-.699-.008-.137.077-1.155.189-2.263.149-1.473.194-2.05.166-2.149a.766.766 0 0 0-.913-.539m12.91.025c-.207.09-.265.154-.593.657-1.68 2.573-2.795 5.123-3.112 7.12-.078.496-.089 1.427-.02 1.8.233 1.265.947 2.148 2.069 2.557.266.097.521.16 1.085.267l.09.018v2.169c0 1.459.015 2.221.045 2.328.059.213.293.441.513.5.4.108.812-.12.92-.51.028-.1.041-2.798.041-8.249-.001-7.79-.004-8.106-.075-8.26-.175-.38-.598-.555-.963-.397m-.481 7.159v3.742l-.15-.027c-.291-.053-.78-.256-.976-.406-.242-.183-.458-.499-.568-.827-.068-.205-.081-.346-.081-.884.001-.541.018-.72.11-1.156.209-.995.595-2.045 1.234-3.354.223-.456.411-.83.418-.83s.013 1.684.013 3.742" fill-rule="evenodd"/></svg>