<svg xmlns="http://www.w3.org/2000/svg" viewBox="0 0 24 24"><path d="M3.503 1.042c-1.015.172-1.947.934-2.301 1.883-.21.562-.201.143-.201 9.067-.001 9.084-.015 8.551.233 9.159a3.05 3.05 0 0 0 1.615 1.615c.608.248.076.234 9.151.234 9.073 0 8.544.013 9.15-.233a3.08 3.08 0 0 0 1.617-1.617c.246-.606.233-.077.233-9.15 0-9.075.014-8.543-.234-9.151a3 3 0 0 0-1.47-1.537c-.662-.319.236-.29-9.176-.297-4.631-.003-8.509.009-8.617.027m5.885 2.325a.7.7 0 0 1 .345.64c0 .196-.019.264-.117.402-.232.331-.233.331-1.616.331s-1.384 0-1.616-.331c-.286-.406-.056-1.011.431-1.132.069-.017.639-.028 1.268-.024l1.143.007zm3.985 2.988c.242.151.36.363.36.648 0 .2-.019.267-.117.406-.163.232-.329.318-.659.342l-.277.02-.041.164c-.23.91-.761 1.898-1.486 2.765-.664.794-1.727 1.725-2.603 2.278-.17.108-.31.209-.31.224 0 .042.572.475 1 .757.579.381 1.488.809 2.254 1.062.371.123.692.217.713.21s.753-1.299 1.626-2.871c1.798-3.234 1.7-3.093 2.167-3.093.479 0 .259-.339 3.114 4.794 1.395 2.508 2.561 4.64 2.592 4.739.195.619-.484 1.161-1.073.857-.164-.085-.244-.212-.99-1.557a45 45 0 0 0-.72-1.273c-.018-.017-.327.013-.688.068s-.871.124-1.135.153c-.63.068-2.78.067-3.32-.002-.22-.028-.49-.06-.6-.071l-.2-.02-.697 1.265c-.41.743-.745 1.305-.812 1.362a.75.75 0 0 1-.86.052c-.271-.166-.421-.542-.329-.821.041-.125.687-1.32 1.101-2.04l.097-.167-.33-.108c-1.558-.511-2.871-1.25-4.032-2.27l-.342-.3-.138.059c-1.01.429-2.411.739-3.378.748-.555.006-.675-.039-.876-.326a.74.74 0 0 1-.013-.802c.186-.281.316-.331.961-.369a8 8 0 0 0 1.897-.343c.259-.078.477-.148.485-.156.007-.007-.116-.208-.274-.446-.709-1.07-1.15-2.263-1.171-3.169-.007-.3.004-.364.086-.497.298-.481.987-.489 1.28-.015.059.096.097.253.125.528.083.805.507 1.772 1.169 2.671l.2.271.226-.126a12 12 0 0 0 1.345-.937c.473-.382 1.255-1.188 1.592-1.639.255-.342.757-1.275.811-1.509l.025-.11-4.174-.01c-4.125-.011-4.176-.012-4.313-.093a1 1 0 0 1-.257-.249c-.286-.406-.054-1.014.431-1.131.069-.017 2.438-.028 5.265-.024l5.14.006zm1.511 7.187c-.602 1.089-1.088 1.987-1.079 1.996.046.047 1.569.108 2.095.084.847-.037 2.149-.178 2.209-.237.019-.02-2.078-3.822-2.109-3.822-.011 0-.513.891-1.116 1.979"/></svg>