<svg xmlns="http://www.w3.org/2000/svg" viewBox="0 0 24 24"><path d="M6.805 3.28c-.391.092-.633.519-.524.924.059.218.288.453.5.511.214.06 2.224.06 2.438 0a.84.84 0 0 0 .306-.191.739.739 0 0 0-.348-1.246c-.191-.044-2.183-.043-2.372.002m-4 3c-.391.092-.633.519-.524.924.059.218.288.453.5.511.111.031 1.388.045 4.249.045 2.25 0 4.09.006 4.09.014 0 .06-.176.499-.292.73-.577 1.146-1.847 2.433-3.288 3.331l-.4.25-.091-.113c-.366-.451-.943-1.485-1.11-1.992-.101-.306-.177-.698-.179-.92-.004-.494-.393-.866-.837-.8-.499.075-.719.412-.666 1.02.078.887.497 1.963 1.167 2.989.339.522.363.463-.257.647a8 8 0 0 1-1.83.321c-.612.037-.736.075-.911.283a.75.75 0 0 0 .386 1.204c.323.088 1.464-.033 2.308-.244.475-.119 1.326-.4 1.53-.505.115-.059.118-.058.403.194 1.198 1.058 2.46 1.786 3.939 2.272.248.082.455.156.46.164.004.009-.262.502-.591 1.096-.57 1.028-.599 1.089-.598 1.299.001.259.083.435.268.576.32.244.731.222.989-.054.077-.082.436-.685.797-1.34.361-.654.68-1.199.709-1.21s.272.011.542.048c.661.089 2.304.124 3.04.064a19 19 0 0 0 1.748-.211c.478-.077.54-.08.58-.025.024.034.35.615.724 1.293s.743 1.298.82 1.381c.258.276.668.298.989.054.185-.141.267-.317.268-.576.001-.217-.032-.28-2.572-4.851-1.927-3.468-2.604-4.655-2.699-4.726-.314-.238-.717-.214-.983.057-.089.091-.734 1.213-1.698 2.953-.856 1.544-1.565 2.807-1.576 2.807s-.148-.037-.305-.083a10.2 10.2 0 0 1-3.355-1.688c-.172-.133-.307-.255-.3-.272.006-.018.227-.175.491-.351 1.209-.802 2.334-1.902 3.022-2.953.38-.582.722-1.346.878-1.963.043-.17.043-.17.232-.17.288-.001.491-.074.653-.236a.739.739 0 0 0-.348-1.246c-.194-.045-10.182-.043-10.372.002m14.268 7.206c.576 1.038 1.041 1.893 1.033 1.901-.042.043-1.376.18-2 .207-.723.03-2.154-.012-2.249-.066-.034-.02.274-.609 1.035-1.978.596-1.072 1.095-1.95 1.108-1.95s.496.849 1.073 1.886"/></svg>