<svg xmlns="http://www.w3.org/2000/svg" viewBox="0 0 24 24"><path d="M5.656 4.282a2.75 2.75 0 0 0-2.112 1.495c-.3.612-.284.346-.284 4.723 0 3.666.005 3.937.073 4.18a2.82 2.82 0 0 0 1.987 1.987c.246.069.598.073 6.68.073 6.101 0 6.433-.004 6.68-.073a2.83 2.83 0 0 0 1.987-1.987c.068-.244.073-.502.073-4.18s-.005-3.936-.073-4.18a2.8 2.8 0 0 0-1.465-1.782c-.598-.295-.071-.274-7.042-.282-3.443-.004-6.37.008-6.504.026m8.611 2.521a.75.75 0 0 1 .464.697.75.75 0 0 1-.464.697c-.074.029-.842.043-2.267.043s-2.193-.014-2.267-.043a.75.75 0 0 1-.464-.697c0-.3.189-.591.451-.695.142-.057 4.399-.059 4.547-.002M3.805 17.28c-.391.092-.633.519-.524.924.059.218.288.453.5.511.226.063 16.212.063 16.438 0a.84.84 0 0 0 .306-.191.739.739 0 0 0-.348-1.246c-.194-.045-16.181-.043-16.372.002" fill-rule="evenodd"/></svg>