<svg xmlns="http://www.w3.org/2000/svg" viewBox="0 0 24 24"><path d="M5.617 4.283q-.873.101-1.552.781a2.74 2.74 0 0 0-.696 1.116l-.109.32v8l.109.32c.151.445.362.783.695 1.116s.671.544 1.116.695l.32.109h13l.32-.109a2.74 2.74 0 0 0 1.116-.695c.333-.333.544-.671.695-1.116l.109-.32v-8l-.109-.32a2.74 2.74 0 0 0-.696-1.116c-.472-.471-.961-.709-1.606-.783-.425-.049-12.293-.046-12.712.002m12.911 1.59c.239.118.481.36.599.599l.093.188v7.68l-.093.189c-.132.268-.416.534-.674.63-.213.08-.297.081-6.453.081s-6.24-.001-6.453-.081c-.258-.096-.542-.362-.674-.63l-.093-.189-.011-3.76c-.009-2.778 0-3.805.035-3.93.093-.34.433-.7.782-.828.131-.048 1.114-.056 6.454-.049l6.3.007zM9.7 6.817c-.248.111-.458.425-.458.683s.242.604.491.697c.074.029.842.043 2.267.043s2.193-.014 2.267-.043c.249-.093.491-.438.491-.697s-.242-.604-.491-.697c-.18-.069-4.412-.055-4.567.014M3.805 17.28c-.391.092-.633.519-.524.924.059.218.288.453.5.511.226.063 16.212.063 16.438 0a.84.84 0 0 0 .306-.191.739.739 0 0 0-.348-1.246c-.194-.045-16.181-.043-16.372.002" fill-rule="evenodd"/></svg>