<svg fill="none" xmlns="http://www.w3.org/2000/svg" viewBox="0 0 24 24"><path d="M5.617 3.283 C 5.034 3.351,4.519 3.610,4.065 4.064 C 3.732 4.396,3.521 4.735,3.369 5.180 L 3.260 5.500 3.260 12.000 L 3.260 18.500 3.369 18.820 C 3.520 19.265,3.731 19.603,4.064 19.936 C 4.397 20.269,4.735 20.480,5.180 20.631 L 5.500 20.740 12.000 20.740 L 18.500 20.740 18.820 20.631 C 19.265 20.480,19.603 20.269,19.936 19.936 C 20.269 19.603,20.480 19.265,20.631 18.820 L 20.740 18.500 20.740 12.000 L 20.740 5.500 20.631 5.180 C 20.479 4.735,20.268 4.396,19.935 4.064 C 19.463 3.593,18.974 3.355,18.329 3.281 C 17.904 3.232,6.036 3.235,5.617 3.283 M18.528 4.873 C 18.767 4.991,19.009 5.233,19.127 5.472 L 19.220 5.660 19.220 12.000 L 19.220 18.340 19.127 18.529 C 18.995 18.797,18.711 19.063,18.453 19.159 C 18.265 19.230,18.141 19.240,17.488 19.240 L 16.740 19.240 16.751 15.610 C 16.759 13.113,16.749 11.899,16.719 11.720 C 16.654 11.331,16.516 11.068,16.231 10.787 C 15.928 10.488,15.635 10.335,15.260 10.282 C 14.886 10.228,9.114 10.228,8.740 10.282 C 8.365 10.335,8.072 10.488,7.769 10.787 C 7.484 11.068,7.346 11.331,7.281 11.720 C 7.251 11.899,7.241 13.113,7.249 15.610 L 7.260 19.240 6.512 19.240 C 5.859 19.240,5.735 19.230,5.547 19.159 C 5.289 19.063,5.005 18.797,4.873 18.529 L 4.780 18.340 4.769 12.080 C 4.760 7.403,4.769 5.777,4.804 5.650 C 4.897 5.310,5.237 4.950,5.586 4.822 C 5.717 4.774,6.700 4.766,12.040 4.773 L 18.340 4.780 18.528 4.873 M9.805 6.280 C 9.414 6.372,9.172 6.799,9.281 7.204 C 9.340 7.422,9.569 7.657,9.781 7.715 C 10.001 7.777,13.999 7.777,14.219 7.715 C 14.307 7.691,14.444 7.605,14.525 7.524 C 14.938 7.111,14.742 6.409,14.177 6.278 C 13.985 6.234,9.994 6.235,9.805 6.280 M11.240 15.500 L 11.240 19.240 10.073 19.240 C 9.044 19.240,8.898 19.232,8.833 19.174 C 8.763 19.111,8.760 18.944,8.760 15.507 C 8.760 12.213,8.766 11.900,8.826 11.833 C 8.887 11.765,8.980 11.760,10.066 11.760 L 11.240 11.760 11.240 15.500 M15.167 11.826 C 15.237 11.889,15.240 12.056,15.240 15.493 C 15.240 18.787,15.234 19.100,15.174 19.167 C 15.113 19.235,15.020 19.240,13.934 19.240 L 12.760 19.240 12.760 15.500 L 12.760 11.760 13.927 11.760 C 14.956 11.760,15.102 11.768,15.167 11.826 " stroke="none" fill-rule="evenodd" fill="currentColor"/></svg>