<svg xmlns="http://www.w3.org/2000/svg" viewBox="0 0 24 24"><path d="M5.617 3.283q-.873.101-1.552.781a2.74 2.74 0 0 0-.696 1.116l-.109.32v13l.109.32c.151.445.362.783.695 1.116.336.336.676.547 1.116.691.296.098.385.107 1.19.124l.87.018.001-4.435c0-4.753 0-4.744.202-5.139.122-.24.533-.634.797-.765.121-.059.346-.126.5-.148.374-.054 6.146-.054 6.52 0 .154.022.379.089.5.148.264.131.675.525.797.765.202.395.202.386.202 5.139l.001 4.435.87-.018c.805-.017.894-.026 1.19-.124.44-.144.78-.355 1.116-.691.333-.333.544-.671.695-1.116l.109-.32v-13l-.109-.32a2.74 2.74 0 0 0-.696-1.116c-.472-.471-.961-.709-1.606-.783-.425-.049-12.293-.046-12.712.002m8.56 2.995a.739.739 0 0 1 .348 1.246.84.84 0 0 1-.306.191c-.22.062-4.218.062-4.438 0-.212-.058-.441-.293-.5-.511-.109-.405.133-.832.524-.924.189-.045 4.18-.046 4.372-.002m-5.351 5.555c-.06.067-.066.384-.066 3.74v3.667h2.48v-7.48h-1.174c-1.086 0-1.179.005-1.24.073M12.76 15.5v3.74h2.48v-3.674c0-3.508-.003-3.677-.073-3.74-.065-.058-.211-.066-1.24-.066H12.76z" fill-rule="evenodd"/></svg>