<svg xmlns="http://www.w3.org/2000/svg" viewBox="0 0 24 24"><path d="M5.656 3.282a2.75 2.75 0 0 0-2.112 1.495c-.307.627-.284.043-.284 7.223 0 6.082.004 6.434.073 6.68.219.783.75 1.436 1.446 1.777.486.238.671.271 1.611.292l.85.019v-4.394c0-2.851.015-4.484.042-4.651.06-.37.215-.666.495-.946s.576-.435.946-.495c.349-.056 6.205-.056 6.554 0 .37.06.666.215.946.495s.435.576.495.946c.027.167.042 1.8.042 4.651v4.394l.85-.019c.636-.014.91-.036 1.09-.087a2.83 2.83 0 0 0 1.967-1.982c.069-.247.073-.579.073-6.68s-.004-6.433-.073-6.68a2.8 2.8 0 0 0-1.465-1.782c-.598-.295-.071-.274-7.042-.282-3.443-.004-6.37.008-6.504.026m8.717 3.073c.242.151.36.363.36.648 0 .2-.019.267-.117.406-.064.092-.18.204-.257.249-.136.08-.194.082-2.359.082s-2.223-.002-2.359-.082a1 1 0 0 1-.257-.249c-.286-.406-.055-1.013.431-1.132.069-.017 1.088-.027 2.265-.024l2.14.007zm-5.547 5.478c-.06.067-.066.384-.066 3.74v3.667h2.48v-7.48h-1.174c-1.086 0-1.179.005-1.24.073M12.76 15.5v3.74h2.48v-3.674c0-3.508-.003-3.677-.073-3.74-.065-.058-.211-.066-1.24-.066H12.76z"/></svg>