<svg xmlns="http://www.w3.org/2000/svg" viewBox="0 0 24 24"><path d="M5.617 3.283q-.873.101-1.552.781a2.74 2.74 0 0 0-.696 1.116l-.109.32v13l.109.32c.151.445.362.783.695 1.116s.671.544 1.116.695l.32.109h13l.32-.109a2.74 2.74 0 0 0 1.116-.695c.333-.333.544-.671.695-1.116l.109-.32v-13l-.109-.32a2.74 2.74 0 0 0-.696-1.116c-.472-.471-.961-.709-1.606-.783-.425-.049-12.293-.046-12.712.002M11.24 15.5v3.74h-1.167c-1.029 0-1.175-.008-1.24-.066-.07-.063-.073-.23-.073-3.667 0-3.294.006-3.607.066-3.674.061-.068.154-.073 1.24-.073h1.174zm3.927-3.674c.07.063.073.23.073 3.667 0 3.294-.006 3.607-.066 3.674-.061.068-.154.073-1.24.073H12.76v-7.48h1.167c1.029 0 1.175.008 1.24.066" fill-rule="evenodd"/></svg>