<svg xmlns="http://www.w3.org/2000/svg" viewBox="0 0 24 24"><path d="M5.617 3.283q-.873.101-1.552.781a2.74 2.74 0 0 0-.696 1.116l-.109.32v13l.109.32c.151.445.362.783.695 1.116s.671.544 1.116.695l.32.109h13l.32-.109a2.74 2.74 0 0 0 1.116-.695c.333-.333.544-.671.695-1.116l.109-.32v-13l-.109-.32a2.74 2.74 0 0 0-.696-1.116c-.472-.471-.961-.709-1.606-.783-.425-.049-12.293-.046-12.712.002m12.911 1.59c.239.118.481.36.599.599l.093.188v12.68l-.093.189c-.132.268-.416.534-.674.63-.188.071-.312.081-.965.081h-.748l.011-3.63c.008-2.497-.002-3.711-.032-3.89a1.55 1.55 0 0 0-.488-.933c-.303-.299-.596-.452-.971-.505-.374-.054-6.146-.054-6.52 0-.375.053-.668.206-.971.505a1.55 1.55 0 0 0-.488.933c-.03.179-.04 1.393-.032 3.89l.011 3.63h-.748c-.653 0-.777-.01-.965-.081-.258-.096-.542-.362-.674-.63l-.093-.189-.011-6.26c-.009-4.677 0-6.303.035-6.43.093-.34.433-.7.782-.828.131-.048 1.114-.056 6.454-.049l6.3.007zM9.805 6.28c-.391.092-.633.519-.524.924.059.218.288.453.5.511.22.062 4.218.062 4.438 0a.84.84 0 0 0 .306-.191.739.739 0 0 0-.348-1.246c-.192-.044-4.183-.043-4.372.002m1.435 9.22v3.74h-1.167c-1.029 0-1.175-.008-1.24-.066-.07-.063-.073-.23-.073-3.667 0-3.294.006-3.607.066-3.674.061-.068.154-.073 1.24-.073h1.174zm3.927-3.674c.07.063.073.23.073 3.667 0 3.294-.006 3.607-.066 3.674-.061.068-.154.073-1.24.073H12.76v-7.48h1.167c1.029 0 1.175.008 1.24.066" fill-rule="evenodd"/></svg>