<svg fill="none" xmlns="http://www.w3.org/2000/svg" viewBox="0 0 24 24"><path d="M5.617 3.283 C 5.034 3.351,4.519 3.610,4.065 4.064 C 3.732 4.396,3.521 4.735,3.369 5.180 L 3.260 5.500 3.260 12.000 L 3.260 18.500 3.369 18.820 C 3.520 19.265,3.731 19.603,4.064 19.936 C 4.397 20.269,4.735 20.480,5.180 20.631 L 5.500 20.740 12.000 20.740 L 18.500 20.740 18.820 20.631 C 19.265 20.480,19.603 20.269,19.936 19.936 C 20.269 19.603,20.480 19.265,20.631 18.820 L 20.740 18.500 20.740 12.000 L 20.740 5.500 20.631 5.180 C 20.479 4.735,20.268 4.396,19.935 4.064 C 19.463 3.593,18.974 3.355,18.329 3.281 C 17.904 3.232,6.036 3.235,5.617 3.283 M11.240 15.500 L 11.240 19.240 10.073 19.240 C 9.044 19.240,8.898 19.232,8.833 19.174 C 8.763 19.111,8.760 18.944,8.760 15.507 C 8.760 12.213,8.766 11.900,8.826 11.833 C 8.887 11.765,8.980 11.760,10.066 11.760 L 11.240 11.760 11.240 15.500 M15.167 11.826 C 15.237 11.889,15.240 12.056,15.240 15.493 C 15.240 18.787,15.234 19.100,15.174 19.167 C 15.113 19.235,15.020 19.240,13.934 19.240 L 12.760 19.240 12.760 15.500 L 12.760 11.760 13.927 11.760 C 14.956 11.760,15.102 11.768,15.167 11.826 " fill="currentColor" stroke="none" fill-rule="evenodd"/></svg>