<svg xmlns="http://www.w3.org/2000/svg" viewBox="0 0 24 24"><path d="M9.7 2.817a.8.8 0 0 0-.37.354c-.064.119-.072.353-.09 2.909l-.02 2.78-.118.212c-.126.229-.236.337-.719.708a2.92 2.92 0 0 0-1.05 1.54c-.069.244-.073.503-.073 4.22v3.96l.109.32c.151.445.362.783.695 1.116s.671.544 1.116.695l.32.109h4l.32-.109a2.74 2.74 0 0 0 1.116-.695c.333-.333.544-.671.695-1.116l.109-.32v-3.96c0-3.722-.004-3.976-.073-4.22a2.9 2.9 0 0 0-1.04-1.53c-.501-.389-.603-.49-.729-.718l-.118-.212-.02-2.78c-.018-2.492-.027-2.792-.086-2.9-.088-.159-.267-.325-.407-.377-.179-.068-3.413-.055-3.567.014M12.5 6v.74h-2l-.011-.699c-.006-.384-.002-.722.009-.75.016-.042.226-.05 1.011-.042l.991.011zm3 7v.74l-1.37.011-1.37.01v3.478l1.37.01 1.37.011v1.48h-3.28l-.223-.105a1.6 1.6 0 0 1-.376-.256 1.6 1.6 0 0 1-.256-.376l-.105-.223v-4.56l.104-.223c.178-.379.524-.65.913-.717.101-.017.867-.029 1.703-.026l1.52.006z"/></svg>