<svg fill="none" xmlns="http://www.w3.org/2000/svg" viewBox="0 0 24 24"><path d="M9.700 2.817 C 9.547 2.885,9.420 3.007,9.330 3.171 C 9.266 3.290,9.258 3.524,9.240 6.080 L 9.220 8.860 9.102 9.072 C 8.976 9.301,8.866 9.409,8.383 9.780 C 7.865 10.178,7.507 10.704,7.333 11.320 C 7.264 11.564,7.260 11.823,7.260 15.540 L 7.260 19.500 7.369 19.820 C 7.520 20.265,7.731 20.603,8.064 20.936 C 8.397 21.269,8.735 21.480,9.180 21.631 L 9.500 21.740 11.500 21.740 L 13.500 21.740 13.820 21.631 C 14.265 21.480,14.603 21.269,14.936 20.936 C 15.269 20.603,15.480 20.265,15.631 19.820 L 15.740 19.500 15.740 15.540 C 15.740 11.818,15.736 11.564,15.667 11.320 C 15.493 10.706,15.144 10.193,14.627 9.790 C 14.126 9.401,14.024 9.300,13.898 9.072 L 13.780 8.860 13.760 6.080 C 13.742 3.588,13.733 3.288,13.674 3.180 C 13.586 3.021,13.407 2.855,13.267 2.803 C 13.088 2.735,9.854 2.748,9.700 2.817 M12.240 4.740 L 12.240 5.240 11.500 5.240 L 10.760 5.240 10.760 4.740 L 10.760 4.240 11.500 4.240 L 12.240 4.240 12.240 4.740 M12.250 7.850 C 12.268 9.071,12.288 9.191,12.558 9.740 C 12.757 10.143,12.983 10.400,13.513 10.824 C 13.743 11.008,13.977 11.225,14.032 11.306 C 14.163 11.500,14.240 11.764,14.240 12.024 L 14.240 12.235 13.010 12.247 C 11.939 12.258,11.764 12.269,11.655 12.329 C 11.485 12.422,11.332 12.612,11.282 12.791 C 11.223 13.003,11.225 18.006,11.285 18.219 C 11.341 18.423,11.577 18.659,11.781 18.715 C 11.880 18.743,12.376 18.760,13.094 18.760 L 14.249 18.760 14.234 19.050 C 14.215 19.406,14.106 19.647,13.851 19.899 C 13.507 20.238,13.492 20.240,11.500 20.240 C 9.856 20.240,9.751 20.236,9.547 20.159 C 9.289 20.063,9.005 19.797,8.873 19.529 L 8.780 19.340 8.768 15.620 C 8.759 13.069,8.769 11.837,8.798 11.700 C 8.863 11.398,9.022 11.196,9.486 10.825 C 10.017 10.400,10.243 10.143,10.442 9.740 C 10.712 9.191,10.732 9.071,10.750 7.850 L 10.767 6.760 11.500 6.760 L 12.233 6.760 12.250 7.850 M14.240 15.500 L 14.240 17.240 13.500 17.240 L 12.760 17.240 12.760 15.500 L 12.760 13.760 13.500 13.760 L 14.240 13.760 14.240 15.500 " stroke="none" fill-rule="evenodd" fill="currentColor"/></svg>