<svg xmlns="http://www.w3.org/2000/svg" viewBox="0 0 24 24"><path d="M9.7 2.817a.8.8 0 0 0-.37.354c-.064.119-.072.353-.09 2.909l-.02 2.78-.118.212c-.126.229-.236.337-.719.708a2.92 2.92 0 0 0-1.05 1.54c-.069.244-.073.503-.073 4.22v3.96l.109.32c.151.445.362.783.695 1.116s.671.544 1.116.695l.32.109h4l.32-.109a2.74 2.74 0 0 0 1.116-.695c.333-.333.544-.671.695-1.116l.109-.32v-3.96c0-3.722-.004-3.976-.073-4.22a2.9 2.9 0 0 0-1.04-1.53c-.501-.389-.603-.49-.729-.718l-.118-.212-.02-2.78c-.018-2.492-.027-2.792-.086-2.9-.088-.159-.267-.325-.407-.377-.179-.068-3.413-.055-3.567.014m2.54 1.923v.5h-1.48v-1h1.48zm.01 3.11c.018 1.221.038 1.341.308 1.89.199.403.425.66.955 1.084.23.184.464.401.519.482.131.194.208.458.208.718v.211l-1.23.012c-1.071.011-1.246.022-1.355.082a.83.83 0 0 0-.373.462c-.059.212-.057 5.215.003 5.428.056.204.292.44.496.496.099.028.595.045 1.313.045h1.155l-.015.29a1.17 1.17 0 0 1-.383.849c-.344.339-.359.341-2.351.341-1.644 0-1.749-.004-1.953-.081-.258-.096-.542-.362-.674-.63l-.093-.189-.012-3.72c-.009-2.551.001-3.783.03-3.92.065-.302.224-.504.688-.875.531-.425.757-.682.956-1.085.27-.549.29-.669.308-1.89l.017-1.09h1.466zm1.99 7.65v1.74h-1.48v-3.48h1.48z" fill-rule="evenodd"/></svg>