<svg xmlns="http://www.w3.org/2000/svg" viewBox="0 0 24 24"><path d="M11.595 2.282c-.46.05-.773.142-1.215.357-1.051.51-1.733 1.35-2.027 2.501-.065.257-.086.493-.102 1.205l-.02.885-.826.022c-.924.025-1.165.068-1.609.287A2.8 2.8 0 0 0 4.333 9.32c-.069.244-.073.531-.073 4.68s.004 4.436.073 4.68a2.82 2.82 0 0 0 1.987 1.987c.245.069.564.073 5.68.073 5.132 0 5.434-.004 5.68-.073a2.83 2.83 0 0 0 1.987-1.987c.069-.245.073-.517.073-4.68s-.004-4.435-.073-4.68a2.8 2.8 0 0 0-1.465-1.782c-.442-.218-.684-.261-1.607-.286l-.826-.022-.02-.885c-.016-.712-.037-.948-.102-1.205-.321-1.254-1.143-2.182-2.354-2.655-.441-.173-1.171-.26-1.698-.203m.961 1.54c.378.089.707.281 1.024.598.542.542.659.904.659 2.05l.001.77H9.76l.001-.77c0-.871.044-1.136.25-1.526.166-.315.619-.767.934-.934.456-.241 1.079-.314 1.611-.188m.144 6.546c.502.165.942.523 1.231 1.001.2.329.272.575.297 1.011.025.443-.051.799-.251 1.18-.213.405-.732.885-1.085 1.002l-.127.043-.013 1.314-.012 1.314-.121.172c-.166.237-.346.334-.619.334s-.453-.097-.619-.334l-.121-.172-.012-1.316-.013-1.317-.098-.024c-.162-.041-.543-.307-.765-.535-.423-.432-.636-1.024-.6-1.661.025-.436.097-.682.297-1.011.56-.923 1.63-1.33 2.631-1.001" fill-rule="evenodd"/></svg>