<svg xmlns="http://www.w3.org/2000/svg" viewBox="0 0 24 24"><path d="M11.595 2.282c-.46.05-.773.142-1.215.357-1.051.51-1.733 1.35-2.027 2.501-.066.258-.086.494-.102 1.21l-.021.89h-.605c-1.361.001-1.914.179-2.56.824a2.74 2.74 0 0 0-.696 1.116l-.109.32v9l.109.32c.151.445.362.783.695 1.116s.671.544 1.116.695l.32.109h11l.32-.109a2.74 2.74 0 0 0 1.116-.695c.333-.333.544-.671.695-1.116l.109-.32v-9l-.109-.32a2.74 2.74 0 0 0-.696-1.116c-.646-.645-1.199-.823-2.56-.824h-.605l-.021-.89c-.016-.716-.036-.952-.102-1.21-.321-1.254-1.143-2.182-2.354-2.655-.441-.173-1.171-.26-1.698-.203m.961 1.54c.378.089.707.281 1.024.598.542.542.659.904.659 2.05l.001.77H9.76l.001-.77c0-.871.044-1.136.25-1.526.166-.315.619-.767.934-.934.456-.241 1.079-.314 1.611-.188m4.972 5.051c.239.118.481.36.599.599l.093.188v8.68l-.093.189c-.132.268-.416.534-.674.63-.213.08-.3.081-5.453.081s-5.24-.001-5.453-.081c-.258-.096-.542-.362-.674-.63l-.093-.189-.011-4.26c-.009-3.158 0-4.304.035-4.43.093-.34.433-.7.782-.828.13-.048.973-.056 5.454-.049l5.3.007zm-5.849 1.405c-.628.084-1.209.459-1.584 1.022-.397.598-.446 1.521-.116 2.2.192.396.702.89 1.077 1.045l.184.075v1.22c0 .766.017 1.279.045 1.379.059.213.293.441.513.5.4.108.812-.12.92-.51.024-.087.042-.654.042-1.369v-1.22l.184-.075c.375-.155.885-.649 1.077-1.045.244-.502.287-1.242.102-1.76-.348-.979-1.391-1.603-2.444-1.462m.588 1.525a.75.75 0 0 1 .464.697.69.69 0 0 1-.237.547c-.465.44-1.225.1-1.225-.547 0-.3.189-.591.451-.695a.95.95 0 0 1 .547-.002" fill-rule="evenodd"/></svg>