<svg xmlns="http://www.w3.org/2000/svg" viewBox="0 0 24 24"><path d="M10.617 2.283q-.873.101-1.552.781a2.7 2.7 0 0 0-.692 1.116c-.098.296-.107.385-.124 1.187l-.018.867-1.825.017c-2.023.019-2.076.024-2.61.288A2.8 2.8 0 0 0 2.333 8.32c-.069.244-.073.531-.073 4.68s.004 4.436.073 4.68a2.82 2.82 0 0 0 1.987 1.987c.247.069.632.073 7.68.073 7.07 0 7.432-.003 7.68-.073a2.83 2.83 0 0 0 1.987-1.987c.069-.245.073-.517.073-4.68s-.004-4.435-.073-4.68a2.8 2.8 0 0 0-1.465-1.782c-.532-.263-.586-.268-2.608-.287l-1.825-.017-.018-.867c-.017-.802-.026-.891-.124-1.187a2.7 2.7 0 0 0-.692-1.116c-.472-.471-.961-.709-1.606-.783-.41-.047-2.303-.045-2.712.002m2.911 1.59c.239.118.481.36.599.599.086.174.094.247.105.978l.013.79H9.76v-.735c0-.806.027-.948.236-1.233.065-.087.189-.212.277-.276.309-.228.349-.233 1.767-.224 1.27.008 1.304.01 1.488.101M9.292 7.814c.155.065.375.305.417.457.04.143.04 9.315 0 9.458-.042.152-.262.392-.417.457a.85.85 0 0 1-.584 0c-.155-.065-.375-.305-.417-.457-.04-.143-.04-9.315 0-9.458.041-.147.259-.39.408-.455a.88.88 0 0 1 .593-.002m6 0c.155.065.375.305.417.457.04.143.04 9.315 0 9.458-.042.152-.262.392-.417.457a.85.85 0 0 1-.584 0c-.155-.065-.375-.305-.417-.457-.04-.143-.04-9.315 0-9.458.041-.147.259-.39.408-.455a.88.88 0 0 1 .593-.002" fill-rule="evenodd"/></svg>