<svg xmlns="http://www.w3.org/2000/svg" viewBox="0 0 24 24"><path d="M10.617 2.283q-.873.101-1.552.781a2.7 2.7 0 0 0-.692 1.116c-.098.296-.107.385-.124 1.19l-.018.87H6.626c-.883.001-1.763.019-1.955.041-.645.074-1.134.312-1.606.783a2.74 2.74 0 0 0-.696 1.116l-.109.32v9l.109.32c.151.445.362.783.695 1.116s.671.544 1.116.695l.32.109h15l.32-.109a2.74 2.74 0 0 0 1.116-.695c.333-.333.544-.671.695-1.116l.109-.32v-9l-.109-.32a2.74 2.74 0 0 0-.696-1.116c-.472-.471-.961-.709-1.606-.783-.192-.022-1.072-.04-1.955-.041h-1.605l-.018-.87c-.017-.805-.026-.894-.124-1.19a2.7 2.7 0 0 0-.692-1.116c-.472-.471-.961-.709-1.606-.783-.41-.047-2.303-.045-2.712.002m2.911 1.59c.239.118.481.36.599.599.086.174.094.247.105.978l.013.79H9.76v-.735c0-.806.027-.948.236-1.233.065-.087.189-.212.277-.276.309-.228.349-.233 1.767-.224 1.27.008 1.304.01 1.488.101M8.24 13v5.24H6.502c-1.646 0-1.751-.004-1.955-.081-.258-.096-.542-.362-.674-.63l-.093-.189-.011-4.26c-.009-3.158 0-4.304.035-4.43.093-.34.433-.7.782-.828.123-.045.504-.057 1.904-.059l1.75-.003zm6 0v5.24H9.76V7.76h4.48zm5.288-5.127c.239.118.481.36.599.599l.093.188v8.68l-.093.189c-.132.268-.416.534-.674.63-.204.077-.309.081-1.955.081H15.76V7.758l1.79.011c1.779.011 1.791.012 1.978.104" fill-rule="evenodd"/></svg>