<svg xmlns="http://www.w3.org/2000/svg" viewBox="0 0 24 24"><path d="M8.6 5.96c-1.915.412-3.21.709-3.32.762-.271.13-.534.337-.658.516-.077.11-.208.212-.417.326-.761.412-1.274.94-1.609 1.655-.248.528-.328.905-.328 1.541 0 .472.014.586.108.9.371 1.232 1.293 2.148 2.481 2.461l.336.089.231.322c.45.63.981 1.098 2.056 1.816q2.118 1.414 3.57 1.775c.474.119 1.158.144 1.61.059 1.033-.193 2.312-.801 3.86-1.834 1.078-.72 1.625-1.204 2.056-1.819l.222-.316.341-.09a3.56 3.56 0 0 0 2.152-1.663c.318-.548.496-1.306.45-1.92-.097-1.315-.765-2.336-1.946-2.976-.209-.114-.34-.216-.417-.326-.119-.172-.376-.377-.644-.512-.24-.121-6.447-1.447-6.758-1.443-.146.001-1.433.259-3.376.677m6.667 2.843a.75.75 0 0 1 .464.697.75.75 0 0 1-.464.697c-.076.029-1.135.043-3.267.043s-3.191-.014-3.267-.043a.75.75 0 0 1-.464-.697c0-.3.189-.591.451-.695.143-.057 6.397-.059 6.547-.002M4.333 11.88c.031.165.053.305.048.311a1.2 1.2 0 0 1-.171-.2c-.345-.452-.478-.88-.44-1.423.024-.342.119-.627.318-.955l.132-.219.028 1.093c.016.668.049 1.21.085 1.393m15.692-2.071a2 2 0 0 1-.011 1.831c-.144.272-.442.645-.4.5.079-.274.116-.725.135-1.658l.021-1.058.079.098c.044.053.123.183.176.287m-4.637 1.558a.7.7 0 0 1 .345.64c0 .196-.019.264-.117.402-.064.092-.18.204-.257.249-.137.081-.186.082-3.359.082s-3.222-.001-3.359-.082a1 1 0 0 1-.257-.249c-.286-.406-.054-1.014.431-1.131.069-.017 1.539-.028 3.268-.024l3.143.006z" fill-rule="evenodd"/></svg>