<svg xmlns="http://www.w3.org/2000/svg" viewBox="0 0 24 24"><path d="M8.615 5.958c-3.59.772-3.557.761-3.967 1.257q-.157.191-.502.384c-.745.417-1.219.913-1.55 1.62-.248.528-.328.905-.328 1.541 0 .472.014.586.108.9.371 1.232 1.293 2.148 2.479 2.461l.334.088.216.305c.342.485.904 1.016 1.575 1.488 2.152 1.516 3.767 2.238 5.003 2.238 1.27 0 2.876-.714 5.035-2.238.672-.474 1.24-1.01 1.577-1.488l.216-.305.334-.088a3.54 3.54 0 0 0 2.391-2.196 3.52 3.52 0 0 0-.132-2.706c-.331-.707-.805-1.203-1.55-1.62-.232-.13-.396-.256-.503-.386a1.85 1.85 0 0 0-.865-.572c-.591-.174-6.278-1.361-6.511-1.358-.145.001-1.433.26-3.36.675m6.525 1.484c2.197.469 3.013.659 3.05.707.081.108.07 2.939-.014 3.466-.183 1.147-.74 2.15-1.576 2.834-.538.44-1.786 1.241-2.546 1.632-.864.445-1.521.655-2.054.655-.859 0-2.119-.569-3.82-1.726a15 15 0 0 1-.78-.561c-.84-.688-1.41-1.717-1.581-2.855-.079-.525-.086-3.343-.009-3.445.037-.049.868-.242 3.11-.724 1.683-.361 3.096-.649 3.14-.64s1.43.304 3.08.657M8.7 8.817c-.248.111-.458.425-.458.683s.242.604.491.697c.076.029 1.135.043 3.267.043s3.191-.014 3.267-.043c.249-.093.491-.438.491-.697s-.242-.604-.491-.697c-.076-.029-1.135-.042-3.28-.041-2.564.001-3.19.011-3.287.055M4.33 11.87c.03.16.044.29.031.29-.014 0-.089-.085-.168-.19-.329-.435-.46-.869-.423-1.402.024-.342.119-.627.318-.955l.132-.219.028 1.093c.016.637.05 1.214.082 1.383m15.695-2.061a2 2 0 0 1-.011 1.831c-.114.218-.339.52-.386.52-.007 0 .012-.13.042-.29.033-.175.064-.717.078-1.368l.022-1.078.079.098c.044.053.123.183.176.287M8.805 11.28c-.391.092-.633.519-.524.924.059.218.288.453.5.511.223.062 6.215.062 6.438 0a.84.84 0 0 0 .306-.191.739.739 0 0 0-.348-1.246c-.193-.044-6.183-.043-6.372.002" fill-rule="evenodd"/></svg>