<svg fill="none" xmlns="http://www.w3.org/2000/svg" viewBox="0 0 24 24"><path d="M8.820 2.277 C 8.554 2.342,8.353 2.534,8.282 2.791 C 8.255 2.887,8.240 3.890,8.240 5.589 L 8.240 8.237 5.510 8.249 C 3.020 8.259,2.769 8.266,2.655 8.329 C 2.485 8.422,2.332 8.612,2.282 8.791 C 2.223 9.004,2.225 15.005,2.285 15.219 C 2.341 15.423,2.577 15.659,2.781 15.715 C 2.890 15.746,3.780 15.760,5.590 15.760 L 8.240 15.760 8.240 18.410 C 8.240 20.220,8.254 21.110,8.285 21.219 C 8.341 21.423,8.577 21.659,8.781 21.715 C 9.004 21.777,14.996 21.777,15.219 21.715 C 15.423 21.659,15.659 21.423,15.715 21.219 C 15.746 21.110,15.760 20.220,15.760 18.410 L 15.760 15.760 18.410 15.760 C 20.220 15.760,21.110 15.746,21.219 15.715 C 21.423 15.659,21.659 15.423,21.715 15.219 C 21.775 15.005,21.777 9.004,21.718 8.791 C 21.668 8.612,21.515 8.422,21.345 8.329 C 21.231 8.266,20.980 8.259,18.490 8.249 L 15.760 8.237 15.760 5.589 C 15.760 3.890,15.745 2.887,15.718 2.791 C 15.668 2.612,15.515 2.422,15.345 2.329 C 15.230 2.266,14.963 2.259,12.080 2.254 C 10.353 2.250,8.886 2.260,8.820 2.277 M14.240 6.410 C 14.240 8.220,14.254 9.110,14.285 9.219 C 14.341 9.423,14.577 9.659,14.781 9.715 C 14.890 9.746,15.780 9.760,17.590 9.760 L 20.240 9.760 20.240 11.999 L 20.240 14.237 17.510 14.249 C 15.020 14.259,14.769 14.266,14.655 14.329 C 14.485 14.422,14.332 14.612,14.282 14.791 C 14.255 14.887,14.240 15.891,14.240 17.590 L 14.240 20.240 12.000 20.240 L 9.760 20.240 9.760 17.590 C 9.760 15.891,9.745 14.887,9.718 14.791 C 9.668 14.612,9.515 14.422,9.345 14.329 C 9.231 14.266,8.980 14.259,6.490 14.249 L 3.760 14.237 3.760 11.999 L 3.760 9.760 6.410 9.760 C 8.220 9.760,9.110 9.746,9.219 9.715 C 9.423 9.659,9.659 9.423,9.715 9.219 C 9.746 9.110,9.760 8.220,9.760 6.410 L 9.760 3.760 12.000 3.760 L 14.240 3.760 14.240 6.410 " stroke="none" fill-rule="evenodd" fill="currentColor"/></svg>