<svg fill="none" xmlns="http://www.w3.org/2000/svg" viewBox="0 0 24 24"><path d="M8.820 2.277 C 8.554 2.342,8.353 2.534,8.282 2.791 C 8.255 2.887,8.240 3.890,8.240 5.589 L 8.240 8.237 5.510 8.249 C 3.020 8.259,2.769 8.266,2.655 8.329 C 2.485 8.422,2.332 8.612,2.282 8.791 C 2.223 9.004,2.225 15.005,2.285 15.219 C 2.341 15.423,2.577 15.659,2.781 15.715 C 2.890 15.746,3.780 15.760,5.590 15.760 L 8.240 15.760 8.240 18.410 C 8.240 20.220,8.254 21.110,8.285 21.219 C 8.341 21.423,8.577 21.659,8.781 21.715 C 9.004 21.777,14.996 21.777,15.219 21.715 C 15.423 21.659,15.659 21.423,15.715 21.219 C 15.746 21.110,15.760 20.220,15.760 18.410 L 15.760 15.760 18.410 15.760 C 20.220 15.760,21.110 15.746,21.219 15.715 C 21.423 15.659,21.659 15.423,21.715 15.219 C 21.775 15.005,21.777 9.004,21.718 8.791 C 21.668 8.612,21.515 8.422,21.345 8.329 C 21.231 8.266,20.980 8.259,18.490 8.249 L 15.760 8.237 15.760 5.589 C 15.760 3.890,15.745 2.887,15.718 2.791 C 15.668 2.612,15.515 2.422,15.345 2.329 C 15.230 2.266,14.963 2.259,12.080 2.254 C 10.353 2.250,8.886 2.260,8.820 2.277 " stroke="none" fill-rule="evenodd"/></svg>