<svg xmlns="http://www.w3.org/2000/svg" viewBox="0 0 24 24"><path d="M8.82 2.277a.73.73 0 0 0-.538.514c-.027.096-.042 1.099-.042 2.798v2.648l-2.73.012c-2.49.01-2.741.017-2.855.08a.83.83 0 0 0-.373.462c-.059.213-.057 6.214.003 6.428.056.204.292.44.496.496.109.031.999.045 2.809.045h2.65v2.65c0 1.81.014 2.7.045 2.809.056.204.292.44.496.496.223.062 6.215.062 6.438 0a.82.82 0 0 0 .496-.496c.031-.109.045-.999.045-2.809v-2.65h2.65c1.81 0 2.7-.014 2.809-.045a.82.82 0 0 0 .496-.496c.06-.214.062-6.215.003-6.428a.83.83 0 0 0-.373-.462c-.114-.063-.365-.07-2.855-.08l-2.73-.012V5.589c0-1.699-.015-2.702-.042-2.798a.83.83 0 0 0-.373-.462c-.115-.063-.382-.07-3.265-.075-1.727-.004-3.194.006-3.26.023"/></svg>