<svg xmlns="http://www.w3.org/2000/svg" viewBox="0 0 24 24"><path d="M6.617 3.283q-.873.101-1.552.781a2.74 2.74 0 0 0-.696 1.116l-.109.32v13l.109.32c.151.445.362.783.695 1.116s.671.544 1.116.695l.32.109h11l.32-.109a2.74 2.74 0 0 0 1.116-.695c.333-.333.544-.671.695-1.116l.109-.32v-13l-.109-.32a2.74 2.74 0 0 0-.696-1.116c-.472-.471-.961-.709-1.606-.783-.424-.049-10.294-.046-10.712.002m10.911 1.59c.239.118.481.36.599.599l.093.188v12.68l-.093.189c-.132.268-.416.534-.674.63-.213.08-.3.081-5.453.081s-5.24-.001-5.453-.081c-.258-.096-.542-.362-.674-.63l-.093-.189-.011-6.26c-.009-4.677 0-6.303.035-6.43.093-.34.433-.7.782-.828.13-.048.973-.056 5.454-.049l5.3.007zM7.7 6.817c-.248.111-.458.425-.458.683s.242.604.491.697c.077.03 1.429.043 4.267.043s4.19-.013 4.267-.043c.249-.093.491-.438.491-.697s-.242-.604-.491-.697c-.077-.03-1.429-.043-4.28-.041-3.401.001-4.189.011-4.287.055m0 3c-.248.111-.458.425-.458.683s.242.604.491.697c.077.03 1.429.043 4.267.043s4.19-.013 4.267-.043c.249-.093.491-.438.491-.697s-.242-.604-.491-.697c-.077-.03-1.429-.043-4.28-.041-3.401.001-4.189.011-4.287.055m0 3c-.248.111-.458.425-.458.683s.242.604.491.697c.077.03 1.429.043 4.267.043s4.19-.013 4.267-.043c.249-.093.491-.438.491-.697s-.242-.604-.491-.697c-.077-.03-1.429-.043-4.28-.041-3.401.001-4.189.011-4.287.055m0 3c-.248.111-.458.425-.458.683s.242.604.491.697c.077.03 1.429.043 4.267.043s4.19-.013 4.267-.043c.249-.093.491-.438.491-.697s-.242-.604-.491-.697c-.077-.03-1.429-.043-4.28-.041-3.401.001-4.189.011-4.287.055" fill-rule="evenodd"/></svg>