<svg xmlns="http://www.w3.org/2000/svg" viewBox="0 0 24 24"><path d="M6.656 3.281a2.75 2.75 0 0 0-2.112 1.496c-.307.627-.284.043-.284 7.223 0 6.082.004 6.434.073 6.68a2.82 2.82 0 0 0 1.987 1.987c.245.069.564.073 5.68.073 5.132 0 5.434-.004 5.68-.073a2.83 2.83 0 0 0 1.987-1.987c.069-.247.073-.579.073-6.68s-.004-6.433-.073-6.68a2.8 2.8 0 0 0-1.465-1.782c-.593-.293-.189-.274-6.042-.282-2.893-.004-5.37.008-5.504.025m9.611 3.522a.75.75 0 0 1 .464.697.75.75 0 0 1-.464.697c-.077.03-1.429.043-4.267.043s-4.19-.013-4.267-.043a.75.75 0 0 1-.464-.697c0-.3.189-.591.451-.695.143-.057 8.397-.059 8.547-.002m0 3a.75.75 0 0 1 .464.697.75.75 0 0 1-.464.697c-.077.03-1.429.043-4.267.043s-4.19-.013-4.267-.043a.75.75 0 0 1-.464-.697c0-.3.189-.591.451-.695.143-.057 8.397-.059 8.547-.002m0 3a.75.75 0 0 1 .464.697.75.75 0 0 1-.464.697c-.077.03-1.429.043-4.267.043s-4.19-.013-4.267-.043a.75.75 0 0 1-.464-.697c0-.3.189-.591.451-.695.143-.057 8.397-.059 8.547-.002m0 3a.75.75 0 0 1 .464.697.75.75 0 0 1-.464.697c-.077.03-1.429.043-4.267.043s-4.19-.013-4.267-.043a.75.75 0 0 1-.464-.697c0-.3.189-.591.451-.695.143-.057 8.397-.059 8.547-.002"/></svg>