<svg xmlns="http://www.w3.org/2000/svg" viewBox="0 0 24 24"><path d="M6.617 3.283q-.873.101-1.552.781a2.74 2.74 0 0 0-.696 1.116l-.109.32v13l.109.32c.151.445.362.783.695 1.116s.671.544 1.116.695l.32.109h11l.32-.109a2.74 2.74 0 0 0 1.116-.695c.333-.333.544-.671.695-1.116l.109-.32v-13l-.109-.32a2.74 2.74 0 0 0-.696-1.116c-.472-.471-.961-.709-1.606-.783-.424-.049-10.294-.046-10.712.002m10.903 1.59c.24.125.487.37.604.6l.096.187v12.68l-.099.195c-.13.253-.467.559-.707.641-.169.057-.72.064-5.414.064s-5.245-.007-5.414-.064c-.24-.082-.577-.388-.707-.641l-.099-.195V5.66l.093-.18c.165-.316.476-.589.773-.674.084-.025 2.084-.037 5.414-.033l5.28.007zM7.647 6.846q-.387.191-.387.654c0 .204.019.274.111.406.06.088.18.199.265.247l.155.087h8.418l.155-.087a1 1 0 0 0 .265-.247c.092-.132.111-.202.111-.406 0-.206-.019-.274-.114-.412a.9.9 0 0 0-.283-.247c-.166-.08-.226-.081-4.346-.081H7.82zm0 3q-.387.191-.387.654c0 .204.019.274.111.406.06.088.18.199.265.247l.155.087h8.418l.155-.087a1 1 0 0 0 .265-.247c.092-.132.111-.202.111-.406 0-.206-.019-.274-.114-.412a.9.9 0 0 0-.283-.247c-.166-.08-.226-.081-4.346-.081H7.82zm0 3q-.387.191-.387.654c0 .204.019.274.111.406.06.088.18.199.265.247l.155.087h8.418l.155-.087a1 1 0 0 0 .265-.247c.092-.132.111-.202.111-.406 0-.206-.019-.274-.114-.412a.9.9 0 0 0-.283-.247c-.166-.08-.226-.081-4.346-.081H7.82zm0 3q-.387.191-.387.654c0 .204.019.274.111.406.06.088.18.199.265.247l.155.087h8.418l.155-.087a1 1 0 0 0 .265-.247c.092-.132.111-.202.111-.406 0-.206-.019-.274-.114-.412a.9.9 0 0 0-.283-.247c-.166-.08-.226-.081-4.346-.081H7.82z" fill-rule="evenodd"/></svg>