<svg xmlns="http://www.w3.org/2000/svg" viewBox="0 0 24 24"><path d="M8.56 4.182c-1.46.23-2.802 1.092-3.582 2.298a5.28 5.28 0 0 0-.011 5.75c.09.137.174.25.188.25.034 0 7.325-7.293 7.325-7.326 0-.039-.458-.322-.798-.493-.906-.456-2.105-.64-3.122-.479M9.89 9.89c-2.008 2.008-3.65 3.662-3.65 3.675 0 .084.841.546 1.32.726.611.23.963.287 1.78.288.605.001.825-.014 1.08-.074.176-.041.368-.083.428-.094.094-.017.494.294 3.16 2.452a360 360 0 0 0 3.212 2.585c.245.172.543.22.838.135.22-.065.28-.112.81-.633.647-.638.745-.79.749-1.169a.77.77 0 0 0-.097-.431c-.055-.103-1.232-1.585-2.615-3.292-2.375-2.933-2.513-3.112-2.49-3.231a9 9 0 0 1 .087-.387c.101-.42.122-1.43.039-1.924a5.8 5.8 0 0 0-.413-1.364c-.124-.274-.517-.912-.562-.912-.014 0-1.669 1.643-3.676 3.65m4.41 3.4c.144.074.945.887 1.024 1.038.089.174.099.46.022.644-.08.192-.318.383-.517.414l-.169.027-.174-.027c-.154-.025-.229-.082-.632-.475-.563-.55-.627-.648-.627-.951 0-.467.372-.794.833-.732a1 1 0 0 1 .24.062"/></svg>