<svg xmlns="http://www.w3.org/2000/svg" viewBox="0 0 24 24"><path d="M8.58 4.182a5.23 5.23 0 0 0-4.45 5.376 5.16 5.16 0 0 0 1.267 3.236c.722.838 1.642 1.393 2.803 1.689.272.069.489.09 1.08.102l.74.016 3.273 2.649a392 392 0 0 0 3.479 2.8c.536.389 1.313.421 1.907.078.235-.135 1.314-1.214 1.449-1.449.18-.311.245-.609.221-1.017-.022-.382-.087-.577-.298-.885a336 336 0 0 0-2.781-3.46l-2.669-3.297-.016-.74c-.012-.591-.033-.808-.102-1.08-.332-1.303-.949-2.246-1.976-3.024a5.26 5.26 0 0 0-3.927-.994m1.456 1.502c.142.022.367.078.5.123.266.09.864.386.864.428 0 .014-1.161 1.186-2.581 2.605-2.1 2.099-2.589 2.569-2.623 2.52-.112-.159-.397-.808-.456-1.038a4.4 4.4 0 0 1-.095-.61c-.092-1.159.282-2.201 1.074-2.993.87-.871 2.042-1.236 3.317-1.035m2.675 2.013c.267.534.377 1.009.378 1.643.002.59-.058.929-.248 1.406a3.77 3.77 0 0 1-2.245 2.156c-1.002.341-1.972.273-2.946-.208-.16-.079-.303-.162-.316-.184-.028-.046 5.107-5.196 5.163-5.178.021.007.117.171.214.365m3.825 7.101c1.32 1.632 2.344 2.932 2.344 2.977 0 .047-.205.285-.51.594-.425.43-.527.514-.61.502-.059-.009-1.317-1.001-3.05-2.405a299 299 0 0 1-2.95-2.405c0-.008.113-.083.25-.166a5.5 5.5 0 0 0 1.888-1.889c.147-.245.155-.251.224-.18a430 430 0 0 1 2.414 2.972m-2.771-1.559c-.393.095-.633.52-.524.926.038.143.136.265.53.664.493.499.616.579.889.579a.744.744 0 0 0 .747-.748c0-.273-.053-.359-.519-.831-.257-.262-.513-.499-.568-.528a.95.95 0 0 0-.555-.062" fill-rule="evenodd"/></svg>