<svg xmlns="http://www.w3.org/2000/svg" viewBox="0 0 24 24"><path d="M7.805 2.28a.76.76 0 0 0-.544.596c-.081.476.303.883.833.884h.153L8.23 4.97c-.015 1.145-.022 1.231-.119 1.592-.134.5-.309.861-.732 1.51-.443.68-.667 1.121-.837 1.648-.294.908-.282.705-.282 4.96 0 3.546.005 3.842.072 4.129a3.77 3.77 0 0 0 2.859 2.859c.281.065.537.072 2.809.072s2.528-.007 2.809-.072a3.77 3.77 0 0 0 2.859-2.859c.067-.287.072-.583.072-4.129 0-4.255.012-4.052-.282-4.96-.17-.527-.394-.968-.837-1.648-.423-.649-.598-1.01-.732-1.51-.097-.361-.104-.447-.119-1.592l-.017-1.21h.153c.254-.001.464-.08.619-.236a.739.739 0 0 0-.348-1.246c-.193-.044-8.182-.043-8.372.002m6.446 2.71c.016 1.043.032 1.286.101 1.601.189.857.443 1.437 1.01 2.309.2.308.427.694.505.858.203.426.334.976.362 1.518l.023.456-.116-.03c-.289-.073-.594-.101-1.076-.101-1.02.001-1.902.19-3.432.734-1.71.609-2.929.741-3.732.406l-.144-.06.018-.931c.016-.834.028-.969.12-1.312.133-.502.307-.858.748-1.538.568-.873.822-1.455 1.009-2.309.069-.313.085-.564.102-1.601l.02-1.23h4.463z" fill-rule="evenodd"/></svg>