<svg xmlns="http://www.w3.org/2000/svg" viewBox="0 0 24 24"><path d="M5.656 3.282a2.74 2.74 0 0 0-2.112 1.495c-.304.622-.28.087-.294 6.583-.013 6.292-.019 6.11.195 6.653a2.87 2.87 0 0 0 1.605 1.568l.19.07.001.484c.001.386.016.518.075.645.286.619 1.082.619 1.368 0 .058-.124.074-.257.075-.59l.001-.43h10.48l.001.43c.001.333.017.466.075.59.286.619 1.082.619 1.368 0 .059-.128.074-.259.075-.645l.001-.485.235-.088c.655-.245 1.278-.856 1.546-1.517.229-.564.222-.344.209-6.685-.011-5.477-.016-5.834-.084-6.06-.24-.796-.749-1.408-1.464-1.762-.598-.295-.071-.274-7.042-.282-3.443-.004-6.37.008-6.504.026m1.749 5.099c.08.051.188.162.24.246l.095.153v5.453l-.121.172c-.166.236-.346.334-.619.334s-.453-.098-.619-.334l-.121-.172V8.78l.093-.149c.233-.375.691-.484 1.052-.25"/></svg>