<svg xmlns="http://www.w3.org/2000/svg" viewBox="0 0 24 24"><path d="M7.656 3.281a2.75 2.75 0 0 0-2.112 1.496c-.307.627-.284.043-.284 7.223 0 6.082.004 6.434.073 6.68a2.82 2.82 0 0 0 1.987 1.987c.244.069.531.073 4.68.073 4.163 0 4.435-.004 4.68-.073a2.83 2.83 0 0 0 1.987-1.987c.069-.247.073-.579.073-6.68s-.004-6.433-.073-6.68a2.8 2.8 0 0 0-1.465-1.782c-.585-.289-.306-.273-5.042-.282-2.343-.004-4.37.007-4.504.025m7.611 3.522a.9.9 0 0 1 .402.376c.083.159.079.489-.008.662-.076.151-4.988 5.097-5.228 5.264a.757.757 0 0 1-1.101-.28c-.084-.163-.081-.492.006-.666.101-.2 5.167-5.26 5.342-5.336a.9.9 0 0 1 .587-.02m-.477 4.019a.61.61 0 0 1 .375.358.76.76 0 0 1-.002.64c-.106.226-5.166 5.274-5.372 5.359a.8.8 0 0 1-.805-.131c-.203-.179-.278-.564-.165-.839.085-.206 5.133-5.266 5.359-5.372a.75.75 0 0 1 .61-.015"/></svg>