<svg xmlns="http://www.w3.org/2000/svg" viewBox="0 0 24 24"><path d="M7.617 3.283q-.873.101-1.552.781a2.74 2.74 0 0 0-.696 1.116l-.109.32v13l.109.32c.151.445.362.783.695 1.116s.671.544 1.116.695l.32.109h9l.32-.109a2.74 2.74 0 0 0 1.116-.695c.333-.333.544-.671.695-1.116l.109-.32v-13l-.109-.32a2.74 2.74 0 0 0-.696-1.116c-.472-.471-.961-.709-1.606-.783-.422-.049-8.296-.046-8.712.002m8.911 1.59c.239.118.481.36.599.599l.093.188v12.68l-.093.189c-.132.268-.416.534-.674.63-.212.079-.302.081-4.453.081s-4.241-.002-4.453-.081c-.258-.096-.542-.362-.674-.63l-.093-.189-.011-6.26c-.009-4.677 0-6.303.035-6.43.093-.34.433-.699.782-.828.13-.048.833-.056 4.454-.049l4.3.007zm-1.848 1.95c-.089.039-1.068.988-2.691 2.609-2.64 2.637-2.75 2.76-2.748 3.066.002.263.243.605.492.699.16.061.405.053.578-.019.172-.071 5.094-4.96 5.29-5.254q.321-.483-.052-.911a.75.75 0 0 0-.869-.19m-.52 4.016c-.077.041-1.313 1.251-2.747 2.688-2.847 2.853-2.691 2.67-2.643 3.095.052.46.622.763 1.042.554.177-.088 5.255-5.16 5.351-5.344.14-.27.07-.685-.149-.877-.231-.203-.6-.253-.854-.116" fill-rule="evenodd"/></svg>