<svg xmlns="http://www.w3.org/2000/svg" viewBox="0 0 24 24"><path d="M14.617 3.283c-.585.069-1.098.328-1.552.781a2.7 2.7 0 0 0-.693 1.116c-.091.277-.105.387-.105.82s.014.543.105.82c.146.44.357.781.692 1.116s.676.546 1.116.692c.277.091.387.105.82.105s.543-.014.82-.105c.44-.146.781-.357 1.116-.692s.546-.676.692-1.116c.091-.277.105-.387.105-.82s-.014-.543-.105-.82c-.425-1.294-1.642-2.06-3.011-1.897m.911 1.59c.239.117.481.359.599.599.133.27.133.787 0 1.057-.464.943-1.795.943-2.252 0a1.43 1.43 0 0 1-.074-.871c.097-.348.43-.703.785-.838.232-.088.708-.061.942.053M9.263 8.299a.9.9 0 0 0-.286.189c-.317.325-2.749 4.338-4.719 7.789-1.981 3.468-1.997 3.498-1.997 3.72 0 .276.097.455.334.622l.172.121 9.141.01c6.27.007 9.19-.002 9.296-.031.356-.096.608-.508.528-.86-.051-.221-5.525-9.188-5.73-9.386a.72.72 0 0 0-1.044.017c-.046.05-.437.585-.868 1.19-.432.605-.855 1.196-.942 1.314l-.157.214-.208-.354c-.449-.764-2.638-4.241-2.738-4.348a.73.73 0 0 0-.782-.207m.821 3.053.544.868-.551.011c-.304.006-.812.006-1.129 0l-.576-.011.558-.892c.307-.491.57-.882.584-.868s.271.415.57.892m7.498 4.495 2.061 3.373-1.589.01c-1.24.009-1.6 0-1.636-.04-.026-.027-.622-1.06-1.326-2.294l-1.28-2.244.821-1.15c.616-.863.828-1.134.854-1.088.019.033.961 1.578 2.095 3.433m-4.453.648a318 318 0 0 1 1.551 2.73c0 .008-2.331.015-5.18.015s-5.18-.007-5.18-.015c0-.017 2.97-5.225 3.065-5.375l.057-.091 2.068.011 2.067.01z" fill-rule="evenodd"/></svg>