<svg xmlns="http://www.w3.org/2000/svg" viewBox="0 0 24 24"><path d="M14.617 3.283c-.585.069-1.098.328-1.552.781a2.7 2.7 0 0 0-.693 1.116c-.091.277-.105.387-.105.82s.014.543.105.82c.146.44.357.781.692 1.116s.676.546 1.116.692c.277.091.387.105.82.105s.543-.014.82-.105c.44-.146.781-.357 1.116-.692s.546-.676.692-1.116c.091-.277.105-.387.105-.82s-.014-.543-.105-.82c-.425-1.294-1.642-2.06-3.011-1.897M9.263 8.299a.9.9 0 0 0-.286.189c-.317.325-2.749 4.338-4.719 7.789-1.981 3.468-1.997 3.498-1.997 3.72 0 .276.097.455.334.622l.172.121 9.141.01c6.27.007 9.19-.002 9.296-.031.356-.096.608-.508.528-.86-.039-.173-5.497-9.149-5.686-9.353a.7.7 0 0 0-.545-.24c-.373-.005-.462.078-1.093 1.029-.309.465-.581.884-.605.932-.107.216-.011.648.183.818a.77.77 0 0 0 .874.103q.16-.088.386-.421l.226-.331.46.752 2.086 3.412 1.625 2.66-1.589.01c-1.24.009-1.6 0-1.636-.04-.026-.027-.862-1.481-1.86-3.23-1.272-2.231-2.2-3.801-3.11-5.26-.713-1.144-1.345-2.131-1.403-2.194a.73.73 0 0 0-.782-.207m.821 3.053.544.868-.551.011c-.304.006-.812.006-1.129 0l-.576-.011.558-.892c.307-.491.57-.882.584-.868s.271.415.57.892"/></svg>