<svg xmlns="http://www.w3.org/2000/svg" viewBox="0 0 24 24"><path d="M10.701 3.285q-.496.071-.925.495c-.479.473-.535.703-.535 2.22 0 1.177.034 1.476.202 1.805.113.223.529.639.752.752.2.103.628.201.875.202l.17.001v2.48l-4.13.001c-2.335 0-4.198.017-4.287.037a.739.739 0 0 0-.348 1.246.84.84 0 0 0 .306.191c.104.029.729.045 1.809.045h1.65v2.465l-.385.045c-.483.057-.746.181-1.079.51-.479.473-.535.703-.535 2.22s.055 1.743.535 2.224c.481.48.707.535 2.224.535s1.743-.055 2.224-.535c.48-.481.535-.707.535-2.224s-.056-1.747-.535-2.22c-.333-.329-.596-.453-1.079-.51l-.385-.045V12.76h8.48v2.465l-.385.045c-.483.057-.746.181-1.079.51-.479.473-.535.703-.535 2.22s.055 1.743.535 2.224c.481.48.707.535 2.224.535s1.743-.055 2.224-.535c.48-.481.535-.707.535-2.224s-.056-1.747-.535-2.22c-.333-.329-.596-.453-1.079-.51l-.385-.045V12.76h1.65c1.08 0 1.705-.016 1.809-.045a.84.84 0 0 0 .306-.191.739.739 0 0 0-.348-1.246c-.089-.02-1.952-.037-4.287-.037l-4.13-.001V8.76l.17-.001c.247-.001.675-.099.875-.202.223-.113.639-.529.752-.752.168-.329.202-.628.202-1.805 0-1.517-.056-1.747-.535-2.22-.296-.292-.592-.445-.964-.498-.337-.049-2.223-.046-2.559.003m2.466 1.541c.067.061.073.152.073 1.167 0 .968-.008 1.11-.066 1.174-.061.067-.152.073-1.167.073-.968 0-1.11-.008-1.174-.066-.067-.061-.073-.152-.073-1.167 0-.968.008-1.11.066-1.174.061-.067.152-.073 1.167-.073.968 0 1.11.008 1.174.066m-5 12c.067.061.073.152.073 1.167 0 .968-.008 1.11-.066 1.174-.061.067-.152.073-1.167.073-.968 0-1.11-.008-1.174-.066-.067-.061-.073-.152-.073-1.167 0-.968.008-1.11.066-1.174.061-.067.152-.073 1.167-.073.968 0 1.11.008 1.174.066m10 0c.067.061.073.152.073 1.167 0 .968-.008 1.11-.066 1.174-.061.067-.152.073-1.167.073-.968 0-1.11-.008-1.174-.066-.067-.061-.073-.152-.073-1.167 0-.968.008-1.11.066-1.174.061-.067.152-.073 1.167-.073.968 0 1.11.008 1.174.066" fill-rule="evenodd"/></svg>