<svg xmlns="http://www.w3.org/2000/svg" viewBox="0 0 24 24"><path d="M8.617 2.283q-.873.101-1.552.781a2.7 2.7 0 0 0-.696 1.116l-.109.32-.012 3.014c-.011 2.823-.016 3.012-.08 2.986-.888-.361-1.837-.308-2.593.145-.304.182-.761.645-.946.959-.083.141-.2.4-.26.576l-.109.32v7l.109.32c.151.445.362.783.695 1.116s.671.544 1.116.695l.32.109h14l.32-.109a2.74 2.74 0 0 0 1.116-.695c.333-.333.544-.671.695-1.116l.109-.32v-15l-.109-.32a2.74 2.74 0 0 0-.696-1.116c-.472-.471-.961-.709-1.606-.783-.423-.049-9.295-.046-9.712.002m9.903 1.59c.24.125.487.37.604.6l.096.187v14.68l-.099.195c-.13.253-.467.559-.707.641-.169.057-.732.064-5.556.064H7.49l.125-.35.125-.35.02-7.44.02-7.44.093-.18c.165-.316.476-.588.773-.674.084-.025 1.906-.037 4.914-.033l4.78.007zm-8.331 1.409c-.624.104-1.182.606-1.372 1.233-.081.267-.081 2.703 0 2.97.129.426.445.823.834 1.049.381.221.449.225 3.849.225s3.468-.004 3.849-.225c.389-.226.705-.623.834-1.049.081-.267.081-2.703 0-2.97a1.78 1.78 0 0 0-1.408-1.236c-.284-.047-6.308-.044-6.586.003m6.435 1.509c.12.08.136.222.136 1.209s-.016 1.129-.136 1.209c-.024.017-1.43.03-3.124.03s-3.1-.013-3.124-.03c-.12-.08-.136-.222-.136-1.209s.016-1.129.136-1.209c.024-.017 1.43-.03 3.124-.03s3.1.013 3.124.03M5.528 11.873c.239.117.481.359.599.599l.093.188.011 3.267c.01 3.26.01 3.267-.076 3.5a1.29 1.29 0 0 1-1.175.813c-.453 0-.897-.286-1.107-.711l-.093-.189-.012-3.26c-.008-2.399.001-3.305.036-3.43.093-.339.43-.696.782-.83.232-.088.708-.061.942.053m3.772.401c-.339.111-.54.38-.54.724 0 .263.114.479.334.631l.159.111 3.904.012c2.703.008 3.949-.001 4.051-.031.421-.122.655-.596.49-.992a.73.73 0 0 0-.398-.413c-.152-.071-.349-.074-4.04-.071-2.134.002-3.916.015-3.96.029m-.12 3.549c-.284.147-.42.366-.42.673 0 .224.055.372.193.519.215.23.153.225 2.81.225 2.438 0 2.447 0 2.601-.087a1 1 0 0 0 .265-.247c.092-.132.111-.202.111-.406 0-.206-.019-.274-.114-.412a.9.9 0 0 0-.283-.247c-.164-.079-.236-.081-2.606-.081-2.13 0-2.452.008-2.557.063"/></svg>