<svg xmlns="http://www.w3.org/2000/svg" viewBox="0 0 24 24"><path d="M8.617 2.283q-.873.101-1.552.781a2.7 2.7 0 0 0-.696 1.116l-.109.32-.012 3.014c-.011 2.823-.016 3.012-.08 2.986-.888-.361-1.837-.308-2.593.145-.304.182-.761.645-.946.959-.083.141-.2.4-.26.576l-.109.32v7l.109.32c.151.445.362.783.695 1.116s.671.544 1.116.695l.32.109h14l.32-.109a2.74 2.74 0 0 0 1.116-.695c.333-.333.544-.671.695-1.116l.109-.32v-15l-.109-.32a2.74 2.74 0 0 0-.696-1.116c-.472-.471-.961-.709-1.606-.783-.423-.049-9.295-.046-9.712.002m9.911 1.59c.239.118.481.36.599.599l.093.188v14.68l-.093.189c-.132.268-.416.534-.674.63-.213.08-.299.081-5.599.081-5.111 0-5.381-.004-5.352-.07.017-.039.078-.196.135-.35l.103-.28.02-7.44c.018-6.793.026-7.452.086-7.58a1.4 1.4 0 0 1 .74-.698c.13-.048.903-.056 4.954-.049l4.8.007zm-8.291 1.406c-.608.079-1.162.537-1.383 1.144-.092.254-.094.294-.094 1.577s.002 1.323.094 1.577c.22.605.744 1.041 1.373 1.144.307.051 6.239.051 6.546 0a1.77 1.77 0 0 0 1.373-1.144c.092-.254.094-.294.094-1.577s-.002-1.323-.094-1.577a1.75 1.75 0 0 0-1.419-1.146c-.319-.041-6.169-.039-6.49.002m6.425 1.538c.073.053.079.121.09 1.089.007.568.002 1.072-.01 1.121-.057.225.12.213-3.237.213-2.605 0-3.102-.009-3.167-.057-.074-.054-.078-.114-.078-1.183s.004-1.129.078-1.183c.116-.085 6.208-.085 6.324 0M5.528 11.873c.239.117.481.359.599.599l.093.188.011 3.267c.01 3.26.01 3.267-.076 3.5a1.29 1.29 0 0 1-1.175.813c-.453 0-.897-.286-1.107-.711l-.093-.189-.012-3.26c-.008-2.399.001-3.305.036-3.43.093-.339.43-.696.782-.83.232-.088.708-.061.942.053m3.892.387a2 2 0 0 1-.149.037.8.8 0 0 0-.256.153c-.42.368-.316.993.205 1.234.152.071.347.074 4 .075 2.681 0 3.888-.013 3.999-.044a.84.84 0 0 0 .306-.191.739.739 0 0 0-.348-1.246c-.142-.033-7.66-.051-7.757-.018m-.268 3.582a1 1 0 0 0-.26.225c-.099.13-.112.181-.112.436 0 .263.011.303.121.439.254.314.101.298 2.826.298q2.427 0 2.54-.043c.249-.093.491-.438.491-.697s-.242-.604-.491-.697c-.075-.029-.918-.042-2.54-.041-2.328.001-2.433.005-2.575.08" fill-rule="evenodd"/></svg>