<svg xmlns="http://www.w3.org/2000/svg" viewBox="0 0 24 24"><path d="M8.656 2.281a2.75 2.75 0 0 0-2.112 1.496c-.292.597-.279.429-.294 3.757-.012 2.808-.017 2.992-.081 2.966-.889-.361-1.837-.308-2.594.145-.304.182-.761.645-.946.959-.083.141-.2.4-.26.576l-.109.32v7l.109.32c.151.445.362.783.695 1.116s.671.544 1.116.695l.32.109h6.96c6.625 0 6.973-.004 7.22-.073a2.83 2.83 0 0 0 1.987-1.987c.07-.248.073-.61.073-7.68s-.003-7.432-.073-7.68a2.8 2.8 0 0 0-1.465-1.782c-.589-.291-.247-.274-5.542-.282-2.618-.004-4.87.007-5.004.025m8.428 3.07c.492.199.862.556 1.046 1.009.087.214.09.262.09 1.64s-.003 1.426-.09 1.64c-.184.453-.554.81-1.046 1.009l-.224.091h-6.72l-.23-.093c-.522-.211-.917-.622-1.068-1.112-.075-.241-.082-.369-.082-1.511 0-1.358.023-1.552.229-1.903.248-.423.753-.771 1.223-.841.114-.018 1.657-.029 3.428-.026l3.22.006zM10.32 6.84c-.076.076-.08.133-.08 1.151 0 .905.01 1.085.062 1.16l.063.089h6.27l.063-.089c.052-.075.062-.255.062-1.16 0-1.018-.004-1.075-.08-1.151-.079-.079-.133-.08-3.18-.08s-3.101.001-3.18.08m-4.792 5.033c.239.117.481.359.599.599l.093.188v6.68l-.107.2c-.307.577-.974.844-1.557.623a1.38 1.38 0 0 1-.683-.634l-.093-.189-.012-3.26c-.008-2.399.001-3.305.036-3.43.093-.339.43-.696.782-.83.232-.088.708-.061.942.053m11.845.482c.242.151.36.363.36.648 0 .2-.019.267-.117.406-.064.092-.18.204-.257.249-.137.081-.192.082-4.019.094-2.726.008-3.925-.001-4.031-.032a1 1 0 0 1-.296-.171.714.714 0 0 1 .002-1.099.8.8 0 0 1 .256-.153c.06-.013.127-.03.149-.038.022-.007 1.786-.01 3.92-.006l3.88.007zm-3.106 3.448a.75.75 0 0 1 .464.697.75.75 0 0 1-.464.697q-.113.043-2.511.043c-2.551 0-2.555 0-2.77-.192-.203-.179-.278-.565-.164-.838a.61.61 0 0 1 .358-.375c.15-.068.317-.073 2.567-.074q2.408-.002 2.52.042" fill-rule="evenodd"/></svg>