<svg xmlns="http://www.w3.org/2000/svg" viewBox="0 0 24 24"><path d="M11.36 3.281a8.4 8.4 0 0 0-3.22.879c-2.805 1.379-4.618 4.072-4.867 7.23-.138 1.749.34 3.688 1.28 5.203a9.1 9.1 0 0 0 2.854 2.854c1.515.94 3.454 1.418 5.203 1.28 2.157-.17 4.066-1.043 5.57-2.547s2.377-3.413 2.547-5.57c.214-2.713-.977-5.533-3.073-7.281-1.792-1.493-3.976-2.204-6.294-2.048m1.588 1.54a7.24 7.24 0 0 1 6.05 5.308 7.32 7.32 0 0 1-.522 5.121 9 9 0 0 1-.727 1.164l-.121.153-1.994-1.993a144 144 0 0 1-1.994-2.014c0-.011.082-.054.183-.095.501-.206 1.161-.787 1.451-1.276.387-.654.55-1.417.448-2.11-.194-1.327-1.115-2.363-2.422-2.726-.305-.085-.393-.089-1.926-.091L9.767 6.26l-.172.121c-.303.213-.332.302-.355 1.09l-.02.69-.894-.894-.893-.895.153-.121a9 9 0 0 1 1.164-.727 7.3 7.3 0 0 1 4.198-.703m3.484 12.911c-.47.398-1.486.936-2.201 1.163-.862.274-1.181.321-2.211.323-.817.002-.971-.009-1.38-.093-1.975-.408-3.612-1.505-4.691-3.145a7.26 7.26 0 0 1-.425-7.23 9 9 0 0 1 .727-1.164l.122-.153 5.095 5.093 5.095 5.094zM13.21 7.908c.376.178.677.474.861.847.145.292.149.313.149.743 0 .414-.008.459-.128.712a1.8 1.8 0 0 1-1.432 1.029l-.32.036-.79-.787-.79-.787V7.754l1.09.013 1.09.013zm-3.399 4.37a.88.88 0 0 0-.481.374c-.064.117-.071.318-.081 2.259-.008 1.491.002 2.181.034 2.298a.8.8 0 0 0 .192.316.742.742 0 0 0 1.245-.326c.028-.104.039-.878.031-2.288-.011-2.065-.014-2.135-.093-2.27a.81.81 0 0 0-.847-.363"/></svg>