<svg xmlns="http://www.w3.org/2000/svg" viewBox="0 0 24 24"><path d="M4.9 4.259a1 1 0 0 1-.147.037c-.236.052-.51.407-.512.664-.002.342-.104.231 3.512 3.85l3.426 3.43H7.56c-2.133 0-3.717.016-3.855.039a2.2 2.2 0 0 0-.48.154c-.48.226-.858.735-.946 1.272-.051.313-.05 2.346.002 2.619a1.76 1.76 0 0 0 1.424 1.397c.144.024 2.711.039 6.614.039h6.38l1.46 1.457c1.295 1.291 1.481 1.462 1.636 1.503a.75.75 0 0 0 .925-.925c-.042-.16-.705-.835-7.653-7.788C8.883 7.82 5.415 4.371 5.36 4.342c-.105-.055-.392-.107-.46-.083m10.414.019c-.316.098-.515.332-.545.639-.014.154.014.29.136.649.133.391.154.502.152.794-.001.334-.006.349-.249.845-.329.673-.389.9-.385 1.475.002.444.009.481.21 1.085.225.675.296.786.587.92.088.04.214.073.28.073.259 0 .604-.242.697-.491.073-.193.048-.397-.103-.829-.124-.357-.146-.471-.148-.778l-.002-.36.247-.505c.33-.672.39-.9.386-1.475-.002-.444-.009-.481-.21-1.085-.213-.638-.293-.775-.526-.894-.14-.071-.4-.102-.527-.063m3.497 0a.87.87 0 0 0-.47.36c-.128.247-.118.394.062.943.249.757.243.89-.069 1.559-.298.638-.369.85-.41 1.227-.046.416.011.789.219 1.433.209.651.311.798.621.901a.7.7 0 0 0 .835-.266c.194-.268.193-.421-.004-1.017-.249-.751-.243-.885.072-1.559.133-.285.273-.614.311-.729a3 3 0 0 0 .094-1.091c-.044-.37-.368-1.364-.492-1.512a.82.82 0 0 0-.769-.249m-2.006 8.002c-.391.092-.633.519-.524.924.059.218.288.453.5.511.104.029.711.045 1.743.045 1.483 0 1.588.005 1.65.073.058.064.066.206.066 1.174 0 1.25.012 1.203-.331 1.254-.625.093-.875.822-.434 1.264.203.203.42.257.785.197.404-.066.667-.201.957-.492.488-.487.542-.709.542-2.23 0-1.517-.056-1.747-.535-2.22-.296-.292-.592-.445-.964-.498-.328-.047-3.257-.049-3.455-.002M13.94 15l1.24 1.24H8.76v-2.48h3.94z" fill-rule="evenodd"/></svg>