<svg xmlns="http://www.w3.org/2000/svg" viewBox="0 0 24 24"><path d="M9.06 5.283C7.65 5.412 6.329 6.33 5.697 7.62c-.23.469-.371.974-.427 1.524l-.045.443-.345.167c-.929.447-1.824 1.39-2.241 2.36a4.76 4.76 0 0 0 .395 4.486c.286.441.925 1.08 1.366 1.366a4.85 4.85 0 0 0 2.1.753c.489.055 10.511.055 11 0a4.85 4.85 0 0 0 2.1-.753c.441-.286 1.08-.925 1.366-1.366 1.037-1.601 1.041-3.636.011-5.186-.48-.724-1.342-1.469-2.002-1.731l-.24-.095-.07-.34a3.76 3.76 0 0 0-1.384-2.217c-.313-.238-.968-.563-1.306-.649a3.85 3.85 0 0 0-2.829.367 3 3 0 0 1-.25.131c-.009 0-.165-.15-.346-.333-.948-.955-2.14-1.387-3.49-1.264m1.026 1.538c.781.165 1.502.725 1.875 1.459.131.258.281.412.488.498.305.128.514.055.91-.315.508-.474.912-.658 1.521-.691.699-.038 1.209.157 1.7.648.448.448.657.941.66 1.56.003.529.176.739.772.937.934.312 1.736 1.091 2.049 1.992.271.778.218 1.817-.127 2.505-.35.697-1.028 1.327-1.734 1.612-.54.218-.412.214-6.2.214s-5.66.004-6.2-.214a3.1 3.1 0 0 1-.988-.642c-.673-.626-.989-1.291-1.039-2.184-.054-.975.23-1.747.901-2.449A3.17 3.17 0 0 1 6.04 10.9c.682-.227.774-.374.736-1.169-.019-.391-.009-.581.039-.81a2.78 2.78 0 0 1 1.516-1.903 2.8 2.8 0 0 1 1.755-.197m-2.98 5.122c-.531.129-1.061.519-1.384 1.02-.425.656-.469 1.543-.114 2.268.16.327.628.816.958 1.003a2.6 2.6 0 0 0 1.093.286c1.094 0 2.064-.758 2.303-1.8.076-.329.058-.891-.039-1.2-.235-.755-.915-1.406-1.647-1.578a3.1 3.1 0 0 0-1.17.001m3.29.027c-.18.119-.333.426-.3.6a.74.74 0 0 0 .314.47c.107.066.201.08.539.08h.408l.012 1.497c.011 1.44.014 1.501.093 1.608.157.21.285.275.538.275s.381-.065.538-.275c.079-.107.082-.168.093-1.608l.012-1.497h.412c.362 0 .43-.011.547-.09a.63.63 0 0 0 0-1.06c-.133-.089-.145-.09-1.602-.09-1.456 0-1.469.001-1.604.09m4.284 0c-.222.151-.3.289-.3.53s.078.379.3.53c.116.079.182.09.545.09h.412l.012 1.497c.011 1.44.014 1.501.093 1.608.292.389.817.383 1.064-.014.094-.15.094-.157.106-1.621l.012-1.47h.412c.362 0 .429-.011.548-.091a.648.648 0 0 0 0-1.058c-.135-.09-.144-.091-1.604-.091-1.457 0-1.469.001-1.6.09m-6.468 1.305c.351.218.518.518.519.931.001.223-.019.302-.119.48-.362.645-1.208.748-1.696.206-.556-.616-.211-1.607.6-1.728.24-.035.535.012.696.111" fill-rule="evenodd"/></svg>