<svg xmlns="http://www.w3.org/2000/svg" viewBox="0 0 24 24"><path d="M8.875 6.062c-1.307.237-2.342 1.175-2.742 2.486-.095.313-.107.42-.11.962l-.003.61-.256.082c-1.06.343-2.006 1.2-2.425 2.198-.254.603-.315.916-.317 1.6-.001.556.011.661.11 1.017.418 1.506 1.575 2.591 3.094 2.9.399.081.505.083 5.774.083s5.375-.002 5.774-.083a4 4 0 0 0 3.095-2.905c.091-.339.106-.473.107-.992.002-.505-.013-.657-.091-.957-.358-1.368-1.307-2.404-2.605-2.845l-.26-.088-.025-.3c-.075-.906-.44-1.604-1.133-2.167-.27-.219-.846-.506-1.182-.588-.285-.07-1.077-.07-1.36.001a3.2 3.2 0 0 0-1.424.794l-.204.202-.09-.186c-.238-.491-.783-1.073-1.289-1.373a3.54 3.54 0 0 0-2.438-.451m-.615 5.88a2.37 2.37 0 0 1 1.679 1.676c.079.31.078.845-.002 1.156-.152.588-.614 1.187-1.124 1.457-.304.161-.789.289-1.092.289a2.36 2.36 0 0 1-2.251-1.66c-.107-.343-.117-.968-.021-1.282.252-.821.897-1.449 1.691-1.642.285-.07.841-.067 1.12.006m5.33.018c.391.238.391.842 0 1.08-.107.066-.201.08-.54.08h-.41v1.432c0 1.405-.002 1.434-.09 1.607-.131.257-.267.341-.55.341s-.419-.084-.55-.341c-.088-.173-.09-.202-.09-1.607V13.12h-.41c-.339 0-.433-.014-.54-.08-.391-.238-.391-.842 0-1.08.123-.076.204-.08 1.59-.08s1.467.004 1.59.08m4.235-.015c.402.191.446.798.078 1.074-.089.066-.189.085-.556.101l-.447.02-.02 1.5c-.02 1.478-.021 1.502-.111 1.627a.64.64 0 0 1-.269.195c-.296.113-.556.032-.758-.237-.079-.107-.082-.168-.093-1.608l-.012-1.497h-.412c-.363 0-.429-.011-.545-.09-.222-.151-.297-.285-.297-.53s.075-.379.297-.53c.131-.089.144-.09 1.57-.09 1.244 0 1.456.009 1.575.065m-10.316 1.22c-1.011.15-1.185 1.536-.249 1.98.561.265 1.265-.047 1.441-.641.075-.251.074-.358-.003-.619-.149-.501-.644-.8-1.189-.72"/></svg>