<svg xmlns="http://www.w3.org/2000/svg" viewBox="0 0 24 24"><path d="M5.617 3.283q-.873.101-1.552.781a2.74 2.74 0 0 0-.696 1.116l-.109.32v13l.109.32c.151.445.362.783.695 1.116s.671.544 1.116.695l.32.109h13l.32-.109a2.74 2.74 0 0 0 1.116-.695c.333-.333.544-.671.695-1.116l.109-.32v-13l-.109-.32a2.74 2.74 0 0 0-.696-1.116c-.472-.471-.961-.709-1.606-.783-.425-.049-12.293-.046-12.712.002m12.911 1.59c.239.118.481.36.599.599l.093.188v12.68l-.093.189c-.132.268-.416.534-.674.63-.213.08-.297.081-6.453.081s-6.24-.001-6.453-.081c-.258-.096-.542-.362-.674-.63l-.093-.189-.011-6.26c-.009-4.677 0-6.303.035-6.43.093-.34.433-.7.782-.828.131-.048 1.114-.056 6.454-.049l6.3.007zM6.805 6.28c-.547.129-.735.839-.33 1.244.197.197.364.236 1.025.236s.828-.039 1.025-.236a.739.739 0 0 0-.348-1.246c-.19-.044-1.183-.042-1.372.002m4.615-.022a2 2 0 0 1-.149.039.8.8 0 0 0-.256.153c-.42.368-.316.993.205 1.234.235.109 1.325.109 1.56 0 .295-.137.46-.381.46-.684a.67.67 0 0 0-.193-.494c-.207-.219-.295-.242-.967-.254a8 8 0 0 0-.66.006m4.385.022c-.547.129-.735.839-.33 1.244.197.197.364.236 1.025.236s.828-.039 1.025-.236a.739.739 0 0 0-.348-1.246c-.19-.044-1.183-.042-1.372.002M7.237 9.279c-.608.079-1.162.537-1.383 1.144l-.094.261v3.048c.001 2.499.011 3.081.057 3.233.18.593.622 1.037 1.211 1.216.282.085 9.655.088 9.937.002a1.8 1.8 0 0 0 1.216-1.211c.049-.161.058-.684.059-3.24v-3.048l-.094-.261a1.75 1.75 0 0 0-1.419-1.146c-.319-.041-9.169-.039-9.49.002m9.425 1.538c.076.055.078.138.089 2.901l.011 2.844-.099.099-.099.099H7.436l-.099-.099-.099-.099.011-2.844c.011-2.763.013-2.846.089-2.901.116-.085 9.208-.085 9.324 0" fill-rule="evenodd"/></svg>