<svg xmlns="http://www.w3.org/2000/svg" viewBox="0 0 24 24"><path d="M11.36 3.281a8.4 8.4 0 0 0-3.22.879c-2.805 1.379-4.618 4.072-4.867 7.23-.138 1.749.34 3.688 1.28 5.203a9.1 9.1 0 0 0 2.854 2.854c1.515.94 3.454 1.418 5.203 1.28 2.157-.17 4.066-1.043 5.57-2.547s2.377-3.413 2.547-5.57c.214-2.713-.977-5.533-3.073-7.281-1.792-1.493-3.976-2.204-6.294-2.048m1.94 3.073c1.174.322 2.034 1.182 2.343 2.346.119.447.119 1.153 0 1.6-.266 1.001-.983 1.827-1.914 2.203-.53.214-.641.229-1.837.247l-1.129.017L10.752 15l-.012 2.233-.121.172c-.166.237-.346.334-.619.334s-.453-.098-.619-.334l-.121-.172V6.78l.093-.149a.8.8 0 0 1 .462-.355c.069-.017.809-.026 1.645-.02 1.42.01 1.541.016 1.84.098m-2.54 3.145v1.746l1.092-.013 1.092-.012.301-.149c.373-.184.669-.485.847-.861.12-.253.128-.298.128-.712 0-.43-.004-.451-.149-.743a1.83 1.83 0 0 0-.861-.847l-.27-.128-1.09-.013-1.09-.013z"/></svg>