<svg fill="none" xmlns="http://www.w3.org/2000/svg" viewBox="0 0 24 24"><path d="M17.263 4.299 C 17.177 4.330,17.044 4.417,16.968 4.493 C 16.838 4.623,16.732 4.939,15.056 10.205 C 14.080 13.271,13.270 15.836,13.257 15.904 C 13.196 16.220,13.458 16.626,13.781 16.715 C 13.883 16.744,14.445 16.760,15.350 16.760 L 16.760 16.760 16.760 18.000 L 16.760 19.240 13.260 19.240 L 9.760 19.240 9.760 18.740 L 9.760 18.240 9.957 18.240 C 10.304 18.240,10.541 18.090,10.684 17.780 C 10.778 17.578,10.778 17.422,10.684 17.220 C 10.541 16.910,10.304 16.760,9.957 16.760 L 9.760 16.760 9.760 16.260 L 9.760 15.760 9.910 15.760 C 10.160 15.759,10.371 15.679,10.525 15.524 C 10.938 15.111,10.742 14.409,10.177 14.278 C 9.972 14.231,4.028 14.231,3.823 14.278 C 3.258 14.409,3.062 15.111,3.475 15.524 C 3.629 15.679,3.840 15.759,4.090 15.760 L 4.240 15.760 4.240 16.255 L 4.240 16.751 3.985 16.767 C 3.661 16.788,3.476 16.905,3.339 17.178 C 3.221 17.413,3.216 17.563,3.316 17.780 C 3.459 18.090,3.696 18.240,4.043 18.240 L 4.240 18.240 4.240 18.740 L 4.240 19.240 3.610 19.241 C 2.749 19.242,2.580 19.290,2.373 19.595 C 2.105 19.988,2.324 20.588,2.781 20.715 C 3.007 20.778,20.993 20.778,21.219 20.715 C 21.307 20.691,21.444 20.605,21.525 20.524 C 21.938 20.111,21.742 19.409,21.177 19.278 C 21.091 19.258,20.395 19.241,19.630 19.241 L 18.240 19.240 18.240 18.000 L 18.240 16.760 19.650 16.760 C 20.555 16.760,21.117 16.744,21.219 16.715 C 21.542 16.626,21.804 16.220,21.743 15.904 C 21.730 15.836,20.921 13.273,19.945 10.208 C 18.057 4.278,18.134 4.493,17.840 4.341 C 17.673 4.255,17.433 4.237,17.263 4.299 M9.617 5.283 C 9.032 5.352,8.519 5.611,8.065 6.064 C 7.729 6.399,7.518 6.739,7.372 7.180 C 7.281 7.457,7.267 7.567,7.267 8.000 C 7.267 8.433,7.281 8.543,7.372 8.820 C 7.518 9.260,7.729 9.601,8.064 9.936 C 8.399 10.271,8.740 10.482,9.180 10.628 C 9.457 10.719,9.567 10.733,10.000 10.733 C 10.433 10.733,10.543 10.719,10.820 10.628 C 11.260 10.482,11.601 10.271,11.936 9.936 C 12.271 9.601,12.482 9.260,12.628 8.820 C 12.719 8.543,12.733 8.433,12.733 8.000 C 12.733 7.568,12.719 7.457,12.628 7.180 C 12.203 5.886,10.986 5.120,9.617 5.283 M10.526 6.877 C 10.759 6.997,11.007 7.244,11.124 7.473 C 11.264 7.746,11.262 8.258,11.121 8.535 C 10.991 8.788,10.654 9.094,10.414 9.176 C 10.173 9.258,9.827 9.258,9.586 9.176 C 9.346 9.094,9.009 8.788,8.879 8.535 C 8.739 8.260,8.736 7.744,8.873 7.480 C 9.037 7.165,9.345 6.895,9.646 6.804 C 9.866 6.736,10.327 6.775,10.526 6.877 M18.747 11.417 C 19.398 13.464,19.939 15.162,19.950 15.190 C 19.965 15.230,19.459 15.240,17.502 15.240 C 15.170 15.240,15.036 15.236,15.057 15.170 C 15.069 15.132,15.619 13.402,16.280 11.327 C 16.940 9.252,17.481 7.542,17.483 7.527 C 17.488 7.468,17.605 7.827,18.747 11.417 M8.240 16.260 L 8.240 16.760 7.000 16.760 L 5.760 16.760 5.760 16.260 L 5.760 15.760 7.000 15.760 L 8.240 15.760 8.240 16.260 M8.240 18.740 L 8.240 19.240 7.000 19.240 L 5.760 19.240 5.760 18.740 L 5.760 18.240 7.000 18.240 L 8.240 18.240 8.240 18.740 " stroke="none" fill-rule="evenodd"/></svg>