<svg fill="none" xmlns="http://www.w3.org/2000/svg" viewBox="0 0 24 24"><path d="M11.340 3.281 C 9.259 3.432,7.316 4.326,5.819 5.820 C 4.475 7.163,3.627 8.847,3.334 10.760 C 3.238 11.390,3.238 12.610,3.334 13.240 C 3.732 15.834,5.204 18.079,7.404 19.445 C 8.922 20.388,10.860 20.865,12.610 20.727 C 14.766 20.557,16.681 19.682,18.180 18.181 C 19.685 16.673,20.557 14.767,20.727 12.610 C 20.941 9.896,19.751 7.077,17.654 5.329 C 15.859 3.834,13.640 3.114,11.340 3.281 M13.334 6.354 C 13.878 6.501,14.325 6.766,14.764 7.200 C 15.197 7.629,15.418 7.969,15.582 8.458 C 15.805 9.129,15.805 9.872,15.580 10.545 C 15.296 11.397,14.532 12.202,13.700 12.525 C 13.216 12.713,12.823 12.760,11.735 12.760 L 10.760 12.760 10.760 14.910 C 10.760 16.266,10.744 17.115,10.718 17.209 C 10.610 17.599,10.198 17.827,9.798 17.719 C 9.578 17.660,9.344 17.432,9.285 17.219 C 9.225 17.004,9.222 7.006,9.282 6.791 C 9.353 6.535,9.552 6.344,9.820 6.275 C 9.886 6.258,10.633 6.249,11.480 6.256 C 12.905 6.267,13.044 6.275,13.334 6.354 M10.760 9.500 L 10.760 11.240 11.770 11.240 C 12.834 11.239,12.962 11.223,13.322 11.039 C 13.562 10.916,13.886 10.599,14.018 10.356 C 14.568 9.346,14.044 8.109,12.940 7.814 C 12.799 7.777,12.448 7.761,11.750 7.760 L 10.760 7.760 10.760 9.500 " stroke="none" fill-rule="evenodd" fill="currentColor"/></svg>