<svg xmlns="http://www.w3.org/2000/svg" viewBox="0 0 24 24"><path d="M11.34 3.281A8.68 8.68 0 0 0 5.819 5.82c-1.344 1.343-2.192 3.027-2.485 4.94-.096.63-.096 1.85 0 2.48.398 2.594 1.87 4.839 4.07 6.205 1.518.943 3.456 1.42 5.206 1.282 2.156-.17 4.071-1.045 5.57-2.546 1.505-1.508 2.377-3.414 2.547-5.571.214-2.714-.976-5.533-3.073-7.281-1.795-1.495-4.014-2.215-6.314-2.048m1.9 1.579a7.3 7.3 0 0 1 5.358 4.171c.237.526.446 1.194.546 1.749.102.567.103 1.881.001 2.44a7.34 7.34 0 0 1-4.085 5.343 7.26 7.26 0 0 1-6.12 0C5.656 17.016 4 13.266 5.089 9.84c.853-2.686 3.144-4.62 5.951-5.022.502-.072 1.687-.049 2.2.042M9.7 6.314a.75.75 0 0 0-.398.415c-.055.131-.062.738-.062 5.271 0 5.559-.011 5.272.212 5.515.369.401 1.03.272 1.246-.244.053-.128.062-.451.062-2.326v-2.178l1.15-.019c1.2-.019 1.313-.034 1.822-.227.723-.275 1.527-1.091 1.799-1.827.167-.448.208-.688.208-1.194 0-.927-.295-1.643-.945-2.294-.424-.423-.847-.672-1.452-.856-.264-.079-.386-.086-1.882-.098-1.5-.012-1.61-.009-1.76.062m3.24 1.5A1.745 1.745 0 0 1 14.239 9.5c0 .781-.507 1.45-1.274 1.683-.138.042-.444.056-1.195.057h-1.01V7.76h.99c.698.001 1.049.017 1.19.054"/></svg>