<svg xmlns="http://www.w3.org/2000/svg" viewBox="0 0 24 24"><path d="M11.34 3.281A8.68 8.68 0 0 0 5.819 5.82c-1.344 1.343-2.192 3.027-2.485 4.94-.096.63-.096 1.85 0 2.48.398 2.594 1.87 4.839 4.07 6.205 1.518.943 3.456 1.42 5.206 1.282 2.156-.17 4.071-1.045 5.57-2.546 1.505-1.508 2.377-3.414 2.547-5.571.214-2.714-.976-5.533-3.073-7.281-1.795-1.495-4.014-2.215-6.314-2.048m1.994 3.073c.544.147.991.412 1.43.846.433.429.654.769.818 1.258a3.33 3.33 0 0 1-.002 2.087c-.284.852-1.048 1.657-1.88 1.98-.484.188-.877.235-1.965.235h-.975v2.15c0 1.356-.016 2.205-.042 2.299a.747.747 0 0 1-.92.51c-.22-.059-.454-.287-.513-.5-.06-.215-.063-10.213-.003-10.428a.73.73 0 0 1 .538-.516c.066-.017.813-.026 1.66-.019 1.425.011 1.564.019 1.854.098M10.76 9.5v1.74h1.01c1.064-.001 1.192-.017 1.552-.201.24-.123.564-.44.696-.683a1.748 1.748 0 0 0-1.078-2.542c-.141-.037-.492-.053-1.19-.054h-.99z" fill-rule="evenodd"/></svg>