<svg xmlns="http://www.w3.org/2000/svg" viewBox="0 0 24 24"><path d="M17.263 4.299a1 1 0 0 0-.295.194c-.13.13-.236.446-1.912 5.712a634 634 0 0 0-1.799 5.699c-.061.316.201.722.524.811.102.029.664.045 1.569.045h1.41v2.48h-7v-1h.197c.347 0 .584-.15.727-.46a.59.59 0 0 0 0-.56c-.143-.31-.38-.46-.727-.46H9.76v-1h.15a.84.84 0 0 0 .615-.236.739.739 0 0 0-.348-1.246c-.205-.047-6.149-.047-6.354 0a.739.739 0 0 0-.348 1.246.84.84 0 0 0 .615.236h.15v.991l-.255.016c-.324.021-.509.138-.646.411-.118.235-.123.385-.023.602.143.31.38.46.727.46h.197v1l-.63.001c-.861.001-1.03.049-1.237.354-.268.393-.049.993.408 1.12.226.063 18.212.063 18.438 0a.84.84 0 0 0 .306-.191.739.739 0 0 0-.348-1.246c-.086-.02-.782-.037-1.547-.037l-1.39-.001v-2.48h1.41c.905 0 1.467-.016 1.569-.045.323-.089.585-.495.524-.811-.013-.068-.822-2.631-1.798-5.696-1.888-5.93-1.811-5.715-2.105-5.867a.78.78 0 0 0-.577-.042m-7.646.984c-.585.069-1.098.328-1.552.781a2.7 2.7 0 0 0-.693 1.116c-.091.277-.105.387-.105.82s.014.543.105.82c.146.44.357.781.692 1.116s.676.546 1.116.692c.277.091.387.105.82.105s.543-.014.82-.105c.44-.146.781-.357 1.116-.692s.546-.676.692-1.116c.091-.277.105-.387.105-.82s-.014-.543-.105-.82c-.425-1.294-1.642-2.06-3.011-1.897m.911 1.59c.239.117.481.359.599.599.133.27.133.787 0 1.057-.464.943-1.795.943-2.252 0a1.43 1.43 0 0 1-.074-.871c.097-.348.43-.703.785-.838.232-.088.708-.061.942.053m8.233 4.56c.659 2.075 1.199 3.78 1.199 3.79 0 .009-1.108.017-2.463.017h-2.462l.027-.09c.041-.139 2.251-7.096 2.346-7.389.07-.213.091-.245.119-.18.019.043.574 1.777 1.234 3.852M8.24 16.26v.5H5.76v-1h2.48zm0 2.48v.5H5.76v-1h2.48z" fill-rule="evenodd"/></svg>