<svg fill="none" xmlns="http://www.w3.org/2000/svg" viewBox="0 0 24 24"><path d="M11.340 3.281 C 9.259 3.432,7.316 4.326,5.819 5.820 C 4.475 7.163,3.627 8.847,3.334 10.760 C 3.238 11.390,3.238 12.610,3.334 13.240 C 3.732 15.834,5.204 18.079,7.404 19.445 C 8.922 20.388,10.860 20.865,12.610 20.727 C 14.766 20.557,16.681 19.682,18.180 18.181 C 19.685 16.673,20.557 14.767,20.727 12.610 C 20.941 9.896,19.751 7.077,17.654 5.329 C 15.859 3.834,13.640 3.114,11.340 3.281 M13.232 4.856 C 14.742 5.135,16.048 5.818,17.115 6.885 C 18.203 7.973,18.891 9.313,19.167 10.880 C 19.199 11.063,19.219 11.500,19.219 12.000 C 19.219 12.500,19.199 12.937,19.167 13.120 C 18.892 14.684,18.207 16.020,17.120 17.112 C 16.083 18.154,14.839 18.820,13.360 19.125 C 12.956 19.209,12.791 19.220,12.000 19.220 C 11.209 19.220,11.044 19.209,10.640 19.125 C 9.179 18.824,7.920 18.155,6.909 17.144 C 5.787 16.022,5.119 14.726,4.834 13.120 C 4.763 12.720,4.763 11.280,4.834 10.880 C 4.921 10.392,5.077 9.804,5.218 9.439 C 5.965 7.504,7.504 5.965,9.439 5.218 C 9.961 5.017,10.468 4.898,11.300 4.783 C 11.566 4.746,12.915 4.797,13.232 4.856 M9.820 6.275 C 9.552 6.344,9.353 6.535,9.282 6.791 C 9.222 7.006,9.225 17.004,9.285 17.219 C 9.344 17.432,9.578 17.660,9.798 17.719 C 10.198 17.827,10.610 17.599,10.718 17.209 C 10.744 17.115,10.760 16.266,10.760 14.910 L 10.760 12.760 11.735 12.760 C 12.823 12.760,13.216 12.713,13.700 12.525 C 14.301 12.292,14.970 11.715,15.312 11.136 C 15.775 10.353,15.877 9.344,15.582 8.458 C 15.418 7.969,15.197 7.629,14.764 7.200 C 14.457 6.897,14.306 6.782,14.014 6.629 C 13.353 6.285,13.250 6.270,11.480 6.256 C 10.633 6.249,9.886 6.258,9.820 6.275 M12.940 7.814 C 13.708 8.020,14.239 8.709,14.239 9.500 C 14.239 10.281,13.732 10.950,12.965 11.183 C 12.827 11.225,12.521 11.239,11.770 11.240 L 10.760 11.240 10.760 9.500 L 10.760 7.760 11.750 7.760 C 12.448 7.761,12.799 7.777,12.940 7.814 " stroke="none" fill-rule="evenodd" fill="currentColor"/></svg>