<svg fill="none" xmlns="http://www.w3.org/2000/svg" viewBox="0 0 24 24"><path d="M11.340 3.281 C 9.259 3.432,7.316 4.326,5.819 5.820 C 4.475 7.163,3.627 8.847,3.334 10.760 C 3.238 11.390,3.238 12.610,3.334 13.240 C 3.732 15.834,5.204 18.079,7.404 19.445 C 8.922 20.388,10.860 20.865,12.610 20.727 C 14.766 20.557,16.681 19.682,18.180 18.181 C 19.685 16.673,20.557 14.767,20.727 12.610 C 20.941 9.896,19.751 7.077,17.654 5.329 C 15.859 3.834,13.640 3.114,11.340 3.281 M13.240 4.860 C 15.602 5.284,17.613 6.850,18.598 9.031 C 18.835 9.557,19.044 10.225,19.144 10.780 C 19.246 11.347,19.247 12.661,19.145 13.220 C 18.715 15.574,17.200 17.555,15.060 18.563 C 13.144 19.465,10.856 19.465,8.940 18.563 C 5.656 17.016,4.000 13.266,5.089 9.840 C 5.942 7.154,8.233 5.220,11.040 4.818 C 11.542 4.746,12.727 4.769,13.240 4.860 M9.700 6.314 C 9.506 6.406,9.384 6.532,9.302 6.729 C 9.247 6.860,9.240 7.467,9.240 12.000 C 9.240 17.559,9.229 17.272,9.452 17.515 C 9.821 17.916,10.482 17.787,10.698 17.271 C 10.751 17.143,10.760 16.820,10.760 14.945 L 10.760 12.767 11.910 12.748 C 13.110 12.729,13.223 12.714,13.732 12.521 C 14.455 12.246,15.259 11.430,15.531 10.694 C 15.698 10.246,15.739 10.006,15.739 9.500 C 15.739 8.573,15.444 7.857,14.794 7.206 C 14.370 6.783,13.947 6.534,13.342 6.350 C 13.078 6.271,12.956 6.264,11.460 6.252 C 9.960 6.240,9.850 6.243,9.700 6.314 M12.940 7.814 C 13.708 8.020,14.239 8.709,14.239 9.500 C 14.239 10.281,13.732 10.950,12.965 11.183 C 12.827 11.225,12.521 11.239,11.770 11.240 L 10.760 11.240 10.760 9.500 L 10.760 7.760 11.750 7.760 C 12.448 7.761,12.799 7.777,12.940 7.814 " stroke="none" fill-rule="evenodd"/></svg>