<svg xmlns="http://www.w3.org/2000/svg" viewBox="0 0 24 24"><path d="M8.701 4.285c-.334.048-.639.213-.932.502a1.65 1.65 0 0 0-.491 1.483c.069.401.204.66.498.954s.553.429.954.498c.326.056.699.004 1.023-.143.279-.127.699-.547.826-.826.295-.651.189-1.388-.275-1.902-.417-.46-.975-.658-1.603-.566m6 0c-.334.048-.639.213-.932.502a1.65 1.65 0 0 0-.491 1.483c.069.401.204.66.498.954s.553.429.954.498c.326.056.699.004 1.023-.143.279-.127.699-.547.826-.826.295-.651.189-1.388-.275-1.902-.417-.46-.975-.658-1.603-.566m-9 4c-.334.048-.639.213-.932.502a1.65 1.65 0 0 0-.491 1.483c.069.401.204.66.498.954s.553.429.954.498c.326.056.699.004 1.023-.143.279-.127.699-.547.826-.826.295-.651.189-1.388-.275-1.902-.417-.46-.975-.658-1.603-.566m5.885-.001c-1.004.083-1.833.474-2.293 1.084-.364.482-.533.938-.775 2.092-.194.926-.318 1.305-.537 1.64-.199.303-.812.918-1.467 1.471-1.043.88-1.391 1.632-1.221 2.641.279 1.645 1.365 2.407 3.107 2.176.253-.034.892-.162 1.42-.284 2.234-.517 2.389-.516 4.84.051.979.227 1.221.262 1.78.262.564 0 .863-.062 1.276-.263.494-.241.905-.769 1.117-1.434.236-.741.219-1.317-.057-1.916-.194-.421-.501-.778-1.128-1.311-.747-.634-.979-.861-1.248-1.219-.308-.411-.446-.763-.617-1.574-.201-.953-.246-1.128-.387-1.519-.346-.955-1.047-1.559-2.089-1.801-.232-.054-1.111-.147-1.267-.134zm6.115.001c-.334.048-.639.213-.932.502a1.65 1.65 0 0 0-.491 1.483c.069.401.204.66.498.954s.553.429.954.498c.326.056.699.004 1.023-.143.279-.127.699-.547.826-.826.295-.651.189-1.388-.275-1.902-.417-.46-.975-.658-1.603-.566"/></svg>