<svg fill="none" xmlns="http://www.w3.org/2000/svg" viewBox="0 0 24 24"><path d="M8.701 4.285 C 8.367 4.333,8.062 4.498,7.769 4.787 C 7.359 5.192,7.184 5.720,7.278 6.270 C 7.347 6.671,7.482 6.930,7.776 7.224 C 8.070 7.518,8.329 7.653,8.730 7.722 C 9.056 7.778,9.429 7.726,9.753 7.579 C 10.032 7.452,10.452 7.032,10.579 6.753 C 10.874 6.102,10.768 5.365,10.304 4.851 C 9.887 4.391,9.329 4.193,8.701 4.285 M14.701 4.285 C 14.367 4.333,14.062 4.498,13.769 4.787 C 13.359 5.192,13.184 5.720,13.278 6.270 C 13.347 6.671,13.482 6.930,13.776 7.224 C 14.070 7.518,14.329 7.653,14.730 7.722 C 15.056 7.778,15.429 7.726,15.753 7.579 C 16.032 7.452,16.452 7.032,16.579 6.753 C 16.874 6.102,16.768 5.365,16.304 4.851 C 15.887 4.391,15.329 4.193,14.701 4.285 M9.167 5.826 C 9.258 5.909,9.261 6.070,9.174 6.167 C 9.036 6.319,8.760 6.212,8.760 6.007 C 8.760 5.793,9.008 5.683,9.167 5.826 M15.167 5.826 C 15.258 5.909,15.261 6.070,15.174 6.167 C 15.036 6.319,14.760 6.212,14.760 6.007 C 14.760 5.793,15.008 5.683,15.167 5.826 M5.701 8.285 C 5.367 8.333,5.062 8.498,4.769 8.787 C 4.359 9.192,4.184 9.720,4.278 10.270 C 4.347 10.671,4.482 10.930,4.776 11.224 C 5.070 11.518,5.329 11.653,5.730 11.722 C 6.056 11.778,6.429 11.726,6.753 11.579 C 7.032 11.452,7.452 11.032,7.579 10.753 C 7.874 10.102,7.768 9.365,7.304 8.851 C 6.887 8.391,6.329 8.193,5.701 8.285 M11.586 8.284 C 10.582 8.367,9.753 8.758,9.293 9.368 C 8.929 9.850,8.760 10.306,8.518 11.460 C 8.324 12.386,8.200 12.765,7.981 13.100 C 7.782 13.403,7.169 14.018,6.514 14.571 C 5.471 15.451,5.123 16.203,5.293 17.212 C 5.572 18.857,6.658 19.619,8.400 19.388 C 8.653 19.354,9.292 19.226,9.820 19.104 C 12.054 18.587,12.209 18.588,14.660 19.155 C 15.639 19.382,15.881 19.417,16.440 19.417 C 17.004 19.417,17.303 19.355,17.716 19.154 C 18.210 18.913,18.621 18.385,18.833 17.720 C 19.069 16.979,19.052 16.403,18.776 15.804 C 18.582 15.383,18.275 15.026,17.648 14.493 C 16.901 13.859,16.669 13.632,16.400 13.274 C 16.092 12.863,15.954 12.511,15.783 11.700 C 15.582 10.747,15.537 10.572,15.396 10.181 C 15.050 9.226,14.349 8.622,13.307 8.380 C 13.075 8.326,12.196 8.233,12.040 8.246 C 12.007 8.249,11.803 8.266,11.586 8.284 M17.701 8.285 C 17.367 8.333,17.062 8.498,16.769 8.787 C 16.359 9.192,16.184 9.720,16.278 10.270 C 16.347 10.671,16.482 10.930,16.776 11.224 C 17.070 11.518,17.329 11.653,17.730 11.722 C 18.056 11.778,18.429 11.726,18.753 11.579 C 19.032 11.452,19.452 11.032,19.579 10.753 C 19.874 10.102,19.768 9.365,19.304 8.851 C 18.887 8.391,18.329 8.193,17.701 8.285 M6.167 9.826 C 6.258 9.909,6.261 10.070,6.174 10.167 C 6.036 10.319,5.760 10.212,5.760 10.007 C 5.760 9.793,6.008 9.683,6.167 9.826 M12.725 9.797 C 13.088 9.857,13.247 9.910,13.479 10.049 C 13.859 10.277,14.026 10.637,14.237 11.683 C 14.418 12.585,14.540 13.009,14.741 13.433 C 15.065 14.116,15.501 14.633,16.420 15.421 C 17.039 15.952,17.341 16.263,17.418 16.449 C 17.503 16.653,17.496 16.941,17.398 17.258 C 17.165 18.012,16.673 18.089,14.860 17.659 C 12.363 17.066,11.914 17.060,9.649 17.599 C 7.937 18.006,7.403 18.023,7.078 17.683 C 6.839 17.432,6.705 16.879,6.801 16.537 C 6.867 16.300,7.102 16.043,7.776 15.470 C 9.235 14.231,9.615 13.605,9.979 11.840 C 10.204 10.753,10.297 10.487,10.551 10.214 C 10.733 10.019,11.147 9.840,11.540 9.788 C 11.782 9.756,12.506 9.762,12.725 9.797 M18.167 9.826 C 18.258 9.909,18.261 10.070,18.174 10.167 C 18.036 10.319,17.760 10.212,17.760 10.007 C 17.760 9.793,18.008 9.683,18.167 9.826 " stroke="none" fill-rule="evenodd"/></svg>