<svg xmlns="http://www.w3.org/2000/svg" viewBox="0 0 24 24"><path d="M4.46 2.28c-.564.079-1.008.306-1.444.739a2.5 2.5 0 0 0-.715 1.309c-.079.398-.077.499.02 1.193.298 2.124.839 3.908 1.74 5.741 1.472 2.99 3.66 5.52 6.305 7.289 2.607 1.744 5.114 2.709 8.134 3.13 1.146.16 1.81-.027 2.481-.699.336-.336.5-.599.663-1.062.089-.252.092-.31.107-1.954.012-1.443.005-1.742-.05-2.013a2.55 2.55 0 0 0-1.606-1.911 7 7 0 0 0-.82-.184 11.5 11.5 0 0 1-1.935-.49c-.548-.184-.571-.188-1.06-.188-.863 0-1.273.189-2.065.953-.57.549-.439.542-1.135.055a13.4 13.4 0 0 1-3.496-3.584l-.224-.337.456-.466c.534-.546.745-.853.891-1.298.089-.273.105-.394.105-.783 0-.445-.006-.48-.203-1.08-.266-.808-.347-1.126-.486-1.9a7 7 0 0 0-.2-.866c-.265-.7-.958-1.325-1.707-1.54-.202-.057-.475-.069-1.876-.077-.902-.006-1.748.005-1.88.023m3.586 1.609c.207.122.38.309.458.495.029.068.09.347.136.62.114.675.283 1.351.499 1.994.324.964.296 1.049-.661 2.022-.389.396-.725.756-.747.8a.73.73 0 0 0-.038.532c.07.205.472.858.89 1.448a15.4 15.4 0 0 0 4.439 4.15c.899.553.936.544 1.922-.432.977-.967 1.072-.997 2.076-.67.695.227 1.237.361 1.964.487.634.109.728.147.96.392.295.311.296.316.296 2.072 0 1.471-.005 1.57-.082 1.776a1.1 1.1 0 0 1-.52.566c-.273.141-.745.111-1.976-.125q-3.503-.671-6.542-2.769c-1.742-1.203-3.298-2.765-4.427-4.447-1.394-2.074-2.264-4.15-2.71-6.462-.147-.766-.234-1.453-.209-1.665a1.03 1.03 0 0 1 .649-.833c.185-.073.295-.077 1.817-.069l1.62.009z"/></svg>