<svg xmlns="http://www.w3.org/2000/svg" viewBox="0 0 24 24"><path d="M4.46 2.28c-.564.079-1.008.306-1.444.739a2.5 2.5 0 0 0-.715 1.309c-.079.398-.077.499.02 1.193.298 2.124.839 3.908 1.74 5.741 1.472 2.99 3.66 5.52 6.305 7.289 2.607 1.744 5.114 2.709 8.134 3.13 1.146.16 1.81-.027 2.481-.699.336-.336.5-.599.663-1.062.089-.252.092-.31.107-1.954.012-1.443.005-1.742-.05-2.013a2.55 2.55 0 0 0-1.606-1.911 7 7 0 0 0-.82-.184 11.5 11.5 0 0 1-1.935-.49c-.548-.184-.571-.188-1.06-.188-.863 0-1.273.189-2.065.953-.57.549-.439.542-1.135.055a13.4 13.4 0 0 1-3.496-3.584l-.224-.337.456-.466c.534-.546.745-.853.891-1.298.089-.273.105-.394.105-.783 0-.445-.006-.48-.203-1.08-.266-.808-.347-1.126-.486-1.9a7 7 0 0 0-.2-.866c-.265-.7-.958-1.325-1.707-1.54-.202-.057-.475-.069-1.876-.077-.902-.006-1.748.005-1.88.023m3.43 1.537c.383.137.638.466.709.916.133.847.282 1.471.547 2.281.16.489.181.594.164.806a1.3 1.3 0 0 1-.089.382c-.039.076-.384.454-.768.841-.966.975-.975 1.015-.44 1.886a15.3 15.3 0 0 0 5.078 5.056c.832.504.876.494 1.829-.445.414-.409.773-.728.88-.782.298-.153.591-.131 1.27.094.669.223 1.194.353 1.944.485.608.106.818.2 1.007.447.212.279.215.311.216 2.036.001 1.524-.003 1.608-.08 1.78-.172.38-.555.639-.945.64-.258 0-1.112-.125-1.764-.258-2.449-.501-4.845-1.596-6.948-3.176a16.8 16.8 0 0 1-3.82-4.026c-1.349-2.014-2.215-4.041-2.662-6.228-.151-.739-.268-1.626-.245-1.857.037-.373.271-.691.627-.852.171-.077.256-.081 1.76-.08 1.217 0 1.615.013 1.73.054" fill-rule="evenodd"/></svg>