<svg xmlns="http://www.w3.org/2000/svg" viewBox="0 0 24 24"><path d="M4.371 3.062a1.83 1.83 0 0 0-1.315 1.311c-.075.283-.07.552.025 1.194.699 4.761 3.226 9.039 7.019 11.88a18.25 18.25 0 0 0 8.34 3.472c.297.044.639.08.76.08.82-.001 1.583-.623 1.755-1.431.029-.136.045-.771.045-1.782 0-1.67-.014-1.822-.204-2.194a2 2 0 0 0-.29-.383c-.337-.357-.623-.49-1.265-.592a13 13 0 0 1-1.976-.484c-.673-.216-.692-.22-1.085-.205-.352.012-.434.03-.68.146-.241.113-.375.225-.966.813l-.685.681-.195-.111c-1.641-.943-3.356-2.522-4.476-4.122-.374-.533-.738-1.117-.738-1.183 0-.027.305-.356.677-.731.722-.725.832-.886.927-1.34.071-.344.024-.683-.183-1.301a12 12 0 0 1-.482-1.954c-.069-.413-.125-.621-.22-.814a1.88 1.88 0 0 0-1.274-.972c-.349-.065-3.259-.047-3.514.022"/></svg>