<svg xmlns="http://www.w3.org/2000/svg" viewBox="0 0 24 24"><path d="M8.78 2.784a7.7 7.7 0 0 0-1.348.298C5.044 3.861 3.07 6.092 2.461 8.7c-.202.868-.201.83-.201 5.46v4.34l.109.32c.151.445.362.783.695 1.116s.671.544 1.116.695l.32.109h15l.32-.109a2.74 2.74 0 0 0 1.116-.695c.333-.333.544-.671.695-1.116l.109-.32.013-3.48c.008-2.326-.002-3.623-.032-3.91-.102-1.005-.475-1.813-1.148-2.486-.832-.832-1.918-1.273-3.353-1.363a4 4 0 0 1-.549-.064c-.241-.064-.578-.415-1.001-1.044-.475-.708-.904-1.203-1.41-1.625-.977-.815-2.044-1.364-3.18-1.635-.369-.088-.528-.102-1.3-.113a17 17 0 0 0-1 .004M5.24 15.41c0 1.08.016 1.705.045 1.809.059.213.293.441.513.5.4.108.812-.12.92-.51.026-.091.042-.787.042-1.799v-1.65h1.48v1.65c0 1.08.016 1.705.045 1.809.059.213.293.441.513.5.4.108.812-.12.92-.51.026-.091.042-.787.042-1.799v-1.65h1.48v1.65c0 1.012.016 1.708.042 1.799.108.39.52.618.92.51.22-.059.454-.287.513-.5.029-.104.045-.729.045-1.809v-1.65h1.48v1.65c0 1.012.016 1.708.042 1.799.108.39.52.618.92.51.22-.059.454-.287.513-.5.029-.104.045-.729.045-1.809v-1.65h1.48v1.65c0 1.012.016 1.708.042 1.799.108.39.52.618.92.51.22-.059.454-.287.513-.5.029-.104.045-.729.045-1.809v-1.65h1.482l-.011 2.29-.011 2.29-.093.189c-.132.268-.416.534-.674.63-.214.08-.294.081-7.453.081s-7.239-.001-7.453-.081c-.258-.096-.542-.362-.674-.63l-.093-.189-.011-2.29-.011-2.29H5.24z" fill-rule="evenodd"/></svg>