<svg xmlns="http://www.w3.org/2000/svg" viewBox="0 0 24 24"><path d="M4.617 5.283q-.873.101-1.552.781a2.7 2.7 0 0 0-.81 1.75c-.044.57.144 1.264.469 1.726l.156.224v4.472l-.156.224c-.325.462-.513 1.156-.469 1.726a2.7 2.7 0 0 0 .809 1.75c.335.335.676.546 1.116.692.277.091.387.105.82.105s.543-.014.82-.105c.177-.058.441-.178.588-.267l.267-.161.633.099c3.72.58 5.664.58 9.384 0l.633-.099.267.161c.147.089.411.209.588.267.277.091.388.105.82.105.433 0 .543-.014.82-.105.44-.146.781-.357 1.116-.692a2.7 2.7 0 0 0 .809-1.75c.044-.57-.144-1.264-.469-1.726l-.156-.224V9.764l.156-.224c.325-.462.513-1.156.469-1.726a2.7 2.7 0 0 0-.81-1.75c-.47-.469-.962-.71-1.596-.782a2.77 2.77 0 0 0-1.756.362l-.266.16-.648-.1c-3.697-.573-5.641-.573-9.338 0l-.648.1-.266-.16a2.6 2.6 0 0 0-1.1-.365 5 5 0 0 0-.377-.034zm.786 1.538c.097.033.293.15.435.26.397.308.424.311 1.349.164 2.199-.351 3.362-.462 4.813-.462s2.614.111 4.813.462c.925.147.952.144 1.349-.164.327-.254.561-.335.911-.314a1.215 1.215 0 0 1 1.16 1.16c.021.354-.062.591-.315.904-.34.42-.318.2-.318 3.169s-.022 2.749.318 3.169c.253.313.336.55.315.904a1.23 1.23 0 0 1-1.234 1.167c-.309 0-.575-.103-.858-.334-.349-.284-.422-.295-1.167-.172a48 48 0 0 1-3.71.466c-1.581.123-3.548-.024-6.238-.466-.745-.123-.818-.112-1.167.172-.283.231-.549.334-.858.334a1.23 1.23 0 0 1-1.234-1.167c-.021-.354.062-.591.315-.904.34-.42.318-.2.318-3.169s.022-2.749-.317-3.168c-.235-.29-.323-.518-.323-.834 0-.516.338-.997.826-1.176.206-.075.599-.076.817-.001m1.408 1.457a.85.85 0 0 0-.487.394c-.168.331-.377 1.134-.492 1.888-.07.459-.07 2.421 0 2.88.127.832.367 1.709.539 1.963.201.298.527.41.867.298a.747.747 0 0 0 .419-1.067c-.09-.173-.256-.881-.322-1.368-.081-.593-.081-1.939 0-2.532.066-.487.232-1.195.322-1.368.195-.378.054-.848-.307-1.018a.86.86 0 0 0-.539-.07" fill-rule="evenodd"/></svg>