<svg xmlns="http://www.w3.org/2000/svg" viewBox="0 0 24 24"><path d="M4.656 5.281a2.4 2.4 0 0 0-.869.263c-.877.433-1.44 1.269-1.534 2.277-.049.524.153 1.266.468 1.715l.159.228v4.472l-.159.228c-.35.499-.537 1.265-.451 1.851.096.658.352 1.182.792 1.623a2.73 2.73 0 0 0 3.345.419l.267-.157.633.099c3.722.579 5.667.579 9.386 0l.633-.099.267.157c.994.586 2.18.509 3.097-.198.765-.591 1.18-1.617 1.032-2.548-.064-.4-.241-.86-.443-1.147l-.159-.228V9.764l.156-.224c.311-.443.512-1.158.473-1.678-.078-1.026-.645-1.878-1.547-2.324-.384-.19-.742-.268-1.222-.267-.562 0-1.066.147-1.477.428l-.156.107-.824-.123C14.612 5.395 13.237 5.27 12 5.27s-2.612.125-4.523.413l-.824.123-.156-.107c-.487-.333-1.222-.5-1.841-.418m2.748 3.097a.78.78 0 0 1 .337.524c.018.12-.009.259-.115.578-.218.656-.312 1.201-.368 2.14-.052.869.119 2.224.368 2.906.059.162.108.375.108.474.002.661-.793.994-1.256.526-.239-.241-.483-1.005-.625-1.955-.089-.592-.102-2.434-.021-2.991.113-.781.309-1.543.49-1.9a.745.745 0 0 1 1.082-.302"/></svg>