<svg xmlns="http://www.w3.org/2000/svg" viewBox="0 0 24 24"><path d="M17.22 2.42a2 2 0 0 1-.16.039c-.089.019-.566.47-1.834 1.734-1.733 1.726-1.863 1.875-1.865 2.149-.001.18.177.504.336.612.099.067.725.24 2.211.612l2.227.559.155.041-1.181 1.187c-1.043 1.048-1.186 1.208-1.229 1.365-.154.573.308 1.053.907.944.135-.024.357-.231 1.887-1.755.982-.978 1.759-1.783 1.79-1.856a.75.75 0 0 0-.264-.897c-.124-.081-.677-.233-2.381-.659l-2.218-.554 1.157-1.161c.766-.767 1.179-1.21 1.22-1.309a.744.744 0 0 0-.578-1.042.6.6 0 0 0-.18-.009M7.358 8.554c-.251.162-2.509 2.457-2.693 2.738-.804 1.226-.868 2.736-.168 3.962.227.396.364.565.98 1.198l.498.512-.849.85c-.741.742-.856.874-.906 1.04-.168.557.307 1.058.889.937.178-.037.249-.097 1.059-.903l.869-.863.511.498c.633.616.802.753 1.198.98 1.235.705 2.763.634 3.979-.185.326-.22 2.654-2.524 2.762-2.734a.82.82 0 0 0 .01-.672c-.036-.072-.361-.429-.721-.793l-.655-.661.662-.659c.364-.362.689-.709.721-.77.073-.137.081-.411.019-.601-.095-.287-.454-.495-.789-.457-.242.027-.383.135-1.074.828l-.599.601-1.23-1.229-1.229-1.228.659-.666c.671-.679.779-.831.779-1.097 0-.161-.089-.4-.192-.513-.187-.207-.591-.288-.859-.171-.071.031-.426.354-.788.719l-.659.664-.661-.655c-.364-.36-.719-.684-.789-.719a.8.8 0 0 0-.734.049m3.422 4.688 3 3.001-.94.93c-.779.769-.985.951-1.2 1.059a2.14 2.14 0 0 1-1.068.248c-.429 0-.852-.114-1.162-.314-.104-.067-.94-.875-1.857-1.794-1.569-1.573-1.676-1.689-1.808-1.967-.187-.391-.239-.662-.215-1.125.022-.426.113-.731.316-1.054.112-.179 1.853-1.986 1.912-1.986.012 0 1.372 1.351 3.022 3.002" fill-rule="evenodd"/></svg>