<svg xmlns="http://www.w3.org/2000/svg" viewBox="0 0 24 24"><path d="M18.44 3.305c-.561.067-1.079.154-1.42.24-1.59.4-2.83 1.326-3.284 2.45-.322.798-.268 1.789.148 2.683l.119.258-1.001 1.002L12 10.939l-.697-.696-.698-.697.061-.118c.034-.065.104-.289.158-.498.232-.917.038-1.821-.536-2.501-.849-1.004-2.23-1.607-4.003-1.749-.852-.068-1.194-.011-1.419.238-.191.212-.244.485-.211 1.097.074 1.396.445 2.621 1.058 3.489.836 1.185 1.95 1.641 3.217 1.32.209-.054.433-.124.498-.158l.118-.061.697.698.696.697-.619.62-.619.62-2.861.001c-1.573 0-2.931.017-3.017.037a.739.739 0 0 0-.348 1.246.84.84 0 0 0 .306.191c.09.025.488.045.919.045h.761l.634 1.91c.74 2.228.847 2.518 1.036 2.813.284.444.767.848 1.259 1.051.501.208.462.206 3.61.206s3.109.002 3.61-.206a2.9 2.9 0 0 0 1.259-1.051c.189-.295.296-.585 1.036-2.813l.634-1.91h.761c.431 0 .829-.02.919-.045a.84.84 0 0 0 .306-.191.739.739 0 0 0-.348-1.246c-.089-.02-1.94-.037-4.257-.037l-4.1-.001 1.627-1.627 1.627-1.627.233.105c.128.057.395.153.593.214.315.095.429.109.92.112.599.003.788-.033 1.28-.248.763-.333 1.465-1.101 1.928-2.109.481-1.048.733-2.493.654-3.746-.036-.556-.123-.752-.408-.913-.166-.094-.208-.099-.934-.105-.418-.004-.823 0-.9.009"/></svg>