<svg xmlns="http://www.w3.org/2000/svg" viewBox="0 0 24 24"><path d="M10.619 3.281c-.659.089-1.297.63-1.473 1.25-.033.115-.459 2.207-.946 4.649l-.886 4.44-1.672 1.68q-1.674 1.68-1.761 1.855a1.85 1.85 0 0 0 0 1.69c.12.239 2.035 2.154 2.274 2.274a1.85 1.85 0 0 0 1.69 0c.119-.06.816-.727 2.165-2.072L12 17.063l1.99 1.984c1.349 1.345 2.046 2.012 2.165 2.072a1.85 1.85 0 0 0 1.69 0c.239-.12 2.154-2.035 2.274-2.274a1.85 1.85 0 0 0 0-1.69q-.087-.175-1.761-1.855l-1.672-1.68-.886-4.44c-.487-2.442-.913-4.534-.946-4.649a1.853 1.853 0 0 0-2.588-1.072l-.273.137-.207-.115a1.86 1.86 0 0 0-1.167-.2m.516 1.584.105.106V15.7l-1.37 1.37-1.371 1.37-.969-.97-.97-.971 1.023-1.019c.562-.561 1.046-1.065 1.076-1.12.029-.056.472-2.198.985-4.76.816-4.081.943-4.671 1.022-4.75.128-.127.333-.121.469.015m2.199-.015c.079.079.206.669 1.022 4.75.513 2.562.956 4.704.985 4.76.03.055.514.559 1.076 1.12l1.023 1.019-.97.971-.969.97-1.371-1.37-1.37-1.37V4.971l.105-.106c.136-.136.341-.142.469-.015" fill-rule="evenodd"/></svg>