<svg xmlns="http://www.w3.org/2000/svg" viewBox="0 0 24 24"><path d="M11.82 2.276a.73.73 0 0 0-.538.515c-.023.082-.042.441-.042.799v.65H8.63c-1.478.001-2.761.018-2.959.041-.645.074-1.134.312-1.606.783a2.74 2.74 0 0 0-.696 1.116l-.109.32v9l.109.32c.151.445.362.783.695 1.116.335.335.675.546 1.116.692.309.103.358.107 1.431.123l1.112.017-1.143.857c-.661.496-1.175.911-1.219.983-.3.493.083 1.161.659 1.15.202-.004.481-.193 2.29-1.55l1.929-1.448h3.522l1.929 1.448c1.809 1.357 2.088 1.546 2.29 1.55.576.011.959-.657.659-1.15-.044-.072-.558-.487-1.219-.983l-1.143-.857 1.112-.017c1.073-.016 1.122-.02 1.431-.123a2.7 2.7 0 0 0 1.116-.692c.333-.333.544-.671.695-1.116l.109-.32v-9l-.109-.32a2.74 2.74 0 0 0-.696-1.116c-.472-.471-.961-.709-1.606-.783-.198-.023-1.481-.04-2.959-.041h-2.61v-.65c0-.711-.031-.885-.186-1.07a.78.78 0 0 0-.754-.244m6.708 3.597c.239.118.481.36.599.599l.093.188v8.68l-.093.189c-.132.268-.416.534-.674.63-.213.08-.297.081-6.453.081s-6.24-.001-6.453-.081c-.258-.096-.542-.362-.674-.63l-.093-.189-.011-4.26c-.009-3.158 0-4.304.035-4.43.093-.34.433-.7.782-.828.131-.048 1.114-.056 6.454-.049l6.3.007zM15.82 7.276a.73.73 0 0 0-.538.515c-.057.204-.057 6.214 0 6.418.108.39.52.618.92.51.22-.059.454-.287.513-.5.06-.214.062-6.215.003-6.428a.8.8 0 0 0-.353-.448.95.95 0 0 0-.545-.067m-4 2a.73.73 0 0 0-.538.515c-.059.211-.056 4.216.003 4.428.059.213.293.441.513.5.4.108.812-.12.92-.51.056-.202.056-4.216 0-4.418a.8.8 0 0 0-.353-.448.95.95 0 0 0-.545-.067m-4 2a.73.73 0 0 0-.538.515c-.055.196-.055 2.222 0 2.418.108.39.52.618.92.51.22-.059.454-.287.513-.5.058-.206.06-2.224.003-2.428a.8.8 0 0 0-.353-.448.95.95 0 0 0-.545-.067" fill-rule="evenodd"/></svg>