<svg xmlns="http://www.w3.org/2000/svg" viewBox="0 0 24 24"><path d="M11.82 2.276a.73.73 0 0 0-.538.515c-.023.082-.042.441-.042.797v.648l-2.83.015c-3.14.016-3.048.009-3.614.288A2.8 2.8 0 0 0 3.333 6.32c-.069.244-.073.531-.073 4.68s.004 4.436.073 4.68c.219.783.75 1.436 1.446 1.777.516.253.647.273 1.853.292l1.092.018-1.143.858c-.662.496-1.176.911-1.22.983-.3.493.083 1.161.659 1.15.202-.004.481-.193 2.29-1.55l1.929-1.448h3.522l1.929 1.448c1.809 1.357 2.088 1.546 2.29 1.55.576.011.959-.657.659-1.15-.044-.072-.558-.487-1.22-.983l-1.143-.858 1.092-.018c.878-.014 1.139-.031 1.332-.086a2.84 2.84 0 0 0 1.967-1.983c.069-.245.073-.517.073-4.68s-.004-4.435-.073-4.68a2.8 2.8 0 0 0-1.465-1.782c-.563-.278-.474-.271-3.612-.287l-2.83-.015v-.648c0-.709-.031-.883-.186-1.068a.78.78 0 0 0-.754-.244m4.585 5.105c.08.051.188.162.24.246l.095.153v6.453l-.121.172c-.166.236-.346.334-.619.334s-.453-.098-.619-.334l-.121-.172V7.78l.093-.149c.233-.375.691-.484 1.052-.25m-4 2c.08.051.188.162.24.246l.095.153v4.453l-.121.172c-.166.236-.346.334-.619.334s-.453-.098-.619-.334l-.121-.172V9.78l.093-.149c.233-.375.691-.484 1.052-.25m-4 2c.08.051.188.162.24.246.095.152.095.158.095 1.38v1.226l-.121.172c-.166.236-.346.334-.619.334s-.453-.098-.619-.334l-.121-.172v-1.226c0-1.214.001-1.229.093-1.376.233-.375.691-.484 1.052-.25" fill-rule="evenodd"/></svg>