<svg xmlns="http://www.w3.org/2000/svg" viewBox="0 0 24 24"><path d="M7.617 2.283q-.873.101-1.552.781A2.7 2.7 0 0 0 5.37 4.18l-.108.32-.013 1.865-.014 1.865-.327.028c-.465.039-.785.12-1.112.281a2.8 2.8 0 0 0-1.463 1.781c-.068.24-.073.48-.073 3.18s.005 2.94.073 3.18c.219.783.75 1.436 1.446 1.777.361.177.676.259 1.105.29l.345.024.024.368c.047.711.311 1.297.811 1.797.333.333.671.544 1.116.695l.32.109h9l.32-.109a2.74 2.74 0 0 0 1.116-.695c.5-.5.764-1.086.811-1.797l.024-.368.345-.024c.189-.014.452-.054.584-.089.947-.254 1.692-1.004 1.967-1.978.068-.241.073-.471.073-3.18s-.005-2.939-.073-3.18a2.8 2.8 0 0 0-1.465-1.782c-.325-.16-.645-.241-1.11-.28l-.327-.028-.014-1.865-.013-1.865-.108-.32a2.7 2.7 0 0 0-.695-1.116c-.472-.471-.961-.709-1.606-.783-.422-.049-8.296-.046-8.712.002m8.911 1.59c.239.118.481.36.599.599.092.187.093.199.104 1.978l.011 1.79H6.76V6.505c0-1.895.002-1.914.236-2.233.14-.19.38-.373.59-.45.13-.048.833-.056 4.454-.049l4.3.007zm1.877 7.508c.223.144.328.345.328.626 0 .196-.019.264-.117.402-.163.233-.345.33-.616.33s-.453-.097-.616-.33c-.098-.138-.117-.206-.117-.402a.729.729 0 0 1 1.138-.626m-1.865 4.506c.24.127.457.348.586.593.093.179.094.19.094 1.52 0 1.322-.001 1.342-.093 1.529-.132.268-.416.534-.674.63-.212.079-.302.081-4.453.081s-4.241-.002-4.453-.081c-.258-.096-.542-.362-.674-.63-.092-.187-.093-.207-.093-1.529 0-1.33.001-1.341.094-1.52.17-.324.471-.58.806-.683.055-.017 2.026-.028 4.38-.024l4.28.007z" fill-rule="evenodd"/></svg>