<svg xmlns="http://www.w3.org/2000/svg" viewBox="0 0 24 24"><path d="M7.617 2.283q-.873.101-1.552.781A2.7 2.7 0 0 0 5.37 4.18l-.108.32-.013 1.863-.014 1.864-.449.044c-.743.073-1.219.292-1.721.793a2.74 2.74 0 0 0-.696 1.116l-.109.32v6l.109.32c.151.445.362.783.695 1.116.5.5 1.086.764 1.797.811l.368.024.024.368c.047.711.311 1.297.811 1.797.333.333.671.544 1.116.695l.32.109h9l.32-.109a2.74 2.74 0 0 0 1.116-.695c.5-.5.764-1.086.811-1.797l.024-.368.368-.024a2.7 2.7 0 0 0 1.797-.811c.333-.333.544-.671.695-1.116l.109-.32v-6l-.109-.32a2.74 2.74 0 0 0-.696-1.116c-.502-.501-.978-.72-1.721-.793l-.449-.044-.014-1.864-.013-1.863-.108-.32a2.7 2.7 0 0 0-.695-1.116c-.472-.471-.961-.709-1.606-.783-.422-.049-8.296-.046-8.712.002m8.911 1.59c.239.118.481.36.599.599.092.187.093.199.104 1.978l.011 1.79H6.76V6.505c0-1.895.002-1.914.236-2.233.14-.19.38-.373.59-.45.13-.048.833-.056 4.454-.049l4.3.007zm2.999 6.003c.23.117.475.364.6.604l.093.18v5.68l-.099.195c-.13.253-.467.559-.707.641-.103.035-.29.064-.415.064h-.227l-.022-.39c-.062-1.127-.781-2.079-1.865-2.467l-.345-.123H7.46l-.345.123c-1.084.388-1.803 1.34-1.865 2.467l-.022.39h-.227c-.125 0-.312-.029-.415-.064-.24-.082-.577-.388-.707-.641l-.099-.195v-5.68l.093-.18c.165-.316.477-.589.773-.674.085-.025 2.796-.037 7.414-.033l7.28.007zm-1.827 1.44a.745.745 0 0 0 .029 1.382.65.65 0 0 0 .542 0 .748.748 0 0 0 0-1.396.67.67 0 0 0-.571.014m-1.272 4.53c.315.116.61.412.728.73.084.226.087.284.076 1.5-.012 1.231-.014 1.269-.105 1.453-.132.268-.416.534-.674.63-.212.079-.302.081-4.453.081s-4.241-.002-4.453-.081c-.258-.096-.542-.362-.674-.63-.09-.184-.093-.224-.105-1.429-.015-1.499 0-1.578.349-1.953a1.15 1.15 0 0 1 .523-.332c.102-.034 1.269-.048 4.348-.051 4.208-.004 4.209-.004 4.44.082"/></svg>