<svg xmlns="http://www.w3.org/2000/svg" viewBox="0 0 24 24"><path d="M12.58 3.047c-.721.138-1.381.801-1.536 1.545a6 6 0 0 0-.044.81V6H9.427c-.956 0-1.665.017-1.81.043-.755.138-1.414.787-1.573 1.549C6.016 7.726 6 8.39 6 9.402V11h-.573c-.315 0-.679.02-.81.043C3.71 11.209 3 12.068 3 13c0 .92.69 1.768 1.592 1.956.117.024.481.044.81.044H6v1.598c0 1.012.016 1.676.044 1.81.157.75.798 1.391 1.548 1.548.298.062 10.518.062 10.816 0a2.06 2.06 0 0 0 1.548-1.548c.028-.134.044-.798.044-1.81V15h-.598c-.329 0-.693-.02-.81-.044a2.02 2.02 0 0 1-1.559-1.651c-.163-1.051.553-2.073 1.584-2.262.131-.023.495-.043.81-.043H20V9.402c0-1.012-.016-1.676-.044-1.81-.159-.762-.818-1.411-1.573-1.549-.145-.026-.854-.043-1.81-.043H15v-.598c0-.329-.02-.693-.044-.81-.159-.762-.818-1.411-1.573-1.549a2.1 2.1 0 0 0-.803.004"/></svg>