<svg xmlns="http://www.w3.org/2000/svg" viewBox="0 0 24 24"><path d="M12.617 2.283c-.585.069-1.098.328-1.552.781a2.7 2.7 0 0 0-.813 1.803l-.024.373H9.124c-.607.001-1.261.019-1.453.041-.645.074-1.134.312-1.606.783a2.7 2.7 0 0 0-.694 1.116c-.106.317-.107.331-.122 1.684l-.015 1.363-.448.044c-.743.073-1.219.292-1.721.793a2.7 2.7 0 0 0-.693 1.116c-.091.277-.105.387-.105.82s.014.543.105.82c.146.44.357.781.692 1.116a2.7 2.7 0 0 0 1.8.811l.37.025.015 1.364c.015 1.353.016 1.367.122 1.684.148.442.359.782.693 1.116.333.333.671.544 1.116.695l.32.109h11l.32-.109a2.74 2.74 0 0 0 1.116-.695c.334-.334.545-.673.694-1.116l.108-.32.013-1.766c.015-1.886.006-1.996-.177-2.214-.197-.234-.28-.254-1.134-.279-.889-.025-1.011-.059-1.307-.357-.268-.269-.353-.483-.353-.884 0-.399.086-.616.345-.875.307-.308.432-.342 1.315-.366.854-.023.935-.043 1.134-.279.183-.218.192-.328.177-2.214L20.738 7.5l-.108-.32a2.7 2.7 0 0 0-.695-1.116c-.472-.471-.961-.709-1.606-.783-.192-.022-.846-.04-1.453-.041h-1.104l-.024-.373c-.108-1.639-1.49-2.78-3.131-2.584m.911 1.59c.239.117.481.359.599.599.085.171.095.258.114.968.022.83.042.921.245 1.105.217.197.191.194 2.074.215 1.76.02 1.782.021 1.968.113.239.118.481.36.599.599.09.183.093.223.105 1.471l.011 1.283-.453.045c-.748.073-1.222.291-1.725.793a2.7 2.7 0 0 0-.693 1.116c-.091.277-.105.387-.105.82s.014.543.105.82c.146.44.357.781.692 1.116a2.7 2.7 0 0 0 1.804.812l.375.024-.011 1.284c-.012 1.252-.014 1.289-.105 1.473-.132.268-.416.534-.674.63-.213.08-.3.081-5.453.081s-5.24-.001-5.453-.081c-.258-.096-.542-.362-.674-.63-.092-.187-.093-.206-.113-1.969-.021-1.883-.018-1.857-.215-2.074-.182-.2-.276-.221-1.105-.245-.889-.025-1.011-.059-1.307-.357-.268-.269-.353-.483-.353-.884 0-.399.086-.616.345-.875.307-.308.432-.342 1.315-.366.808-.021.876-.034 1.074-.214.228-.206.224-.178.246-2.105.02-1.76.021-1.782.113-1.968a1.43 1.43 0 0 1 .599-.599c.186-.092.208-.093 1.968-.113 1.961-.022 1.911-.016 2.134-.28.155-.184.186-.359.186-1.065 0-.708.033-.865.236-1.143.139-.188.378-.371.59-.452.232-.088.708-.061.942.053" fill-rule="evenodd"/></svg>