<svg xmlns="http://www.w3.org/2000/svg" viewBox="0 0 24 24"><path d="M4.701 3.285q-.496.071-.925.495c-.507.5-.535.642-.535 2.72s.028 2.216.535 2.724c.508.507.646.535 2.724.535s2.216-.028 2.724-.535c.507-.508.535-.646.535-2.724s-.028-2.22-.535-2.72c-.296-.292-.592-.445-.964-.498-.338-.049-3.223-.046-3.559.003m7.104-.006c-.415.101-.661.578-.507.982a.748.748 0 0 0 1.386.042.73.73 0 0 0-.11-.783.78.78 0 0 0-.769-.241m3.896.006q-.496.071-.925.495c-.507.5-.535.642-.535 2.72s.028 2.216.535 2.724c.508.507.646.535 2.724.535s2.216-.028 2.724-.535c.507-.508.535-.646.535-2.724s-.028-2.22-.535-2.72c-.296-.292-.592-.445-.964-.498-.338-.049-3.223-.046-3.559.003M8.167 4.826c.068.062.073.167.073 1.667 0 1.433-.007 1.608-.066 1.674-.062.068-.167.073-1.667.073-1.433 0-1.608-.007-1.674-.066-.068-.062-.073-.167-.073-1.667 0-1.433.007-1.608.066-1.674.062-.068.167-.073 1.667-.073 1.433 0 1.608.007 1.674.066m11 0c.068.062.073.167.073 1.667 0 1.433-.007 1.608-.066 1.674-.062.068-.167.073-1.667.073-1.433 0-1.608-.007-1.674-.066-.068-.062-.073-.167-.073-1.667 0-1.433.007-1.608.066-1.674.062-.068.167-.073 1.667-.073 1.433 0 1.608.007 1.674.066m-7.467.991a.8.8 0 0 0-.37.354c-.063.117-.072.319-.09 2.149-.02 2.011-.02 2.021-.113 2.208a1.45 1.45 0 0 1-.607.608c-.173.081-.255.085-2.2.104-2.213.022-2.127.012-2.367.266a.74.74 0 0 0-.139.786c.071.169.306.373.495.429.105.031.763.041 2.171.031l2.02-.014.32-.108c.443-.15.783-.361 1.116-.694s.544-.673.694-1.116l.108-.32.014-2.02c.01-1.408 0-2.066-.031-2.171-.056-.189-.26-.424-.429-.495a.87.87 0 0 0-.592.003m-7.895 5.462a.77.77 0 0 0-.544.597c-.077.453.303.883.781.884.157 0 .441-.164.576-.334.109-.137.122-.182.122-.426 0-.245-.012-.288-.124-.426-.212-.262-.506-.369-.811-.295m11 .001c-.391.092-.633.519-.524.924.059.218.288.453.5.511.214.06 2.224.06 2.438 0a.84.84 0 0 0 .306-.191.739.739 0 0 0-.348-1.246c-.191-.044-2.183-.043-2.372.002m5-.001a.77.77 0 0 0-.544.597c-.077.453.303.883.781.884.157 0 .441-.164.576-.334.109-.137.122-.182.122-.426 0-.245-.012-.288-.124-.426-.212-.262-.506-.369-.811-.295M4.701 14.285q-.496.071-.925.495c-.507.5-.535.642-.535 2.72s.028 2.216.535 2.724c.508.507.646.535 2.724.535s2.216-.028 2.724-.535c.507-.508.535-.646.535-2.724s-.028-2.22-.535-2.72c-.296-.292-.592-.445-.964-.498-.338-.049-3.223-.046-3.559.003m7.104-.006c-.415.101-.661.578-.507.982a.748.748 0 0 0 1.386.042.73.73 0 0 0-.11-.783.78.78 0 0 0-.769-.241m4.812.004q-.873.101-1.552.781a2.7 2.7 0 0 0-.695 1.116l-.108.32-.013 1.766c-.01 1.192 0 1.819.029 1.928a.75.75 0 0 0 1.202.38c.265-.223.258-.173.28-2.134.02-1.76.021-1.782.113-1.968a1.43 1.43 0 0 1 .599-.599c.186-.092.208-.093 1.968-.113 1.961-.022 1.911-.015 2.134-.28a.747.747 0 0 0-.397-1.202c-.193-.045-3.169-.04-3.56.005m-8.45 1.543c.068.062.073.167.073 1.667 0 1.433-.007 1.608-.066 1.674-.062.068-.167.073-1.667.073-1.433 0-1.608-.007-1.674-.066-.068-.062-.073-.167-.073-1.667 0-1.433.007-1.608.066-1.674.062-.068.167-.073 1.667-.073 1.433 0 1.608.007 1.674.066m3.446 1.555a.9.9 0 0 0-.26.25c-.091.146-.093.174-.105 1.329-.011 1.162-.01 1.183.08 1.358.051.097.161.232.246.3.137.109.182.122.426.122s.289-.013.426-.122c.085-.068.195-.203.246-.3.09-.175.091-.196.08-1.358-.012-1.157-.014-1.183-.105-1.33a.777.777 0 0 0-1.034-.249m8.192 1.898c-.415.101-.661.578-.507.982a.748.748 0 0 0 1.386.042.73.73 0 0 0-.11-.783.78.78 0 0 0-.769-.241" fill-rule="evenodd"/></svg>