<svg xmlns="http://www.w3.org/2000/svg" viewBox="0 0 24 24"><path d="M3.805 3.28c-.391.092-.633.519-.524.924.059.218.288.453.5.511.225.063 14.213.063 14.438 0a.84.84 0 0 0 .306-.191.739.739 0 0 0-.348-1.246c-.194-.045-14.181-.043-14.372.002m.812 3.003c-.584.069-1.098.328-1.552.781a2.74 2.74 0 0 0-.696 1.116l-.109.32-.011 4.772c-.008 3.436.001 4.818.034 4.938a.82.82 0 0 0 .498.505c.088.025.473.045.864.045h.704l.085.233c.186.51.673 1.082 1.171 1.378.14.083.399.199.575.257.277.091.387.105.82.105s.543-.014.82-.105a3.5 3.5 0 0 0 .575-.257c.498-.296.985-.868 1.171-1.378l.085-.233h4.698l.085.233c.186.51.673 1.082 1.171 1.378.14.083.399.199.575.257.277.091.387.105.82.105s.543-.014.82-.105a3.5 3.5 0 0 0 .575-.257c.498-.296.985-.868 1.171-1.378l.085-.233h.476c.533 0 .69-.043.902-.249a.8.8 0 0 0 .17-.248c.022-.068.24-1.113.484-2.323.491-2.442.538-2.815.42-3.32-.067-.282-1.803-4.512-2.037-4.96-.077-.148-.255-.371-.465-.582-.285-.286-.403-.372-.721-.527a4 4 0 0 0-.58-.236c-.157-.039-1.624-.052-6.8-.058-3.63-.004-6.728.007-6.883.026m13.606 1.604c.211.111.452.348.55.541.197.386 1.837 4.411 1.87 4.59.037.202.011.367-.343 2.15a197 197 0 0 1-.405 2.002c-.013.045-.06.07-.13.07-.098 0-.118-.024-.177-.21-.18-.568-.74-1.221-1.268-1.478-.464-.227-.744-.288-1.32-.288s-.856.061-1.32.288c-.528.257-1.088.91-1.268 1.478l-.067.21h-4.69l-.067-.21c-.18-.568-.74-1.221-1.268-1.478-.464-.227-.744-.288-1.32-.288s-.856.061-1.32.288c-.528.257-1.088.91-1.268 1.478l-.067.21H3.76v-4.235c0-4.637-.012-4.395.236-4.733.14-.19.38-.373.59-.45.131-.048 1.158-.056 6.794-.049l6.64.007zm-4.403.389a.73.73 0 0 0-.538.515c-.026.091-.042.787-.042 1.799v1.65l-4.13.001c-2.335 0-4.198.017-4.287.037a.739.739 0 0 0-.348 1.246.84.84 0 0 0 .306.191c.225.063 14.213.063 14.438 0a.84.84 0 0 0 .306-.191.739.739 0 0 0-.348-1.246c-.086-.02-1.115-.037-2.287-.037l-2.13-.001v-1.65c0-1.012-.016-1.708-.042-1.799a.8.8 0 0 0-.353-.448.95.95 0 0 0-.545-.067m-6.288 8.6c.235.114.478.357.595.596.133.27.133.787 0 1.057-.464.941-1.796.943-2.251.002-.314-.649.047-1.49.736-1.715.243-.08.692-.05.92.06m10 0c.235.114.478.357.595.596.133.27.133.787 0 1.057-.464.941-1.796.943-2.251.002-.314-.649.047-1.49.736-1.715.243-.08.692-.05.92.06" fill-rule="evenodd"/></svg>