<svg fill="none" xmlns="http://www.w3.org/2000/svg" viewBox="0 0 24 24"><path d="M3.805 3.280 C 3.414 3.372,3.172 3.799,3.281 4.204 C 3.340 4.422,3.569 4.657,3.781 4.715 C 4.006 4.778,17.994 4.778,18.219 4.715 C 18.307 4.691,18.444 4.605,18.525 4.524 C 18.938 4.111,18.742 3.409,18.177 3.278 C 17.983 3.233,3.996 3.235,3.805 3.280 M4.617 6.283 C 4.033 6.352,3.519 6.611,3.065 7.064 C 2.732 7.396,2.521 7.735,2.369 8.180 L 2.260 8.500 2.249 13.272 C 2.241 16.708,2.250 18.090,2.283 18.210 C 2.340 18.422,2.572 18.657,2.781 18.715 C 2.869 18.740,3.254 18.760,3.645 18.760 L 4.349 18.760 4.434 18.993 C 4.620 19.503,5.107 20.075,5.605 20.371 C 5.745 20.454,6.004 20.570,6.180 20.628 C 6.457 20.719,6.567 20.733,7.000 20.733 C 7.433 20.733,7.543 20.719,7.820 20.628 C 7.996 20.570,8.255 20.454,8.395 20.371 C 8.893 20.075,9.380 19.503,9.566 18.993 L 9.651 18.760 12.000 18.760 L 14.349 18.760 14.434 18.993 C 14.620 19.503,15.107 20.075,15.605 20.371 C 15.745 20.454,16.004 20.570,16.180 20.628 C 16.457 20.719,16.567 20.733,17.000 20.733 C 17.433 20.733,17.543 20.719,17.820 20.628 C 17.996 20.570,18.255 20.454,18.395 20.371 C 18.893 20.075,19.380 19.503,19.566 18.993 L 19.651 18.760 20.127 18.760 C 20.660 18.760,20.817 18.717,21.029 18.511 C 21.100 18.442,21.177 18.330,21.199 18.263 C 21.221 18.195,21.439 17.150,21.683 15.940 C 22.174 13.498,22.221 13.125,22.103 12.620 C 22.036 12.338,20.300 8.108,20.066 7.660 C 19.989 7.512,19.811 7.289,19.601 7.078 C 19.316 6.792,19.198 6.706,18.880 6.551 C 18.671 6.449,18.410 6.343,18.300 6.315 C 18.143 6.276,16.676 6.263,11.500 6.257 C 7.870 6.253,4.772 6.264,4.617 6.283 M18.107 7.846 C 18.264 7.905,18.402 7.997,18.540 8.136 C 18.736 8.334,18.769 8.406,19.696 10.636 C 20.584 12.772,20.650 12.949,20.651 13.176 C 20.651 13.369,20.001 16.804,19.895 17.170 C 19.869 17.261,19.640 17.269,19.640 17.179 C 19.640 17.078,19.420 16.625,19.248 16.372 C 18.907 15.870,18.370 15.495,17.760 15.331 C 17.403 15.236,16.597 15.236,16.240 15.331 C 15.630 15.495,15.093 15.870,14.752 16.372 C 14.580 16.625,14.360 17.078,14.360 17.179 C 14.360 17.233,14.086 17.240,12.000 17.240 C 9.914 17.240,9.640 17.233,9.640 17.179 C 9.640 17.078,9.420 16.625,9.248 16.372 C 8.907 15.870,8.370 15.495,7.760 15.331 C 7.403 15.236,6.597 15.236,6.240 15.331 C 5.630 15.495,5.093 15.870,4.752 16.372 C 4.580 16.625,4.360 17.078,4.360 17.179 C 4.360 17.228,4.302 17.240,4.059 17.240 L 3.759 17.240 3.769 12.950 L 3.780 8.660 3.873 8.480 C 4.038 8.163,4.350 7.891,4.646 7.806 C 4.729 7.782,7.242 7.766,11.328 7.764 L 17.877 7.760 18.107 7.846 M13.700 8.316 C 13.506 8.405,13.384 8.532,13.302 8.729 C 13.249 8.855,13.240 9.132,13.240 10.559 L 13.240 12.240 9.050 12.241 C 5.062 12.242,4.852 12.245,4.700 12.316 C 4.096 12.594,4.096 13.406,4.700 13.684 C 4.854 13.755,5.143 13.758,12.000 13.758 C 18.857 13.758,19.146 13.755,19.300 13.684 C 19.916 13.400,19.899 12.564,19.271 12.302 C 19.143 12.249,18.820 12.240,16.941 12.240 L 14.760 12.240 14.759 10.550 C 14.758 8.993,14.752 8.847,14.684 8.700 C 14.503 8.308,14.077 8.142,13.700 8.316 M7.532 16.876 C 7.767 16.990,8.010 17.233,8.127 17.472 C 8.260 17.742,8.260 18.259,8.127 18.529 C 7.663 19.470,6.331 19.472,5.876 18.531 C 5.562 17.882,5.923 17.041,6.612 16.816 C 6.855 16.736,7.304 16.766,7.532 16.876 M17.532 16.876 C 17.767 16.990,18.010 17.233,18.127 17.472 C 18.260 17.742,18.260 18.259,18.127 18.529 C 17.663 19.470,16.331 19.472,15.876 18.531 C 15.562 17.882,15.923 17.041,16.612 16.816 C 16.855 16.736,17.304 16.766,17.532 16.876 " stroke="none" fill-rule="evenodd"/></svg>