<svg xmlns="http://www.w3.org/2000/svg" viewBox="0 0 24 24"><path d="M3.805 3.28c-.391.092-.633.519-.524.924.059.218.288.453.5.511.225.063 14.213.063 14.438 0a.84.84 0 0 0 .306-.191.739.739 0 0 0-.348-1.246c-.194-.045-14.181-.043-14.372.002m.851 3.002a2.74 2.74 0 0 0-2.112 1.495c-.301.616-.28.216-.294 5.515-.008 3.417.001 4.799.033 4.919a.82.82 0 0 0 .498.504c.088.025.473.045.864.045h.704l.085.233c.186.51.673 1.082 1.171 1.378.14.083.399.199.575.257.277.091.387.105.82.105s.543-.014.82-.105a3.5 3.5 0 0 0 .575-.257c.498-.296.985-.868 1.171-1.378l.085-.233h4.698l.085.233c.186.51.673 1.082 1.171 1.378.14.083.399.199.575.257.277.091.387.105.82.105s.543-.014.82-.105a3.5 3.5 0 0 0 .575-.257c.498-.296.985-.868 1.171-1.378l.085-.233.484-.001c.386-.001.518-.016.645-.075.183-.085.357-.256.415-.41.022-.058.248-1.148.502-2.422.51-2.554.531-2.735.386-3.296-.077-.3-1.832-4.556-2.034-4.932-.06-.112-.262-.359-.449-.548-.276-.28-.404-.376-.68-.51-.684-.332-.01-.304-7.42-.311-3.63-.003-6.71.009-6.844.027m9.749 2.099c.08.051.188.162.24.246l.095.153.012 1.728.012 1.729 2.231.011 2.231.012.162.107a.7.7 0 0 1 .345.64c0 .196-.019.264-.117.402-.064.092-.18.204-.257.249-.139.082-.155.082-7.359.082s-7.22 0-7.359-.082a1 1 0 0 1-.257-.249c-.098-.139-.117-.206-.117-.406 0-.285.118-.497.36-.648l.153-.095 4.228-.011 4.228-.011.012-1.729.012-1.729.093-.149c.233-.375.691-.484 1.052-.25m-6.873 8.495c.235.114.478.357.595.596.133.27.133.787 0 1.057-.464.941-1.796.943-2.251.002-.314-.649.047-1.49.736-1.715.243-.08.692-.05.92.06m10 0c.235.114.478.357.595.596.133.27.133.787 0 1.057-.464.941-1.796.943-2.251.002-.314-.649.047-1.49.736-1.715.243-.08.692-.05.92.06" fill-rule="evenodd"/></svg>