<svg xmlns="http://www.w3.org/2000/svg" viewBox="0 0 24 24"><path d="M3.805 3.28c-.391.092-.633.519-.524.924.059.218.288.453.5.511.225.063 14.213.063 14.438 0a.84.84 0 0 0 .306-.191.739.739 0 0 0-.348-1.246c-.194-.045-14.181-.043-14.372.002m.812 3.003c-.584.069-1.098.328-1.552.781a2.74 2.74 0 0 0-.696 1.116l-.109.32-.011 4.772c-.008 3.436.001 4.818.034 4.938a.82.82 0 0 0 .498.505c.088.025.473.045.864.045h.704l.085.233c.186.51.673 1.082 1.171 1.378.14.083.399.199.575.257.277.091.387.105.82.105s.543-.014.82-.105a3.5 3.5 0 0 0 .575-.257c.498-.296.985-.868 1.171-1.378l.085-.233h4.698l.085.233c.186.51.673 1.082 1.171 1.378.14.083.399.199.575.257.277.091.387.105.82.105s.543-.014.82-.105a3.5 3.5 0 0 0 .575-.257c.498-.296.985-.868 1.171-1.378l.085-.233h.476c.533 0 .69-.043.902-.249a.8.8 0 0 0 .17-.248c.022-.068.24-1.113.484-2.323.491-2.442.538-2.815.42-3.32-.067-.282-1.803-4.512-2.037-4.96-.077-.148-.255-.371-.465-.582-.285-.286-.403-.372-.721-.527a4 4 0 0 0-.58-.236c-.157-.039-1.624-.052-6.8-.058-3.63-.004-6.728.007-6.883.026m13.49 1.563c.157.059.295.151.433.29.196.198.229.27 1.156 2.5.888 2.136.954 2.313.955 2.54 0 .193-.65 3.628-.756 3.994-.026.091-.255.099-.255.009 0-.101-.22-.554-.392-.807a2.63 2.63 0 0 0-1.488-1.041c-.357-.095-1.163-.095-1.52 0a2.63 2.63 0 0 0-1.488 1.041c-.172.253-.392.706-.392.807 0 .054-.274.061-2.36.061s-2.36-.007-2.36-.061c0-.101-.22-.554-.392-.807a2.63 2.63 0 0 0-1.488-1.041c-.357-.095-1.163-.095-1.52 0a2.63 2.63 0 0 0-1.488 1.041c-.172.253-.392.706-.392.807 0 .049-.058.061-.301.061h-.3l.01-4.29.011-4.29.093-.18c.165-.317.477-.589.773-.674.083-.024 2.596-.04 6.682-.042l6.549-.004zm-4.407.47a.73.73 0 0 0-.398.413c-.053.126-.062.403-.062 1.83v1.681l-4.19.001c-3.988.001-4.198.004-4.35.075a.743.743 0 0 0 0 1.368c.154.071.443.074 7.3.074s7.146-.003 7.3-.074a.745.745 0 0 0-.029-1.382c-.128-.053-.451-.062-2.33-.062H14.76l-.001-1.69c-.001-1.557-.007-1.703-.075-1.85-.181-.392-.607-.558-.984-.384m-6.168 8.56c.235.114.478.357.595.596.133.27.133.787 0 1.057-.464.941-1.796.943-2.251.002-.314-.649.047-1.49.736-1.715.243-.08.692-.05.92.06m10 0c.235.114.478.357.595.596.133.27.133.787 0 1.057-.464.941-1.796.943-2.251.002-.314-.649.047-1.49.736-1.715.243-.08.692-.05.92.06"/></svg>