<svg xmlns="http://www.w3.org/2000/svg" viewBox="0 0 24 24"><path d="M11.486 3.125c-.301.05-.702.216-1.006.418-.178.118-1.128 1.043-3.003 2.925C4.839 9.114 4.727 9.232 4.57 9.54c-.33.648-.31.33-.31 4.9v4.06l.109.32c.151.445.362.783.695 1.116s.671.544 1.116.695l.32.109h11l.32-.109a2.74 2.74 0 0 0 1.116-.695c.333-.333.544-.671.695-1.116l.109-.32v-4.04c0-3.251-.011-4.083-.054-4.26a4 4 0 0 0-.234-.6l-.18-.38-2.746-2.752C14.653 4.59 13.697 3.66 13.52 3.543a2.8 2.8 0 0 0-2.034-.418m-1.122 5.741c.15.082.218.152.295.308.133.266.128.377-.037.742-.205.454-.267.729-.291 1.291-.026.606.047 1.083.258 1.693.527 1.526.585 1.794.586 2.72.001.548-.015.754-.084 1.06-.16.719-.415 1.259-.681 1.441-.118.081-.193.099-.41.099-.335 0-.516-.109-.661-.398-.131-.261-.125-.374.038-.737.243-.542.282-.749.28-1.485-.002-.613-.011-.691-.126-1.1a22 22 0 0 0-.326-1.02c-.248-.713-.364-1.272-.393-1.9-.057-1.222.365-2.533.888-2.764a.77.77 0 0 1 .664.05m4 0c.15.082.218.152.295.308.133.266.128.377-.037.742-.205.454-.267.729-.291 1.291-.026.606.047 1.083.258 1.693.527 1.526.585 1.794.586 2.72.001.548-.015.754-.084 1.06-.16.719-.415 1.259-.681 1.441-.118.081-.193.099-.41.099-.335 0-.516-.109-.661-.398-.131-.261-.125-.374.038-.737.243-.542.282-.749.28-1.485-.002-.613-.011-.691-.126-1.1a22 22 0 0 0-.326-1.02c-.248-.713-.364-1.272-.393-1.9-.057-1.222.365-2.533.888-2.764a.77.77 0 0 1 .664.05"/></svg>