<svg xmlns="http://www.w3.org/2000/svg" viewBox="0 0 24 24"><path d="M11.341 3.042c-.319.05-.584.139-.921.31-.256.13-.514.375-3.013 2.865C5.87 7.748 4.603 9.043 4.512 9.175c-.213.31-.368.66-.447 1.013-.058.255-.065.732-.065 4.132 0 4.345-.01 4.18.306 4.836.311.645.895 1.143 1.634 1.395l.32.109h5.44c5.878 0 5.592.01 6.12-.214a2.8 2.8 0 0 0 1.577-1.806c.081-.293.083-.377.083-4.3s-.002-4.007-.083-4.3c-.122-.441-.331-.804-.7-1.214-.522-.582-5.138-5.161-5.337-5.294a3.3 3.3 0 0 0-.903-.427 3.4 3.4 0 0 0-1.116-.063M10.21 8.81c.17.129.31.401.31.6 0 .098-.075.288-.236.597-.328.628-.422.952-.423 1.453-.001.607.113.927.58 1.622.488.726.672 1.257.707 2.047.037.808-.093 1.402-.475 2.179-.317.642-.541.852-.909.852-.419 0-.732-.315-.738-.742-.003-.171.024-.25.161-.481.315-.531.448-.936.48-1.457.037-.605-.119-1.077-.564-1.712-.46-.657-.691-1.311-.731-2.071-.04-.771.146-1.57.533-2.285.329-.61.496-.743.899-.723.214.01.292.034.406.121m3.817-.087c.272.102.463.388.467.699.003.17-.024.251-.16.481-.332.563-.494 1.079-.494 1.576 0 .539.173 1.017.577 1.593.466.665.693 1.315.73 2.088.037.759-.102 1.387-.475 2.148-.315.641-.54.852-.908.852-.419 0-.732-.315-.738-.742-.003-.171.024-.25.161-.481.315-.531.448-.936.48-1.457.037-.605-.119-1.077-.564-1.712-.625-.892-.858-1.89-.685-2.928.154-.919.658-1.937 1.041-2.104a.9.9 0 0 1 .568-.013"/></svg>