<svg xmlns="http://www.w3.org/2000/svg" viewBox="0 0 24 24"><path d="M11.486 3.125c-.301.05-.702.216-1.006.418-.178.118-1.128 1.043-3.003 2.925C4.839 9.114 4.727 9.232 4.57 9.54c-.33.648-.31.33-.31 4.9v4.06l.109.32c.151.445.362.783.695 1.116s.671.544 1.116.695l.32.109h11l.32-.109a2.74 2.74 0 0 0 1.116-.695c.333-.333.544-.671.695-1.116l.109-.32v-4.04c0-3.251-.011-4.083-.054-4.26a4 4 0 0 0-.234-.6l-.18-.38-2.746-2.752C14.653 4.59 13.697 3.66 13.52 3.543a2.8 2.8 0 0 0-2.034-.418m1.074 1.592c.127.064.961.871 2.845 2.757 2.535 2.535 2.669 2.677 2.751 2.9.086.233.086.235.075 4.1l-.011 3.866-.099.195c-.13.253-.467.559-.707.641-.169.057-.72.064-5.414.064s-5.245-.007-5.414-.064c-.24-.082-.577-.388-.707-.641l-.099-.195-.011-3.866-.011-3.867.086-.233c.082-.222.219-.367 2.691-2.845 1.433-1.437 2.672-2.658 2.753-2.714.247-.172.422-.217.772-.203.232.01.369.039.5.105M9.654 8.842c-.273.135-.53.597-.689 1.238-.272 1.091-.203 2.164.217 3.365.418 1.196.498 1.548.498 2.17-.001.604-.086.994-.328 1.499-.104.215-.119.284-.099.452q.046.388.364.574a.76.76 0 0 0 .982-.189c.117-.15.336-.641.415-.933q.443-1.63-.195-3.458c-.423-1.211-.499-1.552-.498-2.215.001-.579.08-.931.33-1.459.1-.213.116-.285.096-.452a.747.747 0 0 0-1.093-.592m4 0c-.273.135-.53.597-.689 1.238-.272 1.091-.203 2.164.217 3.365.418 1.196.498 1.548.498 2.17-.001.604-.086.994-.328 1.499-.104.215-.119.284-.099.452q.046.388.364.574a.76.76 0 0 0 .982-.189c.117-.15.336-.641.415-.933q.443-1.63-.195-3.458c-.423-1.211-.499-1.552-.498-2.215.001-.579.08-.931.33-1.459.1-.213.116-.285.096-.452a.747.747 0 0 0-1.093-.592"/></svg>