<svg xmlns="http://www.w3.org/2000/svg" viewBox="0 0 24 24"><path d="M11.486 3.125c-.301.05-.702.216-1.006.418-.178.118-1.128 1.043-3.003 2.925C4.839 9.114 4.727 9.232 4.57 9.54c-.33.648-.31.33-.31 4.9v4.06l.109.32c.151.445.362.783.695 1.116s.671.544 1.116.695l.32.109h11l.32-.109a2.74 2.74 0 0 0 1.116-.695c.333-.333.544-.671.695-1.116l.109-.32v-4.04c0-3.251-.011-4.083-.054-4.26a4 4 0 0 0-.234-.6l-.18-.38-2.746-2.752C14.653 4.59 13.697 3.66 13.52 3.543a2.8 2.8 0 0 0-2.034-.418m1.058 1.593c.201.101.626.51 2.881 2.77 2.511 2.517 2.65 2.664 2.731 2.885.085.233.085.237.075 4.1l-.011 3.867-.093.189c-.132.268-.416.534-.674.63-.213.08-.3.081-5.453.081s-5.24-.001-5.453-.081c-.258-.096-.542-.362-.674-.63l-.093-.189-.011-3.867c-.01-3.863-.01-3.867.075-4.1.081-.221.22-.368 2.731-2.885C11.558 4.498 11.437 4.6 12 4.6c.261 0 .343.018.544.118M9.7 8.816c-.346.151-.84 1.061-1.022 1.884-.179.81-.091 1.713.238 2.439.064.14.265.484.447.765.434.671.53.941.532 1.496.001.549-.07.813-.395 1.46-.143.286-.261.567-.26.624.001.399.36.756.76.756.368 0 .608-.218.915-.831.391-.778.553-1.564.481-2.327-.066-.703-.257-1.223-.69-1.88-.527-.799-.598-.989-.6-1.602-.002-.548.069-.812.394-1.46.152-.303.26-.57.26-.64-.003-.262-.245-.604-.493-.697a.9.9 0 0 0-.567.013m4 0c-.346.151-.84 1.061-1.022 1.884-.179.81-.091 1.713.238 2.439.064.14.265.484.447.765.434.671.53.941.532 1.496.001.549-.07.813-.395 1.46-.143.286-.261.567-.26.624.001.399.36.756.76.756.368 0 .608-.218.915-.831.391-.778.553-1.564.481-2.327-.066-.703-.257-1.223-.69-1.88-.527-.799-.598-.989-.6-1.602-.002-.548.069-.812.394-1.46.152-.303.26-.57.26-.64-.003-.262-.245-.604-.493-.697a.9.9 0 0 0-.567.013" fill-rule="evenodd"/></svg>