<svg fill="none" xmlns="http://www.w3.org/2000/svg" viewBox="0 0 24 24"><path d="M11.486 3.125 C 11.185 3.175,10.784 3.341,10.480 3.543 C 10.302 3.661,9.352 4.586,7.477 6.468 C 4.839 9.114,4.727 9.232,4.570 9.540 C 4.240 10.188,4.260 9.870,4.260 14.440 L 4.260 18.500 4.369 18.820 C 4.520 19.265,4.731 19.603,5.064 19.936 C 5.397 20.269,5.735 20.480,6.180 20.631 L 6.500 20.740 12.000 20.740 L 17.500 20.740 17.820 20.631 C 18.265 20.480,18.603 20.269,18.936 19.936 C 19.269 19.603,19.480 19.265,19.631 18.820 L 19.740 18.500 19.740 14.460 C 19.740 11.209,19.729 10.377,19.686 10.200 C 19.657 10.079,19.551 9.809,19.452 9.600 L 19.272 9.220 16.526 6.468 C 14.653 4.590,13.697 3.660,13.520 3.543 C 12.923 3.148,12.219 3.003,11.486 3.125 M12.544 4.718 C 12.745 4.819,13.170 5.228,15.425 7.488 C 17.936 10.005,18.075 10.152,18.156 10.373 C 18.241 10.606,18.241 10.610,18.231 14.473 L 18.220 18.340 18.127 18.529 C 17.995 18.797,17.711 19.063,17.453 19.159 C 17.240 19.239,17.153 19.240,12.000 19.240 C 6.847 19.240,6.760 19.239,6.547 19.159 C 6.289 19.063,6.005 18.797,5.873 18.529 L 5.780 18.340 5.769 14.473 C 5.759 10.610,5.759 10.606,5.844 10.373 C 5.925 10.152,6.064 10.005,8.575 7.488 C 11.558 4.498,11.437 4.600,12.000 4.600 C 12.261 4.600,12.343 4.618,12.544 4.718 M9.700 8.816 C 9.322 8.983,8.999 9.685,8.856 10.650 C 8.727 11.526,8.838 12.426,9.205 13.480 C 9.316 13.799,9.463 14.258,9.531 14.500 C 9.646 14.909,9.655 14.987,9.657 15.600 C 9.659 16.336,9.620 16.543,9.377 17.085 C 9.214 17.448,9.208 17.561,9.339 17.822 C 9.484 18.111,9.665 18.220,10.000 18.220 C 10.217 18.220,10.292 18.202,10.410 18.121 C 10.676 17.939,10.931 17.399,11.091 16.680 C 11.160 16.374,11.176 16.168,11.175 15.620 C 11.174 14.694,11.116 14.426,10.589 12.900 C 10.378 12.290,10.305 11.813,10.331 11.207 C 10.355 10.645,10.417 10.370,10.622 9.916 C 10.787 9.551,10.792 9.440,10.659 9.174 C 10.488 8.829,10.045 8.664,9.700 8.816 M13.700 8.816 C 13.322 8.983,12.999 9.685,12.856 10.650 C 12.727 11.526,12.838 12.426,13.205 13.480 C 13.316 13.799,13.463 14.258,13.531 14.500 C 13.646 14.909,13.655 14.987,13.657 15.600 C 13.659 16.336,13.620 16.543,13.377 17.085 C 13.214 17.448,13.208 17.561,13.339 17.822 C 13.484 18.111,13.665 18.220,14.000 18.220 C 14.217 18.220,14.292 18.202,14.410 18.121 C 14.676 17.939,14.931 17.399,15.091 16.680 C 15.160 16.374,15.176 16.168,15.175 15.620 C 15.174 14.694,15.116 14.426,14.589 12.900 C 14.378 12.290,14.305 11.813,14.331 11.207 C 14.355 10.645,14.417 10.370,14.622 9.916 C 14.787 9.551,14.792 9.440,14.659 9.174 C 14.488 8.829,14.045 8.664,13.700 8.816 " stroke="none" fill-rule="evenodd" fill="currentColor"/></svg>