<svg xmlns="http://www.w3.org/2000/svg" viewBox="0 0 24 24"><path d="M5.595 2.282c-.46.05-.773.142-1.215.357-1.06.514-1.74 1.36-2.03 2.521a4 4 0 0 0 0 1.68c.183.733.493 1.287 1.008 1.802s1.071.826 1.802 1.007c.855.212 1.989.042 2.724-.408l.184-.113 1.436 1.436L10.94 12l-1.433 1.433-1.432 1.432-.411-.206a3.6 3.6 0 0 0-2.029-.376 3.2 3.2 0 0 0-1.255.356c-1.06.514-1.74 1.36-2.03 2.521a4 4 0 0 0 0 1.68c.183.733.493 1.287 1.008 1.802.73.73 1.606 1.092 2.642 1.092s1.912-.362 2.642-1.092c.516-.515.826-1.071 1.007-1.802.212-.855.042-1.989-.408-2.724l-.113-.184 5.739-5.736c3.156-3.155 5.762-5.782 5.792-5.837a.77.77 0 0 0-.31-1.025c-.134-.069-.424-.089-.609-.041-.086.023-1.185 1.096-3.93 3.839L12 10.94l-1.436-1.436-1.436-1.436.113-.184c.45-.735.62-1.869.408-2.724-.313-1.264-1.137-2.199-2.356-2.675-.441-.173-1.171-.26-1.698-.203m1.133 1.592A2.34 2.34 0 0 1 8.145 5.32c.056.164.074.337.074.68 0 .686-.173 1.116-.637 1.579-.41.41-.838.607-1.405.648-.681.05-1.264-.16-1.734-.625-.487-.48-.662-.904-.662-1.602 0-.687.173-1.115.638-1.581A2.27 2.27 0 0 1 5.6 3.785c.226-.044.903.01 1.128.089m7.077 9.405c-.392.095-.632.518-.525.926.041.158.344.474 3.193 3.322 2.848 2.849 3.164 3.152 3.322 3.193a.75.75 0 0 0 .925-.925c-.042-.158-.345-.474-3.153-3.288-1.709-1.712-3.152-3.136-3.207-3.165a.94.94 0 0 0-.555-.063m-7.077 2.595a2.34 2.34 0 0 1 1.417 1.446c.056.164.074.337.074.68 0 .686-.173 1.116-.637 1.579-.41.41-.838.607-1.405.648-.681.05-1.264-.16-1.734-.625-.487-.48-.662-.904-.662-1.602 0-.687.173-1.115.638-1.581a2.27 2.27 0 0 1 1.181-.634c.226-.044.903.01 1.128.089" fill-rule="evenodd"/></svg>