<svg fill="none" xmlns="http://www.w3.org/2000/svg" viewBox="0 0 24 24"><path d="M5.595 2.282 C 5.135 2.332,4.822 2.424,4.380 2.639 C 3.320 3.153,2.640 3.999,2.350 5.160 C 2.232 5.634,2.232 6.366,2.350 6.840 C 2.533 7.573,2.843 8.127,3.358 8.642 C 3.873 9.158,4.429 9.468,5.160 9.649 C 6.015 9.861,7.149 9.691,7.884 9.241 L 8.068 9.128 9.504 10.564 L 10.940 12.000 9.507 13.433 L 8.075 14.865 7.664 14.659 C 7.014 14.334,6.344 14.209,5.635 14.283 C 5.121 14.336,4.839 14.416,4.380 14.639 C 3.320 15.153,2.640 15.999,2.350 17.160 C 2.232 17.634,2.232 18.366,2.350 18.840 C 2.533 19.573,2.843 20.127,3.358 20.642 C 4.088 21.372,4.964 21.734,6.000 21.734 C 7.036 21.734,7.912 21.372,8.642 20.642 C 9.158 20.127,9.468 19.571,9.649 18.840 C 9.861 17.985,9.691 16.851,9.241 16.116 L 9.128 15.932 14.867 10.196 C 18.023 7.041,20.629 4.414,20.659 4.359 C 20.852 3.997,20.707 3.520,20.349 3.334 C 20.215 3.265,19.925 3.245,19.740 3.293 C 19.654 3.316,18.555 4.389,15.810 7.132 L 12.000 10.940 10.564 9.504 L 9.128 8.068 9.241 7.884 C 9.691 7.149,9.861 6.015,9.649 5.160 C 9.336 3.896,8.512 2.961,7.293 2.485 C 6.852 2.312,6.122 2.225,5.595 2.282 M13.805 13.279 C 13.413 13.374,13.173 13.797,13.280 14.205 C 13.321 14.363,13.624 14.679,16.473 17.527 C 19.321 20.376,19.637 20.679,19.795 20.720 C 20.366 20.869,20.870 20.366,20.720 19.795 C 20.678 19.637,20.375 19.321,17.567 16.507 C 15.858 14.795,14.415 13.371,14.360 13.342 C 14.221 13.269,13.966 13.240,13.805 13.279 " stroke="none" fill-rule="evenodd" fill="currentColor"/></svg>