<svg xmlns="http://www.w3.org/2000/svg" viewBox="0 0 24 24"><path d="M11.1 2.279a3.5 3.5 0 0 0-1.628.605c-.307.207-.77.668-.932.929l-.12.192-.22-.032c-.396-.059-1.273-.034-1.58.044a3.7 3.7 0 0 0-1.688.989c-.395.405-.576.679-.771 1.172-.19.478-.253.888-.226 1.461.012.276.033.564.046.641.022.131.013.147-.149.248-.655.409-1.252 1.255-1.477 2.092-.123.456-.123 1.304 0 1.76.225.837.822 1.683 1.477 2.092.162.101.171.117.149.248a9 9 0 0 0-.046.641c-.019.39-.009.576.045.84.125.616.396 1.177.775 1.61.539.615 1.101.967 1.872 1.174.298.08 1.216.104 1.593.042l.2-.033.108.173c.408.655 1.254 1.253 2.092 1.478.456.123 1.304.123 1.76 0a4 4 0 0 0 1.148-.529c.307-.207.77-.668.932-.928.114-.183.127-.192.26-.17.352.058 1.106.07 1.377.022.529-.095 1.069-.312 1.455-.587.278-.197.752-.68.931-.948q.159-.237.157-.153c0 .044-.056.573-.124 1.174-.076.671-.116 1.202-.105 1.374.085 1.286 1.421 2.162 2.651 1.739.329-.113.529-.24.786-.499.409-.412.622-.971.578-1.52-.012-.154-.39-1.936-.84-3.96-.77-3.467-.819-3.71-.839-4.2-.035-.801-.215-1.37-.631-1.988-.207-.307-.668-.77-.928-.932-.183-.114-.192-.127-.17-.26.058-.352.07-1.106.022-1.377-.137-.768-.438-1.356-.97-1.897a3.74 3.74 0 0 0-1.69-.989c-.307-.078-1.184-.103-1.58-.044l-.22.032-.12-.192c-.343-.553-1.167-1.173-1.84-1.385a4.1 4.1 0 0 0-1.52-.149m.914 1.544q.925.236 1.384 1.188c.108.225.247.457.309.516.241.23.507.249.956.069.861-.344 1.721-.175 2.33.46.593.617.742 1.455.407 2.292-.176.438-.155.706.073.945.059.062.291.201.516.309.299.145.468.256.627.415.816.817.83 2.115.031 2.936a2 2 0 0 1-.772.506c-.577.235-.718.588-.475 1.193.065.165.136.422.158.573a2.09 2.09 0 0 1-1.631 2.317c-.472.1-.838.056-1.332-.163-.357-.157-.649-.12-.909.116-.052.047-.183.27-.291.496-.152.317-.251.465-.432.642a2.06 2.06 0 0 1-2.926.001c-.176-.174-.279-.325-.421-.622-.104-.216-.235-.443-.292-.505-.223-.243-.553-.289-.919-.128a3.5 3.5 0 0 1-.463.16c-.884.225-1.886-.26-2.302-1.115-.277-.568-.29-1.147-.04-1.772.243-.605.102-.958-.475-1.193a2 2 0 0 1-.789-.525c-.887-.923-.724-2.452.336-3.146a3.5 3.5 0 0 1 .492-.264c.124-.049.28-.146.348-.216.244-.253.268-.512.088-.96-.335-.837-.186-1.675.407-2.292.609-.635 1.469-.804 2.33-.46.459.184.716.162.971-.084.07-.068.167-.224.216-.348.201-.507.584-.951 1.016-1.175a2.2 2.2 0 0 1 1.474-.166m-1.933 3.461c-1.113.134-1.959.894-2.241 2.012-.087.346-.104.794-.037.971.092.245.436.49.688.492.226.002.563-.204.676-.413a2.4 2.4 0 0 0 .094-.432c.029-.197.092-.438.14-.535.177-.366.598-.618 1.036-.62.321-.001.657-.219.76-.492a.75.75 0 0 0-.15-.761c-.215-.228-.459-.284-.966-.222m4.619 4.533c-.279.125-.416.353-.463.769-.044.394-.166.659-.4.869-.21.189-.369.247-.83.303q-.292.035-.43.129c-.159.107-.337.432-.336.611.002.263.243.605.492.699.162.062.583.053.939-.02 1.131-.231 1.947-1.196 2.07-2.451a1.1 1.1 0 0 0-.022-.425c-.062-.19-.263-.418-.428-.487a.87.87 0 0 0-.592.003m5.899 6.333c.176.797.321 1.524.321 1.615 0 .138-.025.19-.155.32-.131.13-.182.155-.322.155-.333 0-.523-.194-.523-.533 0-.126.24-2.398.323-3.062.007-.057.049.119.356 1.505" fill-rule="evenodd"/></svg>