<svg xmlns="http://www.w3.org/2000/svg" viewBox="0 0 24 24"><path d="M11.08 2.279a3.56 3.56 0 0 0-2.458 1.432l-.236.319-.143-.044c-.08-.025-.416-.043-.763-.042-.554.002-.658.014-.972.109-1.038.317-1.819.992-2.268 1.962a4 4 0 0 0-.219.585c-.095.36-.123 1.056-.061 1.475.047.317.046.345-.02.384-.24.139-.694.545-.901.805a4.2 4.2 0 0 0-.684 1.356c-.069.256-.086.431-.086.88 0 .68.075 1.007.371 1.6.249.501.597.919 1.029 1.238l.329.242-.029.22c-.057.43-.032 1.281.046 1.58a3.63 3.63 0 0 0 2.493 2.564c.444.132 1.209.174 1.616.088l.263-.056.258.341q.507.672 1.255 1.043c.583.29.921.37 1.58.373.662.002 1.03-.082 1.62-.374a3.5 3.5 0 0 0 1.255-1.042l.258-.341.263.056c.408.086 1.172.044 1.616-.088.815-.242 1.54-.769 1.989-1.445.116-.174.159-.216.159-.153 0 .048-.056.579-.124 1.18-.076.671-.116 1.202-.105 1.374.085 1.286 1.421 2.162 2.651 1.739.329-.113.529-.24.786-.499.409-.412.622-.971.578-1.52-.012-.154-.391-1.936-.842-3.961-.78-3.5-.821-3.706-.84-4.2-.025-.629-.117-1.017-.364-1.525a3.7 3.7 0 0 0-1.304-1.463l-.104-.065.058-.273c.073-.35.046-1.17-.05-1.533a4.6 4.6 0 0 0-.514-1.123 4.1 4.1 0 0 0-.946-.935 3.5 3.5 0 0 0-1.028-.488c-.315-.096-.418-.108-.972-.11-.347-.001-.683.017-.763.042l-.143.044-.236-.319c-.644-.872-1.598-1.382-2.698-1.445a4 4 0 0 0-.6.013m-.247 5.058a.9.9 0 0 1 .364.396.75.75 0 0 1-.15.761c-.162.172-.316.235-.654.269-.358.036-.603.133-.779.31-.223.222-.303.446-.399 1.118-.038.261-.424.567-.715.567-.259 0-.604-.242-.697-.491-.112-.294-.001-.995.234-1.487.277-.582.652-.981 1.164-1.241.519-.263 1.325-.362 1.632-.202m4.434 4.466c.062.023.164.09.227.15.192.182.242.317.237.647-.015.991-.596 1.95-1.431 2.361-.477.235-1.258.353-1.567.236a.9.9 0 0 1-.402-.376c-.081-.154-.08-.489.001-.646.092-.178.325-.368.477-.389.779-.109.853-.134 1.073-.355.183-.182.309-.48.361-.851a1.8 1.8 0 0 1 .097-.418.9.9 0 0 1 .38-.357.95.95 0 0 1 .547-.002m5.332 6.347c.176.797.321 1.524.321 1.615 0 .138-.025.19-.155.32-.131.13-.182.155-.322.155-.333 0-.523-.194-.523-.533 0-.126.24-2.398.323-3.062.007-.057.049.119.356 1.505" fill-rule="evenodd"/></svg>