<svg fill="none" xmlns="http://www.w3.org/2000/svg" viewBox="0 0 24 24"><path d="M11.445 2.462 C 11.153 2.525,5.704 4.688,5.220 4.933 C 4.667 5.213,4.139 5.813,3.922 6.411 C 3.758 6.864,3.753 6.962,3.770 9.580 C 3.787 12.361,3.791 12.413,4.061 13.466 C 4.412 14.837,5.117 16.224,6.087 17.449 C 6.532 18.012,7.714 19.184,8.320 19.664 C 9.353 20.482,10.582 21.234,11.260 21.462 C 11.713 21.614,12.246 21.614,12.697 21.463 C 13.799 21.091,15.968 19.528,17.151 18.251 C 18.844 16.425,19.714 14.770,20.127 12.591 C 20.207 12.167,20.213 11.986,20.229 9.600 C 20.248 6.939,20.243 6.848,20.070 6.400 C 19.831 5.779,19.334 5.213,18.780 4.933 C 18.266 4.673,12.843 2.525,12.537 2.460 C 12.196 2.388,11.782 2.388,11.445 2.462 M15.080 5.037 C 16.587 5.640,17.920 6.182,18.042 6.243 C 18.300 6.371,18.532 6.611,18.655 6.875 C 18.739 7.057,18.740 7.096,18.740 9.320 C 18.740 11.722,18.726 11.962,18.537 12.800 C 17.962 15.349,16.065 17.744,13.220 19.511 C 12.162 20.168,12.001 20.198,11.349 19.864 C 9.550 18.941,7.778 17.364,6.694 15.718 C 6.170 14.924,5.693 13.832,5.485 12.950 C 5.277 12.070,5.264 11.854,5.262 9.380 C 5.260 7.093,5.261 7.057,5.345 6.875 C 5.461 6.624,5.696 6.373,5.922 6.259 C 6.071 6.184,11.161 4.136,11.620 3.967 C 11.686 3.942,11.875 3.927,12.040 3.932 C 12.330 3.942,12.432 3.979,15.080 5.037 M11.617 7.283 C 11.032 7.352,10.519 7.611,10.065 8.064 C 9.729 8.399,9.518 8.739,9.372 9.180 C 9.281 9.457,9.267 9.567,9.267 10.000 C 9.267 10.433,9.281 10.543,9.372 10.820 C 9.430 10.996,9.546 11.255,9.629 11.395 C 9.925 11.893,10.497 12.380,11.007 12.566 L 11.240 12.651 11.240 14.355 C 11.240 15.476,11.256 16.115,11.285 16.219 C 11.344 16.432,11.578 16.660,11.798 16.719 C 12.198 16.827,12.610 16.599,12.718 16.209 C 12.744 16.117,12.760 15.405,12.760 14.355 L 12.760 12.651 12.993 12.566 C 13.503 12.380,14.075 11.893,14.371 11.395 C 14.454 11.255,14.570 10.996,14.628 10.820 C 14.719 10.543,14.733 10.433,14.733 10.000 C 14.733 9.568,14.719 9.457,14.628 9.180 C 14.203 7.886,12.986 7.120,11.617 7.283 M12.528 8.873 C 12.767 8.990,13.009 9.232,13.127 9.472 C 13.260 9.742,13.260 10.259,13.127 10.529 C 12.663 11.472,11.332 11.472,10.875 10.529 C 10.764 10.300,10.730 9.909,10.801 9.658 C 10.898 9.310,11.231 8.955,11.586 8.820 C 11.818 8.732,12.294 8.759,12.528 8.873 " stroke="none" fill-rule="evenodd" fill="currentColor"/></svg>