<svg xmlns="http://www.w3.org/2000/svg" viewBox="0 0 24 24"><path d="M11.445 2.462c-.292.063-5.741 2.226-6.225 2.471-.553.28-1.081.88-1.298 1.478-.164.453-.169.551-.152 3.169.017 2.781.021 2.833.291 3.886.351 1.371 1.056 2.758 2.026 3.983.445.563 1.627 1.735 2.233 2.215 1.033.818 2.262 1.57 2.94 1.798.453.152.986.152 1.437.001 1.102-.372 3.271-1.935 4.454-3.212 1.693-1.826 2.563-3.481 2.976-5.66.08-.424.086-.605.102-2.991.019-2.661.014-2.752-.159-3.2-.239-.621-.736-1.187-1.29-1.467-.514-.26-5.937-2.408-6.243-2.473a2.8 2.8 0 0 0-1.092.002M12.7 7.344c.868.206 1.631.933 1.928 1.836.091.277.105.388.105.82 0 .433-.014.543-.105.82a3.5 3.5 0 0 1-.257.575c-.296.498-.868.985-1.378 1.171l-.233.085v1.704c0 1.05-.016 1.762-.042 1.854a.747.747 0 0 1-.92.51c-.22-.059-.454-.287-.513-.5-.029-.104-.045-.743-.045-1.864v-1.704l-.233-.085c-.51-.186-1.082-.673-1.378-1.171a3.5 3.5 0 0 1-.257-.575c-.091-.277-.105-.387-.105-.82s.014-.543.105-.82a3.6 3.6 0 0 1 .257-.576c.185-.314.642-.777.946-.959.616-.369 1.384-.478 2.125-.301M11.586 8.82a1.4 1.4 0 0 0-.607.478c-.571.804.027 1.942 1.021 1.942.474 0 .913-.277 1.127-.711.133-.27.133-.787 0-1.057a1.4 1.4 0 0 0-.599-.599c-.234-.114-.71-.141-.942-.053"/></svg>