<svg xmlns="http://www.w3.org/2000/svg" viewBox="0 0 24 24"><path d="M11.86 2.028a3 3 0 0 0-.34.078c-.326.092-5.776 2.278-6.091 2.443-.686.359-1.243 1.126-1.386 1.908-.055.305-.058 4.434-.003 5.043.104 1.158.474 2.434 1.022 3.534.591 1.186 1.229 2.056 2.278 3.108 1.122 1.126 2.39 2.061 3.659 2.697.488.245.799.327 1.238.326.581-.002.935-.132 1.843-.674 1.605-.959 3.089-2.244 4.125-3.571 1.244-1.594 1.95-3.212 2.217-5.08.085-.595.133-4.539.062-5.137-.045-.384-.18-.827-.334-1.095-.235-.41-.678-.851-1.062-1.059-.393-.213-5.991-2.422-6.298-2.486a3 3 0 0 0-.93-.035m.764 4.855c.625.087 1.105.33 1.577.797.545.541.839 1.321.785 2.084-.075 1.055-.726 1.973-1.676 2.364l-.31.128-.001 1.742c-.001 1.604-.007 1.755-.074 1.904a.739.739 0 0 1-1.309.075l-.096-.164v-3.567l-.15-.048c-.616-.197-1.269-.765-1.56-1.358a2.53 2.53 0 0 1-.289-1.244c-.002-.755.249-1.379.767-1.908.453-.464.975-.721 1.672-.823.199-.029.36-.024.664.018m-.798 1.539c-.647.238-.981.96-.741 1.603.239.637.971.976 1.598.739a1.26 1.26 0 0 0 .763-1.524c-.104-.367-.477-.738-.845-.84-.199-.056-.593-.044-.775.022"/></svg>