<svg xmlns="http://www.w3.org/2000/svg" viewBox="0 0 24 24"><path d="M11.445 2.462c-.292.063-5.741 2.226-6.225 2.471-.553.28-1.081.88-1.298 1.478-.164.453-.169.551-.152 3.169.017 2.781.021 2.833.291 3.886.351 1.371 1.056 2.758 2.026 3.983.445.563 1.627 1.735 2.233 2.215 1.033.818 2.262 1.57 2.94 1.798.453.152.986.152 1.437.001 1.102-.372 3.271-1.935 4.454-3.212 1.693-1.826 2.563-3.481 2.976-5.66.08-.424.086-.605.102-2.991.019-2.661.014-2.752-.159-3.2-.239-.621-.736-1.187-1.29-1.467-.514-.26-5.937-2.408-6.243-2.473a2.8 2.8 0 0 0-1.092.002m3.728 2.623c1.939.776 2.97 1.208 3.08 1.292.204.155.365.386.434.623.076.258.074 4.463-.002 4.98-.255 1.74-.859 3.091-2.042 4.57-.806 1.007-2.094 2.127-3.331 2.896-.954.592-1.244.701-1.577.593-.428-.138-1.744-.965-2.515-1.581-.578-.461-1.601-1.491-2.006-2.018-1.07-1.394-1.638-2.702-1.883-4.336-.089-.594-.104-4.811-.018-5.104.066-.227.223-.457.419-.615.104-.083 1.07-.489 3.08-1.293 2.781-1.113 2.941-1.172 3.187-1.172s.404.058 3.174 1.165M11.66 7.262l-.3.062c-.293.057-.806.309-1.09.534-.62.493-1.03 1.345-1.03 2.142s.411 1.651 1.03 2.141c.231.182.811.499.915.499.046 0 .055.287.056 1.75.001 1.616.006 1.762.075 1.91a.743.743 0 0 0 1.368 0c.069-.148.074-.294.075-1.91.001-1.463.01-1.75.056-1.75.104 0 .684-.317.915-.499.617-.488 1.03-1.347 1.03-2.141s-.413-1.653-1.03-2.141a3.3 3.3 0 0 0-1.01-.521c-.223-.06-.913-.11-1.06-.076m.866 1.615c.233.12.481.367.598.596.079.154.096.247.096.527 0 .418-.096.635-.408.92-.243.222-.491.32-.812.32s-.569-.098-.812-.32c-.312-.285-.408-.502-.408-.92 0-.278.017-.373.093-.52.164-.315.472-.585.773-.676.22-.068.681-.029.88.073"/></svg>