<svg xmlns="http://www.w3.org/2000/svg" viewBox="0 0 24 24"><path d="M11.445 2.462c-.292.063-5.741 2.226-6.225 2.471-.553.28-1.081.88-1.298 1.478-.164.453-.169.551-.152 3.169.017 2.781.021 2.833.291 3.886.351 1.371 1.056 2.758 2.026 3.983.445.563 1.627 1.735 2.233 2.215 1.033.818 2.262 1.57 2.94 1.798.453.152.986.152 1.437.001 1.102-.372 3.271-1.935 4.454-3.212 1.693-1.826 2.563-3.481 2.976-5.66.08-.424.086-.605.102-2.991.019-2.661.014-2.752-.159-3.2-.239-.621-.736-1.187-1.29-1.467-.514-.26-5.937-2.408-6.243-2.473a2.8 2.8 0 0 0-1.092.002m3.635 2.575c1.507.603 2.84 1.145 2.962 1.206.258.128.49.368.613.632.084.182.085.221.085 2.445 0 2.402-.014 2.642-.203 3.48-.575 2.549-2.472 4.944-5.317 6.711-1.058.657-1.219.687-1.871.353-1.799-.923-3.571-2.5-4.655-4.146-.524-.794-1.001-1.886-1.209-2.768-.208-.88-.221-1.096-.223-3.57-.002-2.287-.001-2.323.083-2.505.116-.251.351-.502.577-.616.149-.075 5.239-2.123 5.698-2.292.066-.025.255-.04.42-.035.29.01.392.047 3.04 1.105m-3.463 2.246c-.585.069-1.098.328-1.552.781a2.7 2.7 0 0 0-.693 1.116c-.091.277-.105.387-.105.82s.014.543.105.82c.058.176.174.435.257.575.296.498.868.985 1.378 1.171l.233.085v1.704c0 1.121.016 1.76.045 1.864.059.213.293.441.513.5.4.108.812-.12.92-.51.026-.092.042-.804.042-1.854v-1.704l.233-.085c.51-.186 1.082-.673 1.378-1.171a3.5 3.5 0 0 0 .257-.575c.091-.277.105-.387.105-.82s-.014-.543-.105-.82c-.425-1.294-1.642-2.06-3.011-1.897m.911 1.59c.239.117.481.359.599.599.133.27.133.787 0 1.057-.464.943-1.795.943-2.252 0a1.43 1.43 0 0 1-.074-.871c.097-.348.43-.703.785-.838.232-.088.708-.061.942.053" fill-rule="evenodd"/></svg>