<svg xmlns="http://www.w3.org/2000/svg" viewBox="0 0 24 24"><path d="M18.62 2.479c-.909.195-1.711.964-1.94 1.861-.188.736-.023 1.642.394 2.16.035.044-.008.015-.095-.065a8 8 0 0 0-.519-.403c-.925-.664-1.818-1.065-2.894-1.298-.578-.126-1.843-.174-2.475-.095A7.5 7.5 0 0 0 6.87 6.674a7.2 7.2 0 0 0-1.529 2.095 7.37 7.37 0 0 0-.046 6.451c.209.436.546 1.001.793 1.331l.128.171-1.443 1.449c-1.554 1.56-1.568 1.577-1.515 1.929a.754.754 0 0 0 .947.62c.155-.041.34-.211 1.621-1.489l1.446-1.442.234.18a7.55 7.55 0 0 0 3.848 1.509c.586.059 7.971.057 8.185-.003.292-.081.54-.423.541-.746 0-.127-.106-.369-.212-.482-.21-.226-.209-.225-1.823-.247l-1.494-.02.174-.126c.287-.206.946-.887 1.253-1.294 2.093-2.774 2.038-6.489-.137-9.216-.206-.259-.227-.297-.115-.212.696.531 1.935.579 2.74.105a2.9 2.9 0 0 0 1.004-1.08c.374-.763.376-1.547.006-2.302a2.63 2.63 0 0 0-1.449-1.287c-.235-.083-.374-.104-.767-.113a4 4 0 0 0-.64.024m1.069 1.59c.234.127.452.392.515.627.057.21.026.61-.061.778a1.37 1.37 0 0 1-.524.504c-.509.244-1.152.009-1.414-.517a1.16 1.16 0 0 1-.003-.917 1.07 1.07 0 0 1 1.487-.475M13.2 6.199c.457.094.89.228 1.25.389l.23.103-.57.307c-.313.169-.646.355-.739.414a1 1 0 0 1-.206.108c-.021 0-.224-.111-.451-.247-.425-.253-1.542-.806-1.889-.935-.177-.066-.186-.076-.104-.106.05-.019.273-.06.495-.092a7 7 0 0 1 1.984.059M9.22 7.347c.242.078.629.216.86.306.459.181 1.657.757 1.692.815.013.02-.116.147-.285.284s-.402.331-.518.434l-.211.186-.229-.102c-.88-.393-1.134-.496-1.649-.667-.319-.106-.76-.235-.98-.286a6 6 0 0 1-.418-.106c-.031-.023.528-.572.832-.817.224-.18.315-.231.38-.212.047.013.284.088.526.165m7.165.623c.319.328.634.748.59.787a3 3 0 0 1-.375.164c-.842.33-1.981.963-2.742 1.527-2.164 1.6-3.798 3.807-4.625 6.242-.091.27-.17.496-.176.503-.028.037-.853-.554-1.009-.723l-.093-.1.147-.395a14.7 14.7 0 0 1 2.311-4.034c.455-.566 1.596-1.696 2.187-2.165.605-.481 1.38-1 2-1.34.463-.255 1.425-.712 1.501-.715.023 0 .151.112.284.249M7.56 9.782c.617.152 1.322.388 1.776.595l.312.142-.272.33-.427.52-.155.189-.147-.063c-.505-.218-1.524-.508-2.158-.614-.24-.04-.289-.06-.273-.115.011-.036.048-.176.081-.31.057-.225.24-.746.29-.828.031-.049.351.001.973.154m10.164.448c.059.154.185.711.216.952l.025.201-.332.134c-.736.296-1.643.822-2.361 1.369-.394.3-1.184 1.06-1.545 1.487-.859 1.015-1.558 2.258-1.91 3.397-.067.215-.08.23-.194.229-.15-.001-.734-.095-.99-.16l-.186-.047.06-.206c.18-.614.604-1.604.944-2.206a11.3 11.3 0 0 1 1.946-2.543c1.182-1.183 2.338-1.948 3.943-2.611.309-.128.334-.127.384.004M6.72 12.456c.478.109 1.2.339 1.2.384 0 .016-.144.297-.32.625-.176.327-.414.807-.529 1.067l-.208.472-.167-.332a6.3 6.3 0 0 1-.589-2.082c-.021-.228-.02-.23.086-.23.059.001.296.044.527.096m11.2.614c0 .017-.037.183-.082.37a5.99 5.99 0 0 1-4.312 4.38c-.127.027-.132.023-.106-.066.062-.211.465-1.007.698-1.378a8 8 0 0 1 1.136-1.442 8.5 8.5 0 0 1 2.238-1.697c.375-.199.428-.22.428-.167" fill-rule="evenodd"/></svg>