<svg xmlns="http://www.w3.org/2000/svg" viewBox="0 0 24 24"><path d="M18.62 2.479c-.909.195-1.711.964-1.94 1.861-.162.635-.071 1.376.234 1.904l.153.264-.324-.261a7.65 7.65 0 0 0-3.263-1.532c-.409-.085-.566-.095-1.42-.095-1.022 0-1.176.018-1.971.224-1.312.342-2.473 1.039-3.471 2.085a6.7 6.7 0 0 0-1.232 1.753c-.979 1.943-1.077 4.078-.282 6.116.254.649.649 1.35 1.023 1.813l.09.111-1.444 1.449c-1.554 1.56-1.568 1.577-1.515 1.929a.754.754 0 0 0 .947.62c.155-.041.34-.211 1.621-1.489l1.447-1.442.193.161c.729.608 2.006 1.192 3.074 1.407.774.155 1.173.167 5.127.155 3.791-.012 3.808-.012 3.92-.096.361-.267.383-.701.048-.94l-.135-.096-1.735-.012-1.736-.011.316-.217c1.247-.855 2.279-2.241 2.772-3.724a7.38 7.38 0 0 0 .004-4.74 7.9 7.9 0 0 0-1.299-2.364l-.186-.228.227.136c.813.49 1.926.464 2.714-.063a2.65 2.65 0 0 0 1.121-1.645c.117-.58.046-1.11-.222-1.657a2.63 2.63 0 0 0-1.449-1.287c-.235-.083-.374-.104-.767-.113a4 4 0 0 0-.64.024m1.069 1.59c.234.127.452.392.515.627.057.21.026.61-.061.778a1.37 1.37 0 0 1-.524.504c-.509.244-1.152.009-1.414-.517a1.16 1.16 0 0 1-.003-.917 1.07 1.07 0 0 1 1.487-.475M10.66 6.627c.549.222 1.56.726 2.054 1.025l.375.226.435-.259c.24-.142.668-.375.952-.517l.516-.258.354.237c.195.13.433.305.529.389l.175.152-.533.239a14.9 14.9 0 0 0-5.945 4.886 15.3 15.3 0 0 0-1.773 3.313l-.046.12-.193-.209c-.248-.268-.6-.767-.6-.85 0-.036.188-.442.418-.903s.405-.85.39-.865c-.051-.048-.863-.301-1.253-.39l-.384-.087-.026-.244a7 7 0 0 1-.025-.573v-.329l.31.056c.475.087 1.274.311 1.671.469.197.078.369.129.382.113.013-.015.139-.19.28-.388s.405-.539.588-.757c.189-.226.316-.412.296-.432-.065-.065-.786-.36-1.314-.537-.517-.173-1.468-.413-1.641-.414-.048 0-.098-.018-.112-.039-.023-.038.361-.823.474-.97.049-.064.079-.062.481.029.838.189 1.706.491 2.527.878l.442.209.218-.198c.415-.377 1.019-.89 1.187-1.009.093-.066.17-.132.17-.146.003-.074-1.168-.663-1.928-.97-.292-.118-.72-.275-.951-.348a8 8 0 0 1-.439-.148c-.057-.041.662-.446 1.119-.631.253-.103.239-.105.82.13m6.812 2.943c.146.335.248.618.248.69 0 .027-.112.09-.248.14-.137.05-.462.187-.724.305-2.432 1.101-4.495 3.121-5.63 5.515-.218.46-.526 1.239-.581 1.47-.014.06-.039.11-.054.11-.108 0-1.043-.359-1.043-.4 0-.129.478-1.318.736-1.832a12.75 12.75 0 0 1 5.674-5.677c.535-.27 1.326-.606 1.433-.609.04-.001.108.102.189.288M18 12.41a9 9 0 0 1-.161 1.038c-.04.16-.068.189-.292.311-1.512.818-2.799 2.134-3.529 3.606l-.192.386-.363.084c-.414.096-.905.176-.93.152-.029-.03.229-.636.489-1.146a9.2 9.2 0 0 1 1.824-2.464c.796-.777 1.451-1.242 2.45-1.74.35-.174.652-.317.67-.317s.034.041.034.09" fill-rule="evenodd"/></svg>