<svg xmlns="http://www.w3.org/2000/svg" viewBox="0 0 24 24"><path d="M11.445 2.462c-.292.063-5.741 2.226-6.225 2.471-.553.28-1.081.88-1.298 1.478-.164.453-.169.551-.152 3.169.017 2.781.021 2.833.291 3.886.351 1.371 1.056 2.758 2.026 3.983.445.563 1.627 1.735 2.233 2.215 1.033.818 2.262 1.57 2.94 1.798.453.152.986.152 1.437.001 1.102-.372 3.271-1.935 4.454-3.212 1.693-1.826 2.563-3.481 2.976-5.66.08-.424.086-.605.102-2.991.019-2.661.014-2.752-.159-3.2-.239-.621-.736-1.187-1.29-1.467-.514-.26-5.937-2.408-6.243-2.473a2.8 2.8 0 0 0-1.092.002m4.92 5.881c.206.106.395.42.395.657 0 .292-.015.308-2.433 2.733-1.295 1.298-2.414 2.387-2.495 2.43a.78.78 0 0 1-.664 0c-.081-.042-.754-.686-1.495-1.43-1.131-1.137-1.353-1.379-1.389-1.513-.054-.198-.054-.242-.002-.429a.8.8 0 0 1 .373-.459c.161-.084.528-.084.685-.001.066.035.579.524 1.14 1.086l1.019 1.023 2.061-2.058c1.536-1.534 2.091-2.064 2.18-2.083.066-.014.138-.032.16-.04.068-.024.354.028.465.084"/></svg>