<svg xmlns="http://www.w3.org/2000/svg" viewBox="0 0 24 24"><path d="M11.445 2.462c-.292.063-5.741 2.226-6.225 2.471-.553.28-1.081.88-1.298 1.478-.164.453-.169.551-.152 3.169.017 2.781.021 2.833.291 3.886.351 1.371 1.056 2.758 2.026 3.983.445.563 1.627 1.735 2.233 2.215 1.033.818 2.262 1.57 2.94 1.798.453.152.986.152 1.437.001 1.102-.372 3.271-1.935 4.454-3.212 1.693-1.826 2.563-3.481 2.976-5.66.08-.424.086-.605.102-2.991.019-2.661.014-2.752-.159-3.2-.239-.621-.736-1.187-1.29-1.467-.514-.26-5.937-2.408-6.243-2.473a2.8 2.8 0 0 0-1.092.002m3.728 2.623c1.939.776 2.97 1.208 3.08 1.292.204.155.365.386.434.623.076.258.074 4.463-.002 4.98-.255 1.74-.859 3.091-2.042 4.57-.806 1.007-2.094 2.127-3.331 2.896-.954.592-1.244.701-1.577.593-.428-.138-1.744-.965-2.515-1.581-.578-.461-1.601-1.491-2.006-2.018-1.07-1.394-1.638-2.702-1.883-4.336-.089-.594-.104-4.811-.018-5.104.066-.227.223-.457.419-.615.104-.083 1.07-.489 3.08-1.293 2.781-1.113 2.941-1.172 3.187-1.172s.404.058 3.174 1.165m.527 3.232c-.107.05-.819.735-2.16 2.079-1.1 1.102-2.018 2.004-2.04 2.004s-.49-.452-1.04-1.004c-.637-.639-1.058-1.032-1.16-1.079a.67.67 0 0 0-.6-.001c-.393.181-.559.609-.383.984.092.197 2.729 2.836 2.896 2.898.144.054.43.054.574 0 .168-.062 4.803-4.699 4.896-4.898a.67.67 0 0 0 .001-.6c-.181-.393-.609-.559-.984-.383"/></svg>