<svg fill="none" xmlns="http://www.w3.org/2000/svg" viewBox="0 0 24 24"><path d="M11.445 2.462 C 11.153 2.525,5.704 4.688,5.220 4.933 C 4.667 5.213,4.139 5.813,3.922 6.411 C 3.758 6.864,3.753 6.962,3.770 9.580 C 3.787 12.361,3.791 12.413,4.061 13.466 C 4.412 14.837,5.117 16.224,6.087 17.449 C 6.532 18.012,7.714 19.184,8.320 19.664 C 9.353 20.482,10.582 21.234,11.260 21.462 C 11.713 21.614,12.246 21.614,12.697 21.463 C 13.799 21.091,15.968 19.528,17.151 18.251 C 18.844 16.425,19.714 14.770,20.127 12.591 C 20.207 12.167,20.213 11.986,20.229 9.600 C 20.248 6.939,20.243 6.848,20.070 6.400 C 19.831 5.779,19.334 5.213,18.780 4.933 C 18.266 4.673,12.843 2.525,12.537 2.460 C 12.196 2.388,11.782 2.388,11.445 2.462 M16.365 8.343 C 16.571 8.449,16.760 8.763,16.760 9.000 C 16.760 9.292,16.745 9.308,14.327 11.733 C 13.032 13.031,11.913 14.120,11.832 14.163 C 11.641 14.262,11.359 14.262,11.168 14.163 C 11.087 14.121,10.414 13.477,9.673 12.733 C 8.542 11.596,8.320 11.354,8.284 11.220 C 8.230 11.022,8.230 10.978,8.282 10.791 C 8.332 10.610,8.487 10.419,8.655 10.332 C 8.816 10.248,9.183 10.248,9.340 10.331 C 9.406 10.366,9.919 10.855,10.480 11.417 L 11.499 12.440 13.560 10.382 C 15.096 8.848,15.651 8.318,15.740 8.299 C 15.806 8.285,15.878 8.267,15.900 8.259 C 15.968 8.235,16.254 8.287,16.365 8.343 " stroke="none" fill-rule="evenodd"/></svg>