<svg fill="none" xmlns="http://www.w3.org/2000/svg" viewBox="0 0 24 24"><path d="M11.445 2.462 C 11.153 2.525,5.704 4.688,5.220 4.933 C 4.667 5.213,4.139 5.813,3.922 6.411 C 3.758 6.864,3.753 6.962,3.770 9.580 C 3.787 12.361,3.791 12.413,4.061 13.466 C 4.412 14.837,5.117 16.224,6.087 17.449 C 6.532 18.012,7.714 19.184,8.320 19.664 C 9.353 20.482,10.582 21.234,11.260 21.462 C 11.713 21.614,12.246 21.614,12.697 21.463 C 13.799 21.091,15.968 19.528,17.151 18.251 C 18.844 16.425,19.714 14.770,20.127 12.591 C 20.207 12.167,20.213 11.986,20.229 9.600 C 20.248 6.939,20.243 6.848,20.070 6.400 C 19.831 5.779,19.334 5.213,18.780 4.933 C 18.266 4.673,12.843 2.525,12.537 2.460 C 12.196 2.388,11.782 2.388,11.445 2.462 M15.080 5.037 C 16.587 5.640,17.920 6.182,18.042 6.243 C 18.300 6.371,18.532 6.611,18.655 6.875 C 18.739 7.057,18.740 7.096,18.740 9.320 C 18.740 11.722,18.726 11.962,18.537 12.800 C 17.962 15.349,16.065 17.744,13.220 19.511 C 12.162 20.168,12.001 20.198,11.349 19.864 C 9.550 18.941,7.778 17.364,6.694 15.718 C 6.170 14.924,5.693 13.832,5.485 12.950 C 5.277 12.070,5.264 11.854,5.262 9.380 C 5.260 7.093,5.261 7.057,5.345 6.875 C 5.461 6.624,5.696 6.373,5.922 6.259 C 6.071 6.184,11.161 4.136,11.620 3.967 C 11.686 3.942,11.875 3.927,12.040 3.932 C 12.330 3.942,12.432 3.979,15.080 5.037 M15.900 8.259 C 15.878 8.267,15.806 8.285,15.740 8.299 C 15.651 8.318,15.096 8.848,13.560 10.382 L 11.499 12.440 10.480 11.417 C 9.919 10.855,9.406 10.366,9.340 10.331 C 9.183 10.248,8.816 10.248,8.655 10.332 C 8.487 10.419,8.332 10.610,8.282 10.791 C 8.230 10.978,8.230 11.022,8.284 11.220 C 8.320 11.354,8.542 11.596,9.673 12.733 C 10.414 13.477,11.087 14.121,11.168 14.163 C 11.359 14.262,11.641 14.262,11.832 14.163 C 11.913 14.120,13.032 13.031,14.327 11.733 C 16.745 9.308,16.760 9.292,16.760 9.000 C 16.760 8.763,16.571 8.449,16.365 8.343 C 16.254 8.287,15.968 8.235,15.900 8.259 " stroke="none" fill-rule="evenodd" fill="currentColor"/></svg>