<svg xmlns="http://www.w3.org/2000/svg" viewBox="0 0 24 24"><path d="M11.576 2.437a3 3 0 0 0-.36.083c-.362.117-5.78 2.3-6.036 2.432a2.5 2.5 0 0 0-.604.466c-.35.349-.546.662-.701 1.122l-.095.28v2.6c0 2.325.008 2.647.073 3.04.46 2.786 1.942 5.178 4.467 7.207.898.722 2.314 1.587 2.939 1.795.388.129.898.146 1.301.043.517-.132 1.64-.781 2.626-1.519 2.979-2.23 4.713-5.004 5.013-8.026q.047-.46.033-2.82l-.013-2.36-.108-.292a4 4 0 0 0-.236-.52c-.186-.329-.713-.837-1.055-1.015-.308-.16-5.749-2.346-6.096-2.448-.259-.077-.866-.113-1.148-.068m4.829 5.944a.69.69 0 0 1 .328.615.9.9 0 0 1-.051.324c-.028.055-1.097 1.15-2.376 2.434-1.578 1.583-2.377 2.359-2.486 2.409a.75.75 0 0 1-.64 0c-.171-.08-2.767-2.659-2.862-2.843a1 1 0 0 1-.051-.328c0-.271.122-.489.356-.634.2-.124.549-.127.741-.007.075.047.586.536 1.135 1.087l1 1.001 2.06-2.057c1.533-1.529 2.092-2.063 2.181-2.083.066-.014.138-.032.16-.04.091-.033.37.035.505.122"/></svg>