<svg xmlns="http://www.w3.org/2000/svg" viewBox="0 0 24 24"><path d="M13.706 3.602c-.058.046-.243.336-.412.645a10 10 0 0 1-.371.639c-.035.042-.332.225-.66.406-.329.181-.632.376-.675.435a.52.52 0 0 0 0 .546c.043.059.351.26.684.447s.62.354.637.372c.017.017.184.304.371.637s.388.64.447.683a.52.52 0 0 0 .546 0c.059-.043.26-.351.447-.684s.354-.62.371-.637.304-.184.637-.371.641-.388.684-.447a.52.52 0 0 0 .001-.546c-.045-.061-.349-.254-.702-.447l-.623-.34-.346-.629c-.19-.346-.393-.665-.45-.71-.141-.111-.444-.111-.586.001m.474 1.768c.148.265.185.302.45.45.159.088.289.169.289.18s-.133.096-.297.189c-.271.155-.309.193-.449.45-.084.154-.162.28-.173.28s-.089-.126-.173-.28c-.14-.257-.178-.295-.449-.45-.164-.093-.297-.178-.297-.189s.13-.092.289-.18c.265-.148.302-.185.45-.45.088-.159.169-.288.18-.288s.092.129.18.288m4.526 1.232c-.058.046-.243.336-.412.645a10 10 0 0 1-.371.639c-.035.042-.332.225-.66.406-.329.181-.632.376-.675.435a.52.52 0 0 0 0 .546c.043.059.351.26.684.447s.62.354.637.371.184.304.371.637.388.641.447.684a.5.5 0 0 0 .273.079c.102 0 .207-.03.273-.079.059-.043.26-.351.447-.684s.354-.62.371-.637.304-.184.637-.371.641-.388.684-.447a.52.52 0 0 0 .001-.546c-.045-.061-.349-.254-.702-.447l-.623-.34-.346-.629c-.19-.346-.393-.665-.45-.71-.141-.111-.444-.111-.586.001m.474 1.768c.148.265.185.302.45.45.159.088.289.169.289.18s-.133.096-.297.189c-.271.155-.309.193-.449.45-.084.154-.162.28-.173.28s-.089-.126-.173-.28c-.14-.257-.178-.295-.449-.45-.164-.093-.297-.178-.297-.189s.13-.092.289-.18c.265-.148.302-.185.45-.45.088-.159.169-.288.18-.288s.092.129.18.288m-15.36.907a.73.73 0 0 0-.538.514c-.06.215-.057 10.213.003 10.428.056.204.292.44.496.496.213.06 5.216.062 5.428.003a.83.83 0 0 0 .439-.332 1.3 1.3 0 0 0 .089-.268l.043-.182.7.151c2.288.494 2.757.571 3.86.632a13.5 13.5 0 0 0 4.08-.419c.52-.135 1.747-.541 1.945-.643a.8.8 0 0 0 .353-.448c.054-.193.054-2.236.001-2.709a4.77 4.77 0 0 0-3.563-4.101c-.461-.118-1.091-.158-2.486-.159h-1.269l-.918-1.375c-.549-.823-.968-1.411-1.043-1.465-.243-.173-.392-.177-.994-.024-1.118.284-1.92.39-2.946.39-1.025 0-1.832-.106-2.94-.388a7 7 0 0 0-.58-.134 2 2 0 0 0-.16.033m7.737 2.918c.811 1.216.962 1.409 1.183 1.508.044.02.935.046 1.98.059 1.808.022 1.914.028 2.194.112.571.172 1.029.464 1.47.938.376.406.653.89.752 1.318l.026.11H4.76v-5.267l.37.073c.812.159 1.351.208 2.33.211.573.001 1.137-.019 1.4-.051.444-.054 1.62-.272 1.654-.307.095-.095.212.05 1.043 1.296M6.805 13.28c-.391.092-.633.519-.524.924.059.218.288.453.5.511.218.061 3.22.061 3.438 0a.84.84 0 0 0 .306-.191.739.739 0 0 0-.348-1.246c-.192-.044-3.183-.043-3.372.002m12.427 4.846-.012.367-.34.115a12.3 12.3 0 0 1-4.22.618c-1.162-.035-1.306-.058-3.947-.625-1.863-.399-1.848-.398-2.155-.191-.186.126-.282.309-.307.59l-.022.24H4.76v-1.48h14.483z" fill-rule="evenodd"/></svg>