<svg xmlns="http://www.w3.org/2000/svg" viewBox="0 0 24 24"><path d="M13.706 3.602c-.058.046-.243.336-.412.645a10 10 0 0 1-.371.639c-.035.042-.332.225-.66.406-.329.181-.632.376-.675.435a.52.52 0 0 0 0 .546c.043.059.351.26.684.447s.62.354.637.372c.017.017.184.304.371.637s.388.64.447.683a.52.52 0 0 0 .546 0c.059-.043.26-.351.447-.684s.354-.62.371-.637.304-.184.637-.371.641-.388.684-.447a.52.52 0 0 0 .001-.546c-.045-.061-.349-.254-.702-.447l-.623-.34-.346-.629c-.19-.346-.393-.665-.45-.71-.141-.111-.444-.111-.586.001m.474 1.768c.148.265.185.302.45.45.159.088.289.169.289.18s-.133.096-.297.189c-.271.155-.309.193-.449.45-.084.154-.162.28-.173.28s-.089-.126-.173-.28c-.14-.257-.178-.295-.449-.45-.164-.093-.297-.178-.297-.189s.13-.092.289-.18c.265-.148.302-.185.45-.45.088-.159.169-.288.18-.288s.092.129.18.288m4.526 1.232c-.058.046-.243.336-.412.645a10 10 0 0 1-.371.639c-.035.042-.332.225-.66.406-.329.181-.632.376-.675.435a.52.52 0 0 0 0 .546c.043.059.351.26.684.447s.62.354.637.371.184.304.371.637.388.641.447.684a.5.5 0 0 0 .273.079c.102 0 .207-.03.273-.079.059-.043.26-.351.447-.684s.354-.62.371-.637.304-.184.637-.371.641-.388.684-.447a.52.52 0 0 0 .001-.546c-.045-.061-.349-.254-.702-.447l-.623-.34-.346-.629c-.19-.346-.393-.665-.45-.71-.141-.111-.444-.111-.586.001m.474 1.768c.148.265.185.302.45.45.159.088.289.169.289.18s-.133.096-.297.189c-.271.155-.309.193-.449.45-.084.154-.162.28-.173.28s-.089-.126-.173-.28c-.14-.257-.178-.295-.449-.45-.164-.093-.297-.178-.297-.189s.13-.092.289-.18c.265-.148.302-.185.45-.45.088-.159.169-.288.18-.288s.092.129.18.288m-15.36.907a.73.73 0 0 0-.538.514c-.06.215-.057 10.213.003 10.428.056.204.292.44.496.496.213.06 5.216.062 5.428.003a.83.83 0 0 0 .439-.332 1.3 1.3 0 0 0 .089-.268l.043-.182.7.151c2.288.494 2.757.571 3.86.632a13.5 13.5 0 0 0 4.08-.419c.52-.135 1.747-.541 1.945-.643a.8.8 0 0 0 .353-.448c.054-.193.054-2.236.001-2.709a4.77 4.77 0 0 0-3.563-4.101c-.461-.118-1.091-.158-2.486-.159h-1.269l-.918-1.375c-.549-.823-.968-1.411-1.043-1.465-.243-.173-.392-.177-.994-.024-1.118.284-1.92.39-2.946.39-1.025 0-1.832-.106-2.94-.388a7 7 0 0 0-.58-.134 2 2 0 0 0-.16.033m7.705 2.873c.465.698.883 1.312.93 1.364.207.229.166.224 2.245.25 2.054.025 2.018.021 2.563.245.738.303 1.424.992 1.731 1.738.062.15.125.323.14.383l.028.11H4.76v-2.62c0-2.13.01-2.62.052-2.62.029 0 .25.036.49.081 1.053.194 2.255.244 3.342.14.574-.055 1.542-.214 1.816-.297.066-.021.142-.039.17-.041.027-.001.43.569.895 1.267M6.7 13.316a.745.745 0 0 0 .029 1.382c.126.053.396.062 1.78.061 1.5-.001 1.644-.007 1.791-.075a.73.73 0 0 0 .398-.413c.154-.368-.018-.78-.398-.955-.147-.068-.29-.074-1.8-.074s-1.653.006-1.8.074m12.532 4.81-.012.367-.34.115a12.3 12.3 0 0 1-4.22.618c-1.162-.035-1.306-.058-3.947-.625-1.863-.399-1.848-.398-2.155-.191-.186.126-.282.309-.307.59l-.022.24H4.76v-1.48h14.483z" fill-rule="evenodd"/></svg>