<svg fill="none" xmlns="http://www.w3.org/2000/svg" viewBox="0 0 24 24"><path d="M6.958 2.280 C 6.405 2.347,5.859 2.605,5.435 3.000 C 5.220 3.201,2.437 6.474,2.442 6.520 C 2.444 6.531,2.564 6.639,2.709 6.760 L 2.973 6.980 2.607 6.992 L 2.240 7.003 2.241 8.612 C 2.241 10.355,2.257 10.520,2.464 10.927 C 2.581 11.158,2.904 11.519,3.105 11.643 L 3.237 11.725 3.249 15.612 L 3.260 19.500 3.369 19.820 C 3.520 20.265,3.731 20.603,4.064 20.936 C 4.397 21.269,4.735 21.480,5.180 21.631 L 5.500 21.740 12.000 21.740 L 18.500 21.740 18.820 21.631 C 19.265 21.480,19.603 21.269,19.936 20.936 C 20.269 20.603,20.480 20.265,20.631 19.820 L 20.740 19.500 20.751 15.612 L 20.763 11.725 20.895 11.643 C 21.096 11.519,21.419 11.158,21.536 10.927 C 21.743 10.520,21.759 10.355,21.759 8.612 L 21.760 7.003 21.393 6.992 L 21.027 6.980 21.291 6.760 C 21.436 6.639,21.556 6.531,21.558 6.520 C 21.559 6.509,20.907 5.726,20.110 4.781 C 19.241 3.752,18.564 2.985,18.420 2.869 C 18.153 2.653,17.744 2.443,17.380 2.335 C 17.156 2.268,16.806 2.263,12.180 2.256 C 9.452 2.252,7.102 2.263,6.958 2.280 M17.280 3.903 C 17.464 4.006,17.653 4.207,18.430 5.123 L 19.360 6.220 15.680 6.230 C 13.656 6.236,10.344 6.236,8.320 6.230 L 4.641 6.220 5.556 5.136 C 6.070 4.527,6.537 4.011,6.621 3.959 C 6.953 3.754,6.714 3.762,12.060 3.771 L 17.060 3.780 17.280 3.903 M20.240 8.983 L 20.240 10.206 20.123 10.323 C 19.973 10.473,19.848 10.473,19.471 10.322 C 18.852 10.074,18.354 10.125,17.647 10.508 C 17.094 10.808,16.921 10.877,16.643 10.906 C 16.338 10.938,16.075 10.876,15.608 10.662 C 15.101 10.429,14.770 10.355,14.243 10.356 C 13.739 10.357,13.349 10.446,12.844 10.677 C 12.433 10.864,12.240 10.920,12.000 10.920 C 11.760 10.920,11.567 10.864,11.156 10.677 C 10.651 10.446,10.261 10.357,9.757 10.356 C 9.230 10.355,8.899 10.429,8.392 10.662 C 7.925 10.876,7.662 10.938,7.357 10.906 C 7.079 10.877,6.906 10.808,6.353 10.508 C 5.646 10.125,5.148 10.074,4.529 10.322 C 4.152 10.473,4.027 10.473,3.877 10.323 L 3.760 10.206 3.760 8.983 L 3.760 7.760 12.000 7.760 L 20.240 7.760 20.240 8.983 M5.900 11.961 C 6.580 12.304,6.938 12.403,7.500 12.403 C 7.981 12.403,8.381 12.309,8.876 12.082 C 9.567 11.766,9.920 11.761,10.554 12.057 C 11.095 12.310,11.474 12.400,12.000 12.400 C 12.526 12.400,12.905 12.310,13.446 12.057 C 14.080 11.761,14.433 11.766,15.124 12.082 C 15.619 12.309,16.019 12.403,16.500 12.403 C 17.062 12.403,17.420 12.304,18.100 11.961 C 18.408 11.805,18.709 11.679,18.769 11.679 C 18.829 11.680,18.960 11.720,19.060 11.768 L 19.241 11.857 19.231 15.598 L 19.220 19.340 19.127 19.529 C 18.995 19.797,18.711 20.063,18.453 20.159 C 18.251 20.235,18.143 20.240,16.738 20.240 L 15.240 20.240 15.240 17.962 L 15.240 15.684 15.146 15.423 C 14.919 14.799,14.377 14.361,13.727 14.277 C 13.380 14.232,10.620 14.232,10.273 14.277 C 9.623 14.361,9.081 14.799,8.854 15.423 L 8.760 15.684 8.760 17.962 L 8.760 20.240 7.262 20.240 C 5.857 20.240,5.749 20.235,5.547 20.159 C 5.289 20.063,5.005 19.797,4.873 19.529 L 4.780 19.340 4.769 15.598 L 4.759 11.856 4.929 11.771 C 5.199 11.635,5.290 11.653,5.900 11.961 M13.662 15.817 C 13.737 15.872,13.740 15.948,13.751 18.057 L 13.762 20.240 12.000 20.240 L 10.238 20.240 10.249 18.057 C 10.260 15.948,10.263 15.872,10.338 15.817 C 10.453 15.733,13.547 15.733,13.662 15.817 " stroke="none" fill-rule="evenodd" fill="currentColor"/></svg>