<svg xmlns="http://www.w3.org/2000/svg" viewBox="0 0 24 24"><path d="M6.958 2.28A2.76 2.76 0 0 0 5.435 3c-.215.201-2.998 3.474-2.993 3.52.002.011.122.119.267.24l.264.22-.366.012-.367.011.001 1.609c0 1.743.016 1.908.223 2.315.117.231.44.592.641.716l.132.082.012 3.887.011 3.888.109.32c.151.445.362.783.695 1.116s.671.544 1.116.695l.32.109h13l.32-.109a2.74 2.74 0 0 0 1.116-.695c.333-.333.544-.671.695-1.116l.109-.32.011-3.888.012-3.887.132-.082c.201-.124.524-.485.641-.716.207-.407.223-.572.223-2.315l.001-1.609-.367-.011-.366-.012.264-.22a3 3 0 0 0 .267-.24c.001-.011-.651-.794-1.448-1.739-.869-1.029-1.546-1.796-1.69-1.912a3.3 3.3 0 0 0-1.04-.534c-.224-.067-.574-.072-5.2-.079-2.728-.004-5.078.007-5.222.024M17.28 3.903c.184.103.373.304 1.15 1.22l.93 1.097-3.68.01c-2.024.006-5.336.006-7.36 0l-3.679-.01.915-1.084c.514-.609.981-1.125 1.065-1.177.332-.205.093-.197 5.439-.188l5 .009zm2.96 5.08v1.223l-.117.117c-.15.15-.275.15-.652-.001-.619-.248-1.117-.197-1.824.186-.553.3-.726.369-1.004.398-.305.032-.568-.03-1.035-.244-.507-.233-.838-.307-1.365-.306-.504.001-.894.09-1.399.321-.411.187-.604.243-.844.243s-.433-.056-.844-.243c-.505-.231-.895-.32-1.399-.321-.527-.001-.858.073-1.365.306-.467.214-.73.276-1.035.244-.278-.029-.451-.098-1.004-.398-.707-.383-1.205-.434-1.824-.186-.377.151-.502.151-.652.001l-.117-.117V7.76h16.48zM5.9 11.961c.68.343 1.038.442 1.6.442.481 0 .881-.094 1.376-.321.691-.316 1.044-.321 1.678-.025.541.253.92.343 1.446.343s.905-.09 1.446-.343c.634-.296.987-.291 1.678.025.495.227.895.321 1.376.321.562 0 .92-.099 1.6-.442.308-.156.609-.282.669-.282a.9.9 0 0 1 .291.089l.181.089-.01 3.741-.011 3.742-.093.189c-.132.268-.416.534-.674.63-.202.076-.31.081-1.715.081H15.24v-4.556l-.094-.261a1.75 1.75 0 0 0-1.419-1.146c-.347-.045-3.107-.045-3.454 0a1.75 1.75 0 0 0-1.419 1.146l-.094.261v4.556H7.262c-1.405 0-1.513-.005-1.715-.081-.258-.096-.542-.362-.674-.63l-.093-.189-.011-3.742-.01-3.742.17-.085c.27-.136.361-.118.971.19m7.762 3.856c.075.055.078.131.089 2.24l.011 2.183h-3.524l.011-2.183c.011-2.109.014-2.185.089-2.24.115-.084 3.209-.084 3.324 0" fill-rule="evenodd"/></svg>