<svg xmlns="http://www.w3.org/2000/svg" viewBox="0 0 24 24"><path d="M6.9 4.259a2 2 0 0 1-.16.04c-.178.04-3.356 3.216-3.441 3.44-.054.142-.06.784-.05 5.461l.011 5.3.109.32c.151.445.362.783.695 1.116s.671.544 1.116.695l.32.109h13l.32-.109a2.74 2.74 0 0 0 1.116-.695c.333-.333.544-.671.695-1.116l.109-.32.012-5.28c.009-3.858 0-5.323-.033-5.44-.038-.134-.306-.421-1.632-1.752-.873-.876-1.65-1.632-1.727-1.68l-.14-.088-5.14-.007a524 524 0 0 0-5.18.006M17.44 6.5l.739.74H5.821l.739-.74.739-.74h9.402zm1.79 7.05-.01 4.79-.093.189c-.132.268-.416.534-.674.63-.213.08-.297.081-6.453.081s-6.24-.001-6.453-.081c-.258-.096-.542-.362-.674-.63l-.093-.189-.01-4.79-.011-4.79h14.482zM7.82 10.276a.73.73 0 0 0-.543.536c-.104.381.095 1.459.389 2.118a4.94 4.94 0 0 0 2.404 2.404 4.75 4.75 0 0 0 4.53-.368c.694-.449 1.389-1.266 1.734-2.036.294-.659.493-1.737.389-2.118-.092-.343-.36-.545-.723-.545-.237 0-.409.069-.545.219-.148.164-.182.273-.22.709-.081.946-.379 1.567-1.047 2.189-.633.588-1.319.856-2.188.856s-1.555-.268-2.188-.856c-.668-.622-.966-1.243-1.047-2.189-.038-.436-.072-.545-.22-.709a.79.79 0 0 0-.725-.21" fill-rule="evenodd"/></svg>