<svg fill="none" xmlns="http://www.w3.org/2000/svg" viewBox="0 0 24 24"><path d="M6.958 2.280 C 6.450 2.341,5.909 2.583,5.502 2.931 C 5.253 3.144,2.398 6.528,2.311 6.713 C 2.249 6.845,2.242 7.034,2.242 8.540 C 2.241 10.362,2.256 10.517,2.464 10.927 C 2.581 11.158,2.904 11.519,3.105 11.643 L 3.237 11.725 3.249 15.612 L 3.260 19.500 3.369 19.820 C 3.520 20.265,3.731 20.603,4.064 20.936 C 4.397 21.269,4.735 21.480,5.180 21.631 L 5.500 21.740 12.000 21.740 L 18.500 21.740 18.820 21.631 C 19.265 21.480,19.603 21.269,19.936 20.936 C 20.269 20.603,20.480 20.265,20.631 19.820 L 20.740 19.500 20.751 15.612 L 20.763 11.725 20.895 11.643 C 21.096 11.519,21.419 11.158,21.536 10.927 C 21.744 10.517,21.759 10.362,21.759 8.540 C 21.758 6.968,21.753 6.850,21.682 6.700 C 21.568 6.462,18.705 3.100,18.420 2.869 C 18.153 2.653,17.744 2.443,17.380 2.335 C 17.156 2.268,16.806 2.263,12.180 2.256 C 9.452 2.252,7.102 2.263,6.958 2.280 M17.253 3.894 C 17.465 3.998,17.569 4.107,18.420 5.114 L 19.354 6.220 15.677 6.230 C 13.655 6.236,10.346 6.236,8.324 6.230 L 4.647 6.220 5.523 5.180 C 6.004 4.608,6.457 4.090,6.528 4.029 C 6.600 3.968,6.749 3.884,6.859 3.841 C 7.054 3.766,7.199 3.764,12.040 3.772 L 17.020 3.780 17.253 3.894 M20.240 8.983 L 20.240 10.206 20.123 10.323 C 19.976 10.471,19.842 10.473,19.539 10.334 C 19.412 10.276,19.176 10.210,19.014 10.186 C 18.532 10.117,18.290 10.179,17.528 10.567 L 16.877 10.898 16.508 10.897 C 16.160 10.896,16.119 10.886,15.760 10.723 C 15.223 10.478,15.021 10.415,14.614 10.362 C 14.013 10.284,13.505 10.372,12.874 10.665 C 12.167 10.992,11.830 10.991,11.126 10.663 C 10.614 10.424,10.284 10.349,9.740 10.348 C 9.204 10.347,8.945 10.409,8.320 10.689 C 7.876 10.888,7.847 10.895,7.492 10.897 L 7.123 10.898 6.472 10.567 C 5.710 10.179,5.468 10.117,4.986 10.186 C 4.824 10.210,4.588 10.276,4.461 10.334 C 4.158 10.473,4.024 10.471,3.877 10.323 L 3.760 10.206 3.760 8.983 L 3.760 7.760 12.000 7.760 L 20.240 7.760 20.240 8.983 M5.900 11.961 C 6.580 12.304,6.938 12.403,7.500 12.403 C 7.981 12.403,8.381 12.309,8.876 12.082 C 9.567 11.766,9.920 11.761,10.554 12.057 C 11.095 12.310,11.474 12.400,12.000 12.400 C 12.526 12.400,12.905 12.310,13.446 12.057 C 14.080 11.761,14.433 11.766,15.124 12.082 C 15.619 12.309,16.019 12.403,16.500 12.403 C 17.062 12.403,17.420 12.304,18.100 11.961 C 18.408 11.805,18.709 11.679,18.769 11.679 C 18.829 11.680,18.960 11.720,19.060 11.768 L 19.241 11.857 19.231 15.598 L 19.220 19.340 19.127 19.529 C 18.995 19.797,18.711 20.063,18.453 20.159 C 18.251 20.235,18.143 20.240,16.738 20.240 L 15.240 20.240 15.240 17.962 L 15.240 15.684 15.146 15.423 C 14.919 14.799,14.377 14.361,13.727 14.277 C 13.380 14.232,10.620 14.232,10.273 14.277 C 9.623 14.361,9.081 14.799,8.854 15.423 L 8.760 15.684 8.760 17.962 L 8.760 20.240 7.262 20.240 C 5.857 20.240,5.749 20.235,5.547 20.159 C 5.289 20.063,5.005 19.797,4.873 19.529 L 4.780 19.340 4.769 15.598 L 4.759 11.856 4.929 11.771 C 5.199 11.635,5.290 11.653,5.900 11.961 M13.624 15.791 C 13.753 15.877,13.760 15.998,13.760 18.117 L 13.760 20.240 12.000 20.240 L 10.240 20.240 10.240 18.117 C 10.240 15.998,10.247 15.877,10.376 15.791 C 10.400 15.774,11.131 15.761,12.000 15.761 C 12.869 15.761,13.600 15.774,13.624 15.791 " stroke="none" fill-rule="evenodd"/></svg>