<svg xmlns="http://www.w3.org/2000/svg" viewBox="0 0 24 24"><path d="M6.958 2.28a2.85 2.85 0 0 0-1.456.651c-.249.213-3.104 3.597-3.191 3.782-.062.131-.069.317-.069 1.747-.001 1.703.017 1.902.202 2.271.134.267.376.557.592.709l.199.14.014 3.94c.015 4.385-.003 4.095.294 4.7.341.697.993 1.228 1.777 1.447.235.066.448.073 2.22.073H9.5l.02-3.042c.019-2.889.024-3.048.095-3.16.122-.192.274-.34.445-.432.157-.084.193-.086 1.94-.086s1.783.002 1.94.086c.171.092.323.24.445.432.071.112.076.271.095 3.16l.02 3.042h1.96c1.778 0 1.984-.007 2.22-.073.972-.274 1.692-.987 1.985-1.967.067-.222.073-.528.086-4.18l.014-3.94.199-.14c.216-.152.458-.442.592-.709.185-.369.203-.568.203-2.271-.001-1.493-.006-1.611-.077-1.76-.114-.238-2.977-3.6-3.262-3.831a3.3 3.3 0 0 0-1.04-.534c-.224-.067-.574-.072-5.2-.079-2.728-.004-5.078.007-5.222.024M17.28 3.903c.184.103.373.304 1.15 1.22l.93 1.097-3.68.01c-2.024.006-5.336.006-7.36 0l-3.679-.01.915-1.084c.514-.609.981-1.125 1.065-1.177.332-.205.093-.197 5.439-.188l5 .009zm2.96 4.979c0 1.218-.012 1.296-.219 1.39-.161.074-.325.058-.543-.053a1.9 1.9 0 0 0-1.02-.207c-.418.03-.701.139-1.151.446-.409.278-.561.342-.807.342-.223 0-.387-.061-.7-.26-.535-.341-.91-.44-1.545-.41-.512.025-.756.1-1.26.391-.464.267-.638.324-.995.324s-.531-.057-.995-.324c-.504-.291-.748-.366-1.26-.391-.635-.03-1.01.069-1.545.41-.313.199-.477.26-.7.26-.246 0-.398-.064-.807-.342-.45-.307-.733-.416-1.151-.446a1.9 1.9 0 0 0-1.02.207c-.218.111-.382.127-.543.053-.207-.094-.219-.172-.219-1.39V7.76h16.48z" fill-rule="evenodd"/></svg>