<svg xmlns="http://www.w3.org/2000/svg" viewBox="0 0 24 24"><path d="M6.9 4.259a2 2 0 0 1-.16.04c-.178.04-3.356 3.216-3.441 3.44-.054.142-.06.783-.049 5.441.011 4.937.017 5.296.084 5.52a2.84 2.84 0 0 0 1.986 1.967c.246.069.598.073 6.68.073 6.101 0 6.433-.004 6.68-.073.971-.274 1.691-.986 1.986-1.967.067-.225.073-.567.085-5.5.01-3.841.001-5.303-.032-5.42-.038-.134-.306-.421-1.632-1.752-.873-.876-1.65-1.632-1.727-1.68l-.14-.088-5.14-.007a524 524 0 0 0-5.18.006M17.44 6.5l.739.74H5.821l.739-.74.739-.74h9.402zm-9.035 3.881c.244.158.314.317.354.808.07.855.366 1.503.957 2.095.404.403.771.633 1.293.809.352.119.402.125.991.125s.639-.006.991-.125a3.1 3.1 0 0 0 1.293-.809c.592-.593.878-1.22.955-2.09.032-.367.057-.474.137-.596.289-.436.929-.453 1.228-.032.134.188.161.392.117.866a4.6 4.6 0 0 1-.48 1.668c-.289.585-.527.905-1.018 1.367-.784.738-1.682 1.144-2.793 1.262-.978.104-2.07-.155-2.94-.698-.394-.246-1.001-.802-1.291-1.184-.278-.366-.655-1.145-.778-1.606-.115-.435-.196-1.134-.158-1.353a.744.744 0 0 1 1.142-.507"/></svg>