<svg xmlns="http://www.w3.org/2000/svg" viewBox="0 0 24 24"><path d="M6.958 2.28a2.85 2.85 0 0 0-1.456.651c-.249.213-3.104 3.597-3.191 3.782-.062.131-.069.317-.069 1.747-.001 1.703.017 1.902.202 2.271.134.267.376.557.592.709l.198.14.013 3.96.013 3.96.109.32c.151.445.362.783.695 1.116s.673.544 1.116.694l.32.108 1.989.013 1.989.014.011-2.993c.01-2.781.016-3.003.083-3.152.091-.201.281-.402.488-.514.157-.084.191-.086 1.94-.086s1.783.002 1.94.086c.207.112.397.313.488.514.067.149.073.371.083 3.152l.011 2.993 1.989-.014 1.989-.013.32-.108c.443-.15.783-.361 1.116-.694s.544-.671.695-1.116l.109-.32.013-3.96.013-3.96.198-.14c.216-.152.458-.442.592-.709.185-.369.203-.568.203-2.271-.001-1.493-.006-1.611-.077-1.76-.114-.238-2.977-3.6-3.262-3.831a3.3 3.3 0 0 0-1.04-.534c-.224-.067-.574-.072-5.2-.079-2.728-.004-5.078.007-5.222.024M17.28 3.903c.184.103.373.304 1.15 1.22l.93 1.097-3.68.01c-2.024.006-5.336.006-7.36 0l-3.679-.01.915-1.084c.514-.609.981-1.125 1.065-1.177.332-.205.093-.197 5.439-.188l5 .009zm2.96 4.979c0 1.218-.012 1.296-.219 1.39-.161.074-.325.058-.543-.053a1.9 1.9 0 0 0-1.02-.207c-.418.03-.701.139-1.151.446-.409.278-.561.342-.807.342-.223 0-.387-.061-.7-.259-.537-.341-.93-.443-1.57-.411-.485.025-.741.106-1.235.391-.464.267-.638.324-.995.324s-.531-.057-.995-.324c-.494-.285-.75-.366-1.235-.391-.64-.032-1.033.07-1.57.411-.313.198-.477.259-.7.259-.246 0-.398-.064-.807-.342-.45-.307-.733-.416-1.151-.446a1.9 1.9 0 0 0-1.02.207c-.218.111-.382.127-.543.053-.207-.094-.219-.172-.219-1.39V7.76h16.48z"/></svg>