<svg xmlns="http://www.w3.org/2000/svg" viewBox="0 0 24 24"><path d="M6.9 4.259a2 2 0 0 1-.16.04c-.178.04-3.356 3.216-3.441 3.44-.054.142-.06.784-.05 5.461l.011 5.3.109.32c.151.445.362.783.695 1.116s.671.544 1.116.695l.32.109h13l.32-.109a2.74 2.74 0 0 0 1.116-.695c.333-.333.544-.671.695-1.116l.109-.32.012-5.28c.009-3.858 0-5.323-.033-5.44-.038-.134-.306-.421-1.632-1.752-.873-.876-1.65-1.632-1.727-1.68l-.14-.088-5.14-.007a524 524 0 0 0-5.18.006M17.44 6.5l.739.74H5.821l.739-.74.739-.74h9.402zm-9.08 3.841a.85.85 0 0 1 .319.334c.027.052.065.286.086.52.081.946.379 1.567 1.047 2.189.633.588 1.319.856 2.188.856s1.555-.268 2.188-.856c.668-.622.966-1.243 1.047-2.189.038-.436.072-.545.22-.709.136-.15.308-.219.545-.219.363 0 .631.202.723.545.104.381-.095 1.459-.389 2.118a4.94 4.94 0 0 1-2.404 2.404 4.75 4.75 0 0 1-4.53-.368c-.694-.449-1.389-1.266-1.734-2.036-.294-.659-.493-1.737-.389-2.118.049-.181.199-.385.337-.46a.87.87 0 0 1 .746-.011"/></svg>