<svg xmlns="http://www.w3.org/2000/svg" viewBox="0 0 24 24"><path d="M6.9 4.259a2 2 0 0 1-.16.04c-.178.04-3.356 3.216-3.441 3.44-.054.142-.06.784-.05 5.461l.011 5.3.109.32c.151.445.362.783.695 1.116s.671.544 1.116.695l.32.109h13l.32-.109a2.74 2.74 0 0 0 1.116-.695c.333-.333.544-.671.695-1.116l.109-.32.012-5.28c.009-3.858 0-5.323-.033-5.44-.038-.134-.306-.421-1.632-1.752-.873-.876-1.65-1.632-1.727-1.68l-.14-.088-5.14-.007a524 524 0 0 0-5.18.006M17.44 6.5l.739.74H5.821l.739-.74.739-.74h9.402zm1.791 7.05-.011 4.79-.099.195c-.13.253-.467.559-.707.641-.17.058-.802.064-6.414.064s-6.244-.006-6.414-.064c-.24-.082-.577-.388-.707-.641l-.099-.195-.011-4.79-.01-4.79h14.482zM7.698 10.315a.8.8 0 0 0-.424.489c-.058.196.008.94.122 1.376a4.76 4.76 0 0 0 2.264 2.953c1.42.819 3.26.819 4.68 0a4.8 4.8 0 0 0 2.265-2.953c.114-.44.179-1.182.121-1.376-.095-.316-.412-.562-.726-.562-.3 0-.626.241-.713.527a3 3 0 0 0-.063.505c-.048.756-.365 1.434-.94 2.01-.652.651-1.379.955-2.284.955a3.1 3.1 0 0 1-2.226-.889c-.614-.584-.945-1.276-.998-2.09a3 3 0 0 0-.063-.491.8.8 0 0 0-.713-.527.9.9 0 0 0-.302.073" fill-rule="evenodd"/></svg>