<svg xmlns="http://www.w3.org/2000/svg" viewBox="0 0 24 24"><path d="M3.805 5.279c-.393.096-.633.52-.524.925.059.218.288.453.5.511.102.029.656.045 1.539.045h1.381l.759.76c.666.667.753.769.711.83a7 7 0 0 0-.536 1.037c-.519 1.347-.37 2.941.387 4.158.098.157.178.302.178.321s-.227.26-.504.535c-.277.274-.529.557-.56.628-.148.339.02.782.363.96.195.102.496.085.703-.038.228-.135 8.685-8.602 8.782-8.791.087-.172.09-.498.005-.661-.179-.346-.634-.515-.964-.359-.069.033-.359.293-.642.577l-.516.518-.171-.118c-.271-.186-.845-.458-1.216-.576a6 6 0 0 0-.82-.17 4.74 4.74 0 0 0-3.03.635 3 3 0 0 1-.347.194c-.013 0-.42-.397-.903-.882s-.943-.921-1.02-.97c-.138-.087-.165-.088-1.78-.095-.902-.004-1.701.008-1.775.026M13.02 7.96c.305.097.74.303.74.35 0 .039-4.411 4.45-4.449 4.45-.048 0-.254-.436-.351-.74-.126-.396-.155-1.162-.062-1.621a3.26 3.26 0 0 1 2.444-2.495c.416-.093 1.306-.064 1.678.056m2.988 2.427c-.482.237-.586.857-.206 1.219a.756.756 0 0 0 1.116-.091.73.73 0 0 0-.04-.931c-.224-.255-.586-.337-.87-.197m3.412 1.003c-.212.035-.269.06-.405.18a.745.745 0 0 0 .252 1.272c.71.235 1.293-.674.78-1.215a1 1 0 0 0-.187-.157.9.9 0 0 0-.44-.08m-5.52 1.126c-.52.241-.625.866-.207 1.233q.308.269.653.178a.72.72 0 0 0 .483-.361c.116-.212.136-.376.07-.595a.72.72 0 0 0-.999-.455m3.118 1.079c-.524.319-.502 1.083.037 1.328.578.263 1.168-.223 1.048-.861-.03-.162-.218-.397-.387-.484-.162-.084-.548-.075-.698.017m-5.248 1.031c-.339.167-.517.552-.414.896a.74.74 0 0 0 1.38.111c.122-.246.129-.394.028-.613-.177-.384-.641-.568-.994-.394m3.13 1.089c-.572.355-.5 1.16.121 1.365a.752.752 0 0 0 .571-1.384c-.158-.082-.546-.072-.692.019m-2.12 2.12c-.572.355-.5 1.16.121 1.365a.752.752 0 0 0 .571-1.384c-.158-.082-.546-.072-.692.019" fill-rule="evenodd"/></svg>