<svg xmlns="http://www.w3.org/2000/svg" viewBox="0 0 24 24"><path d="M3.805 5.279c-.393.096-.633.52-.524.925.059.218.288.453.5.511.102.029.656.045 1.539.045h1.381l.759.76c.666.667.753.769.711.83a9 9 0 0 0-.234.402c-.742 1.329-.812 2.84-.195 4.263.306.706.993 1.547 1.314 1.607a.83.83 0 0 0 .617-.117c.081-.057 1.429-1.386 2.995-2.954 1.983-1.985 2.867-2.896 2.91-3a.83.83 0 0 0 .007-.602c-.03-.071-.16-.229-.29-.351a4.7 4.7 0 0 0-3.615-1.245c-.792.073-1.416.272-2.05.653a3 3 0 0 1-.347.194c-.013 0-.42-.397-.903-.882s-.943-.921-1.02-.97c-.138-.087-.165-.088-1.78-.095-.902-.004-1.701.008-1.775.026m12.203 5.108c-.482.237-.586.857-.206 1.219a.756.756 0 0 0 1.116-.091.73.73 0 0 0-.04-.931c-.224-.255-.586-.337-.87-.197m3.412 1.003c-.212.035-.269.06-.405.18a.745.745 0 0 0 .252 1.272c.71.235 1.293-.674.78-1.215a1 1 0 0 0-.187-.157.9.9 0 0 0-.44-.08m-5.52 1.126c-.52.241-.625.866-.207 1.233q.308.269.653.178a.72.72 0 0 0 .483-.361c.116-.212.136-.376.07-.595a.72.72 0 0 0-.999-.455m3.118 1.079c-.524.319-.502 1.083.037 1.328.578.263 1.168-.223 1.048-.861-.03-.162-.218-.397-.387-.484-.162-.084-.548-.075-.698.017m-5.248 1.031c-.339.167-.517.552-.414.896a.74.74 0 0 0 1.38.111c.122-.246.129-.394.028-.613-.177-.384-.641-.568-.994-.394m3.13 1.089c-.572.355-.5 1.16.121 1.365a.752.752 0 0 0 .571-1.384c-.158-.082-.546-.072-.692.019m-2.12 2.12c-.572.355-.5 1.16.121 1.365a.752.752 0 0 0 .571-1.384c-.158-.082-.546-.072-.692.019"/></svg>