<svg xmlns="http://www.w3.org/2000/svg" viewBox="0 0 24 24"><path d="M9.701 2.285a2 2 0 0 0-.46.144c-.265.132-.676.526-.798.766-.103.2-.201.628-.202.875l-.001.17-.61.001c-.753.001-1.106.049-1.39.189-.264.131-.675.525-.797.765-.207.405-.202.214-.202 7.31-.001 4.328.013 6.678.04 6.819a1.76 1.76 0 0 0 1.424 1.397c.316.052 10.274.052 10.59 0a1.75 1.75 0 0 0 1.426-1.426c.024-.144.038-2.779.038-6.815 0-7.07.005-6.881-.202-7.285-.122-.24-.533-.634-.797-.765-.284-.14-.637-.188-1.39-.189l-.61-.001-.001-.17c-.001-.247-.099-.675-.202-.875-.122-.24-.533-.634-.797-.765a2 2 0 0 0-.5-.148c-.342-.049-4.22-.047-4.559.003M8.24 5.935c0 .893.619 1.647 1.465 1.786.306.05 4.284.05 4.59 0 .855-.14 1.463-.892 1.465-1.811v-.15h.667c.564 0 .678.01.74.066.069.063.073.191.073 2.445v2.38l-.15-.02-5.24-.655-5.09-.635V7.623c0-1.541.007-1.724.066-1.79.059-.065.138-.073.74-.073h.674zm7.972 6.103c.027.002-.76.703-1.902 1.693-.198.172-.344.269-.406.269-.058 0-.99-.558-2.31-1.384a214 214 0 0 1-2.245-1.413c-.016-.015 1.514.166 3.4.403 1.887.237 3.445.431 3.463.432" fill-rule="evenodd"/></svg>