<svg xmlns="http://www.w3.org/2000/svg" viewBox="0 0 24 24"><path d="M14.123 4.283c-.415.054-.879.301-1.22.649-.692.705-.851 1.688-.415 2.579.178.366.635.823 1.001 1.001.901.441 1.883.277 2.592-.431.569-.569.784-1.281.62-2.052-.19-.896-.977-1.63-1.874-1.748-.344-.045-.337-.045-.704.002m.689 1.542a.73.73 0 0 1 .428.675c0 .448-.348.765-.803.732-.93-.067-.878-1.463.055-1.47a.8.8 0 0 1 .32.063M4.811 7.278a.87.87 0 0 0-.479.374.9.9 0 0 0-.069.348.71.71 0 0 0 .299.602c.065.046 1.91.643 4.147 1.341 3.819 1.192 4.037 1.265 4.151 1.39l.417.465c.164.183.357.357.429.387.106.044.551.055 2.29.055 1.428 0 2.197-.014 2.271-.043.249-.093.491-.438.491-.697s-.242-.604-.491-.697c-.073-.028-.775-.044-2.02-.045l-1.907-.003-1.4-1.642c-.77-.903-1.468-1.688-1.552-1.744-.201-.135-.551-.144-.752-.018-.075.047-.388.338-.695.647-.308.309-.577.562-.598.562s-.957-.287-2.081-.637c-1.123-.351-2.105-.646-2.182-.657a.8.8 0 0 0-.269.012m2.848 4.562c-.316.156-.49.593-.36.903.067.161.228.355.349.421.037.02 1.088.315 2.335.655s2.276.626 2.285.636c.021.02-2.377 3.625-2.411 3.625-.013 0-1.286-.403-2.83-.896a248 248 0 0 0-2.917-.92c-.181-.042-.464.054-.63.212a.73.73 0 0 0-.219.647c.033.198.225.463.39.539.138.063 9.302 2.999 10.169 3.258.766.228 1.208.294 1.98.296.727.001 1.078-.042 1.744-.217.634-.167 1.132-.382 1.955-.846 1.091-.614 1.183-.69 1.241-1.035.085-.501-.417-.968-.9-.838-.095.026-.505.237-.91.469s-.884.483-1.063.559a5.3 5.3 0 0 1-3.587.187 185 185 0 0 1-2.889-.922c-.016-.009.611-.976 1.393-2.15 1.498-2.247 1.504-2.256 1.439-2.601-.03-.159-.218-.397-.381-.481-.183-.095-5.694-1.581-5.862-1.581a.9.9 0 0 0-.321.08" fill-rule="evenodd"/></svg>