<svg xmlns="http://www.w3.org/2000/svg" viewBox="0 0 24 24"><path d="M6.998 3.285c-2.464.217-4.441 2.181-4.715 4.683-.058.528-.058 7.536 0 8.064A5.23 5.23 0 0 0 4.26 19.62a5.224 5.224 0 0 0 6.48-.002 5.7 5.7 0 0 0 1.21-1.323c.049-.073.051-.073.1 0 .944 1.419 2.329 2.262 3.989 2.428a5.25 5.25 0 0 0 5.678-4.691c.027-.246.043-1.729.043-4.032s-.016-3.786-.043-4.032c-.207-1.893-1.381-3.508-3.098-4.262-.698-.307-1.346-.437-2.159-.433-1.294.005-2.423.43-3.408 1.282a5.4 5.4 0 0 0-.902 1.015c-.068.105-.135.19-.15.19s-.082-.085-.15-.19c-.322-.496-.929-1.098-1.465-1.452-.96-.635-2.193-.938-3.387-.833m1.18 1.536c1.498.261 2.74 1.503 3.001 3.001.091.52.091 7.836 0 8.356a3.73 3.73 0 0 1-2.039 2.684c-.606.294-.895.357-1.64.357-.546 0-.686-.014-.956-.091-1.354-.39-2.347-1.405-2.694-2.755-.064-.252-.07-.595-.07-4.373s.006-4.121.07-4.373c.502-1.954 2.349-3.151 4.328-2.806m9 0c1.498.261 2.74 1.503 3.001 3.001.091.52.091 7.836 0 8.356a3.73 3.73 0 0 1-2.039 2.684c-.606.294-.895.357-1.64.357-.546 0-.686-.014-.956-.091-1.354-.39-2.347-1.405-2.694-2.755-.064-.252-.07-.595-.07-4.373s.006-4.121.07-4.373c.502-1.954 2.349-3.151 4.328-2.806M7.152 5.842a1 1 0 0 0-.26.225l-.112.146-.02.804-.02.803-1.227 1.953c-.832 1.324-1.235 2.003-1.253 2.106-.05.295.12.647.376.779.29.15.653.103.864-.112.068-.069.543-.796 1.055-1.616.512-.819.937-1.49.945-1.49s.432.671.942 1.49c.51.82.987 1.547 1.059 1.618a.72.72 0 0 0 .936.05.72.72 0 0 0 .29-.771c-.022-.079-.59-1.025-1.263-2.101L8.24 7.769v-.726c0-.634-.01-.745-.076-.875a1 1 0 0 0-.15-.213.79.79 0 0 0-.862-.113m9 0a1 1 0 0 0-.26.225l-.112.146-.02.804-.02.803-1.227 1.953c-.832 1.324-1.235 2.003-1.253 2.106-.05.295.12.647.376.779.29.15.653.103.864-.112.068-.069.543-.796 1.055-1.616.512-.819.937-1.49.945-1.49s.432.671.942 1.49c.51.82.987 1.547 1.059 1.618a.72.72 0 0 0 .936.05.72.72 0 0 0 .29-.771c-.022-.079-.59-1.025-1.263-2.101L17.24 7.769v-.726c0-.634-.01-.745-.076-.875a1 1 0 0 0-.15-.213.79.79 0 0 0-.862-.113" fill-rule="evenodd"/></svg>