<svg xmlns="http://www.w3.org/2000/svg" viewBox="0 0 24 24"><path d="M6.791 4.062c-1.89.294-3.4 1.791-3.726 3.695C3.008 8.087 3 8.621 3 12c0 4.259 0 4.252.249 4.96a4.35 4.35 0 0 0 1.075 1.716 4.477 4.477 0 0 0 6.352 0c.657-.658 1.116-1.535 1.251-2.394.028-.177.061-.322.073-.322s.045.145.073.322c.207 1.317 1.152 2.602 2.367 3.217 2.723 1.38 5.98-.252 6.495-3.256.057-.33.065-.864.065-4.243s-.008-3.913-.065-4.243a4.56 4.56 0 0 0-2.446-3.293C17.956 4.196 17.114 4 16.5 4s-1.456.196-1.989.464c-1.271.635-2.227 1.912-2.438 3.254-.028.177-.061.322-.073.322s-.045-.145-.073-.322c-.211-1.342-1.167-2.619-2.438-3.254-.778-.39-1.798-.542-2.698-.402m.999 1.76c.389.162.448.324.449 1.236l.001.717 1.246 1.994c1.212 1.941 1.245 1.999 1.247 2.202a.73.73 0 0 1-.301.63c-.292.212-.692.188-.932-.055-.068-.069-.544-.798-1.057-1.62-.757-1.211-.942-1.483-.982-1.44-.028.03-.452.702-.944 1.494s-.95 1.497-1.018 1.566c-.493.504-1.381-.006-1.224-.702.021-.094.526-.942 1.26-2.116L6.76 7.769v-.706c0-.896.056-1.061.42-1.228a.75.75 0 0 1 .61-.013m9 0c.389.162.448.324.449 1.236l.001.717 1.246 1.994c1.212 1.941 1.245 1.999 1.247 2.202a.73.73 0 0 1-.301.63c-.292.212-.692.188-.932-.055-.068-.069-.543-.796-1.055-1.616a66 66 0 0 0-.945-1.49c-.008 0-.433.671-.945 1.49-.512.82-.987 1.547-1.055 1.616-.496.503-1.382-.005-1.225-.702.021-.094.526-.942 1.26-2.116l1.225-1.959v-.706c0-.896.056-1.061.42-1.228a.75.75 0 0 1 .61-.013"/></svg>