<svg xmlns="http://www.w3.org/2000/svg" viewBox="0 0 24 24"><path d="M15.314 4.278c-.316.098-.515.332-.545.639-.014.154.014.29.136.649.133.391.154.502.152.794-.001.334-.006.349-.249.845-.329.673-.389.9-.385 1.475.002.444.009.481.21 1.085.225.675.296.786.587.92.088.04.214.073.28.073.259 0 .604-.242.697-.491.073-.193.048-.397-.103-.829-.124-.357-.146-.471-.148-.778l-.002-.36.247-.505c.33-.672.39-.9.386-1.475-.002-.444-.009-.481-.21-1.085-.213-.638-.293-.775-.526-.894-.14-.071-.4-.102-.527-.063m3.497 0a.87.87 0 0 0-.47.36c-.128.247-.118.394.062.943.249.757.243.89-.069 1.559-.298.638-.369.85-.41 1.227-.046.416.011.789.219 1.433.209.651.311.798.621.901a.7.7 0 0 0 .835-.266c.194-.268.193-.421-.004-1.017-.249-.751-.243-.885.072-1.559.133-.285.273-.614.311-.729a3 3 0 0 0 .094-1.091c-.044-.37-.368-1.364-.492-1.512a.82.82 0 0 0-.769-.249M3.669 12.282c-.682.114-1.275.722-1.39 1.423-.051.313-.05 2.346.002 2.619a1.76 1.76 0 0 0 1.424 1.397c.145.024 3.316.038 8.315.038 8.69 0 8.377.007 8.785-.202.223-.113.639-.529.752-.752.168-.329.202-.628.202-1.805 0-1.517-.056-1.747-.535-2.22-.296-.292-.592-.445-.964-.498-.339-.049-16.303-.049-16.591 0M7.24 15v1.24H5.58c-1.607 0-1.663-.003-1.74-.08-.076-.076-.08-.133-.08-1.16s.004-1.084.08-1.16c.077-.077.133-.08 1.74-.08h1.66zm12.927-1.174c.067.061.073.152.073 1.167 0 .968-.008 1.11-.066 1.174-.064.07-.294.073-5.74.073H8.76v-2.48h5.667c5.217 0 5.673.005 5.74.066" fill-rule="evenodd"/></svg>