<svg fill="none" xmlns="http://www.w3.org/2000/svg" viewBox="0 0 24 24"><path d="M6.771 3.283 C 6.491 3.367,6.241 3.719,6.240 4.031 C 6.240 4.198,6.343 4.373,6.973 5.270 C 7.316 5.760,7.584 6.160,7.569 6.160 C 7.553 6.160,7.225 6.070,6.840 5.960 C 5.916 5.696,5.770 5.699,5.471 5.989 C 5.266 6.189,5.198 6.479,5.296 6.736 C 5.334 6.834,5.432 6.975,5.513 7.049 C 5.648 7.171,5.805 7.224,7.181 7.618 C 8.016 7.856,8.759 8.068,8.830 8.088 C 8.961 8.124,9.033 8.207,9.434 8.784 L 9.604 9.029 9.090 9.884 L 8.575 10.740 8.178 10.750 L 7.780 10.760 6.363 9.577 C 5.583 8.927,4.899 8.371,4.843 8.342 C 4.560 8.198,4.257 8.238,4.014 8.451 C 3.695 8.731,3.668 9.192,3.953 9.494 C 4.012 9.557,4.365 9.863,4.738 10.174 L 5.416 10.740 4.075 10.760 L 2.734 10.780 2.586 10.880 C 2.422 10.991,2.240 11.311,2.240 11.489 C 2.240 11.720,2.440 12.045,2.660 12.173 C 2.714 12.205,3.167 12.226,4.078 12.240 L 5.416 12.260 4.738 12.826 C 3.805 13.605,3.760 13.659,3.760 14.000 C 3.760 14.483,4.234 14.850,4.693 14.722 C 4.823 14.686,5.200 14.392,6.321 13.457 L 7.780 12.240 8.178 12.250 L 8.575 12.260 9.090 13.116 L 9.604 13.971 9.434 14.216 C 9.033 14.793,8.961 14.876,8.830 14.912 C 8.759 14.932,8.016 15.144,7.181 15.382 C 5.805 15.776,5.648 15.829,5.513 15.951 C 5.184 16.248,5.166 16.714,5.471 17.011 C 5.770 17.301,5.916 17.304,6.840 17.040 C 7.225 16.930,7.553 16.840,7.569 16.840 C 7.584 16.840,7.316 17.241,6.972 17.730 C 6.628 18.220,6.321 18.686,6.289 18.767 C 6.174 19.054,6.309 19.435,6.592 19.626 C 6.858 19.805,7.250 19.780,7.481 19.568 C 7.546 19.509,7.906 19.019,8.282 18.480 C 8.657 17.941,8.977 17.495,8.994 17.490 C 9.010 17.484,9.073 17.840,9.135 18.282 C 9.274 19.274,9.293 19.343,9.476 19.525 C 9.885 19.934,10.572 19.750,10.722 19.191 C 10.760 19.050,10.734 18.797,10.542 17.443 C 10.418 16.572,10.308 15.806,10.297 15.740 C 10.281 15.639,10.326 15.551,10.581 15.190 L 10.885 14.760 12.000 14.760 L 13.115 14.760 13.419 15.190 C 13.674 15.551,13.719 15.639,13.703 15.740 C 13.692 15.806,13.582 16.572,13.458 17.443 C 13.266 18.797,13.240 19.050,13.278 19.191 C 13.428 19.750,14.115 19.934,14.524 19.525 C 14.707 19.343,14.726 19.274,14.865 18.282 C 14.927 17.840,14.990 17.484,15.006 17.490 C 15.023 17.495,15.343 17.941,15.718 18.480 C 16.094 19.019,16.454 19.509,16.519 19.568 C 16.750 19.780,17.142 19.805,17.408 19.626 C 17.691 19.435,17.826 19.054,17.711 18.767 C 17.679 18.686,17.372 18.220,17.028 17.730 C 16.684 17.241,16.416 16.840,16.431 16.840 C 16.447 16.840,16.775 16.930,17.160 17.040 C 17.896 17.250,18.081 17.274,18.292 17.186 C 18.538 17.083,18.761 16.736,18.759 16.460 C 18.758 16.321,18.618 16.064,18.474 15.937 C 18.354 15.833,18.123 15.755,16.817 15.382 C 15.983 15.144,15.241 14.932,15.170 14.912 C 15.039 14.876,14.967 14.793,14.566 14.216 L 14.396 13.971 14.910 13.116 L 15.425 12.260 15.822 12.250 L 16.220 12.240 17.679 13.457 C 18.800 14.392,19.177 14.686,19.307 14.722 C 19.766 14.850,20.240 14.483,20.240 14.000 C 20.240 13.659,20.195 13.605,19.262 12.826 L 18.584 12.260 19.922 12.240 C 20.833 12.226,21.286 12.205,21.340 12.173 C 21.556 12.048,21.760 11.720,21.760 11.500 C 21.760 11.280,21.556 10.952,21.340 10.827 C 21.286 10.795,20.833 10.774,19.922 10.760 L 18.584 10.740 19.262 10.174 C 19.635 9.863,19.988 9.557,20.047 9.494 C 20.332 9.192,20.305 8.731,19.986 8.451 C 19.743 8.238,19.440 8.198,19.157 8.342 C 19.101 8.371,18.417 8.927,17.637 9.577 L 16.220 10.760 15.822 10.750 L 15.425 10.740 14.910 9.884 L 14.396 9.029 14.566 8.784 C 14.967 8.207,15.039 8.124,15.170 8.088 C 15.241 8.068,15.983 7.856,16.817 7.618 C 18.123 7.245,18.354 7.167,18.474 7.063 C 18.618 6.936,18.758 6.679,18.759 6.540 C 18.761 6.264,18.538 5.917,18.292 5.814 C 18.081 5.726,17.896 5.750,17.160 5.960 C 16.775 6.070,16.447 6.160,16.431 6.160 C 16.416 6.160,16.684 5.760,17.028 5.270 C 17.372 4.780,17.679 4.314,17.711 4.233 C 17.830 3.935,17.696 3.571,17.395 3.372 C 17.121 3.190,16.681 3.236,16.471 3.468 C 16.433 3.509,16.095 3.984,15.719 4.522 C 15.343 5.060,15.023 5.505,15.007 5.510 C 14.992 5.516,14.922 5.123,14.852 4.639 C 14.713 3.667,14.680 3.574,14.409 3.384 C 14.270 3.286,14.203 3.267,14.003 3.267 C 13.810 3.267,13.733 3.288,13.600 3.375 C 13.411 3.500,13.295 3.673,13.261 3.877 C 13.247 3.962,13.334 4.692,13.478 5.694 C 13.611 6.615,13.707 7.389,13.691 7.414 C 13.676 7.440,13.540 7.635,13.389 7.850 L 13.114 8.240 12.000 8.240 L 10.886 8.240 10.611 7.850 C 10.460 7.636,10.324 7.440,10.309 7.414 C 10.293 7.389,10.389 6.615,10.522 5.694 C 10.666 4.692,10.753 3.962,10.739 3.877 C 10.705 3.673,10.589 3.500,10.400 3.375 C 10.267 3.288,10.190 3.267,9.997 3.267 C 9.797 3.267,9.730 3.286,9.591 3.384 C 9.320 3.574,9.287 3.667,9.148 4.639 C 9.078 5.123,9.008 5.516,8.993 5.510 C 8.977 5.505,8.657 5.060,8.281 4.522 C 7.905 3.984,7.567 3.509,7.529 3.468 C 7.374 3.297,7.016 3.209,6.771 3.283 M13.584 10.607 C 13.864 11.073,14.093 11.475,14.093 11.500 C 14.093 11.525,13.864 11.927,13.584 12.393 L 13.075 13.240 12.000 13.240 L 10.925 13.240 10.416 12.393 C 10.136 11.927,9.907 11.525,9.907 11.500 C 9.907 11.475,10.136 11.073,10.416 10.607 L 10.925 9.760 12.000 9.760 L 13.075 9.760 13.584 10.607 " stroke="none" fill-rule="evenodd" fill="currentColor"/></svg>