<svg xmlns="http://www.w3.org/2000/svg" viewBox="0 0 24 24"><path d="M6.771 3.283c-.28.084-.53.436-.531.748 0 .167.103.342.733 1.239.343.49.611.89.596.89s-.344-.09-.729-.2c-.924-.264-1.07-.261-1.369.029a.7.7 0 0 0-.175.747 1 1 0 0 0 .217.313c.135.122.292.175 1.668.569l1.649.47c.131.036.203.119.604.696l.17.245-.514.855-.515.856-.397.01-.398.01-1.417-1.183c-.78-.65-1.464-1.206-1.52-1.235a.72.72 0 0 0-.829.109.715.715 0 0 0-.061 1.043c.059.063.412.369.785.68l.678.566-1.341.02-1.341.02-.148.1c-.164.111-.346.431-.346.609 0 .231.2.556.42.684.054.032.507.053 1.418.067l1.338.02-.678.566c-.933.779-.978.833-.978 1.174 0 .483.474.85.933.722.13-.036.507-.33 1.628-1.265L7.78 12.24l.398.01.397.01.515.856.514.855-.17.245c-.401.577-.473.66-.604.696l-1.649.47c-1.376.394-1.533.447-1.668.569-.329.297-.347.763-.042 1.06.299.29.445.293 1.369.029.385-.11.713-.2.729-.2.015 0-.253.401-.597.89-.344.49-.651.956-.683 1.037-.115.287.02.668.303.859a.75.75 0 0 0 .889-.058c.065-.059.425-.549.801-1.088.375-.539.695-.985.712-.99.016-.006.079.35.141.792.139.992.158 1.061.341 1.243a.741.741 0 0 0 1.246-.334c.038-.141.012-.394-.18-1.748-.124-.871-.234-1.637-.245-1.703-.016-.101.029-.189.284-.55l.304-.43h2.23l.304.43c.255.361.3.449.284.55-.011.066-.121.832-.245 1.703-.192 1.354-.218 1.607-.18 1.748a.741.741 0 0 0 1.246.334c.183-.182.202-.251.341-1.243.062-.442.125-.798.141-.792.017.005.337.451.712.99.376.539.736 1.029.801 1.088a.75.75 0 0 0 .889.058c.283-.191.418-.572.303-.859-.032-.081-.339-.547-.683-1.037s-.612-.89-.597-.89.344.09.729.2c.736.21.921.234 1.132.146.246-.103.469-.45.467-.726-.001-.139-.141-.396-.285-.523-.12-.104-.351-.182-1.657-.555l-1.647-.47c-.131-.036-.203-.119-.604-.696l-.17-.245.514-.855.515-.856.397-.01.398-.01 1.459 1.217c1.121.935 1.498 1.229 1.628 1.265.459.128.933-.239.933-.722 0-.341-.045-.395-.978-1.174l-.678-.566 1.338-.02c.911-.014 1.364-.035 1.418-.067.216-.125.42-.453.42-.673s-.204-.548-.42-.673c-.054-.032-.507-.053-1.418-.067l-1.338-.02.678-.566c.373-.311.726-.617.785-.68a.715.715 0 0 0-.061-1.043.72.72 0 0 0-.829-.109c-.056.029-.74.585-1.52 1.235L16.22 10.76l-.398-.01-.397-.01-.515-.856-.514-.855.17-.245c.401-.577.473-.66.604-.696l1.647-.47c1.306-.373 1.537-.451 1.657-.555.144-.127.284-.384.285-.523.002-.276-.221-.623-.467-.726-.211-.088-.396-.064-1.132.146-.385.11-.713.2-.729.2-.015 0 .253-.4.597-.89s.651-.956.683-1.037c.119-.298-.015-.662-.316-.861-.274-.182-.714-.136-.924.096-.038.041-.376.516-.752 1.054s-.696.983-.712.988c-.015.006-.085-.387-.155-.871-.139-.972-.172-1.065-.443-1.255-.139-.098-.206-.117-.406-.117-.193 0-.27.021-.403.108a.74.74 0 0 0-.339.502c-.014.085.073.815.217 1.817.133.921.229 1.695.213 1.72-.015.026-.151.221-.302.436l-.275.39h-2.228l-.275-.39c-.151-.214-.287-.41-.302-.436-.016-.025.08-.799.213-1.72.144-1.002.231-1.732.217-1.817a.74.74 0 0 0-.339-.502c-.133-.087-.21-.108-.403-.108-.2 0-.267.019-.406.117-.271.19-.304.283-.443 1.255-.07.484-.14.877-.155.871-.016-.005-.336-.45-.712-.988a36 36 0 0 0-.752-1.054c-.155-.171-.513-.259-.758-.185"/></svg>