<svg xmlns="http://www.w3.org/2000/svg" viewBox="0 0 24 24"><path d="M3.42 2.259c-.022.008-.09.025-.151.039-.152.033-.416.28-.466.435-.022.07-.16.84-.305 1.713-.235 1.415-.258 1.604-.217 1.758.059.218.288.453.5.511.087.025.451.045.809.045h.65v12.48l-.63.001c-.861.001-1.03.049-1.237.354-.268.393-.049.993.408 1.12.22.062 4.218.062 4.438 0 .457-.127.676-.727.408-1.12-.207-.305-.376-.353-1.237-.354l-.63-.001V6.76h.65c.358 0 .722-.02.809-.045.212-.058.441-.293.5-.511.041-.154.018-.345-.221-1.778-.147-.883-.285-1.651-.305-1.706-.049-.128-.219-.309-.373-.394-.106-.058-.315-.067-1.74-.074a50 50 0 0 0-1.66.007M5.977 4.43c.059.369.117.701.128.74.019.065-.052.07-1.105.07s-1.124-.005-1.105-.07c.011-.039.069-.371.128-.74l.109-.67h1.736zm5.943.852A4.08 4.08 0 0 0 9.4 6.544c-.45.479-.736.986-.946 1.676l-.11.36-.022 1.697-.022 1.698-.229.134a2.3 2.3 0 0 0-.75.749c-.236.412-.241.473-.241 2.804 0 1.968.006 2.142.075 2.352.233.708.856 1.105 1.735 1.106h.23v.47c0 .57.044.744.235.935.231.23.541.29.825.159.366-.168.46-.386.46-1.063v-.501h7.56v.517c0 .285.019.568.043.63.094.249.436.49.699.492.185.001.504-.177.618-.345.093-.138.101-.187.113-.721l.013-.573h.227c.336-.001.72-.072.949-.176.415-.189.765-.656.858-1.142.056-.295.053-4.036-.003-4.345a2.06 2.06 0 0 0-.949-1.338l-.241-.139-.016-1.64c-.015-1.633-.016-1.642-.123-2.039a4.1 4.1 0 0 0-3.076-2.965c-.254-.059-.6-.069-2.672-.078-1.309-.006-2.533.005-2.72.024m5.125 1.535c.707.15 1.37.681 1.712 1.371.227.456.242.599.242 2.276L19 11.988l-.17.076c-.093.042-.298.202-.454.356-.446.439-.613.882-.615 1.63l-.001.27h-6.72v-.392c0-.659-.157-1.077-.56-1.49a2.4 2.4 0 0 0-.454-.358l-.233-.132.017-1.564c.014-1.354.026-1.594.087-1.784.283-.881 1.037-1.601 1.863-1.778.382-.082 4.901-.086 5.285-.005m-5.34 2.6a.84.84 0 0 0-.45.412c-.07.163-.081 2.857-.013 3.038.136.361.572.547.973.415.178-.059.413-.318.445-.49.013-.072.019-.763.012-1.535l-.012-1.403-.099-.145c-.187-.273-.561-.401-.856-.292m2.51-.019a.75.75 0 0 0-.466.375c-.087.163-.089.197-.089 1.547 0 .759.014 1.429.031 1.489.039.139.246.377.397.455a.8.8 0 0 0 .304.062c.337.001.558-.134.692-.426.068-.146.074-.283.075-1.52 0-.799-.016-1.42-.04-1.506-.05-.181-.3-.414-.506-.471a.6.6 0 0 0-.398-.005m2.485-.002a.73.73 0 0 0-.538.515c-.06.216-.056 2.718.005 2.893.112.324.379.52.712.522a.79.79 0 0 0 .648-.356c.092-.148.093-.164.106-1.53.013-1.474.002-1.585-.179-1.8a.78.78 0 0 0-.754-.244m-7.331 4.081.131.116.022.834c.024.901.038.966.264 1.18.063.06.165.127.227.15.077.03 1.471.043 4.411.043 4.14 0 4.305-.003 4.448-.076.357-.182.408-.337.408-1.247 0-.588.012-.751.065-.863.08-.167.236-.254.457-.254.135 0 .191.025.302.136l.136.136V17.6l-5.83-.01-5.83-.01v-1.92c0-1.473.012-1.948.051-2.042.116-.273.507-.348.738-.141" fill-rule="evenodd"/></svg>