<svg xmlns="http://www.w3.org/2000/svg" viewBox="0 0 24 24"><path d="M8.986 3.284a4.79 4.79 0 0 0-3.543 2.247 5.8 5.8 0 0 0-.566 1.35c-.091.331-.094.387-.107 2.41l-.015 2.07-.287.145c-.378.189-.797.61-.98.983-.241.492-.247.562-.247 3.211 0 2.565.011 2.732.202 3.105.113.223.529.639.752.752.257.131.651.202 1.135.202l.43.001v.697c0 .396.018.747.043.81.093.249.438.491.697.491s.604-.242.697-.491c.025-.063.043-.414.043-.81v-.697h9.52v.697c0 .396.018.747.043.81.093.249.438.491.697.491s.604-.242.697-.491c.025-.063.043-.414.043-.81v-.697l.43-.001c.484 0 .878-.071 1.135-.202.223-.113.639-.529.752-.752.191-.373.202-.54.202-3.105 0-2.649-.006-2.719-.247-3.211-.178-.364-.598-.784-.98-.982l-.287-.149-.015-2.069c-.013-2.021-.016-2.077-.107-2.408-.28-1.017-.79-1.846-1.518-2.467a4.72 4.72 0 0 0-2.645-1.133c-.455-.047-5.521-.045-5.974.003m.419 5.097c.08.051.188.162.24.246l.095.153v3.453l-.121.172c-.166.236-.346.334-.619.334s-.453-.098-.619-.334l-.121-.172V8.78l.093-.149c.233-.375.691-.484 1.052-.25m3 0c.08.051.188.162.24.246l.095.153v3.453l-.121.172c-.166.236-.346.334-.619.334s-.453-.098-.619-.334l-.121-.172V8.78l.093-.149c.233-.375.691-.484 1.052-.25m3 0c.08.051.188.162.24.246l.095.153v3.453l-.121.172c-.166.236-.346.334-.619.334s-.453-.098-.619-.334l-.121-.172V8.78l.093-.149c.233-.375.691-.484 1.052-.25M5.912 12.89a.8.8 0 0 1 .243.28c.079.162.085.24.085 1.064 0 .712.012.918.062 1.037a.73.73 0 0 0 .398.413c.153.071.388.074 5.291.075 5.569.001 5.281.012 5.524-.211.219-.201.243-.331.244-1.305.001-.832.007-.911.086-1.073.215-.445.882-.547 1.2-.184.2.227.195.164.195 2.719 0 2.167-.006 2.396-.066 2.462-.064.07-.339.073-7.167.073-6.551 0-7.106-.005-7.174-.066-.069-.063-.073-.192-.073-2.462s.004-2.403.076-2.544a.7.7 0 0 1 .344-.344c.18-.098.531-.067.732.066" fill-rule="evenodd"/></svg>