<svg xmlns="http://www.w3.org/2000/svg" viewBox="0 0 24 24"><path d="M9.043 3.284a4.7 4.7 0 0 0-1.981.648 4.76 4.76 0 0 0-2.074 2.611c-.216.685-.228.832-.228 2.901v1.915l-.29.146c-.38.19-.799.61-.982.984-.241.492-.247.562-.247 3.211 0 2.565.011 2.732.202 3.105.113.223.529.639.752.752.257.131.651.202 1.135.202l.43.001v.697c0 .396.018.747.043.81.093.249.438.491.697.491s.604-.242.697-.491c.025-.063.043-.414.043-.81v-.697h9.52v.697c0 .396.018.747.043.81.093.249.438.491.697.491s.604-.242.697-.491c.025-.063.043-.414.043-.81v-.697l.43-.001c.484 0 .878-.071 1.135-.202.223-.113.639-.529.752-.752.191-.373.202-.54.202-3.105 0-2.649-.006-2.719-.247-3.211-.179-.365-.598-.784-.982-.983l-.29-.15V9.463c0-2.048-.015-2.247-.224-2.91a4.76 4.76 0 0 0-3.365-3.155 6 6 0 0 0-.761-.116c-.556-.049-5.293-.047-5.847.002m6.356 1.59c1.005.307 1.835 1.096 2.163 2.056.166.486.198.927.198 2.763v1.656l-.27.132c-.387.189-.832.642-1.021 1.039-.179.376-.229.648-.229 1.247v.473H7.76v-.473c0-.599-.05-.871-.229-1.247-.189-.397-.634-.85-1.021-1.039l-.27-.132.001-1.664c0-1.87.029-2.271.195-2.752A3.29 3.29 0 0 1 8.953 4.8c.103-.018 1.528-.029 3.167-.025 2.979.008 2.98.008 3.279.099M8.7 8.316a.73.73 0 0 0-.398.413c-.053.126-.062.396-.061 1.78.001 1.5.007 1.644.075 1.791.175.38.587.552.955.398a.73.73 0 0 0 .413-.398c.068-.147.074-.29.074-1.8s-.006-1.653-.074-1.8c-.181-.392-.607-.558-.984-.384m3 0a.73.73 0 0 0-.398.413c-.053.126-.062.396-.061 1.78.001 1.5.007 1.644.075 1.791a.73.73 0 0 0 .413.398c.368.154.78-.018.955-.398.068-.147.074-.29.074-1.8s-.006-1.653-.074-1.8c-.181-.392-.607-.558-.984-.384m3 0a.73.73 0 0 0-.398.413c-.053.126-.062.396-.061 1.78.001 1.5.007 1.644.075 1.791.175.38.587.552.955.398a.73.73 0 0 0 .413-.398c.068-.147.074-.29.074-1.8s-.006-1.653-.074-1.8c-.181-.392-.607-.558-.984-.384M5.912 12.89a.8.8 0 0 1 .243.28c.079.162.085.24.085 1.064 0 .712.012.918.062 1.037a.73.73 0 0 0 .398.413c.153.071.388.074 5.291.075 5.569.001 5.281.012 5.524-.211.219-.201.243-.331.244-1.305.001-.832.007-.911.086-1.073.215-.445.882-.547 1.2-.184.2.227.195.164.195 2.719 0 2.167-.006 2.396-.066 2.462-.064.07-.339.073-7.167.073-6.551 0-7.106-.005-7.174-.066-.069-.063-.073-.192-.073-2.462s.004-2.403.076-2.544a.7.7 0 0 1 .344-.344c.18-.098.531-.067.732.066" fill-rule="evenodd"/></svg>