<svg xmlns="http://www.w3.org/2000/svg" viewBox="0 0 24 24"><path d="M9.043 3.284a4.7 4.7 0 0 0-1.981.648 4.76 4.76 0 0 0-2.074 2.611c-.216.685-.228.832-.228 2.901v1.915l-.29.146c-.38.19-.799.61-.982.984-.241.492-.247.562-.247 3.211 0 2.565.011 2.732.202 3.105.113.223.529.639.752.752.257.131.651.202 1.135.202l.43.001v.697c0 .396.018.747.043.81.093.249.438.491.697.491s.604-.242.697-.491c.025-.063.043-.414.043-.81v-.697h9.52v.697c0 .396.018.747.043.81.093.249.438.491.697.491s.604-.242.697-.491c.025-.063.043-.414.043-.81v-.697l.43-.001c.484 0 .878-.071 1.135-.202.223-.113.639-.529.752-.752.191-.373.202-.54.202-3.105 0-2.649-.006-2.719-.247-3.211-.179-.365-.598-.784-.982-.983l-.29-.15V9.463c0-2.048-.015-2.247-.224-2.91a4.76 4.76 0 0 0-3.365-3.155 6 6 0 0 0-.761-.116c-.556-.049-5.293-.047-5.847.002m6.377 1.59c1.12.375 1.931 1.214 2.227 2.306.082.303.087.425.103 2.243l.017 1.923-.273.133c-.391.191-.835.642-1.026 1.041-.172.359-.227.668-.228 1.27v.45H7.76v-.45c-.001-.602-.056-.911-.228-1.27-.191-.399-.635-.85-1.026-1.041l-.273-.133.017-1.923c.016-1.818.021-1.94.103-2.243.328-1.209 1.365-2.173 2.558-2.38.104-.018 1.548-.029 3.209-.026l3.02.007zm-6.6 3.402a.73.73 0 0 0-.538.515c-.058.209-.056 3.218.003 3.428.059.213.293.441.513.5.4.108.812-.12.92-.51.056-.2.056-3.218 0-3.418a.8.8 0 0 0-.353-.448.95.95 0 0 0-.545-.067m3 0a.73.73 0 0 0-.538.515c-.058.209-.056 3.218.003 3.428.059.213.293.441.513.5.4.108.812-.12.92-.51.056-.2.056-3.218 0-3.418a.8.8 0 0 0-.353-.448.95.95 0 0 0-.545-.067m3 0a.73.73 0 0 0-.538.515c-.058.209-.056 3.218.003 3.428.059.213.293.441.513.5.4.108.812-.12.92-.51.056-.2.056-3.218 0-3.418a.8.8 0 0 0-.353-.448.95.95 0 0 0-.545-.067M5.912 12.89a.8.8 0 0 1 .243.28c.079.162.085.24.085 1.064 0 .712.012.918.062 1.037a.73.73 0 0 0 .398.413c.153.071.388.074 5.291.075 5.569.001 5.281.012 5.524-.211.219-.201.243-.331.244-1.305.001-.832.007-.911.086-1.073.215-.445.882-.547 1.2-.184.2.227.195.164.195 2.719 0 2.167-.006 2.396-.066 2.462-.064.07-.339.073-7.167.073-6.551 0-7.106-.005-7.174-.066-.069-.063-.073-.192-.073-2.462s.004-2.403.076-2.544a.7.7 0 0 1 .344-.344c.18-.098.531-.067.732.066" fill-rule="evenodd"/></svg>