<svg xmlns="http://www.w3.org/2000/svg" viewBox="0 0 24 24"><path d="M7.595 4.283c-.458.049-.772.14-1.215.356-1.051.51-1.732 1.35-2.027 2.501-.066.259-.086.492-.102 1.225l-.02.906-.189.025a2.3 2.3 0 0 0-.523.187 2.27 2.27 0 0 0-1.22 1.546c-.083.393-.085 4.944-.001 5.337.077.366.192.571.478.858.441.441.754.534 1.794.535l.67.001v.65c0 .358.019.717.042.799.108.39.52.618.92.51.22-.059.454-.287.513-.5.025-.087.045-.451.045-.809v-.65h10.48v.65c0 .358.02.722.045.809.059.213.293.441.513.5.4.108.812-.12.92-.51.023-.082.042-.441.042-.799v-.65l.67-.001c.725 0 1.084-.053 1.375-.202.223-.113.639-.529.752-.752.191-.373.202-.54.202-3.105 0-2.649-.006-2.719-.247-3.211-.272-.555-.997-1.113-1.543-1.188l-.2-.027-.02-.907c-.016-.735-.036-.968-.102-1.227-.295-1.151-.976-1.991-2.027-2.501-.46-.224-.739-.303-1.265-.358-.45-.048-8.311-.046-8.76.002M11.24 9v3.24H6.76l-.001-.67c0-.713-.053-1.084-.193-1.358-.113-.222-.425-.556-.631-.677l-.175-.103.001-.866c0-.974.039-1.223.25-1.622.166-.315.619-.767.934-.934.443-.234.535-.243 2.505-.247l1.79-.003zm5.316-3.178c.378.089.707.281 1.024.598.554.554.659.893.659 2.146l.001.866-.175.103c-.206.121-.518.455-.631.677-.14.274-.193.645-.193 1.358l-.001.67h-4.48V5.76l1.77.001c1.437 0 1.818.012 2.026.061M4.812 10.825a.68.68 0 0 1 .352.343c.068.133.076.245.076 1.052 0 .724.012.932.062 1.051a.73.73 0 0 0 .398.413c.153.071.416.074 6.291.075 6.661.001 6.28.013 6.524-.211.219-.202.243-.33.244-1.32.001-.954.014-1.035.196-1.242.11-.126.352-.226.545-.226s.435.1.545.226c.2.227.195.164.195 2.719 0 2.167-.006 2.396-.066 2.462-.064.07-.37.073-8.167.073-7.482 0-8.106-.005-8.174-.066-.069-.063-.073-.192-.073-2.462s.004-2.403.076-2.544a.7.7 0 0 1 .656-.406.8.8 0 0 1 .32.063" fill-rule="evenodd"/></svg>