<svg xmlns="http://www.w3.org/2000/svg" viewBox="0 0 24 24"><path d="M3.42 2.259c-.022.008-.09.025-.151.039-.152.033-.416.28-.466.435-.022.07-.16.84-.305 1.713-.235 1.415-.258 1.604-.217 1.758.059.218.288.453.5.511.087.025.451.045.809.045h.65v12.48l-.63.001c-.861.001-1.03.049-1.237.354-.268.393-.049.993.408 1.12.22.062 4.218.062 4.438 0 .457-.127.676-.727.408-1.12-.207-.305-.376-.353-1.237-.354l-.63-.001V6.76h.65c.358 0 .722-.02.809-.045.212-.058.441-.293.5-.511.041-.154.018-.345-.221-1.778-.147-.883-.285-1.651-.305-1.706-.049-.128-.219-.309-.373-.394-.106-.058-.315-.067-1.74-.074a50 50 0 0 0-1.66.007m8.1 3.219c-1.458.31-2.586 1.417-2.987 2.932-.055.207-.069.533-.084 1.89l-.018 1.64-.272.131a2.1 2.1 0 0 0-.836.785c-.238.415-.243.472-.243 2.806 0 1.968.006 2.142.075 2.352.233.708.856 1.105 1.735 1.106h.23v.47c0 .57.044.744.235.935.231.23.541.29.825.159.366-.168.46-.386.46-1.063v-.501h7.56v.517c0 .285.019.568.043.63.094.249.436.49.699.492.185.001.504-.177.618-.345.093-.138.101-.187.113-.721l.013-.573h.227c.336-.001.72-.072.949-.176.415-.189.765-.656.858-1.142.056-.295.053-4.036-.003-4.345-.105-.57-.551-1.158-1.065-1.4l-.248-.117-.002-1.361c-.002-1.422-.032-1.843-.165-2.335-.313-1.158-1.263-2.196-2.377-2.599-.673-.244-.693-.245-3.468-.242-2.283.002-2.565.01-2.872.075m.748 4.121a.7.7 0 0 1 .21.238c.078.152.082.23.082 1.509 0 1.267-.005 1.359-.08 1.514-.152.313-.566.437-.84.25a1 1 0 0 1-.216-.203c-.081-.108-.084-.165-.095-1.491-.011-1.298-.007-1.388.067-1.556a.6.6 0 0 1 .211-.259.72.72 0 0 1 .661-.002m2.459-.009a.8.8 0 0 1 .206.21c.085.137.087.17.087 1.563v1.423l-.115.151c-.278.364-.794.343-1.014-.041-.088-.153-.09-.182-.09-1.536-.001-1.54.003-1.568.275-1.749a.7.7 0 0 1 .651-.021m2.463.01a.8.8 0 0 1 .21.21c.076.123.08.204.08 1.554 0 1.414-.001 1.425-.091 1.56a.614.614 0 0 1-1.018 0c-.09-.135-.091-.146-.091-1.56 0-1.35.004-1.431.08-1.554a.62.62 0 0 1 .83-.21m-7.821 3.877.131.116.021.814c.024.919.053 1.027.333 1.25l.153.123 4.343.011 4.343.01.176-.085a.8.8 0 0 0 .284-.248c.105-.159.107-.174.127-.985.013-.554.036-.852.07-.911.084-.146.215-.212.423-.212.168 0 .214.019.331.136l.136.136V17.6l-5.83-.01-5.83-.01v-1.92c0-1.473.012-1.948.051-2.042.116-.273.507-.348.738-.141" fill-rule="evenodd"/></svg>