<svg xmlns="http://www.w3.org/2000/svg" viewBox="0 0 24 24"><path d="M10.06 3.96c-.839.085-1.61.206-2.421.381-.735.159-3.811.922-3.969.985-.152.06-.337.282-.388.463-.057.206-.055 2.223.003 2.43.056.204.292.44.496.496.226.063 16.212.063 16.438 0a.82.82 0 0 0 .496-.496c.058-.207.06-2.224.003-2.43-.051-.181-.236-.403-.388-.463-.142-.056-3.166-.81-3.883-.968a22 22 0 0 0-2.567-.4c-1.016-.1-2.823-.099-3.82.002M6.7 9.816a.8.8 0 0 0-.403.447c-.127.333.035 1.381.324 2.091.889 2.189 3.367 3.602 5.904 3.367 2.497-.231 4.46-1.777 5.055-3.981.133-.492.206-1.216.143-1.424-.058-.196-.26-.431-.431-.502-.19-.079-10.412-.077-10.592.002m-3.895.464c-.391.092-.633.519-.524.924.059.218.288.453.5.511.214.06 2.224.06 2.438 0a.84.84 0 0 0 .306-.191.739.739 0 0 0-.348-1.246c-.191-.044-2.183-.043-2.372.002m16 0c-.391.092-.633.519-.524.924.059.218.288.453.5.511.214.06 2.224.06 2.438 0a.84.84 0 0 0 .306-.191.739.739 0 0 0-.348-1.246c-.191-.044-2.183-.043-2.372.002M6.9 14.259a2 2 0 0 1-.16.04c-.161.036-1.717 1.573-1.824 1.801a.74.74 0 0 0 .584 1.05c.342.039.448-.036 1.347-.94.674-.677.833-.859.869-.99.054-.198.054-.242.002-.429a.8.8 0 0 0-.353-.448c-.111-.056-.397-.108-.465-.084m10 0a1 1 0 0 1-.147.037c-.236.052-.51.407-.512.664-.002.306.063.397.893 1.235.506.511.865.842.966.889a.74.74 0 0 0 1.049-.579c.039-.34-.018-.424-.884-1.298-.443-.447-.85-.837-.905-.865-.106-.056-.393-.107-.46-.083m-5.08 2.017a.73.73 0 0 0-.538.515c-.055.196-.055 2.222 0 2.418.108.39.52.618.92.51.22-.059.454-.287.513-.5.058-.206.06-2.224.003-2.428a.8.8 0 0 0-.353-.448.95.95 0 0 0-.545-.067"/></svg>