<svg xmlns="http://www.w3.org/2000/svg" viewBox="0 0 24 24"><path d="M11.782 2.3c-.216.077-.349.182-.435.343-.04.075-.41 1.712-.822 3.637l-.75 3.499-3.491.75c-1.92.413-3.554.78-3.63.817-.289.137-.464.528-.377.845.054.197.234.419.393.485.06.025 1.684.383 3.608.797l3.498.751.748 3.484c.412 1.917.78 3.55.818 3.63a.76.76 0 0 0 .849.385c.197-.054.419-.234.485-.393.025-.06.383-1.684.797-3.608l.751-3.498 3.485-.749c1.917-.411 3.55-.779 3.63-.817.3-.143.472-.528.382-.857-.057-.208-.289-.461-.464-.506-.064-.016-1.673-.364-3.574-.773l-3.458-.743-.75-3.487c-.412-1.918-.78-3.553-.818-3.632a.78.78 0 0 0-.453-.374c-.171-.058-.226-.056-.422.014m6 .999q-.304.11-.43.325c-.037.064-.121.402-.186.751-.066.35-.139.649-.164.664a7 7 0 0 1-.654.137c-.452.081-.647.134-.76.208a.734.734 0 0 0-.16 1.098c.153.183.268.225.95.353.345.064.637.127.649.138.011.012.074.304.138.649s.143.677.175.738c.191.368.722.499 1.071.264.227-.153.291-.3.407-.932.135-.735.132-.724.214-.747.037-.01.334-.067.66-.127.399-.073.633-.136.719-.194a.747.747 0 0 0 .087-1.18c-.155-.137-.238-.162-.946-.287a5 5 0 0 1-.554-.118c-.025-.015-.098-.314-.164-.664-.065-.349-.15-.689-.188-.754-.164-.281-.565-.43-.864-.322m-12 12q-.304.11-.43.325c-.037.064-.121.402-.186.751-.066.35-.139.649-.164.664a7 7 0 0 1-.654.137c-.452.081-.647.134-.76.208a.734.734 0 0 0-.16 1.098c.153.183.268.225.95.353.345.064.637.127.649.138.011.012.074.304.138.649s.143.677.175.738c.191.368.722.499 1.071.264.227-.153.291-.3.407-.932.06-.326.117-.623.127-.66.023-.082.012-.079.747-.214.399-.073.633-.136.719-.194a.747.747 0 0 0 .087-1.18c-.155-.137-.238-.162-.946-.287a5 5 0 0 1-.554-.118c-.025-.015-.098-.314-.164-.664-.065-.349-.15-.689-.188-.754-.164-.281-.565-.43-.864-.322"/></svg>