<svg xmlns="http://www.w3.org/2000/svg" viewBox="0 0 24 24"><path d="M3.82 3.276a.73.73 0 0 0-.538.515c-.06.216-.057 13.212.003 13.428.092.332.488.58.834.521.091-.015.351-.158.665-.366a20.3 20.3 0 0 1 6.776-2.831c.405-.087 1.494-.262 1.63-.263.039 0 .05.561.051 2.67.001 2.514.005 2.679.075 2.83.135.293.382.46.677.46.083 0 .854-.235 1.764-.539 1.741-.581 1.784-.601 1.923-.921.038-.088.292-1.279.563-2.646l.495-2.486.201-.099c.601-.296 1.242-.974 1.524-1.613.2-.451.272-.8.274-1.336.004-.639-.092-1.043-.383-1.617-.338-.667-1.05-1.319-1.767-1.617-.468-.196-.748-.237-2.747-.406a220 220 0 0 1-2.48-.222c-2.229-.235-4.22-.823-6.427-1.897A17 17 0 0 1 4.8 3.639c-.558-.363-.727-.426-.98-.363m2.44 2.903c2.305 1.133 4.139 1.684 6.81 2.043l.17.023v4.511l-.13.022a15 15 0 0 1-.49.064c-2.271.267-5.19 1.258-7.395 2.511a9 9 0 0 1-.45.247c-.008 0-.015-2.296-.015-5.102V5.395l.33.186c.181.102.708.371 1.17.598m10 2.323c.682.056 1.343.128 1.469.159.356.088.627.247.915.535.403.403.595.843.595 1.364 0 .608-.271 1.138-.771 1.506-.379.278-.579.32-2.062.433-.718.055-1.383.11-1.476.123l-.17.023v-4.28l.13.018c.072.009.688.063 1.37.119m.858 5.528c-.001.039-.176.933-.39 1.987l-.388 1.917-.759.253a19 19 0 0 1-.79.253c-.017 0-.031-.969-.031-2.154v-2.153l.95-.07c.523-.039.968-.076.99-.083s.125-.015.23-.017c.156-.002.19.009.188.067" fill-rule="evenodd"/></svg>