<svg fill="none" xmlns="http://www.w3.org/2000/svg" viewBox="0 0 24 24"><path d="M3.820 3.276 C 3.554 3.342,3.353 3.534,3.282 3.791 C 3.222 4.007,3.225 17.003,3.285 17.219 C 3.377 17.551,3.773 17.799,4.119 17.740 C 4.210 17.725,4.470 17.582,4.784 17.374 C 6.776 16.059,9.197 15.047,11.560 14.543 C 11.965 14.456,13.054 14.281,13.190 14.280 C 13.229 14.280,13.240 14.841,13.241 16.950 C 13.242 19.464,13.246 19.629,13.316 19.780 C 13.451 20.073,13.698 20.240,13.993 20.240 C 14.076 20.240,14.847 20.005,15.757 19.701 C 17.498 19.120,17.541 19.100,17.680 18.780 C 17.718 18.692,17.972 17.501,18.243 16.134 L 18.738 13.648 18.939 13.549 C 19.540 13.253,20.181 12.575,20.463 11.936 C 20.663 11.485,20.735 11.136,20.737 10.600 C 20.741 9.961,20.645 9.557,20.354 8.983 C 20.016 8.316,19.304 7.664,18.587 7.366 C 18.119 7.170,17.839 7.129,15.840 6.960 C 14.795 6.871,13.679 6.771,13.360 6.738 C 11.131 6.503,9.140 5.915,6.933 4.841 C 6.038 4.405,5.601 4.159,4.800 3.639 C 4.242 3.276,4.073 3.213,3.820 3.276 M5.660 5.891 C 6.713 6.449,7.918 6.963,9.053 7.338 C 10.392 7.780,11.486 8.021,13.070 8.223 L 13.240 8.245 13.240 10.500 L 13.240 12.755 13.070 12.777 C 11.084 13.030,9.606 13.406,7.840 14.107 C 7.185 14.368,5.606 15.122,5.050 15.440 L 4.760 15.606 4.760 10.499 L 4.760 5.392 4.950 5.504 C 5.054 5.565,5.374 5.739,5.660 5.891 M16.260 8.502 C 16.942 8.558,17.603 8.630,17.729 8.661 C 18.085 8.749,18.356 8.908,18.644 9.196 C 19.047 9.599,19.239 10.039,19.239 10.560 C 19.239 11.168,18.968 11.698,18.468 12.066 C 18.089 12.344,17.889 12.386,16.406 12.499 C 15.688 12.554,15.023 12.609,14.930 12.622 L 14.760 12.645 14.760 10.505 L 14.760 8.365 14.890 8.383 C 14.962 8.392,15.578 8.446,16.260 8.502 M17.118 14.030 C 17.117 14.069,16.942 14.963,16.728 16.017 L 16.340 17.934 15.581 18.187 C 15.163 18.326,14.808 18.440,14.791 18.440 C 14.774 18.440,14.760 17.471,14.760 16.286 L 14.760 14.133 15.710 14.063 C 16.233 14.024,16.678 13.987,16.700 13.980 C 16.722 13.972,16.825 13.965,16.930 13.963 C 17.086 13.961,17.120 13.972,17.118 14.030 " stroke="none" fill-rule="evenodd"/></svg>