<svg xmlns="http://www.w3.org/2000/svg" viewBox="0 0 24 24"><path d="M2.9 2.259a1 1 0 0 1-.147.037c-.236.052-.51.407-.512.664-.002.336-.033.302 2.412 2.75l2.326 2.33H6.5c-1.225.001-1.808.198-2.435.824a2.74 2.74 0 0 0-.696 1.116l-.109.32v3.4l.109.32c.151.445.362.783.695 1.116.334.334.674.545 1.116.693l.32.107 1.72.024c1.295.017 1.753.036 1.852.076.073.029 1.576 1.081 3.34 2.336 1.765 1.255 3.271 2.305 3.348 2.333.175.064.259.066.459.01a.82.82 0 0 0 .496-.496c.028-.098.045-.585.045-1.278v-1.12l1.93 1.926c1.726 1.723 1.948 1.932 2.105 1.973a.75.75 0 0 0 .925-.925c-.042-.16-.825-.955-9.153-9.288C7.558 6.495 3.415 2.371 3.36 2.342c-.105-.055-.392-.107-.46-.083m12.913 1.019c-.142.034-.138.031-3.172 2.191-1.363.971-2.211 1.6-2.266 1.682a.76.76 0 0 0-.094.614c.041.158.294.421 2.608 2.715 1.409 1.397 2.62 2.582 2.692 2.633a.74.74 0 0 0 .886-.045c.313-.274.291.078.292-4.788 0-2.865-.013-4.391-.041-4.489a.8.8 0 0 0-.353-.448.94.94 0 0 0-.552-.065m5.007 1.998a.73.73 0 0 0-.538.515c-.06.216-.057 11.212.003 11.428.059.213.293.441.513.5.4.108.812-.12.92-.51.058-.206.058-11.212 0-11.418a.8.8 0 0 0-.353-.448.95.95 0 0 0-.545-.067m-2.4 2.984a2 2 0 0 1-.149.037c-.147.032-.39.251-.457.411-.07.167-.08 5.377-.011 5.559.093.249.438.491.697.491s.604-.242.697-.491c.029-.075.043-.989.043-2.767s-.014-2.692-.043-2.767a.9.9 0 0 0-.357-.391c-.108-.055-.355-.104-.42-.082"/></svg>