<svg xmlns="http://www.w3.org/2000/svg" viewBox="0 0 24 24"><path d="M4.805 2.279a.77.77 0 0 0-.544.597c-.077.453.303.883.781.884.157 0 .441-.164.576-.334.109-.137.122-.182.122-.426 0-.245-.012-.288-.124-.426-.212-.262-.506-.369-.811-.295M7.42 4.258a2 2 0 0 1-.149.039c-.147.032-.39.251-.457.411a.735.735 0 0 0 .197.838c.374.329.886.252 1.134-.171a.74.74 0 0 0-.545-1.11.6.6 0 0 0-.18-.007m5.4.018a.73.73 0 0 0-.538.515c-.025.089-.042.712-.043 1.549v1.4l-.604.72c-.856 1.02-1.05 1.289-1.188 1.649-.211.551-.213.604-.2 4.651l.013 3.74.109.32c.151.445.362.783.695 1.116s.671.544 1.116.695l.32.109h4l.32-.109a2.74 2.74 0 0 0 1.116-.695c.333-.333.544-.671.695-1.116l.109-.32.013-3.74c.013-4.047.011-4.1-.2-4.651-.138-.36-.332-.629-1.188-1.649l-.604-.72v-1.4c-.001-.837-.018-1.46-.043-1.549a.83.83 0 0 0-.373-.462c-.112-.062-.3-.07-1.765-.076-.902-.004-1.694.007-1.76.023M4.7 5.817c-.248.111-.458.425-.458.683 0 .295.301.671.58.723.686.129 1.182-.57.807-1.137-.186-.28-.622-.407-.929-.269m4.947.029c-.49.242-.538.96-.085 1.26a.756.756 0 0 0 1.123-.326.6.6 0 0 0-.001-.56c-.193-.418-.631-.575-1.037-.374m5.593.654v.74h-1.48V5.76h1.48zm-7.82.758a2 2 0 0 1-.149.039c-.147.032-.39.251-.457.411a.735.735 0 0 0 .197.838c.374.329.886.252 1.134-.171a.74.74 0 0 0-.545-1.11.6.6 0 0 0-.18-.007m8.92 2.322c.374.451.725.905.78 1.009l.1.191v7.56l-.093.189c-.132.268-.416.534-.674.63-.204.077-.309.081-1.953.081s-1.749-.004-1.953-.081c-.258-.096-.542-.362-.674-.63l-.093-.189v-7.56l.1-.191c.055-.104.406-.558.78-1.009l.68-.818h2.32zM4.805 9.279a.77.77 0 0 0-.544.597c-.077.453.303.883.781.884.157 0 .441-.164.576-.334.109-.137.122-.182.122-.426 0-.245-.012-.288-.124-.426-.212-.262-.506-.369-.811-.295m8 2.001c-.391.092-.633.519-.524.924.059.218.288.453.5.511.218.061 3.22.061 3.438 0a.84.84 0 0 0 .306-.191.739.739 0 0 0-.348-1.246c-.192-.044-3.183-.043-3.372.002" fill-rule="evenodd"/></svg>