<svg xmlns="http://www.w3.org/2000/svg" viewBox="0 0 24 24"><path d="M4.805 2.279a.77.77 0 0 0-.544.597c-.077.453.303.883.781.884.157 0 .441-.164.576-.334.109-.137.122-.182.122-.426 0-.245-.012-.288-.124-.426-.212-.262-.506-.369-.811-.295M7.42 4.258a2 2 0 0 1-.149.039c-.147.032-.39.251-.457.411a.735.735 0 0 0 .197.838c.374.329.886.252 1.134-.171a.74.74 0 0 0-.545-1.11.6.6 0 0 0-.18-.007m5.4.018a.73.73 0 0 0-.538.515c-.025.089-.042.712-.043 1.549v1.4l-.702.84c-.933 1.118-1.038 1.281-1.206 1.872-.066.229-.071.54-.071 4.108 0 3.608.005 3.877.073 4.12a2.82 2.82 0 0 0 1.987 1.987c.235.066.447.073 2.18.073 1.74 0 1.944-.007 2.18-.073a2.83 2.83 0 0 0 1.987-1.987c.068-.244.073-.5.073-4.12 0-3.568-.005-3.879-.071-4.108-.168-.591-.273-.754-1.206-1.872l-.702-.84v-1.4c-.001-.837-.018-1.46-.043-1.549a.83.83 0 0 0-.373-.462c-.112-.062-.3-.07-1.765-.076-.902-.004-1.694.007-1.76.023M4.7 5.817c-.248.111-.458.425-.458.683 0 .295.301.671.58.723.686.129 1.182-.57.807-1.137-.186-.28-.622-.407-.929-.269m4.947.029c-.49.242-.538.96-.085 1.26a.756.756 0 0 0 1.123-.326.6.6 0 0 0-.001-.56c-.193-.418-.631-.575-1.037-.374M7.42 7.258a2 2 0 0 1-.149.039c-.147.032-.39.251-.457.411a.735.735 0 0 0 .197.838c.374.329.886.252 1.134-.171a.74.74 0 0 0-.545-1.11.6.6 0 0 0-.18-.007M4.805 9.279a.77.77 0 0 0-.544.597c-.077.453.303.883.781.884.157 0 .441-.164.576-.334.109-.137.122-.182.122-.426 0-.245-.012-.288-.124-.426-.212-.262-.506-.369-.811-.295m11.568 2.076c.242.151.36.363.36.648 0 .2-.019.267-.117.406-.064.092-.18.204-.257.249-.134.079-.198.082-1.859.082s-1.725-.003-1.859-.082a1 1 0 0 1-.257-.249c-.286-.406-.055-1.012.431-1.132.069-.017.863-.028 1.765-.024l1.64.007z"/></svg>