<svg xmlns="http://www.w3.org/2000/svg" viewBox="0 0 24 24"><path d="M5.701 2.285a2 2 0 0 0-.46.144c-.265.132-.676.526-.798.766-.209.408-.202.094-.202 8.81-.001 5.348.013 8.177.04 8.319a1.76 1.76 0 0 0 1.424 1.397c.317.052 12.273.052 12.59 0a1.75 1.75 0 0 0 1.426-1.426c.024-.145.038-3.316.038-8.315 0-8.69.007-8.377-.202-8.785-.122-.24-.533-.634-.797-.765a2 2 0 0 0-.5-.148c-.349-.05-12.215-.048-12.559.003m12.466 1.541c.069.063.073.185.073 2.24V8.24h-3.15c-1.806 0-3.249.017-3.383.039-.708.116-1.312.717-1.427 1.421-.022.132-.04.757-.04 1.39v1.15h-.65c-.358 0-.758.018-.89.04-.704.115-1.305.719-1.421 1.427-.021.128-.039.75-.039 1.383v1.15h-.677c-.372 0-.705.011-.74.024-.057.022-.063-.538-.063-6.167 0-5.704.005-6.196.066-6.264.064-.07.308-.073 6.167-.073 5.621 0 6.106.005 6.174.066M18.24 11v1.24h-6.48v-1.167c0-1.029.008-1.175.066-1.24.063-.07.216-.073 3.24-.073h3.174zm0 4v1.24H8.76v-1.167c0-1.029.008-1.175.066-1.24.064-.07.263-.073 4.74-.073h4.674zm0 3.92c0 1.107-.004 1.164-.08 1.24-.079.079-.133.08-6.16.08s-6.081-.001-6.16-.08c-.076-.076-.08-.133-.08-1.167 0-.955.008-1.096.066-1.16.064-.07.31-.073 6.24-.073h6.174z"/></svg>