<svg xmlns="http://www.w3.org/2000/svg" viewBox="0 0 24 24"><path d="M3.701 3.285q-.496.071-.925.495c-.479.473-.535.703-.535 2.22 0 1.475.05 1.704.473 2.165.108.118.27.26.36.315l.162.1.012 4.96.012 4.96.109.32c.151.445.362.783.695 1.116s.671.544 1.116.695l.32.109h13l.32-.109a2.74 2.74 0 0 0 1.116-.695c.333-.333.544-.671.695-1.116l.109-.32.012-4.96.012-4.96.162-.1c.09-.055.252-.197.36-.315.423-.461.473-.69.473-2.165 0-1.517-.056-1.747-.535-2.22-.296-.292-.592-.445-.964-.498-.35-.05-16.214-.048-16.559.003m16.466 1.541c.067.061.073.152.073 1.167 0 .968-.008 1.11-.066 1.174-.064.07-.37.073-8.167.073-7.482 0-8.106-.005-8.174-.066s-.073-.152-.073-1.167c0-.968.008-1.11.066-1.174.064-.07.37-.073 8.167-.073 7.482 0 8.106.005 8.174.066m-.936 8.724-.011 4.79-.099.195c-.13.253-.467.559-.707.641-.17.058-.802.064-6.414.064s-6.244-.006-6.414-.064c-.24-.082-.577-.388-.707-.641l-.099-.195-.011-4.79-.01-4.79h14.482zM8.7 10.316a.745.745 0 0 0 .029 1.382c.13.054.543.062 3.28.061 2.958-.001 3.14-.005 3.291-.075a.743.743 0 0 0 0-1.368c-.151-.07-.332-.074-3.3-.074s-3.149.004-3.3.074"/></svg>