<svg fill="none" xmlns="http://www.w3.org/2000/svg" viewBox="0 0 24 24"><path d="M3.701 3.285 C 3.369 3.333,3.063 3.497,2.776 3.780 C 2.297 4.253,2.241 4.483,2.241 6.000 C 2.241 7.475,2.291 7.704,2.714 8.165 C 2.822 8.283,2.984 8.425,3.074 8.480 L 3.236 8.580 3.248 13.540 L 3.260 18.500 3.369 18.820 C 3.520 19.265,3.731 19.603,4.064 19.936 C 4.397 20.269,4.735 20.480,5.180 20.631 L 5.500 20.740 12.000 20.740 L 18.500 20.740 18.820 20.631 C 19.265 20.480,19.603 20.269,19.936 19.936 C 20.269 19.603,20.480 19.265,20.631 18.820 L 20.740 18.500 20.752 13.540 L 20.764 8.580 20.926 8.480 C 21.016 8.425,21.178 8.283,21.286 8.165 C 21.709 7.704,21.759 7.475,21.759 6.000 C 21.759 4.483,21.703 4.253,21.224 3.780 C 20.928 3.488,20.632 3.335,20.260 3.282 C 19.910 3.232,4.046 3.234,3.701 3.285 M20.167 4.826 C 20.234 4.887,20.240 4.978,20.240 5.993 C 20.240 6.961,20.232 7.103,20.174 7.167 C 20.110 7.237,19.804 7.240,12.007 7.240 C 4.525 7.240,3.901 7.235,3.833 7.174 C 3.766 7.113,3.760 7.022,3.760 6.007 C 3.760 5.039,3.768 4.897,3.826 4.833 C 3.890 4.763,4.196 4.760,11.993 4.760 C 19.475 4.760,20.099 4.765,20.167 4.826 M15.177 10.278 C 15.742 10.409,15.938 11.111,15.525 11.524 C 15.444 11.605,15.307 11.691,15.219 11.715 C 14.996 11.777,9.004 11.777,8.781 11.715 C 8.569 11.657,8.340 11.422,8.281 11.204 C 8.172 10.799,8.414 10.372,8.805 10.280 C 8.994 10.235,14.984 10.234,15.177 10.278 " stroke="none" fill-rule="evenodd"/></svg>