<svg xmlns="http://www.w3.org/2000/svg" viewBox="0 0 24 24"><path d="M3.701 3.285q-.496.071-.925.495c-.479.473-.535.703-.535 2.22 0 1.475.05 1.704.473 2.165.108.118.27.26.36.315l.162.1.012 4.96.012 4.96.109.32c.151.445.362.783.695 1.116s.671.544 1.116.695l.32.109h13l.32-.109a2.74 2.74 0 0 0 1.116-.695c.333-.333.544-.671.695-1.116l.109-.32.012-4.96.012-4.96.162-.1c.09-.055.252-.197.36-.315.423-.461.473-.69.473-2.165 0-1.517-.056-1.747-.535-2.22-.296-.292-.592-.445-.964-.498-.35-.05-16.214-.048-16.559.003m16.466 1.541c.067.061.073.152.073 1.167 0 .968-.008 1.11-.066 1.174-.064.07-.37.073-8.167.073-7.482 0-8.106-.005-8.174-.066s-.073-.152-.073-1.167c0-.968.008-1.11.066-1.174.064-.07.37-.073 8.167-.073 7.482 0 8.106.005 8.174.066m-4.99 5.452a.739.739 0 0 1 .348 1.246.84.84 0 0 1-.306.191c-.223.062-6.215.062-6.438 0-.212-.058-.441-.293-.5-.511-.109-.405.133-.832.524-.924.189-.045 6.179-.046 6.372-.002"/></svg>