<svg xmlns="http://www.w3.org/2000/svg" viewBox="0 0 24 24"><path d="M3.701 3.285q-.496.071-.925.495c-.479.473-.535.703-.535 2.22 0 1.475.05 1.704.473 2.165.108.118.27.26.36.315l.162.1.013 4.94c.013 4.607.018 4.956.085 5.18.292.978 1.017 1.696 1.986 1.967.246.069.598.073 6.68.073 6.101 0 6.433-.004 6.68-.073.971-.274 1.691-.986 1.985-1.967.068-.225.073-.557.086-5.18l.013-4.94.162-.1c.09-.055.252-.197.36-.315.423-.461.473-.69.473-2.165 0-1.517-.056-1.747-.535-2.22-.296-.292-.592-.445-.964-.498-.35-.05-16.214-.048-16.559.003m16.466 1.541c.067.061.073.152.073 1.167 0 .968-.008 1.11-.066 1.174-.064.07-.37.073-8.167.073-7.482 0-8.106-.005-8.174-.066s-.073-.152-.073-1.167c0-.968.008-1.11.066-1.174.064-.07.37-.073 8.167-.073 7.482 0 8.106.005 8.174.066m-4.779 5.541a.7.7 0 0 1 .345.64c0 .196-.019.264-.117.402-.064.092-.18.204-.257.249-.137.081-.186.082-3.359.082s-3.222-.001-3.359-.082a1 1 0 0 1-.257-.249c-.286-.406-.054-1.014.431-1.131.069-.017 1.539-.028 3.268-.024l3.143.006z"/></svg>