<svg fill="none" xmlns="http://www.w3.org/2000/svg" viewBox="0 0 24 24"><path d="M3.701 3.285 C 3.369 3.333,3.063 3.497,2.776 3.780 C 2.297 4.253,2.241 4.483,2.241 6.000 C 2.241 7.475,2.291 7.704,2.714 8.165 C 2.822 8.283,2.984 8.425,3.074 8.480 L 3.236 8.580 3.248 13.540 L 3.260 18.500 3.369 18.820 C 3.520 19.265,3.731 19.603,4.064 19.936 C 4.397 20.269,4.735 20.480,5.180 20.631 L 5.500 20.740 12.000 20.740 L 18.500 20.740 18.820 20.631 C 19.265 20.480,19.603 20.269,19.936 19.936 C 20.269 19.603,20.480 19.265,20.631 18.820 L 20.740 18.500 20.752 13.540 L 20.764 8.580 20.926 8.480 C 21.016 8.425,21.178 8.283,21.286 8.165 C 21.709 7.704,21.759 7.475,21.759 6.000 C 21.759 4.483,21.703 4.253,21.224 3.780 C 20.928 3.488,20.632 3.335,20.260 3.282 C 19.910 3.232,4.046 3.234,3.701 3.285 M20.167 4.826 C 20.234 4.887,20.240 4.978,20.240 5.993 C 20.240 6.961,20.232 7.103,20.174 7.167 C 20.110 7.237,19.804 7.240,12.007 7.240 C 4.525 7.240,3.901 7.235,3.833 7.174 C 3.766 7.113,3.760 7.022,3.760 6.007 C 3.760 5.039,3.768 4.897,3.826 4.833 C 3.890 4.763,4.196 4.760,11.993 4.760 C 19.475 4.760,20.099 4.765,20.167 4.826 M19.231 13.550 L 19.220 18.340 19.121 18.535 C 18.991 18.788,18.654 19.094,18.414 19.176 C 18.244 19.234,17.612 19.240,12.000 19.240 C 6.388 19.240,5.756 19.234,5.586 19.176 C 5.346 19.094,5.009 18.788,4.879 18.535 L 4.780 18.340 4.769 13.550 L 4.759 8.760 12.000 8.760 L 19.241 8.760 19.231 13.550 M8.700 10.316 C 8.084 10.600,8.101 11.436,8.729 11.698 C 8.859 11.752,9.272 11.760,12.009 11.759 C 14.967 11.758,15.149 11.754,15.300 11.684 C 15.904 11.406,15.904 10.594,15.300 10.316 C 15.149 10.246,14.968 10.242,12.000 10.242 C 9.032 10.242,8.851 10.246,8.700 10.316 " stroke="none" fill-rule="evenodd"/></svg>