<svg xmlns="http://www.w3.org/2000/svg" viewBox="0 0 24 24"><path d="M11.7 1.817a.76.76 0 0 0-.384.399c-.068.149-.074.283-.075 1.504 0 .801.016 1.4.041 1.489.108.39.52.618.92.51.22-.059.454-.287.513-.5.029-.102.044-.642.044-1.499-.001-1.479-.008-1.529-.264-1.767a.75.75 0 0 0-.795-.136m-6.68 2.76a.9.9 0 0 0-.227.168c-.286.305-.255.834.063 1.074.133.101 1.961 1.166 2.273 1.325.527.268 1.111-.07 1.111-.644 0-.192-.1-.435-.226-.546-.076-.067-2.017-1.194-2.322-1.349-.194-.098-.489-.11-.672-.028m13.3.017c-.278.14-2.262 1.296-2.334 1.36-.126.111-.226.354-.226.546a.74.74 0 0 0 1.091.654 74 74 0 0 0 2.277-1.32c.231-.164.339-.571.229-.861a.8.8 0 0 0-.386-.398.9.9 0 0 0-.651.019m-6.725 1.688c-.46.05-.773.142-1.215.357-1.06.514-1.74 1.36-2.03 2.521a4 4 0 0 0 0 1.68c.183.733.493 1.287 1.008 1.802.73.73 1.606 1.092 2.642 1.092s1.912-.362 2.642-1.092 1.092-1.606 1.092-2.642c0-1.589-.926-2.924-2.441-3.515-.441-.173-1.171-.26-1.698-.203M6.04 11.266c-.693.187-1.321.369-1.395.404-.286.135-.454.521-.367.844.081.301.403.563.693.565.09.001 1.628-.394 2.576-.661.626-.177.823-.88.36-1.286a.87.87 0 0 0-.527-.209c-.044.002-.647.156-1.34.343m10.789-.293c-.358.111-.589.472-.529.826.034.203.213.45.385.531.177.084 2.662.75 2.794.749.243-.002.588-.252.678-.492a.9.9 0 0 0 .001-.534c-.054-.143-.257-.355-.393-.41-.162-.065-2.649-.723-2.721-.72a1.3 1.3 0 0 0-.215.05M3.768 14.284a.9.9 0 0 0-.287.195.734.734 0 0 0-.136.891c.032.062.422.403.867.758.841.673 1.185.878 1.668.996.283.07.958.07 1.24 0a3.5 3.5 0 0 0 1.074-.518c.383-.282.51-.337.831-.357.376-.025.504.022 1.055.382.745.487 1.034.611 1.593.688.241.033.413.033.654 0 .56-.077.884-.217 1.579-.683.525-.352.69-.412 1.068-.387.322.02.449.075.832.357.302.222.75.439 1.074.518.282.07.957.07 1.24 0 .483-.118.827-.323 1.668-.996.494-.394.836-.697.878-.777a.8.8 0 0 0-.034-.74c-.157-.238-.363-.351-.633-.347a.9.9 0 0 0-.307.05c-.048.025-.405.299-.794.607-.388.309-.781.6-.872.646-.201.103-.619.14-.855.076-.094-.025-.337-.16-.54-.299a7 7 0 0 0-.571-.352c-.592-.294-1.403-.336-2.064-.108-.281.098-.427.179-1.029.574-.788.518-1.146.518-1.934 0-.602-.395-.748-.476-1.029-.574-.661-.228-1.472-.186-2.064.108-.11.055-.367.213-.571.352s-.446.274-.54.299c-.236.064-.654.027-.855-.076-.091-.046-.484-.337-.872-.646a21 21 0 0 0-.774-.597c-.113-.06-.42-.082-.56-.04m0 3a.9.9 0 0 0-.287.195.734.734 0 0 0-.136.891c.032.062.422.403.867.758.841.673 1.185.878 1.668.996.283.07.958.07 1.24 0a3.5 3.5 0 0 0 1.074-.518c.383-.282.51-.337.831-.357.376-.025.504.022 1.055.382.745.487 1.034.611 1.593.688.241.033.413.033.654 0 .56-.077.884-.217 1.579-.683.525-.352.69-.412 1.068-.387.322.02.449.075.832.357.302.222.75.439 1.074.518.282.07.957.07 1.24 0 .483-.118.827-.323 1.668-.996.494-.394.836-.697.878-.777a.8.8 0 0 0-.034-.74c-.157-.238-.363-.351-.633-.347a.9.9 0 0 0-.307.05c-.048.025-.405.299-.794.607-.388.309-.781.6-.872.646-.201.103-.619.14-.855.076-.094-.025-.337-.16-.54-.299a7 7 0 0 0-.571-.352c-.592-.294-1.403-.336-2.064-.108-.281.098-.427.179-1.029.574-.788.518-1.146.518-1.934 0-.602-.395-.748-.476-1.029-.574-.661-.228-1.472-.186-2.064.108-.11.055-.367.213-.571.352s-.446.274-.54.299c-.236.064-.654.027-.855-.076-.091-.046-.484-.337-.872-.646a21 21 0 0 0-.774-.597c-.113-.06-.42-.082-.56-.04" fill-rule="evenodd"/></svg>