<svg xmlns="http://www.w3.org/2000/svg" viewBox="0 0 24 24"><path d="M11.369 3.283A7.86 7.86 0 0 0 7.1 5a8.5 8.5 0 0 0-1.695 1.932c-.578.943-1.006 2.18-1.109 3.2l-.028.273-.205.131a2.2 2.2 0 0 0-.378.328c-.394.447-.444.684-.444 2.136 0 1.521.054 1.743.542 2.23.287.287.549.423.947.492.549.094 1.075-.08 1.487-.492.488-.487.542-.709.542-2.23 0-1.475-.05-1.703-.474-2.167a1.8 1.8 0 0 0-.342-.294c-.169-.091-.175-.144-.082-.677.15-.859.583-1.847 1.132-2.582a6.27 6.27 0 0 1 3.029-2.197c.721-.241 1.111-.3 1.978-.3s1.257.059 1.978.3a6.3 6.3 0 0 1 3.627 3.166c.208.415.452 1.152.532 1.615.094.537.089.584-.08.675a1.8 1.8 0 0 0-.342.294c-.424.464-.474.692-.474 2.167 0 1.459.051 1.697.453 2.144.099.111.254.252.344.315.162.112.165.117.139.297a4.27 4.27 0 0 1-2.918 3.299c-.484.157-.793.185-2.053.186-.674 0-1.297.017-1.383.037a.74.74 0 0 0-.348 1.247c.236.236.328.247 1.865.223 1.192-.018 1.41-.031 1.76-.106 1.17-.252 2.147-.776 2.956-1.586a5.7 5.7 0 0 0 1.589-3.003l.088-.448.191-.124c.105-.068.274-.216.377-.33.408-.454.458-.687.458-2.151 0-1.452-.05-1.689-.444-2.136a2 2 0 0 0-.379-.328l-.206-.132-.028-.272c-.105-1.031-.528-2.254-1.107-3.2a7.2 7.2 0 0 0-1.013-1.287c-.702-.724-1.295-1.159-2.162-1.587a7.5 7.5 0 0 0-2.869-.777c-.577-.044-.579-.044-1.182.002m.175 3c-2.217.196-4.004 1.964-4.262 4.218-.054.474-.054 3.06.001 3.519.224 1.882 1.491 3.434 3.26 3.992.498.157.943.228 1.436.228 1.388 0 2.705-.592 3.586-1.611a4.67 4.67 0 0 0 1.152-2.609c.054-.457.056-3.043.002-3.52a4.77 4.77 0 0 0-3.563-4.101c-.244-.062-1.152-.175-1.236-.153-.011.003-.18.019-.376.037m1.37 1.595c.508.146.893.372 1.321.78.446.424.732.888.894 1.45.089.304.091.359.091 2.152 0 1.818-.001 1.844-.094 2.14-.312.999-1.078 1.821-2.006 2.154-.4.143-.655.185-1.12.185-.463 0-.723-.043-1.111-.182-.948-.343-1.699-1.146-2.015-2.157-.093-.296-.094-.322-.094-2.14 0-1.793.002-1.848.091-2.152.154-.532.376-.911.787-1.343a3.1 3.1 0 0 1 1.775-.967c.321-.058 1.152-.013 1.481.08m-7.747 3.948c.067.061.073.152.073 1.167 0 .968-.008 1.11-.066 1.174-.083.091-.244.094-.341.007-.067-.061-.073-.152-.073-1.167 0-.968.008-1.11.066-1.174.083-.091.244-.094.341-.007m14 0c.067.061.073.152.073 1.167 0 .968-.008 1.11-.066 1.174-.083.091-.244.094-.341.007-.067-.061-.073-.152-.073-1.167 0-.968.008-1.11.066-1.174.083-.091.244-.094.341-.007" fill-rule="evenodd"/></svg>