<svg xmlns="http://www.w3.org/2000/svg" viewBox="0 0 24 24"><path d="M8.656 3.281a2.75 2.75 0 0 0-2.112 1.496c-.303.619-.28.153-.294 6.038l-.012 5.276-.369-.022c-.332-.02-.485-.062-1.509-.409-1.31-.445-1.477-.472-1.76-.285-.413.273-.469.796-.122 1.143.142.142.247.185 1.368.555.668.22 1.322.424 1.454.452.309.066 1.092.066 1.4 0 .132-.029.6-.171 1.04-.318l.8-.266h.92l.8.266c1.002.333 1.171.369 1.74.369s.738-.036 1.74-.369l.8-.266h.92l.8.266c.44.147.908.289 1.04.318.308.066 1.091.066 1.4 0 .132-.028.786-.232 1.454-.452 1.121-.37 1.226-.413 1.368-.555.346-.346.291-.87-.121-1.142-.283-.187-.424-.164-1.761.286l-1.18.398H18c-.417 0-.497-.013-.85-.133l-.391-.134.011-5.066.01-5.067.097-.197c.202-.411.561-.649 1.063-.705.338-.038.487-.104.634-.278.292-.347.21-.85-.178-1.108-.149-.098-.201-.11-.472-.104a2.73 2.73 0 0 0-2.38 1.509c-.178.364-.26.677-.291 1.113l-.025.35H7.751l.015-.29c.036-.668.475-1.114 1.174-1.192.338-.038.487-.104.634-.278a.74.74 0 0 0-.162-1.096c-.18-.116-.42-.149-.756-.103m6.688 5.375c.119.119.136.162.136.337 0 .245-.129.424-.353.486-.202.056-7.052.056-7.254 0-.224-.062-.353-.241-.353-.486 0-.175.017-.218.136-.337l.136-.136h7.416zm0 3c.119.119.136.162.136.337 0 .245-.129.424-.353.486-.202.056-7.052.056-7.254 0-.224-.062-.353-.241-.353-.486 0-.175.017-.218.136-.337l.136-.136h7.416zm-.104 3.435v.332l-.344.007c-.498.012-.741.065-1.636.363l-.8.267h-.92l-.8-.267c-.944-.314-1.174-.361-1.76-.36-.387.001-.581.028-1.13.155-.089.021-.09.017-.09-.403v-.425h7.48zM2.811 18.278c-.166.041-.395.215-.468.355a.735.735 0 0 0 .135.885c.142.142.247.185 1.368.555.668.22 1.322.424 1.454.452.309.066 1.092.066 1.4 0 .132-.029.6-.171 1.04-.318l.8-.266h.92l.8.266c1.002.333 1.171.369 1.74.369s.738-.036 1.74-.369l.8-.266h.92l.8.266c.44.147.908.289 1.04.318.308.066 1.091.066 1.4 0 .132-.028.786-.232 1.454-.452 1.121-.37 1.226-.413 1.368-.555.346-.346.291-.87-.121-1.142-.283-.187-.424-.164-1.761.286l-1.18.398h-.92l-.8-.267c-.936-.311-1.174-.361-1.74-.361s-.804.05-1.74.361l-.8.267h-.92l-.8-.267c-.936-.311-1.174-.361-1.74-.361s-.804.05-1.74.361l-.8.267h-.92l-1.16-.388c-1.228-.411-1.364-.445-1.569-.394"/></svg>