<svg xmlns="http://www.w3.org/2000/svg" viewBox="0 0 24 24"><path d="M8.617 3.282c-.587.071-1.099.33-1.552.782a2.74 2.74 0 0 0-.696 1.116l-.109.32-.011 5.295-.011 5.295-.349-.018c-.308-.016-.486-.064-1.509-.401a43 43 0 0 0-1.271-.408c-.15-.034-.42.042-.579.163-.346.262-.373.781-.056 1.097.132.131.265.185 1.366.55 2.009.665 2.279.675 3.896.137l.804-.267h.92l.804.267c1.541.512 1.931.512 3.472 0l.804-.267h.92l.804.267c1.617.538 1.887.528 3.896-.137 1.101-.365 1.234-.419 1.366-.55.317-.316.29-.835-.056-1.097-.159-.121-.429-.197-.579-.163a41 41 0 0 0-1.271.411l-1.16.386-.46-.001c-.412-.001-.501-.015-.85-.132l-.391-.131.011-5.068.01-5.068.093-.188c.117-.238.36-.482.591-.594.1-.048.314-.102.476-.12.163-.019.348-.061.413-.094.376-.195.511-.721.274-1.069-.201-.295-.435-.371-.956-.313-.643.071-1.133.31-1.606.782a2.7 2.7 0 0 0-.813 1.803l-.024.373H7.751l.015-.29c.019-.346.126-.592.359-.825.216-.217.463-.328.815-.367.338-.038.487-.104.634-.278A.9.9 0 0 0 9.76 4a.9.9 0 0 0-.186-.48c-.198-.235-.457-.299-.957-.238m6.699 5.341c.31.261.198.744-.199.858-.186.053-7.048.052-7.24-.001a.494.494 0 0 1-.193-.857l.122-.103h7.388zm0 3c.31.261.198.744-.199.858-.186.053-7.048.052-7.24-.001a.494.494 0 0 1-.193-.857l.122-.103h7.388zm-.076 3.467-.001.33-.366.009c-.486.011-.668.052-1.613.365-.799.264-.801.264-1.26.264s-.464-.001-1.211-.25c-1.05-.349-1.197-.38-1.809-.378-.396.002-.595.022-.836.086a5 5 0 0 1-.35.084c-.019 0-.034-.189-.034-.42v-.42h7.48zM2.8 18.286a.736.736 0 0 0-.326 1.237c.132.131.265.185 1.366.55 2.009.665 2.279.675 3.896.137l.804-.267h.92l.804.267c.83.276 1.338.39 1.736.39s.906-.114 1.736-.39l.804-.267h.92l.804.267c1.617.538 1.887.528 3.896-.137 1.101-.365 1.234-.419 1.366-.55.317-.316.29-.835-.056-1.097-.159-.121-.429-.197-.579-.163a41 41 0 0 0-1.271.411l-1.16.386-.46-.001c-.457-.001-.466-.003-1.211-.251-1.036-.344-1.199-.379-1.789-.379s-.753.035-1.789.379c-.747.249-.754.25-1.211.25s-.464-.001-1.211-.25c-1.036-.344-1.199-.379-1.789-.379s-.753.035-1.789.379c-.745.248-.754.25-1.211.251l-.46.001-1.16-.388c-.638-.213-1.223-.397-1.3-.407a.8.8 0 0 0-.28.021" fill-rule="evenodd"/></svg>