<svg xmlns="http://www.w3.org/2000/svg" viewBox="0 0 24 24"><path d="M15.617 6.283c-.585.069-1.098.328-1.552.781a2.7 2.7 0 0 0-.693 1.116c-.091.277-.105.387-.105.82s.014.543.105.82c.146.44.357.781.692 1.116s.676.546 1.116.692c.277.091.387.105.82.105s.543-.014.82-.105c.44-.146.781-.357 1.116-.692s.546-.676.692-1.116c.091-.277.105-.387.105-.82s-.014-.543-.105-.82c-.425-1.294-1.642-2.06-3.011-1.897M6.17 7.24c-.343.025-.436.047-.565.132-.399.264-.469.789-.153 1.133.202.219.35.249 1.086.225a7 7 0 0 1 .993.026c1.017.136 1.87.572 2.76 1.411l.31.293-.422.56c-.233.308-.445.583-.473.61-.04.041-.124.035-.428-.029-1.59-.337-3.427-.1-4.935.635-.711.347-1.831 1.123-1.984 1.375-.246.404-.026.98.422 1.104.328.092.465.04 1.059-.4.939-.695 1.639-1.024 2.64-1.241.358-.077.542-.091 1.24-.092 1.442-.003 1.729.089 4.308 1.372 1.052.523 2.074 1.01 2.272 1.083 1.75.639 3.647.64 5.39.003.58-.212 1.758-.811 1.881-.956.361-.43.153-1.055-.401-1.202-.235-.062-.363-.021-1.168.375-.684.336-1.219.532-1.752.642-.443.091-1.196.151-1.524.121l-.294-.028-.386-.323c-1.012-.849-1.547-1.401-3.092-3.199-1.54-1.792-2.28-2.471-3.23-2.964-1.021-.531-2.251-.761-3.554-.666m6.442 5.53c.152.171.265.31.252.31-.043 0-1.704-.84-1.704-.861 0-.012.1-.155.223-.318l.223-.296.364.428c.201.235.489.567.642.737M7.02 15.485c-1.548.146-2.854.686-4.273 1.765-.338.257-.448.4-.487.632-.059.345.189.741.521.833.328.092.465.04 1.059-.4.939-.695 1.639-1.024 2.64-1.241.358-.077.542-.091 1.24-.092 1.442-.003 1.729.089 4.308 1.372 1.052.523 2.074 1.01 2.272 1.083 1.75.639 3.647.64 5.39.003.58-.212 1.758-.811 1.881-.956.361-.43.153-1.055-.401-1.202-.235-.062-.363-.021-1.168.375-.98.482-1.585.661-2.524.746a5 5 0 0 1-.956 0c-1.147-.104-1.457-.217-3.843-1.403-1.48-.735-2.113-1.028-2.482-1.15a7.6 7.6 0 0 0-3.177-.365" fill-rule="evenodd"/></svg>