<svg fill="none" xmlns="http://www.w3.org/2000/svg" viewBox="0 0 24 24"><path d="M8.617 3.282 C 8.030 3.353,7.518 3.612,7.065 4.064 C 6.732 4.396,6.521 4.735,6.369 5.180 L 6.260 5.500 6.249 10.795 L 6.238 16.090 5.889 16.072 C 5.581 16.056,5.403 16.008,4.380 15.671 C 3.742 15.460,3.170 15.276,3.109 15.263 C 2.959 15.229,2.689 15.305,2.530 15.426 C 2.184 15.688,2.157 16.208,2.474 16.522 C 2.605 16.653,2.743 16.709,3.850 17.077 C 4.527 17.302,5.220 17.512,5.390 17.542 C 6.061 17.662,6.603 17.596,7.540 17.280 C 7.870 17.169,8.278 17.042,8.447 16.999 C 9.014 16.853,9.318 16.895,10.460 17.280 C 11.718 17.704,12.282 17.704,13.540 17.280 C 14.942 16.808,15.058 16.808,16.460 17.280 C 17.397 17.596,17.939 17.662,18.610 17.542 C 18.780 17.512,19.473 17.302,20.150 17.077 C 21.257 16.709,21.395 16.653,21.526 16.522 C 21.843 16.208,21.816 15.688,21.470 15.426 C 21.311 15.305,21.041 15.229,20.891 15.263 C 20.830 15.276,20.258 15.461,19.620 15.674 L 18.460 16.060 18.000 16.059 C 17.588 16.058,17.499 16.044,17.150 15.927 L 16.759 15.796 16.770 10.728 L 16.780 5.660 16.873 5.472 C 16.990 5.234,17.233 4.990,17.464 4.878 C 17.564 4.830,17.778 4.776,17.940 4.758 C 18.103 4.739,18.288 4.697,18.353 4.664 C 18.729 4.469,18.864 3.943,18.627 3.595 C 18.426 3.300,18.192 3.224,17.671 3.282 C 17.028 3.353,16.538 3.592,16.065 4.064 C 15.563 4.565,15.300 5.149,15.252 5.867 L 15.228 6.240 11.490 6.240 L 7.751 6.240 7.766 5.950 C 7.785 5.604,7.892 5.358,8.125 5.125 C 8.341 4.908,8.588 4.797,8.940 4.758 C 9.278 4.720,9.427 4.654,9.574 4.480 C 9.671 4.365,9.760 4.135,9.760 4.000 C 9.760 3.865,9.671 3.635,9.574 3.520 C 9.376 3.285,9.117 3.221,8.617 3.282 M15.240 8.760 L 15.240 9.760 11.500 9.760 L 7.760 9.760 7.760 8.760 L 7.760 7.760 11.500 7.760 L 15.240 7.760 15.240 8.760 M15.240 12.240 L 15.240 13.240 11.500 13.240 L 7.760 13.240 7.760 12.240 L 7.760 11.240 11.500 11.240 L 15.240 11.240 15.240 12.240 M15.240 15.090 L 15.239 15.420 14.873 15.429 C 14.387 15.440,14.205 15.481,13.260 15.794 C 12.461 16.058,12.459 16.058,12.000 16.058 C 11.542 16.058,11.536 16.057,10.789 15.808 C 9.739 15.459,9.592 15.428,8.980 15.430 C 8.584 15.432,8.385 15.452,8.144 15.516 C 7.970 15.562,7.812 15.600,7.794 15.600 C 7.775 15.600,7.760 15.411,7.760 15.180 L 7.760 14.760 11.500 14.760 L 15.240 14.760 15.240 15.090 M2.800 18.287 C 2.246 18.445,2.068 19.118,2.474 19.523 C 2.606 19.654,2.739 19.708,3.840 20.073 C 5.849 20.738,6.119 20.748,7.736 20.210 L 8.540 19.943 9.000 19.943 L 9.460 19.943 10.264 20.210 C 11.094 20.486,11.602 20.600,12.000 20.600 C 12.398 20.600,12.906 20.486,13.736 20.210 L 14.540 19.943 15.000 19.943 L 15.460 19.943 16.264 20.210 C 17.435 20.599,17.875 20.661,18.585 20.538 C 19.081 20.452,21.325 19.704,21.482 19.572 C 21.958 19.172,21.765 18.416,21.151 18.279 L 20.938 18.231 19.699 18.644 L 18.460 19.058 18.000 19.057 L 17.540 19.057 16.665 18.767 C 15.189 18.279,14.811 18.279,13.335 18.767 L 12.460 19.057 12.000 19.057 L 11.540 19.057 10.665 18.767 C 9.616 18.421,9.232 18.358,8.605 18.432 C 8.308 18.466,7.994 18.550,7.335 18.767 L 6.460 19.057 6.000 19.057 L 5.540 19.058 4.315 18.649 C 3.641 18.424,3.056 18.242,3.015 18.244 C 2.974 18.246,2.877 18.265,2.800 18.287 " stroke="none" fill-rule="evenodd" fill="currentColor"/></svg>