<svg xmlns="http://www.w3.org/2000/svg" viewBox="0 0 24 24"><path d="M8.617 3.282c-.587.071-1.099.33-1.552.782a2.74 2.74 0 0 0-.696 1.116l-.109.32-.011 5.295-.011 5.295-.349-.018c-.308-.016-.486-.064-1.509-.401a43 43 0 0 0-1.271-.408c-.15-.034-.42.042-.579.163-.346.262-.373.782-.056 1.096.131.131.269.187 1.376.555.677.225 1.37.435 1.54.465.671.12 1.213.054 2.15-.262.33-.111.738-.238.907-.281.567-.146.871-.104 2.013.281 1.258.424 1.822.424 3.08 0 1.402-.472 1.518-.472 2.92 0 .937.316 1.479.382 2.15.262.17-.03.863-.24 1.54-.465 1.107-.368 1.245-.424 1.376-.555.317-.314.29-.834-.056-1.096-.159-.121-.429-.197-.579-.163a41 41 0 0 0-1.271.411l-1.16.386-.46-.001c-.412-.001-.501-.015-.85-.132l-.391-.131.011-5.068.01-5.068.093-.188c.117-.238.36-.482.591-.594.1-.048.314-.102.476-.12.163-.019.348-.061.413-.094.376-.195.511-.721.274-1.069-.201-.295-.435-.371-.956-.313-.643.071-1.133.31-1.606.782a2.7 2.7 0 0 0-.813 1.803l-.024.373H7.751l.015-.29c.019-.346.126-.592.359-.825.216-.217.463-.328.815-.367.338-.038.487-.104.634-.278A.9.9 0 0 0 9.76 4a.9.9 0 0 0-.186-.48c-.198-.235-.457-.299-.957-.238M15.24 8.76v1H7.76v-2h7.48zm0 3.48v1H7.76v-2h7.48zm0 2.85-.001.33-.366.009c-.486.011-.668.052-1.613.365-.799.264-.801.264-1.26.264s-.464-.001-1.211-.25c-1.05-.349-1.197-.38-1.809-.378-.396.002-.595.022-.836.086a5 5 0 0 1-.35.084c-.019 0-.034-.189-.034-.42v-.42h7.48zM2.8 18.287a.735.735 0 0 0-.326 1.236c.132.131.265.185 1.366.55 2.009.665 2.279.675 3.896.137l.804-.267h.92l.804.267c.83.276 1.338.39 1.736.39s.906-.114 1.736-.39l.804-.267h.92l.804.267c1.171.389 1.611.451 2.321.328.496-.086 2.74-.834 2.897-.966.476-.4.283-1.156-.331-1.293l-.213-.048-1.239.413-1.239.414-.46-.001h-.46l-.875-.29c-1.476-.488-1.854-.488-3.33 0l-.875.29h-.92l-.875-.29c-1.049-.346-1.433-.409-2.06-.335-.297.034-.611.118-1.27.335l-.875.29H6l-.46.001-1.225-.409c-.674-.225-1.259-.407-1.3-.405a1.3 1.3 0 0 0-.215.043" fill-rule="evenodd"/></svg>