<svg xmlns="http://www.w3.org/2000/svg" viewBox="0 0 24 24"><path d="M9.253 2.938A7.4 7.4 0 0 0 5.76 4.509c-.41.331-1.134 1.081-1.43 1.48A7.5 7.5 0 0 0 2.993 8.92c-.081.373-.091.53-.091 1.4 0 .919.007 1.013.111 1.5.3 1.411.976 2.792 1.967 4.02.892 1.104 1.82 1.91 2.734 2.374 1.667.846 3.159.681 4.982-.548.283-.192.519-.343.525-.337.005.006.415.614.91 1.351s.979 1.418 1.075 1.512c.223.222.58.394.934.454.366.061.813-.024 1.125-.213.134-.081.756-.673 1.672-1.591 1.591-1.595 1.621-1.633 1.714-2.179.085-.494-.106-1.099-.459-1.459-.095-.096-.766-.57-1.492-1.054s-1.334-.893-1.352-.909c-.017-.015.122-.256.31-.534.759-1.126 1.069-1.99 1.073-2.987a4.5 4.5 0 0 0-.047-.7c-.185-.9-.649-1.793-1.358-2.613-1.498-1.733-3.501-2.97-5.486-3.389-.435-.092-.615-.108-1.38-.12-.605-.009-.982.003-1.207.04m7.97 6.967a3 3 0 0 1-.108.6c-.169.551-.617 1.316-1.154 1.975-.135.165-.288.354-.341.421a1 1 0 0 0-.145.306.68.68 0 0 0 .154.636c.058.07.836.613 1.729 1.207a67 67 0 0 1 1.712 1.162c.194.177.178.197-1.239 1.617-1.42 1.422-1.44 1.437-1.619 1.241a64 64 0 0 1-1.132-1.67c-.577-.869-1.097-1.631-1.155-1.694a.69.69 0 0 0-.544-.239c-.249-.002-.345.048-.821.431-.779.628-1.471 1.038-2.06 1.222-.308.096-.845.147-1.082.102l-.152-.028 3.957-3.957L17.18 9.28l.033.15c.019.082.023.296.01.475" fill-rule="evenodd"/></svg>