<svg xmlns="http://www.w3.org/2000/svg" viewBox="0 0 24 24"><path d="M19.139 4.022c-.067.033-.353.291-.635.574l-.514.515-.385-.194a3.7 3.7 0 0 0-2.061-.391 3.58 3.58 0 0 0-2.313 1.106c-.484.497-.757.974-.96 1.675-.078.27-.091.402-.088.953.002.577.013.675.111 1 .06.198.189.521.288.719l.18.358-.336.336-.336.336-1.023-1.315c-.563-.723-1.076-1.346-1.142-1.385a.88.88 0 0 0-.63-.069c-.124.04-.53.423-2.007 1.895-1.019 1.015-1.886 1.899-1.927 1.965a.74.74 0 0 0-.081.584c.041.156.189.319 1.273 1.406l1.226 1.231-2.148 2.149c-1.185 1.187-2.166 2.2-2.189 2.263a.9.9 0 0 0 .001.534c.093.249.438.491.697.491.304 0 .413-.095 2.59-2.269l2.11-2.108 1.21 1.207c.665.664 1.261 1.226 1.323 1.25.175.066.455.05.619-.035.22-.115 3.111-3.028 3.187-3.212a.65.65 0 0 0-.03-.594c-.05-.097-.545-.759-1.1-1.471s-1.009-1.306-1.009-1.321.179-.204.397-.422l.397-.395.313.161c.4.206.723.315 1.157.391.436.076.754.076 1.181.001 1.478-.259 2.577-1.234 3.02-2.681.1-.327.111-.418.112-1 .002-.548-.011-.685-.088-.953-.109-.378-.259-.741-.395-.956l-.101-.16.498-.506c.625-.633.723-.814.63-1.16-.116-.431-.643-.69-1.022-.503m-2.727 2.363c.495.32.433 1.053-.11 1.3a.9.9 0 0 1-.304.074c-.207.001-.479-.153-.614-.348-.097-.14-.117-.209-.117-.404 0-.61.632-.953 1.145-.622m-6.849 5.822c.461.258.481.964.035 1.259-.691.458-1.535-.469-.991-1.088.265-.301.613-.363.956-.171m2.849 2.178c.495.32.433 1.053-.11 1.3a.9.9 0 0 1-.304.074c-.207.001-.479-.153-.614-.348-.097-.14-.117-.209-.117-.404 0-.61.632-.953 1.145-.622"/></svg>