<svg xmlns="http://www.w3.org/2000/svg" viewBox="0 0 24 24"><path d="M19.139 4.022c-.067.033-.353.291-.635.574l-.514.515-.385-.194a3.7 3.7 0 0 0-2.061-.391 3.58 3.58 0 0 0-2.313 1.106c-.484.497-.757.974-.96 1.675-.078.27-.091.402-.088.953.002.577.013.675.111 1 .06.198.189.521.288.719l.18.358-.336.336-.336.336-1.005-1.291c-.553-.71-1.068-1.336-1.144-1.391a.72.72 0 0 0-.708-.053c-.12.058-.742.654-2.039 1.955-1.946 1.951-1.953 1.959-1.954 2.282 0 .238.14.406 1.331 1.599l1.209 1.21-2.148 2.15c-1.186 1.186-2.167 2.2-2.19 2.263a.9.9 0 0 0 .001.534c.093.249.438.491.697.491.304 0 .413-.095 2.59-2.27l2.11-2.107 1.21 1.208c.666.664 1.261 1.226 1.323 1.249.144.054.43.054.574 0 .168-.063 3.124-3.021 3.216-3.218a.65.65 0 0 0-.014-.623c-.05-.097-.545-.759-1.1-1.471s-1.009-1.306-1.009-1.321.179-.204.397-.422l.397-.395.313.161c.4.206.723.315 1.157.391.436.076.754.076 1.181.001 1.478-.259 2.578-1.235 3.02-2.681.1-.326.11-.42.112-1 .003-.555-.009-.683-.089-.96a4.2 4.2 0 0 0-.399-.955l-.096-.154.498-.506c.625-.633.723-.814.63-1.16-.116-.431-.643-.69-1.022-.503M16.43 6.06c.723.171 1.39.789 1.614 1.497.116.367.116.999 0 1.366a2.24 2.24 0 0 1-2.142 1.557c-.625 0-1.071-.176-1.518-.597-.506-.478-.713-.955-.713-1.643 0-.696.211-1.176.726-1.651a2.22 2.22 0 0 1 2.033-.529m-.625.219c-.671.163-.743 1.117-.107 1.406.57.259 1.205-.29 1.026-.887a.764.764 0 0 0-.919-.519m-4.287 6.437 1.97 2.536-.914.914-.914.914-2.3-2.3-2.3-2.3 1.199-1.199c.924-.924 1.21-1.188 1.244-1.15.025.027.932 1.19 2.015 2.585m-2.573-.579c-.199.073-.411.279-.469.455-.061.185-.025.51.071.639.043.057.146.159.228.226.132.107.182.122.404.122.218.001.278-.016.424-.119a.73.73 0 0 0 .326-.618c0-.499-.524-.874-.984-.705m2.86 2.142c-.518.126-.725.789-.376 1.205a.744.744 0 0 0 1.255-.184.73.73 0 0 0-.136-.813.8.8 0 0 0-.743-.208" fill-rule="evenodd"/></svg>