<svg xmlns="http://www.w3.org/2000/svg" viewBox="0 0 24 24"><path d="M18.82 2.276a.73.73 0 0 0-.538.515c-.023.082-.042.545-.042 1.029v.881l-.8.799c-.619.618-.813.79-.857.76l-.354-.268c-1.1-.842-2.538-1.436-4.009-1.655-.595-.088-1.845-.088-2.44 0-1.919.286-3.606 1.13-4.961 2.483-1.344 1.343-2.192 3.027-2.485 4.94-.096.63-.096 1.85 0 2.48.398 2.594 1.87 4.839 4.07 6.205 1.518.943 3.456 1.42 5.206 1.282 2.156-.17 4.069-1.044 5.571-2.546a8.75 8.75 0 0 0 2.356-8.105c-.093-.41-.185-.574-.387-.689q-.515-.294-.914.086c-.255.243-.274.403-.134 1.093.108.531.117.638.116 1.434-.001.637-.019.953-.07 1.22-.289 1.533-.959 2.817-2.028 3.892-1.037 1.042-2.281 1.708-3.76 2.013-.404.084-.569.095-1.36.095s-.956-.011-1.36-.095c-1.461-.301-2.72-.97-3.731-1.981-1.122-1.122-1.79-2.418-2.075-4.024-.071-.4-.071-1.84 0-2.24.282-1.593.953-2.9 2.049-3.997S8.287 6.116 9.88 5.834c.398-.071 1.839-.071 2.24-.001a7.45 7.45 0 0 1 3.127 1.305l.322.233-.9.9-.9.9-.249-.151c-.976-.593-1.908-.826-2.942-.736a4.63 4.63 0 0 0-3.003 1.445c-1.532 1.597-1.753 3.999-.541 5.871.286.441.925 1.08 1.366 1.366a4.73 4.73 0 0 0 5.2 0c.694-.449 1.389-1.266 1.734-2.036.294-.659.493-1.737.389-2.118-.092-.343-.36-.545-.723-.545-.231 0-.357.046-.514.188-.16.145-.213.302-.251.741-.081.945-.379 1.567-1.047 2.188-.681.632-1.394.889-2.348.844a4 4 0 0 1-.7-.086c-.27-.073-.82-.321-.82-.37 0-.018 2.246-2.278 4.99-5.022l4.99-4.99h.88c.519 0 .945-.019 1.039-.045.457-.127.676-.727.408-1.12-.207-.305-.376-.353-1.237-.354l-.63-.001v-.65c0-.711-.031-.885-.186-1.07a.78.78 0 0 0-.754-.244" fill-rule="evenodd"/></svg>