<svg xmlns="http://www.w3.org/2000/svg" viewBox="0 0 24 24"><path d="M20 3.276c-.353.111-.56.369-.56.698 0 .159.864 3.503 1.062 4.109.065.2.254.408.431.475a.78.78 0 0 0 .892-.278c.194-.294.19-.323-.383-2.46a255 255 0 0 0-.564-2.083c-.04-.126-.235-.336-.378-.408-.12-.06-.387-.088-.5-.053m-4.98 1.326-4.48 1.204c-.778.208-1.485.421-1.653.497-.509.233-1.005.702-1.25 1.183-.042.082-.107.158-.146.169s-.476.131-.971.264c-.495.134-.994.289-1.109.344-.623.303-1.051 1.094-.941 1.744q.147.876.82 1.285c.579.351.88.349 2.217-.012l.928-.25.372.184c.501.247.822.318 1.353.297.401-.016.619-.07 4.78-1.186a581 581 0 0 0 4.547-1.229c.34-.11.592-.493.533-.809-.024-.131-.894-3.399-1.041-3.914-.066-.228-.211-.426-.374-.511-.287-.148-.283-.149-3.585.74M2.738 8.955c-.354.161-.498.481-.402.894.169.729.555 2.054.628 2.156.171.241.537.354.83.257.297-.099.526-.397.526-.687 0-.107-.483-1.965-.57-2.195a.7.7 0 0 0-.376-.419.73.73 0 0 0-.636-.006m4.671.548c.047.168.05.227.014.241-.026.01-.315.089-.641.176-.603.159-.699.162-.791.024-.046-.068-.036-.202.02-.278.048-.066 1.058-.374 1.252-.382.069-.003.095.037.146.219m4.387 2.435c-.958.26-1.549.44-1.628.496a.84.84 0 0 0-.308.48c-.067.32.202.755.515.831l.146.035-2.088 2.92c-1.148 1.606-2.113 2.992-2.143 3.08-.144.411.145.885.586.959a.8.8 0 0 0 .574-.138c.056-.044.926-1.236 1.935-2.649l1.835-2.569.02 2.419c.022 2.67.009 2.544.28 2.772a.9.9 0 0 0 .48.186.9.9 0 0 0 .48-.186c.271-.228.258-.102.28-2.772l.02-2.419 1.835 2.569c1.009 1.413 1.879 2.605 1.935 2.649.139.109.389.17.574.138.441-.074.73-.548.586-.959-.04-.115-4.297-6.143-4.638-6.568-.027-.034.01-.06.135-.093.655-.172.799-.248.942-.5a.7.7 0 0 0 .09-.351.72.72 0 0 0-.747-.744c-.106.003-.867.188-1.696.414"/></svg>