<svg xmlns="http://www.w3.org/2000/svg" viewBox="0 0 24 24"><path d="M11.42 3.265a8.9 8.9 0 0 0-5.074 2.064c-2.287 1.907-3.448 4.991-3.003 7.984.218 1.467.862 2.944 1.807 4.143a12 12 0 0 0 1.394 1.394c3.169 2.498 7.516 2.538 10.772.099.492-.369 1.264-1.141 1.633-1.633 1.638-2.187 2.194-4.915 1.528-7.506a9.1 9.1 0 0 0-1.627-3.266 12 12 0 0 0-1.394-1.394 9 9 0 0 0-4.137-1.808c-.418-.063-1.519-.108-1.899-.077m1.672 1.578a7.3 7.3 0 0 1 5.037 3.304c.554.882.968 2.063 1.056 3.009l.028.296-.257-.028c-.699-.078-1.764-.387-2.368-.689a7.28 7.28 0 0 1-4.007-5.705l-.027-.23h.125c.069 0 .255.019.413.043m-2.037.147c.012.082.033.249.047.37.074.644.347 1.637.637 2.32.425 1.002 1.038 1.898 1.86 2.721q2.087 2.086 5.032 2.496c.249.035.469.063.49.063.058 0 .048.121-.045.569-.387 1.867-1.569 3.562-3.216 4.61a8 8 0 0 1-1.595.737c-.489.159-1.018.284-1.2.284-.105 0-.108-.008-.167-.52-.076-.661-.349-1.647-.654-2.36-.832-1.947-2.492-3.619-4.456-4.487-.815-.36-1.833-.637-2.573-.7-.159-.013-.311-.038-.339-.056-.075-.046.046-.683.244-1.293.792-2.432 2.86-4.301 5.337-4.822.545-.115.572-.112.598.068m-5.843 7.611c3.301.476 5.827 3.068 6.207 6.369l.027.23h-.125c-.546 0-1.69-.314-2.464-.677-1.372-.643-2.614-1.861-3.326-3.263-.333-.655-.653-1.731-.716-2.41-.031-.333-.061-.315.397-.249" fill-rule="evenodd"/></svg>