<svg xmlns="http://www.w3.org/2000/svg" viewBox="0 0 24 24"><path d="M11.42 3.265a8.9 8.9 0 0 0-5.074 2.064c-2.287 1.907-3.448 4.991-3.003 7.984.218 1.467.862 2.944 1.807 4.143a12 12 0 0 0 1.394 1.394c3.169 2.498 7.516 2.538 10.772.099.492-.369 1.264-1.141 1.633-1.633 1.638-2.187 2.194-4.915 1.528-7.506a9.1 9.1 0 0 0-1.627-3.266 12 12 0 0 0-1.394-1.394 9 9 0 0 0-4.137-1.808c-.418-.063-1.519-.108-1.899-.077m-.365 1.725c.012.082.033.249.047.37.074.644.347 1.637.637 2.32.425 1.002 1.038 1.898 1.86 2.721q2.087 2.086 5.032 2.496c.249.035.469.063.49.063.058 0 .048.121-.045.569-.387 1.867-1.569 3.562-3.216 4.61a8 8 0 0 1-1.595.737c-.489.159-1.018.284-1.2.284-.105 0-.108-.008-.167-.52-.076-.661-.349-1.647-.654-2.36-.832-1.947-2.492-3.619-4.456-4.487-.815-.36-1.833-.637-2.573-.7-.159-.013-.311-.038-.339-.056-.075-.046.046-.683.244-1.293.792-2.432 2.86-4.301 5.337-4.822.545-.115.572-.112.598.068"/></svg>