<svg xmlns="http://www.w3.org/2000/svg" viewBox="0 0 24 24"><path d="M11.718 2.311c-.297.144-9.266 6.164-9.33 6.262a.8.8 0 0 0-.109.626c.061.223.288.457.502.516.111.031 1.405.045 4.309.045h4.15v3.48l-1.63.001c-.897 0-1.701.017-1.787.037a.739.739 0 0 0-.348 1.246.84.84 0 0 0 .306.191c.104.029.729.045 1.809.045h1.65v2.65c0 1.699.015 2.703.042 2.799.108.39.52.618.92.51.22-.059.454-.287.513-.5.031-.109.045-.999.045-2.809v-2.65h1.65c1.08 0 1.705-.016 1.809-.045a.84.84 0 0 0 .306-.191.739.739 0 0 0-.348-1.246c-.086-.02-.89-.037-1.787-.037l-1.63-.001V9.76h4.15c2.904 0 4.198-.014 4.309-.045.214-.059.441-.293.502-.516a.8.8 0 0 0-.109-.626c-.064-.098-9.033-6.118-9.33-6.262A.8.8 0 0 0 12 2.242a.8.8 0 0 0-.282.069M12.89 6.46c.479.957.87 1.749.87 1.76s-.792.02-1.76.02-1.76-.009-1.76-.02c0-.039 1.74-3.5 1.76-3.5.011 0 .412.783.89 1.74M2.805 11.279a.8.8 0 0 0-.548.581c-.029.159.693 3.804.824 4.153.133.355.454.803.757 1.057l.27.225-.438 1.317c-.381 1.146-.434 1.34-.412 1.49a.74.74 0 0 0 .98.599c.347-.115.385-.187.867-1.638l.434-1.303h1.922l.434 1.303c.482 1.451.52 1.523.867 1.638a.74.74 0 0 0 .98-.599c.022-.148-.024-.322-.334-1.256l-.36-1.085.165-.044a.8.8 0 0 0 .312-.192.74.74 0 0 0-.348-1.247c-.086-.02-.971-.037-1.965-.037-1.735-.001-1.818-.004-2.032-.084a1.27 1.27 0 0 1-.69-.685c-.043-.117-.236-1.01-.43-1.986-.264-1.324-.375-1.806-.438-1.9-.159-.235-.534-.376-.817-.307m17.985.017c-.214.078-.343.171-.426.308-.045.074-.207.791-.425 1.888-.193.972-.386 1.862-.428 1.977-.093.255-.341.52-.612.653l-.199.098-1.96.02c-2.161.022-2.089.013-2.314.28a.75.75 0 0 0 .372 1.199l.154.042-.36 1.085c-.31.934-.356 1.108-.334 1.256a.74.74 0 0 0 .98.599c.347-.115.385-.187.867-1.638l.434-1.303h1.922l.434 1.303c.482 1.451.52 1.523.867 1.638a.74.74 0 0 0 .98-.599c.022-.15-.031-.344-.412-1.49l-.438-1.317.27-.225a2.9 2.9 0 0 0 .757-1.058c.048-.127.259-1.087.468-2.132.346-1.723.377-1.916.336-2.068-.111-.413-.549-.655-.933-.516" fill-rule="evenodd"/></svg>