<svg xmlns="http://www.w3.org/2000/svg" viewBox="0 0 24 24"><path d="M11.611 2.281c-1.353.143-2.513 1.198-2.79 2.54-.052.254-.061.89-.061 4.509v4.213l-.203.199a4.4 4.4 0 0 0-.416.498 4.74 4.74 0 0 0-.107 5.36c.286.441.925 1.08 1.366 1.366a4.73 4.73 0 0 0 5.2 0c.441-.286 1.08-.925 1.366-1.366a4.736 4.736 0 0 0-.523-5.858l-.203-.199V9.33c0-4.615.006-4.494-.238-5.086-.371-.898-1.233-1.648-2.162-1.879a3.9 3.9 0 0 0-1.229-.084m6.09 1.004c-.334.048-.639.213-.932.502a1.65 1.65 0 0 0-.491 1.483c.069.401.204.66.498.954s.553.429.954.498c.326.056.699.004 1.023-.143.279-.127.699-.547.826-.826.295-.651.189-1.388-.275-1.902-.417-.46-.975-.658-1.603-.566m-5.246.535a1.75 1.75 0 0 1 1.268 1.45c.019.149.035 1.498.036 3L13.76 11h-3.52l.001-2.73c.001-1.502.017-2.851.036-3 .134-1.037 1.154-1.716 2.178-1.45m5.712 1.006c.091.083.094.244.007.341-.138.152-.414.045-.414-.16 0-.214.248-.324.407-.181" fill-rule="evenodd"/></svg>