<svg xmlns="http://www.w3.org/2000/svg" viewBox="0 0 24 24"><path d="M2.82 5.277a.73.73 0 0 0-.538.514c-.056.2-.056 3.218 0 3.418.045.162.199.367.328.436.045.024.245.087.446.14.203.054.578.202.85.336.731.362 1.116.779 1.273 1.38a2.05 2.05 0 0 1-.17 1.433c-.159.292-.546.659-.917.868-.293.165-.845.371-1.282.479-.221.055-.467.288-.525.499-.061.219-.061 3.221 0 3.439.056.204.292.44.496.496.226.063 18.212.063 18.438 0a.82.82 0 0 0 .496-.496c.059-.213.061-3.22.002-3.432-.058-.21-.31-.452-.525-.505-1.351-.335-2.15-.935-2.371-1.783a2.16 2.16 0 0 1 0-.998c.158-.604.538-1.016 1.274-1.38.277-.137.646-.282.859-.339.44-.116.528-.167.676-.39l.11-.166.012-1.632c.007-1.07-.003-1.688-.031-1.792a.82.82 0 0 0-.376-.473c-.117-.065-.715-.069-9.265-.075-5.027-.003-9.194.007-9.26.023M8.24 12v5.24H3.76l.001-.83.001-.83.393-.15c1.281-.49 2.183-1.421 2.491-2.57.122-.455.122-1.267 0-1.72-.25-.924-.811-1.634-1.733-2.191-.295-.179-1.014-.509-1.108-.509-.032 0-.045-.243-.045-.84v-.84h4.48zm11.999-4.41-.001.83-.365.14a5.7 5.7 0 0 0-1.365.789 3.54 3.54 0 0 0-1.154 1.791c-.123.454-.123 1.266 0 1.72.313 1.157 1.206 2.078 2.491 2.57l.393.15.001.83.001.83H9.76V6.76h10.48z" fill-rule="evenodd"/></svg>