<svg xmlns="http://www.w3.org/2000/svg" viewBox="0 0 24 24"><path d="M6.56 3.302c-.818.177-1.587.896-2.157 2.017-.538 1.058-.882 2.315-1.069 3.908-.097.827-.097 2.719 0 3.546.19 1.618.538 2.879 1.086 3.934.304.587.591.983.971 1.34.32.3.54.441.924.589.262.1.282.102 1.595.116l1.33.014v1.147c0 .713.017 1.207.045 1.306.056.204.292.44.496.496.225.063 10.213.063 10.438 0a.82.82 0 0 0 .496-.496c.058-.208.062-10.465.004-11.439-.212-3.599-1.243-5.705-3.149-6.432l-.23-.088-5.26-.007c-4.395-.007-5.303.001-5.52.049m.699 1.52c.193.081.512.38.701.658.54.795.965 2.093 1.171 3.58.121.876.121 3.004 0 3.88-.255 1.835-.831 3.343-1.527 3.992-.439.411-.769.411-1.208 0-.397-.37-.756-1.019-1.051-1.896-.367-1.092-.533-2.141-.571-3.596-.046-1.785.129-3.159.571-4.476.295-.877.654-1.526 1.051-1.896.325-.305.562-.372.863-.246m10.033.037c.922.441 1.578 1.879 1.852 4.061.055.436.071 1.002.086 2.941l.017 2.402-.543-.016c-.666-.02-.94.012-1.111.127a.74.74 0 0 0-.118 1.151c.21.209.383.244 1.132.228l.633-.013v4.5h-8.48v-4.5l.633.013c.749.016.922-.019 1.132-.228a.74.74 0 0 0-.118-1.151c-.171-.115-.445-.147-1.107-.127l-.54.015v-1.881c-.001-3.223-.133-4.46-.641-6.02-.123-.377-.515-1.225-.68-1.471l-.087-.13h7.733zM6.7 9.817a.76.76 0 0 0-.384.399c-.062.137-.074.264-.074.784 0 .685.038.837.263 1.047.375.351.954.22 1.179-.267.109-.235.109-1.325 0-1.56-.086-.186-.257-.357-.417-.417a.9.9 0 0 0-.567.014m7.72 4.441a2 2 0 0 1-.149.039.8.8 0 0 0-.256.153c-.42.368-.316.993.205 1.234.235.109 1.325.109 1.56 0 .295-.137.46-.381.46-.684a.67.67 0 0 0-.193-.494c-.207-.219-.295-.242-.967-.254a8 8 0 0 0-.66.006" fill-rule="evenodd"/></svg>