<svg xmlns="http://www.w3.org/2000/svg" viewBox="0 0 24 24"><path d="M8.14 3.279c-.623.077-1.101.319-1.581.8-.392.391-.596.739-.72 1.225-.074.29-.079.451-.079 2.618v2.308l-.49.018c-.538.019-.665.06-.844.272-.177.21-.203.389-.152 1.04.058.73.161 1.234.392 1.92a7.9 7.9 0 0 0 1.319 2.405c.506.62 1.372 1.372 2.025 1.758.126.075.23.15.23.167s-.215.46-.477.984-.489 1.016-.503 1.093c-.063.333.191.737.521.828.224.063 8.214.063 8.438 0 .33-.091.584-.495.521-.828-.014-.077-.241-.569-.503-1.093a23 23 0 0 1-.477-.985c0-.018.115-.1.256-.182.623-.364 1.475-1.107 1.987-1.731a7.8 7.8 0 0 0 1.331-2.416 7.3 7.3 0 0 0 .391-1.924c.052-.647.026-.825-.151-1.036-.179-.212-.306-.253-.844-.272l-.49-.018V7.922c0-2.601-.003-2.628-.308-3.214-.214-.412-.726-.916-1.152-1.136-.635-.327-.332-.307-4.6-.315-2.09-.004-3.908.005-4.04.022m7.707 1.522c.338.094.731.464.84.79.036.11.053.744.063 2.399l.014 2.25H7.236l.014-2.25c.01-1.655.027-2.289.063-2.399.106-.316.5-.694.822-.787.179-.053 7.525-.055 7.712-.003m-2.042 1.477a.75.75 0 0 0-.524.926c.059.218.288.453.5.511.26.073.813.055.999-.031.295-.137.46-.381.46-.684a.75.75 0 0 0-.42-.67c-.139-.073-.801-.107-1.015-.052m4.379 5.592c-.012.061-.042.227-.066.369-.104.6-.462 1.501-.825 2.071-.514.808-1.278 1.566-2.04 2.024a6.9 6.9 0 0 1-2.019.793c-.355.078-.531.091-1.234.091s-.879-.013-1.234-.091c-1.304-.285-2.368-.875-3.266-1.813-.909-.949-1.466-2.079-1.68-3.404l-.024-.15h12.41zm-3.532 7.111c.059.121.108.229.108.24s-1.242.019-2.76.019-2.76-.009-2.76-.019.049-.119.108-.24l.109-.221h5.086z" fill-rule="evenodd"/></svg>