<svg xmlns="http://www.w3.org/2000/svg" viewBox="0 0 24 24"><path d="M6.58 3.299c-.509.114-.922.364-1.36.826-.96 1.011-1.61 2.781-1.885 5.135-.098.835-.098 2.645 0 3.48.224 1.919.709 3.482 1.415 4.559.256.39.888 1.009 1.197 1.173.486.256.72.288 2.079.288H9.24v1.15c0 .716.017 1.21.045 1.309.056.204.292.44.496.496.225.063 10.213.063 10.438 0a.82.82 0 0 0 .496-.496c.058-.208.062-10.465.004-11.439-.212-3.599-1.243-5.705-3.149-6.432l-.23-.088-5.26-.007c-4.273-.006-5.305.002-5.5.046m10.712 1.56c.922.441 1.578 1.879 1.852 4.061.055.436.071 1.002.086 2.941l.017 2.402-.543-.016c-.666-.02-.94.012-1.111.127a.74.74 0 0 0-.118 1.151c.21.209.383.244 1.132.228l.633-.013v4.5h-8.48v-4.5l.633.013c.749.016.922-.019 1.132-.228a.74.74 0 0 0-.118-1.151c-.171-.115-.445-.147-1.107-.127l-.54.015v-1.861c-.001-3.236-.133-4.481-.641-6.04-.123-.377-.515-1.225-.68-1.471l-.087-.13h7.733zm-10 4.955c.155.065.375.305.417.457.017.06.031.388.031.729s-.014.669-.031.729c-.042.152-.262.392-.417.457a.85.85 0 0 1-.584 0c-.155-.065-.375-.305-.417-.457-.017-.06-.031-.388-.031-.729s.014-.669.031-.729c.041-.147.259-.39.408-.455a.88.88 0 0 1 .593-.002m7.128 4.444a2 2 0 0 1-.149.039.8.8 0 0 0-.256.153c-.42.368-.316.993.205 1.234.235.109 1.325.109 1.56 0 .295-.137.46-.381.46-.684a.67.67 0 0 0-.193-.494c-.207-.219-.295-.242-.967-.254a8 8 0 0 0-.66.006" fill-rule="evenodd"/></svg>