<svg xmlns="http://www.w3.org/2000/svg" viewBox="0 0 24 24"><path d="M6.38 3.281c-1.42.151-2.828 1.182-3.463 2.536-.568 1.212-.615 2.587-.171 5.003l.294 1.6c.085.462.229 1.353.32 1.98.279 1.922.484 2.897.803 3.826.338.983.718 1.63 1.274 2.174.41.401.789.63 1.303.784.317.096.429.109.94.112.49.002.623-.011.86-.086.713-.223 1.295-.781 1.667-1.597.068-.15.273-.723.455-1.273.367-1.107.518-1.473.703-1.706a.795.795 0 0 1 1.27 0c.183.23.336.6.673 1.626.36 1.094.533 1.511.785 1.889.235.353.641.737.939.886.435.219.654.263 1.288.26.512-.002.622-.015.94-.111.514-.154.893-.383 1.303-.784.585-.571.962-1.234 1.317-2.313.324-.986.447-1.612.882-4.507.046-.308.198-1.172.338-1.92.461-2.474.541-3.354.398-4.38-.23-1.651-1.121-2.907-2.558-3.606a3.7 3.7 0 0 0-1.72-.404c-.748-.007-1.222.086-2.602.506s-1.881.518-2.638.516-1.213-.094-2.598-.516c-1.515-.462-2.221-.578-3.002-.495m1.455 1.617c.228.057.768.21 1.2.34 1.568.472 1.928.538 2.965.538s1.397-.066 2.965-.538c1.893-.571 2.491-.61 3.308-.219a3.02 3.02 0 0 1 1.652 1.974c.057.221.086.493.102.967.027.806-.036 1.409-.293 2.8l-.296 1.611a61 61 0 0 0-.278 1.74c-.206 1.407-.329 2.105-.477 2.709-.391 1.592-.891 2.463-1.622 2.822-.221.109-.318.132-.631.148-.439.023-.659-.027-.847-.193-.3-.263-.471-.642-.946-2.097-.374-1.145-.569-1.535-.995-1.996-.428-.463-.955-.681-1.642-.681s-1.214.218-1.642.681c-.426.461-.621.851-.995 1.996-.475 1.455-.646 1.834-.946 2.097-.188.166-.408.216-.847.193-.315-.016-.41-.038-.64-.151-.69-.339-1.198-1.197-1.569-2.652-.184-.721-.304-1.384-.52-2.867a57 57 0 0 0-.277-1.74l-.298-1.62c-.264-1.434-.32-1.964-.293-2.78.03-.928.161-1.397.552-1.966.361-.527 1.042-1.002 1.69-1.178.389-.106 1.042-.081 1.62.062m-.137.977a.75.75 0 0 0-.293 1.132c.111.156.236.214 1.36.635.535.2.995.376 1.022.392.028.015-.394.193-.958.403-1.174.438-1.265.479-1.401.64A.741.741 0 0 0 8 10.293c.134-.001.66-.182 2.056-.707 1.032-.388 1.907-.706 1.944-.706s.912.318 1.944.706c2.031.764 2.095.781 2.403.622.538-.278.526-1.052-.022-1.323-.08-.04-.599-.241-1.154-.448-.564-.21-.986-.388-.958-.403.027-.016.487-.192 1.022-.392.534-.2 1.041-.399 1.125-.442.406-.207.511-.767.211-1.124a.85.85 0 0 0-.566-.275c-.079-.001-.94.301-2.07.724L12 7.249l-1.935-.724c-1.13-.423-1.991-.725-2.07-.724a.9.9 0 0 0-.297.074" fill-rule="evenodd"/></svg>