<svg xmlns="http://www.w3.org/2000/svg" viewBox="0 0 24 24"><path d="M6.34 3.284c-.876.091-1.869.6-2.588 1.325-.621.627-.984 1.324-1.203 2.308-.072.326-.085.514-.085 1.263-.001 1.009.049 1.425.381 3.18.299 1.579.336 1.798.515 3.04.275 1.902.479 2.88.798 3.819.574 1.691 1.471 2.674 2.742 3.005.426.111 1.268.104 1.64-.013.742-.233 1.325-.811 1.703-1.688.082-.19.285-.767.452-1.284.415-1.282.624-1.693.949-1.861.145-.075.567-.075.712 0 .317.164.563.638.915 1.762.442 1.41.686 1.924 1.148 2.413.292.31.645.533 1.041.658.372.117 1.213.124 1.64.013 1.296-.337 2.206-1.356 2.772-3.104.321-.989.498-1.849.768-3.723.177-1.227.211-1.432.515-3.037.265-1.404.364-2.131.393-2.88.069-1.821-.453-3.181-1.586-4.135-1.207-1.016-2.478-1.303-4.082-.922a31 31 0 0 0-1.343.378c-1.097.332-1.488.422-2.088.478-.842.08-1.482-.023-2.986-.478-1.151-.348-1.649-.467-2.177-.52-.456-.045-.485-.045-.946.003m3.725 3.241L12 7.249l1.935-.724C15 6.126 15.927 5.8 15.996 5.8c.158 0 .394.096.517.212.346.323.275.951-.134 1.175-.087.048-.599.252-1.138.453a36 36 0 0 0-1.029.394c-.028.016.415.202 1.018.427.587.219 1.121.435 1.185.479.264.18.37.461.299.793-.082.382-.503.647-.869.548a79 79 0 0 1-1.964-.721c-.997-.374-1.844-.68-1.881-.68s-.884.306-1.881.68c-.996.374-1.88.699-1.964.721-.366.099-.787-.166-.869-.548-.071-.332.035-.613.299-.793.064-.044.598-.26 1.185-.479.603-.225 1.046-.411 1.018-.427a36 36 0 0 0-1.029-.394c-.539-.201-1.051-.405-1.138-.453-.408-.224-.48-.852-.135-1.175a.85.85 0 0 1 .509-.21c.08-.001.92.292 2.07.723"/></svg>