<svg xmlns="http://www.w3.org/2000/svg" viewBox="0 0 24 24"><path d="M7.096 3.28c-.398.043-.699.138-1.116.352-.291.149-.434.258-.744.566-.594.59-.874 1.154-.967 1.947-.11.942.2 1.864.861 2.56L5.41 9l-.28.295a4 4 0 0 0-.443.57 3.3 3.3 0 0 0-.114 3.055c.07.143.133.272.139.287s-.425.033-.96.04c-1.068.014-1.117.024-1.326.273-.141.167-.186.356-.186.78 0 .847.178 1.662.504 2.309a4.81 4.81 0 0 0 3.663 2.601l.353.048v.448c0 .247.019.499.043.561.093.249.438.491.697.491s.604-.242.697-.491c.024-.062.043-.318.043-.57v-.457h7.52v.457c0 .252.019.508.043.57.093.249.438.491.697.491s.604-.242.697-.491c.024-.062.043-.315.043-.562v-.451l.356-.047a4.77 4.77 0 0 0 4.018-3.587c.134-.537.19-1.52.104-1.829a.83.83 0 0 0-.373-.462c-.106-.059-.271-.071-1.097-.082-.535-.007-.967-.025-.96-.04.006-.015.069-.144.139-.287a3.3 3.3 0 0 0-.114-3.055 4 4 0 0 0-.443-.57L18.59 9l.28-.295a3.16 3.16 0 0 0 .861-2.56c-.093-.794-.374-1.358-.967-1.945-.436-.432-.878-.694-1.43-.85l-.314-.088-4.82-.006c-2.651-.004-4.948.007-5.104.024m7.411 1.558c.157.096.222.212.228.405a.49.49 0 0 1-.212.427c-.094.064-.297.072-2.446.09l-2.343.02-.148.1c-.168.114-.346.433-.345.618.002.292.302.673.568.722.072.013 1.211.018 2.531.012l2.4-.012.23-.093c.489-.197.962-.67 1.156-1.157.078-.195.092-.304.093-.72l.001-.49h.26c.481.001.875.157 1.22.484.977.924.572 2.542-.735 2.939-.282.086-9.655.083-9.937-.002A1.75 1.75 0 0 1 5.761 6.5c0-.781.526-1.473 1.279-1.683.138-.038 1.024-.051 3.76-.053 3.478-.004 3.584-.001 3.707.074m0 5c.157.096.222.212.228.405a.49.49 0 0 1-.212.427c-.094.064-.297.072-2.446.09l-2.343.02-.148.1c-.168.114-.346.433-.345.618.002.292.302.673.568.722.072.013 1.211.018 2.531.012l2.4-.012.23-.093c.489-.197.962-.67 1.156-1.157.078-.195.092-.304.093-.72l.001-.49h.26c.481.001.875.157 1.22.484.977.924.572 2.542-.735 2.939-.282.086-9.655.083-9.937-.002A1.75 1.75 0 0 1 5.761 11.5c0-.781.526-1.473 1.279-1.683.138-.038 1.024-.051 3.76-.053 3.478-.004 3.584-.001 3.707.074" fill-rule="evenodd"/></svg>