<svg xmlns="http://www.w3.org/2000/svg" viewBox="0 0 24 24"><path d="M11.617 2.283c-.585.069-1.098.328-1.552.781a2.6 2.6 0 0 0-.684 1.101c-.199.629-.168 1.126.121 1.898.352.943 1.36 2.704 1.727 3.019.315.269.784.351 1.191.208.3-.105.556-.385.96-1.05.719-1.181 1.196-2.217 1.326-2.877.214-1.083-.429-2.304-1.486-2.824a2.87 2.87 0 0 0-1.603-.256M8.18 8.267a6.3 6.3 0 0 0-3.44 1.247c-.554.411-1.196 1.12-1.581 1.747a6.3 6.3 0 0 0-.736 4.664c.285 1.178.775 2.068 1.613 2.929a6.16 6.16 0 0 0 3.904 1.865c.587.055 7.533.055 8.12 0a6.16 6.16 0 0 0 3.904-1.865c1.047-1.076 1.626-2.344 1.759-3.855.204-2.31-.945-4.567-2.97-5.83a6.8 6.8 0 0 0-1.733-.724c-.594-.147-1.68-.243-2.096-.186-.636.088-.896.819-.449 1.265.192.192.365.235.945.236 1.025.001 1.899.258 2.74.805.335.218 1.057.94 1.275 1.275 1.278 1.963 1.013 4.467-.641 6.061-.556.536-1.067.851-1.774 1.092-.713.244-.761.247-4.165.247H9.76v-1.48l2.97-.001c1.747 0 3.083-.017 3.244-.04a3.5 3.5 0 0 0 1.166-.408c.367-.214.957-.804 1.171-1.171a3.27 3.27 0 0 0 .416-2.011c-.102-.804-.37-1.342-.963-1.93-.325-.323-.446-.413-.788-.586-.732-.371-.474-.353-4.976-.353-4.496 0-4.237-.018-4.973.35-.35.175-.461.258-.791.587-.433.432-.655.774-.818 1.261a3.3 3.3 0 0 0 .271 2.682c.214.367.804.957 1.171 1.171.323.19.804.36 1.132.401l.228.028.011.75.011.75h-.096c-.209 0-.825-.13-1.166-.246A4.74 4.74 0 0 1 3.76 14.5c0-.94.274-1.844.805-2.66.208-.319.935-1.052 1.241-1.252.884-.575 1.728-.827 2.774-.828.58-.001.753-.044.945-.236a.739.739 0 0 0-.348-1.246c-.149-.034-.461-.038-.997-.011" fill-rule="evenodd"/></svg>