<svg fill="none" xmlns="http://www.w3.org/2000/svg" viewBox="0 0 24 24"><path d="M11.617 2.283 C 11.032 2.352,10.519 2.611,10.065 3.064 C 9.729 3.399,9.515 3.744,9.381 4.165 C 9.182 4.794,9.213 5.291,9.502 6.063 C 9.854 7.006,10.862 8.767,11.229 9.082 C 11.544 9.351,12.013 9.433,12.420 9.290 C 12.720 9.185,12.976 8.905,13.380 8.240 C 14.099 7.059,14.576 6.023,14.706 5.363 C 14.920 4.280,14.277 3.059,13.220 2.539 C 12.745 2.305,12.184 2.215,11.617 2.283 M12.528 3.873 C 12.924 4.067,13.202 4.469,13.233 4.890 C 13.253 5.167,13.139 5.521,12.832 6.140 C 12.615 6.577,12.032 7.599,12.000 7.599 C 11.918 7.599,10.963 5.774,10.823 5.349 C 10.620 4.733,10.957 4.059,11.586 3.820 C 11.818 3.732,12.294 3.759,12.528 3.873 M8.180 8.267 C 6.946 8.329,5.754 8.761,4.740 9.514 C 4.186 9.925,3.544 10.634,3.159 11.261 C 2.324 12.619,2.047 14.372,2.423 15.925 C 2.708 17.103,3.198 17.993,4.036 18.854 C 5.090 19.937,6.432 20.578,7.940 20.719 C 8.527 20.774,15.473 20.774,16.060 20.719 C 17.568 20.578,18.910 19.937,19.964 18.854 C 21.011 17.778,21.590 16.510,21.723 14.999 C 21.927 12.689,20.778 10.432,18.753 9.169 C 18.294 8.883,17.572 8.581,17.020 8.445 C 16.426 8.298,15.340 8.202,14.924 8.259 C 14.288 8.347,14.028 9.078,14.475 9.524 C 14.667 9.716,14.840 9.759,15.420 9.760 C 16.445 9.761,17.319 10.018,18.160 10.565 C 18.495 10.783,19.217 11.505,19.435 11.840 C 20.713 13.803,20.448 16.307,18.794 17.901 C 18.238 18.437,17.727 18.752,17.020 18.993 C 16.307 19.237,16.259 19.240,12.855 19.240 L 9.760 19.240 9.760 18.500 L 9.760 17.760 12.730 17.759 C 14.477 17.759,15.813 17.742,15.974 17.719 C 16.356 17.664,16.809 17.505,17.140 17.311 C 17.507 17.097,18.097 16.507,18.311 16.140 C 18.659 15.546,18.812 14.806,18.727 14.129 C 18.625 13.325,18.357 12.787,17.764 12.199 C 17.439 11.876,17.318 11.786,16.976 11.613 C 16.244 11.242,16.502 11.260,12.000 11.260 C 7.504 11.260,7.763 11.242,7.027 11.610 C 6.677 11.785,6.566 11.868,6.236 12.197 C 5.803 12.629,5.581 12.971,5.418 13.458 C 5.123 14.344,5.224 15.348,5.689 16.140 C 5.903 16.507,6.493 17.097,6.860 17.311 C 7.183 17.501,7.664 17.671,7.992 17.712 L 8.220 17.740 8.231 18.490 L 8.242 19.240 8.146 19.240 C 7.937 19.240,7.321 19.110,6.980 18.994 C 5.052 18.338,3.760 16.535,3.760 14.500 C 3.760 13.560,4.034 12.656,4.565 11.840 C 4.773 11.521,5.500 10.788,5.806 10.588 C 6.690 10.013,7.534 9.761,8.580 9.760 C 9.160 9.759,9.333 9.716,9.525 9.524 C 9.938 9.111,9.742 8.409,9.177 8.278 C 9.028 8.244,8.716 8.240,8.180 8.267 M15.940 12.814 C 16.708 13.020,17.239 13.709,17.239 14.500 C 17.239 15.278,16.732 15.950,15.972 16.181 C 15.685 16.268,8.315 16.268,8.028 16.181 C 7.268 15.950,6.761 15.278,6.761 14.500 C 6.761 13.719,7.287 13.027,8.040 12.817 C 8.312 12.742,15.658 12.739,15.940 12.814 " stroke="none" fill-rule="evenodd" fill="currentColor"/></svg>