<svg xmlns="http://www.w3.org/2000/svg" viewBox="0 0 24 24"><path d="M6.617 2.283q-.873.101-1.552.781a2.74 2.74 0 0 0-.696 1.116l-.109.32V11c0 6.199.003 6.511.074 6.74a2.86 2.86 0 0 0 1.42 1.713c.206.103.399.187.43.187s.056.013.056.028-.205.236-.456.49c-.369.374-.465.495-.503.637a.75.75 0 0 0 .924.924c.152-.04.302-.172 1.136-1.002l.961-.957h7.396l.961.957c.834.83.984.962 1.136 1.002a.75.75 0 0 0 .924-.924c-.038-.142-.134-.263-.503-.637-.251-.254-.456-.475-.456-.49s.025-.028.056-.028.224-.084.43-.187a2.86 2.86 0 0 0 1.42-1.713c.071-.229.074-.541.074-6.74V4.5l-.109-.32a2.74 2.74 0 0 0-.696-1.116c-.472-.471-.961-.709-1.606-.783-.424-.049-10.294-.046-10.712.002m10.911 1.59c.239.118.481.36.599.599l.093.188.011 3.79.01 3.79H5.76V8.505c0-4.088-.011-3.897.236-4.233.14-.19.38-.373.59-.45.13-.048.973-.056 5.454-.049l5.3.007zm.704 11.657c-.012 1.762-.012 1.771-.106 1.979a1.36 1.36 0 0 1-.667.634c-.193.075-.37.077-5.459.077s-5.266-.002-5.459-.077a1.36 1.36 0 0 1-.667-.634c-.094-.208-.094-.217-.106-1.979l-.011-1.77h12.487zm-10.005-.234c-.312.116-.48.365-.48.711 0 .195.02.264.117.404.429.618 1.376.335 1.376-.411a.754.754 0 0 0-1.013-.704m7.073-.022c-.339.111-.54.38-.54.724 0 .887 1.279 1.037 1.473.173.125-.556-.408-1.069-.933-.897"/></svg>