<svg xmlns="http://www.w3.org/2000/svg" viewBox="0 0 24 24"><path d="M6.617 2.283q-.873.101-1.552.781a2.74 2.74 0 0 0-.696 1.116l-.109.32-.011 6.36c-.01 5.689-.005 6.393.052 6.676a2.78 2.78 0 0 0 1.686 2.025c.128.051.241.099.25.106.01.008-.191.225-.446.484-.375.38-.472.502-.51.644a.75.75 0 0 0 .924.924c.152-.04.302-.172 1.136-1.002l.961-.957h7.396l.961.957c.834.83.984.962 1.136 1.002a.75.75 0 0 0 .924-.924c-.038-.142-.135-.264-.51-.644-.255-.259-.456-.476-.446-.484a4 4 0 0 1 .25-.106 2.78 2.78 0 0 0 1.686-2.025c.057-.283.062-.987.052-6.676L19.74 4.5l-.109-.32a2.74 2.74 0 0 0-.696-1.116c-.472-.471-.961-.709-1.606-.783-.424-.049-10.294-.046-10.712.002m10.911 1.59c.239.118.481.36.599.599l.093.188.011 3.79.01 3.79H5.76V8.505c0-4.088-.011-3.897.236-4.233.14-.19.38-.373.59-.45.13-.048.973-.056 5.454-.049l5.3.007zM8.84 15.342c.463.236.54.861.149 1.204-.495.435-1.229.114-1.229-.538 0-.564.58-.922 1.08-.666m7.054.032c.347.191.456.677.231 1.031-.175.277-.53.412-.824.315-.571-.188-.727-.883-.286-1.27a.8.8 0 0 1 .256-.153c.06-.013.127-.03.149-.037.081-.027.324.032.474.114" fill-rule="evenodd"/></svg>