<svg xmlns="http://www.w3.org/2000/svg" viewBox="0 0 24 24"><path d="M6.617 2.283q-.873.101-1.552.781a2.74 2.74 0 0 0-.696 1.116l-.109.32V11c0 6.199.003 6.511.074 6.74a2.86 2.86 0 0 0 1.42 1.713c.206.103.399.187.43.187s.056.013.056.028-.205.236-.456.49c-.369.374-.465.495-.503.637a.75.75 0 0 0 .924.924c.152-.04.302-.172 1.136-1.002l.961-.957h7.396l.961.957c.834.83.984.962 1.136 1.002a.75.75 0 0 0 .924-.924c-.038-.142-.134-.263-.503-.637-.251-.254-.456-.475-.456-.49s.025-.028.056-.028.224-.084.43-.187a2.86 2.86 0 0 0 1.42-1.713c.071-.229.074-.541.074-6.74V4.5l-.109-.32a2.74 2.74 0 0 0-.696-1.116c-.472-.471-.961-.709-1.606-.783-.424-.049-10.294-.046-10.712.002m10.911 1.59c.239.118.481.36.599.599l.093.188.011 3.79.01 3.79H5.76V8.505c0-4.088-.011-3.897.236-4.233.14-.19.38-.373.59-.45.13-.048.973-.056 5.454-.049l5.3.007zm.712 11.605c0 1.658-.003 1.727-.086 1.95a1.3 1.3 0 0 1-.726.726l-.231.086H6.803l-.231-.086a1.3 1.3 0 0 1-.726-.726c-.083-.223-.086-.292-.086-1.95V13.76h12.48zm-9.917-.21a.82.82 0 0 0-.487.379.757.757 0 0 0 .552 1.096c.208.033.418-.035.601-.197.485-.425.238-1.195-.409-1.277a1 1 0 0 0-.257-.001m7.097-.01a2 2 0 0 1-.149.039c-.147.032-.39.251-.457.411a.735.735 0 0 0 .197.838c.374.329.886.252 1.134-.171a.74.74 0 0 0-.545-1.11.6.6 0 0 0-.18-.007" fill-rule="evenodd"/></svg>