<svg xmlns="http://www.w3.org/2000/svg" viewBox="0 0 24 24"><path d="M15.64 3.288a3 3 0 0 0-.48.084c-.099.031-2.592.925-5.54 1.986-3.527 1.27-5.49 1.997-5.74 2.125-.772.396-1.253.936-1.511 1.697l-.109.32v9l.109.32c.151.445.362.783.695 1.116s.671.544 1.116.695l.32.109h15l.32-.109a2.74 2.74 0 0 0 1.116-.695c.333-.333.544-.671.695-1.116l.109-.32v-9l-.109-.32c-.305-.9-1.055-1.62-1.907-1.833l-.216-.054-.591-1.329c-.644-1.448-.807-1.724-1.214-2.051a2.77 2.77 0 0 0-2.063-.625m.626 1.532c.26.077.503.242.649.441.064.087.297.564.516 1.059l.399.9-2.235.01a556 556 0 0 1-4.475 0l-2.24-.01 3.05-1.098c3.818-1.375 3.777-1.361 3.973-1.362.089 0 .253.027.363.06M5.76 9.957c0 .749.016 1.24.043 1.31.093.249.438.491.697.491s.604-.242.697-.491c.027-.07.043-.561.043-1.31V8.759l6.05.011 6.05.01.188.093c.239.118.481.36.599.599l.093.188v8.68l-.093.189c-.132.268-.416.534-.674.63-.214.08-.294.081-7.453.081s-7.239-.001-7.453-.081c-.258-.096-.542-.362-.674-.63l-.093-.189-.011-4.26c-.009-3.158 0-4.304.035-4.43.093-.34.433-.7.782-.828.101-.037.331-.057.664-.059l.51-.003zm11.58 1.32c-.226.055-.321.135-1.24 1.047l-.92.912-1.94.012c-1.719.011-1.954.02-2.06.078-.582.323-.56 1.081.04 1.358.144.067.276.074 1.3.075l1.139.001-.639.641c-.401.401-.707.674-.82.73-.164.081-.256.091-1.04.11-.931.023-.991.036-1.207.265a.716.716 0 0 0 .06 1.043c.232.203.358.222 1.311.202.952-.021 1.178-.066 1.659-.332.37-.206.743-.556 3.025-2.845 1.446-1.45 2.128-2.161 2.17-2.263a.743.743 0 0 0-.578-1.041.8.8 0 0 0-.26.007M6.42 13.26a2 2 0 0 1-.149.037c-.147.032-.39.251-.457.411-.069.165-.079 3.38-.011 3.559.093.249.438.491.697.491s.604-.242.697-.491c.028-.073.043-.695.043-1.767s-.015-1.694-.043-1.767a.9.9 0 0 0-.357-.391c-.108-.055-.355-.104-.42-.082" fill-rule="evenodd"/></svg>