<svg xmlns="http://www.w3.org/2000/svg" viewBox="0 0 24 24"><path d="M15.64 3.288a3 3 0 0 0-.48.084c-.099.031-2.592.925-5.54 1.986-3.527 1.27-5.49 1.997-5.74 2.125-.772.396-1.253.936-1.511 1.697l-.109.32v9l.109.32c.151.445.362.783.695 1.116s.671.544 1.116.695l.32.109h15l.32-.109a2.74 2.74 0 0 0 1.116-.695c.333-.333.544-.671.695-1.116l.109-.32v-9l-.109-.32c-.305-.9-1.055-1.62-1.907-1.833l-.216-.054-.591-1.329c-.644-1.448-.807-1.724-1.214-2.051a2.77 2.77 0 0 0-2.063-.625m.626 1.532c.26.077.503.242.649.441.064.087.297.564.516 1.059l.399.9-2.235.01a556 556 0 0 1-4.475 0l-2.24-.01 3.05-1.098c3.818-1.375 3.777-1.361 3.973-1.362.089 0 .253.027.363.06M5.76 9.985c0 1.183.003 1.229.087 1.379a1 1 0 0 0 .247.265c.132.092.202.111.406.111s.274-.019.406-.111a1 1 0 0 0 .247-.265c.084-.15.087-.196.087-1.38V8.759l6.05.01 6.05.011.187.096c.23.117.475.364.6.604l.093.18v8.68l-.099.195c-.055.107-.194.28-.309.385-.382.349.328.32-7.812.32s-7.43.029-7.812-.32a1.7 1.7 0 0 1-.309-.385l-.099-.195V9.66l.093-.18c.165-.317.477-.589.773-.674.074-.021.355-.04.624-.042l.49-.004zm11.542 1.282c-.165.047-.309.173-1.202 1.059l-.92.912-1.96.011-1.96.011-.151.095c-.46.288-.468.961-.015 1.274l.159.111 1.201.012 1.201.012-.618.621c-.849.854-.79.827-1.897.855-.831.021-.888.028-1.031.116-.46.284-.468.96-.015 1.273l.159.111h.924c.653 0 .987-.016 1.143-.055a3.3 3.3 0 0 0 .907-.407c.254-.171 4.749-4.646 4.898-4.876a.742.742 0 0 0-.557-1.142 1 1 0 0 0-.266.007M6.3 13.272a.77.77 0 0 0-.438.342l-.102.173v1.711c0 1.683.001 1.714.087 1.866a1 1 0 0 0 .247.265c.132.092.202.111.406.111s.274-.019.406-.111a1 1 0 0 0 .247-.265c.086-.152.087-.183.087-1.864s-.001-1.712-.087-1.864a.9.9 0 0 0-.242-.257c-.161-.107-.463-.16-.611-.107" fill-rule="evenodd"/></svg>