<svg xmlns="http://www.w3.org/2000/svg" viewBox="0 0 24 24"><path d="M15.64 3.288a3 3 0 0 0-.48.084c-.099.031-2.592.925-5.54 1.987C4.137 7.334 3.779 7.475 3.3 7.846c-.442.343-.807.899-.967 1.474-.069.244-.073.531-.073 4.68s.004 4.436.073 4.68a2.82 2.82 0 0 0 1.987 1.987c.247.069.632.073 7.68.073 7.07 0 7.432-.003 7.68-.073a2.83 2.83 0 0 0 1.987-1.987c.069-.245.073-.517.073-4.68s-.004-4.435-.073-4.68c-.271-.96-1-1.703-1.923-1.96l-.235-.066-.592-1.33c-.644-1.448-.807-1.724-1.214-2.051a2.77 2.77 0 0 0-2.063-.625m.626 1.532c.26.077.503.242.649.441.064.087.297.564.516 1.059l.399.9-2.235.01a556 556 0 0 1-4.475 0l-2.24-.01 3.05-1.098c3.818-1.375 3.777-1.361 3.973-1.362.089 0 .253.027.363.06M6.84 8.342c.137.07.306.255.357.391.025.065.043.44.043.897 0 .718-.007.8-.085.96q-.189.39-.655.39t-.655-.39c-.078-.16-.085-.242-.085-.964 0-.572.015-.824.054-.918.067-.16.31-.379.457-.411.06-.013.127-.03.149-.037.065-.022.312.027.42.082m11 3c.137.07.306.255.357.391a.87.87 0 0 1-.019.578c-.042.102-.724.813-2.17 2.263-2.458 2.465-2.668 2.66-3.112 2.874-.523.252-.662.279-1.592.301-.932.023-1.059.003-1.291-.2a.716.716 0 0 1-.06-1.043c.216-.229.276-.242 1.207-.265.784-.019.876-.029 1.04-.11.113-.056.419-.329.82-.73l.639-.641-1.139-.001c-1.024-.001-1.156-.008-1.3-.075-.486-.225-.619-.807-.267-1.178.24-.254.16-.245 2.287-.258l1.94-.012.92-.912c.506-.502.965-.937 1.02-.965a.8.8 0 0 1 .72-.017m-10.927.788a.8.8 0 0 1 .242.28c.082.168.085.23.085 1.59s-.003 1.422-.085 1.59q-.189.39-.655.39t-.657-.393c-.084-.174-.086-.213-.074-1.636l.011-1.457.107-.161a.744.744 0 0 1 1.026-.203m0 5c.289.192.327.335.327 1.24 0 .457-.018.832-.043.897-.093.249-.438.491-.697.491-.289 0-.671-.301-.721-.567-.013-.072-.018-.483-.012-.914.013-.772.015-.785.12-.944a.744.744 0 0 1 1.026-.203" fill-rule="evenodd"/></svg>