<svg xmlns="http://www.w3.org/2000/svg" viewBox="0 0 24 24"><path d="M16.68 3.279c-.733.101-1.337.45-2.018 1.167-.924.972-1.719 2.539-2.149 4.234-.384 1.517-.343 2.605.135 3.56.223.446.777 1.019 1.252 1.295.566.33 1.24.549 1.95.635l.39.048v4.022h-3.48v-2.48h.15c.443-.001.754-.243.83-.645.053-.286-.122-.642-.384-.777a1.3 1.3 0 0 0-.355-.084l-.241-.025v-.645c0-.705-.031-.88-.186-1.064-.149-.177-.321-.253-.574-.253s-.425.076-.574.253c-.155.185-.186.359-.186 1.07v.65H8.76v-.65c0-.711-.031-.885-.186-1.07-.149-.177-.321-.253-.574-.253s-.425.076-.574.253c-.155.185-.186.359-.186 1.07v.65H4.76v-.65c0-.711-.031-.885-.186-1.07-.149-.177-.321-.253-.574-.253s-.425.076-.574.253c-.155.184-.186.359-.186 1.064v.645l-.241.025a1.3 1.3 0 0 0-.355.084c-.262.135-.437.491-.384.777.076.402.387.644.83.645h.15v2.469l-.241.025c-.284.03-.431.098-.573.266-.344.409-.146 1.056.365 1.198.217.06 18.211.058 18.428-.003a.84.84 0 0 0 .306-.191.739.739 0 0 0-.348-1.246c-.086-.02-.89-.037-1.787-.037l-1.63-.001v-4.022l.39-.048a5.1 5.1 0 0 0 1.95-.635c.475-.276 1.029-.849 1.252-1.295.222-.443.319-.795.375-1.36.145-1.458-.597-3.906-1.679-5.541-.358-.54-.966-1.208-1.349-1.481-.647-.462-1.37-.669-2.019-.579m.87 1.626c.319.158.927.771 1.245 1.255.442.671.872 1.621 1.141 2.52.271.905.37 1.856.248 2.376-.185.784-.742 1.288-1.682 1.523-.199.05-.447.103-.552.118l-.19.028v-.475l.926-1.155c.509-.635.961-1.236 1.006-1.335.071-.159.075-.204.035-.397-.121-.575-.804-.804-1.221-.41-.062.059-.419.49-.793.957s-.695.85-.713.85-.339-.383-.713-.85a23 23 0 0 0-.793-.957c-.417-.394-1.1-.165-1.221.41-.04.193-.036.238.035.397.045.099.497.7 1.006 1.335l.926 1.155v.475l-.19-.028q-1.911-.274-2.234-1.641c-.212-.902.216-2.745.97-4.176.572-1.086 1.286-1.874 1.87-2.066.251-.082.622-.044.894.091M7.24 17v1.24H4.76v-2.48h2.48zm4 0v1.24H8.76v-2.48h2.48z" fill-rule="evenodd"/></svg>