<svg xmlns="http://www.w3.org/2000/svg" viewBox="0 0 24 24"><path d="M16.7 3.281c-.72.084-1.341.437-2.029 1.153-1.205 1.257-2.212 3.599-2.399 5.586-.082.873.085 1.746.452 2.366.174.294.628.776.936.994.605.429 1.481.725 2.46.829l.1.011.01 2.01.011 2.01H12.76v-2.48h.15c.391-.001.72-.227.809-.556.129-.48-.179-.894-.707-.949l-.246-.026-.013-.724c-.015-.825-.04-.908-.344-1.121-.14-.099-.205-.117-.409-.117s-.269.018-.409.117c-.304.213-.329.295-.344 1.126l-.013.73H8.766l-.013-.73c-.015-.831-.04-.913-.344-1.126-.14-.099-.205-.117-.409-.117s-.269.018-.409.117c-.304.213-.329.295-.344 1.126l-.013.73H4.766l-.013-.73c-.015-.831-.04-.913-.344-1.126-.14-.099-.205-.117-.409-.117s-.269.018-.409.117c-.304.213-.329.296-.344 1.121l-.013.724-.246.026c-1.041.109-.947 1.503.102 1.505h.15v2.469l-.248.026c-.532.055-.841.467-.711.949.059.218.288.453.5.511.226.063 18.212.063 18.438 0 .212-.058.441-.293.5-.511.089-.331-.03-.638-.324-.832l-.169-.112-1.733-.012-1.734-.012.011-2.008.01-2.008.1-.011c.93-.099 1.823-.39 2.4-.782.099-.067.304-.24.456-.385.871-.829 1.186-2.051.922-3.582-.331-1.921-1.248-3.899-2.329-5.026-.426-.443-.722-.671-1.152-.887a2.6 2.6 0 0 0-1.477-.266m-1.433 5.522c.171.064.282.185 1.02 1.107.374.467.695.85.713.85s.339-.383.713-.85c.738-.922.849-1.043 1.02-1.107.626-.237 1.231.44.926 1.037-.028.055-.467.62-.975 1.255l-.924 1.155V14h-1.52v-1.75l-.924-1.155c-.953-1.191-1.008-1.268-1.054-1.482-.059-.275.161-.677.437-.797a.9.9 0 0 1 .568-.013M7.24 17v1.24H4.76v-2.48h2.48zm4 0v1.24H8.76v-2.48h2.48z"/></svg>