<svg xmlns="http://www.w3.org/2000/svg" viewBox="0 0 24 24"><path d="M2.42 3.26a2 2 0 0 1-.149.037c-.147.032-.39.251-.457.411a.74.74 0 0 0 .139.786c.159.168.311.233.633.269.607.068 1.028.445 1.131 1.014.029.161.043 1.75.043 4.924 0 4.533.003 4.696.079 4.995.246.964 1.032 1.73 2.034 1.985.141.036.168.057.144.111-.249.564-.325 1.258-.199 1.826.181.811.853 1.613 1.61 1.92a3.5 3.5 0 0 0 1.072.222c.52 0 1.137-.197 1.557-.497.549-.391.948-.958 1.104-1.567.143-.559.079-1.391-.14-1.814l-.063-.122h2.285c2.161 0 2.284.004 2.256.07-.185.441-.232.681-.232 1.17 0 .433.014.543.105.82.146.44.357.781.692 1.116s.676.546 1.116.692c.277.091.387.105.82.105s.543-.014.82-.105c.44-.146.781-.357 1.116-.692s.546-.676.692-1.116c.091-.277.105-.387.105-.82 0-.489-.047-.729-.232-1.17-.027-.063 0-.07.265-.07.36 0 .553-.051.714-.186a.76.76 0 0 0-.135-1.245c-.116-.064-.642-.07-7.665-.089l-7.54-.02-.203-.107a1.5 1.5 0 0 1-.551-.541c-.139-.269-.146-.534-.146-5.273 0-4.533-.003-4.696-.079-4.995-.124-.486-.328-.834-.72-1.225-.508-.509-1.033-.756-1.721-.812a2 2 0 0 0-.3-.007m9.817.019c-.608.079-1.162.537-1.383 1.144-.081.225-.094.333-.094.799v.538H9.51c-1.355.001-1.49.017-1.866.222-.243.132-.56.456-.683.696-.204.4-.2.332-.201 3.59v3.048l.094.261c.22.605.744 1.041 1.373 1.144.14.023 2.367.038 5.553.038 5.709 0 5.625.002 6.025-.202.223-.113.639-.529.752-.752.194-.38.202-.51.202-3.525 0-1.623-.016-2.92-.038-3.055a1.77 1.77 0 0 0-1.266-1.405c-.177-.046-.468-.06-1.223-.06h-.992v-.538c0-.466-.013-.574-.094-.799a1.75 1.75 0 0 0-1.419-1.146c-.317-.041-3.169-.039-3.49.002m3.425 1.538c.069.05.078.107.078.49v.433h-3.48v-.433c0-.383.009-.44.078-.49.115-.084 3.209-.084 3.324 0M9.029 17.874c.382.196.615.5.687.896.045.253.001.602-.102.802a1.5 1.5 0 0 1-.551.541c-.176.092-.25.106-.563.106s-.387-.014-.563-.106a1.5 1.5 0 0 1-.551-.541c-.155-.299-.155-.843-.002-1.141.137-.264.417-.501.731-.618.215-.08.703-.048.914.061m9.499-.001c.239.117.481.359.599.599.133.27.133.787 0 1.057-.464.943-1.795.943-2.252 0a1.43 1.43 0 0 1-.074-.871c.097-.348.43-.703.785-.838.232-.088.708-.061.942.053" fill-rule="evenodd"/></svg>