<svg xmlns="http://www.w3.org/2000/svg" viewBox="0 0 24 24"><path d="M6.259 3.291c-.066.027-1.038.511-2.16 1.075-1.252.63-2.08 1.07-2.146 1.14a.67.67 0 0 0-.193.477c0 .076.237 1.085.526 2.243.483 1.931.537 2.118.65 2.246.242.276.302.286 1.634.287l1.19.001v8.556l.094.261c.22.605.744 1.041 1.373 1.144.311.051 9.235.051 9.546 0a1.77 1.77 0 0 0 1.373-1.144l.094-.261V10.76l1.19-.001c1.332-.001 1.392-.011 1.634-.287.113-.128.167-.315.65-2.246.289-1.158.526-2.169.526-2.247a.7.7 0 0 0-.225-.504c-.063-.058-1.06-.58-2.215-1.16L17.7 3.26H16c-1.509 0-1.713.007-1.82.066-.231.128-.331.28-.477.728-.465 1.42-1.361 2.012-2.333 1.541-.422-.204-.825-.783-1.073-1.541-.146-.448-.246-.6-.477-.728-.106-.058-.319-.067-1.78-.075-1.231-.006-1.691.004-1.781.04M9.02 4.95c.169.453.555 1.061.893 1.407A2.9 2.9 0 0 0 12 7.24a2.9 2.9 0 0 0 2.087-.883c.338-.346.724-.954.893-1.407l.071-.19h1.709v7.123c0 7.2-.001 7.236-.136 7.326-.024.017-2.106.03-4.626.03-3.895.001-4.594-.008-4.66-.056-.077-.056-.078-.182-.088-7.24L7.239 4.76h1.71zM5.76 7.24v2H4.082l-.028-.11-.355-1.41-.327-1.3 1.164-.588a41 41 0 0 1 1.194-.59c.017-.001.03.898.03 1.998m13.693-1.414 1.174.587-.315 1.263-.355 1.414-.04.15H18.24v-2c0-1.1.009-2 .02-2s.548.264 1.193.586" fill-rule="evenodd"/></svg>