<svg xmlns="http://www.w3.org/2000/svg" viewBox="0 0 24 24"><path d="M6.259 3.291c-.066.027-1.038.511-2.16 1.075-1.252.63-2.08 1.07-2.146 1.14a.67.67 0 0 0-.193.477c0 .076.237 1.085.526 2.243.483 1.931.537 2.118.65 2.246.242.276.302.286 1.634.287l1.19.001v8.556l.094.261c.22.605.744 1.041 1.373 1.144.311.051 9.235.051 9.546 0a1.77 1.77 0 0 0 1.373-1.144l.094-.261V10.76l1.19-.001c1.332-.001 1.392-.011 1.634-.287.113-.128.167-.315.65-2.246.289-1.158.526-2.169.526-2.247a.7.7 0 0 0-.225-.504c-.063-.058-1.06-.58-2.215-1.16L17.7 3.26H16c-1.509 0-1.713.007-1.82.066-.231.128-.331.28-.477.728-.465 1.42-1.361 2.012-2.333 1.541-.422-.204-.825-.783-1.073-1.541-.146-.448-.246-.6-.477-.728-.106-.058-.319-.067-1.78-.075-1.231-.006-1.691.004-1.781.04"/></svg>