<svg xmlns="http://www.w3.org/2000/svg" viewBox="0 0 24 24"><path d="M7.9 3.259a1 1 0 0 1-.147.037c-.236.052-.51.407-.512.664-.002.326.025.359 1.509 1.847l1.423 1.428-2.296.016c-2.546.017-2.529.016-3.081.288A2.8 2.8 0 0 0 3.333 9.32c-.069.244-.073.531-.073 4.68s.004 4.436.073 4.68a2.82 2.82 0 0 0 1.987 1.987c.246.069.598.073 6.68.073 6.101 0 6.433-.004 6.68-.073a2.83 2.83 0 0 0 1.987-1.987c.069-.245.073-.517.073-4.68s-.004-4.435-.073-4.68a2.8 2.8 0 0 0-1.465-1.782c-.55-.271-.534-.27-3.079-.287l-2.296-.016 1.423-1.428c1.199-1.202 1.43-1.452 1.466-1.587.054-.198.054-.242.002-.429a.8.8 0 0 0-.369-.457c-.134-.069-.425-.089-.609-.04-.085.022-.653.564-1.93 1.838L12 6.939l-1.79-1.785c-.985-.982-1.826-1.803-1.87-1.825-.092-.045-.38-.091-.44-.07m9.505 7.122a.69.69 0 0 1 .328.615q0 .51-.462.702a.746.746 0 0 1-.941-.358c-.096-.182-.082-.538.026-.714a.743.743 0 0 1 1.049-.245m0 3a.69.69 0 0 1 .328.615q0 .51-.462.702a.746.746 0 0 1-.941-.358c-.096-.182-.082-.538.026-.714a.743.743 0 0 1 1.049-.245" fill-rule="evenodd"/></svg>