<svg xmlns="http://www.w3.org/2000/svg" viewBox="0 0 24 24"><path d="M7.9 3.259a1 1 0 0 1-.147.037c-.236.052-.51.407-.512.664-.002.326.025.359 1.512 1.85l1.426 1.43h-2.08c-1.143.001-2.236.019-2.428.041-.645.074-1.134.312-1.606.783a2.74 2.74 0 0 0-.696 1.116l-.109.32v9l.109.32c.151.445.362.783.695 1.116s.671.544 1.116.695l.32.109h13l.32-.109a2.74 2.74 0 0 0 1.116-.695c.333-.333.544-.671.695-1.116l.109-.32v-9l-.109-.32a2.74 2.74 0 0 0-.696-1.116c-.472-.471-.961-.709-1.606-.783-.192-.022-1.285-.04-2.428-.041h-2.08l1.426-1.43c1.202-1.205 1.433-1.455 1.469-1.59.054-.198.054-.242.002-.429a.8.8 0 0 0-.369-.457c-.134-.069-.425-.089-.609-.04-.085.022-.653.564-1.93 1.838L12 6.939l-1.79-1.785c-.985-.982-1.826-1.803-1.87-1.825-.092-.045-.38-.091-.44-.07m10.628 5.614c.239.118.481.36.599.599l.093.188v8.68l-.093.189c-.132.268-.416.534-.674.63-.213.08-.297.081-6.453.081s-6.24-.001-6.453-.081c-.258-.096-.542-.362-.674-.63l-.093-.189-.011-4.26c-.009-3.158 0-4.304.035-4.43.093-.34.433-.7.782-.828.131-.048 1.114-.056 6.454-.049l6.3.007zm-1.723 1.406c-.415.101-.661.578-.507.982a.748.748 0 0 0 1.386.042.73.73 0 0 0-.11-.783.78.78 0 0 0-.769-.241m0 3c-.415.101-.661.578-.507.982a.748.748 0 0 0 1.386.042.73.73 0 0 0-.11-.783.78.78 0 0 0-.769-.241" fill-rule="evenodd"/></svg>