<svg xmlns="http://www.w3.org/2000/svg" viewBox="0 0 24 24"><path d="M5.701 2.285a2 2 0 0 0-.46.144c-.265.132-.676.526-.798.766a2.5 2.5 0 0 0-.202.868l-.001.162-.385.045c-.274.032-.45.078-.61.157-.269.134-.679.527-.802.768-.207.405-.202.214-.202 7.31-.001 4.328.013 6.678.04 6.819a1.76 1.76 0 0 0 1.424 1.397c.312.051 6.278.051 6.59 0a1.75 1.75 0 0 0 1.426-1.426c.024-.144.038-2.779.038-6.815 0-7.07.005-6.881-.202-7.285-.123-.241-.533-.634-.802-.768-.16-.079-.336-.125-.61-.157l-.385-.045-.001-.162a2.5 2.5 0 0 0-.202-.868c-.122-.24-.533-.634-.797-.765a2 2 0 0 0-.5-.148c-.337-.049-2.223-.046-2.559.003m10 0a2 2 0 0 0-.46.144c-.265.132-.676.526-.798.766a2.5 2.5 0 0 0-.202.868l-.001.162-.385.045c-.274.032-.45.078-.61.157-.269.134-.679.527-.802.768-.207.405-.202.214-.202 7.31-.001 4.328.013 6.678.04 6.819a1.76 1.76 0 0 0 1.424 1.397c.312.051 6.278.051 6.59 0a1.75 1.75 0 0 0 1.426-1.426c.024-.144.038-2.779.038-6.815 0-7.07.005-6.881-.202-7.285-.123-.241-.533-.634-.802-.768-.16-.079-.336-.125-.61-.157l-.385-.045-.001-.162a2.5 2.5 0 0 0-.202-.868c-.122-.24-.533-.634-.797-.765a2 2 0 0 0-.5-.148c-.337-.049-2.223-.046-2.559.003M8.167 3.826c.066.06.073.144.073.914 0 .811-.004.851-.084.924-.079.071-.158.076-1.156.076s-1.077-.005-1.156-.076c-.08-.073-.084-.113-.084-.917 0-.726.009-.851.066-.914.061-.067.152-.073 1.167-.073.968 0 1.11.008 1.174.066m10 0c.066.06.073.144.073.914 0 .811-.004.851-.084.924-.079.071-.158.076-1.156.076s-1.077-.005-1.156-.076c-.08-.073-.084-.113-.084-.917 0-.726.009-.851.066-.914.061-.067.152-.073 1.167-.073.968 0 1.11.008 1.174.066M4.293 5.907c.07.427.511.965.973 1.183l.274.13h2.92l.274-.13c.462-.218.903-.756.973-1.183.023-.144.027-.147.205-.147.348 0 .328-.12.328 1.989 0 1.749-.004 1.855-.07 1.837a403 403 0 0 0-3.24-.611l-3.17-.592V7.145c0-1.42-.008-1.385.321-1.385.186 0 .189.002.212.147m10 0c.07.427.511.965.973 1.183l.274.13h2.92l.274-.13c.462-.218.903-.756.973-1.183.023-.144.027-.147.205-.147.348 0 .328-.12.328 1.989 0 1.749-.004 1.855-.07 1.837a403 403 0 0 0-3.24-.611l-3.17-.592V7.145c0-1.42-.008-1.385.321-1.385.186 0 .189.002.212.147M7.9 10.683c.858.159 1.573.3 1.588.313.048.042-.969.964-1.063.963-.047 0-.544-.335-1.105-.744-1.334-.972-1.201-.868-1.08-.842.055.011.802.151 1.66.31m10 0c.858.159 1.573.3 1.588.313.048.042-.969.964-1.063.963-.047 0-.544-.335-1.105-.744-1.334-.972-1.201-.868-1.08-.842.055.011.802.151 1.66.31m-11.88 1.44c.77.559 1.448 1.048 1.506 1.085.207.134.582.232.885.232.56 0 .891-.161 1.479-.718l.35-.331v3.345c0 3.291-.001 3.345-.08 3.424s-.133.08-3.16.08-3.081-.001-3.16-.08-.08-.133-.08-4.381v-4.3l.43.313c.236.173 1.06.771 1.83 1.331m10 0c.77.559 1.448 1.048 1.506 1.085.207.134.582.232.885.232.56 0 .891-.161 1.479-.718l.35-.331v3.345c0 3.291-.001 3.345-.08 3.424s-.133.08-3.16.08-3.081-.001-3.16-.08-.08-.133-.08-4.381v-4.3l.43.313z" fill-rule="evenodd"/></svg>