<svg xmlns="http://www.w3.org/2000/svg" viewBox="0 0 24 24"><path d="M11.28 2.279A9.75 9.75 0 0 0 3.258 7.7a9.8 9.8 0 0 0-1.001 3.84c-.018.329-.011.536.022.659.061.223.288.457.502.516.111.031 1.405.045 4.309.045h4.15l.001 3.21c0 3.474.002 3.508.218 3.98.188.41.642.877 1.041 1.071.779.377 1.771.266 2.403-.269.437-.371.688-.779.798-1.299.068-.321.08-1.437.017-1.662-.09-.324-.364-.524-.718-.524-.253 0-.425.076-.574.253-.154.183-.186.359-.186 1.027 0 .334-.019.658-.043.72-.093.249-.438.491-.697.491s-.604-.242-.697-.491c-.029-.076-.043-1.148-.043-3.31V12.76h4.15c2.904 0 4.198-.014 4.309-.045.214-.059.441-.293.502-.516.033-.123.04-.33.022-.659a9.8 9.8 0 0 0-1.001-3.84 9.72 9.72 0 0 0-7.33-5.337 11 11 0 0 0-2.132-.084M9.592 4.33c-.459.945-.886 2.518-1.11 4.09-.094.665-.201 1.847-.202 2.24a4 4 0 0 1-.026.43l-.024.15H3.8v-.09c0-.181.125-.861.237-1.29.593-2.274 2.251-4.269 4.403-5.296.402-.192 1.129-.478 1.227-.482.026-.001-.005.104-.075.248m5.156-.108c2.858 1.033 4.914 3.498 5.391 6.458.033.209.061.421.061.47v.09h-4.43l-.024-.15a4 4 0 0 1-.026-.43c-.001-.393-.108-1.575-.202-2.24-.214-1.498-.623-3.036-1.055-3.961-.098-.209-.162-.379-.142-.379.019 0 .211.064.427.142" fill-rule="evenodd"/></svg>