<svg xmlns="http://www.w3.org/2000/svg" viewBox="0 0 24 24"><path d="M11.435 2.403c-1.517.159-2.841 1.254-3.255 2.69-.037.128-.702 3.134-1.478 6.68l-1.41 6.447-.756.021c-.828.023-.913.045-1.11.279-.344.409-.146 1.056.365 1.198.095.027 1 .041 2.489.041 2.193-.001 2.35-.005 2.5-.075.486-.225.619-.807.267-1.178-.224-.236-.265-.245-1.281-.259l-.935-.014.022-.106c.239-1.191 2.769-12.624 2.829-12.783.198-.53.597-.958 1.138-1.221.433-.21.67-.259 1.136-.232.62.035 1.122.255 1.524.669q.381.393.567.903c.068.186.087.331.09.677.002.38-.055.781-.412 2.925l-.415 2.485-.411.205a4.76 4.76 0 0 0-2.48 3.015c-.141.53-.192 1.115-.17 1.98.017.67.031.784.124 1.07.144.439.355.78.691 1.116.334.334.673.545 1.116.694l.32.107 1.689.014 1.689.014.24.23c.303.289.653.498 1.062.633.277.091.387.105.82.105s.543-.014.82-.105c.44-.146.781-.357 1.116-.692.333-.333.544-.672.695-1.116l.109-.32v-5l-.109-.32a2.74 2.74 0 0 0-.696-1.116c-.472-.471-.961-.709-1.606-.783-.192-.022-1.047-.04-1.9-.041h-1.551l.022-.09c.05-.217.736-4.478.761-4.73.086-.873-.275-1.939-.914-2.701-.798-.952-2.048-1.448-3.312-1.316m7.085 10.47c.24.125.487.37.604.6.092.179.097.228.109 1.11l.012.924-.352-.122c-.325-.113-.395-.122-.893-.123-.501 0-.565.009-.885.122-1.081.385-1.803 1.338-1.865 2.466l-.022.39h-1.227c-1.022 0-1.258-.011-1.415-.064-.24-.082-.577-.388-.707-.641-.097-.191-.099-.213-.099-1.135 0-1.009.019-1.154.222-1.645.385-.933 1.312-1.722 2.245-1.911l.293-.06c.044-.009.917-.013 1.94-.01l1.86.006zm.012 4.003c.235.114.478.357.595.596.133.27.133.787 0 1.057-.467.948-1.805.945-2.24-.005-.318-.696.015-1.454.753-1.712.214-.074.675-.041.892.064"/></svg>