<svg fill="none" xmlns="http://www.w3.org/2000/svg" viewBox="0 0 24 24"><path d="M11.435 2.403 C 9.918 2.562,8.594 3.657,8.180 5.093 C 8.143 5.221,7.478 8.227,6.702 11.773 L 5.292 18.220 4.536 18.241 C 3.708 18.264,3.623 18.286,3.426 18.520 C 3.082 18.929,3.280 19.576,3.791 19.718 C 3.886 19.745,4.791 19.759,6.280 19.759 C 8.473 19.758,8.630 19.754,8.780 19.684 C 9.266 19.459,9.399 18.877,9.047 18.506 C 8.823 18.270,8.782 18.261,7.766 18.247 L 6.831 18.233 6.853 18.127 C 7.092 16.936,9.622 5.503,9.682 5.344 C 9.880 4.814,10.279 4.386,10.820 4.123 C 11.253 3.913,11.490 3.864,11.956 3.891 C 12.576 3.926,13.078 4.146,13.480 4.560 C 13.733 4.821,13.924 5.124,14.047 5.463 C 14.115 5.649,14.134 5.794,14.137 6.140 C 14.139 6.520,14.082 6.921,13.725 9.065 L 13.310 11.550 12.899 11.755 C 11.676 12.363,10.768 13.466,10.419 14.770 C 10.278 15.300,10.227 15.885,10.249 16.750 C 10.266 17.420,10.280 17.534,10.373 17.820 C 10.517 18.259,10.728 18.600,11.064 18.936 C 11.398 19.270,11.737 19.481,12.180 19.630 L 12.500 19.737 14.189 19.751 L 15.878 19.765 16.118 19.995 C 16.421 20.284,16.771 20.493,17.180 20.628 C 17.457 20.719,17.567 20.733,18.000 20.733 C 18.433 20.733,18.543 20.719,18.820 20.628 C 19.260 20.482,19.601 20.271,19.936 19.936 C 20.269 19.603,20.480 19.264,20.631 18.820 L 20.740 18.500 20.740 16.000 L 20.740 13.500 20.631 13.180 C 20.479 12.735,20.268 12.396,19.935 12.064 C 19.463 11.593,18.974 11.355,18.329 11.281 C 18.137 11.259,17.282 11.241,16.429 11.240 L 14.878 11.240 14.900 11.150 C 14.950 10.933,15.636 6.672,15.661 6.420 C 15.747 5.547,15.386 4.481,14.747 3.719 C 13.949 2.767,12.699 2.271,11.435 2.403 M18.532 16.876 C 18.767 16.990,19.010 17.233,19.127 17.472 C 19.260 17.742,19.260 18.259,19.127 18.529 C 18.660 19.477,17.322 19.474,16.887 18.524 C 16.569 17.828,16.902 17.070,17.640 16.812 C 17.854 16.738,18.315 16.771,18.532 16.876 " stroke="none" fill-rule="evenodd"/></svg>