<svg xmlns="http://www.w3.org/2000/svg" viewBox="0 0 24 24"><path d="M4.701 4.285a2 2 0 0 0-.46.144c-.265.132-.676.526-.798.766-.204.399-.202.333-.202 5.805s-.002 5.406.202 5.805c.113.223.529.639.752.752.2.103.628.201.875.202l.17.001v.65c0 .358.019.717.042.799.108.39.52.618.92.51.22-.059.454-.287.513-.5.025-.087.045-.451.045-.809v-.65h10.48v.65c0 .358.02.722.045.809.059.213.293.441.513.5.4.108.812-.12.92-.51.023-.082.042-.441.042-.799v-.65l.17-.001c.247-.001.675-.099.875-.202.223-.113.639-.529.752-.752.204-.399.202-.333.202-5.805s.002-5.406-.202-5.805c-.122-.24-.533-.634-.797-.765a2 2 0 0 0-.5-.148c-.35-.05-14.214-.048-14.559.003m14.466 1.541c.069.063.073.185.073 2.24v2.174h-1.589l-.085-.233c-.181-.496-.668-1.076-1.142-1.362-.847-.51-1.997-.51-2.849 0-.304.182-.761.645-.946.959a3.6 3.6 0 0 0-.257.576c-.091.277-.105.387-.105.82s.014.543.105.82c.146.44.357.781.692 1.116s.676.546 1.116.692c.277.091.387.105.82.105s.543-.014.82-.105a3.5 3.5 0 0 0 .575-.257c.498-.296.985-.868 1.171-1.378l.085-.233h1.589v2.167c0 1.96-.006 2.174-.066 2.24-.064.07-.339.073-7.167.073-6.551 0-7.106-.005-7.174-.066-.07-.064-.073-.276-.073-5.167 0-4.69.005-5.107.066-5.174.064-.07.339-.073 7.167-.073 6.551 0 7.106.005 7.174.066m-3.639 4.047c.239.117.481.359.599.599.133.27.133.787 0 1.057-.464.943-1.795.943-2.252 0a1.43 1.43 0 0 1-.074-.871c.097-.348.43-.703.785-.838.232-.088.708-.061.942.053" fill-rule="evenodd"/></svg>