<svg xmlns="http://www.w3.org/2000/svg" viewBox="0 0 24 24"><path d="M4.687 4.285c-.461.076-.995.456-1.218.865-.235.433-.228.241-.228 5.85 0 5.531-.004 5.401.204 5.809.118.231.476.597.709.724.228.124.63.226.896.226l.19.001v.65c0 .358.019.717.042.799.108.39.52.618.92.51.22-.059.454-.287.513-.5.025-.087.045-.451.045-.809v-.65h10.48v.65c0 .358.02.722.045.809.059.213.293.441.513.5.4.108.812-.12.92-.51.023-.082.042-.441.042-.799v-.65l.19-.001c.246 0 .648-.096.859-.204.231-.118.597-.476.724-.709.217-.398.226-.514.226-2.896l.001-2.19h-2.367l-.024.09c-.065.25-.351.724-.595.988-.586.633-1.216.906-2.074.897-.358-.003-.5-.023-.76-.108a2.72 2.72 0 0 1-1.659-1.447 2.67 2.67 0 0 1 0-2.36c.477-.983 1.374-1.549 2.459-1.551.486-.001.801.073 1.26.297a2.86 2.86 0 0 1 1.369 1.584l.024.09h2.367l-.001-2.19c0-2.385-.009-2.497-.228-2.9-.137-.252-.507-.594-.783-.724a2 2 0 0 0-.471-.144C18.956 4.23 5 4.233 4.687 4.285m10.61 5.555a1.22 1.22 0 0 0-.661.622 1.23 1.23 0 0 0 .195 1.382c.3.341.873.488 1.323.338.258-.086.576-.369.718-.638.091-.175.107-.253.107-.544 0-.279-.017-.372-.094-.52a1.4 1.4 0 0 0-.585-.59 1.36 1.36 0 0 0-1.003-.05" fill-rule="evenodd"/></svg>