<svg fill="none" xmlns="http://www.w3.org/2000/svg" viewBox="0 0 24 24"><path d="M4.701 4.285 C 4.570 4.304,4.363 4.369,4.241 4.429 C 3.976 4.561,3.565 4.955,3.443 5.195 C 3.239 5.594,3.241 5.528,3.241 11.000 C 3.241 16.472,3.239 16.406,3.443 16.805 C 3.556 17.028,3.972 17.444,4.195 17.557 C 4.395 17.660,4.823 17.758,5.070 17.759 L 5.240 17.760 5.240 18.410 C 5.240 18.768,5.259 19.127,5.282 19.209 C 5.390 19.599,5.802 19.827,6.202 19.719 C 6.422 19.660,6.656 19.432,6.715 19.219 C 6.740 19.132,6.760 18.768,6.760 18.410 L 6.760 17.760 12.000 17.760 L 17.240 17.760 17.240 18.410 C 17.240 18.768,17.260 19.132,17.285 19.219 C 17.344 19.432,17.578 19.660,17.798 19.719 C 18.198 19.827,18.610 19.599,18.718 19.209 C 18.741 19.127,18.760 18.768,18.760 18.410 L 18.760 17.760 18.930 17.759 C 19.177 17.758,19.605 17.660,19.805 17.557 C 20.028 17.444,20.444 17.028,20.557 16.805 C 20.761 16.406,20.759 16.472,20.759 11.000 C 20.759 5.528,20.761 5.594,20.557 5.195 C 20.435 4.955,20.024 4.561,19.760 4.430 C 19.639 4.371,19.414 4.304,19.260 4.282 C 18.910 4.232,5.046 4.234,4.701 4.285 M15.627 8.324 C 16.459 8.500,17.274 9.207,17.566 10.007 L 17.651 10.240 18.825 10.240 L 20.000 10.240 20.000 11.000 L 20.000 11.760 18.825 11.760 L 17.651 11.760 17.566 11.993 C 17.380 12.503,16.893 13.075,16.395 13.371 C 16.255 13.454,15.996 13.570,15.820 13.628 C 15.543 13.719,15.433 13.733,15.000 13.733 C 14.567 13.733,14.457 13.719,14.180 13.628 C 13.740 13.482,13.399 13.271,13.064 12.936 C 12.729 12.601,12.518 12.260,12.372 11.820 C 12.281 11.543,12.267 11.433,12.267 11.000 C 12.267 10.567,12.281 10.457,12.372 10.180 C 12.518 9.739,12.729 9.399,13.065 9.064 C 13.386 8.744,13.677 8.555,14.067 8.413 C 14.508 8.253,15.126 8.218,15.627 8.324 M14.586 9.820 C 14.363 9.905,14.126 10.091,13.979 10.298 C 13.408 11.102,14.006 12.240,15.000 12.240 C 15.474 12.240,15.913 11.963,16.127 11.529 C 16.260 11.259,16.260 10.742,16.127 10.472 C 16.009 10.232,15.767 9.990,15.528 9.873 C 15.294 9.759,14.818 9.732,14.586 9.820 " stroke="none" fill-rule="evenodd"/></svg>