<svg fill="none" xmlns="http://www.w3.org/2000/svg" viewBox="0 0 24 24"><path d="M4.701 4.285 C 4.570 4.304,4.363 4.369,4.241 4.429 C 3.976 4.561,3.565 4.955,3.443 5.195 C 3.239 5.594,3.241 5.528,3.241 11.000 C 3.241 16.472,3.239 16.406,3.443 16.805 C 3.556 17.028,3.972 17.444,4.195 17.557 C 4.395 17.660,4.823 17.758,5.070 17.759 L 5.240 17.760 5.240 18.410 C 5.240 18.768,5.259 19.127,5.282 19.209 C 5.390 19.599,5.802 19.827,6.202 19.719 C 6.422 19.660,6.656 19.432,6.715 19.219 C 6.740 19.132,6.760 18.768,6.760 18.410 L 6.760 17.760 12.000 17.760 L 17.240 17.760 17.240 18.410 C 17.240 18.768,17.260 19.132,17.285 19.219 C 17.344 19.432,17.578 19.660,17.798 19.719 C 18.198 19.827,18.610 19.599,18.718 19.209 C 18.741 19.127,18.760 18.768,18.760 18.410 L 18.760 17.760 18.930 17.759 C 19.177 17.758,19.605 17.660,19.805 17.557 C 20.028 17.444,20.444 17.028,20.557 16.805 C 20.761 16.406,20.759 16.472,20.759 11.000 C 20.759 5.528,20.761 5.594,20.557 5.195 C 20.435 4.955,20.024 4.561,19.760 4.430 C 19.639 4.371,19.414 4.304,19.260 4.282 C 18.910 4.232,5.046 4.234,4.701 4.285 M19.167 5.826 C 19.236 5.889,19.240 6.011,19.240 8.066 L 19.240 10.240 18.440 10.240 C 17.785 10.240,17.640 10.230,17.640 10.185 C 17.640 10.081,17.323 9.501,17.141 9.270 C 16.901 8.966,16.572 8.710,16.180 8.522 C 15.753 8.317,15.502 8.261,15.000 8.261 C 14.769 8.261,14.481 8.285,14.360 8.315 C 14.049 8.390,13.540 8.644,13.270 8.858 C 12.650 9.351,12.240 10.203,12.240 11.000 C 12.240 11.580,12.484 12.265,12.857 12.730 C 13.354 13.350,14.207 13.760,15.000 13.760 C 15.794 13.760,16.653 13.347,17.141 12.730 C 17.323 12.499,17.640 11.919,17.640 11.815 C 17.640 11.770,17.785 11.760,18.440 11.760 L 19.240 11.760 19.240 13.927 C 19.240 15.887,19.234 16.101,19.174 16.167 C 19.110 16.237,18.835 16.240,12.007 16.240 C 5.456 16.240,4.901 16.235,4.833 16.174 C 4.763 16.110,4.760 15.898,4.760 11.007 C 4.760 6.317,4.765 5.900,4.826 5.833 C 4.890 5.763,5.165 5.760,11.993 5.760 C 18.544 5.760,19.099 5.765,19.167 5.826 M15.528 9.873 C 15.767 9.990,16.009 10.232,16.127 10.472 C 16.260 10.742,16.260 11.259,16.127 11.529 C 15.663 12.472,14.332 12.472,13.875 11.529 C 13.764 11.300,13.730 10.909,13.801 10.658 C 13.898 10.310,14.231 9.955,14.586 9.820 C 14.818 9.732,15.294 9.759,15.528 9.873 " stroke="none" fill-rule="evenodd"/></svg>