<svg xmlns="http://www.w3.org/2000/svg" viewBox="0 0 24 24"><path d="M5.656 2.282a2.75 2.75 0 0 0-2.112 1.495c-.309.63-.284-.08-.284 8.223 0 7.048.004 7.433.073 7.68a2.82 2.82 0 0 0 1.987 1.987c.246.069.598.073 6.68.073 6.101 0 6.433-.004 6.68-.073a2.83 2.83 0 0 0 1.987-1.987c.07-.248.073-.61.073-7.68s-.003-7.432-.073-7.68a2.8 2.8 0 0 0-1.465-1.782c-.598-.295-.071-.274-7.042-.282-3.443-.004-6.37.008-6.504.026M12.64 4.87c.454.184.811.555 1.009 1.046.09.223.09.24.103 2.639.013 2.586.001 2.816-.177 3.192-.131.277-.473.646-.725.784-.402.218-.519.228-2.85.228s-2.448-.01-2.85-.228c-.252-.137-.594-.507-.724-.783a2 2 0 0 1-.144-.471c-.052-.321-.055-4.674-.004-5.029a1.75 1.75 0 0 1 1.243-1.425c.184-.05.592-.058 2.559-.051 2.321.008 2.342.009 2.56.098m4.748.497a.7.7 0 0 1 .345.64c0 .196-.019.264-.117.402-.216.308-.295.331-1.116.331s-.9-.023-1.116-.331c-.286-.406-.056-1.009.431-1.133.069-.017.414-.028.768-.024.624.008.648.011.805.115m-9.539.935-.089.063v2.371c0 2.247.004 2.375.073 2.438.066.06.275.066 2.174.066 1.984 0 2.104-.004 2.167-.073.06-.066.066-.294.066-2.438V6.365l-.089-.063c-.078-.054-.349-.062-2.151-.062s-2.073.008-2.151.062m9.539 1.065a.7.7 0 0 1 .345.64c0 .196-.019.264-.117.402-.216.308-.295.331-1.116.331s-.9-.023-1.116-.331c-.286-.406-.056-1.009.431-1.133.069-.017.414-.028.768-.024.624.008.648.011.805.115m0 2a.7.7 0 0 1 .345.64c0 .196-.019.264-.117.402-.216.308-.295.331-1.116.331s-.9-.023-1.116-.331c-.286-.406-.056-1.009.431-1.133.069-.017.414-.028.768-.024.624.008.648.011.805.115M12.64 13.87c.455.185.816.56 1.007 1.046.081.208.089.306.104 1.364.009.648-.001 1.265-.024 1.429-.098.706-.548 1.249-1.201 1.452-.241.075-.376.079-2.526.079s-2.285-.004-2.526-.079a1.73 1.73 0 0 1-1.196-1.411c-.047-.325-.047-2.176 0-2.502a1.75 1.75 0 0 1 1.243-1.425c.184-.05.592-.058 2.559-.051 2.321.008 2.342.009 2.56.098m-4.791 1.432c-.088.062-.089.07-.089 1.198s.001 1.136.089 1.198c.078.054.349.062 2.151.062s2.073-.008 2.151-.062c.088-.062.089-.07.089-1.198s-.001-1.136-.089-1.198c-.078-.054-.349-.062-2.151-.062s-2.073.008-2.151.062"/></svg>