<svg xmlns="http://www.w3.org/2000/svg" viewBox="0 0 24 24"><path d="M5.617 2.283q-.873.101-1.552.781a2.74 2.74 0 0 0-.696 1.116l-.109.32v15l.109.32c.151.445.362.783.695 1.116s.671.544 1.116.695l.32.109h13l.32-.109a2.74 2.74 0 0 0 1.116-.695c.333-.333.544-.671.695-1.116l.109-.32v-15l-.109-.32a2.74 2.74 0 0 0-.696-1.116c-.472-.471-.961-.709-1.606-.783-.425-.049-12.293-.046-12.712.002m6.838 2.537a1.77 1.77 0 0 1 1.266 1.405c.022.132.038 1.253.038 2.555 0 2.478-.012 2.654-.202 3.025-.113.223-.529.639-.752.752-.367.188-.562.202-2.805.202s-2.438-.014-2.805-.202c-.223-.113-.639-.529-.752-.752-.19-.371-.202-.547-.202-3.025 0-1.302.016-2.423.038-2.555.108-.657.621-1.234 1.248-1.403.324-.087 4.595-.088 4.928-.002m4.722.458a.739.739 0 0 1 .348 1.246c-.197.197-.364.236-1.025.236s-.828-.039-1.025-.236c-.405-.405-.217-1.115.33-1.244.189-.044 1.182-.046 1.372-.002m-9.257.989c-.16.059-.16.064-.16 2.494 0 2.223.004 2.35.073 2.413.066.06.275.066 2.174.066 1.984 0 2.104-.004 2.167-.073.06-.066.066-.292.066-2.413 0-1.956-.009-2.351-.057-2.416-.055-.075-.128-.078-2.13-.085-1.14-.004-2.1.002-2.133.014m9.257 1.011a.739.739 0 0 1 .348 1.246c-.197.197-.364.236-1.025.236s-.828-.039-1.025-.236c-.405-.405-.217-1.115.33-1.244.189-.044 1.182-.046 1.372-.002m0 2a.739.739 0 0 1 .348 1.246c-.197.197-.364.236-1.025.236s-.828-.039-1.025-.236c-.405-.405-.217-1.115.33-1.244.189-.044 1.182-.046 1.372-.002m-4.722 4.542a1.77 1.77 0 0 1 1.266 1.405c.05.304.05 2.244 0 2.548a1.77 1.77 0 0 1-1.144 1.373l-.261.094H7.684l-.261-.094a1.77 1.77 0 0 1-1.144-1.373c-.05-.304-.05-2.244 0-2.548.108-.657.621-1.234 1.248-1.403.324-.087 4.595-.088 4.928-.002M7.92 15.267c-.152.056-.16.121-.16 1.241 0 1.039.004 1.096.08 1.172.078.078.133.08 2.16.08s2.082-.002 2.16-.08c.076-.076.08-.133.08-1.172 0-.88-.011-1.108-.057-1.17-.055-.075-.128-.078-2.13-.085-1.14-.004-2.1.002-2.133.014" fill-rule="evenodd"/></svg>