<svg xmlns="http://www.w3.org/2000/svg" viewBox="0 0 24 24"><path d="M5.617 2.283q-.873.101-1.552.781a2.74 2.74 0 0 0-.696 1.116l-.109.32v15l.109.32c.151.445.362.783.695 1.116s.671.544 1.116.695l.32.109h13l.32-.109a2.74 2.74 0 0 0 1.116-.695c.333-.333.544-.671.695-1.116l.109-.32v-15l-.109-.32a2.74 2.74 0 0 0-.696-1.116c-.472-.471-.961-.709-1.606-.783-.425-.049-12.293-.046-12.712.002m12.911 1.59c.239.118.481.36.599.599l.093.188v14.68l-.093.189c-.132.268-.416.534-.674.63-.213.08-.297.081-6.453.081s-6.24-.001-6.453-.081c-.258-.096-.542-.362-.674-.63l-.093-.189-.011-7.26c-.009-5.436 0-7.303.035-7.43.093-.34.433-.7.782-.828.131-.048 1.114-.056 6.454-.049l6.3.007zm-11.001.949c-.627.169-1.14.746-1.248 1.403-.022.132-.038 1.253-.038 2.555 0 2.478.012 2.654.202 3.025.113.223.529.639.752.752.367.188.562.202 2.805.202s2.438-.014 2.805-.202c.223-.113.639-.529.752-.752.19-.371.202-.547.202-3.025 0-1.302-.016-2.423-.038-2.555a1.77 1.77 0 0 0-1.266-1.405c-.333-.086-4.604-.085-4.928.002m8.278.458c-.547.129-.735.839-.33 1.244.197.197.364.236 1.025.236s.828-.039 1.025-.236a.739.739 0 0 0-.348-1.246c-.19-.044-1.183-.042-1.372.002m-3.622 1.058c.048.065.057.46.057 2.416 0 2.121-.006 2.347-.066 2.413-.063.069-.183.073-2.167.073-1.899 0-2.108-.006-2.174-.066-.069-.063-.073-.19-.073-2.413 0-2.43 0-2.435.16-2.494.033-.012.993-.018 2.133-.014 2.002.007 2.075.01 2.13.085m3.622.942c-.547.129-.735.839-.33 1.244.197.197.364.236 1.025.236s.828-.039 1.025-.236a.739.739 0 0 0-.348-1.246c-.19-.044-1.183-.042-1.372.002m0 2c-.547.129-.735.839-.33 1.244.197.197.364.236 1.025.236s.828-.039 1.025-.236a.739.739 0 0 0-.348-1.246c-.19-.044-1.183-.042-1.372.002m-8.278 4.542c-.627.169-1.14.746-1.248 1.403-.05.304-.05 2.244 0 2.548a1.77 1.77 0 0 0 1.144 1.373l.261.094h4.632l.261-.094a1.77 1.77 0 0 0 1.144-1.373c.05-.304.05-2.244 0-2.548a1.77 1.77 0 0 0-1.266-1.405c-.333-.086-4.604-.085-4.928.002m4.656 1.516c.046.062.057.29.057 1.17 0 1.039-.004 1.096-.08 1.172-.078.078-.133.08-2.16.08s-2.082-.002-2.16-.08c-.076-.076-.08-.133-.08-1.172 0-1.12.008-1.185.16-1.241.033-.012.993-.018 2.133-.014 2.002.007 2.075.01 2.13.085" fill-rule="evenodd"/></svg>