<svg fill="none" xmlns="http://www.w3.org/2000/svg" viewBox="0 0 24 24"><path d="M5.617 2.283 C 5.034 2.351,4.519 2.610,4.065 3.064 C 3.732 3.396,3.521 3.735,3.369 4.180 L 3.260 4.500 3.260 12.000 L 3.260 19.500 3.369 19.820 C 3.520 20.265,3.731 20.603,4.064 20.936 C 4.397 21.269,4.735 21.480,5.180 21.631 L 5.500 21.740 12.000 21.740 L 18.500 21.740 18.820 21.631 C 19.265 21.480,19.603 21.269,19.936 20.936 C 20.269 20.603,20.480 20.265,20.631 19.820 L 20.740 19.500 20.740 12.000 L 20.740 4.500 20.631 4.180 C 20.479 3.735,20.268 3.396,19.935 3.064 C 19.463 2.593,18.974 2.355,18.329 2.281 C 17.904 2.232,6.036 2.235,5.617 2.283 M12.455 4.820 C 13.098 4.988,13.612 5.558,13.721 6.225 C 13.743 6.357,13.759 7.478,13.759 8.780 C 13.759 11.258,13.747 11.434,13.557 11.805 C 13.444 12.028,13.028 12.444,12.805 12.557 C 12.438 12.745,12.243 12.759,10.000 12.759 C 7.757 12.759,7.562 12.745,7.195 12.557 C 6.972 12.444,6.556 12.028,6.443 11.805 C 6.253 11.434,6.241 11.258,6.241 8.780 C 6.241 7.478,6.257 6.357,6.279 6.225 C 6.387 5.568,6.900 4.991,7.527 4.822 C 7.851 4.735,12.122 4.734,12.455 4.820 M17.177 5.278 C 17.742 5.409,17.938 6.111,17.525 6.524 C 17.328 6.721,17.161 6.760,16.500 6.760 C 15.839 6.760,15.672 6.721,15.475 6.524 C 15.070 6.119,15.258 5.409,15.805 5.280 C 15.994 5.236,16.987 5.234,17.177 5.278 M7.920 6.267 C 7.760 6.326,7.760 6.331,7.760 8.761 C 7.760 10.984,7.764 11.111,7.833 11.174 C 7.899 11.234,8.108 11.240,10.007 11.240 C 11.991 11.240,12.111 11.236,12.174 11.167 C 12.234 11.101,12.240 10.875,12.240 8.754 C 12.240 6.798,12.231 6.403,12.183 6.338 C 12.128 6.263,12.055 6.260,10.053 6.253 C 8.913 6.249,7.953 6.255,7.920 6.267 M17.177 7.278 C 17.742 7.409,17.938 8.111,17.525 8.524 C 17.328 8.721,17.161 8.760,16.500 8.760 C 15.839 8.760,15.672 8.721,15.475 8.524 C 15.070 8.119,15.258 7.409,15.805 7.280 C 15.994 7.236,16.987 7.234,17.177 7.278 M17.177 9.278 C 17.742 9.409,17.938 10.111,17.525 10.524 C 17.328 10.721,17.161 10.760,16.500 10.760 C 15.839 10.760,15.672 10.721,15.475 10.524 C 15.070 10.119,15.258 9.409,15.805 9.280 C 15.994 9.236,16.987 9.234,17.177 9.278 M12.455 13.820 C 13.098 13.988,13.612 14.558,13.721 15.225 C 13.771 15.529,13.771 17.469,13.721 17.773 C 13.618 18.402,13.182 18.926,12.577 19.146 L 12.316 19.240 10.000 19.240 L 7.684 19.240 7.423 19.146 C 6.818 18.926,6.382 18.402,6.279 17.773 C 6.229 17.469,6.229 15.529,6.279 15.225 C 6.387 14.568,6.900 13.991,7.527 13.822 C 7.851 13.735,12.122 13.734,12.455 13.820 M7.920 15.267 C 7.768 15.323,7.760 15.388,7.760 16.508 C 7.760 17.547,7.764 17.604,7.840 17.680 C 7.918 17.758,7.973 17.760,10.000 17.760 C 12.027 17.760,12.082 17.758,12.160 17.680 C 12.236 17.604,12.240 17.547,12.240 16.508 C 12.240 15.628,12.229 15.400,12.183 15.338 C 12.128 15.263,12.055 15.260,10.053 15.253 C 8.913 15.249,7.953 15.255,7.920 15.267 " stroke="none" fill-rule="evenodd" fill="currentColor"/></svg>