<svg xmlns="http://www.w3.org/2000/svg" viewBox="0 0 24 24"><path d="M4.617 4.283q-.873.101-1.552.781a2.74 2.74 0 0 0-.696 1.116l-.109.32v11l.109.32c.151.445.362.783.695 1.116s.671.544 1.116.695l.32.109h15l.32-.109a2.74 2.74 0 0 0 1.116-.695c.333-.333.544-.671.695-1.116l.109-.32v-11l-.109-.32a2.74 2.74 0 0 0-.696-1.116c-.472-.471-.961-.709-1.606-.783-.426-.049-14.293-.047-14.712.002m14.911 1.59c.425.209.68.599.706 1.077l.015.29H3.76v-.235c0-.406.184-.767.513-1.009.336-.247-.205-.231 7.767-.223l7.3.007zm.703 7.177-.011 4.29-.099.195c-.055.107-.194.28-.309.385-.382.349.328.32-7.812.32s-7.43.029-7.812-.32a1.7 1.7 0 0 1-.309-.385l-.099-.195-.011-4.29-.01-4.29h16.482zM7.712 10.766c-.649.065-1.141.303-1.636.793-.59.585-.815 1.119-.815 1.941s.225 1.356.815 1.941c.563.558 1.144.799 1.924.799s1.361-.241 1.924-.799c.384-.38.577-.69.722-1.161.078-.25.093-.384.09-.8-.003-.486-.053-.735-.235-1.17-.028-.066.059-.07 1.499-.07s1.527.004 1.499.07c-.182.435-.232.684-.235 1.17-.003.416.012.55.09.8.145.471.338.781.722 1.161.563.558 1.144.799 1.924.799s1.361-.241 1.924-.799c.59-.585.815-1.119.815-1.941 0-.821-.224-1.354-.816-1.943-.265-.264-.42-.38-.672-.507-.607-.304-.405-.292-5.091-.301-2.299-.005-4.3.003-4.448.017m.696 1.559c.316.079.698.486.796.849.064.237.025.652-.08.858a1.35 1.35 0 0 1-.597.596 1.24 1.24 0 0 1-1.422-.267c-.261-.29-.324-.457-.324-.861 0-.297.015-.39.09-.529.317-.595.848-.818 1.537-.646m8 0c.316.079.698.487.796.849.064.237.025.652-.08.858a1.35 1.35 0 0 1-.597.596 1.24 1.24 0 0 1-1.422-.267c-.261-.29-.324-.457-.324-.861 0-.297.015-.39.09-.529.317-.595.85-.819 1.537-.646"/></svg>