<svg xmlns="http://www.w3.org/2000/svg" viewBox="0 0 24 24"><path d="M4.617 4.283q-.873.101-1.552.781a2.74 2.74 0 0 0-.696 1.116l-.109.32v11l.109.32c.151.445.362.783.695 1.116s.671.544 1.116.695l.32.109h15l.32-.109a2.74 2.74 0 0 0 1.116-.695c.333-.333.544-.671.695-1.116l.109-.32v-11l-.109-.32a2.74 2.74 0 0 0-.696-1.116c-.472-.471-.961-.709-1.606-.783-.426-.049-14.293-.047-14.712.002m14.911 1.59c.425.209.68.599.706 1.077l.015.29H3.76v-.235c0-.406.184-.767.513-1.009.336-.247-.205-.231 7.767-.223l7.3.007zm-3.025 4.93c1.017.186 1.896 1.007 2.16 2.017.083.318.083 1.042 0 1.36-.229.874-.945 1.644-1.794 1.927-.294.098-.387.11-.869.11-.481 0-.576-.012-.865-.109-.614-.205-1.204-.689-1.513-1.242a2.8 2.8 0 0 1-.199-2.307c.053-.148.097-.28.097-.294s-.684-.025-1.52-.025-1.52.011-1.52.025.044.146.097.294a2.77 2.77 0 0 1-.563 2.801 2.94 2.94 0 0 1-1.145.747c-.294.098-.387.11-.869.11-.481 0-.576-.012-.865-.109-.855-.285-1.568-1.05-1.798-1.928-.083-.318-.083-1.042 0-1.36a2.82 2.82 0 0 1 2.079-2.001c.32-.069 8.712-.084 9.087-.016m-8.77 1.477a1.3 1.3 0 0 0-.846.657c-.092.176-.106.25-.106.563s.014.387.106.563c.228.432.626.673 1.113.673s.885-.241 1.113-.673c.092-.176.106-.25.106-.563s-.014-.387-.106-.563a1.4 1.4 0 0 0-.608-.578 1.5 1.5 0 0 0-.772-.079m8 0a1.3 1.3 0 0 0-.846.657c-.092.176-.106.25-.106.563s.014.387.106.563c.228.432.626.673 1.113.673s.885-.241 1.113-.673c.092-.176.106-.25.106-.563s-.014-.387-.106-.563a1.4 1.4 0 0 0-.608-.578 1.5 1.5 0 0 0-.772-.079" fill-rule="evenodd"/></svg>