<svg xmlns="http://www.w3.org/2000/svg" viewBox="0 0 24 24"><path d="M3.9 3.259a1 1 0 0 1-.147.037c-.236.052-.51.407-.512.664-.002.312.056.389 1.008 1.346l.921.926-.315.027c-.436.037-.747.118-1.075.28A2.83 2.83 0 0 0 2.369 8.18l-.109.32v7l.109.32c.151.445.362.783.695 1.116s.671.544 1.116.695l.32.109 6.1.011 6.1.011 1.46 1.456c1.294 1.29 1.48 1.461 1.635 1.502a.75.75 0 0 0 .925-.925c-.042-.16-.745-.875-8.153-8.288C8.108 7.045 4.415 3.371 4.36 3.342c-.105-.055-.392-.107-.46-.083m5.905 3.02c-.393.096-.633.52-.524.925.059.218.288.453.5.511.109.031 1.062.045 3.039.045 1.836 0 2.933.015 3.027.041.338.094.731.464.839.79.036.109.055.842.072 2.711l.022 2.562.15.304c.244.494.397.607 2.213 1.64.879.499 1.662.919 1.741.933.339.06.74-.191.831-.522.061-.218.063-8.214.002-8.432-.098-.352-.528-.601-.877-.507-.095.026-.716.357-1.381.738l-1.208.691-.067-.313c-.203-.945-.993-1.773-1.964-2.06-.219-.064-.505-.071-3.26-.08-1.661-.006-3.081.005-3.155.023M10.94 12l4.24 4.24H9.971c-5.124 0-5.211-.001-5.424-.081-.258-.096-.542-.362-.674-.63l-.093-.189-.012-3.26c-.008-2.399.001-3.305.036-3.43.093-.34.433-.7.782-.828.116-.042.397-.057 1.134-.059l.98-.003zm9.3 0c0 1.474-.009 2.68-.021 2.68-.064 0-1.814-1.026-1.889-1.107l-.09-.097v-3.03l.97-.559c.534-.308.984-.561 1-.563s.03 1.202.03 2.676" fill-rule="evenodd"/></svg>