<svg xmlns="http://www.w3.org/2000/svg" viewBox="0 0 24 24"><path d="M4.617 4.283q-.873.101-1.552.781a2.74 2.74 0 0 0-.696 1.116l-.109.32v11l.109.32c.151.445.362.783.695 1.116s.671.544 1.116.695l.32.109h15l.32-.109a2.74 2.74 0 0 0 1.116-.695c.333-.333.544-.671.695-1.116l.109-.32v-11l-.109-.32a2.74 2.74 0 0 0-.696-1.116c-.472-.471-.961-.709-1.606-.783-.426-.049-14.293-.047-14.712.002m14.911 1.59c.425.209.68.599.706 1.077l.015.29H3.76v-.235c0-.406.184-.767.513-1.009.336-.247-.205-.231 7.767-.223l7.3.007zm.703 7.177-.011 4.29-.093.189c-.132.268-.416.534-.674.63-.214.08-.294.081-7.453.081s-7.239-.001-7.453-.081c-.258-.096-.542-.362-.674-.63l-.093-.189-.011-4.29-.01-4.29h16.482zM7.36 10.822c-.769.164-1.597.865-1.898 1.606A3.5 3.5 0 0 0 5.24 13.5c0 .52.197 1.137.497 1.557.548.769 1.341 1.183 2.263 1.183s1.715-.414 2.263-1.183c.3-.42.497-1.037.497-1.557 0-.269-.097-.758-.203-1.027a2 2 0 0 1-.077-.214c0-.011.684-.019 1.52-.019s1.52.008 1.52.019-.035.106-.077.214a3.5 3.5 0 0 0-.203 1.027c0 .52.197 1.137.497 1.557.548.769 1.341 1.183 2.263 1.183s1.715-.414 2.263-1.183c.3-.42.497-1.037.497-1.557a3.5 3.5 0 0 0-.222-1.072c-.305-.751-1.133-1.445-1.918-1.608-.405-.085-8.864-.083-9.26.002m1.048 1.503c.316.079.698.486.796.849.064.237.025.652-.08.858a1.35 1.35 0 0 1-.597.596 1.24 1.24 0 0 1-1.422-.267c-.261-.29-.324-.457-.324-.861 0-.297.015-.39.09-.529.317-.595.848-.818 1.537-.646m8 0c.316.079.698.487.796.849.064.237.025.652-.08.858a1.35 1.35 0 0 1-.597.596 1.24 1.24 0 0 1-1.422-.267c-.261-.29-.324-.457-.324-.861 0-.297.015-.39.09-.529.317-.595.85-.819 1.537-.646" fill-rule="evenodd"/></svg>