<svg xmlns="http://www.w3.org/2000/svg" viewBox="0 0 24 24"><path d="M5.617 2.283q-.873.101-1.552.781a2.74 2.74 0 0 0-.696 1.116l-.109.32v15l.109.32c.151.445.362.783.695 1.116s.671.544 1.116.695l.32.109h13l.32-.109a2.74 2.74 0 0 0 1.116-.695c.333-.333.544-.671.695-1.116l.109-.32v-15l-.109-.32a2.74 2.74 0 0 0-.696-1.116c-.472-.471-.961-.709-1.606-.783-.425-.049-12.293-.046-12.712.002m12.911 1.59c.239.118.481.36.599.599l.093.188v14.68l-.093.189c-.132.268-.416.534-.674.63-.213.08-.297.081-6.453.081s-6.24-.001-6.453-.081c-.258-.096-.542-.362-.674-.63l-.093-.189-.01-6.29-.011-6.29H5.91c.716 0 1.21-.017 1.309-.045a.84.84 0 0 0 .306-.191.739.739 0 0 0-.348-1.246c-.086-.02-.666-.037-1.287-.037L4.76 5.24v-.235c0-.406.184-.767.513-1.009.335-.246-.112-.231 6.767-.223l6.3.007zM16.82 5.276c-.5.125-.73.71-.446 1.132a.75.75 0 0 0 1.311-.106.74.74 0 0 0-.137-.815.8.8 0 0 0-.728-.211m-5.46 3.023c-1.107.166-2.022.635-2.785 1.43-1.532 1.597-1.753 3.999-.541 5.871.286.441.925 1.08 1.366 1.366a4.73 4.73 0 0 0 5.2 0c.441-.286 1.08-.925 1.366-1.366 1.211-1.871.99-4.275-.541-5.871a4.63 4.63 0 0 0-3.029-1.448c-.543-.048-.597-.047-1.036.018m1.554 1.58c.832.236 1.612.896 2.021 1.709.212.422.283.778.283 1.412 0 .645-.071.991-.298 1.439-.142.282-.2.33-.2.165 0-.192-.185-.722-.349-1a3.3 3.3 0 0 0-.436-.54c-.512-.511-.964-.715-1.771-.799-.317-.033-.572-.083-.685-.133-.226-.101-.487-.361-.605-.604a1.44 1.44 0 0 1-.073-.87c.097-.348.428-.701.785-.839.216-.083.938-.05 1.328.06m-3.5 2.056c.141.388.33.68.65 1 .511.513 1.063.756 1.85.818.498.038.71.12.961.372.259.259.345.476.345.875 0 .408-.087.621-.369.899-.333.328-.806.417-1.506.283-.586-.112-1.059-.358-1.533-.798-.483-.45-.774-.91-.941-1.492-.074-.259-.089-.411-.089-.892 0-.634.071-.99.283-1.412.17-.338.191-.349.224-.119.016.111.072.321.125.466" fill-rule="evenodd"/></svg>