<svg xmlns="http://www.w3.org/2000/svg" viewBox="0 0 24 24"><path d="M5.656 2.282a2.75 2.75 0 0 0-2.112 1.495c-.309.63-.284-.08-.284 8.223 0 7.048.004 7.433.073 7.68a2.82 2.82 0 0 0 1.987 1.987c.246.069.598.073 6.68.073 6.101 0 6.433-.004 6.68-.073a2.83 2.83 0 0 0 1.987-1.987c.07-.248.073-.61.073-7.68s-.003-7.432-.073-7.68a2.8 2.8 0 0 0-1.465-1.782c-.598-.295-.071-.274-7.042-.282-3.443-.004-6.37.008-6.504.026m1.732 3.085a.7.7 0 0 1 .345.64c0 .196-.019.264-.117.402-.22.314-.277.329-1.276.344-.975.015-1.099-.005-1.327-.204a.714.714 0 0 1 .002-1.099.8.8 0 0 1 .256-.153c.06-.013.127-.031.149-.039s.437-.011.923-.007l.883.009zm10.03.026c.087.06.194.169.237.243.098.169.105.532.013.709a.78.78 0 0 1-.786.395c-.647-.109-.848-.966-.315-1.345a.74.74 0 0 1 .851-.002m-4.962 2.888a5 5 0 0 1 2.228.802c.324.219.866.74 1.121 1.076.278.364.653 1.142.773 1.601.3 1.15.186 2.28-.337 3.34-.289.585-.527.905-1.018 1.367-.784.738-1.682 1.144-2.793 1.262-.978.104-2.07-.155-2.94-.698-.394-.246-1.001-.802-1.291-1.184-.278-.366-.655-1.145-.778-1.606a4.9 4.9 0 0 1 0-2.481c.122-.459.499-1.241.774-1.601.255-.336.797-.857 1.121-1.076.604-.411 1.482-.733 2.177-.8.464-.045.521-.045.963-.002m-.865 1.537c-.872.336-1.116 1.413-.469 2.06.243.243.499.343.978.38.657.051 1.149.235 1.622.607.513.403.918 1.119 1.006 1.775.012.093.021.087.12-.08.059-.099.167-.351.239-.56.128-.367.132-.401.132-1-.001-.588-.007-.639-.126-.991a3.1 3.1 0 0 0-.809-1.293c-.605-.604-1.287-.909-2.101-.94-.324-.012-.483-.001-.592.042M9.152 11.44a4 4 0 0 0-.239.56c-.128.367-.132.401-.132 1 .001.588.007.639.126.991.176.522.406.889.809 1.293.603.602 1.281.91 2.084.945.363.017.451.007.652-.068.808-.306 1.054-1.395.455-2.012-.252-.258-.489-.357-.945-.393-.679-.052-1.166-.225-1.637-.578-.531-.4-.963-1.145-1.053-1.818-.012-.093-.021-.087-.12.08"/></svg>