<svg xmlns="http://www.w3.org/2000/svg" viewBox="0 0 24 24"><path d="M7.656 3.281a2.75 2.75 0 0 0-2.112 1.496c-.307.627-.284.038-.284 7.263v6.46l.109.32c.06.176.177.435.26.575.296.498.868.985 1.378 1.171l.233.085v.204c.001.304.071.506.236.67.501.501 1.283.127 1.284-.615v-.15h6.48v.15c.001.637.586 1.026 1.124.748.253-.131.395-.419.396-.803v-.204l.233-.085c.51-.186 1.082-.673 1.378-1.171.083-.14.2-.399.26-.575l.109-.32v-6.46c0-6.14-.004-6.473-.073-6.72a2.8 2.8 0 0 0-1.465-1.782c-.585-.289-.306-.273-5.042-.282-2.343-.004-4.37.007-4.504.025m6.717 3.074c.242.151.36.363.36.648 0 .2-.019.267-.117.406-.064.092-.18.204-.257.249-.136.08-.194.082-2.359.082s-2.223-.002-2.359-.082a1 1 0 0 1-.257-.249c-.286-.406-.055-1.013.431-1.132.069-.017 1.088-.027 2.265-.024l2.14.007zm2.858 8.195-.011 3.79-.093.189a1.27 1.27 0 0 1-1.126.711h-.237l-.013-2.37-.012-2.37-.109-.32a2.7 2.7 0 0 0-.695-1.116c-.472-.471-.961-.709-1.606-.783-.451-.052-2.207-.052-2.658 0-.645.074-1.134.312-1.606.783a2.7 2.7 0 0 0-.695 1.116l-.109.32-.012 2.37-.013 2.37h-.237c-.473 0-.912-.278-1.126-.711l-.093-.189-.011-3.79-.01-3.79h10.482zm-5.99.14c.001 1.025.021 1.131.264 1.357.375.351.954.22 1.179-.267.065-.141.074-.27.075-1.094l.001-.935.29.015a1.24 1.24 0 0 1 1.077.706l.093.188.011 2.29.011 2.29H9.76v-2.235c0-2.443-.003-2.407.236-2.733.243-.33.584-.505.994-.509l.25-.003z" fill-rule="evenodd"/></svg>