<svg xmlns="http://www.w3.org/2000/svg" viewBox="0 0 24 24"><path d="M5.617 2.283c-.585.069-1.098.328-1.552.781a2.7 2.7 0 0 0-.693 1.116c-.091.277-.105.387-.105.82s.014.543.105.82c.146.441.357.781.693 1.116.324.324.605.505 1.021.658l.29.107.405 2.02c.481 2.396.485 2.408 1.027 2.851.246.202.411.256 1.984.647.777.194 1.447.381 1.49.416.064.054.135.414.433 2.205.196 1.177.353 2.144.348 2.149a4 4 0 0 1-.379-.151c-1.885-.813-4.297-.761-6.21.132-.694.325-1.95 1.184-2.109 1.443a.747.747 0 0 0 .333 1.072c.323.146.53.09 1.013-.278.768-.585 1.422-.938 2.15-1.161.718-.221 1.04-.265 1.899-.264 1.404.001 1.704.098 4.32 1.398 1.549.77 2.053 1.002 2.5 1.149.874.288 1.51.391 2.42.391 1.312 0 2.336-.259 3.718-.941.801-.395.924-.492 1.006-.791a.76.76 0 0 0-.388-.847c-.304-.144-.465-.107-1.328.311-.434.209-.905.418-1.048.464-1.315.417-2.594.417-3.92 0-.143-.045-.721-.308-1.284-.584l-1.024-.502-.462-2.77c-.52-3.111-.507-3.062-.909-3.465a2 2 0 0 0-.43-.329c-.119-.061-.774-.246-1.578-.447l-1.518-.381c-.102-.027-.159-.071-.19-.148a25 25 0 0 1-.325-1.517c0-.007 1.107-.013 2.46-.013h2.46v.65c0 .358.02.722.045.809.058.212.293.441.511.5.333.09.395.058 1.959-.983l1.465-.976h2.42c1.642 0 2.471-.015 2.579-.045a.84.84 0 0 0 .306-.191.739.739 0 0 0-.348-1.246c-.086-.02-1.242-.037-2.567-.037L16.2 8.24l-1.48-.987-1.48-.986h-.23c-.263 0-.433.074-.584.253-.155.185-.186.359-.186 1.07v.65H7.01l-.047-.25a6 6 0 0 0-.066-.314c-.014-.047.031-.083.159-.133.462-.176 1.035-.677 1.315-1.148a3.5 3.5 0 0 0 .257-.575c.091-.277.105-.387.105-.82s-.014-.543-.105-.82c-.425-1.294-1.642-2.06-3.011-1.897m.911 1.59c.239.117.481.359.599.599.133.27.133.787 0 1.057-.464.943-1.795.943-2.252 0a1.43 1.43 0 0 1-.074-.871c.097-.348.43-.703.785-.838.232-.088.708-.061.942.053m7.697 4.85c.232.156.416.288.408.294-.007.006-.206.14-.443.298l-.43.287v-.581c0-.32.01-.581.021-.581s.212.127.444.283" fill-rule="evenodd"/></svg>