<svg xmlns="http://www.w3.org/2000/svg" viewBox="0 0 24 24"><path d="M7.617 3.283q-.873.101-1.552.781a2.74 2.74 0 0 0-.696 1.116l-.109.32v13l.109.32c.06.176.177.435.26.575.296.498.868.985 1.378 1.171l.233.085v.204c.001.304.071.506.236.67.501.501 1.283.127 1.284-.615v-.15h6.48v.15c.001.637.586 1.026 1.124.748.253-.131.395-.419.396-.803v-.204l.233-.085c.51-.186 1.082-.673 1.378-1.171.083-.14.2-.399.26-.575l.109-.32v-13l-.109-.32a2.74 2.74 0 0 0-.696-1.116c-.472-.471-.961-.709-1.606-.783-.422-.049-8.296-.046-8.712.002m8.911 1.59c.239.118.481.36.599.599.092.187.093.199.104 1.978l.011 1.79H6.76V7.505c0-1.895.002-1.914.236-2.233.14-.19.38-.373.59-.45.13-.048.833-.056 4.454-.049l4.3.007zM9.805 6.28c-.391.092-.633.519-.524.924.059.218.288.453.5.511.22.062 4.218.062 4.438 0a.84.84 0 0 0 .306-.191.739.739 0 0 0-.348-1.246c-.192-.044-4.183-.043-4.372.002m7.426 8.27-.011 3.79-.093.189a1.27 1.27 0 0 1-1.126.711h-.237l-.013-2.37-.012-2.37-.109-.32a2.7 2.7 0 0 0-.695-1.116c-.472-.471-.961-.709-1.606-.783-.451-.052-2.207-.052-2.658 0-.645.074-1.134.312-1.606.783a2.7 2.7 0 0 0-.695 1.116l-.109.32-.012 2.37-.013 2.37h-.237c-.473 0-.912-.278-1.126-.711l-.093-.189-.011-3.79-.01-3.79h10.482zm-5.99.14c.001 1.025.021 1.131.264 1.357.375.351.954.22 1.179-.267.065-.141.074-.27.075-1.094l.001-.935.29.015a1.24 1.24 0 0 1 1.077.706l.093.188.011 2.29.011 2.29H9.76v-2.235c0-2.443-.003-2.407.236-2.733.243-.33.584-.505.994-.509l.25-.003z" fill-rule="evenodd"/></svg>