<svg xmlns="http://www.w3.org/2000/svg" viewBox="0 0 24 24"><path d="M10.22 3.282c-.378.051-.677.206-.98.51-.326.327-.442.59-.47 1.072-.032.533.137.97.578 1.496.432.515 1.308 1.213 2.09 1.665.295.17.367.195.562.195s.267-.025.562-.195c.74-.428 1.625-1.121 2.023-1.585.492-.575.678-1.026.645-1.573-.028-.484-.143-.748-.466-1.07-.624-.623-1.376-.694-2.489-.235L12 3.675l-.29-.119c-.561-.232-1.086-.329-1.49-.274m.96 1.679c.804.338.865.342 1.38.107.721-.329 1.055-.381 1.151-.179.045.094.041.129-.029.267-.153.3-.992 1.045-1.543 1.37L12 6.608l-.139-.082a8.5 8.5 0 0 1-1.191-.938c-.394-.397-.479-.597-.335-.783.07-.09.406-.028.845.156M7.52 8.282a5.68 5.68 0 0 0-3.576 1.662c-.817.816-1.342 1.8-1.587 2.976-.125.596-.125 1.564 0 2.16.245 1.176.77 2.16 1.587 2.976a5.72 5.72 0 0 0 6.208 1.271c.863-.346 1.109-.587 1.078-1.056-.036-.553-.618-.843-1.134-.566a5.3 5.3 0 0 1-1.075.422c-.41.107-1.222.143-1.652.074-1.815-.293-3.234-1.678-3.546-3.463-.327-1.869.604-3.698 2.317-4.548a3.8 3.8 0 0 1 1.122-.367 4.247 4.247 0 0 1 4.978 4.017c.001.319.069.518.236.685a.74.74 0 0 0 1.098-.045c.169-.201.2-.392.15-.939-.126-1.402-.693-2.625-1.669-3.597A5.69 5.69 0 0 0 7.52 8.282m7.973-.001c-.776.065-1.414.252-2.143.629-.675.349-.87.558-.87.93 0 .408.335.747.748.757.081.002.259-.067.48-.185.892-.477 1.297-.603 2.065-.641 1.729-.085 3.266.817 4.037 2.369.798 1.609.469 3.576-.814 4.859a4.23 4.23 0 0 1-5.346.534 4.4 4.4 0 0 1-1.682-2.195c-.104-.306-.208-.89-.208-1.178-.001-.571-.275-.893-.76-.893-.253 0-.425.076-.574.253-.169.201-.2.392-.15.939.126 1.401.692 2.622 1.668 3.597.816.817 1.8 1.342 2.976 1.587.334.07.555.088 1.08.088s.746-.018 1.08-.088c1.176-.245 2.16-.77 2.976-1.587.817-.816 1.342-1.8 1.587-2.976.07-.334.088-.555.088-1.08s-.018-.746-.088-1.08c-.246-1.178-.771-2.162-1.588-2.976a5.72 5.72 0 0 0-4.562-1.663" fill-rule="evenodd"/></svg>