<svg fill="none" xmlns="http://www.w3.org/2000/svg" viewBox="0 0 24 24"><path d="M8.679 3.278 C 8.051 3.362,7.470 3.737,7.095 4.300 C 6.698 4.898,6.649 5.821,6.979 6.500 C 7.171 6.896,7.681 7.390,8.056 7.545 L 8.240 7.620 8.240 8.430 L 8.240 9.240 8.150 9.241 C 7.857 9.244,7.093 9.324,6.820 9.380 C 6.343 9.478,5.830 9.662,5.368 9.901 C 3.797 10.716,2.728 12.142,2.357 13.920 C 2.232 14.516,2.232 15.484,2.357 16.080 C 2.602 17.256,3.127 18.240,3.944 19.056 C 4.760 19.873,5.744 20.398,6.920 20.643 C 7.254 20.713,7.475 20.731,8.000 20.731 C 8.525 20.731,8.746 20.713,9.080 20.643 C 10.256 20.398,11.240 19.873,12.056 19.056 C 13.032 18.081,13.598 16.860,13.724 15.459 C 13.774 14.912,13.743 14.721,13.574 14.520 C 13.425 14.343,13.253 14.267,13.000 14.267 C 12.515 14.267,12.241 14.589,12.240 15.160 C 12.240 15.281,12.213 15.532,12.180 15.719 C 11.903 17.294,10.797 18.558,9.259 19.055 C 8.503 19.300,7.497 19.300,6.741 19.055 C 5.210 18.560,4.095 17.292,3.823 15.738 C 3.496 13.869,4.427 12.040,6.140 11.190 C 6.697 10.914,7.335 10.760,7.930 10.760 L 8.240 10.760 8.240 11.910 C 8.240 12.626,8.257 13.120,8.285 13.219 C 8.341 13.423,8.577 13.659,8.781 13.715 C 8.889 13.745,9.745 13.760,11.460 13.760 L 13.980 13.760 14.897 16.285 C 15.401 17.673,15.852 18.865,15.898 18.934 C 16.012 19.103,16.263 19.239,16.462 19.239 C 16.643 19.240,19.159 18.745,19.330 18.675 C 19.477 18.615,19.660 18.401,19.720 18.220 C 19.816 17.929,19.684 17.555,19.430 17.399 C 19.140 17.221,19.081 17.222,17.994 17.438 C 17.439 17.548,16.983 17.634,16.980 17.629 C 16.977 17.624,16.573 16.513,16.083 15.160 C 15.593 13.807,15.154 12.642,15.107 12.572 C 15.060 12.502,14.949 12.403,14.861 12.352 L 14.700 12.260 12.230 12.249 L 9.760 12.238 9.760 11.499 L 9.760 10.760 12.910 10.760 C 15.085 10.760,16.109 10.746,16.219 10.715 C 16.307 10.691,16.444 10.605,16.525 10.524 C 16.938 10.111,16.742 9.409,16.177 9.278 C 16.090 9.258,14.624 9.241,12.890 9.241 L 9.760 9.240 9.760 8.430 L 9.760 7.620 9.944 7.545 C 10.319 7.390,10.829 6.896,11.021 6.500 C 11.265 5.998,11.308 5.258,11.123 4.740 C 10.775 3.761,9.732 3.137,8.679 3.278 M9.267 4.803 C 9.540 4.905,9.731 5.193,9.731 5.500 C 9.731 5.727,9.661 5.889,9.494 6.047 C 9.029 6.487,8.269 6.147,8.269 5.500 C 8.269 5.200,8.458 4.909,8.720 4.805 C 8.854 4.751,9.129 4.750,9.267 4.803 " stroke="none" fill-rule="evenodd" fill="currentColor"/></svg>