<svg xmlns="http://www.w3.org/2000/svg" viewBox="0 0 24 24"><path d="M8.679 3.278c-.628.084-1.209.459-1.584 1.022-.397.598-.446 1.521-.116 2.2.192.396.702.89 1.077 1.045l.184.075v1.62l-.09.001c-.293.003-1.057.083-1.33.139-.477.098-.99.282-1.452.521-1.571.815-2.64 2.241-3.011 4.019-.125.596-.125 1.564 0 2.16.245 1.176.77 2.16 1.587 2.976.816.817 1.8 1.342 2.976 1.587.334.07.555.088 1.08.088s.746-.018 1.08-.088c1.176-.245 2.16-.77 2.976-1.587.976-.975 1.542-2.196 1.668-3.597.05-.547.019-.738-.15-.939-.149-.177-.321-.253-.574-.253-.485 0-.759.322-.76.893a4.26 4.26 0 0 1-2.981 3.895c-.756.245-1.762.245-2.518 0-1.531-.495-2.646-1.763-2.918-3.317-.327-1.869.604-3.698 2.317-4.548a4.1 4.1 0 0 1 1.79-.43h.31v1.15c0 .716.017 1.21.045 1.309.056.204.292.44.496.496.108.03.964.045 2.679.045h2.52l.917 2.525c.504 1.388.955 2.58 1.001 2.649a.76.76 0 0 0 .564.305c.181.001 2.697-.494 2.868-.564.147-.06.33-.274.39-.455.096-.291-.036-.665-.29-.821-.29-.178-.349-.177-1.436.039-.555.11-1.011.196-1.014.191s-.407-1.116-.897-2.469-.929-2.518-.976-2.588a.9.9 0 0 0-.246-.22l-.161-.092-2.47-.011-2.47-.011V10.76h3.15c2.175 0 3.199-.014 3.309-.045a.84.84 0 0 0 .306-.191.739.739 0 0 0-.348-1.246c-.087-.02-1.553-.037-3.287-.037L9.76 9.24V7.62l.184-.075c.375-.155.885-.649 1.077-1.045.244-.502.287-1.242.102-1.76-.348-.979-1.391-1.603-2.444-1.462m.75 1.629c.216.174.302.342.302.587a.7.7 0 0 1-.237.553c-.465.44-1.225.1-1.225-.547 0-.444.335-.758.78-.73.184.012.26.04.38.137" fill-rule="evenodd"/></svg>