<svg xmlns="http://www.w3.org/2000/svg" viewBox="0 0 24 24"><path d="M11.268 4.283c-.624.036-.949.079-1.675.219-2.428.47-4.929 1.822-6.84 3.698-.354.347-.436.451-.474.596a.8.8 0 0 0 .062.563c.029.055 2.129 2.174 4.666 4.708 4.214 4.208 4.628 4.611 4.789 4.653a.8.8 0 0 0 .563-.061c.055-.029 2.174-2.129 4.708-4.666 4.208-4.214 4.611-4.628 4.653-4.789a.8.8 0 0 0-.061-.567c-.03-.057-.24-.281-.467-.497-2.201-2.094-4.784-3.38-7.592-3.779-.279-.039-1.586-.127-1.72-.115-.033.003-.308.02-.612.037"/></svg>