<svg xmlns="http://www.w3.org/2000/svg" viewBox="0 0 24 24"><path d="M11.46 4.266a14.6 14.6 0 0 0-7.6 2.455c-.512.343-1.265.928-1.418 1.103a.738.738 0 0 0 .561 1.228c.239-.003.349-.064.865-.48C6.103 6.773 9.031 5.761 12 5.761s5.897 1.012 8.132 2.811c.517.417.626.477.868.48a.74.74 0 0 0 .619-.328c.1-.141.119-.207.118-.396-.002-.319-.081-.441-.525-.809-2.158-1.787-4.983-2.939-7.832-3.195a20 20 0 0 0-1.92-.058M10.8 8.66a10 10 0 0 0-4.28 1.557c-.71.466-1.411 1.067-1.506 1.292-.217.514.199 1.095.748 1.042.221-.021.342-.097.798-.493.959-.834 2.398-1.529 3.72-1.796a8.6 8.6 0 0 1 5.38.654 8.4 8.4 0 0 1 2.016 1.338c.29.254.458.324.709.295.48-.054.79-.592.601-1.04-.095-.225-.796-.826-1.506-1.292a9.9 9.9 0 0 0-4.32-1.558c-.601-.071-1.775-.07-2.36.001m.54 4.303c-1.107.152-2.087.592-2.882 1.294-.207.184-.267.264-.315.427a.7.7 0 0 0 .203.763c.146.138.294.193.519.193.211 0 .363-.071.635-.299a3.9 3.9 0 0 1 1.484-.789c.275-.08.407-.091 1.016-.091s.741.011 1.016.091a3.9 3.9 0 0 1 1.484.789c.272.228.424.299.635.299a.75.75 0 0 0 .691-.412c.076-.146.077-.454.003-.632-.092-.22-.681-.702-1.229-1.005-.953-.528-2.218-.771-3.26-.628m.465 4.316c-.548.133-.735.84-.33 1.245a.71.71 0 0 0 .796.174c.282-.118.486-.406.488-.689a.81.81 0 0 0-.399-.668.95.95 0 0 0-.555-.062" fill-rule="evenodd"/></svg>