<svg xmlns="http://www.w3.org/2000/svg" viewBox="0 0 24 24"><path d="M11.268 4.283c-.624.036-.949.079-1.675.219-2.428.47-4.929 1.822-6.84 3.698-.354.347-.436.451-.474.596a.8.8 0 0 0 .062.563c.029.055 2.138 2.183 4.686 4.727 4.408 4.402 4.641 4.628 4.803 4.654.094.015.247.015.34 0 .162-.026.395-.252 4.803-4.654 2.548-2.544 4.657-4.672 4.686-4.727a.8.8 0 0 0 .062-.563c-.1-.386-1.587-1.675-2.864-2.483A13.2 13.2 0 0 0 13.6 4.361c-.279-.039-1.586-.127-1.72-.115-.033.003-.308.02-.612.037m2.192 1.575c2.206.323 4.345 1.325 6.155 2.882l.314.27-1.084 1.085c-.831.831-1.098 1.075-1.14 1.045-.03-.022-.178-.145-.33-.273-.878-.744-2.097-1.358-3.256-1.641-2.011-.489-4.052-.268-5.873.636a8.7 8.7 0 0 0-1.687 1.077l-.307.253-1.091-1.091-1.09-1.091.314-.27C6.372 7.03 8.69 6.019 11.16 5.786c.388-.037 1.875.01 2.3.072m-.28 4.718a6.5 6.5 0 0 1 2.48.915c.417.26.98.699.98.765 0 .024-.491.534-1.09 1.133l-1.09 1.088-.52-.258c-1.384-.686-2.496-.686-3.88 0l-.52.258-1.09-1.088c-.6-.599-1.084-1.107-1.077-1.129.019-.058.443-.395.767-.61a7.25 7.25 0 0 1 3.3-1.145c.316-.03 1.368.013 1.74.071m-.447 4.762c.172.057.374.135.45.173l.136.07-.659.659-.66.659-.66-.659-.659-.659.131-.067c.161-.083.59-.229.808-.276.266-.057.771-.012 1.113.1"/></svg>