<svg xmlns="http://www.w3.org/2000/svg" viewBox="0 0 24 24"><path d="M4.811 3.279c-.519.123-.732.788-.385 1.201.155.184.302.242.722.285.948.097 1.618.596 1.962 1.464l.108.271.014 1.366.014 1.366-.736.014c-.728.014-.738.015-.905.126-.294.194-.413.501-.324.832.059.218.288.453.5.511.087.025.451.045.809.045h.65l.001.69c0 1.006.09 1.318.504 1.752.118.124.302.273.409.331.398.217.514.226 2.896.226l2.19.001v1.48l-3.11.001c-3.087 0-3.62.019-4.105.141-.338.086-.993.411-1.306.649-.492.373-.932.94-1.162 1.496-.238.572-.366 1.344-.277 1.672.06.223.286.457.501.516.087.025.451.045.809.045h.65l.001.43c.001.333.017.466.075.59.286.619 1.082.619 1.368 0 .057-.124.074-.257.075-.588l.001-.427 3.53-.015c3.418-.015 3.548-.018 4.085-.104.672-.108.946-.169 1.545-.346 1.614-.474 3.243-1.427 4.407-2.577.275-.272.356-.379.393-.518a.743.743 0 0 0-.543-.927c-.086-.02-1.34-.037-2.787-.037l-2.63-.001v-4.48H7.24V9.24h7.52v-.731c0-.402-.018-.878-.041-1.057a4.64 4.64 0 0 0-1.252-2.675c-.462-.491-.782-.729-1.367-1.018a4.6 4.6 0 0 0-1.644-.478C9.991 3.235 5 3.234 4.811 3.279"/></svg>