<svg xmlns="http://www.w3.org/2000/svg" viewBox="0 0 24 24"><path d="M4.805 3.28c-.547.129-.735.839-.33 1.244.16.16.364.235.645.236.271.002.663.107.936.251.314.166.767.619.933.933.227.429.25.614.25 2.026l.001 1.27-.63.001c-.861.001-1.03.049-1.237.354-.268.393-.049.993.408 1.12.087.025.451.045.809.045h.65l.001.67c.001 1.04.094 1.353.535 1.794.528.527.573.534 3.294.535l2.17.001v1.48l-3.11.001c-3.087 0-3.62.019-4.105.141-.338.086-.993.411-1.306.649-.492.373-.932.94-1.162 1.496-.238.572-.366 1.344-.277 1.672.06.223.286.457.501.516.087.025.451.045.809.045h.65l.001.43c.001.333.017.466.075.59.286.619 1.082.619 1.368 0 .057-.124.074-.257.075-.588l.001-.427 3.53-.015c3.418-.015 3.548-.018 4.085-.104.672-.108.946-.169 1.545-.346 1.614-.474 3.243-1.427 4.407-2.577.275-.272.356-.379.393-.518a.743.743 0 0 0-.543-.927c-.086-.02-1.34-.037-2.787-.037l-2.63-.001v-3.69c-.001-2.241-.017-3.831-.041-4.05a4.77 4.77 0 0 0-3.563-4.101 6 6 0 0 0-.76-.118c-.534-.047-5.392-.048-5.591-.001m6.109 1.594a3.35 3.35 0 0 1 2.21 2.212c.075.253.09.423.106 1.224l.018.93H8.767L8.75 7.85c-.016-1.246-.027-1.423-.102-1.71-.112-.431-.293-.858-.487-1.147l-.159-.24 1.309.017c1.204.015 1.332.024 1.603.104M13.24 11.5v.74h-2.167c-1.96 0-2.174-.006-2.24-.066-.065-.059-.073-.138-.073-.74v-.674h4.48zm4.28 5.487c-.74.44-1.823.862-2.682 1.047-.94.203-1.022.206-5.64.206-2.375 0-4.318-.011-4.318-.024s.058-.135.13-.27c.167-.317.619-.769.935-.936.483-.255.169-.243 6.335-.246l5.62-.003z" fill-rule="evenodd"/></svg>