<svg xmlns="http://www.w3.org/2000/svg" viewBox="0 0 24 24"><path d="m13.8 3.067-.46.076a7 7 0 0 0-1.624.539 6.35 6.35 0 0 0-2.378 2.12c-.958 1.43-1.269 3.363-.822 5.105.046.18.094.353.107.385.015.041-.574.576-1.91 1.734-2.084 1.806-2.303 2.011-2.506 2.348-.391.647-.551 1.267-.514 1.985.047.914.36 1.634 1.007 2.316 1.208 1.274 3.101 1.515 4.49.572.348-.236.458-.355 2.281-2.457.911-1.051 1.677-1.91 1.703-1.909.025 0 .181.037.346.081 2.089.56 4.312.059 5.856-1.321.828-.74 1.413-1.606 1.746-2.585.558-1.642.457-3.382-.289-4.976-.212-.452-.34-.618-.542-.705-.172-.074-.466-.07-.623.009-.07.035-.67.604-1.333 1.265L17.129 8.85l-.601-.134-.602-.133-.087-.382-.138-.606-.052-.225 1.197-1.195c.754-.754 1.225-1.255 1.275-1.358a.65.65 0 0 0 .003-.597c-.124-.27-.358-.425-1.084-.718-.843-.34-1.525-.464-2.5-.456-.352.003-.685.012-.74.021m1.401 1.495c.297.037.701.12.877.181q.055.023-.906.989c-.53.532-.993 1.026-1.028 1.096a.7.7 0 0 0-.064.274c0 .21.469 2.247.562 2.44.15.314.205.336 1.738.68.996.224 1.001.225 1.2.162.178-.056.304-.166 1.16-1.023.528-.529.97-.961.983-.961s.044.067.068.15c.197.671.227 1.662.074 2.41-.191.933-.58 1.652-1.274 2.354-.893.902-2.049 1.366-3.404 1.366-.558 0-1.029-.081-1.651-.283-.585-.19-.777-.199-1.005-.047-.096.064-.942 1.009-2.012 2.25-1.016 1.177-1.912 2.199-1.993 2.272-.417.376-1.049.53-1.654.404-.707-.148-1.382-.775-1.598-1.486-.068-.225-.08-.348-.065-.702.019-.478.104-.724.356-1.035.074-.091 1.125-1.023 2.335-2.071 2.297-1.989 2.38-2.071 2.38-2.378 0-.079-.062-.318-.139-.532-.371-1.038-.424-2.02-.164-3.044a4.57 4.57 0 0 1 1.443-2.347c1.012-.886 2.384-1.292 3.781-1.119" fill-rule="evenodd"/></svg>