<svg xmlns="http://www.w3.org/2000/svg" viewBox="0 0 24 24"><path d="M14.008 3.801c-1.312.134-2.437.663-3.35 1.577-1.507 1.507-1.991 3.753-1.26 5.849l.122.351-.09.085c-.049.047-1.029.898-2.177 1.891-2.004 1.734-2.233 1.948-2.467 2.307-.317.487-.433 1.335-.271 1.981a2.93 2.93 0 0 0 2.621 2.223 2.68 2.68 0 0 0 1.772-.538c.115-.092 1.031-1.116 2.036-2.277a454 454 0 0 1 1.9-2.188c.073-.077.078-.076.445.048.703.237 1.131.305 1.931.308.804.002 1.101-.043 1.806-.278a5.1 5.1 0 0 0 2.097-1.299 5.16 5.16 0 0 0 1.315-2.113c.191-.574.247-.905.27-1.608.017-.553.008-.739-.062-1.144-.093-.544-.303-1.213-.513-1.629l-.14-.279-1.307 1.306L17.38 9.68l-.98-.222a86 86 0 0 1-1.043-.24c-.047-.014-.123-.286-.298-1.061l-.234-1.041 1.311-1.312 1.312-1.312-.374-.164c-1.002-.438-2.093-.626-3.066-.527"/></svg>