<svg width="24" height="24" viewBox="0 0 24 24" fill="none" xmlns="http://www.w3.org/2000/svg">
<path fill-rule="evenodd" clip-rule="evenodd" d="M5 2.25C3.48122 2.25 2.25 3.48122 2.25 5V10C2.25 11.5188 3.48122 12.75 5 12.75H19C20.5188 12.75 21.75 11.5188 21.75 10V5C21.75 3.48122 20.5188 2.25 19 2.25H5ZM5.25 8C5.25 7.58579 5.58579 7.25 6 7.25H18C18.4142 7.25 18.75 7.58579 18.75 8C18.75 8.41421 18.4142 8.75 18 8.75H6C5.58579 8.75 5.25 8.41421 5.25 8Z" fill="black"/>
<path fill-rule="evenodd" clip-rule="evenodd" d="M10.5 13.25C10.0858 13.25 9.75 13.5858 9.75 14V17C9.75 17.6904 9.19036 18.25 8.5 18.25H8.25C7.69772 18.25 7.25 17.8023 7.25 17.25V17C7.25 16.5858 7.58579 16.25 8 16.25C8.41421 16.25 8.75 15.9142 8.75 15.5C8.75 15.0858 8.41421 14.75 8 14.75C6.75736 14.75 5.75 15.7574 5.75 17V17.25C5.75 18.6307 6.86929 19.75 8.25 19.75H8.5C10.0188 19.75 11.25 18.5188 11.25 17V14C11.25 13.5858 10.9142 13.25 10.5 13.25Z" fill="black"/>
<path fill-rule="evenodd" clip-rule="evenodd" d="M14 13.25C14.4142 13.25 14.75 13.5858 14.75 14V19C14.75 19.6904 15.3096 20.25 16 20.25H16.3125C16.8303 20.25 17.25 19.8303 17.25 19.3125V18.9583C17.25 18.6362 16.9888 18.375 16.6667 18.375C16.2525 18.375 15.9167 18.0392 15.9167 17.625C15.9167 17.2108 16.2525 16.875 16.6667 16.875C17.8173 16.875 18.75 17.8077 18.75 18.9583V19.3125C18.75 20.6587 17.6587 21.75 16.3125 21.75H16C14.4812 21.75 13.25 20.5188 13.25 19V14C13.25 13.5858 13.5858 13.25 14 13.25Z" fill="black"/>
</svg>
