<svg width="24" height="24" viewBox="0 0 24 24" fill="none" xmlns="http://www.w3.org/2000/svg">
<rect width="24" height="24" fill="white"/>
<path d="M6.9375 12H5C3.89543 12 3 11.1046 3 10V5C3 3.89543 3.89543 3 5 3H19C20.1046 3 21 3.89543 21 5V10C21 11.1046 20.1046 12 19 12H17.0625" stroke="black" stroke-width="1.5" stroke-linecap="round" stroke-linejoin="round"/>
<path d="M6 8H18" stroke="black" stroke-width="1.5" stroke-linecap="round" stroke-linejoin="round"/>
<path d="M10.5 12V17C10.5 18.1046 9.60457 19 8.5 19H8.25C7.2835 19 6.5 18.2165 6.5 17.25V17C6.5 16.1716 7.17157 15.5 8 15.5V15.5" stroke="black" stroke-width="1.5" stroke-linecap="round" stroke-linejoin="round"/>
<path d="M14 12V19C14 20.1046 14.8954 21 16 21H16.3125C17.2445 21 18 20.2445 18 19.3125V18.9583C18 18.222 17.403 17.625 16.6667 17.625V17.625" stroke="black" stroke-width="1.5" stroke-linecap="round" stroke-linejoin="round"/>
</svg>
