<svg width="24" height="24" viewBox="0 0 24 24" fill="none" xmlns="http://www.w3.org/2000/svg">
<path d="M3 6H8V8C8 8.55228 7.55228 9 7 9H4C3.44772 9 3 8.55228 3 8V6Z" fill="black" stroke="black" stroke-width="1.5" stroke-linejoin="round"/>
<rect x="4" y="3" width="3" height="3" stroke="black" stroke-width="1.5" stroke-linejoin="round"/>
<rect x="17" y="18" width="3" height="3" stroke="black" stroke-width="1.5" stroke-linejoin="round"/>
<path d="M16 16C16 15.4477 16.4477 15 17 15H20C20.5523 15 21 15.4477 21 16V18H16V16Z" fill="black" stroke="black" stroke-width="1.5" stroke-linejoin="round"/>
<path d="M5.5 9V16.75C5.5 18.5449 6.95507 20 8.75 20V20C10.5449 20 12 18.5449 12 16.75V7.25C12 5.45507 13.4551 4 15.25 4V4C17.0449 4 18.5 5.45507 18.5 7.25V15" stroke="black" stroke-width="1.5" stroke-linecap="round" stroke-linejoin="round"/>
</svg>
