<svg width="24" height="24" viewBox="0 0 24 24" fill="none" xmlns="http://www.w3.org/2000/svg">
<path fill-rule="evenodd" clip-rule="evenodd" d="M12 3.25C12.4142 3.25 12.75 3.58579 12.75 4V20C12.75 20.4142 12.4142 20.75 12 20.75C11.5858 20.75 11.25 20.4142 11.25 20V4C11.25 3.58579 11.5858 3.25 12 3.25Z" fill="black"/>
<path fill-rule="evenodd" clip-rule="evenodd" d="M15 18H20C20.5523 18 21 17.5523 21 17V7C21 6.44772 20.5523 6 20 6H15C14.4477 6 14 6.44772 14 7V17C14 17.5523 14.4477 18 15 18ZM18.5 11.25C18.0858 11.25 17.75 11.5858 17.75 12C17.75 12.4142 18.0858 12.75 18.5 12.75H19C19.4142 12.75 19.75 12.4142 19.75 12C19.75 11.5858 19.4142 11.25 19 11.25H18.5Z" fill="black"/>
<path fill-rule="evenodd" clip-rule="evenodd" d="M4 18H9C9.55228 18 10 17.5523 10 17V7C10 6.44772 9.55228 6 9 6H4C3.44772 6 3 6.44772 3 7V17C3 17.5523 3.44772 18 4 18ZM7.5 11.25C7.08579 11.25 6.75 11.5858 6.75 12C6.75 12.4142 7.08579 12.75 7.5 12.75H8C8.41421 12.75 8.75 12.4142 8.75 12C8.75 11.5858 8.41421 11.25 8 11.25H7.5Z" fill="black"/>
</svg>
