<svg width="24" height="24" viewBox="0 0 24 24" fill="none" xmlns="http://www.w3.org/2000/svg">
<rect width="24" height="24" fill="white"/>
<path d="M12 4V20" stroke="black" stroke-width="1.5" stroke-linecap="round" stroke-linejoin="round"/>
<path d="M20 18H15C14.4477 18 14 17.5523 14 17V7C14 6.44772 14.4477 6 15 6H20C20.5523 6 21 6.44772 21 7V17C21 17.5523 20.5523 18 20 18Z" fill="black"/>
<path d="M9 18H4C3.44772 18 3 17.5523 3 17V7C3 6.44772 3.44772 6 4 6H9C9.55228 6 10 6.44772 10 7V17C10 17.5523 9.55228 18 9 18Z" fill="black"/>
<path d="M18.5 12H19" stroke="white" stroke-width="1.5" stroke-linecap="round" stroke-linejoin="round"/>
<path d="M7.5 12H8" stroke="white" stroke-width="1.5" stroke-linecap="round" stroke-linejoin="round"/>
</svg>
