<svg width="24" height="24" viewBox="0 0 24 24" fill="none" xmlns="http://www.w3.org/2000/svg">
<path d="M3 8C3 7.74136 3 6.35385 3 4.99996C3 3.89539 3.89543 3 5 3H8" stroke="black" stroke-width="1.5" stroke-linecap="round" stroke-linejoin="round"/>
<path d="M21 8C21 7.74136 21 6.35385 21 4.99996C21 3.89539 20.1046 3 19 3H16" stroke="black" stroke-width="1.5" stroke-linecap="round" stroke-linejoin="round"/>
<path d="M3 16C3 16.2586 3 17.6461 3 19C3 20.1046 3.89543 21 5 21H8" stroke="black" stroke-width="1.5" stroke-linecap="round" stroke-linejoin="round"/>
<path d="M21 16C21 16.2586 21 17.6461 21 19C21 20.1046 20.1046 21 19 21H16" stroke="black" stroke-width="1.5" stroke-linecap="round" stroke-linejoin="round"/>
<rect x="5" y="5" width="14" height="14" rx="1" fill="black"/>
</svg>
