<svg width="24" height="24" viewBox="0 0 24 24" fill="none" xmlns="http://www.w3.org/2000/svg">
<path fill-rule="evenodd" clip-rule="evenodd" d="M7 2.25C5.48122 2.25 4.25 3.48122 4.25 5V16C4.25 17.5188 5.48122 18.75 7 18.75H10.9184L12.3416 21.3591C12.5399 21.7228 12.9955 21.8568 13.3591 21.6584C13.7228 21.4601 13.8568 21.0045 13.6584 20.6409L10.9017 15.5868C10.8021 15.4044 10.75 15.1999 10.75 14.992V14.8725C10.75 14.2526 11.2526 13.75 11.8725 13.75C12.2883 13.75 12.6701 13.9799 12.8646 14.3474L14.25 16.9644V17H14.2688L14.3371 17.129C14.5309 17.4951 14.9848 17.6348 15.3509 17.441C15.5335 17.3443 15.6598 17.1829 15.7164 17H15.75V16.7925C15.7502 16.7825 15.7502 16.7725 15.75 16.7625V8.83697C17.1834 9.17555 18.25 10.4632 18.25 12V21C18.25 21.4142 18.5858 21.75 19 21.75C19.4142 21.75 19.75 21.4142 19.75 21V12C19.75 9.63185 18.017 7.66846 15.75 7.30888V5C15.75 3.48122 14.5188 2.25 13 2.25H7ZM7.75 6C7.75 5.58579 8.08579 5.25 8.5 5.25H11.5C11.9142 5.25 12.25 5.58579 12.25 6V8C12.25 8.41421 11.9142 8.75 11.5 8.75H8.5C8.08579 8.75 7.75 8.41421 7.75 8V6Z" fill="black"/>
</svg>
