<svg width="24" height="24" viewBox="0 0 24 24" fill="none" xmlns="http://www.w3.org/2000/svg">
<path d="M19.0303 17.9697L18.5 17.4393L17.4393 18.5L17.9697 19.0303L19.0303 17.9697ZM20.4697 21.5303C20.7626 21.8232 21.2374 21.8232 21.5303 21.5303C21.8232 21.2374 21.8232 20.7626 21.5303 20.4697L20.4697 21.5303ZM17.9697 19.0303L20.4697 21.5303L21.5303 20.4697L19.0303 17.9697L17.9697 19.0303Z" fill="black"/>
<path d="M3.53033 2.46967C3.23744 2.17678 2.76256 2.17678 2.46967 2.46967C2.17678 2.76256 2.17678 3.23744 2.46967 3.53033L3.53033 2.46967ZM4.96967 6.03033L5.5 6.56066L6.56066 5.5L6.03033 4.96967L4.96967 6.03033ZM2.46967 3.53033L4.96967 6.03033L6.03033 4.96967L3.53033 2.46967L2.46967 3.53033Z" fill="black"/>
<path fill-rule="evenodd" clip-rule="evenodd" d="M5.44695 6.50761C4.76946 7.36936 4.23588 8.36663 3.88223 9.45521C3.7101 9.54468 3.49126 9.67684 3.26986 9.86133C2.77925 10.2702 2.25 10.9642 2.25 12C2.25 13.0358 2.77925 13.7298 3.26986 14.1387C3.49126 14.3232 3.7101 14.4553 3.88223 14.5448C5.05264 18.1474 8.19375 20.75 12 20.75C14.6231 20.75 16.9303 19.514 18.4943 17.5664L17.5 18.5607L14.4992 15.5599C14.4509 15.603 14.3961 15.6405 14.3353 15.6709C12.8652 16.406 11.1347 16.406 9.66451 15.6709C9.29403 15.4856 9.14386 15.0351 9.3291 14.6646C9.51434 14.2941 9.96485 14.144 10.3353 14.3292C11.2935 14.8083 12.4068 14.8493 13.3916 14.4522L9.78386 10.8445C9.79444 10.8947 9.8 10.9467 9.8 11C9.8 11.4142 9.46421 11.75 9.05 11.75H9C8.58579 11.75 8.25 11.4142 8.25 11C8.25 10.5858 8.58579 10.25 9 10.25H9.05C9.10331 10.25 9.15531 10.2556 9.20548 10.2661L5.44695 6.50761ZM5.50581 6.43353L6.5 5.43934L18.5531 17.4924C19.2305 16.6306 19.7641 15.6334 20.1178 14.5448C20.2899 14.4553 20.5087 14.3232 20.7301 14.1387C21.2207 13.7298 21.75 13.0358 21.75 12C21.75 10.9642 21.2207 10.2702 20.7301 9.86133C20.5087 9.67684 20.2899 9.54468 20.1178 9.45521C18.9474 5.85257 15.8063 3.25 12 3.25C9.37696 3.25 7.0698 4.486 5.50581 6.43353ZM12 3.25C13.5188 3.25 14.75 4.48122 14.75 6V7C14.75 8.51878 13.5188 9.75 12 9.75C10.4812 9.75 9.25 8.51878 9.25 7C9.25 6.58579 9.58579 6.25 10 6.25C10.4142 6.25 10.75 6.58579 10.75 7C10.75 7.69036 11.3096 8.25 12 8.25C12.6904 8.25 13.25 7.69036 13.25 7V6C13.25 5.30964 12.6904 4.75 12 4.75C11.5858 4.75 11.25 4.41421 11.25 4C11.25 3.58579 11.5858 3.25 12 3.25ZM14.25 11C14.25 10.5858 14.5858 10.25 15 10.25H15.05C15.4642 10.25 15.8 10.5858 15.8 11C15.8 11.4142 15.4642 11.75 15.05 11.75H15C14.5858 11.75 14.25 11.4142 14.25 11Z" fill="black"/>
</svg>
