<svg width="24" height="24" viewBox="0 0 24 24" fill="none" xmlns="http://www.w3.org/2000/svg">
<path fill-rule="evenodd" clip-rule="evenodd" d="M3.88223 9.45521C5.05264 5.85257 8.19375 3.25 12 3.25C11.5858 3.25 11.25 3.58579 11.25 4C11.25 4.41421 11.5858 4.75 12 4.75C12.6904 4.75 13.25 5.30964 13.25 6V7C13.25 7.69036 12.6904 8.25 12 8.25C11.3096 8.25 10.75 7.69036 10.75 7C10.75 6.58579 10.4142 6.25 10 6.25C9.58579 6.25 9.25 6.58579 9.25 7C9.25 8.51878 10.4812 9.75 12 9.75C13.5188 9.75 14.75 8.51878 14.75 7V6C14.75 4.48122 13.5188 3.25 12 3.25C15.8063 3.25 18.9474 5.85257 20.1178 9.45521C20.2899 9.54468 20.5087 9.67684 20.7301 9.86133C21.2207 10.2702 21.75 10.9642 21.75 12C21.75 13.0358 21.2207 13.7298 20.7301 14.1387C20.5087 14.3232 20.2899 14.4553 20.1178 14.5448C18.9474 18.1474 15.8063 20.75 12 20.75C8.19375 20.75 5.05264 18.1474 3.88223 14.5448C3.7101 14.4553 3.49126 14.3232 3.26986 14.1387C2.77925 13.7298 2.25 13.0358 2.25 12C2.25 10.9642 2.77925 10.2702 3.26986 9.86133C3.49126 9.67684 3.7101 9.54468 3.88223 9.45521ZM15 10.25C14.5858 10.25 14.25 10.5858 14.25 11C14.25 11.4142 14.5858 11.75 15 11.75H15.05C15.4642 11.75 15.8 11.4142 15.8 11C15.8 10.5858 15.4642 10.25 15.05 10.25H15ZM8.25 11C8.25 10.5858 8.58579 10.25 9 10.25H9.05C9.46421 10.25 9.8 10.5858 9.8 11C9.8 11.4142 9.46421 11.75 9.05 11.75H9C8.58579 11.75 8.25 11.4142 8.25 11ZM10.3353 14.3292C9.96485 14.144 9.51434 14.2941 9.3291 14.6646C9.14386 15.0351 9.29403 15.4856 9.66451 15.6709C11.1347 16.406 12.8652 16.406 14.3353 15.6709C14.7058 15.4856 14.856 15.0351 14.6707 14.6646C14.4855 14.2941 14.035 14.144 13.6645 14.3292C12.6166 14.8532 11.3832 14.8532 10.3353 14.3292Z" fill="black"/>
</svg>
