<svg width="24" height="24" viewBox="0 0 24 24" fill="none" xmlns="http://www.w3.org/2000/svg">
<path d="M6.5 4H9.5C9.5 4 10 6.5 12 6.5C14 6.5 14.5 4 14.5 4H17.5V13C16.3368 13.8309 14.0138 16.4843 14.0001 19.969C13.8362 19.9895 13.6694 20 13.5 20H10.5C10.3306 20 10.1638 19.9895 9.99994 19.969C9.98624 16.4843 7.66322 13.8309 6.5 13V4Z" fill="black" fill-opacity="0.2"/>
<path d="M6.5 4H9.5C9.5 4 10 6.5 12 6.5C14 6.5 14.5 4 14.5 4H17.5V16C17.5 18.2091 15.7091 20 13.5 20H10.5C8.29086 20 6.5 18.2091 6.5 16V4Z" stroke="black" stroke-width="1.5" stroke-linecap="round" stroke-linejoin="round"/>
<path d="M17.5 4L21.5 6L20.5 10H17.5V4Z" stroke="black" stroke-width="1.5" stroke-linecap="round" stroke-linejoin="round"/>
<path d="M6.5 4L2.5 6L3.5 10H6.5V4Z" stroke="black" stroke-width="1.5" stroke-linecap="round" stroke-linejoin="round"/>
<path d="M17.5 13C16.3333 13.8333 14 16.3 14 19.5" stroke="black" stroke-width="1.5" stroke-linecap="round" stroke-linejoin="round"/>
<path d="M6.5 13C7.66667 13.8333 10 16.3 10 19.5" stroke="black" stroke-width="1.5" stroke-linecap="round" stroke-linejoin="round"/>
</svg>
