<svg width="24" height="24" viewBox="0 0 24 24" fill="none" xmlns="http://www.w3.org/2000/svg">
<rect width="24" height="24" fill="white"/>
<path d="M15.05 11H15" stroke="black" stroke-width="1.5" stroke-linecap="round" stroke-linejoin="round"/>
<path d="M9.05 11H9" stroke="black" stroke-width="1.5" stroke-linecap="round" stroke-linejoin="round"/>
<path d="M14 15C12.741 15.6295 11.259 15.6295 10 15" stroke="black" stroke-width="1.5" stroke-linecap="round" stroke-linejoin="round"/>
<path d="M21 12C21 13.5 19.5 14 19.5 14C18.5 17.5 15.5452 20 12 20C8.45478 20 5.5 17.5 4.5 14C4.5 14 3 13.5 3 12C3 10.5 4.5 10 4.5 10C5.5 6.5 8.45478 4 12 4C15.5452 4 18.5 6.5 19.5 10C19.5 10 21 10.5 21 12Z" stroke="black" stroke-width="1.5" stroke-linecap="round" stroke-linejoin="round"/>
<path d="M10 7C10 8.10457 10.8954 9 12 9C13.1046 9 14 8.10457 14 7V6C14 4.89543 13.1046 4 12 4" stroke="black" stroke-width="1.5" stroke-linecap="round" stroke-linejoin="round"/>
</svg>
