<svg width="24" height="24" viewBox="0 0 24 24" fill="none" xmlns="http://www.w3.org/2000/svg">
<path d="M12 21C7.02944 21 3 16.9706 3 12C6.2 9.2 12.3333 8.83333 15 9C14.1822 7.83333 11.442 5.3 7.02331 4.5C8.44877 3.55223 10.1599 3 12 3C12.8675 3 13.7063 3.12273 14.5 3.35177C15.7 4.83318 15.3333 7.73451 15 9C15.7097 8.5 17.7161 7.6 20.0645 8C20.6633 9.20496 21 10.5632 21 12C21 13.2414 20.7487 14.4241 20.2941 15.5C19.3294 11.9 16.3627 9.66667 15 9C15 12.6 15 18 12 21Z" fill="black"/>
<circle cx="12" cy="12" r="9" stroke="black" stroke-width="1.5" stroke-linecap="round" stroke-linejoin="round"/>
</svg>
