<svg width="24" height="24" viewBox="0 0 24 24" fill="none" xmlns="http://www.w3.org/2000/svg">
<rect width="24" height="24" fill="white"/>
<path d="M17 18V8.5L16.0089 8.25222C15.3434 8.08585 14.6508 8.05819 13.9742 8.17096L12.822 8.363C12.2778 8.45371 11.7222 8.45371 11.178 8.363L10.0258 8.17096C9.34917 8.05819 8.65658 8.08585 7.99111 8.25222L7 8.5V18C7 19.1046 7.89543 20 9 20H15C16.1046 20 17 19.1046 17 18Z" stroke="black" stroke-width="1.5" stroke-linecap="round" stroke-linejoin="round"/>
<path d="M5 6.5C5 7.3787 5.42728 7.84521 5.90915 8.11485C6.57251 8.48604 7.38821 8.40295 8.12567 8.21858C8.70239 8.0744 9.3026 8.05043 9.88897 8.14816L11.178 8.363C11.7222 8.45371 12.2778 8.45371 12.822 8.363L14.111 8.14816C14.6974 8.05043 15.2976 8.0744 15.8743 8.21858C16.6118 8.40295 17.4275 8.48604 18.0909 8.11485C18.5727 7.84521 19 7.3787 19 6.5C19 5.56095 18.5981 5.09266 18.1482 4.83232C17.6025 4.51658 16.9277 4.57163 16.3122 4.70839C15.4634 4.89703 14.5754 4.78772 13.7977 4.39884L13.3416 4.17082C12.4971 3.74853 11.5029 3.74853 10.6584 4.17082L10.2023 4.39884C9.42456 4.78772 8.53663 4.89703 7.68778 4.70839C7.07234 4.57163 6.3975 4.51658 5.85182 4.83232C5.40187 5.09266 5 5.56095 5 6.5Z" stroke="black" stroke-width="1.5" stroke-linecap="round" stroke-linejoin="round"/>
<path d="M10 11V17M14 11V17" stroke="black" stroke-width="1.5" stroke-linecap="round" stroke-linejoin="round"/>
<path d="M17 16.5C18.6569 16.5 20 15.1569 20 13.5C20 11.8431 18.6569 10.5 17 10.5" stroke="black" stroke-width="1.5" stroke-linecap="round" stroke-linejoin="round"/>
</svg>
