<svg width="24" height="24" viewBox="0 0 24 24" fill="none" xmlns="http://www.w3.org/2000/svg">
<path d="M5 6.5C5 7.3787 5.42728 7.84521 5.90915 8.11485C6.57251 8.48604 7.38821 8.40295 8.12567 8.21858C8.70239 8.0744 9.3026 8.05043 9.88897 8.14816L11.178 8.363C11.7222 8.45371 12.2778 8.45371 12.822 8.363L14.111 8.14816C14.6974 8.05043 15.2976 8.0744 15.8743 8.21858C16.6118 8.40295 17.4275 8.48604 18.0909 8.11485C18.5727 7.84521 19 7.3787 19 6.5C19 5.56095 18.5981 5.09266 18.1482 4.83232C17.6025 4.51658 16.9277 4.57163 16.3122 4.70839C15.4634 4.89703 14.5754 4.78772 13.7977 4.39884L13.3416 4.17082C12.4971 3.74853 11.5029 3.74853 10.6584 4.17082L10.2023 4.39884C9.42456 4.78772 8.53663 4.89703 7.68778 4.70839C7.07234 4.57163 6.3975 4.51658 5.85182 4.83232C5.40187 5.09266 5 5.56095 5 6.5Z" stroke="black" stroke-width="1.5" stroke-linecap="round" stroke-linejoin="round"/>
<path fill-rule="evenodd" clip-rule="evenodd" d="M13.8509 7.43114C14.629 7.30146 15.4255 7.33326 16.1908 7.52459L17.1819 7.77236C17.5158 7.85583 17.75 8.15582 17.75 8.49997V18C17.75 19.5188 16.5188 20.75 15 20.75H9C7.48122 20.75 6.25 19.5188 6.25 18V8.49997C6.25 8.15582 6.48422 7.85583 6.8181 7.77236L7.80921 7.52459C8.5745 7.33326 9.37098 7.30146 10.1491 7.43114L11.3013 7.62318C11.7639 7.70028 12.2361 7.70028 12.6987 7.62318L13.8509 7.43114ZM10.75 11C10.75 10.5858 10.4142 10.25 10 10.25C9.58579 10.25 9.25 10.5858 9.25 11V17C9.25 17.4142 9.58579 17.75 10 17.75C10.4142 17.75 10.75 17.4142 10.75 17V11ZM14.75 11C14.75 10.5858 14.4142 10.25 14 10.25C13.5858 10.25 13.25 10.5858 13.25 11V17C13.25 17.4142 13.5858 17.75 14 17.75C14.4142 17.75 14.75 17.4142 14.75 17V11Z" fill="black"/>
<path d="M17 16.5C18.6569 16.5 20 15.1569 20 13.5C20 11.8431 18.6569 10.5 17 10.5" stroke="black" stroke-width="1.5" stroke-linecap="round" stroke-linejoin="round"/>
</svg>
