<svg width="24" height="24" viewBox="0 0 24 24" fill="none" xmlns="http://www.w3.org/2000/svg">
<path d="M3 11H21" stroke="black" stroke-width="1.5" stroke-linecap="round" stroke-linejoin="round"/>
<path fill-rule="evenodd" clip-rule="evenodd" d="M3.59619 10.25H20.4036L19.0429 17.5068C18.7991 18.8075 17.6634 19.75 16.34 19.75H7.65974C6.3364 19.75 5.20072 18.8075 4.95684 17.5068L3.59619 10.25ZM9 12.75C9.41421 12.75 9.75 13.0858 9.75 13.5V16.5C9.75 16.9142 9.41421 17.25 9 17.25C8.58579 17.25 8.25 16.9142 8.25 16.5V13.5C8.25 13.0858 8.58579 12.75 9 12.75ZM12 12.75C12.4142 12.75 12.75 13.0858 12.75 13.5V16.5C12.75 16.9142 12.4142 17.25 12 17.25C11.5858 17.25 11.25 16.9142 11.25 16.5V13.5C11.25 13.0858 11.5858 12.75 12 12.75ZM15.75 13.5C15.75 13.0858 15.4142 12.75 15 12.75C14.5858 12.75 14.25 13.0858 14.25 13.5V16.5C14.25 16.9142 14.5858 17.25 15 17.25C15.4142 17.25 15.75 16.9142 15.75 16.5V13.5Z" fill="black"/>
<path d="M17.5 11L14.5 5" stroke="black" stroke-width="1.5" stroke-linecap="round" stroke-linejoin="round"/>
<path d="M6.5 11L9.5 5" stroke="black" stroke-width="1.5" stroke-linecap="round" stroke-linejoin="round"/>
</svg>
