<svg width="24" height="24" viewBox="0 0 24 24" fill="none" xmlns="http://www.w3.org/2000/svg">
<g clip-path="url(#clip0_1556_569)">
<path fill-rule="evenodd" clip-rule="evenodd" d="M12.52 4.5H10.98C10.76 4.5 10.65 4.75 10.79 4.92L11.75 6L12.71 4.92C12.85 4.75 12.74 4.5 12.52 4.5ZM13.75 3H12.52C14.03 3 14.83 4.78 13.83 5.91L8.42 12H16.75C17.16 12 17.5 12.34 17.5 12.75C17.5 13.16 17.16 13.5 16.75 13.5H13.32L14.34 14.78C14.59 15.1 14.54 15.58 14.22 15.84C13.9 16.09 13.42 16.04 13.16 15.72L11.75 13.95L10.34 15.72C10.08 16.04 9.6 16.09 9.28 15.84C8.96 15.58 8.91 15.1 9.16 14.78L10.18 13.5H6.75C6.75 13.5 6.65 13.49 6.6 13.48C6.26 13.41 6 13.11 6 12.75C6 12.7 6.01 12.65 6.02 12.6C6.05 12.45 6.12 12.32 6.22 12.22L10.75 7.13L9.67 5.91C8.67 4.78 9.47 3 10.98 3H9.75C6.02 3 3 6.02 3 9.75V14.75C3 15.16 3.34 15.5 3.75 15.5H6V19.75C6 20.16 6.34 20.5 6.75 20.5H16.75C17.16 20.5 17.5 20.16 17.5 19.75V15.5H19.75C20.16 15.5 20.5 15.16 20.5 14.75V9.75C20.5 6.02 17.48 3 13.75 3Z" fill="black"/>
</g>
<defs>
<clipPath id="clip0_1556_569">
<rect width="17.5" height="17.5" fill="white" transform="translate(3 3)"/>
</clipPath>
</defs>
</svg>
