<svg width="24" height="24" viewBox="0 0 24 24" fill="none" xmlns="http://www.w3.org/2000/svg">
<path d="M20.9444 20C18.7471 17.545 15.554 16 12 16C8.44597 16 5.25282 17.545 3.05554 20" stroke="black" stroke-width="1.5" stroke-linecap="round" stroke-linejoin="round"/>
<path d="M12.0001 16C11.3334 13.3333 11.2001 7.6 16.0001 6" stroke="black" stroke-width="1.5" stroke-linecap="round"/>
<path d="M16 6C17 6.16667 19 7.2 19 10" stroke="black" stroke-width="1.5" stroke-linecap="round"/>
<path d="M16 6C16.3333 7 16.6 9.4 15 11" stroke="black" stroke-width="1.5" stroke-linecap="round"/>
<path d="M16 6.00001C16.3333 5.00001 18.5 3.49993 20.5 4.49994" stroke="black" stroke-width="1.5" stroke-linecap="round"/>
<path d="M16 6.00007C16 4.00004 13 2.00006 10.5 4.00005" stroke="black" stroke-width="1.5" stroke-linecap="round"/>
<path d="M16 6.00004C14.5 5.50004 10.5 5.00006 10 8.50003" stroke="black" stroke-width="1.5" stroke-linecap="round"/>
<circle cx="5.5" cy="12.5" r="1.5" stroke="black" stroke-width="1.5" stroke-linecap="round" stroke-linejoin="round"/>
</svg>
