<svg width="24" height="24" viewBox="0 0 24 24" fill="none" xmlns="http://www.w3.org/2000/svg">
<path d="M20.9444 20C18.7471 17.545 15.554 16 12 16C8.446 16 5.25285 17.545 3.05557 20" stroke="black" stroke-width="1.5" stroke-linecap="round" stroke-linejoin="round"/>
<path d="M12 16C11.3333 13.3333 11.2 7.6 16 6" stroke="black" stroke-width="1.5" stroke-linecap="round"/>
<path d="M16 6C17 6.16667 19 7.2 19 10" stroke="black" stroke-width="1.5" stroke-linecap="round"/>
<path d="M16 6C16.3333 7 16.6 9.4 15 11" stroke="black" stroke-width="1.5" stroke-linecap="round"/>
<path d="M16 6.00007C16.3333 5.00007 18.5 3.49999 20.5 4.5" stroke="black" stroke-width="1.5" stroke-linecap="round"/>
<path d="M16 6.00001C16 3.99998 13 2 10.5 3.99999" stroke="black" stroke-width="1.5" stroke-linecap="round"/>
<path d="M16 5.99998C14.5 5.49998 10.5 5 10 8.49997" stroke="black" stroke-width="1.5" stroke-linecap="round"/>
<circle cx="5.5" cy="12.5" r="1.5" fill="black" fill-opacity="0.2" stroke="black" stroke-width="1.5" stroke-linecap="round" stroke-linejoin="round"/>
<path d="M20.9444 20C18.7471 17.545 15.554 16 12 16C8.446 16 5.25285 17.545 3.05557 20H20.9444Z" fill="black" fill-opacity="0.2"/>
</svg>
