<svg width="24" height="24" viewBox="0 0 24 24" fill="none" xmlns="http://www.w3.org/2000/svg">
<path d="M4 6C4 5.44772 4.44772 5 5 5H6V6C6 6.55228 6.44772 7 7 7H10C10.5523 7 11 6.55228 11 6V5H13V6C13 6.55228 13.4477 7 14 7H17C17.5523 7 18 6.55228 18 6V5H19C19.5523 5 20 5.44772 20 6V19C20 19.5523 19.5523 20 19 20H5C4.44772 20 4 19.5523 4 19V6Z" stroke="black" stroke-width="1.5" stroke-linejoin="round"/>
<rect x="6" y="3" width="5" height="4" rx="1" stroke="black" stroke-width="1.5" stroke-linejoin="round"/>
<rect x="13" y="3" width="5" height="4" rx="1" stroke="black" stroke-width="1.5" stroke-linejoin="round"/>
<path d="M16.4685 14.5901L20 11.5V19C20 19.5523 19.5523 20 19 20H5C4.44772 20 4 19.5523 4 19V10L15.4254 14.7606C15.7772 14.9071 16.1817 14.841 16.4685 14.5901Z" stroke="black" stroke-width="1.5" stroke-linecap="round" stroke-linejoin="round"/>
<path d="M4 10L20 11.5" stroke="black" stroke-width="1.5" stroke-linecap="round" stroke-linejoin="round"/>
</svg>
