<svg width="24" height="24" viewBox="0 0 24 24" fill="none" xmlns="http://www.w3.org/2000/svg">
<path d="M8.5 7.5H15.5V10C15.5 11.933 13.933 13.5 12 13.5C10.067 13.5 8.5 11.933 8.5 10V7.5Z" stroke="black" stroke-width="1.5" stroke-linecap="round" stroke-linejoin="round"/>
<path d="M8.5 4V7.5H15.5V4C15.5 4 13.6102 4 12 4C10.3898 4 8.5 4 8.5 4Z" fill="black" stroke="black" stroke-width="1.5" stroke-linecap="round" stroke-linejoin="round"/>
<path fill-rule="evenodd" clip-rule="evenodd" d="M5.79047 14.8306C5.3294 14.9294 5 15.3369 5 15.8084V20C5 20.5523 5.44772 21 6 21H18C18.5523 21 19 20.5523 19 20V15.8084C19 15.3369 18.6706 14.9294 18.2095 14.8306L12.2095 13.5449C12.0714 13.5153 11.9286 13.5153 11.7905 13.5449L5.79047 14.8306ZM12 15.25C11.5858 15.25 11.25 15.5858 11.25 16C11.25 16.4142 11.5868 16.75 12.001 16.75C12.4152 16.75 12.751 16.4142 12.751 16C12.751 15.5858 12.4142 15.25 12 15.25ZM12.75 18.5C12.75 18.0858 12.4142 17.75 12 17.75C11.5858 17.75 11.25 18.0868 11.25 18.501C11.25 18.9152 11.5858 19.251 12 19.251C12.4142 19.251 12.75 18.9142 12.75 18.5Z" fill="black"/>
</svg>
