<svg width="24" height="24" viewBox="0 0 24 24" fill="none" xmlns="http://www.w3.org/2000/svg">
<path fill-rule="evenodd" clip-rule="evenodd" d="M17 4H5C6.10457 4 7 4.89543 7 6V19C7 19.8443 7.5232 20.5665 8.26307 20.8599C8.32871 20.5126 8.63368 20.25 9 20.25C9.69036 20.25 10.25 19.6904 10.25 19C10.25 18.508 10.0461 18.222 9.8 18.0375C9.52208 17.8291 9.18257 17.75 9 17.75C8.58579 17.75 8.25 17.4142 8.25 17C8.25 16.5858 8.58579 16.25 9 16.25H19V6C19 4.5 17.6667 4 17 4ZM10 8.25C9.58579 8.25 9.25 8.58579 9.25 9C9.25 9.41421 9.58579 9.75 10 9.75H16C16.4142 9.75 16.75 9.41421 16.75 9C16.75 8.58579 16.4142 8.25 16 8.25H10ZM10 12.25C9.58579 12.25 9.25 12.5858 9.25 13C9.25 13.4142 9.58579 13.75 10 13.75H16C16.4142 13.75 16.75 13.4142 16.75 13C16.75 12.5858 16.4142 12.25 16 12.25H10Z" fill="black"/>
<path d="M5 4H17C17.6667 4 19 4.5 19 6V17M5 4C3.89543 4 3 4.89543 3 6C3 6.74028 3.4022 7.38663 4 7.73244M5 4C6.10457 4 7 4.89543 7 6V19C7 20.1046 7.89543 21 9 21M19 17H9C9.66667 17 11 17.5 11 19C11 20.1046 10.1046 21 9 21M19 17C20.1046 17 21 17.8954 21 19C21 20.1046 20.1046 21 19 21H9" stroke="black" stroke-width="1.5" stroke-linecap="round" stroke-linejoin="round"/>
</svg>
