<svg width="24" height="24" viewBox="0 0 24 24" fill="none" xmlns="http://www.w3.org/2000/svg">
<circle cx="12" cy="8" r="1" stroke="black" stroke-width="1.5" stroke-linecap="round" stroke-linejoin="round"/>
<circle cx="12" cy="10" r="1" stroke="black" stroke-width="1.5" stroke-linecap="round" stroke-linejoin="round"/>
<path fill-rule="evenodd" clip-rule="evenodd" d="M12 21C16.9706 21 21 16.9706 21 12C21 7.02944 16.9706 3 12 3C7.02944 3 3 7.02944 3 12C3 16.9706 7.02944 21 12 21ZM12 15C14.7614 15 17 12.7614 17 10C17 7.23858 14.7614 5 12 5C9.23858 5 7 7.23858 7 10C7 12.7614 9.23858 15 12 15Z" fill="black"/>
<path d="M20.25 12C20.25 16.5563 16.5563 20.25 12 20.25V21.75C17.3848 21.75 21.75 17.3848 21.75 12H20.25ZM12 3.75C16.5563 3.75 20.25 7.44365 20.25 12H21.75C21.75 6.61522 17.3848 2.25 12 2.25V3.75ZM3.75 12C3.75 7.44365 7.44365 3.75 12 3.75V2.25C6.61522 2.25 2.25 6.61522 2.25 12H3.75ZM12 20.25C7.44365 20.25 3.75 16.5563 3.75 12H2.25C2.25 17.3848 6.61522 21.75 12 21.75V20.25ZM16.25 10C16.25 12.3472 14.3472 14.25 12 14.25V15.75C15.1756 15.75 17.75 13.1756 17.75 10H16.25ZM12 5.75C14.3472 5.75 16.25 7.65279 16.25 10H17.75C17.75 6.82436 15.1756 4.25 12 4.25V5.75ZM7.75 10C7.75 7.65279 9.65279 5.75 12 5.75V4.25C8.82436 4.25 6.25 6.82436 6.25 10H7.75ZM12 14.25C9.65279 14.25 7.75 12.3472 7.75 10H6.25C6.25 13.1756 8.82436 15.75 12 15.75V14.25Z" fill="black"/>
</svg>
