<svg width="24" height="24" viewBox="0 0 24 24" fill="none" xmlns="http://www.w3.org/2000/svg">
<path d="M4 16L20 20" stroke="black" stroke-width="1.5" stroke-linecap="round" stroke-linejoin="round"/>
<path d="M20 16L4 20" stroke="black" stroke-width="1.5" stroke-linecap="round" stroke-linejoin="round"/>
<path fill-rule="evenodd" clip-rule="evenodd" d="M11.1504 2.25029C11.3805 2.12995 11.6865 2 12 2C12.3135 2 12.6195 2.12995 12.8496 2.25029C13.1048 2.38379 13.3805 2.56758 13.6609 2.7837C14.2234 3.21715 14.8553 3.81975 15.4487 4.52423C16.6109 5.90424 17.75 7.82571 17.75 9.75C17.75 11.5853 17.1242 13.0462 16.0444 14.0436C14.9743 15.032 13.5295 15.5 12 15.5C12.7095 15.5 13.4082 15.2727 13.9342 14.7665C14.4666 14.2543 14.75 13.5258 14.75 12.6667C14.75 11.7192 14.2211 10.8225 13.7332 10.219C13.4784 9.90389 13.2035 9.62959 12.9508 9.4267C12.8253 9.32595 12.6924 9.23244 12.5596 9.16011C12.4534 9.10225 12.2461 9 12 9C11.7539 9 11.5466 9.10225 11.4404 9.16011C11.3076 9.23244 11.1747 9.32595 11.0492 9.4267C10.7965 9.62959 10.5216 9.90389 10.2668 10.219C9.77885 10.8225 9.25 11.7192 9.25 12.6667C9.25 13.5258 9.53338 14.2543 10.0658 14.7665C10.5918 15.2727 11.2905 15.5 12 15.5C10.4705 15.5 9.02565 15.032 7.95557 14.0436C6.87581 13.0462 6.25 11.5853 6.25 9.75C6.25 7.82571 7.3891 5.90424 8.55134 4.52423C9.14465 3.81975 9.77662 3.21715 10.3391 2.7837C10.6195 2.56758 10.8952 2.38379 11.1504 2.25029Z" fill="black"/>
</svg>
