<svg width="24" height="24" viewBox="0 0 24 24" fill="none" xmlns="http://www.w3.org/2000/svg">
<path opacity="0.2" fill-rule="evenodd" clip-rule="evenodd" d="M12 15C14.7614 15 17 13.3137 17 10C17 6.68629 13 3 12 3C11 3 7 6.68629 7 10C7 13.3137 9.23858 15 12 15ZM12 15C10.8954 15 10 14.2974 10 12.9167C10 11.536 11.6 10 12 10C12.4 10 14 11.536 14 12.9167C14 14.2974 13.1046 15 12 15Z" fill="black"/>
<path d="M17 10C17 13.3137 14.7614 15 12 15C9.23858 15 7 13.3137 7 10C7 6.68629 11 3 12 3C13 3 17 6.68629 17 10Z" stroke="black" stroke-width="1.5" stroke-linecap="round" stroke-linejoin="round"/>
<path d="M14 12.9167C14 14.2974 13.1046 15 12 15C10.8954 15 10 14.2974 10 12.9167C10 11.536 11.6 10 12 10C12.4 10 14 11.536 14 12.9167Z" stroke="black" stroke-width="1.5" stroke-linecap="round" stroke-linejoin="round"/>
<path d="M4 16L20 20" stroke="black" stroke-width="1.5" stroke-linecap="round" stroke-linejoin="round"/>
<path d="M20 16L4 20" stroke="black" stroke-width="1.5" stroke-linecap="round" stroke-linejoin="round"/>
</svg>
