<svg width="24" height="24" viewBox="0 0 24 24" fill="none" xmlns="http://www.w3.org/2000/svg">
<rect x="4" y="7" width="6" height="10" rx="1" fill="black" stroke="black" stroke-width="1.5"/>
<path d="M4 4.99996C4 4.44767 4.44772 3.99996 5 3.99996H9C9.55228 3.99996 10 4.44767 10 4.99996V19C10 19.5522 9.55228 20 9 20H5C4.44772 20 4 19.5522 4 19V4.99996Z" stroke="black" stroke-width="1.5"/>
<path d="M11.2801 6.02305C11.1363 5.48983 11.4519 4.94095 11.9851 4.79708L15.847 3.75511C16.3802 3.61124 16.9291 3.92688 17.073 4.46009L20.7199 17.9768C20.8638 18.51 20.5481 19.0589 20.0149 19.2027L16.153 20.2447C15.6198 20.3886 15.0709 20.0729 14.927 19.5397L11.2801 6.02305Z" stroke="black" stroke-width="1.5"/>
<rect x="12.3977" y="10.1654" width="6" height="8.16178" rx="1" transform="rotate(-15.0993 12.3977 10.1654)" fill="black"/>
<path d="M4 7H10" stroke="black" stroke-width="1.5" stroke-linejoin="round"/>
<path d="M11.6294 7.31738L17.4222 5.75442" stroke="black" stroke-width="1.5" stroke-linejoin="round"/>
<path d="M12.3665 10.0498L18.1593 8.48685" stroke="black" stroke-width="1.5" stroke-linejoin="round"/>
<path d="M4 17H10" stroke="black" stroke-width="1.5" stroke-linejoin="round"/>
<path d="M14.5776 18.2441L20.3705 16.6812" stroke="black" stroke-width="1.5" stroke-linejoin="round"/>
</svg>
