<svg width="24" height="24" viewBox="0 0 24 24" fill="none" xmlns="http://www.w3.org/2000/svg">
<path fill-rule="evenodd" clip-rule="evenodd" d="M3.25 12C3.25 7.16751 7.16751 3.25 12 3.25C16.8325 3.25 20.75 7.16751 20.75 12C20.75 16.8325 16.8325 20.75 12 20.75C7.16751 20.75 3.25 16.8325 3.25 12ZM14.25 8C14.25 7.58579 14.5858 7.25 15 7.25H15.01C15.4242 7.25 15.76 7.58579 15.76 8C15.76 8.41421 15.4242 8.75 15.01 8.75H15C14.5858 8.75 14.25 8.41421 14.25 8ZM12.25 10C12.25 9.58579 12.5858 9.25 13 9.25H13.01C13.4242 9.25 13.76 9.58579 13.76 10C13.76 10.4142 13.4242 10.75 13.01 10.75H13C12.5858 10.75 12.25 10.4142 12.25 10ZM16 10.25C15.5858 10.25 15.25 10.5858 15.25 11C15.25 11.4142 15.5858 11.75 16 11.75H16.01C16.4242 11.75 16.76 11.4142 16.76 11C16.76 10.5858 16.4242 10.25 16.01 10.25H16Z" fill="black"/>
</svg>
