<svg width="24" height="24" viewBox="0 0 24 24" fill="none" xmlns="http://www.w3.org/2000/svg">
<path d="M12 20C16.9706 20 21 15.9706 21 11H3C3 15.9706 7.02944 20 12 20Z" fill="black" stroke="black" stroke-width="1.5" stroke-linecap="round" stroke-linejoin="round"/>
<path d="M9 21H15" stroke="black" stroke-width="1.5" stroke-linecap="round" stroke-linejoin="round"/>
<path d="M8.5 9L8.73803 8.28592C8.90577 7.7827 8.86673 7.23347 8.62952 6.75903L8.5 6.5L8.37048 6.24097C8.13327 5.76653 8.09423 5.2173 8.26197 4.71408L8.5 4" stroke="black" stroke-width="1.5" stroke-linecap="round" stroke-linejoin="round"/>
<path d="M12 9L12.238 8.28592C12.4058 7.7827 12.3667 7.23347 12.1295 6.75903L12 6.5L11.8705 6.24097C11.6333 5.76653 11.5942 5.2173 11.762 4.71408L12 4" stroke="black" stroke-width="1.5" stroke-linecap="round" stroke-linejoin="round"/>
<path d="M15.5 9L15.738 8.28592C15.9058 7.7827 15.8667 7.23347 15.6295 6.75903L15.5 6.5L15.3705 6.24097C15.1333 5.76653 15.0942 5.2173 15.262 4.71408L15.5 4" stroke="black" stroke-width="1.5" stroke-linecap="round" stroke-linejoin="round"/>
</svg>
