<svg width="24" height="24" viewBox="0 0 24 24" fill="none" xmlns="http://www.w3.org/2000/svg">
<rect width="24" height="24" fill="white"/>
<path d="M7.8188 10.9749C8.21658 10.6908 8.76148 10.7359 9.10714 11.0816L12.8589 14.8333C13.2045 15.179 13.2496 15.7239 12.9655 16.1216L10.6085 19.4215C10.2493 19.9243 9.52458 19.9843 9.08763 19.5473L4.3931 14.8528C3.95615 14.4159 4.01613 13.6911 4.51896 13.332L7.8188 10.9749Z" fill="black" stroke="black" stroke-width="1.5"/>
<path d="M10.983 12.9574L19.3972 4.54321" stroke="black" stroke-width="1.5" stroke-linecap="round" stroke-linejoin="round"/>
<path d="M9.74556 17.3768C10.0384 17.0839 10.0384 16.6091 9.74556 16.3162C9.45266 16.0233 8.97779 16.0233 8.6849 16.3162L9.74556 17.3768ZM7.70848 19.4139L9.74556 17.3768L8.6849 16.3162L6.64782 18.3532L7.70848 19.4139Z" fill="white"/>
<path d="M8.33136 14.5484C8.62425 14.2555 8.62425 13.7806 8.33136 13.4877C8.03846 13.1948 7.56359 13.1948 7.2707 13.4877L8.33136 14.5484ZM5.23362 17.6461L8.33136 14.5484L7.2707 13.4877L4.17296 16.5855L5.23362 17.6461Z" fill="white"/>
</svg>
