<svg width="24" height="24" viewBox="0 0 24 24" fill="none" xmlns="http://www.w3.org/2000/svg">
<path d="M10.983 12.9574L19.3972 4.54321" stroke="black" stroke-width="1.5" stroke-linecap="round" stroke-linejoin="round"/>
<path fill-rule="evenodd" clip-rule="evenodd" d="M7.38282 10.3646C8.07894 9.86733 9.03251 9.94625 9.63742 10.5512L13.3892 14.3029C13.9941 14.9078 14.073 15.8614 13.5757 16.5575L11.2187 19.8573C10.5902 20.7373 9.32192 20.8423 8.55725 20.0776L7.80097 19.3213L9.74545 17.3768C10.0383 17.0839 10.0383 16.6091 9.74545 16.3162C9.45255 16.0233 8.97768 16.0233 8.68479 16.3162L6.74031 18.2606L5.67965 17.2L8.33125 14.5484C8.62414 14.2555 8.62414 13.7806 8.33125 13.4877C8.03835 13.1948 7.56348 13.1948 7.27059 13.4877L4.61899 16.1393L3.86272 15.3831C3.09806 14.6184 3.20302 13.3501 4.08299 12.7216L7.38282 10.3646Z" fill="black"/>
</svg>
