<svg width="24" height="24" viewBox="0 0 24 24" fill="none" xmlns="http://www.w3.org/2000/svg">
<path d="M3 21H21" stroke="black" stroke-width="1.5" stroke-linecap="round" stroke-linejoin="round"/>
<path d="M10 17C10 16.4477 10.4477 16 11 16H13C13.5523 16 14 16.4477 14 17V21H10V17Z" stroke="black" stroke-width="1.5" stroke-linejoin="round"/>
<path fill-rule="evenodd" clip-rule="evenodd" d="M5.25 5C5.25 3.48122 6.48122 2.25 8 2.25H16C17.5188 2.25 18.75 3.48122 18.75 5V21C18.75 21.4142 18.4142 21.75 18 21.75H14C13.5858 21.75 13.25 21.4142 13.25 21V17C13.25 16.8619 13.1381 16.75 13 16.75H11C10.8619 16.75 10.75 16.8619 10.75 17V21C10.75 21.4142 10.4142 21.75 10 21.75H6C5.58579 21.75 5.25 21.4142 5.25 21V5ZM9 5.25C8.58579 5.25 8.25 5.58579 8.25 6C8.25 6.41421 8.58579 6.75 9 6.75H10C10.4142 6.75 10.75 6.41421 10.75 6C10.75 5.58579 10.4142 5.25 10 5.25H9ZM14 5.25C13.5858 5.25 13.25 5.58579 13.25 6C13.25 6.41421 13.5858 6.75 14 6.75H15C15.4142 6.75 15.75 6.41421 15.75 6C15.75 5.58579 15.4142 5.25 15 5.25H14ZM14 8.25C13.5858 8.25 13.25 8.58579 13.25 9C13.25 9.41421 13.5858 9.75 14 9.75H15C15.4142 9.75 15.75 9.41421 15.75 9C15.75 8.58579 15.4142 8.25 15 8.25H14ZM13.25 12C13.25 11.5858 13.5858 11.25 14 11.25H15C15.4142 11.25 15.75 11.5858 15.75 12C15.75 12.4142 15.4142 12.75 15 12.75H14C13.5858 12.75 13.25 12.4142 13.25 12ZM8.25 9C8.25 8.58579 8.58579 8.25 9 8.25H10C10.4142 8.25 10.75 8.58579 10.75 9C10.75 9.41421 10.4142 9.75 10 9.75H9C8.58579 9.75 8.25 9.41421 8.25 9ZM9 11.25C8.58579 11.25 8.25 11.5858 8.25 12C8.25 12.4142 8.58579 12.75 9 12.75H10C10.4142 12.75 10.75 12.4142 10.75 12C10.75 11.5858 10.4142 11.25 10 11.25H9Z" fill="black"/>
</svg>
