<svg width="24" height="24" viewBox="0 0 24 24" fill="none" xmlns="http://www.w3.org/2000/svg">
<path d="M5 6C5 4.89543 5.89543 4 7 4H17C18.1046 4 19 4.89543 19 6V12H5V6Z" stroke="black" stroke-width="1.5" stroke-linecap="round" stroke-linejoin="round"/>
<path d="M7 19V21" stroke="black" stroke-width="1.5" stroke-linecap="round" stroke-linejoin="round"/>
<path d="M17 19V21" stroke="black" stroke-width="1.5" stroke-linecap="round" stroke-linejoin="round"/>
<path d="M19 7L21 8" stroke="black" stroke-width="1.5" stroke-linecap="round" stroke-linejoin="round"/>
<path d="M5 7L3 8" stroke="black" stroke-width="1.5" stroke-linecap="round" stroke-linejoin="round"/>
<path d="M11 6H13" stroke="black" stroke-width="1.5" stroke-linecap="round" stroke-linejoin="round"/>
<path fill-rule="evenodd" clip-rule="evenodd" d="M4.25 12C4.25 11.5858 4.58579 11.25 5 11.25H19C19.4142 11.25 19.75 11.5858 19.75 12V17C19.75 18.5188 18.5188 19.75 17 19.75H7C5.48122 19.75 4.25 18.5188 4.25 17V12ZM8.48999 14.75C8.07578 14.75 7.73999 15.0858 7.73999 15.5C7.73999 15.9142 8.07578 16.25 8.48999 16.25H8.49999C8.9142 16.25 9.24999 15.9142 9.24999 15.5C9.24999 15.0858 8.9142 14.75 8.49999 14.75H8.48999ZM15.49 14.75C15.0758 14.75 14.74 15.0858 14.74 15.5C14.74 15.9142 15.0758 16.25 15.49 16.25H15.5C15.9142 16.25 16.25 15.9142 16.25 15.5C16.25 15.0858 15.9142 14.75 15.5 14.75H15.49Z" fill="black"/>
</svg>
