<svg width="24" height="24" viewBox="0 0 24 24" fill="none" xmlns="http://www.w3.org/2000/svg">
<path d="M6.07241 7.4253C6.3262 6.57934 7.10484 6 7.98806 6H16.0119C16.8952 6 17.6738 6.57934 17.9276 7.4253L19 11H5L6.07241 7.4253Z" stroke="black" stroke-width="1.5" stroke-linecap="round" stroke-linejoin="round"/>
<path d="M6 18V20" stroke="black" stroke-width="1.5" stroke-linecap="round" stroke-linejoin="round"/>
<path d="M18 18V20" stroke="black" stroke-width="1.5" stroke-linecap="round" stroke-linejoin="round"/>
<path d="M10 4H14" stroke="black" stroke-width="1.5" stroke-linecap="round" stroke-linejoin="round"/>
<path fill-rule="evenodd" clip-rule="evenodd" d="M3.25 13C3.25 11.4812 4.48122 10.25 6 10.25H18C19.5188 10.25 20.75 11.4812 20.75 13V16C20.75 17.5188 19.5188 18.75 18 18.75H6C4.48122 18.75 3.25 17.5188 3.25 16V13ZM7 13.75C6.58579 13.75 6.25 14.0858 6.25 14.5C6.25 14.9142 6.58579 15.25 7 15.25H8C8.41421 15.25 8.75 14.9142 8.75 14.5C8.75 14.0858 8.41421 13.75 8 13.75H7ZM16 13.75C15.5858 13.75 15.25 14.0858 15.25 14.5C15.25 14.9142 15.5858 15.25 16 15.25H17C17.4142 15.25 17.75 14.9142 17.75 14.5C17.75 14.0858 17.4142 13.75 17 13.75H16Z" fill="black"/>
<path d="M19 11L20.5 9.5" stroke="black" stroke-width="1.5" stroke-linecap="round" stroke-linejoin="round"/>
<path d="M5 11L3.5 9.5" stroke="black" stroke-width="1.5" stroke-linecap="round" stroke-linejoin="round"/>
</svg>
