<svg width="24" height="24" viewBox="0 0 24 24" fill="none" xmlns="http://www.w3.org/2000/svg">
<path d="M6.80292 8.99951L17.1952 14.9995" stroke="black" stroke-width="1.5" stroke-linecap="round" stroke-linejoin="round"/>
<path d="M6.80292 8.99951L17.1952 14.9995" stroke="black" stroke-width="1.5" stroke-linecap="round" stroke-linejoin="round"/>
<path d="M18.5622 14.634L20.9828 16.0315L19.9828 17.7635L17.5622 16.366L17.6262 15.2529L18.5622 14.634Z" stroke="black" stroke-width="1.5" stroke-linecap="round" stroke-linejoin="round"/>
<path d="M4.00323 6.22839L6.43785 7.63402L6.36787 8.75297L5.43785 9.36607L3.00323 7.96044L4.00323 6.22839Z" stroke="black" stroke-width="1.5" stroke-linecap="round" stroke-linejoin="round"/>
<path fill-rule="evenodd" clip-rule="evenodd" d="M12.5323 2.47162L12.001 2.999C12.2666 2.73538 12.3993 2.60348 12.4657 2.53752C12.5313 2.47235 12.5322 2.47153 12.5323 2.47161L12.5323 2.47162ZM12 21C12.5323 21.5284 12.5329 21.5277 12.5331 21.5276L12.5343 21.5264L12.5377 21.5228L12.5489 21.5114C12.5582 21.5018 12.5713 21.4884 12.5877 21.4711C12.6206 21.4366 12.6674 21.3868 12.7259 21.3226C12.843 21.1943 13.0077 21.0079 13.204 20.7695C13.5961 20.2933 14.1174 19.6061 14.6391 18.7564C15.6757 17.0682 16.75 14.6794 16.75 12C16.75 9.32064 15.6757 6.93181 14.6391 5.24361C14.1174 4.39393 13.5961 3.70671 13.204 3.23053C13.0077 2.99211 12.843 2.80571 12.7259 2.67737C12.6674 2.61317 12.6206 2.56344 12.5877 2.52891C12.5713 2.51164 12.5582 2.49817 12.5489 2.4886L12.5377 2.47716L12.5343 2.47364L12.5331 2.47245L12.5323 2.47162M12 21L11.4674 21.528L11.4657 21.5264L11.4623 21.5228L11.4511 21.5114L11.4357 21.4955L11.4123 21.4711C11.3794 21.4366 11.3326 21.3868 11.2741 21.3226C11.157 21.1943 10.9923 21.0079 10.796 20.7695C10.4039 20.2933 9.88256 19.6061 9.36086 18.7564C8.32431 17.0682 7.25 14.6794 7.25 12C7.25 9.32064 8.32431 6.93181 9.36086 5.24361C9.88256 4.39393 10.4039 3.70671 10.796 3.23053C10.9923 2.99211 11.157 2.80571 11.2741 2.67737C11.3326 2.61317 11.3794 2.56344 11.4123 2.52891C11.4287 2.51164 11.4418 2.49817 11.4511 2.4886L11.4623 2.47716L11.4657 2.47364L11.4669 2.47245C11.4671 2.47225 11.4677 2.47162 12 3L11.4677 2.47162C11.6085 2.32977 11.8001 2.25 12 2.25C12.1999 2.25 12.3915 2.32977 12.5323 2.47162M12 21C11.4677 21.5284 11.4676 21.5282 11.4674 21.528C11.6082 21.6699 11.8001 21.75 12 21.75C12.1999 21.75 12.3915 21.6702 12.5323 21.5284L12 21ZM12 15C12.5523 15 13 13.6569 13 12C13 10.3431 12.5523 9 12 9C11.4477 9 11 10.3431 11 12C11 13.6569 11.4477 15 12 15Z" fill="black"/>
</svg>
