<svg width="24" height="24" viewBox="0 0 24 24" fill="none" xmlns="http://www.w3.org/2000/svg">
<path d="M16 12C16 16.9706 12 21 12 21C12 21 8 16.9706 8 12C8 7.02944 12 3 12 3C12 3 16 7.02944 16 12Z" stroke="black" stroke-width="1.5" stroke-linecap="round" stroke-linejoin="round"/>
<path d="M6.80292 8.99951L17.1952 14.9995" stroke="black" stroke-width="1.5" stroke-linecap="round" stroke-linejoin="round"/>
<path d="M18.5622 14.634L20.9828 16.0315L19.9828 17.7635L17.5622 16.366L17.6262 15.2529L18.5622 14.634Z" stroke="black" stroke-width="1.5" stroke-linecap="round" stroke-linejoin="round"/>
<path d="M4.00323 6.22839L6.43785 7.63402L6.36787 8.75297L5.43785 9.36607L3.00323 7.96044L4.00323 6.22839Z" stroke="black" stroke-width="1.5" stroke-linecap="round" stroke-linejoin="round"/>
<ellipse cx="12" cy="12" rx="1" ry="3" stroke="black" stroke-width="1.5" stroke-linecap="round" stroke-linejoin="round"/>
</svg>
