<svg width="24" height="24" viewBox="0 0 24 24" fill="none" xmlns="http://www.w3.org/2000/svg">
<path fill-rule="evenodd" clip-rule="evenodd" d="M12.2647 3.85196C12.3465 3.4459 12.7419 3.18301 13.148 3.26478L18.4475 4.33199C19.966 4.63779 20.9325 6.13686 20.5842 7.64621L17.8965 19.2932C17.5562 20.7679 16.0884 21.6904 14.6121 21.3576L11.835 20.7314C11.4309 20.6403 11.1772 20.2389 11.2683 19.8349C11.3594 19.4308 11.7608 19.1771 12.1649 19.2682L14.942 19.8943C15.613 20.0456 16.2802 19.6263 16.4349 18.956L19.1226 7.30894C19.2809 6.62287 18.8416 5.94147 18.1513 5.80247L12.8519 4.73526C12.4458 4.65349 12.1829 4.25802 12.2647 3.85196Z" fill="black"/>
<path fill-rule="evenodd" clip-rule="evenodd" d="M3.25 6C3.25 4.48122 4.48122 3.25 6 3.25H13C14.5188 3.25 15.75 4.48122 15.75 6V18C15.75 19.5188 14.5188 20.75 13 20.75H6C4.48122 20.75 3.25 19.5188 3.25 18V6ZM9.24264 8.57103C9.40099 8.476 9.59882 8.476 9.75717 8.57101L9.75822 8.57164L9.76018 8.57283L9.76678 8.57682L9.79033 8.59124C9.81049 8.60366 9.83941 8.62164 9.87599 8.64482C9.94911 8.69117 10.053 8.75841 10.1788 8.84362C10.4298 9.01365 10.7707 9.25707 11.129 9.55029C11.4863 9.84258 11.8686 10.1906 12.1981 10.5707C12.524 10.9468 12.8201 11.3792 12.9743 11.8416C13.1382 12.3335 13.1043 12.8153 12.9002 13.2233C12.6989 13.626 12.3487 13.9236 11.9356 14.0889C11.4306 14.2909 10.835 14.2985 10.25 14.0798V14.5C10.25 14.9142 9.91421 15.25 9.5 15.25C9.08579 15.25 8.75 14.9142 8.75 14.5V14.0797C8.16497 14.2985 7.56923 14.2908 7.06421 14.0888C6.65109 13.9236 6.30096 13.6259 6.09959 13.2232C5.89556 12.8152 5.86162 12.3334 6.02558 11.8416C6.17974 11.3792 6.47587 10.9468 6.80176 10.5708C7.1312 10.1907 7.51356 9.84267 7.87079 9.55037C8.22916 9.25714 8.57004 9.01371 8.82103 8.84366C8.94681 8.75845 9.05071 8.69119 9.12383 8.64484C9.1604 8.62166 9.18932 8.60367 9.20948 8.59126L9.23303 8.57684L9.23963 8.57284L9.24159 8.57166L9.24264 8.57103ZM13 5.25C13.4142 5.25 13.75 5.58579 13.75 6V7C13.75 7.41421 13.4142 7.75 13 7.75C12.5858 7.75 12.25 7.41421 12.25 7V6C12.25 5.58579 12.5858 5.25 13 5.25ZM6.75 17C6.75 16.5858 6.41421 16.25 6 16.25C5.58579 16.25 5.25 16.5858 5.25 17V18C5.25 18.4142 5.58579 18.75 6 18.75C6.41421 18.75 6.75 18.4142 6.75 18V17Z" fill="black"/>
</svg>
