<svg width="24" height="24" viewBox="0 0 24 24" fill="none" xmlns="http://www.w3.org/2000/svg">
<path d="M13 4L18.2995 5.06721C19.4039 5.28961 20.1068 6.37984 19.8534 7.47755L17.1658 19.1246C16.9183 20.197 15.8508 20.868 14.7771 20.6259L12 19.9998" stroke="black" stroke-width="1.5" stroke-linecap="round"/>
<path d="M4 6C4 4.89543 4.89543 4 6 4H13C14.1046 4 15 4.89543 15 6V18C15 19.1046 14.1046 20 13 20H6C4.89543 20 4 19.1046 4 18V6Z" stroke="black" stroke-width="1.5"/>
<path d="M6.50006 11.9998C7.00006 10.5 9.50006 8.99976 9.50006 8.99976C9.50006 8.99976 12.0001 10.4998 12.5001 11.9998C13.0001 13.4997 11.0001 14.4995 9.50006 13C8.00006 14.4995 6.00006 13.4995 6.50006 11.9998Z" stroke="black" stroke-linejoin="round"/>
<path d="M9.5 13.5V14.5" stroke="black" stroke-width="1.5" stroke-linecap="round" stroke-linejoin="round"/>
<path d="M6 17V18" stroke="black" stroke-width="1.5" stroke-linecap="round" stroke-linejoin="round"/>
<path d="M13 6V7" stroke="black" stroke-width="1.5" stroke-linecap="round" stroke-linejoin="round"/>
</svg>
