<svg width="24" height="24" viewBox="0 0 24 24" fill="none" xmlns="http://www.w3.org/2000/svg">
<path d="M5.5 4.73205C6.05228 3.77547 7.27547 3.44772 8.23205 4L16.0263 8.5C16.5046 8.77614 16.6684 9.38773 16.3923 9.86603L13.8923 14.1962C13.6162 14.6744 13.0046 14.8383 12.5263 14.5622L4.73205 10.0622C3.77547 9.50989 3.44772 8.28671 4 7.33013L5.5 4.73205Z" stroke="black" stroke-width="1.5" stroke-linecap="round" stroke-linejoin="round"/>
<path d="M15.8923 10.732L18.683 11.1962C19.3717 11.3108 19.734 12.078 19.3849 12.6827L17.8279 15.3795C17.4788 15.9841 16.6333 16.054 16.1897 15.5148L14.3923 13.3301L15.8923 10.732Z" stroke="black" stroke-width="1.5" stroke-linecap="round" stroke-linejoin="round"/>
<path d="M9.5 13L8.8323 15.2341C8.62682 15.9217 8.06876 16.4464 7.36989 16.6093L4.65153 17.2426" stroke="black" stroke-width="1.5" stroke-linecap="round" stroke-linejoin="round"/>
<path d="M4 15V19.5" stroke="black" stroke-width="1.5" stroke-linecap="round" stroke-linejoin="round"/>
<path d="M7.5 6.5H7.51" stroke="black" stroke-width="1.5" stroke-linecap="round" stroke-linejoin="round"/>
</svg>
