<svg width="24" height="24" viewBox="0 0 24 24" fill="none" xmlns="http://www.w3.org/2000/svg">
<path d="M15.8923 10.732L18.683 11.1962C19.3717 11.3108 19.734 12.078 19.3849 12.6827L17.8279 15.3795C17.4788 15.9841 16.6333 16.054 16.1897 15.5148L14.3923 13.3301L15.8923 10.732Z" stroke="black" stroke-width="1.5" stroke-linecap="round" stroke-linejoin="round"/>
<path d="M9.5 13L8.8323 15.2341C8.62682 15.9217 8.06876 16.4464 7.36989 16.6093L4.65153 17.2426" stroke="black" stroke-width="1.5" stroke-linecap="round" stroke-linejoin="round"/>
<path d="M4 15V19.5" stroke="black" stroke-width="1.5" stroke-linecap="round" stroke-linejoin="round"/>
<path fill-rule="evenodd" clip-rule="evenodd" d="M4.85046 4.35703C5.60985 3.04172 7.29172 2.59107 8.60703 3.35046L16.4013 7.85046C17.2383 8.33371 17.525 9.40399 17.0418 10.241L14.5418 14.5711C14.0585 15.4081 12.9883 15.6949 12.1513 15.2117L4.35703 10.7117C3.04172 9.95228 2.59107 8.27041 3.35046 6.9551L4.85046 4.35703ZM7.5 5.75C7.08579 5.75 6.75 6.08579 6.75 6.5C6.75 6.91421 7.08579 7.25 7.5 7.25H7.51C7.92421 7.25 8.26 6.91421 8.26 6.5C8.26 6.08579 7.92421 5.75 7.51 5.75H7.5Z" fill="black"/>
</svg>
