<svg width="24" height="24" viewBox="0 0 24 24" fill="none" xmlns="http://www.w3.org/2000/svg">
<path d="M3 11H4.71429C4.87208 11 5 11.1279 5 11.2857V11.2857C5 13.3371 6.66294 15 8.71429 15H15.2857C17.3371 15 19 13.3371 19 11.2857V11.2857C19 11.1279 19.1279 11 19.2857 11H21" stroke="black" stroke-width="1.5" stroke-linecap="round" stroke-linejoin="round"/>
<path d="M7 21V21C7 19.8954 7.89543 19 9 19H15C16.1046 19 17 19.8954 17 21V21" stroke="black" stroke-width="1.5" stroke-linecap="round" stroke-linejoin="round"/>
<path d="M12 15V21" stroke="black" stroke-width="1.5" stroke-linecap="round" stroke-linejoin="round"/>
<path d="M8.03101 4.75193C8.15612 3.75107 9.00692 3 10.0156 3H13.9844C14.9931 3 15.8439 3.75107 15.969 4.75193L16.719 10.7519C16.8682 11.9456 15.9374 13 14.7344 13H9.26556C8.06257 13 7.1318 11.9456 7.28101 10.7519L8.03101 4.75193Z" stroke="black" stroke-width="1.5" stroke-linecap="round" stroke-linejoin="round"/>
</svg>
