<svg width="24" height="24" viewBox="0 0 24 24" fill="none" xmlns="http://www.w3.org/2000/svg">
<path d="M5 6C5 4.89543 5.89543 4 7 4H13C14.1046 4 15 4.89543 15 6V20H5V6Z" stroke="black" stroke-width="1.5" stroke-linejoin="round"/>
<path d="M3 20H18" stroke="black" stroke-width="1.5" stroke-linecap="round" stroke-linejoin="round"/>
<path d="M15 11H16C16.5523 11 17 11.4477 17 12V15.5C17 16.3284 17.6716 17 18.5 17V17C19.3284 17 20 16.3284 20 15.5V8.68854C20 8.24768 19.8249 7.82487 19.5131 7.51313L17.5 5.5" stroke="black" stroke-width="1.5" stroke-linecap="round" stroke-linejoin="round"/>
<path d="M10 15L11.5 12H8.5L10 9" stroke="black" stroke-width="1.5" stroke-linecap="round" stroke-linejoin="round"/>
</svg>
