<svg width="24" height="24" viewBox="0 0 24 24" fill="none" xmlns="http://www.w3.org/2000/svg">
<path d="M3 20H18" stroke="black" stroke-width="1.5" stroke-linecap="round" stroke-linejoin="round"/>
<path d="M15 11H16C16.5523 11 17 11.4477 17 12V15.5C17 16.3284 17.6716 17 18.5 17V17C19.3284 17 20 16.3284 20 15.5V8.68854C20 8.24768 19.8249 7.82487 19.5131 7.51313L17.5 5.5" stroke="black" stroke-width="1.5" stroke-linecap="round" stroke-linejoin="round"/>
<path fill-rule="evenodd" clip-rule="evenodd" d="M4.25 6C4.25 4.48122 5.48122 3.25 7 3.25H13C14.5188 3.25 15.75 4.48122 15.75 6V20C15.75 20.4142 15.4142 20.75 15 20.75H5C4.58579 20.75 4.25 20.4142 4.25 20V6ZM10.6708 9.33545C10.8561 8.96497 10.7059 8.51446 10.3354 8.32922C9.96493 8.14398 9.51442 8.29415 9.32918 8.66463L7.82918 11.6646C7.71293 11.8971 7.72536 12.1732 7.86201 12.3943C7.99867 12.6155 8.24007 12.75 8.5 12.75H10.2865L9.32918 14.6646C9.14394 15.0351 9.29411 15.4856 9.66459 15.6709C10.0351 15.8561 10.4856 15.7059 10.6708 15.3355L12.1708 12.3355C12.2871 12.103 12.2746 11.8269 12.138 11.6057C12.0013 11.3846 11.7599 11.25 11.5 11.25H9.71353L10.6708 9.33545Z" fill="black"/>
</svg>
