<svg width="24" height="24" viewBox="0 0 24 24" fill="none" xmlns="http://www.w3.org/2000/svg">
<path fill-rule="evenodd" clip-rule="evenodd" d="M5.10559 5.10571C8.91321 1.2981 15.0866 1.2981 18.8942 5.10571C22.7018 8.91332 22.7018 15.0867 18.8942 18.8943C15.8449 21.9436 11.2799 22.5499 7.6275 20.7174C7.61568 20.7157 7.59046 20.7132 7.54804 20.7136C7.45158 20.7146 7.31659 20.7302 7.13781 20.765C6.83101 20.8247 6.48146 20.9225 6.09129 21.0317C6.01894 21.052 5.9452 21.0726 5.87007 21.0935C5.41667 21.2194 4.90634 21.3551 4.45494 21.4066C4.22751 21.4325 3.97757 21.442 3.73527 21.4024C3.49201 21.3627 3.20377 21.2645 2.96955 21.0303C2.73534 20.7961 2.63714 20.5079 2.59745 20.2646C2.55791 20.0223 2.56739 19.7724 2.59332 19.5449C2.64478 19.0935 2.78051 18.5832 2.9064 18.1298C2.92724 18.0548 2.94786 17.9811 2.96808 17.9088L2.96815 17.9086L2.96815 17.9086L2.96816 17.9086C3.07736 17.5184 3.17519 17.1689 3.23492 16.8621C3.26973 16.6833 3.28533 16.5483 3.2863 16.4518C3.28672 16.4094 3.28415 16.3842 3.28252 16.3724C1.44994 12.72 2.05628 8.15502 5.10559 5.10571ZM8 11.25C8.41421 11.25 8.75 11.5858 8.75 12C8.75 12.4142 8.41421 12.751 8 12.751C7.58579 12.751 7.25 12.4152 7.25 12.001C7.25 11.5868 7.58579 11.25 8 11.25ZM12 11.25C12.4142 11.25 12.75 11.5858 12.75 12C12.75 12.4142 12.4142 12.751 12 12.751C11.5858 12.751 11.25 12.4152 11.25 12.001C11.25 11.5868 11.5858 11.25 12 11.25ZM16.75 12C16.75 11.5858 16.4142 11.25 16 11.25C15.5858 11.25 15.25 11.5868 15.25 12.001C15.25 12.4152 15.5858 12.751 16 12.751C16.4142 12.751 16.75 12.4142 16.75 12Z" fill="black"/>
</svg>
