<svg width="24" height="24" viewBox="0 0 24 24" fill="none" xmlns="http://www.w3.org/2000/svg">
<rect width="24" height="24" fill="white"/>
<path d="M21.5 5.78846C21.5 4.86856 20.8725 4.06729 19.9794 3.84677L14.9794 2.6122C13.7186 2.30088 12.5 3.25515 12.5 4.55389V19.4461C12.5 20.7449 13.7186 21.6991 14.9794 21.3878L19.9794 20.1532C20.8725 19.9327 21.5 19.1314 21.5 18.2115V5.78846Z" fill="black" stroke="black" stroke-width="1.5" stroke-linejoin="round"/>
<path d="M12.5 4H8.5C7.39543 4 6.5 4.89543 6.5 6V8M12.5 20H8.5C7.39543 20 6.5 19.1046 6.5 18V16" stroke="black" stroke-width="1.5" stroke-linecap="round" stroke-linejoin="round"/>
<path d="M3 12H8" stroke="black" stroke-width="1.5" stroke-linecap="round" stroke-linejoin="round"/>
<path d="M15 12H14.9" stroke="white" stroke-width="1.5" stroke-linecap="round" stroke-linejoin="round"/>
<path d="M7 10L9.5 12L7 14" stroke="black" stroke-width="1.5" stroke-linecap="round" stroke-linejoin="round"/>
</svg>
