<svg width="24" height="24" viewBox="0 0 24 24" fill="none" xmlns="http://www.w3.org/2000/svg">
<rect width="24" height="24" fill="white"/>
<circle cx="12" cy="13" r="4" stroke="black" stroke-width="1.5"/>
<path d="M12 13C10.8954 13 10 12.1046 10 11C10 9.89543 10.8954 9 12 9" stroke="black" stroke-width="1.5"/>
<path d="M12 17C13.1046 17 14 16.1046 14 15C14 13.8954 13.1046 13 12 13" stroke="black" stroke-width="1.5"/>
<path d="M4.5 6H7" stroke="black" stroke-width="1.5" stroke-linecap="round" stroke-linejoin="round"/>
<path d="M17 6H17.001" stroke="black" stroke-width="1.5" stroke-linecap="round" stroke-linejoin="round"/>
<path fill-rule="evenodd" clip-rule="evenodd" d="M6 3C4.89543 3 4 3.89543 4 5V19C4 20.1046 4.89543 21 6 21H18C19.1046 21 20 20.1046 20 19V5C20 3.89543 19.1046 3 18 3H6ZM12 17C14.2091 17 16 15.2091 16 13C16 10.7909 14.2091 9 12 9C9.79086 9 8 10.7909 8 13C8 15.2091 9.79086 17 12 17Z" fill="black" fill-opacity="0.2"/>
<path d="M4.75 5C4.75 4.30964 5.30964 3.75 6 3.75V2.25C4.48122 2.25 3.25 3.48122 3.25 5H4.75ZM4.75 19V5H3.25V19H4.75ZM6 20.25C5.30964 20.25 4.75 19.6904 4.75 19H3.25C3.25 20.5188 4.48122 21.75 6 21.75V20.25ZM18 20.25H6V21.75H18V20.25ZM19.25 19C19.25 19.6904 18.6904 20.25 18 20.25V21.75C19.5188 21.75 20.75 20.5188 20.75 19H19.25ZM19.25 5V19H20.75V5H19.25ZM18 3.75C18.6904 3.75 19.25 4.30964 19.25 5H20.75C20.75 3.48122 19.5188 2.25 18 2.25V3.75ZM6 3.75H18V2.25H6V3.75ZM15.25 13C15.25 14.7949 13.7949 16.25 12 16.25V17.75C14.6234 17.75 16.75 15.6234 16.75 13H15.25ZM12 9.75C13.7949 9.75 15.25 11.2051 15.25 13H16.75C16.75 10.3766 14.6234 8.25 12 8.25V9.75ZM8.75 13C8.75 11.2051 10.2051 9.75 12 9.75V8.25C9.37665 8.25 7.25 10.3766 7.25 13H8.75ZM12 16.25C10.2051 16.25 8.75 14.7949 8.75 13H7.25C7.25 15.6234 9.37665 17.75 12 17.75V16.25Z" fill="black"/>
</svg>
