<svg width="24" height="24" viewBox="0 0 24 24" fill="none" xmlns="http://www.w3.org/2000/svg">
<path d="M21.5 5.78851C21.5 4.86861 20.8725 4.06734 19.9794 3.84683L14.9794 2.61226C13.7186 2.30093 12.5 3.2552 12.5 4.55394V19.4462C12.5 20.7449 13.7186 21.6992 14.9794 21.3878L19.9794 20.1533C20.8725 19.9328 21.5 19.1315 21.5 18.2116V5.78851Z" stroke="black" stroke-width="1.5" stroke-linejoin="round"/>
<path d="M12.5 4H8.5C7.39543 4 6.5 4.89543 6.5 6V8M12.5 20H8.5C7.39543 20 6.5 19.1046 6.5 18V16" stroke="black" stroke-width="1.5" stroke-linecap="round" stroke-linejoin="round"/>
<path d="M3 12H8" stroke="black" stroke-width="1.5" stroke-linecap="round" stroke-linejoin="round"/>
<path d="M15 12H14.9" stroke="black" stroke-width="1.5" stroke-linecap="round" stroke-linejoin="round"/>
<path d="M7 10L9.5 12L7 14" stroke="black" stroke-width="1.5" stroke-linecap="round" stroke-linejoin="round"/>
</svg>
