<svg width="24" height="24" viewBox="0 0 24 24" fill="none" xmlns="http://www.w3.org/2000/svg">
<path fill-rule="evenodd" clip-rule="evenodd" d="M12.4232 3.25C11.8521 2.19182 10.6121 1.56997 9.34079 1.88388L4.34079 3.11844C3.1128 3.42165 2.25 4.5234 2.25 5.78827V18.2113C2.25 19.4762 3.1128 20.578 4.34079 20.8812L9.34078 22.1157C10.612 22.4296 11.8518 21.8079 12.4229 20.75H16C17.5188 20.75 18.75 19.5188 18.75 18V16C18.75 15.5858 18.4142 15.25 18 15.25C17.5858 15.25 17.25 15.5858 17.25 16V18C17.25 18.6904 16.6904 19.25 16 19.25H12.75V4.75H16C16.6904 4.75 17.25 5.30964 17.25 6V8C17.25 8.41421 17.5858 8.75 18 8.75C18.4142 8.75 18.75 8.41421 18.75 8V6C18.75 4.48122 17.5188 3.25 16 3.25H12.4232ZM9.5 11.25C9.08579 11.25 8.75 11.5858 8.75 12C8.75 12.4142 9.08579 12.75 9.5 12.75H9.6C10.0142 12.75 10.35 12.4142 10.35 12C10.35 11.5858 10.0142 11.25 9.6 11.25H9.5Z" fill="black"/>
<path d="M19.4685 9.41438C19.1451 9.15562 18.6731 9.20806 18.4144 9.53151C18.1556 9.85495 18.2081 10.3269 18.5315 10.5857L19.3619 11.25H15C14.5858 11.25 14.25 11.5858 14.25 12C14.25 12.4142 14.5858 12.75 15 12.75H19.362L18.5315 13.4144C18.2081 13.6731 18.1556 14.1451 18.4144 14.4685C18.6731 14.792 19.1451 14.8444 19.4685 14.5857L21.9685 12.5857C22.1465 12.4434 22.25 12.2279 22.25 12C22.25 11.7722 22.1465 11.5567 21.9685 11.4144L19.4685 9.41438Z" fill="black"/>
</svg>
