<svg width="24" height="24" viewBox="0 0 24 24" fill="none" xmlns="http://www.w3.org/2000/svg">
<path fill-rule="evenodd" clip-rule="evenodd" d="M11.75 4.75H8.5C7.80964 4.75 7.25 5.30964 7.25 6V8C7.25 8.41421 6.91421 8.75 6.5 8.75C6.08579 8.75 5.75 8.41421 5.75 8V6C5.75 4.48122 6.98122 3.25 8.5 3.25H12.077C12.648 2.19197 13.888 1.57024 15.1592 1.88412L20.1592 3.11869C21.3872 3.4219 22.25 4.52364 22.25 5.78851V18.2116C22.25 19.4765 21.3872 20.5782 20.1592 20.8814L15.1592 22.116C13.8879 22.4299 12.648 21.8081 12.0769 20.75H8.5C6.98122 20.75 5.75 19.5188 5.75 18V16C5.75 15.5858 6.08579 15.25 6.5 15.25C6.91421 15.25 7.25 15.5858 7.25 16V18C7.25 18.6904 7.80964 19.25 8.5 19.25H11.75V4.75ZM15.75 12C15.75 11.5858 15.4142 11.25 15 11.25H14.9C14.4858 11.25 14.15 11.5858 14.15 12C14.15 12.4142 14.4858 12.75 14.9 12.75H15C15.4142 12.75 15.75 12.4142 15.75 12Z" fill="black"/>
<path fill-rule="evenodd" clip-rule="evenodd" d="M7.46855 9.41438C7.1451 9.15562 6.67313 9.20806 6.41438 9.53151C6.15562 9.85495 6.20806 10.3269 6.53151 10.5857L7.36191 11.25H3C2.58579 11.25 2.25 11.5858 2.25 12C2.25 12.4142 2.58579 12.75 3 12.75H7.36198L6.53151 13.4144C6.20806 13.6731 6.15562 14.1451 6.41438 14.4685C6.67313 14.792 7.1451 14.8444 7.46855 14.5857L9.96855 12.5857C10.1465 12.4434 10.25 12.2279 10.25 12C10.25 11.7722 10.1465 11.5567 9.96855 11.4144L7.46855 9.41438Z" fill="black"/>
</svg>
