<svg width="24" height="24" viewBox="0 0 24 24" fill="none" xmlns="http://www.w3.org/2000/svg">
<path fill-rule="evenodd" clip-rule="evenodd" d="M7.56971 6.28389C8.25783 4.5088 9.98122 3.25 12 3.25C14.0188 3.25 15.7422 4.5088 16.4303 6.28389C16.6173 6.2615 16.8074 6.25 17 6.25C19.6234 6.25 21.75 8.37665 21.75 11C21.75 13.6234 19.6234 15.75 17 15.75H15.0069C15.2466 15.7476 15.4811 15.6305 15.6241 15.416L17.6241 12.416C17.8539 12.0713 17.7608 11.6057 17.4161 11.3759C17.0715 11.1462 16.6058 11.2393 16.376 11.5839L14.376 14.5839C14.1463 14.9286 14.2394 15.3942 14.5841 15.624C14.7097 15.7077 14.8514 15.7486 14.9919 15.75H9.00826C9.14876 15.7486 9.29047 15.7077 9.4161 15.624C9.76075 15.3942 9.85388 14.9286 9.62412 14.5839L7.62412 11.5839C7.39435 11.2393 6.9287 11.1462 6.58405 11.3759C6.23941 11.6057 6.14628 12.0713 6.37604 12.416L8.37604 15.416C8.51907 15.6305 8.75352 15.7476 8.99328 15.75H7C4.37665 15.75 2.25 13.6234 2.25 11C2.25 8.37665 4.37665 6.25 7 6.25C7.19259 6.25 7.38272 6.2615 7.56971 6.28389ZM12.7501 12C12.7501 11.5857 12.4143 11.25 12.0001 11.25C11.5859 11.25 11.2501 11.5857 11.2501 12V15C11.2501 15.4142 11.5859 15.75 12.0001 15.75C12.4143 15.75 12.7501 15.4142 12.7501 15V12Z" fill="black"/>
<rect x="6" y="15" width="12" height="4" stroke="black" stroke-width="1.5" stroke-linecap="round" stroke-linejoin="round"/>
</svg>
