<svg width="24" height="24" viewBox="0 0 24 24" fill="none" xmlns="http://www.w3.org/2000/svg">
<path d="M7 15C4.79086 15 3 13.2091 3 11C3 8.79086 4.79086 7 7 7C7.37801 7 7.74377 7.05243 8.09041 7.15043C8.47994 5.34939 10.0824 4 12 4C13.9176 4 15.5201 5.34939 15.9096 7.15043C16.2562 7.05244 16.622 7 17 7C19.2091 7 21 8.79086 21 11C21 13.2091 19.2091 15 17 15H7Z" stroke="black" stroke-width="1.5" stroke-linecap="round" stroke-linejoin="round"/>
<path d="M12 15V12M15 15L17 12M9 15L7 12" stroke="black" stroke-width="1.5" stroke-linecap="round" stroke-linejoin="round"/>
<rect x="6" y="15" width="12" height="4" stroke="black" stroke-width="1.5" stroke-linecap="round" stroke-linejoin="round"/>
</svg>
