<svg width="24" height="24" viewBox="0 0 24 24" fill="none" xmlns="http://www.w3.org/2000/svg">
<path fill-rule="evenodd" clip-rule="evenodd" d="M2.25 6C2.25 5.58579 2.58579 5.25 3 5.25H21C21.4142 5.25 21.75 5.58579 21.75 6V18C21.75 18.4142 21.4142 18.75 21 18.75H3C2.58579 18.75 2.25 18.4142 2.25 18V6ZM5.5 7.75C5.08579 7.75 4.75 8.08579 4.75 8.5C4.75 8.91421 5.08579 9.25 5.5 9.25H8.75V10.25H5.5C5.08579 10.25 4.75 10.5858 4.75 11C4.75 11.4142 5.08579 11.75 5.5 11.75H8.50009C8.27204 12.0536 7.90895 12.25 7.5 12.25H6C5.58579 12.25 5.25 12.5858 5.25 13V13.5C5.25 15.0188 6.48122 16.25 8 16.25H10C10.4142 16.25 10.75 15.9142 10.75 15.5C10.75 15.0858 10.4142 14.75 10 14.75H8C7.39526 14.75 6.89082 14.3206 6.775 13.75H7.5C8.75878 13.75 9.82002 12.9043 10.1465 11.75H10.5C10.9142 11.75 11.25 11.4142 11.25 11C11.25 10.5858 10.9142 10.25 10.5 10.25H10.25V9.25H10.5C10.9142 9.25 11.25 8.91421 11.25 8.5C11.25 8.08579 10.9142 7.75 10.5 7.75H9.5H5.5ZM14 7.75C13.5858 7.75 13.25 8.08579 13.25 8.5C13.25 8.91421 13.5858 9.25 14 9.25H18.5C18.9142 9.25 19.25 8.91421 19.25 8.5C19.25 8.08579 18.9142 7.75 18.5 7.75H14ZM13.25 12C13.25 11.5858 13.5858 11.25 14 11.25H18.5C18.9142 11.25 19.25 11.5858 19.25 12C19.25 12.4142 18.9142 12.75 18.5 12.75H14C13.5858 12.75 13.25 12.4142 13.25 12ZM14 14.75C13.5858 14.75 13.25 15.0858 13.25 15.5C13.25 15.9142 13.5858 16.25 14 16.25H16.5C16.9142 16.25 17.25 15.9142 17.25 15.5C17.25 15.0858 16.9142 14.75 16.5 14.75H14Z" fill="black"/>
</svg>
