<svg width="24" height="24" viewBox="0 0 24 24" fill="none" xmlns="http://www.w3.org/2000/svg">
<path d="M16.6924 11.7427C15.6924 12.6066 16.1924 14.361 16.1924 14.361C13.9913 15.8427 11.2946 16.6836 9.65199 16.2684C9.25953 16.1692 8.93949 15.3034 8.71756 15.0815C8.49563 14.8595 7.62987 14.5395 7.53067 14.147C6.99774 12.0386 8.5342 8.19376 10.8389 5.88909C13.5725 3.15542 16.3109 3.58291 18.2635 5.53553C19.822 7.09399 20.4089 9.15297 19.1924 11.3106C19.1924 11.3106 17.7626 10.8181 16.6924 11.7427Z" stroke="black" stroke-width="1.5" stroke-linejoin="round"/>
<path d="M5.8498 16.5349L7.27922 15.1055C7.60047 14.7842 8.09792 14.7199 8.49033 14.9489C8.63927 15.0358 8.76321 15.1597 8.85011 15.3086C9.07904 15.701 9.01471 16.1984 8.69348 16.5197L7.26401 17.9491C7.09045 18.1227 7.09045 18.4041 7.26401 18.5777L7.51338 18.827C7.98314 19.2968 7.98314 20.0584 7.51338 20.5282C6.90779 21.1338 5.88126 20.9304 5.55223 20.1397L4.996 18.803L3.65918 18.2467C2.86846 17.9177 2.66514 16.8911 3.27074 16.2855C3.7405 15.8158 4.50213 15.8158 4.9719 16.2855L5.22126 16.5349C5.39483 16.7085 5.67623 16.7085 5.8498 16.5349Z" stroke="black" stroke-width="1.5" stroke-linecap="round" stroke-linejoin="round"/>
</svg>
