<svg width="24" height="24" viewBox="0 0 24 24" fill="none" xmlns="http://www.w3.org/2000/svg">
<path d="M3 20H21" stroke="black" stroke-width="1.5" stroke-linecap="round" stroke-linejoin="round"/>
<path fill-rule="evenodd" clip-rule="evenodd" d="M3.25 5C3.25 4.0335 4.0335 3.25 5 3.25H8C8.9665 3.25 9.75 4.0335 9.75 5V12.5499C10.125 12.3581 10.5499 12.25 11 12.25H13C13.4501 12.25 13.875 12.3581 14.25 12.5499V9C14.25 8.0335 15.0335 7.25 16 7.25H19C19.9665 7.25 20.75 8.0335 20.75 9V20C20.75 20.4142 20.4142 20.75 20 20.75H15H9H4C3.58579 20.75 3.25 20.4142 3.25 20V5ZM7.25 6C7.25 5.58579 6.91421 5.25 6.5 5.25C6.08579 5.25 5.75 5.58579 5.75 6V7.5C5.75 7.91421 6.08579 8.25 6.5 8.25C6.91421 8.25 7.25 7.91421 7.25 7.5V6ZM7.25 11C7.25 10.5858 6.91421 10.25 6.5 10.25C6.08579 10.25 5.75 10.5858 5.75 11V12.5C5.75 12.9142 6.08579 13.25 6.5 13.25C6.91421 13.25 7.25 12.9142 7.25 12.5V11ZM17.5 10.25C17.9142 10.25 18.25 10.5858 18.25 11V12.5C18.25 12.9142 17.9142 13.25 17.5 13.25C17.0858 13.25 16.75 12.9142 16.75 12.5V11C16.75 10.5858 17.0858 10.25 17.5 10.25ZM18.25 16C18.25 15.5858 17.9142 15.25 17.5 15.25C17.0858 15.25 16.75 15.5858 16.75 16V17.5C16.75 17.9142 17.0858 18.25 17.5 18.25C17.9142 18.25 18.25 17.9142 18.25 17.5V16ZM12 15.25C12.4142 15.25 12.75 15.5858 12.75 16V17.5C12.75 17.9142 12.4142 18.25 12 18.25C11.5858 18.25 11.25 17.9142 11.25 17.5V16C11.25 15.5858 11.5858 15.25 12 15.25ZM7.25 16C7.25 15.5858 6.91421 15.25 6.5 15.25C6.08579 15.25 5.75 15.5858 5.75 16V17.5C5.75 17.9142 6.08579 18.25 6.5 18.25C6.91421 18.25 7.25 17.9142 7.25 17.5V16Z" fill="black"/>
</svg>
