<svg width="24" height="24" viewBox="0 0 24 24" fill="none" xmlns="http://www.w3.org/2000/svg">
<path d="M9 16H15V18C15 19.6569 13.6569 21 12 21V21C10.3431 21 9 19.6569 9 18V16Z" stroke="black" stroke-width="1.5" stroke-linecap="round" stroke-linejoin="round"/>
<path d="M9.4932 6.95918C9.23502 5.41013 10.4296 4 12 4V4C13.5704 4 14.765 5.41013 14.5068 6.95918L13 16H11L9.4932 6.95918Z" stroke="black" stroke-width="1.5" stroke-linecap="round" stroke-linejoin="round"/>
<path d="M4.7612 7.5224C3.95204 5.90408 5.12883 4 6.93816 4V4C8.12796 4 9.14336 4.86018 9.33896 6.03378L11 16H9L4.7612 7.5224Z" stroke="black" stroke-width="1.5" stroke-linecap="round" stroke-linejoin="round"/>
<path d="M14.661 6.03378C14.8566 4.86018 15.872 4 17.0618 4V4C18.8712 4 20.048 5.90408 19.2388 7.5224L15 16H13L14.661 6.03378Z" stroke="black" stroke-width="1.5" stroke-linecap="round" stroke-linejoin="round"/>
</svg>
