<svg width="24" height="24" viewBox="0 0 24 24" fill="none" xmlns="http://www.w3.org/2000/svg">
<path fill-rule="evenodd" clip-rule="evenodd" d="M7.25 9C7.25 8.0335 8.0335 7.25 9 7.25H15C15.9665 7.25 16.75 8.0335 16.75 9V19.5C16.75 19.9142 16.4142 20.25 16 20.25H8C7.58579 20.25 7.25 19.9142 7.25 19.5V9ZM13.49 13.25C13.0758 13.25 12.74 13.5858 12.74 14C12.74 14.4142 13.0758 14.75 13.49 14.75H13.5C13.9142 14.75 14.25 14.4142 14.25 14C14.25 13.5858 13.9142 13.25 13.5 13.25H13.49Z" fill="black"/>
<path d="M21.5 21.5L19 19.5V5H5V19.5L2.5 21.5" stroke="black" stroke-width="1.5" stroke-linecap="round" stroke-linejoin="round"/>
<path d="M19 5L21.5 2.5" stroke="black" stroke-width="1.5" stroke-linecap="round" stroke-linejoin="round"/>
<path d="M5 5L2.5 2.5" stroke="black" stroke-width="1.5" stroke-linecap="round" stroke-linejoin="round"/>
<path d="M5 19.5H19" stroke="black" stroke-width="1.5" stroke-linecap="round" stroke-linejoin="round"/>
</svg>
