<svg width="24" height="24" viewBox="0 0 24 24" fill="none" xmlns="http://www.w3.org/2000/svg">
<path d="M11.25 5.25H5C3.74082 5.25 2.67931 6.09628 2.35321 7.2511C4.9289 7.306 7 9.41114 7 12C7 14.5889 4.9289 16.694 2.35321 16.7489C2.67931 17.9037 3.74082 18.75 5 18.75H11.25L11.25 5.25Z" fill="black"/>
<path d="M12.75 18.75L12.75 5.25H19C20.2592 5.25 21.3207 6.09628 21.6468 7.2511C19.0711 7.30601 17 9.41114 17 12C17 14.5889 19.0711 16.694 21.6468 16.7489C21.3207 17.9037 20.2592 18.75 19 18.75H12.75Z" fill="black"/>
<path d="M21.75 8.75V15.25C19.9551 15.25 18.5 13.7949 18.5 12C18.5 10.2051 19.9551 8.75 21.75 8.75Z" fill="black"/>
<path d="M2.25 15.25C4.04493 15.25 5.5 13.7949 5.5 12C5.5 10.2051 4.04493 8.75 2.25 8.75V15.25Z" fill="black"/>
</svg>
