<svg width="24" height="24" viewBox="0 0 24 24" fill="none" xmlns="http://www.w3.org/2000/svg">
<path d="M3 7C3 7 5.64758 5.5 7.5 5.5C9.35242 5.5 12 7 12 7C12 7 14.6476 8.5 16.5 8.5C18.3524 8.5 21 7 21 7V17C21 17 18.3524 18.5 16.5 18.5C14.6476 18.5 12 17 12 17C12 17 9.35242 15.5 7.5 15.5C5.64758 15.5 3 17 3 17V7Z" stroke="black" stroke-width="1.5" stroke-linejoin="round"/>
<path d="M18 11V15" stroke="black" stroke-width="1.5" stroke-linecap="round" stroke-linejoin="round"/>
<path d="M6 9V13" stroke="black" stroke-width="1.5" stroke-linecap="round" stroke-linejoin="round"/>
<circle cx="12" cy="12" r="2" stroke="black" stroke-width="1.5" stroke-linecap="round" stroke-linejoin="round"/>
</svg>
