<svg width="24" height="24" viewBox="0 0 24 24" fill="none" xmlns="http://www.w3.org/2000/svg">
<path d="M3 7C3 7 5.64758 5.5 7.5 5.5C9.35242 5.5 12 7 12 7C12 7 14.6476 8.5 16.5 8.5C18.3524 8.5 21 7 21 7V17C21 17 18.3524 18.5 16.5 18.5C14.6476 18.5 12 17 12 17C12 17 9.35242 15.5 7.5 15.5C5.64758 15.5 3 17 3 17V7Z" stroke="black" stroke-width="1.5" stroke-linejoin="round"/>
<path fill-rule="evenodd" clip-rule="evenodd" d="M7.5 5.5C5.64758 5.5 3 7 3 7V17C3 17 5.64758 15.5 7.5 15.5C9.35242 15.5 12 17 12 17C12 17 14.6476 18.5 16.5 18.5C18.3524 18.5 21 17 21 17V7C21 7 18.3524 8.5 16.5 8.5C14.6476 8.5 12 7 12 7C12 7 9.35242 5.5 7.5 5.5ZM6 8C6.41421 8 6.75 8.33579 6.75 8.75V12.75C6.75 13.1642 6.41421 13.5 6 13.5C5.58579 13.5 5.25 13.1642 5.25 12.75V8.75C5.25 8.33579 5.58579 8 6 8ZM18 10C18.4142 10 18.75 10.3358 18.75 10.75V14.75C18.75 15.1642 18.4142 15.5 18 15.5C17.5858 15.5 17.25 15.1642 17.25 14.75V10.75C17.25 10.3358 17.5858 10 18 10ZM9.25 11.75C9.25 10.2312 10.4812 9 12 9C13.5188 9 14.75 10.2312 14.75 11.75C14.75 13.2688 13.5188 14.5 12 14.5C10.4812 14.5 9.25 13.2688 9.25 11.75Z" fill="black"/>
</svg>
