<svg width="24" height="24" viewBox="0 0 24 24" fill="none" xmlns="http://www.w3.org/2000/svg">
<path d="M15.1629 6.22555C15.865 5.40643 17.1158 5.35839 17.8787 6.12124V6.12124C18.6415 6.8841 18.5935 8.13494 17.7744 8.83704L10.1527 15.3699C9.72424 15.7372 9.08531 15.7126 8.6863 15.3136V15.3136C8.2873 14.9146 8.26276 14.2757 8.62999 13.8473L15.1629 6.22555Z" stroke="black" stroke-width="1.5" stroke-linecap="round" stroke-linejoin="round"/>
<path d="M10.1527 15.3701L11.8683 13.8995L11.8683 16.2531C11.8683 16.7835 11.6576 17.2922 11.2825 17.6673L9.08274 19.867C8.66853 20.2813 7.99696 20.2813 7.58274 19.867C7.38383 19.6681 7.27208 19.3983 7.27208 19.117V16.728H4.883C4.60169 16.728 4.33191 16.6162 4.133 16.4173C3.71878 16.0031 3.71878 15.3315 4.133 14.9173L6.33274 12.7175C6.70782 12.3425 7.21653 12.1318 7.74696 12.1318H10.1005L8.62998 13.8474C8.26276 14.2758 8.2873 14.9147 8.6863 15.3137C9.0853 15.7127 9.72423 15.7373 10.1527 15.3701Z" stroke="black" stroke-width="1.5" stroke-linecap="round" stroke-linejoin="round"/>
<path d="M12.929 8.94971L15.0503 11.071" stroke="black" stroke-width="1.5" stroke-linecap="round" stroke-linejoin="round"/>
<path d="M11.5148 11.071L12.929 12.4853" stroke="black" stroke-width="1.5" stroke-linecap="round" stroke-linejoin="round"/>
<path d="M17.8787 6.12132L20.5 3.5" stroke="black" stroke-width="1.5" stroke-linecap="round" stroke-linejoin="round"/>
</svg>
