<svg width="24" height="24" viewBox="0 0 24 24" fill="none" xmlns="http://www.w3.org/2000/svg">
<path fill-rule="evenodd" clip-rule="evenodd" d="M2.25 7C2.25 5.48122 3.48122 4.25 5 4.25H19C20.5188 4.25 21.75 5.48122 21.75 7V14.5C21.75 16.0188 20.5188 17.25 19 17.25H17.5352C17.4516 17.25 17.3735 17.2918 17.3272 17.3613L15.9209 19.4707C15.5963 19.9576 15.0499 20.25 14.4648 20.25H9.53518C8.95007 20.25 8.40366 19.9576 8.0791 19.4707L6.67283 17.3613C6.62646 17.2918 6.5484 17.25 6.46482 17.25H5C3.48122 17.25 2.25 16.0188 2.25 14.5V7ZM7.25 8.5C7.25 8.08579 6.91421 7.75 6.5 7.75C6.08579 7.75 5.75 8.08579 5.75 8.5V10C5.75 10.4142 6.08579 10.75 6.5 10.75C6.91421 10.75 7.25 10.4142 7.25 10V8.5ZM10.75 8.5C10.75 8.08579 10.4142 7.75 10 7.75C9.58579 7.75 9.25 8.08579 9.25 8.5V10C9.25 10.4142 9.58579 10.75 10 10.75C10.4142 10.75 10.75 10.4142 10.75 10V8.5ZM14 7.75C14.4142 7.75 14.75 8.08579 14.75 8.5V10C14.75 10.4142 14.4142 10.75 14 10.75C13.5858 10.75 13.25 10.4142 13.25 10V8.5C13.25 8.08579 13.5858 7.75 14 7.75ZM18.25 8.5C18.25 8.08579 17.9142 7.75 17.5 7.75C17.0858 7.75 16.75 8.08579 16.75 8.5V10C16.75 10.4142 17.0858 10.75 17.5 10.75C17.9142 10.75 18.25 10.4142 18.25 10V8.5Z" fill="black"/>
</svg>
