<svg width="24" height="24" viewBox="0 0 24 24" fill="none" xmlns="http://www.w3.org/2000/svg">
<path d="M12 10V21" stroke="black" stroke-width="1.5" stroke-linecap="round" stroke-linejoin="round"/>
<path d="M9.5 9.5V11C9.5 12.3807 10.6193 13.5 12 13.5V13.5C13.3807 13.5 14.5 12.3807 14.5 11V10" stroke="black" stroke-width="1.5" stroke-linecap="round" stroke-linejoin="round"/>
<path fill-rule="evenodd" clip-rule="evenodd" d="M16.7433 3.45829C18.3564 3.30706 19.75 4.57611 19.75 6.19628V7.80374C19.75 9.42391 18.3564 10.693 16.7433 10.5417L4.42345 9.38675C3.1916 9.27126 2.25 8.23726 2.25 7.00001C2.25 5.76276 3.1916 4.72876 4.42345 4.61328L16.7433 3.45829ZM10.75 5.5C10.75 5.08579 10.4142 4.75 10 4.75C9.58579 4.75 9.25 5.08579 9.25 5.5V6C9.25 6.41421 9.58579 6.75 10 6.75C10.4142 6.75 10.75 6.41421 10.75 6V5.5ZM7.75 7.5C7.75 7.08579 7.41421 6.75 7 6.75C6.58579 6.75 6.25 7.08579 6.25 7.5V8C6.25 8.41421 6.58579 8.75 7 8.75C7.41421 8.75 7.75 8.41421 7.75 8V7.5ZM13 7.25C13.4142 7.25 13.75 7.58579 13.75 8V8.5C13.75 8.91421 13.4142 9.25 13 9.25C12.5858 9.25 12.25 8.91421 12.25 8.5V8C12.25 7.58579 12.5858 7.25 13 7.25ZM16.75 5.5C16.75 5.08579 16.4142 4.75 16 4.75C15.5858 4.75 15.25 5.08579 15.25 5.5V6C15.25 6.41421 15.5858 6.75 16 6.75C16.4142 6.75 16.75 6.41421 16.75 6V5.5Z" fill="black"/>
<path d="M19 7H21.5M19 7L21 5M19 7L21 9" stroke="black" stroke-width="1.5" stroke-linecap="round" stroke-linejoin="round"/>
</svg>
