<svg width="24" height="24" viewBox="0 0 24 24" fill="none" xmlns="http://www.w3.org/2000/svg">
<rect width="24" height="24" fill="white"/>
<path d="M14 13C14 7.4 12 5.33333 11 5C17 5 18.8333 10.3333 19 13H14Z" fill="black" fill-opacity="0.2"/>
<path d="M8 13C8 18.6 10 20.6667 11 21C5 21 3.16667 15.6667 3 13H8Z" fill="black" fill-opacity="0.2"/>
<circle cx="11" cy="13" r="8" stroke="black" stroke-width="1.5"/>
<ellipse cx="11" cy="13" rx="3" ry="8" stroke="black" stroke-width="1.5"/>
<path d="M3 13H19" stroke="black" stroke-width="1.5" stroke-linecap="round"/>
<path d="M11 5V3" stroke="black" stroke-width="1.5" stroke-linecap="round"/>
<path d="M18 5V3" stroke="black" stroke-width="1.5" stroke-linecap="round"/>
<path d="M19 4L17 4" stroke="black" stroke-width="1.5" stroke-linecap="round"/>
<path d="M22 7L20 7" stroke="black" stroke-width="1.5" stroke-linecap="round"/>
<path d="M21 8V6" stroke="black" stroke-width="1.5" stroke-linecap="round"/>
</svg>
