<svg width="24" height="24" viewBox="0 0 24 24" fill="none" xmlns="http://www.w3.org/2000/svg">
<path fill-rule="evenodd" clip-rule="evenodd" d="M8.74387 4.13899C9.38997 3.01084 10.6055 2.25 12 2.25C13.3945 2.25 14.61 3.01085 15.2561 4.139C16.5107 3.79814 17.9082 4.11961 18.8943 5.10571C19.8804 6.0918 20.2019 7.48928 19.861 8.74387C20.9892 9.38997 21.75 10.6055 21.75 12C21.75 13.3946 20.9891 14.61 19.861 15.2561C20.2018 16.5107 19.8803 17.9082 18.8943 18.8942C17.9082 19.8803 16.5107 20.2018 15.2562 19.861C14.6101 20.9891 13.3946 21.75 12 21.75C10.6055 21.75 9.38997 20.9892 8.74387 19.861C7.48928 20.2019 6.0918 19.8804 5.10571 18.8943C4.11961 17.9082 3.79814 16.5107 4.139 15.2561C3.01085 14.61 2.25 13.3945 2.25 12C2.25 10.6054 3.01086 9.38995 4.13902 8.74385C3.79816 7.48927 4.11964 6.0918 5.10573 5.10571C6.09182 4.11962 7.48929 3.79814 8.74387 4.13899ZM15.5303 8.46967C15.8232 8.76256 15.8232 9.23744 15.5303 9.53033L9.53033 15.5303C9.23744 15.8232 8.76256 15.8232 8.46967 15.5303C8.17678 15.2374 8.17678 14.7626 8.46967 14.4697L14.4697 8.46967C14.7626 8.17678 15.2374 8.17678 15.5303 8.46967ZM13.75 14.5C13.75 14.0858 14.0858 13.75 14.5 13.75H14.51C14.9242 13.75 15.26 14.0858 15.26 14.5C15.26 14.9142 14.9242 15.25 14.51 15.25H14.5C14.0858 15.25 13.75 14.9142 13.75 14.5ZM9.5 8.75C9.08579 8.75 8.75 9.08579 8.75 9.5C8.75 9.91421 9.08579 10.25 9.5 10.25H9.51C9.92421 10.25 10.26 9.91421 10.26 9.5C10.26 9.08579 9.92421 8.75 9.51 8.75H9.5Z" fill="black"/>
</svg>
