<svg width="24" height="24" viewBox="0 0 24 24" fill="none" xmlns="http://www.w3.org/2000/svg">
<path d="M12 3C10.659 3 9.52354 3.87982 9.13933 5.0937C8.0093 4.50705 6.58427 4.68783 5.63606 5.63604C4.68785 6.58425 4.50708 8.00929 5.09374 9.13932C3.87984 9.52352 3 10.659 3 12C3 13.341 3.87983 14.4765 5.09372 14.8607C4.50705 15.9907 4.68782 17.4157 5.63604 18.364C6.58426 19.3122 8.00929 19.493 9.13932 18.9063C9.52353 20.1202 10.659 21 12 21C13.341 21 14.4765 20.1202 14.8607 18.9062C15.9907 19.4929 17.4157 19.3121 18.3639 18.3639C19.3121 17.4157 19.4929 15.9907 18.9063 14.8607C20.1202 14.4765 21 13.341 21 12C21 10.659 20.1202 9.52354 18.9063 9.13932C19.493 8.00929 19.3122 6.58425 18.364 5.63604C17.4157 4.68782 15.9907 4.50705 14.8607 5.09372C14.4765 3.87983 13.341 3 12 3Z" stroke="black" stroke-width="1.5" stroke-linejoin="round"/>
<path d="M9 15L15 9" stroke="black" stroke-width="1.5" stroke-linecap="round" stroke-linejoin="round"/>
<path d="M14.5 14.5H14.51" stroke="black" stroke-width="1.5" stroke-linecap="round" stroke-linejoin="round"/>
<path d="M9.5 9.5H9.51" stroke="black" stroke-width="1.5" stroke-linecap="round" stroke-linejoin="round"/>
</svg>
