<svg width="24" height="24" viewBox="0 0 24 24" fill="none" xmlns="http://www.w3.org/2000/svg">
<path d="M6 20V21" stroke="black" stroke-width="1.5" stroke-linecap="round" stroke-linejoin="round"/>
<path d="M18 20V21" stroke="black" stroke-width="1.5" stroke-linecap="round" stroke-linejoin="round"/>
<path d="M20 9H4V6C4 4.89543 4.89543 4 6 4H18C19.1046 4 20 4.89543 20 6V9Z" stroke="black" stroke-width="1.5" stroke-linecap="round" stroke-linejoin="round"/>
<path d="M15 4V9" stroke="black" stroke-width="1.5" stroke-linecap="round" stroke-linejoin="round"/>
<path d="M7.5 6.5H11.5" stroke="black" stroke-width="1.5" stroke-linecap="round" stroke-linejoin="round"/>
<path d="M17.5 6.5H17.51" stroke="black" stroke-width="1.5" stroke-linecap="round" stroke-linejoin="round"/>
<path fill-rule="evenodd" clip-rule="evenodd" d="M3.25 9C3.25 8.58579 3.58579 8.25 4 8.25H20C20.4142 8.25 20.75 8.58579 20.75 9V18C20.75 19.5188 19.5188 20.75 18 20.75H6C4.48122 20.75 3.25 19.5188 3.25 18V9ZM9 13.25C8.0335 13.25 7.25 14.0335 7.25 15C7.25 15.9665 8.0335 16.75 9 16.75C9.9665 16.75 10.75 15.9665 10.75 15C10.75 14.0335 9.9665 13.25 9 13.25ZM5.75 15C5.75 13.2051 7.20507 11.75 9 11.75C10.7949 11.75 12.25 13.2051 12.25 15C12.25 16.7949 10.7949 18.25 9 18.25C7.20507 18.25 5.75 16.7949 5.75 15ZM11.75 12.5C11.75 12.0858 12.0858 11.75 12.5 11.75C14.1663 11.75 15.25 13.3699 15.25 15C15.25 16.6301 14.1663 18.25 12.5 18.25C12.0858 18.25 11.75 17.9142 11.75 17.5C11.75 17.0858 12.0858 16.75 12.5 16.75C13.0428 16.75 13.75 16.1313 13.75 15C13.75 13.8687 13.0428 13.25 12.5 13.25C12.0858 13.25 11.75 12.9142 11.75 12.5ZM15.5 11.75C15.0858 11.75 14.75 12.0858 14.75 12.5C14.75 12.9142 15.0858 13.25 15.5 13.25C16.0428 13.25 16.75 13.8687 16.75 15C16.75 16.1313 16.0428 16.75 15.5 16.75C15.0858 16.75 14.75 17.0858 14.75 17.5C14.75 17.9142 15.0858 18.25 15.5 18.25C17.1663 18.25 18.25 16.6301 18.25 15C18.25 13.3699 17.1663 11.75 15.5 11.75Z" fill="black"/>
</svg>
