<svg width="24" height="24" viewBox="0 0 24 24" fill="none" xmlns="http://www.w3.org/2000/svg">
<path d="M12 5V3H15H8C6.89543 3 6 3.89543 6 5V5" stroke="black" stroke-width="1.5" stroke-linecap="round" stroke-linejoin="round"/>
<path d="M9 7C9 5.89543 9.89543 5 11 5H13C14.1046 5 15 5.89543 15 7V8H9V7Z" stroke="black" stroke-width="1.5" stroke-linecap="round" stroke-linejoin="round"/>
<path d="M7 11C7 9.34315 8.34315 8 10 8H14C15.6569 8 17 9.34315 17 11V20C17 20.5523 16.5523 21 16 21H8C7.44772 21 7 20.5523 7 20V11Z" fill="black" stroke="black" stroke-width="1.5" stroke-linecap="round" stroke-linejoin="round"/>
</svg>
