<svg width="24" height="24" viewBox="0 0 24 24" fill="none" xmlns="http://www.w3.org/2000/svg">
<path d="M14 4H18C19.1046 4 20 4.89543 20 6V8V16V18C20 19.1046 19.1046 20 18 20H14" stroke="black" stroke-width="1.5" stroke-linecap="round" stroke-linejoin="round"/>
<path fill-rule="evenodd" clip-rule="evenodd" d="M11.3408 1.88412C13.0745 1.45604 14.75 2.76817 14.75 4.55394V19.4462C14.75 21.2319 13.0745 22.5441 11.3408 22.116L6.34079 20.8814C5.1128 20.5782 4.25 19.4765 4.25 18.2116V5.78851C4.25 4.52364 5.1128 3.4219 6.34079 3.11869L11.3408 1.88412ZM11.5 11.25C11.0858 11.25 10.75 11.5858 10.75 12C10.75 12.4142 11.0858 12.75 11.5 12.75H11.6C12.0142 12.75 12.35 12.4142 12.35 12C12.35 11.5858 12.0142 11.25 11.6 11.25H11.5Z" fill="black"/>
</svg>
