<svg width="24" height="24" viewBox="0 0 24 24" fill="none" xmlns="http://www.w3.org/2000/svg">
<path d="M8.5 6.5H15.5V10C15.5 11.933 13.933 13.5 12 13.5C10.067 13.5 8.5 11.933 8.5 10V6.5Z" stroke="black" stroke-width="1.5" stroke-linecap="round" stroke-linejoin="round"/>
<path d="M15.5 6.5C15.5 8.15685 13.6569 9 12 9C10.3431 9 8.5 8.15685 8.5 6.5" stroke="black" stroke-width="1.5" stroke-linecap="round" stroke-linejoin="round"/>
<path d="M8 4L8.5 6.5H15.5L16 4C16 4 13.6102 3 12 3C10.3898 3 8 4 8 4Z" fill="black" stroke="black" stroke-width="1.5" stroke-linecap="round" stroke-linejoin="round"/>
<path d="M16.75 19C16.75 18.5858 16.4142 18.25 16 18.25C15.5858 18.25 15.25 18.5858 15.25 19H16.75ZM16.75 21.5V19H15.25V21.5H16.75Z" fill="black"/>
<path d="M8.75 19C8.75 18.5858 8.41421 18.25 8 18.25C7.58579 18.25 7.25 18.5858 7.25 19H8.75ZM8.75 21.5V19H7.25V21.5H8.75Z" fill="black"/>
<path fill-rule="evenodd" clip-rule="evenodd" d="M11.6333 12.8116C11.875 12.7598 12.125 12.7598 12.3667 12.8116L18.3667 14.0973C19.1735 14.2702 19.75 14.9832 19.75 15.8084V20C19.75 20.9665 18.9665 21.75 18 21.75H6C5.0335 21.75 4.25 20.9665 4.25 20V15.8084C4.25 14.9832 4.82645 14.2702 5.63332 14.0973L11.6333 12.8116ZM12 15.25C11.5858 15.25 11.25 15.5858 11.25 16C11.25 16.4142 11.5868 16.75 12.001 16.75C12.4152 16.75 12.751 16.4142 12.751 16C12.751 15.5858 12.4142 15.25 12 15.25ZM12.75 18.5C12.75 18.0858 12.4142 17.75 12 17.75C11.5858 17.75 11.25 18.0868 11.25 18.501C11.25 18.9152 11.5858 19.251 12 19.251C12.4142 19.251 12.75 18.9142 12.75 18.5Z" fill="black"/>
</svg>
