<svg width="24" height="24" viewBox="0 0 24 24" fill="none" xmlns="http://www.w3.org/2000/svg">
<path d="M15 6V3" stroke="black" stroke-width="1.5" stroke-linecap="round" stroke-linejoin="round"/>
<path d="M9 6V3" stroke="black" stroke-width="1.5" stroke-linecap="round" stroke-linejoin="round"/>
<path fill-rule="evenodd" clip-rule="evenodd" d="M9.63262 5.09717L9.63235 5.09673C9.48294 4.86246 9.21624 4.72997 8.93926 4.75247C8.66211 4.77499 8.42017 4.94899 8.31064 5.20457L6.99333 8.27827C6.79056 8.75141 6.80638 9.28983 7.03659 9.75025L8.14393 11.9649C8.17358 12.0242 8.17846 12.0929 8.1575 12.1558L5.72722 19.4466C5.3495 20.5798 6.19295 21.75 7.38742 21.75H16.6126C17.807 21.75 18.6505 20.5798 18.2728 19.4466L15.8425 12.1558C15.8215 12.0929 15.8264 12.0242 15.8561 11.9649L16.9634 9.75025C17.1936 9.28983 17.2094 8.75141 17.0067 8.27827L15.6894 5.20457C15.5798 4.94899 15.3379 4.77499 15.0607 4.75247C14.7837 4.72997 14.517 4.86246 14.3676 5.09675L14.3675 5.09689L14.3675 5.09695L14.3675 5.09697L14.3674 5.09717L14.3654 5.10027L14.3545 5.1169C14.3444 5.13229 14.3287 5.15604 14.3078 5.18697C14.2659 5.24889 14.2033 5.33912 14.1237 5.44817C13.9634 5.66754 13.7383 5.95673 13.4756 6.2427C13.2101 6.53185 12.9237 6.79839 12.6432 6.98773C12.3531 7.18354 12.1383 7.25001 12 7.25001C11.8617 7.25001 11.6469 7.18354 11.3568 6.98773C11.0763 6.79839 10.7899 6.53185 10.5244 6.2427C10.2617 5.95673 10.0366 5.66754 9.87631 5.44817C9.79664 5.33912 9.73413 5.24889 9.69221 5.18697C9.67127 5.15604 9.65554 5.13229 9.64545 5.1169L9.63462 5.10027L9.63262 5.09717ZM9.5 11.25C9.08579 11.25 8.75 11.5858 8.75 12C8.75 12.4142 9.08579 12.75 9.5 12.75H14.5C14.9142 12.75 15.25 12.4142 15.25 12C15.25 11.5858 14.9142 11.25 14.5 11.25H9.5Z" fill="black"/>
</svg>
