<svg width="24" height="24" viewBox="0 0 24 24" fill="none" xmlns="http://www.w3.org/2000/svg">
<path d="M15 6V3" stroke="black" stroke-width="1.5" stroke-linecap="round" stroke-linejoin="round"/>
<path d="M9 6V3" stroke="black" stroke-width="1.5" stroke-linecap="round" stroke-linejoin="round"/>
<path fill-rule="evenodd" clip-rule="evenodd" d="M9.63253 5.09717L9.63225 5.09673C9.48285 4.86246 9.21615 4.72997 8.93917 4.75247C8.66202 4.77499 8.42008 4.94899 8.31054 5.20457L6.99324 8.27827C6.79047 8.75141 6.80629 9.28983 7.0365 9.75025L8.14384 11.9649C8.17349 12.0242 8.17837 12.0929 8.1574 12.1558L5.72713 19.4466C5.34941 20.5798 6.19285 21.75 7.38733 21.75H16.6125C17.8069 21.75 18.6504 20.5798 18.2727 19.4466L15.8424 12.1558C15.8214 12.0929 15.8263 12.0242 15.856 11.9649L16.9633 9.75025C17.1935 9.28983 17.2093 8.75141 17.0066 8.27827L15.6893 5.20457C15.5797 4.94899 15.3378 4.77499 15.0606 4.75247C14.7837 4.72997 14.5169 4.86246 14.3675 5.09675L14.3674 5.09689L14.3674 5.09695L14.3674 5.09697L14.3673 5.09717L14.3653 5.10027L14.3544 5.1169C14.3444 5.13229 14.3286 5.15604 14.3077 5.18697C14.2658 5.24889 14.2033 5.33912 14.1236 5.44817C13.9633 5.66754 13.7382 5.95673 13.4755 6.2427C13.21 6.53185 12.9236 6.79839 12.6431 6.98773C12.353 7.18354 12.1382 7.25001 11.9999 7.25001C11.8616 7.25001 11.6468 7.18354 11.3567 6.98773C11.0762 6.79839 10.7898 6.53185 10.5243 6.2427C10.2616 5.95673 10.0365 5.66754 9.87622 5.44817C9.79655 5.33912 9.73403 5.24889 9.69211 5.18697C9.67118 5.15604 9.65545 5.13229 9.64536 5.1169L9.63453 5.10027L9.63253 5.09717ZM9.49991 11.25C9.0857 11.25 8.74991 11.5858 8.74991 12C8.74991 12.4142 9.0857 12.75 9.49991 12.75H14.4999C14.9141 12.75 15.2499 12.4142 15.2499 12C15.2499 11.5858 14.9141 11.25 14.4999 11.25H9.49991Z" fill="black"/>
</svg>
