<svg width="24" height="24" viewBox="0 0 24 24" fill="none" xmlns="http://www.w3.org/2000/svg">
<path fill-rule="evenodd" clip-rule="evenodd" d="M12.45 3.4L12 4C12.225 3.70003 12.3374 3.54999 12.3936 3.47496C12.4492 3.40087 12.4499 3.39993 12.45 3.4L12.45 3.4ZM11.55 3.4L11.5475 3.40186L11.5429 3.40538L11.5272 3.41733C11.5139 3.42748 11.4951 3.44195 11.4711 3.46066C11.4232 3.49807 11.3546 3.55243 11.2682 3.62286C11.0955 3.76369 10.8515 3.96913 10.5599 4.23236C9.97773 4.75795 9.20083 5.51848 8.4222 6.45932C6.88296 8.31924 5.25 10.9886 5.25 14C5.25 16.1774 5.98708 17.8892 7.24927 19.0517C8.50136 20.2048 10.1965 20.75 12 20.75C13.8035 20.75 15.4986 20.2048 16.7507 19.0517C18.0129 17.8892 18.75 16.1774 18.75 14C18.75 10.9886 17.117 8.31924 15.5778 6.45932C14.7992 5.51848 14.0223 4.75795 13.4401 4.23236C13.1485 3.96913 12.9045 3.76369 12.7318 3.62286C12.6454 3.55243 12.5768 3.49807 12.5289 3.46066C12.5049 3.44195 12.4861 3.42748 12.4728 3.41733L12.4571 3.40538L12.4525 3.40186L12.45 3.4M12.45 3.4C12.1833 3.2 11.8167 3.2 11.55 3.4H12.45ZM11.55 3.4L12 4L11.55 3.4ZM11.55 3.4L11.55 3.4L11.55 3.4ZM11.55 3.4C11.5501 3.39993 11.5508 3.40087 11.6063 3.47496L11.55 3.4ZM11.6063 3.47496C11.6626 3.54999 11.775 3.70003 12 4L11.6063 3.47496ZM16.25 14C16.25 13.5858 15.9142 13.25 15.5 13.25C15.0858 13.25 14.75 13.5858 14.75 14C14.75 14.6758 14.6358 15.1427 14.4265 15.4775C14.2268 15.7971 13.888 16.0801 13.2628 16.2885C12.8699 16.4195 12.6575 16.8442 12.7885 17.2372C12.9195 17.6301 13.3442 17.8425 13.7372 17.7115C14.6121 17.4199 15.2733 16.9529 15.6985 16.2725C16.1142 15.6073 16.25 14.8242 16.25 14Z" fill="black"/>
</svg>
