<svg width="24" height="24" viewBox="0 0 24 24" fill="none" xmlns="http://www.w3.org/2000/svg">
<path d="M6 8.72076C6 8.29033 6.27543 7.90819 6.68377 7.77208L9 7C9 7 9.5 9.5 12 9.5C14.5 9.5 15 7 15 7L17.3162 7.77208C17.7246 7.90819 18 8.29033 18 8.72076V19C18 19.5523 17.5523 20 17 20H7C6.44772 20 6 19.5523 6 19V8.72076Z" stroke="black" stroke-width="1.5" stroke-linejoin="round"/>
<path d="M9 7L12 6L15 7" stroke="black" stroke-width="1.5" stroke-linejoin="round"/>
<path d="M10.5 3.5C10.5 2.5 11.1186 2 12 2C13 2 13.5 2.5 13.5 3.5C13.5 4.5 12.5523 4.5 12 4.5V5.5" stroke="black" stroke-width="1.5" stroke-linecap="round" stroke-linejoin="round"/>
<path d="M3 12L6 8.5V13L3 12Z" stroke="black" stroke-width="1.5" stroke-linejoin="round"/>
<path d="M21 12L18 8.5V13L21 12Z" stroke="black" stroke-width="1.5" stroke-linejoin="round"/>
</svg>
