<svg width="24" height="24" viewBox="0 0 24 24" fill="none" xmlns="http://www.w3.org/2000/svg">
<path d="M4 6L14.5942 4.01359C17.4033 3.48688 20 5.64193 20 8.5V8.5C20 11.3581 17.4033 13.5131 14.5942 12.9864L4 11V6Z" stroke="black" stroke-width="1.5" stroke-linecap="round" stroke-linejoin="round"/>
<path d="M17.5 8.5C17.5 9.32843 16.8284 10 16 10C15.1716 10 14.5 9.32843 14.5 8.5C14.5 7.67157 15.1716 7 16 7C16.8284 7 17.5 7.67157 17.5 8.5Z" stroke="black" stroke-width="1.5" stroke-linecap="round" stroke-linejoin="round"/>
<path d="M15.5 18.5L18 12.5C17.5 12.8333 16 13.5 13 13V18.5H15.5Z" stroke="black" stroke-width="1.5" stroke-linecap="round" stroke-linejoin="round"/>
<path d="M14.5 18.5C14.3333 19.3333 14.6 21 17 21" stroke="black" stroke-width="1.5" stroke-linecap="round"/>
</svg>
