<svg width="24" height="24" viewBox="0 0 24 24" fill="none" xmlns="http://www.w3.org/2000/svg">
<rect width="24" height="24" fill="white"/>
<path d="M12 21V17" stroke="black" stroke-width="1.5" stroke-linecap="round" stroke-linejoin="round"/>
<path d="M12 7V3" stroke="black" stroke-width="1.5" stroke-linecap="round" stroke-linejoin="round"/>
<path d="M10 12C10 13.1046 9.10457 14 8 14C6.89543 14 6 13.1046 6 12C6 10.8954 6.89543 10 8 10C9.10457 10 10 10.8954 10 12Z" stroke="black" stroke-width="1.5"/>
<path d="M18 12C18 13.1046 17.1046 14 16 14C14.8954 14 14 13.1046 14 12C14 10.8954 14.8954 10 16 10C17.1046 10 18 10.8954 18 12Z" stroke="black" stroke-width="1.5"/>
<path fill-rule="evenodd" clip-rule="evenodd" d="M21 12C21 16.9706 16.9706 21 12 21C7.02944 21 3 16.9706 3 12C3 7.02944 7.02944 3 12 3C16.9706 3 21 7.02944 21 12ZM18 12C18 13.1046 17.1046 14 16 14C14.8954 14 14 13.1046 14 12C14 10.8954 14.8954 10 16 10C17.1046 10 18 10.8954 18 12ZM8 14C9.10457 14 10 13.1046 10 12C10 10.8954 9.10457 10 8 10C6.89543 10 6 10.8954 6 12C6 13.1046 6.89543 14 8 14Z" fill="black" fill-opacity="0.2"/>
<path d="M12 21.75C17.3848 21.75 21.75 17.3848 21.75 12H20.25C20.25 16.5563 16.5563 20.25 12 20.25V21.75ZM2.25 12C2.25 17.3848 6.61522 21.75 12 21.75V20.25C7.44365 20.25 3.75 16.5563 3.75 12H2.25ZM12 2.25C6.61522 2.25 2.25 6.61522 2.25 12H3.75C3.75 7.44365 7.44365 3.75 12 3.75V2.25ZM21.75 12C21.75 6.61522 17.3848 2.25 12 2.25V3.75C16.5563 3.75 20.25 7.44365 20.25 12H21.75ZM16 14.75C17.5188 14.75 18.75 13.5188 18.75 12H17.25C17.25 12.6904 16.6904 13.25 16 13.25V14.75ZM13.25 12C13.25 13.5188 14.4812 14.75 16 14.75V13.25C15.3096 13.25 14.75 12.6904 14.75 12H13.25ZM16 9.25C14.4812 9.25 13.25 10.4812 13.25 12H14.75C14.75 11.3096 15.3096 10.75 16 10.75V9.25ZM18.75 12C18.75 10.4812 17.5188 9.25 16 9.25V10.75C16.6904 10.75 17.25 11.3096 17.25 12H18.75ZM9.25 12C9.25 12.6904 8.69036 13.25 8 13.25V14.75C9.51878 14.75 10.75 13.5188 10.75 12H9.25ZM8 10.75C8.69036 10.75 9.25 11.3096 9.25 12H10.75C10.75 10.4812 9.51878 9.25 8 9.25V10.75ZM6.75 12C6.75 11.3096 7.30964 10.75 8 10.75V9.25C6.48122 9.25 5.25 10.4812 5.25 12H6.75ZM8 13.25C7.30964 13.25 6.75 12.6904 6.75 12H5.25C5.25 13.5188 6.48122 14.75 8 14.75V13.25Z" fill="black"/>
</svg>
