<svg width="24" height="24" viewBox="0 0 24 24" fill="none" xmlns="http://www.w3.org/2000/svg">
<path d="M19.7781 9.87867C17.8255 7.92605 14.6597 7.92605 12.7071 9.87867L19.7781 16.9497C21.7308 14.9971 21.7308 11.8313 19.7781 9.87867Z" stroke="black" stroke-width="1.5" stroke-linecap="round" stroke-linejoin="round"/>
<path d="M14.1213 19.7782C16.0739 17.8256 16.0739 14.6598 14.1213 12.7071L7.05026 19.7782C9.00288 21.7308 12.1687 21.7308 14.1213 19.7782Z" stroke="black" stroke-width="1.5" stroke-linecap="round" stroke-linejoin="round"/>
<path d="M4.22185 14.1213C6.17447 16.0739 9.3403 16.0739 11.2929 14.1213L4.22185 7.05026C2.26923 9.00288 2.26923 12.1687 4.22185 14.1213Z" stroke="black" stroke-width="1.5" stroke-linecap="round" stroke-linejoin="round"/>
<path d="M9.87867 4.22179C7.92605 6.17441 7.92605 9.34024 9.87867 11.2929L16.9497 4.22179C14.9971 2.26917 11.8313 2.26917 9.87867 4.22179Z" stroke="black" stroke-width="1.5" stroke-linecap="round" stroke-linejoin="round"/>
<circle cx="12" cy="12.0001" r="2" transform="rotate(45 12 12.0001)" stroke="black" stroke-width="1.5" stroke-linecap="round" stroke-linejoin="round"/>
</svg>
