<svg width="24" height="24" viewBox="0 0 24 24" fill="none" xmlns="http://www.w3.org/2000/svg">
<path opacity="0.2" d="M10 5L12 3L14 5V20H10L10 5Z" fill="black" stroke="black" stroke-width="1.5" stroke-linecap="round" stroke-linejoin="round"/>
<path opacity="0.2" d="M17 5L19 3L21 5V20H17V5Z" fill="black" stroke="black" stroke-width="1.5" stroke-linecap="round" stroke-linejoin="round"/>
<path opacity="0.2" d="M3 5L5 3L7 5V20H3V5Z" fill="black" stroke="black" stroke-width="1.5" stroke-linecap="round" stroke-linejoin="round"/>
<path d="M10 5L12 3L14 5V20H10L10 5Z" stroke="black" stroke-width="1.5" stroke-linecap="round" stroke-linejoin="round"/>
<path d="M17 5L19 3L21 5V20H17V5Z" stroke="black" stroke-width="1.5" stroke-linecap="round" stroke-linejoin="round"/>
<path d="M3 5L5 3L7 5V20H3V5Z" stroke="black" stroke-width="1.5" stroke-linecap="round" stroke-linejoin="round"/>
<path d="M7 8H10" stroke="black" stroke-width="1.5"/>
<path d="M14 8H17" stroke="black" stroke-width="1.5"/>
<path d="M7 16H10" stroke="black" stroke-width="1.5"/>
<path d="M14 16H17" stroke="black" stroke-width="1.5"/>
</svg>
