<svg width="24" height="24" viewBox="0 0 24 24" fill="none" xmlns="http://www.w3.org/2000/svg">
<path d="M4 12.5715C4 12.2356 4.2286 11.9429 4.55446 11.8614L12 10L19.4455 11.8614C19.7714 11.9429 20 12.2356 20 12.5715V12.5715C20 14.7439 19.0464 16.819 17.2954 18.1048C15.4343 19.4716 13.1058 21 12 21C10.8942 21 8.56574 19.4716 6.70459 18.1048C4.9536 16.819 4 14.7439 4 12.5715V12.5715Z" stroke="black" stroke-width="1.5" stroke-linecap="round" stroke-linejoin="round"/>
<path d="M6 11.5L12 10L18 11.5V7C18 6.44772 17.5523 6 17 6H7C6.44772 6 6 6.44772 6 7V11.5Z" stroke="black" stroke-width="1.5" stroke-linecap="round" stroke-linejoin="round"/>
<path d="M12 10V15" stroke="black" stroke-width="1.5" stroke-linecap="round" stroke-linejoin="round"/>
<path d="M12 6V3" stroke="black" stroke-width="1.5" stroke-linecap="round" stroke-linejoin="round"/>
</svg>
