<svg width="24" height="24" viewBox="0 0 24 24" fill="none" xmlns="http://www.w3.org/2000/svg">
<path d="M6 11.5L12 10L18 11.5V7C18 6.44772 17.5523 6 17 6H7C6.44772 6 6 6.44772 6 7V11.5Z" stroke="black" stroke-width="1.5" stroke-linecap="round" stroke-linejoin="round"/>
<path fill-rule="evenodd" clip-rule="evenodd" d="M11.8181 9.27239C11.9375 9.24254 12.0625 9.24254 12.1819 9.27239L19.6274 11.1338C20.2872 11.2987 20.75 11.8915 20.75 12.5715C20.75 14.9592 19.7009 17.2689 17.7393 18.7094C16.7997 19.3994 15.7276 20.1411 14.7408 20.7137C14.2479 20.9997 13.7623 21.2517 13.3159 21.4341C12.885 21.6102 12.4237 21.75 12 21.75C11.5763 21.75 11.115 21.6102 10.6841 21.4341C10.2377 21.2517 9.75213 20.9997 9.25917 20.7137C8.2724 20.1411 7.20027 19.3994 6.26066 18.7094C4.29909 17.2689 3.25 14.9592 3.25 12.5715C3.25 11.8915 3.71282 11.2987 4.37256 11.1338L11.8181 9.27239ZM12.75 11.75C12.75 11.3358 12.4142 11 12 11C11.5858 11 11.25 11.3358 11.25 11.75V15.75C11.25 16.1642 11.5858 16.5 12 16.5C12.4142 16.5 12.75 16.1642 12.75 15.75V11.75Z" fill="black"/>
<path d="M12 6V3" stroke="black" stroke-width="1.5" stroke-linecap="round" stroke-linejoin="round"/>
</svg>
