<svg width="24" height="24" viewBox="0 0 24 24" fill="none" xmlns="http://www.w3.org/2000/svg">
<path d="M9 10C9 8.34315 10.3431 7 12 7V7C13.6569 7 15 8.34315 15 10V20C15 20.5523 14.5523 21 14 21H10C9.44772 21 9 20.5523 9 20V10Z" stroke="black" stroke-width="1.5" stroke-linejoin="round"/>
<path d="M6 15H15V20C15 20.5523 14.5523 21 14 21H9.99999C9.4477 21 8.99999 20.5523 8.99999 20V15H6Z" stroke="black" stroke-width="1.5" stroke-linejoin="round"/>
<path d="M6 17V8.5C6 6.01472 8.01472 4 10.5 4V4H12M12 4V7M12 4L18 6.5M12 4L16 3" stroke="black" stroke-width="1.5" stroke-linecap="round" stroke-linejoin="round"/>
</svg>
