<svg width="24" height="24" viewBox="0 0 24 24" fill="none" xmlns="http://www.w3.org/2000/svg">
<path d="M8 7.36084C4.66667 8.36702 3 11.1835 3 12C3 12.8165 4.66667 15.633 8 16.6392C8 16.6392 7.5 13.8222 7.5 12C7.5 10.1778 8 7.36084 8 7.36084Z" stroke="black" stroke-width="1.5" stroke-linecap="round" stroke-linejoin="round"/>
<path d="M8 7.36083C8 7.36083 7.5 10.1778 7.5 12C7.5 13.82 7.99878 16.6323 8 16.6392C8.74915 16.8653 9.58248 17 10.5 17C14.0643 17 16.3582 14.4592 17.3816 13L20 17C20 17 19.5 13.9624 19.5 12C19.5 10.0376 20 7 20 7L17.3816 11C16.3582 9.54084 14.0643 7 10.5 7C9 7 8 7.36083 8 7.36083Z" fill="black" stroke="black" stroke-width="1.5" stroke-linecap="round" stroke-linejoin="round"/>
<path d="M5.5 11.5H5.51" stroke="black" stroke-width="1.5" stroke-linecap="round" stroke-linejoin="round"/>
<path d="M9 7C10 6 12.6 4 15 4C14.3333 4.66667 13.5 6 13 7" stroke="black" stroke-width="1.5" stroke-linecap="round" stroke-linejoin="round"/>
<path d="M9 17C10 18 12.6 20 15 20C14.3333 19.3333 13.5 18 13 17" stroke="black" stroke-width="1.5" stroke-linecap="round" stroke-linejoin="round"/>
</svg>
