<svg width="24" height="24" viewBox="0 0 24 24" fill="none" xmlns="http://www.w3.org/2000/svg">
<path d="M11 21H13C14.1046 21 15 20.1046 15 19V12.0704C15 11.4017 15.3342 10.7772 15.8906 10.4063L17.1094 9.59373C17.6658 9.2228 18 8.59834 18 7.92963V7H6V7.92963C6 8.59834 6.3342 9.2228 6.8906 9.59373L8.1094 10.4063C8.6658 10.7772 9 11.4017 9 12.0704V19C9 20.1046 9.89543 21 11 21Z" stroke="black" stroke-width="1.5" stroke-linecap="round" stroke-linejoin="round"/>
<path d="M6 4C6 3.44772 6.44772 3 7 3H17C17.5523 3 18 3.44772 18 4V7H6V4Z" stroke="black" stroke-width="1.5" stroke-linecap="round" stroke-linejoin="round"/>
<path d="M12 10V14" stroke="black" stroke-width="1.5" stroke-linecap="round" stroke-linejoin="round"/>
</svg>
