<svg width="24" height="24" viewBox="0 0 24 24" fill="none" xmlns="http://www.w3.org/2000/svg">
<path d="M6 4C6 3.44772 6.44772 3 7 3H17C17.5523 3 18 3.44772 18 4V7H6V4Z" stroke="black" stroke-width="1.5" stroke-linecap="round" stroke-linejoin="round"/>
<path fill-rule="evenodd" clip-rule="evenodd" d="M5.25 7C5.25 6.58579 5.58579 6.25 6 6.25H18C18.4142 6.25 18.75 6.58579 18.75 7V7.92963C18.75 8.8491 18.2905 9.70774 17.5254 10.2178L16.3066 11.0303C15.9589 11.2621 15.75 11.6524 15.75 12.0704V19C15.75 20.5188 14.5188 21.75 13 21.75H11C9.48122 21.75 8.25 20.5188 8.25 19V12.0704C8.25 11.6524 8.04112 11.2621 7.69338 11.0303L6.47457 10.2178C5.70953 9.70774 5.25 8.8491 5.25 7.92963V7ZM12.75 10C12.75 9.58579 12.4142 9.25 12 9.25C11.5858 9.25 11.25 9.58579 11.25 10V14C11.25 14.4142 11.5858 14.75 12 14.75C12.4142 14.75 12.75 14.4142 12.75 14V10Z" fill="black"/>
</svg>
