<svg width="24" height="24" viewBox="0 0 24 24" fill="none" xmlns="http://www.w3.org/2000/svg">
<path d="M7 4C8.85537 4 9.3286 6.28564 9.85059 8C10.4836 10.079 8.90039 13 8.90039 13H5.09961C5.09961 13 3.5164 10.079 4.14941 8C4.6714 6.28564 5.14463 4 7 4Z" fill="black" stroke="black" stroke-width="1.5" stroke-linecap="round" stroke-linejoin="round"/>
<path d="M17 6C18.8554 6 19.3286 8.28564 19.8506 10C20.4836 12.079 18.9004 15 18.9004 15H15.0996C15.0996 15 13.5164 12.079 14.1494 10C14.6714 8.28564 15.1446 6 17 6Z" fill="black" stroke="black" stroke-width="1.5" stroke-linecap="round" stroke-linejoin="round"/>
<path d="M5 15H9V16C9 17.1046 8.10457 18 7 18C5.89543 18 5 17.1046 5 16V15Z" fill="black" stroke="black" stroke-width="1.5" stroke-linecap="round" stroke-linejoin="round"/>
<path d="M15 17H19V18C19 19.1046 18.1046 20 17 20C15.8954 20 15 19.1046 15 18V17Z" fill="black" stroke="black" stroke-width="1.5" stroke-linecap="round" stroke-linejoin="round"/>
</svg>
