<svg width="24" height="24" viewBox="0 0 24 24" fill="none" xmlns="http://www.w3.org/2000/svg">
<path fill-rule="evenodd" clip-rule="evenodd" d="M4.25 14C4.25 9.71979 7.71979 6.25 12 6.25C16.2802 6.25 19.75 9.71979 19.75 14C19.75 18.2802 16.2802 21.75 12 21.75C7.71979 21.75 4.25 18.2802 4.25 14ZM16.75 14C16.75 13.5858 16.4142 13.25 16 13.25C15.5858 13.25 15.25 13.5858 15.25 14C15.25 15.7949 13.7949 17.25 12 17.25C11.5858 17.25 11.25 17.5858 11.25 18C11.25 18.4142 11.5858 18.75 12 18.75C14.6234 18.75 16.75 16.6234 16.75 14Z" fill="black"/>
<path d="M12 7C11.8333 5.66667 10.6 3 7 3" stroke="black" stroke-width="1.5" stroke-linecap="round" stroke-linejoin="round"/>
<path d="M15.3284 5.88909C14.3521 6.8654 12.5 6.59619 12.5 6.59619C12.5 6.59619 12.2308 4.74408 13.2071 3.76777C14.1834 2.79146 16.0355 3.06066 16.0355 3.06066C16.0355 3.06066 16.3047 4.91278 15.3284 5.88909Z" stroke="black" stroke-width="1.5" stroke-linecap="round" stroke-linejoin="round"/>
</svg>
