<svg width="24" height="24" viewBox="0 0 24 24" fill="none" xmlns="http://www.w3.org/2000/svg">
<path fill-rule="evenodd" clip-rule="evenodd" d="M3.02328 8.68858C3.18525 6.74498 4.80999 5.25 6.76033 5.25H17.2395C19.1899 5.25 20.8146 6.74498 20.9766 8.68858L21.5442 15.5003C21.69 17.2496 20.3095 18.75 18.554 18.75C17.6635 18.75 16.819 18.3545 16.2489 17.6704L15.3233 16.5596C14.8958 16.0466 14.2626 15.75 13.5948 15.75H10.4051C9.7373 15.75 9.10404 16.0466 8.67656 16.5596L7.75091 17.6704C7.18083 18.3545 6.33633 18.75 5.44583 18.75C3.69038 18.75 2.30986 17.2496 2.45564 15.5003L3.02328 8.68858ZM8 8.25C8.41421 8.25 8.75 8.58579 8.75 9V9.75H9.5C9.91421 9.75 10.25 10.0858 10.25 10.5C10.25 10.9142 9.91421 11.25 9.5 11.25H8.75V12C8.75 12.4142 8.41421 12.75 8 12.75C7.58579 12.75 7.25 12.4142 7.25 12V11.25H6.5C6.08579 11.25 5.75 10.9142 5.75 10.5C5.75 10.0858 6.08579 9.75 6.5 9.75H7.25V9C7.25 8.58579 7.58579 8.25 8 8.25ZM17.75 9.5C17.75 9.08579 17.4142 8.75 17 8.75C16.5858 8.75 16.25 9.08679 16.25 9.501C16.25 9.91521 16.5858 10.251 17 10.251C17.4142 10.251 17.75 9.91421 17.75 9.5ZM15.75 11.5C15.75 11.0858 15.4142 10.75 15 10.75C14.5858 10.75 14.25 11.0868 14.25 11.501C14.25 11.9152 14.5858 12.251 15 12.251C15.4142 12.251 15.75 11.9142 15.75 11.5Z" fill="black"/>
</svg>
