<svg width="24" height="24" viewBox="0 0 24 24" fill="none" xmlns="http://www.w3.org/2000/svg">
<rect width="24" height="24" fill="white"/>
<path d="M3.77076 8.75086C3.90033 7.19599 5.20013 6 6.7604 6H17.2396C18.7999 6 20.0997 7.19599 20.2292 8.75086L20.7969 15.5626C20.9062 16.8747 19.8708 18 18.5541 18C17.8862 18 17.2528 17.7033 16.8252 17.1902L15.8995 16.0794C15.3296 15.3955 14.4852 15 13.5949 15H10.4051C9.51478 15 8.67044 15.3955 8.10046 16.0794L7.17482 17.1902C6.74723 17.7033 6.11382 18 5.4459 18C4.12923 18 3.09378 16.8747 3.20312 15.5626L3.77076 8.75086Z" fill="black" stroke="black" stroke-width="1.5" stroke-linecap="round" stroke-linejoin="round"/>
<path d="M17 9.5V9.501" stroke="white" stroke-width="1.5" stroke-linecap="round" stroke-linejoin="round"/>
<path d="M15 11.5V11.501" stroke="white" stroke-width="1.5" stroke-linecap="round" stroke-linejoin="round"/>
<path d="M8 9V12" stroke="white" stroke-width="1.5" stroke-linecap="round" stroke-linejoin="round"/>
<path d="M6.5 10.5L9.5 10.5" stroke="white" stroke-width="1.5" stroke-linecap="round" stroke-linejoin="round"/>
</svg>
