<svg width="24" height="24" viewBox="0 0 24 24" fill="none" xmlns="http://www.w3.org/2000/svg">
<path d="M3 20H18" stroke="black" stroke-width="1.5" stroke-linecap="round" stroke-linejoin="round"/>
<path d="M15 11H16C16.5523 11 17 11.4477 17 12V15.5C17 16.3284 17.6716 17 18.5 17V17C19.3284 17 20 16.3284 20 15.5V8.68854C20 8.24768 19.8249 7.82487 19.5131 7.51313L17.5 5.5" stroke="black" stroke-width="1.5" stroke-linecap="round" stroke-linejoin="round"/>
<path fill-rule="evenodd" clip-rule="evenodd" d="M4.25 6C4.25 4.48122 5.48122 3.25 7 3.25H13C14.5188 3.25 15.75 4.48122 15.75 6V20C15.75 20.4142 15.4142 20.75 15 20.75H5C4.58579 20.75 4.25 20.4142 4.25 20V6ZM9 9.25C8.58579 9.25 8.25 9.58579 8.25 10C8.25 10.4142 8.58579 10.75 9 10.75H11C11.4142 10.75 11.75 10.4142 11.75 10C11.75 9.58579 11.4142 9.25 11 9.25H9Z" fill="black"/>
</svg>
