<svg width="24" height="24" viewBox="0 0 24 24" fill="none" xmlns="http://www.w3.org/2000/svg">
<rect x="3" y="8" width="18" height="4" rx="1" stroke="black" stroke-width="1.5" stroke-linejoin="round"/>
<path d="M12.5 5.5C12.5 4.11929 13.6193 3 15 3H15.5C16.6046 3 17.5 3.89543 17.5 5V5C17.5 6.10457 16.6046 7 15.5 7H12.5V5.5Z" stroke="black" stroke-width="1.5" stroke-linejoin="round"/>
<path d="M11.5 5.5C11.5 4.11929 10.3807 3 9 3H8.5C7.39543 3 6.5 3.89543 6.5 5V5C6.5 6.10457 7.39543 7 8.5 7H11.5V5.5Z" stroke="black" stroke-width="1.5" stroke-linejoin="round"/>
<path d="M4 12H20V19C20 20.1046 19.1046 21 18 21H6C4.89543 21 4 20.1046 4 19V12Z" stroke="black" stroke-width="1.5" stroke-linejoin="round"/>
<path d="M12 21V8" stroke="black" stroke-width="1.5" stroke-linecap="round" stroke-linejoin="round"/>
</svg>
