<svg width="24" height="24" viewBox="0 0 24 24" fill="none" xmlns="http://www.w3.org/2000/svg">
<path d="M13 12H20C20.5523 12 21 11.5523 21 11V9C21 8.44772 20.5523 8 20 8H4C3.44772 8 3 8.44772 3 9V11C3 11.5523 3.44772 12 4 12H11" stroke="black" stroke-width="1.5" stroke-linejoin="round"/>
<path d="M12.5 5.5C12.5 4.11929 13.6193 3 15 3H15.5C16.6046 3 17.5 3.89543 17.5 5V5C17.5 6.10457 16.6046 7 15.5 7H12.5V5.5Z" stroke="black" stroke-width="1.5" stroke-linejoin="round"/>
<path d="M11.5 5.5C11.5 4.11929 10.3807 3 9 3H8.5C7.39543 3 6.5 3.89543 6.5 5V5C6.5 6.10457 7.39543 7 8.5 7H11.5V5.5Z" stroke="black" stroke-width="1.5" stroke-linejoin="round"/>
<path d="M12 12V8" stroke="black" stroke-width="1.5" stroke-linecap="square" stroke-linejoin="round"/>
<path d="M4 12L10.5 12V21H6C4.89543 21 4 20.1046 4 19V12Z" fill="black"/>
<path d="M4 12L4 11.25C3.58579 11.25 3.25 11.5858 3.25 12H4ZM10.5 12H11.25V11.25H10.5V12ZM10.5 21V21.75H11.25V21H10.5ZM4 12.75H10.5V11.25H4L4 12.75ZM9.75 12V21H11.25V12H9.75ZM10.5 20.25H6V21.75H10.5V20.25ZM4.75 19V12H3.25V19H4.75ZM6 20.25C5.30964 20.25 4.75 19.6904 4.75 19H3.25C3.25 20.5188 4.48122 21.75 6 21.75V20.25Z" fill="black"/>
<path d="M20 12L13.5 12V21H18C19.1046 21 20 20.1046 20 19V12Z" fill="black"/>
<path d="M20 12L20 11.25C20.4142 11.25 20.75 11.5858 20.75 12H20ZM13.5 12H12.75V11.25H13.5V12ZM13.5 21V21.75H12.75V21H13.5ZM20 12.75H13.5V11.25H20L20 12.75ZM14.25 12V21H12.75V12H14.25ZM13.5 20.25H18V21.75H13.5V20.25ZM19.25 19V12H20.75V19H19.25ZM18 20.25C18.6904 20.25 19.25 19.6904 19.25 19H20.75C20.75 20.5188 19.5188 21.75 18 21.75V20.25Z" fill="black"/>
</svg>
