<svg width="24" height="24" viewBox="0 0 24 24" fill="none" xmlns="http://www.w3.org/2000/svg">
<path d="M16 18.6679C14.7751 19.2031 13.4222 19.5 12 19.5C10.5778 19.5 9.22492 19.2031 8 18.6679" stroke="black" stroke-width="1.5" stroke-linecap="round" stroke-linejoin="round"/>
<path d="M12 20V21" stroke="black" stroke-width="1.5" stroke-linecap="round" stroke-linejoin="round"/>
<path fill-rule="evenodd" clip-rule="evenodd" d="M4.25 10C4.25 5.71979 7.71979 2.25 12 2.25C16.2802 2.25 19.75 5.71979 19.75 10C19.75 14.2802 16.2802 17.75 12 17.75C7.71979 17.75 4.25 14.2802 4.25 10ZM16 10.25C15.5858 10.25 15.25 10.5858 15.25 11C15.25 11.4142 15.5858 11.75 16 11.75H16.01C16.4242 11.75 16.76 11.4142 16.76 11C16.76 10.5858 16.4242 10.25 16.01 10.25H16ZM14 12.25C13.5858 12.25 13.25 12.5858 13.25 13C13.25 13.4142 13.5858 13.75 14 13.75H14.01C14.4242 13.75 14.76 13.4142 14.76 13C14.76 12.5858 14.4242 12.25 14.01 12.25H14Z" fill="black"/>
</svg>
