<svg width="24" height="24" viewBox="0 0 24 24" fill="none" xmlns="http://www.w3.org/2000/svg">
<path d="M14 8C14 6.34315 15.3431 5.17071 17 5.17071C18.6569 5.17071 20 6.51385 20 8.17071C20 9.47692 19.1652 10.5882 18 11" stroke="black" stroke-width="1.5" stroke-linecap="round" stroke-linejoin="round"/>
<path d="M21.6973 13.811C20.9018 12.4358 19.5763 11.4057 18 11" stroke="black" stroke-width="1.5" stroke-linecap="round" stroke-linejoin="round"/>
<path d="M10 8C10 6.34315 8.65685 5.17071 7 5.17071C5.34315 5.17071 4 6.51385 4 8.17071C4 9.47692 4.83481 10.5882 6 11" stroke="black" stroke-width="1.5" stroke-linecap="round" stroke-linejoin="round"/>
<path d="M2.30269 13.811C3.09817 12.4358 4.42375 11.4057 6 11" stroke="black" stroke-width="1.5" stroke-linecap="round" stroke-linejoin="round"/>
<circle cx="12" cy="13" r="3" fill="black" stroke="black" stroke-width="1.5" stroke-linecap="round" stroke-linejoin="round"/>
<path d="M17.6586 20C16.8349 17.6696 14.6124 16 12 16C9.38757 16 7.16509 17.6696 6.34142 20H17.6586Z" fill="black" stroke="black" stroke-width="1.5" stroke-linecap="round" stroke-linejoin="round"/>
</svg>
