<svg width="24" height="24" viewBox="0 0 24 24" fill="none" xmlns="http://www.w3.org/2000/svg">
<circle cx="12" cy="13" r="3" stroke="black" stroke-width="1.5" stroke-linecap="round" stroke-linejoin="round"/>
<path d="M14 7.99994C14 6.34308 15.3431 5.17064 17 5.17064C18.6569 5.17064 20 6.51379 20 8.17064C20 9.47686 19.1652 10.5881 18 10.9999" stroke="black" stroke-width="1.5" stroke-linecap="round" stroke-linejoin="round"/>
<path d="M17.6586 20C16.8349 17.6696 14.6125 16 12 16C9.38758 16 7.1651 17.6696 6.34143 20" stroke="black" stroke-width="1.5" stroke-linecap="round" stroke-linejoin="round"/>
<path d="M21.6973 13.811C20.9018 12.4358 19.5763 11.4057 18 11" stroke="black" stroke-width="1.5" stroke-linecap="round" stroke-linejoin="round"/>
<path d="M10 7.99994C10 6.34308 8.65685 5.17064 7 5.17064C5.34315 5.17064 4 6.51379 4 8.17064C4 9.47686 4.83481 10.5881 6 10.9999" stroke="black" stroke-width="1.5" stroke-linecap="round" stroke-linejoin="round"/>
<path d="M2.30269 13.811C3.09817 12.4358 4.42375 11.4057 6 11" stroke="black" stroke-width="1.5" stroke-linecap="round" stroke-linejoin="round"/>
</svg>
