<svg width="24" height="24" viewBox="0 0 24 24" fill="none" xmlns="http://www.w3.org/2000/svg">
<rect width="24" height="24" fill="white"/>
<path d="M8.51697 10.8292C9.5872 8.84165 12.2708 8.44778 13.867 10.044L13.956 10.133C15.5522 11.7292 15.1583 14.4128 13.1708 15.483V15.483C12.3487 15.9257 11.7471 16.6896 11.5095 17.5925L11.4768 17.7168C10.7568 20.4529 7.34008 21.3766 5.33948 19.376L4.62396 18.6605C2.62336 16.6599 3.54705 13.2432 6.28317 12.5232L6.40747 12.4905C7.31042 12.2529 8.07431 11.6513 8.51697 10.8292V10.8292Z" fill="black" fill-opacity="0.2" stroke="black" stroke-width="1.72209"/>
<path d="M6.60532 15.7711L8.22891 17.3947" stroke="black" stroke-width="1.72209" stroke-linecap="round"/>
<path d="M11.4761 12.5239L11.4768 12.5246" stroke="black" stroke-width="1.72209" stroke-linecap="round"/>
<path d="M13.9115 10.0885L20 4" stroke="black" stroke-width="1.72209" stroke-linecap="round"/>
<path d="M17.5646 4L20 6.43539" stroke="black" stroke-width="1.72209" stroke-linecap="round"/>
<path d="M15.941 5.62366L18.3764 8.05905" stroke="black" stroke-width="1.72209" stroke-linecap="round"/>
</svg>
