<svg width="24" height="24" viewBox="0 0 24 24" fill="none" xmlns="http://www.w3.org/2000/svg">
<path fill-rule="evenodd" clip-rule="evenodd" d="M7.75877 10.4209C9.10245 7.92552 12.4717 7.43101 14.4758 9.43508L14.5648 9.52408C16.5688 11.5281 16.0743 14.8974 13.5789 16.2411C12.9669 16.5706 12.519 17.1394 12.3421 17.8116L12.3094 17.9359C11.4202 21.3147 7.20106 22.4553 4.73055 19.9848L4.01503 19.2693C1.54453 16.7988 2.68518 12.5796 6.06396 11.6905L6.18826 11.6577C6.8605 11.4808 7.42921 11.033 7.75877 10.4209ZM12.0851 11.915C11.7488 11.5788 11.2036 11.5788 10.8674 11.915C10.5311 12.2513 10.5318 12.7972 10.8681 13.1334C11.2043 13.4697 11.7495 13.4697 12.0858 13.1334C12.422 12.7972 12.4213 12.2513 12.0851 11.915ZM7.21428 15.1622C6.87802 14.826 6.33284 14.826 5.99658 15.1622C5.66032 15.4985 5.66032 16.0437 5.99658 16.3799L7.62017 18.0035C7.95643 18.3398 8.50162 18.3398 8.83787 18.0035C9.17413 17.6673 9.17413 17.1221 8.83787 16.7858L7.21428 15.1622Z" fill="black"/>
<path d="M13.9115 10.0885L20 4" stroke="black" stroke-width="1.72209" stroke-linecap="round"/>
<path d="M17.5647 4L20.0001 6.43539" stroke="black" stroke-width="1.72209" stroke-linecap="round"/>
<path d="M15.9409 5.62366L18.3763 8.05905" stroke="black" stroke-width="1.72209" stroke-linecap="round"/>
</svg>
