<svg width="24" height="24" viewBox="0 0 24 24" fill="none" xmlns="http://www.w3.org/2000/svg">
<path d="M8.51691 10.8293C9.58714 8.84171 12.2707 8.44785 13.8669 10.0441L13.9559 10.1331C15.5522 11.7293 15.1583 14.4129 13.1707 15.4831V15.4831C12.3486 15.9258 11.747 16.6896 11.5094 17.5926L11.4767 17.7169C10.7567 20.453 7.34002 21.3767 5.33942 19.3761L4.6239 18.6606C2.6233 16.66 3.54699 13.2433 6.28311 12.5233L6.40741 12.4906C7.31036 12.253 8.07425 11.6514 8.51691 10.8293V10.8293Z" stroke="black" stroke-width="1.72209"/>
<path d="M6.60535 15.771L8.22894 17.3946" stroke="black" stroke-width="1.72209" stroke-linecap="round"/>
<path d="M11.4761 12.5239L11.4768 12.5246" stroke="black" stroke-width="1.72209" stroke-linecap="round"/>
<path d="M13.9115 10.0885L20 4" stroke="black" stroke-width="1.72209" stroke-linecap="round"/>
<path d="M17.5646 4L20 6.43539" stroke="black" stroke-width="1.72209" stroke-linecap="round"/>
<path d="M15.941 5.62366L18.3764 8.05905" stroke="black" stroke-width="1.72209" stroke-linecap="round"/>
</svg>
