<svg width="24" height="24" viewBox="0 0 24 24" fill="none" xmlns="http://www.w3.org/2000/svg">
<path d="M4.27793 8.03294C4.46685 7.51397 5.0407 7.24641 5.55967 7.43533L7.43903 8.11945L5.38664 13.7575L3.50729 13.0734C2.98832 12.8845 2.72076 12.3106 2.90968 11.7916L4.27793 8.03294Z" stroke="black" stroke-width="1.5" stroke-linejoin="round"/>
<path d="M16.9222 8.37915L18.5794 7.6065C19.0799 7.37312 19.6749 7.5897 19.9083 8.09025L21.4536 11.4046C21.687 11.9051 21.4704 12.5001 20.9698 12.7335L19.3127 13.5061L18.1175 10.9426L16.9222 8.37915Z" stroke="black" stroke-width="1.5" stroke-linejoin="round"/>
<path d="M16.9223 8.37902L13.4191 9.23218L9.82943 13.2464C10.8117 13.9587 13.4344 14.4523 15.383 12.6076L17.048 15.3421" stroke="black" stroke-width="1.5" stroke-linecap="round" stroke-linejoin="round"/>
<path d="M8.20821 16.2805L5.38664 13.7574L7.43902 8.11932L10.9479 7.05542C11.7762 6.8043 12.6635 6.82858 13.4768 7.12463L16.9223 8.37887L19.3128 13.5058L14.7834 17.178L11.0001 17.2968C9.9735 17.3291 8.97384 16.9652 8.20821 16.2805Z" stroke="black" stroke-width="1.5" stroke-linecap="round" stroke-linejoin="round"/>
<path d="M5.7699 17.0898V17.0898C7.3972 19.0119 9.87743 19.9935 12.3794 19.7057L12.8175 19.6553" stroke="black" stroke-width="1.5" stroke-linecap="round" stroke-linejoin="round"/>
</svg>
