<svg width="24" height="24" viewBox="0 0 24 24" fill="none" xmlns="http://www.w3.org/2000/svg">
<path fill-rule="evenodd" clip-rule="evenodd" d="M2.25 10C2.25 8.48122 3.48122 7.25 5 7.25H19C20.5188 7.25 21.75 8.48122 21.75 10V18C21.75 19.5188 20.5188 20.75 19 20.75H5C3.48122 20.75 2.25 19.5188 2.25 18V10ZM6 10.25C5.58579 10.25 5.25 10.5858 5.25 11C5.25 11.4142 5.58579 11.75 6 11.75H6.01C6.42421 11.75 6.76 11.4142 6.76 11C6.76 10.5858 6.42421 10.25 6.01 10.25H6ZM10.75 12C10.75 11.5858 10.4142 11.25 10 11.25C9.58579 11.25 9.25 11.5858 9.25 12V17C9.25 17.4142 9.58579 17.75 10 17.75C10.4142 17.75 10.75 17.4142 10.75 17V12ZM6 16.25C5.58579 16.25 5.25 16.5858 5.25 17C5.25 17.4142 5.58579 17.75 6 17.75H6.01C6.42421 17.75 6.76 17.4142 6.76 17C6.76 16.5858 6.42421 16.25 6.01 16.25H6ZM5.25 14C5.25 13.5858 5.58579 13.25 6 13.25H6.01C6.42421 13.25 6.76 13.5858 6.76 14C6.76 14.4142 6.42421 14.75 6.01 14.75H6C5.58579 14.75 5.25 14.4142 5.25 14ZM14 11.25C14.4142 11.25 14.75 11.5858 14.75 12V17C14.75 17.4142 14.4142 17.75 14 17.75C13.5858 17.75 13.25 17.4142 13.25 17V12C13.25 11.5858 13.5858 11.25 14 11.25ZM18.75 12C18.75 11.5858 18.4142 11.25 18 11.25C17.5858 11.25 17.25 11.5858 17.25 12V17C17.25 17.4142 17.5858 17.75 18 17.75C18.4142 17.75 18.75 17.4142 18.75 17V12Z" fill="black"/>
<path d="M6 20V21" stroke="black" stroke-width="1.5" stroke-linecap="round" stroke-linejoin="round"/>
<path d="M18 20V21" stroke="black" stroke-width="1.5" stroke-linecap="round" stroke-linejoin="round"/>
<path d="M12.375 6C12.875 5.5 12.875 5 12.375 4.5C11.875 4 11.875 3.5 12.375 3" stroke="black" stroke-width="1.5" stroke-linecap="round" stroke-linejoin="round"/>
<path d="M15.75 6C16.25 5.5 16.25 5 15.75 4.5C15.25 4 15.25 3.5 15.75 3" stroke="black" stroke-width="1.5" stroke-linecap="round" stroke-linejoin="round"/>
<path d="M19.125 6C19.625 5.5 19.625 5 19.125 4.5C18.625 4 18.625 3.5 19.125 3" stroke="black" stroke-width="1.5" stroke-linecap="round" stroke-linejoin="round"/>
</svg>
