<svg width="24" height="24" viewBox="0 0 24 24" fill="none" xmlns="http://www.w3.org/2000/svg">
<path fill-rule="evenodd" clip-rule="evenodd" d="M11.25 3C11.25 2.58579 11.5858 2.25 12 2.25C17.3848 2.25 21.75 6.61522 21.75 12C21.75 17.3848 17.3848 21.75 12 21.75C9.6788 21.75 7.54525 20.9379 5.87088 19.583C5.54889 19.3225 5.49908 18.8502 5.75964 18.5282C6.0202 18.2062 6.49245 18.1564 6.81445 18.417C8.10493 19.4612 9.71551 20.1237 11.4773 20.2337L13.5773 14.3536C13.3847 14.2593 13.1506 14.1534 12.8908 14.054C12.1472 13.7692 11.3199 13.5861 10.6627 13.7321L7.50051 14.4348C6.5 14.5 5.5 14.5 4.61579 13.2758L3.94722 12.2729C3.39992 11.452 3.63912 10.3411 4.47581 9.81819L10.6625 5.9515C11.028 5.72308 11.25 5.32249 11.25 4.8915V3ZM14 7.25C13.5858 7.25 13.25 7.58579 13.25 8C13.25 8.41421 13.5858 8.75 14 8.75H14.01C14.4242 8.75 14.76 8.41421 14.76 8C14.76 7.58579 14.4242 7.25 14.01 7.25H14Z" fill="black"/>
</svg>
