<svg width="24" height="24" viewBox="0 0 24 24" fill="none" xmlns="http://www.w3.org/2000/svg">
<path d="M12 21C16.9706 21 21 16.9706 21 12C21 7.02944 16.9706 3 12 3V4.8915C12 5.58108 11.6448 6.22202 11.06 6.5875L4.87331 10.4542C4.3952 10.753 4.25851 11.3878 4.57125 11.8569L5.23983 12.8597C5.69799 13.547 6.53152 13.8819 7.33781 13.7027L10.5 13C12.2574 12.6095 14.5 14 14.5 14L12 21Z" fill="black" fill-opacity="0.2"/>
<path d="M12 21C16.9706 21 21 16.9706 21 12C21 7.02944 16.9706 3 12 3V4.8915C12 5.58108 11.6448 6.22202 11.06 6.5875L4.87331 10.4542C4.3952 10.753 4.25851 11.3878 4.57125 11.8569L5.23983 12.8597C5.69799 13.547 6.53152 13.8819 7.33781 13.7027C8.37482 13.4723 9.23848 13.2803 10.5 13C12.2574 12.6095 14.5 14 14.5 14M12 21C9.8567 21 7.88839 20.2508 6.34267 19M12 21L14.5 14M14.5 14C14.5 14 16.6938 13.6125 17.5 12C18 11 18 10 18 10" stroke="black" stroke-width="1.5" stroke-linecap="round" stroke-linejoin="round"/>
<path d="M14 8H14.01" stroke="black" stroke-width="1.5" stroke-linecap="round"/>
</svg>
