<svg width="24" height="24" viewBox="0 0 24 24" fill="none" xmlns="http://www.w3.org/2000/svg">
<path d="M7 20.8062C7 17.7684 8.3809 14.8953 10.7531 12.9976L12 12L13.2469 12.9976C15.6191 14.8953 17 17.7684 17 20.8062V21H7V20.8062Z" stroke="black" stroke-width="1.5" stroke-linecap="round" stroke-linejoin="round"/>
<path d="M7 3C7 6.1603 8.43657 9.14925 10.9043 11.1235L12 12L13.0957 11.1235C15.5634 9.14925 17 6.1603 17 3V3H7V3Z" stroke="black" stroke-width="1.5" stroke-linecap="round" stroke-linejoin="round"/>
<path d="M5 3H19" stroke="black" stroke-width="1.5" stroke-linecap="round" stroke-linejoin="round"/>
<path d="M5 21H19" stroke="black" stroke-width="1.5" stroke-linecap="round" stroke-linejoin="round"/>
<path d="M7.79968 7C8.46367 8.59399 9.52227 10.0179 10.9043 11.1235L12 12L13.0956 11.1235C14.4776 10.0179 15.5362 8.59399 16.2002 7H7.79968Z" stroke="black" stroke-width="1.5" stroke-linecap="round" stroke-linejoin="round"/>
</svg>
