<svg width="24" height="24" viewBox="0 0 24 24" fill="none" xmlns="http://www.w3.org/2000/svg">
<path fill-rule="evenodd" clip-rule="evenodd" d="M3.25 6C3.25 4.48122 4.48122 3.25 6 3.25H18C19.5188 3.25 20.75 4.48122 20.75 6V18C20.75 19.5188 19.5188 20.75 18 20.75H6C4.48122 20.75 3.25 19.5188 3.25 18V6ZM12.6176 6.99997C12.6176 6.65885 12.3411 6.38232 12 6.38232C11.6589 6.38232 11.3823 6.65885 11.3823 6.99997V15C11.3823 15.3411 11.6589 15.6176 12 15.6176C12.3411 15.6176 12.6176 15.3411 12.6176 15V6.99997ZM15.1176 7.99997C15.1176 7.65885 14.8411 7.38232 14.5 7.38232C14.1589 7.38232 13.8823 7.65885 13.8823 7.99997V14C13.8823 14.3411 14.1589 14.6176 14.5 14.6176C14.8411 14.6176 15.1176 14.3411 15.1176 14V7.99997ZM6.99997 8.88232C7.34109 8.88232 7.61762 9.15885 7.61762 9.49997V12.5C7.61762 12.8411 7.34109 13.1176 6.99997 13.1176C6.65885 13.1176 6.38232 12.8411 6.38232 12.5V9.49997C6.38232 9.15885 6.65885 8.88232 6.99997 8.88232ZM17.6176 9.49997C17.6176 9.15885 17.3411 8.88232 17 8.88232C16.6589 8.88232 16.3823 9.15885 16.3823 9.49997V12.5C16.3823 12.8411 16.6589 13.1176 17 13.1176C17.3411 13.1176 17.6176 12.8411 17.6176 12.5V9.49997ZM9.49997 7.38232C9.84109 7.38232 10.1176 7.65885 10.1176 7.99997V14C10.1176 14.3411 9.84109 14.6176 9.49997 14.6176C9.15885 14.6176 8.88232 14.3411 8.88232 14V7.99997C8.88232 7.65885 9.15885 7.38232 9.49997 7.38232ZM6.56323 15.5632C6.80328 15.3232 7.19177 15.322 7.43324 15.5598L7.43777 15.564C7.44382 15.5697 7.4556 15.5804 7.47322 15.5955C7.50847 15.6257 7.56706 15.6734 7.64993 15.7331C7.8156 15.8524 8.07849 16.0194 8.4463 16.1892C9.17955 16.5276 10.3414 16.8823 12 16.8823C13.6585 16.8823 14.8204 16.5276 15.5536 16.1892C15.9215 16.0194 16.1843 15.8524 16.35 15.7331C16.4329 15.6734 16.4915 15.6257 16.5267 15.5955C16.5443 15.5804 16.5561 15.5697 16.5622 15.564L16.5667 15.5598C16.8082 15.322 17.1967 15.3232 17.4367 15.5632C17.6779 15.8044 17.6779 16.1955 17.4367 16.4367L17 16C17.4367 16.4367 17.4359 16.4375 17.4356 16.4378L17.4344 16.439L17.4316 16.4418L17.4242 16.449C17.4184 16.4545 17.4112 16.4614 17.4024 16.4696C17.3847 16.486 17.3609 16.5075 17.3306 16.5334C17.2702 16.5852 17.1842 16.6546 17.0718 16.7356C16.8468 16.8976 16.516 17.1055 16.0713 17.3108C15.1796 17.7223 13.8414 18.1176 12 18.1176C10.1585 18.1176 8.82039 17.7223 7.92864 17.3108C7.48396 17.1055 7.15309 16.8976 6.92814 16.7356C6.8157 16.6546 6.72976 16.5852 6.6693 16.5334C6.63907 16.5075 6.6152 16.486 6.59757 16.4696C6.58876 16.4614 6.5815 16.4545 6.57578 16.449L6.56835 16.4418L6.56551 16.439L6.5643 16.4378L6.56323 16.4367L6.99997 16L6.61783 16.3819C6.56406 16.4356 6.56312 16.4366 6.56322 16.4367L6.56323 16.4367C6.32202 16.1955 6.32202 15.8044 6.56323 15.5632Z" fill="black"/>
</svg>
