<svg width="24" height="24" viewBox="0 0 24 24" fill="none" xmlns="http://www.w3.org/2000/svg">
<path d="M19.5 9H4.5C3.67157 9 3 9.67157 3 10.5C3 11.3284 3.67157 12 4.5 12H19.5C20.3284 12 21 11.3284 21 10.5C21 9.67157 20.3284 9 19.5 9Z" fill="black" stroke="black" stroke-width="1.5" stroke-linecap="round" stroke-linejoin="round"/>
<path d="M7 12L17 20" stroke="black" stroke-width="1.5" stroke-linecap="round" stroke-linejoin="round"/>
<path d="M17 12L7 20" stroke="black" stroke-width="1.5" stroke-linecap="round" stroke-linejoin="round"/>
<path d="M7 9V6C7 4.89543 7.89543 4 9 4H10" stroke="black" stroke-width="1.5" stroke-linecap="round" stroke-linejoin="round"/>
<path d="M7 6H10C11.1046 6 12 6.89543 12 8V9H7V6Z" stroke="black" stroke-width="1.5" stroke-linecap="round" stroke-linejoin="round"/>
</svg>
