<svg width="24" height="24" viewBox="0 0 24 24" fill="none" xmlns="http://www.w3.org/2000/svg">
<path d="M7.11252 6.89726C7.55795 4.57189 9.63235 3 12 3V3C14.3676 3 16.442 4.57189 16.8875 6.89726C17.3381 9.24972 17.8196 12.47 17.9597 15.9996C18.0035 17.1033 17.1046 18 16 18H8C6.89543 18 5.99653 17.1033 6.04032 15.9996C6.18039 12.47 6.66189 9.24972 7.11252 6.89726Z" stroke="black" stroke-width="1.5" stroke-linecap="round" stroke-linejoin="round"/>
<path d="M7.5 5.5H5L6.5 8.5" stroke="black" stroke-width="1.5" stroke-linecap="round" stroke-linejoin="round"/>
<path d="M17 7H17.5C19.1569 7 20.5 8.34315 20.5 10V11.5C20.5 12.8807 19.3807 14 18 14V14" stroke="black" stroke-width="1.5" stroke-linecap="round" stroke-linejoin="round"/>
<path d="M12 7L10 11H14L12 15" stroke="black" stroke-width="1.5" stroke-linecap="round" stroke-linejoin="round"/>
<path d="M4 21H20" stroke="black" stroke-width="1.5" stroke-linecap="round" stroke-linejoin="round"/>
</svg>
