<svg width="24" height="24" viewBox="0 0 24 24" fill="none" xmlns="http://www.w3.org/2000/svg">
<path d="M4 21H20" stroke="black" stroke-width="1.5" stroke-linecap="round" stroke-linejoin="round"/>
<path opacity="0.2" d="M7.11252 6.89726C7.55795 4.57189 9.63235 3 12 3C14.3677 3 16.442 4.57189 16.8875 6.89726C17.3381 9.24972 17.8196 12.47 17.9597 15.9996C18.0035 17.1033 17.1046 18 16 18H8C6.89543 18 5.99653 17.1033 6.04032 15.9996C6.18039 12.47 6.66189 9.24972 7.11252 6.89726Z" fill="black" stroke="black" stroke-width="1.5" stroke-linecap="round" stroke-linejoin="round"/>
<path d="M7.5 5.5H5L6.5 8.5" stroke="black" stroke-width="1.5" stroke-linecap="round" stroke-linejoin="round"/>
<path d="M17 7H17.5C19.1569 7 20.5 8.34315 20.5 10V11.5C20.5 12.8807 19.3807 14 18 14V14" stroke="black" stroke-width="1.5" stroke-linecap="round" stroke-linejoin="round"/>
<path fill-rule="evenodd" clip-rule="evenodd" d="M6.37591 6.75616C6.89502 4.04618 9.3053 2.25 12 2.25C14.6947 2.25 17.105 4.04619 17.6241 6.75616C18.0795 9.13378 18.5671 12.3927 18.7091 15.9699C18.7705 17.518 17.5113 18.75 16 18.75H8C6.48866 18.75 5.22948 17.518 5.29091 15.9699C5.43287 12.3927 5.92046 9.13378 6.37591 6.75616ZM12.6708 7.33545C12.8561 6.96497 12.7059 6.51446 12.3354 6.32922C11.9649 6.14398 11.5144 6.29415 11.3292 6.66463L9.32918 10.6646C9.21293 10.8971 9.22536 11.1732 9.36201 11.3943C9.49867 11.6155 9.74007 11.75 10 11.75H12.7865L11.3292 14.6646C11.1439 15.0351 11.2941 15.4856 11.6646 15.6709C12.0351 15.8561 12.4856 15.7059 12.6708 15.3355L14.6708 11.3355C14.7871 11.103 14.7746 10.8269 14.638 10.6057C14.5013 10.3846 14.2599 10.25 14 10.25H11.2135L12.6708 7.33545Z" fill="black"/>
</svg>
