<svg width="24" height="24" viewBox="0 0 24 24" fill="none" xmlns="http://www.w3.org/2000/svg">
<g clip-path="url(#clip0_1569_71)">
<path d="M18.7781 11.793C20.7308 9.84033 20.7308 6.67451 18.7781 4.72188C16.8255 2.76926 13.6597 2.76926 11.7071 4.72188C10.2573 6.17168 9.88393 8.2903 10.587 10.0846L4.30229 16.2056C4.10901 16.3938 4 16.6522 4 16.922L4 19.5C4 20.0523 4.44772 20.5 5 20.5L6.5 20.5C7.05229 20.5 7.5 20.0523 7.5 19.5L7.5 19C7.5 18.4477 7.94772 18 8.5 18H9C9.55229 18 10 17.5523 10 17L10 16.5C10 15.9477 10.4477 15.5 11 15.5H11.5222C11.8244 15.5 12.1103 15.3633 12.3002 15.1282L13.9478 13.0877C15.6159 13.5332 17.4695 13.1016 18.7781 11.793Z" stroke="black" stroke-width="1.5" stroke-linecap="round" stroke-linejoin="round"/>
<path d="M16 7.5H16.01" stroke="black" stroke-width="1.5" stroke-linecap="round" stroke-linejoin="round"/>
</g>
<defs>
<clipPath id="clip0_1569_71">
<rect width="24" height="24" fill="white"/>
</clipPath>
</defs>
</svg>
