<svg width="24" height="24" viewBox="0 0 24 24" fill="none" xmlns="http://www.w3.org/2000/svg">
<path fill-rule="evenodd" clip-rule="evenodd" d="M18.7781 4.72191C20.7308 6.67453 20.7308 9.84036 18.7781 11.793C17.4695 13.1016 15.6159 13.5332 13.9478 13.0878L12.3002 15.1283C12.1103 15.3634 11.8244 15.5 11.5222 15.5H11C10.4477 15.5 10 15.9477 10 16.5L10 17C10 17.5523 9.55228 18 9 18H8.5C7.94772 18 7.5 18.4477 7.5 19L7.5 19.5C7.5 20.0523 7.05228 20.5 6.5 20.5H5C4.44772 20.5 4 20.0523 4 19.5V16.922C4 16.6522 4.10901 16.3939 4.30229 16.2056L10.587 10.0846C9.88393 8.29032 10.2573 6.17171 11.7071 4.72191C13.6597 2.76929 16.8255 2.76929 18.7781 4.72191ZM16 6.74998C15.5858 6.74998 15.25 7.08577 15.25 7.49998C15.25 7.9142 15.5858 8.24998 16 8.24998H16.01C16.4242 8.24998 16.76 7.9142 16.76 7.49998C16.76 7.08577 16.4242 6.74998 16.01 6.74998H16Z" fill="black"/>
</svg>
