<svg width="24" height="24" viewBox="0 0 24 24" fill="none" xmlns="http://www.w3.org/2000/svg">
<path d="M3 8C3 6.89543 3.89543 6 5 6H6V18H5C3.89543 18 3 17.1046 3 16V8Z" stroke="black" stroke-width="1.5" stroke-linecap="round" stroke-linejoin="round"/>
<path fill-rule="evenodd" clip-rule="evenodd" d="M6 5.25C5.58579 5.25 5.25 5.58579 5.25 6V18C5.25 18.4142 5.58579 18.75 6 18.75H19C20.5188 18.75 21.75 17.5188 21.75 16V8C21.75 6.48122 20.5188 5.25 19 5.25H6ZM13.8535 11.25C14.18 10.0957 15.2412 9.25 16.5 9.25C18.0188 9.25 19.25 10.4812 19.25 12C19.25 13.5188 18.0188 14.75 16.5 14.75C15.2412 14.75 14.18 13.9043 13.8535 12.75H12.25V13.5C12.25 13.9142 11.9142 14.25 11.5 14.25C11.0858 14.25 10.75 13.9142 10.75 13.5V12.75H10.5C9.80964 12.75 9.25 13.3096 9.25 14C9.25 14.4142 8.91421 14.75 8.5 14.75C8.08579 14.75 7.75 14.4142 7.75 14C7.75 12.4812 8.98122 11.25 10.5 11.25H13.8535Z" fill="black"/>
</svg>
