<svg width="24" height="24" viewBox="0 0 24 24" fill="none" xmlns="http://www.w3.org/2000/svg">
<path d="M7 13C5.8 12.2 5.16667 10 5 9V7H12C12 9.4 8.66667 12 7 13Z" fill="black" fill-opacity="0.2"/>
<path d="M19 16L16 10.5L13 16C15 16.8 17.8333 16.3333 19 16Z" fill="black" fill-opacity="0.2"/>
<path d="M7 4H9" stroke="black" stroke-width="1.5" stroke-linecap="round" stroke-linejoin="round"/>
<path d="M3 7H13" stroke="black" stroke-width="1.5" stroke-linecap="round" stroke-linejoin="round"/>
<path d="M12 7C12 10 7.4 14 3 14" stroke="black" stroke-width="1.5" stroke-linecap="round" stroke-linejoin="round"/>
<path d="M11 19L13 15.4L16 10L19 15.4L21 19" stroke="black" stroke-width="1.5" stroke-linecap="round" stroke-linejoin="round"/>
<path d="M5 9C5 11.5 9 18 19 16" stroke="black" stroke-width="1.5" stroke-linecap="round" stroke-linejoin="round"/>
</svg>
