<svg width="24" height="24" viewBox="0 0 24 24" fill="none" xmlns="http://www.w3.org/2000/svg">
<path fill-rule="evenodd" clip-rule="evenodd" d="M4 1C2.34315 1 1 2.34315 1 4V20C1 21.6569 2.34315 23 4 23H20C21.6569 23 23 21.6569 23 20V4C23 2.34315 21.6569 1 20 1H4ZM6.25 4C6.25 3.58579 6.58579 3.25 7 3.25H9C9.41421 3.25 9.75 3.58579 9.75 4C9.75 4.41421 9.41421 4.75 9 4.75H7C6.58579 4.75 6.25 4.41421 6.25 4ZM2.25 7C2.25 6.58579 2.58579 6.25 3 6.25H12H13C13.4142 6.25 13.75 6.58579 13.75 7C13.75 7.41421 13.4142 7.75 13 7.75H12.6776C12.3739 9.35416 11.1482 10.9734 9.62165 12.2081C9.18471 12.5615 8.71143 12.8934 8.21061 13.1932C8.36585 13.3275 8.52893 13.4592 8.7 13.5875C9.62271 14.2795 10.7888 14.8807 12.2267 15.2476L15.3444 9.63577C15.4767 9.39767 15.7276 9.25 16 9.25C16.2724 9.25 16.5233 9.39767 16.6556 9.63577L21.6556 18.6358C21.8568 18.9979 21.7263 19.4545 21.3642 19.6556C21.0021 19.8568 20.5455 19.7263 20.3444 19.3642L18.9096 16.7816C16.6677 17.2047 14.7038 17.2152 13.0028 16.9392L11.6556 19.3642C11.4545 19.7263 10.9979 19.8568 10.6358 19.6556C10.2737 19.4545 10.1432 18.9979 10.3444 18.6358L11.4765 16.598C10.0249 16.1791 8.80358 15.5402 7.8 14.7875C7.43212 14.5116 7.09474 14.2213 6.787 13.9223C5.58829 14.4369 4.29447 14.75 3 14.75C2.58579 14.75 2.25 14.4142 2.25 14C2.25 13.5858 2.58579 13.25 3 13.25C3.90971 13.25 4.84087 13.0588 5.73703 12.7271C5.50696 12.4181 5.30492 12.1078 5.13007 11.8018C4.55786 10.8004 4.25 9.79632 4.25 9C4.25 8.58579 4.58579 8.25 5 8.25C5.41421 8.25 5.75 8.58579 5.75 9C5.75 9.45368 5.94214 10.1996 6.43243 11.0576C6.6243 11.3933 6.85779 11.7389 7.13494 12.0825C7.68204 11.7789 8.20165 11.4274 8.67835 11.0419C9.98174 9.98765 10.8415 8.78362 11.1365 7.75H3C2.58579 7.75 2.25 7.41421 2.25 7ZM13.7834 15.5343C15.0576 15.6845 16.5049 15.6608 18.1389 15.3943L16 11.5443L13.7834 15.5343Z" fill="black"/>
</svg>
