<svg width="24" height="24" viewBox="0 0 24 24" fill="none" xmlns="http://www.w3.org/2000/svg">
<path d="M4 18H20" stroke="black" stroke-width="1.5" stroke-linecap="round" stroke-linejoin="round"/>
<path fill-rule="evenodd" clip-rule="evenodd" d="M3.25 7C3.25 5.48122 4.48122 4.25 6 4.25H18C19.5188 4.25 20.75 5.48122 20.75 7V14C20.75 15.5188 19.5188 16.75 18 16.75H6C4.48122 16.75 3.25 15.5188 3.25 14V7ZM10 6.75C9.58579 6.75 9.25 7.08579 9.25 7.5C9.25 7.91421 9.58579 8.25 10 8.25H14C14.4142 8.25 14.75 7.91421 14.75 7.5C14.75 7.08579 14.4142 6.75 14 6.75H10Z" fill="black"/>
</svg>
