<svg width="24" height="24" viewBox="0 0 24 24" fill="none" xmlns="http://www.w3.org/2000/svg">
<path fill-rule="evenodd" clip-rule="evenodd" d="M3.25 6C3.25 4.48122 4.48122 3.25 6 3.25H18C19.5188 3.25 20.75 4.48122 20.75 6V18C20.75 19.5188 19.5188 20.75 18 20.75H16.75V12C16.75 11.0335 15.9665 10.25 15 10.25H12H9C8.0335 10.25 7.25 11.0335 7.25 12V20.75H6C4.48122 20.75 3.25 19.5188 3.25 18V6ZM10 6.25C9.58579 6.25 9.25 6.58579 9.25 7C9.25 7.41421 9.58579 7.75 10 7.75H14C14.4142 7.75 14.75 7.41421 14.75 7C14.75 6.58579 14.4142 6.25 14 6.25H10ZM9 11.75H11.25V19.25H8.75V12C8.75 11.8619 8.86193 11.75 9 11.75ZM12.75 11.75V19.25H15.25V12C15.25 11.8619 15.1381 11.75 15 11.75H12.75Z" fill="black"/>
</svg>
