<svg width="24" height="24" viewBox="0 0 24 24" fill="none" xmlns="http://www.w3.org/2000/svg">
<path fill-rule="evenodd" clip-rule="evenodd" d="M9.25 3.5C9.25 3.08579 9.58579 2.75 10 2.75H13C13.4142 2.75 13.75 3.08579 13.75 3.5V8.5C13.75 8.89345 13.9352 9.26393 14.25 9.5L14.65 9.8C15.3425 10.3193 15.75 11.1344 15.75 12V12.25H12.5C11.8096 12.25 11.25 12.8096 11.25 13.5V17.5C11.25 18.1904 11.8096 18.75 12.5 18.75H15.75V19C15.75 20.5188 14.5188 21.75 13 21.75H10C8.48122 21.75 7.25 20.5188 7.25 19V12C7.25 11.1344 7.65753 10.3193 8.35 9.8L8.75 9.5C9.06476 9.26393 9.25 8.89345 9.25 8.5V3.5ZM15.75 17.25V13.75H12.75V17.25H15.75ZM10.5 6.75H12.5V5.25H10.5V6.75Z" fill="black"/>
</svg>
