<svg width="24" height="24" viewBox="0 0 24 24" fill="none" xmlns="http://www.w3.org/2000/svg">
<path d="M9 6C9 4.34315 10.3431 3 12 3V3C13.6569 3 15 4.34315 15 6V8H9V6Z" stroke="black" stroke-width="1.5" stroke-linecap="round" stroke-linejoin="round"/>
<path fill-rule="evenodd" clip-rule="evenodd" d="M4.25 10C4.25 8.48122 5.48122 7.25 7 7.25H17C18.5188 7.25 19.75 8.48122 19.75 10V18C19.75 19.5188 18.5188 20.75 17 20.75H7C5.48122 20.75 4.25 19.5188 4.25 18V10ZM12 10.25C10.7574 10.25 9.75 11.2574 9.75 12.5C9.75 13.4797 10.3761 14.3131 11.25 14.622V17C11.25 17.4142 11.5858 17.75 12 17.75C12.4142 17.75 12.75 17.4142 12.75 17V14.622C13.6239 14.3131 14.25 13.4797 14.25 12.5C14.25 11.2574 13.2426 10.25 12 10.25Z" fill="black"/>
</svg>
