<svg width="24" height="24" viewBox="0 0 24 24" fill="none" xmlns="http://www.w3.org/2000/svg">
<path d="M9 5C9 3.89543 9.89543 3 11 3H13C14.1046 3 15 3.89543 15 5V7H9V5Z" stroke="black" stroke-width="1.5" stroke-linecap="round" stroke-linejoin="round"/>
<path fill-rule="evenodd" clip-rule="evenodd" d="M2.25 9C2.25 7.48122 3.48122 6.25 5 6.25H19C20.5188 6.25 21.75 7.48122 21.75 9V17C21.75 18.5188 20.5188 19.75 19 19.75H5C3.48122 19.75 2.25 18.5188 2.25 17V9ZM9.75 8.5C9.75 8.08579 9.41421 7.75 9 7.75C8.58579 7.75 8.25 8.08579 8.25 8.5V17.5C8.25 17.9142 8.58579 18.25 9 18.25C9.41421 18.25 9.75 17.9142 9.75 17.5V8.5ZM15.75 8.5C15.75 8.08579 15.4142 7.75 15 7.75C14.5858 7.75 14.25 8.08579 14.25 8.5V17.5C14.25 17.9142 14.5858 18.25 15 18.25C15.4142 18.25 15.75 17.9142 15.75 17.5V8.5Z" fill="black"/>
</svg>
