<svg width="24" height="24" viewBox="0 0 24 24" fill="none" xmlns="http://www.w3.org/2000/svg">
<path d="M19 8L19.4622 8.23109C20.4047 8.70233 21 9.66562 21 10.7193V10.7193C21 12.0454 20.064 13.1872 18.7636 13.4473L18.5 13.5" stroke="black" stroke-width="1.5" stroke-linecap="round" stroke-linejoin="round"/>
<path d="M5 8L4.53783 8.23109C3.59534 8.70233 3 9.66562 3 10.7193V10.7193C3 12.0454 3.93602 13.1872 5.23637 13.4473L5.5 13.5" stroke="black" stroke-width="1.5" stroke-linecap="round" stroke-linejoin="round"/>
<path fill-rule="evenodd" clip-rule="evenodd" d="M11.6333 5.31155C11.875 5.25976 12.125 5.25976 12.3667 5.31155L18.3667 6.59726C19.1735 6.77017 19.75 7.48323 19.75 8.30842V10.8056C19.75 12.7224 18.9425 14.6141 17.3335 15.783C16.5639 16.3422 15.6528 16.9472 14.7441 17.4155C13.858 17.8722 12.8789 18.25 12 18.25C11.1211 18.25 10.142 17.8722 9.25589 17.4155C8.34721 16.9472 7.43612 16.3422 6.66647 15.783C5.05753 14.6141 4.25 12.7224 4.25 10.8056V8.30842C4.25 7.48323 4.82645 6.77017 5.63332 6.59727L11.6333 5.31155ZM9 8.75C8.58579 8.75 8.25 9.08579 8.25 9.5C8.25 9.91421 8.58579 10.25 9 10.25H15C15.4142 10.25 15.75 9.91421 15.75 9.5C15.75 9.08579 15.4142 8.75 15 8.75H9ZM9 11.25C8.58579 11.25 8.25 11.5858 8.25 12C8.25 12.4142 8.58579 12.75 9 12.75H15C15.4142 12.75 15.75 12.4142 15.75 12C15.75 11.5858 15.4142 11.25 15 11.25H9Z" fill="black"/>
</svg>
