<svg width="24" height="24" viewBox="0 0 24 24" fill="none" xmlns="http://www.w3.org/2000/svg">
<path fill-rule="evenodd" clip-rule="evenodd" d="M5.15896 12.5085C3.6172 10.4521 3.78143 7.52192 5.65164 5.6517C7.52186 3.78149 10.452 3.61726 12.5084 5.15902L5.15896 12.5085ZM6.21963 13.5691C8.276 15.1108 11.2061 14.9465 13.0763 13.0763C14.9464 11.2061 15.1107 8.27606 13.569 6.21969L6.21963 13.5691Z" fill="black"/>
<path fill-rule="evenodd" clip-rule="evenodd" d="M13.9602 10.4247L19.4041 17.1496C19.7261 17.5473 19.6958 18.124 19.334 18.4859L18.4858 19.334C18.124 19.6959 17.5473 19.7262 17.1495 19.4042L10.4246 13.9602L13.9602 10.4247ZM14.4905 13.4299C14.1976 13.137 13.7227 13.137 13.4298 13.4299C13.1369 13.7228 13.1369 14.1977 13.4298 14.4905L14.1369 15.1977C14.4298 15.4905 14.9047 15.4905 15.1976 15.1977C15.4905 14.9048 15.4905 14.4299 15.1976 14.137L14.4905 13.4299Z" fill="black"/>
</svg>
