<svg width="24" height="24" viewBox="0 0 24 24" fill="none" xmlns="http://www.w3.org/2000/svg">
<path fill-rule="evenodd" clip-rule="evenodd" d="M5.25 6C5.25 4.48122 6.48122 3.25 8 3.25H16C17.5188 3.25 18.75 4.48122 18.75 6V18C18.75 19.5188 17.5188 20.75 16 20.75H8C6.48122 20.75 5.25 19.5188 5.25 18V6ZM15.5303 8.03033C15.8232 7.73744 15.8232 7.26256 15.5303 6.96967C15.2374 6.67678 14.7626 6.67678 14.4697 6.96967L9.46967 11.9697C9.17678 12.2626 9.17678 12.7374 9.46967 13.0303C9.76256 13.3232 10.2374 13.3232 10.5303 13.0303L15.5303 8.03033ZM15.0303 12.0303C15.3232 11.7374 15.3232 11.2626 15.0303 10.9697C14.7374 10.6768 14.2626 10.6768 13.9697 10.9697L8.96967 15.9697C8.67678 16.2626 8.67678 16.7374 8.96967 17.0303C9.26256 17.3232 9.73744 17.3232 10.0303 17.0303L15.0303 12.0303Z" fill="black"/>
</svg>
