<svg width="24" height="24" viewBox="0 0 24 24" fill="none" xmlns="http://www.w3.org/2000/svg">
<path d="M20 5V19C20 20.1046 19.1046 21 18 21H5C6.10457 21 7 20.1046 7 19V5C7 3.89543 7.89543 3 9 3H18C19.1046 3 20 3.89543 20 5Z" stroke="black" stroke-width="1.5" stroke-linecap="round" stroke-linejoin="round"/>
<path d="M7 13V19C7 20.1046 6.10457 21 5 21C3.89543 21 3 20.1046 3 19V13C3 11.8954 3.89543 11 5 11C6.10457 11 7 11.8954 7 13Z" stroke="black" stroke-width="1.5" stroke-linecap="round" stroke-linejoin="round"/>
<path d="M10.5 6L16.5 6C17.0523 6 17.5 6.44772 17.5 7L17.5 9C17.5 9.55228 17.0523 10 16.5 10L10.5 10C9.94772 10 9.5 9.55228 9.5 9L9.5 7C9.5 6.44772 9.94772 6 10.5 6Z" stroke="black" stroke-width="1.5" stroke-linecap="round" stroke-linejoin="round"/>
<path d="M9.5 13H17" stroke="black" stroke-width="1.5" stroke-linecap="round" stroke-linejoin="round"/>
<path d="M9.5 16.5H14" stroke="black" stroke-width="1.5" stroke-linecap="round" stroke-linejoin="round"/>
</svg>
