<svg width="24" height="24" viewBox="0 0 24 24" fill="none" xmlns="http://www.w3.org/2000/svg">
<path d="M7 13V19C7 20.1046 6.10457 21 5 21C3.89543 21 3 20.1046 3 19V13C3 11.8954 3.89543 11 5 11C6.10457 11 7 11.8954 7 13Z" stroke="black" stroke-width="1.5" stroke-linecap="round" stroke-linejoin="round"/>
<path fill-rule="evenodd" clip-rule="evenodd" d="M6.25 5C6.25 3.48122 7.48122 2.25 9 2.25H18C19.5188 2.25 20.75 3.48122 20.75 5V19C20.75 20.5188 19.5188 21.75 18 21.75H5C4.58579 21.75 4.25 21.4142 4.25 21C4.25 20.5858 4.58579 20.25 5 20.25C5.69036 20.25 6.25 19.6904 6.25 19V5ZM10.5 10.75C9.5335 10.75 8.75 9.9665 8.75 9V7C8.75 6.0335 9.5335 5.25 10.5 5.25L16.5 5.25C17.4665 5.25 18.25 6.0335 18.25 7V9C18.25 9.9665 17.4665 10.75 16.5 10.75H10.5ZM10.25 9C10.25 9.13807 10.3619 9.25 10.5 9.25L16.5 9.25C16.6381 9.25 16.75 9.13807 16.75 9V7C16.75 6.86193 16.6381 6.75 16.5 6.75H10.5C10.3619 6.75 10.25 6.86193 10.25 7V9ZM8.75 13C8.75 12.5858 9.08579 12.25 9.5 12.25H17C17.4142 12.25 17.75 12.5858 17.75 13C17.75 13.4142 17.4142 13.75 17 13.75H9.5C9.08579 13.75 8.75 13.4142 8.75 13ZM9.5 15.75C9.08579 15.75 8.75 16.0858 8.75 16.5C8.75 16.9142 9.08579 17.25 9.5 17.25H14C14.4142 17.25 14.75 16.9142 14.75 16.5C14.75 16.0858 14.4142 15.75 14 15.75H9.5Z" fill="black"/>
</svg>
