<svg width="24" height="24" viewBox="0 0 24 24" fill="none" xmlns="http://www.w3.org/2000/svg">
<path fill-rule="evenodd" clip-rule="evenodd" d="M6.36578 5.30512C7.88802 4.02271 9.85377 3.25 12 3.25C16.8325 3.25 20.75 7.16751 20.75 12C20.75 14.1462 19.9773 16.112 18.6949 17.6342L13.6145 12.5539C14.8605 12.099 15.75 10.9034 15.75 9.5C15.75 7.70507 14.2949 6.25 12.5 6.25H10C9.58579 6.25 9.25 6.58579 9.25 7V8.18934L6.36578 5.30512ZM5.30512 6.36578C4.02271 7.88802 3.25 9.85377 3.25 12C3.25 16.8325 7.16751 20.75 12 20.75C14.1462 20.75 16.112 19.9773 17.6342 18.6949L5.30512 6.36578ZM12.5 11.25C12.4415 11.25 12.3846 11.2567 12.33 11.2693L10.75 9.68934V7.75H12.5C13.4665 7.75 14.25 8.5335 14.25 9.5C14.25 10.4665 13.4665 11.25 12.5 11.25ZM10.75 13C10.75 12.5858 10.4142 12.25 10 12.25C9.58579 12.25 9.25 12.5858 9.25 13V17C9.25 17.4142 9.58579 17.75 10 17.75C10.4142 17.75 10.75 17.4142 10.75 17V13Z" fill="black"/>
</svg>
