<svg width="24" height="24" viewBox="0 0 24 24" fill="none" xmlns="http://www.w3.org/2000/svg">
<path d="M10 7V6.25C9.58579 6.25 9.25 6.58579 9.25 7H10ZM9.25 17C9.25 17.4142 9.58579 17.75 10 17.75C10.4142 17.75 10.75 17.4142 10.75 17H9.25ZM12.5 11.25C12.0858 11.25 11.75 11.5858 11.75 12C11.75 12.4142 12.0858 12.75 12.5 12.75V11.25ZM7.03033 5.96967C6.73744 5.67678 6.26256 5.67678 5.96967 5.96967C5.67678 6.26256 5.67678 6.73744 5.96967 7.03033L7.03033 5.96967ZM16.9697 18.0303C17.2626 18.3232 17.7374 18.3232 18.0303 18.0303C18.3232 17.7374 18.3232 17.2626 18.0303 16.9697L16.9697 18.0303ZM10.75 13C10.75 12.5858 10.4142 12.25 10 12.25C9.58579 12.25 9.25 12.5858 9.25 13H10.75ZM19.25 12C19.25 16.0041 16.0041 19.25 12 19.25V20.75C16.8325 20.75 20.75 16.8325 20.75 12H19.25ZM12 19.25C7.99594 19.25 4.75 16.0041 4.75 12H3.25C3.25 16.8325 7.16751 20.75 12 20.75V19.25ZM4.75 12C4.75 7.99594 7.99594 4.75 12 4.75V3.25C7.16751 3.25 3.25 7.16751 3.25 12H4.75ZM12 4.75C16.0041 4.75 19.25 7.99594 19.25 12H20.75C20.75 7.16751 16.8325 3.25 12 3.25V4.75ZM10 7.75H12.5V6.25H10V7.75ZM14.25 9.5C14.25 10.4665 13.4665 11.25 12.5 11.25V12.75C14.2949 12.75 15.75 11.2949 15.75 9.5H14.25ZM12.5 7.75C13.4665 7.75 14.25 8.5335 14.25 9.5H15.75C15.75 7.70507 14.2949 6.25 12.5 6.25V7.75ZM10.75 17V13H9.25V17H10.75ZM5.96967 7.03033L9.46967 10.5303L10.5303 9.46967L7.03033 5.96967L5.96967 7.03033ZM9.46967 10.5303L16.9697 18.0303L18.0303 16.9697L10.5303 9.46967L9.46967 10.5303ZM9.25 7V10H10.75V7H9.25Z" fill="black"/>
</svg>
