<svg width="24" height="24" viewBox="0 0 24 24" fill="none" xmlns="http://www.w3.org/2000/svg">
<path d="M3 14C3 16.2091 4.79086 18 7 18H17C19.2091 18 21 16.2091 21 14C21 12.1352 19.724 10.5685 17.9974 10.1254C17.9991 10.0838 18 10.042 18 10C18 8.34315 16.6569 7 15 7C14.0754 7 13.2485 7.41829 12.6982 8.07596C12.1526 6.85268 10.9259 6 9.5 6C7.567 6 6 7.567 6 9.5C6 9.709 6.01832 9.91373 6.05344 10.1127C4.30116 10.5378 3 12.117 3 14Z" stroke="black" stroke-width="1.5" stroke-linecap="round" stroke-linejoin="round"/>
<circle cx="7.69231" cy="14.1923" r="1.69231" stroke="black" stroke-width="1.26923" stroke-linecap="round" stroke-linejoin="round"/>
<path d="M10.7308 12.5H12M13.2692 12.5H12M12 12.5V15.8846" stroke="black" stroke-width="1.26923" stroke-linecap="round" stroke-linejoin="round"/>
<path d="M15 12.5H16.2692M17.5385 12.5H16.2692M16.2692 12.5V15.8846" stroke="black" stroke-width="1.26923" stroke-linecap="round" stroke-linejoin="round"/>
</svg>
