<svg width="24" height="24" viewBox="0 0 24 24" fill="none" xmlns="http://www.w3.org/2000/svg">
<path fill-rule="evenodd" clip-rule="evenodd" d="M7 18C4.79086 18 3 16.2091 3 14C3 12.117 4.30116 10.5378 6.05344 10.1127C6.01832 9.91373 6 9.709 6 9.5C6 7.567 7.567 6 9.5 6C10.9259 6 12.1526 6.85268 12.6982 8.07596C13.2485 7.41829 14.0754 7 15 7C16.6569 7 18 8.34315 18 10C18 10.042 17.9991 10.0838 17.9974 10.1254C19.724 10.5685 21 12.1352 21 14C21 16.2091 19.2091 18 17 18H7ZM7.69228 13.1346C7.10813 13.1346 6.63459 13.6081 6.63459 14.1923C6.63459 14.7764 7.10813 15.25 7.69228 15.25C8.27643 15.25 8.74997 14.7764 8.74997 14.1923C8.74997 13.6081 8.27643 13.1346 7.69228 13.1346ZM5.36536 14.1923C5.36536 12.9072 6.40716 11.8654 7.69228 11.8654C8.9774 11.8654 10.0192 12.9072 10.0192 14.1923C10.0192 15.4774 8.9774 16.5192 7.69228 16.5192C6.40716 16.5192 5.36536 15.4774 5.36536 14.1923ZM10.0961 12.5C10.0961 12.1495 10.3803 11.8654 10.7307 11.8654H13.2692C13.6197 11.8654 13.9038 12.1495 13.9038 12.5C13.9038 12.8505 13.6197 13.1346 13.2692 13.1346H12.6346V15.8846C12.6346 16.2351 12.3505 16.5192 12 16.5192C11.6495 16.5192 11.3654 16.2351 11.3654 15.8846V13.1346H10.7307C10.3803 13.1346 10.0961 12.8505 10.0961 12.5ZM15 11.8654C14.6495 11.8654 14.3654 12.1495 14.3654 12.5C14.3654 12.8505 14.6495 13.1346 15 13.1346H15.6346V15.8846C15.6346 16.2351 15.9187 16.5192 16.2692 16.5192C16.6197 16.5192 16.9038 16.2351 16.9038 15.8846V13.1346H17.5384C17.8889 13.1346 18.173 12.8505 18.173 12.5C18.173 12.1495 17.8889 11.8654 17.5384 11.8654H15Z" fill="black"/>
</svg>
