<svg width="24" height="24" viewBox="0 0 24 24" fill="none" xmlns="http://www.w3.org/2000/svg">
<path fill-rule="evenodd" clip-rule="evenodd" d="M3.25 12C3.25 7.16751 7.16751 3.25 12 3.25C16.8325 3.25 20.75 7.16751 20.75 12C20.75 16.8325 16.8325 20.75 12 20.75C7.16751 20.75 3.25 16.8325 3.25 12ZM10 6.25C9.58579 6.25 9.25 6.58579 9.25 7V17C9.25 17.4142 9.58579 17.75 10 17.75C10.4142 17.75 10.75 17.4142 10.75 17V12.75H12.5C14.2949 12.75 15.75 11.2949 15.75 9.5C15.75 7.70507 14.2949 6.25 12.5 6.25H10ZM12.5 11.25H10.75V7.75H12.5C13.4665 7.75 14.25 8.5335 14.25 9.5C14.25 10.4665 13.4665 11.25 12.5 11.25Z" fill="black"/>
</svg>
