<svg width="24" height="24" viewBox="0 0 24 24" fill="none" xmlns="http://www.w3.org/2000/svg">
<rect width="24" height="24" fill="white"/>
<path fill-rule="evenodd" clip-rule="evenodd" d="M12 20C16.4183 20 20 16.4183 20 12C20 7.58172 16.4183 4 12 4C7.58172 4 4 7.58172 4 12C4 16.4183 7.58172 20 12 20ZM12.5 7H10V12H12.5C13.8807 12 15 10.8807 15 9.5C15 8.11929 13.8807 7 12.5 7Z" fill="black" fill-opacity="0.2"/>
<circle cx="12" cy="12" r="8" stroke="black" stroke-width="1.5" stroke-linecap="round" stroke-linejoin="round"/>
<path d="M10 17V12M10 12V7H12.5C13.8807 7 15 8.11929 15 9.5V9.5C15 10.8807 13.8807 12 12.5 12H10Z" stroke="black" stroke-width="1.5" stroke-linecap="round" stroke-linejoin="round"/>
</svg>
