<svg width="24" height="24" viewBox="0 0 24 24" fill="none" xmlns="http://www.w3.org/2000/svg">
<rect width="24" height="24" fill="white"/>
<path d="M15.6247 13.5C14.4738 11.7523 15.6247 9 12.1247 9C8.62466 9 9.77554 11.7523 8.62466 13.5C7.47379 15.2477 5.48248 15.4684 6.12465 17.5C6.87117 19.8617 9.82291 17.9504 12.1247 17.9504C14.4264 17.9504 17.3781 19.8617 18.1246 17.5C18.7668 15.4684 16.7755 15.2477 15.6247 13.5Z" stroke="black" stroke-width="1.5" stroke-linecap="round" stroke-linejoin="round"/>
<circle cx="15" cy="6" r="1" stroke="black" stroke-width="1.5" stroke-linecap="round" stroke-linejoin="round"/>
<circle cx="1" cy="1" r="1" transform="matrix(-1 0 0 1 10 5)" stroke="black" stroke-width="1.5" stroke-linecap="round" stroke-linejoin="round"/>
<circle cx="18" cy="10" r="1" stroke="black" stroke-width="1.5" stroke-linecap="round" stroke-linejoin="round"/>
<circle cx="1" cy="1" r="1" transform="matrix(-1 0 0 1 7 9)" stroke="black" stroke-width="1.5" stroke-linecap="round" stroke-linejoin="round"/>
</svg>
