<svg width="24" height="24" viewBox="0 0 24 24" fill="none" xmlns="http://www.w3.org/2000/svg">
<path fill-rule="evenodd" clip-rule="evenodd" d="M6.65974 18.1928C6.19874 18.542 5.62323 18.75 5 18.75C3.48122 18.75 2.25 17.5188 2.25 16C2.25 15.3261 2.4931 14.7081 2.89505 14.2303V9.76969C2.4931 9.29186 2.25 8.67392 2.25 8C2.25 6.48122 3.48122 5.25 5 5.25C5.62323 5.25 6.19874 5.45796 6.65974 5.80724C6.72456 5.79644 6.79723 5.78448 6.87695 5.77156C7.23271 5.7139 7.72995 5.63705 8.29675 5.56015C9.42086 5.40766 10.8538 5.25 12 5.25C13.1462 5.25 14.5791 5.40766 15.7032 5.56015C16.27 5.63705 16.7673 5.7139 17.123 5.77156C17.2028 5.78448 17.2754 5.79644 17.3403 5.80724C17.8013 5.45796 18.3768 5.25 19 5.25C20.5188 5.25 21.75 6.48122 21.75 8C21.75 8.67392 21.5069 9.29186 21.1049 9.76969V14.2303C21.5069 14.7081 21.75 15.3261 21.75 16C21.75 17.5188 20.5188 18.75 19 18.75C18.3768 18.75 17.8013 18.542 17.3403 18.1928C17.2754 18.2036 17.2028 18.2155 17.123 18.2284C16.7673 18.2861 16.27 18.363 15.7032 18.4398C14.5791 18.5923 13.1462 18.75 12 18.75C10.8538 18.75 9.42086 18.5923 8.29675 18.4398C7.72995 18.363 7.23271 18.2861 6.87695 18.2284C6.79723 18.2155 6.72456 18.2036 6.65974 18.1928ZM6.32701 15.3412C6.45701 15.6012 6.72701 15.7512 6.99701 15.7512C7.10701 15.7512 7.21701 15.7212 7.32701 15.6712C7.69701 15.4912 7.85701 15.0412 7.67701 14.6712C7.67701 14.6712 7.67492 14.6653 7.67105 14.6556C7.6199 14.5275 7.25701 13.6186 7.25701 12.0012C7.25701 10.3549 7.62405 9.4606 7.67204 9.34365C7.67477 9.337 7.67701 9.33124 7.67701 9.33124C7.85701 8.96124 7.70701 8.51124 7.33701 8.33124C6.96701 8.14124 6.50701 8.29124 6.32701 8.66124C6.26701 8.78124 5.74701 9.90124 5.74701 12.0112C5.74701 14.1212 6.26701 15.2212 6.32701 15.3412Z" fill="black"/>
</svg>
