<svg width="24" height="24" viewBox="0 0 24 24" fill="none" xmlns="http://www.w3.org/2000/svg">
<path d="M21 8C21 6.89543 20.1046 6 19 6C18.4372 6 17.9286 6.2325 17.5652 6.60669C17.5652 6.60669 14.1862 6 12 6C9.81378 6 6.43482 6.60669 6.43482 6.60669C6.07138 6.2325 5.56284 6 5 6C3.89543 6 3 6.89543 3 8C3 8.58183 3.24845 9.10564 3.64505 9.47111V14.5289C3.24845 14.8944 3 15.4182 3 16C3 17.1046 3.89543 18 5 18C5.56284 18 6.07138 17.7675 6.43482 17.3933C6.43482 17.3933 9.81378 18 12 18C14.1862 18 17.5652 17.3933 17.5652 17.3933C17.9286 17.7675 18.4372 18 19 18C20.1046 18 21 17.1046 21 16C21 15.4182 20.7515 14.8944 20.3549 14.5289V9.47111C20.7515 9.10564 21 8.58183 21 8Z" stroke="black" stroke-width="1.5" stroke-linecap="round" stroke-linejoin="round"/>
<path d="M7 9C7 9 6.5 10 6.5 12C6.5 14 7 15 7 15" stroke="black" stroke-width="1.5" stroke-linecap="round" stroke-linejoin="round"/>
</svg>
