<svg width="24" height="24" viewBox="0 0 24 24" fill="none" xmlns="http://www.w3.org/2000/svg">
<path d="M6 14H18L16.4558 18.6325C16.1836 19.4491 15.4193 20 14.5585 20H9.44152C8.58066 20 7.81638 19.4491 7.54415 18.6325L6 14Z" fill="black" stroke="black" stroke-width="1.5" stroke-linecap="round" stroke-linejoin="round"/>
<path d="M4 14H20" stroke="black" stroke-width="1.5" stroke-linecap="round" stroke-linejoin="round"/>
<path d="M18.5 9C17.1332 10.3668 15.318 9.35355 14.9645 9C14.6109 8.64645 13.5976 6.8313 14.9645 5.46447C16.7322 3.6967 19.9142 4.05025 19.9142 4.05025C19.9142 4.05025 20.2678 7.23223 18.5 9Z" fill="black" stroke="black" stroke-width="1.5" stroke-linecap="round" stroke-linejoin="round"/>
<path d="M9.55584 6.72735C10.7274 7.89893 9.9397 9.37395 9.65685 9.6568C9.37401 9.93964 7.89898 10.7274 6.72741 9.55578C5.21218 8.04055 5.41421 5.41416 5.41421 5.41416C5.41421 5.41416 8.04061 5.21213 9.55584 6.72735Z" fill="black" stroke="black" stroke-width="1.5" stroke-linecap="round" stroke-linejoin="round"/>
<path d="M10 10L12 12" stroke="black" stroke-width="1.5" stroke-linecap="round" stroke-linejoin="round"/>
<path d="M15 9L10 14" stroke="black" stroke-width="1.5" stroke-linecap="round" stroke-linejoin="round"/>
</svg>
