<svg width="24" height="24" viewBox="0 0 24 24" fill="none" xmlns="http://www.w3.org/2000/svg">
<path d="M12 16L12 5.09902C12 4.49205 12.492 4 13.099 4C13.6229 4 14.074 4.36978 14.1767 4.88348L16 14L18.5 16.5L15.5 19.5L12 16Z" stroke="black" stroke-width="1.5" stroke-linecap="round" stroke-linejoin="round"/>
<path d="M12 16L12 5.09902C12 4.49205 11.508 4 10.901 4C10.3771 4 9.92605 4.36978 9.8233 4.88348L8 14L5.5 16.5L8.5 19.5L12 16Z" stroke="black" stroke-width="1.5" stroke-linecap="round" stroke-linejoin="round"/>
<path d="M16.2929 20.2929L15.5 19.5L18.5 16.5L19.2929 17.2929C19.6834 17.6834 19.6834 18.3166 19.2929 18.7071L17.7071 20.2929C17.3166 20.6834 16.6834 20.6834 16.2929 20.2929Z" fill="black" stroke="black" stroke-width="1.5" stroke-linecap="round" stroke-linejoin="round"/>
<path d="M7.70711 20.2929L8.5 19.5L5.5 16.5L4.70711 17.2929C4.31658 17.6834 4.31658 18.3166 4.70711 18.7071L6.29289 20.2929C6.68342 20.6834 7.31658 20.6834 7.70711 20.2929Z" fill="black" stroke="black" stroke-width="1.5" stroke-linecap="round" stroke-linejoin="round"/>
</svg>
