<svg width="24" height="24" viewBox="0 0 24 24" fill="none" xmlns="http://www.w3.org/2000/svg">
<path d="M12 5V3" stroke="black" stroke-width="1.5" stroke-linecap="round" stroke-linejoin="round"/>
<path d="M10 17L6 20" stroke="black" stroke-width="1.5" stroke-linecap="round" stroke-linejoin="round"/>
<path d="M14 17L18 20" stroke="black" stroke-width="1.5" stroke-linecap="round" stroke-linejoin="round"/>
<path fill-rule="evenodd" clip-rule="evenodd" d="M3.25 7C3.25 5.48122 4.48122 4.25 6 4.25H18C19.5188 4.25 20.75 5.48122 20.75 7V15C20.75 16.5188 19.5188 17.75 18 17.75H6C4.48122 17.75 3.25 16.5188 3.25 15V7ZM16 7.25C16.4142 7.25 16.75 7.58579 16.75 8V14C16.75 14.4142 16.4142 14.75 16 14.75C15.5858 14.75 15.25 14.4142 15.25 14V8C15.25 7.58579 15.5858 7.25 16 7.25ZM12 9.25C12.4142 9.25 12.75 9.58579 12.75 10V14C12.75 14.4142 12.4142 14.75 12 14.75C11.5858 14.75 11.25 14.4142 11.25 14V10C11.25 9.58579 11.5858 9.25 12 9.25ZM8.75 12C8.75 11.5858 8.41421 11.25 8 11.25C7.58579 11.25 7.25 11.5858 7.25 12V14C7.25 14.4142 7.58579 14.75 8 14.75C8.41421 14.75 8.75 14.4142 8.75 14V12Z" fill="black"/>
</svg>
