<svg width="24" height="24" viewBox="0 0 24 24" fill="none" xmlns="http://www.w3.org/2000/svg">
<rect width="24" height="24" fill="white"/>
<path d="M3 11C3 9.89543 3.89543 9 5 9H19C20.1046 9 21 9.89543 21 11V16C21 17.1046 20.1046 18 19 18H18V17C18 15.8954 17.1046 15 16 15H12H8C6.89543 15 6 15.8954 6 17V18H5C3.89543 18 3 17.1046 3 16V11Z" fill="black" fill-opacity="0.2" stroke="black" stroke-width="1.5"/>
<rect x="6" y="15" width="12" height="6" rx="2" stroke="black" stroke-width="1.5"/>
<path d="M6 5C6 3.89543 6.89543 3 8 3H16C17.1046 3 18 3.89543 18 5V9H6V5Z" stroke="black" stroke-width="1.5"/>
<path d="M18 12V12.001" stroke="black" stroke-width="1.5" stroke-linecap="round" stroke-linejoin="round"/>
</svg>
