<svg width="24" height="24" viewBox="0 0 24 24" fill="none" xmlns="http://www.w3.org/2000/svg">
<rect x="6" y="15" width="12" height="6" rx="2" stroke="black" stroke-width="1.5"/>
<path d="M6 5C6 3.89543 6.89543 3 8 3H16C17.1046 3 18 3.89543 18 5V9H6V5Z" stroke="black" stroke-width="1.5"/>
<path fill-rule="evenodd" clip-rule="evenodd" d="M2.25 11C2.25 9.48122 3.48122 8.25 5 8.25H19C20.5188 8.25 21.75 9.48122 21.75 11V16C21.75 17.5188 20.5188 18.75 19 18.75H17.25V17C17.25 16.3096 16.6904 15.75 16 15.75H8C7.30964 15.75 6.75 16.3096 6.75 17V18.75H5C3.48122 18.75 2.25 17.5188 2.25 16V11ZM18.75 12C18.75 11.5858 18.4142 11.25 18 11.25C17.5858 11.25 17.25 11.5858 17.25 12V12.001C17.25 12.4152 17.5858 12.751 18 12.751C18.4142 12.751 18.75 12.4152 18.75 12.001V12Z" fill="black"/>
</svg>
