<svg width="24" height="24" viewBox="0 0 24 24" fill="none" xmlns="http://www.w3.org/2000/svg">
<circle cx="7" cy="18" r="2" stroke="black" stroke-width="1.5" stroke-linecap="round" stroke-linejoin="round"/>
<circle cx="17" cy="18" r="2" stroke="black" stroke-width="1.5" stroke-linecap="round" stroke-linejoin="round"/>
<path d="M4 4L18 4" stroke="black" stroke-width="1.5" stroke-linecap="round" stroke-linejoin="round"/>
<path fill-rule="evenodd" clip-rule="evenodd" d="M2.25 9C2.25 7.48122 3.48122 6.25 5 6.25H17.6667C18.7768 6.25 19.7781 6.91753 20.2051 7.94231L21.9576 12.1483C22.168 12.6531 22.223 13.2091 22.1158 13.7454L21.2354 18.1471C21.1653 18.4977 20.8575 18.75 20.5 18.75H19C18.5858 18.75 18.25 18.4142 18.25 18C18.25 17.7867 18.1798 17.45 17.9913 17.1882C17.8304 16.9647 17.5556 16.75 17 16.75C16.4444 16.75 16.1696 16.9647 16.0087 17.1882C15.8202 17.45 15.75 17.7867 15.75 18C15.75 18.4142 15.4142 18.75 15 18.75H9C8.58579 18.75 8.25 18.4142 8.25 18C8.25 17.7867 8.17984 17.45 7.99135 17.1882C7.8304 16.9647 7.55556 16.75 7 16.75C6.44444 16.75 6.1696 16.9647 6.00865 17.1882C5.82016 17.45 5.75 17.7867 5.75 18C5.75 18.4142 5.41421 18.75 5 18.75H3C2.58579 18.75 2.25 18.4142 2.25 18V9ZM14.75 9C14.75 8.58579 14.4142 8.25 14 8.25C13.5858 8.25 13.25 8.58579 13.25 9V12.25H5C4.58579 12.25 4.25 12.5858 4.25 13C4.25 13.4142 4.58579 13.75 5 13.75H14H19C19.4142 13.75 19.75 13.4142 19.75 13C19.75 12.5858 19.4142 12.25 19 12.25H14.75V9Z" fill="black"/>
</svg>
