<svg width="24" height="24" viewBox="0 0 24 24" fill="none" xmlns="http://www.w3.org/2000/svg">
<g clip-path="url(#clip0_1391_482)">
<path fill-rule="evenodd" clip-rule="evenodd" d="M18.69 8.80995L13.69 3.80995C12.62 2.73995 10.87 2.73995 9.8 3.80995L4.81 8.80995C4.29 9.32995 4 10.0299 4 10.7499V17.9199C4 19.4399 5.23 20.6699 6.75 20.6699H16.75C18.27 20.6699 19.5 19.4399 19.5 17.9199V10.7499C19.5 10.0199 19.21 9.31995 18.69 8.80995ZM11.04 16.3499C10.93 16.7999 10.76 17.1699 10.62 17.4299C10.55 17.5599 10.49 17.6599 10.44 17.7399C10.42 17.7799 10.4 17.8099 10.38 17.8299C10.38 17.8399 10.37 17.8499 10.36 17.8599V17.8699C10.36 17.8699 10.36 17.8699 9.76 17.4199L10.36 17.8699C10.11 18.1999 9.64 18.2699 9.31 18.0199C8.98 17.7699 8.91 17.2999 9.16 16.9699C9.16 16.9699 9.18 16.9399 9.19 16.9199C9.22 16.8799 9.26 16.8099 9.31 16.7199C9.41 16.5399 9.52 16.2899 9.6 15.9899C9.75 15.3999 9.75 14.6499 9.17 13.8699C8.25 12.6499 8.25 11.3999 8.48 10.4899C8.59 10.0399 8.76 9.66995 8.9 9.40995C8.97 9.27995 9.03 9.17995 9.08 9.09995C9.1 9.05995 9.12 9.02995 9.14 9.00995C9.14 8.99995 9.15 8.98995 9.16 8.97995V8.96995C9.16 8.96995 9.16 8.96995 9.76 9.40995L9.17 8.95995C9.42 8.62995 9.89 8.55995 10.22 8.80995C10.55 9.05995 10.62 9.52995 10.37 9.85995C10.37 9.85995 10.35 9.88995 10.34 9.90995C10.31 9.94995 10.27 10.0199 10.22 10.1099C10.12 10.2899 10.01 10.5399 9.93 10.8399C9.78 11.4299 9.78 12.1799 10.36 12.9599C11.28 14.1799 11.28 15.4299 11.05 16.3399L11.04 16.3499ZM15.04 16.3499C14.93 16.7999 14.76 17.1699 14.62 17.4299C14.55 17.5599 14.49 17.6599 14.44 17.7399C14.42 17.7799 14.4 17.8099 14.38 17.8299C14.38 17.8399 14.37 17.8499 14.36 17.8599V17.8699C14.11 18.1999 13.64 18.2699 13.31 18.0199C12.98 17.7699 12.91 17.2999 13.16 16.9699C13.16 16.9699 13.18 16.9399 13.19 16.9199C13.22 16.8799 13.26 16.8099 13.31 16.7199C13.41 16.5399 13.52 16.2899 13.6 15.9899C13.75 15.3999 13.75 14.6499 13.17 13.8699C12.25 12.6499 12.25 11.3999 12.48 10.4899C12.59 10.0399 12.76 9.66995 12.9 9.40995C12.97 9.27995 13.03 9.17995 13.08 9.09995C13.1 9.05995 13.12 9.02995 13.14 9.00995C13.14 8.99995 13.15 8.98995 13.16 8.97995V8.96995C13.41 8.63995 13.88 8.56995 14.21 8.81995C14.54 9.06995 14.61 9.53995 14.36 9.86995C14.36 9.86995 14.34 9.89995 14.33 9.91995C14.3 9.95995 14.26 10.0299 14.21 10.1199C14.11 10.2999 14 10.5499 13.92 10.8499C13.77 11.4399 13.77 12.1899 14.35 12.9699C15.27 14.1899 15.27 15.4399 15.04 16.3499Z" fill="black"/>
</g>
<defs>
<clipPath id="clip0_1391_482">
<rect width="15.5" height="17.67" fill="white" transform="translate(4 3)"/>
</clipPath>
</defs>
</svg>
