<svg width="24" height="24" viewBox="0 0 24 24" fill="none" xmlns="http://www.w3.org/2000/svg">
<rect width="24" height="24" fill="white"/>
<path d="M5 10.8284C5 10.298 5.21071 9.78929 5.58579 9.41421L10.5858 4.41421C11.3668 3.63316 12.6332 3.63317 13.4142 4.41421L18.4142 9.41421C18.7893 9.78929 19 10.298 19 10.8284V18C19 19.1046 18.1046 20 17 20H7C5.89543 20 5 19.1046 5 18V10.8284Z" fill="black" fill-opacity="0.2" stroke="black" stroke-width="1.5" stroke-linecap="round" stroke-linejoin="round"/>
<path d="M10 17.5C10 17.5 11 16 10 13.5C9 11 10 9.5 10 9.5" stroke="black" stroke-width="1.5" stroke-linecap="round" stroke-linejoin="round"/>
<path d="M14 17.5C14 17.5 15 16 14 13.5C13 11 14 9.5 14 9.5" stroke="black" stroke-width="1.5" stroke-linecap="round" stroke-linejoin="round"/>
</svg>
