<svg width="24" height="24" viewBox="0 0 24 24" fill="none" xmlns="http://www.w3.org/2000/svg">
<path d="M14.2017 18.0226C15.269 18.5767 16.6149 18.406 17.5104 17.5104C18.406 16.6149 18.5767 15.269 18.0226 14.2017C19.1691 13.8389 20 12.7665 20 11.5C20 10.2335 19.1691 9.16112 18.0226 8.79825C18.5767 7.731 18.4059 6.38513 17.5104 5.48959C16.6149 4.59406 15.269 4.42332 14.2018 4.9774C13.8389 3.83095 12.7665 3 11.5 3C10.2335 3 9.16112 3.83095 8.79825 4.9774C7.731 4.42333 6.38513 4.59406 5.48959 5.4896C4.59406 6.38513 4.42332 7.731 4.97739 8.79825C3.83095 9.16112 3 10.2335 3 11.5C3 12.7665 3.83095 13.8389 4.9774 14.2018C4.42332 15.269 4.59406 16.6149 5.48959 17.5104C6.38513 18.4059 7.731 18.5767 8.79825 18.0226C9.16112 19.169 10.2335 20 11.5 20C12.7665 20 13.8389 19.1691 14.2017 18.0226Z" stroke="black" stroke-width="1.5" stroke-linecap="round" stroke-linejoin="round"/>
<path d="M21.6568 19.4556L20 12L19.1566 19.5908C19.0731 20.3425 19.6615 21 20.4179 21C21.2298 21 21.8329 20.2482 21.6568 19.4556Z" stroke="black" stroke-width="1.5" stroke-linecap="round" stroke-linejoin="round"/>
<path d="M8.5 10C8.5 9.33333 8.9 8 10.5 8" stroke="black" stroke-width="1.5" stroke-linecap="round" stroke-linejoin="round"/>
<path d="M15 12.5C15 13.1667 14.6 14.5 13 14.5" stroke="black" stroke-width="1.5" stroke-linecap="round" stroke-linejoin="round"/>
</svg>
