<svg width="24" height="24" viewBox="0 0 24 24" fill="none" xmlns="http://www.w3.org/2000/svg">
<path d="M21.6568 19.4556L20 12L19.1566 19.5908C19.0731 20.3425 19.6615 21 20.4179 21C21.2298 21 21.8329 20.2482 21.6568 19.4556Z" stroke="black" stroke-width="1.5" stroke-linecap="round" stroke-linejoin="round"/>
<path fill-rule="evenodd" clip-rule="evenodd" d="M8.40468 4.02724C9.026 2.96457 10.1789 2.25 11.5 2.25C12.8211 2.25 13.974 2.96457 14.5953 4.02724C15.7861 3.71516 17.1066 4.02509 18.0407 4.95926C18.9749 5.89343 19.2848 7.21392 18.9728 8.40468C20.0354 9.026 20.75 10.1789 20.75 11.5C20.75 12.8211 20.0354 13.974 18.9728 14.5953C19.2848 15.7861 18.9749 17.1066 18.0407 18.0407C17.1066 18.9749 15.7861 19.2848 14.5953 18.9728C13.974 20.0354 12.8211 20.75 11.5 20.75C10.1789 20.75 9.026 20.0354 8.40468 18.9728C7.21392 19.2848 5.89343 18.9749 4.95926 18.0407C4.02509 17.1066 3.71516 15.7861 4.02724 14.5953C2.96457 13.974 2.25 12.8211 2.25 11.5C2.25 10.1789 2.96457 9.02601 4.02724 8.40468C3.71516 7.21392 4.02509 5.89343 4.95926 4.95927C5.89343 4.0251 7.21392 3.71516 8.40468 4.02724ZM9.25 10C9.25 9.78668 9.32016 9.45002 9.50865 9.18823C9.6696 8.96468 9.94444 8.75 10.5 8.75C10.9142 8.75 11.25 8.41421 11.25 8C11.25 7.58579 10.9142 7.25 10.5 7.25C9.45556 7.25 8.7304 7.70198 8.29135 8.31177C7.87984 8.88332 7.75 9.54665 7.75 10C7.75 10.4142 8.08579 10.75 8.5 10.75C8.91421 10.75 9.25 10.4142 9.25 10ZM14.25 12.5C14.25 12.7133 14.1798 13.05 13.9913 13.3118C13.8304 13.5353 13.5556 13.75 13 13.75C12.5858 13.75 12.25 14.0858 12.25 14.5C12.25 14.9142 12.5858 15.25 13 15.25C14.0444 15.25 14.7696 14.798 15.2087 14.1882C15.6202 13.6167 15.75 12.9534 15.75 12.5C15.75 12.0858 15.4142 11.75 15 11.75C14.5858 11.75 14.25 12.0858 14.25 12.5Z" fill="black"/>
</svg>
