<svg width="24" height="24" viewBox="0 0 24 24" fill="none" xmlns="http://www.w3.org/2000/svg">
<path d="M12.25 8.34595C11.5596 8.34595 11 8.90559 11 9.59595C11 10.2863 11.5596 10.8459 12.25 10.8459C12.9404 10.8459 13.5 10.2863 13.5 9.59595C13.5 8.90559 12.9404 8.34595 12.25 8.34595Z" fill="black"/>
<path fill-rule="evenodd" clip-rule="evenodd" d="M13.2713 2.19669C12.6157 1.93444 11.8843 1.93444 11.2287 2.19669L5.72868 4.39669C4.68462 4.81431 4 5.82551 4 6.95V10.5959C4 16.11 8.44483 19.5745 11.1609 20.9269C11.8526 21.2714 12.6623 21.2598 13.3435 20.905C15.9403 19.5525 20.5 16.0964 20.5 10.5959V6.95C20.5 5.82551 19.8154 4.81431 18.7713 4.39669L13.2713 2.19669ZM15 9.59595C15 10.8547 14.1543 11.916 13 12.2424V15.5959C13 16.0102 12.6642 16.3459 12.25 16.3459C11.8358 16.3459 11.5 16.0102 11.5 15.5959V12.2424C10.3457 11.916 9.5 10.8547 9.5 9.59595C9.5 8.07716 10.7312 6.84595 12.25 6.84595C13.7688 6.84595 15 8.07716 15 9.59595Z" fill="black"/>
</svg>
