<svg width="24" height="24" viewBox="0 0 24 24" fill="none" xmlns="http://www.w3.org/2000/svg">
<path d="M21 5.00006C21 6.00954 20.1817 6.82788 19.1722 6.82788C18.1627 6.82788 17.3444 6.00954 17.3444 5.00006C17.3444 3.99058 18.1627 3.17224 19.1722 3.17224C20.1817 3.17224 21 3.99058 21 5.00006Z" stroke="black" stroke-width="1.5" stroke-linecap="round" stroke-linejoin="round"/>
<path d="M4 20L7 17" stroke="black" stroke-width="1.5" stroke-linecap="round" stroke-linejoin="round"/>
<path fill-rule="evenodd" clip-rule="evenodd" d="M16.0148 18.3681C18.115 17.0465 19.5107 14.7077 19.5107 12.043C19.5107 7.91864 16.1673 4.5752 12.0429 4.5752C7.91858 4.5752 4.57513 7.91864 4.57513 12.043C4.57513 12.9852 4.74964 13.8867 5.06811 14.7169C5.29666 15.3304 5.60829 15.9127 5.99638 16.4473C6.01251 16.4685 6.0315 16.4873 6.05272 16.5031C6.42584 17.0034 6.86017 17.4554 7.34461 17.8479C7.36226 17.8759 7.3848 17.9006 7.41132 17.921C7.81797 18.2407 8.25742 18.5169 8.72235 18.745C8.74569 18.7566 8.77046 18.765 8.79595 18.7699C9.77774 19.2446 10.8793 19.5108 12.0429 19.5108C12.2174 19.5108 12.3904 19.5226 12.5619 19.5108H19.3096C19.4001 19.5111 19.4894 19.4721 19.57 19.431C19.6505 19.3899 19.72 19.3301 19.7725 19.2567C19.825 19.1834 19.859 19.0985 19.8717 19.0093C19.8844 18.9201 19.8753 18.8292 19.8453 18.7443C19.8072 18.6334 19.7349 18.5374 19.6387 18.4699C19.5425 18.4023 19.4273 18.3667 19.3096 18.3681H16.0148ZM10.0908 6.40179C9.58134 6.57806 9.10318 6.8214 8.66689 7.12124C9.85777 7.46062 11.0024 7.9501 12.0724 8.57924C11.5103 9.00064 10.9767 9.45839 10.4751 9.94953C9.39674 9.39307 8.24545 8.99391 7.05669 8.76276C6.8412 9.08967 6.65699 9.43902 6.50833 9.80656C7.60048 9.98674 8.66328 10.3217 9.66376 10.8031C9.21656 11.3077 8.80226 11.8403 8.42339 12.3976C7.67396 12.0751 6.88736 11.8505 6.08328 11.7284C6.07787 11.8326 6.07513 11.9375 6.07513 12.043C6.07513 12.3267 6.09493 12.6058 6.13323 12.879C6.70929 12.9831 7.27391 13.147 7.8177 13.3686C7.4879 13.9408 7.1953 14.533 6.94152 15.1415C7.17315 15.522 7.44616 15.8746 7.7543 16.193C8.43808 14.3284 9.49678 12.616 10.8713 11.1631C12.3272 9.62407 14.0968 8.41926 16.0562 7.62613C15.7307 7.33018 15.3723 7.06973 14.9872 6.85088C14.3322 7.14929 13.6982 7.49254 13.0901 7.87828C12.145 7.28095 11.1394 6.7862 10.0908 6.40179ZM17.3202 9.25377C15.4187 9.92814 13.7008 11.0432 12.3114 12.5118C10.9879 13.9107 10.0043 15.5862 9.42871 17.4092C9.76666 17.5742 10.1225 17.7081 10.4926 17.8074C11.013 16.1239 11.9149 14.5752 13.1352 13.2841C14.4141 11.9309 15.9982 10.9076 17.7506 10.2947C17.6395 9.93183 17.4949 9.58363 17.3202 9.25377ZM18.0052 12.3026C16.8548 12.7622 15.8007 13.4392 14.9031 14.3C13.8275 15.3315 13.0086 16.596 12.5089 17.9929C12.9658 17.9576 13.4083 17.8708 13.8305 17.7384C14.2584 16.7898 14.8589 15.9258 15.6036 15.1908C16.2487 14.5541 16.9902 14.0258 17.799 13.624C17.9151 13.2005 17.9857 12.7582 18.0052 12.3026Z" fill="black"/>
</svg>
