<svg width="24" height="24" viewBox="0 0 24 24" fill="none" xmlns="http://www.w3.org/2000/svg">
<path d="M12.043 18.7606L19.3206 18.7585" stroke="black" stroke-width="1.5" stroke-linecap="round" stroke-linejoin="round"/>
<path d="M12.0429 18.7608C15.7531 18.7608 18.7607 15.7531 18.7607 12.043C18.7607 8.33286 15.7531 5.3252 12.0429 5.3252C8.33279 5.3252 5.32513 8.33286 5.32513 12.043C5.32513 15.7531 8.33279 18.7608 12.0429 18.7608Z" stroke="black" stroke-width="1.5" stroke-linecap="round" stroke-linejoin="round"/>
<path d="M9.5448 18.2806C10.0325 16.1364 11.0844 14.1615 12.5917 12.5603C14.0989 10.9592 16.0068 9.79 18.1177 9.17383" stroke="black" stroke-width="1.5" stroke-linecap="round" stroke-linejoin="round"/>
<path d="M7.09839 16.5914C7.77832 14.3692 8.96029 12.3332 10.5529 10.6408C12.1455 8.94849 14.106 7.64516 16.2829 6.83167" stroke="black" stroke-width="1.5" stroke-linecap="round" stroke-linejoin="round"/>
<path d="M12.3088 18.7558C12.6998 17.1531 13.4998 15.6792 14.6306 14.4781C15.7614 13.277 17.1845 12.3897 18.7607 11.903" stroke="black" stroke-width="1.5" stroke-linecap="round" stroke-linejoin="round"/>
<path d="M5.3468 11.5007C6.63868 11.5776 7.90101 11.9189 9.05558 12.5035" stroke="black" stroke-width="1.5" stroke-linecap="round" stroke-linejoin="round"/>
<path d="M6.17822 8.76453C7.83341 8.95265 9.43281 9.4765 10.8786 10.304" stroke="black" stroke-width="1.5" stroke-linecap="round" stroke-linejoin="round"/>
<path d="M8.48254 6.34546C10.1503 6.76765 11.7332 7.47274 13.1626 8.43008" stroke="black" stroke-width="1.5" stroke-linecap="round" stroke-linejoin="round"/>
<path d="M21 5.00006C21 6.00954 20.1817 6.82788 19.1722 6.82788C18.1627 6.82788 17.3444 6.00954 17.3444 5.00006C17.3444 3.99058 18.1627 3.17224 19.1722 3.17224C20.1817 3.17224 21 3.99058 21 5.00006Z" stroke="black" stroke-width="1.5" stroke-linecap="round" stroke-linejoin="round"/>
<path d="M4 20L7 17" stroke="black" stroke-width="1.5" stroke-linecap="round" stroke-linejoin="round"/>
</svg>
