<svg width="24" height="24" viewBox="0 0 24 24" fill="none" xmlns="http://www.w3.org/2000/svg">
<path fill-rule="evenodd" clip-rule="evenodd" d="M13.0213 2.60074C12.3657 2.33849 11.6343 2.33849 10.9787 2.60074L5.47868 4.80074C4.43462 5.21837 3.75 6.22956 3.75 7.35405V11C3.75 16.514 8.19483 19.9785 10.9109 21.331C11.6026 21.6755 12.4123 21.6638 13.0935 21.309C15.6903 19.9566 20.25 16.5005 20.25 11V7.35405C20.25 6.22956 19.5654 5.21837 18.5213 4.80074L13.0213 2.60074ZM16.5303 9.53034C16.8232 9.23745 16.8232 8.76257 16.5303 8.46968C16.2374 8.17678 15.7626 8.17677 15.4697 8.46966L11.5 12.4392L9.53033 10.4696C9.23744 10.1767 8.76256 10.1767 8.46967 10.4696C8.17678 10.7624 8.17678 11.2373 8.46967 11.5302L10.9697 14.0302C11.2626 14.3231 11.7374 14.3231 12.0303 14.0302L16.5303 9.53034Z" fill="black"/>
</svg>
