<svg width="24" height="24" viewBox="0 0 24 24" fill="none" xmlns="http://www.w3.org/2000/svg">
<path d="M4 17H20V19L19.5653 19.163C17.2373 20.036 14.7079 20.2231 12.2768 19.7022L9 19V20H4V17Z" stroke="black" stroke-width="1.5" stroke-linecap="round" stroke-linejoin="round"/>
<path fill-rule="evenodd" clip-rule="evenodd" d="M10.794 9.27891C11.1076 9.18931 11.4431 9.31265 11.624 9.58403L13.4014 12.2501H16C18.6234 12.2501 20.75 14.3767 20.75 17.0001C20.75 17.4143 20.4142 17.7501 20 17.7501H4C3.58579 17.7501 3.25 17.4143 3.25 17.0001V10.0001C3.25 9.76471 3.36047 9.54302 3.54835 9.40129C3.73624 9.25957 3.97975 9.21426 4.20604 9.27891L4.40939 9.33701C6.42938 9.91415 8.57062 9.91415 10.5906 9.33701L10.794 9.27891ZM7 13.25C6.58579 13.25 6.25 13.5858 6.25 14C6.25 14.4142 6.58579 14.75 7 14.75H10C10.4142 14.75 10.75 14.4142 10.75 14C10.75 13.5858 10.4142 13.25 10 13.25H7Z" fill="black"/>
<path d="M14 4L14.7071 5.29283L16 5.99997L14.7071 6.70703L14 7.99994L13.2929 6.70703L12 5.99997L13.2929 5.29283L14 4Z" stroke="black" stroke-linecap="round" stroke-linejoin="round"/>
<path d="M19 7L19.7071 8.29283L21 8.99997L19.7071 9.70703L19 10.9999L18.2929 9.70703L17 8.99997L18.2929 8.29283L19 7Z" stroke="black" stroke-linecap="round" stroke-linejoin="round"/>
</svg>
