<svg width="24" height="24" viewBox="0 0 24 24" fill="none" xmlns="http://www.w3.org/2000/svg">
<path d="M3 7V10.0602C3 10.9305 3.93492 11.4806 4.69569 11.0579C5.04042 10.8664 5.45958 10.8664 5.80431 11.0579L6.375 11.375C7.07464 11.7637 7.92536 11.7637 8.625 11.375C9.32464 10.9863 10.1754 10.9863 10.875 11.375C11.5746 11.7637 12.4254 11.7637 13.125 11.375C13.8246 10.9863 14.6754 10.9863 15.375 11.375C16.0746 11.7637 16.9254 11.7637 17.625 11.375L18.1957 11.0579C18.5404 10.8664 18.9596 10.8664 19.3043 11.0579C20.0651 11.4806 21 10.9305 21 10.0602V7M3 7H21M3 7L5.77572 3.71026C6.15573 3.25988 6.71502 3 7.3043 3H16.6957C17.285 3 17.8443 3.25987 18.2243 3.71026L21 7M4 11V19C4 20.1046 4.89543 21 6 21H18C19.1046 21 20 20.1046 20 19V11M14.5 21V16C14.5 15.4477 14.0523 15 13.5 15H10.5C9.94772 15 9.5 15.4477 9.5 16V21" stroke="black" stroke-width="1.5" stroke-linejoin="round"/>
</svg>
