<svg width="24" height="24" viewBox="0 0 24 24" fill="none" xmlns="http://www.w3.org/2000/svg">
<rect width="24" height="24" fill="white"/>
<path d="M4.49025 11.1732L4 11.5V19C4 20.1046 4.89543 21 6 21H18C19.1046 21 20 20.1046 20 19V11.5L19.5097 11.1732C18.9046 10.7698 18.1109 10.7918 17.5291 11.2281C16.9193 11.6855 16.0807 11.6855 15.4709 11.2281L15.4454 11.2091C14.8738 10.7803 14.0994 10.7404 13.4866 11.108L13.1789 11.2927C12.4533 11.728 11.5467 11.728 10.8211 11.2927L10.5134 11.108C9.90062 10.7404 9.12624 10.7803 8.55456 11.2091L8.52915 11.2281C7.91928 11.6855 7.08072 11.6855 6.47085 11.2281C5.88906 10.7918 5.09535 10.7698 4.49025 11.1732Z" fill="black" stroke="black" stroke-width="1.5" stroke-linejoin="round"/>
<path d="M3 9.88842V7H21V9.88842C21 10.8177 19.9862 11.3917 19.1893 10.9136C18.7725 10.6635 18.2458 10.6907 17.8569 10.9823L17.5546 11.2091C16.9296 11.6778 16.0704 11.6778 15.4454 11.2091C14.8738 10.7803 14.0994 10.7404 13.4866 11.108L13.1789 11.2927C12.4533 11.728 11.5467 11.728 10.8211 11.2927L10.5134 11.108C9.90062 10.7404 9.12624 10.7803 8.55456 11.2091C7.92963 11.6778 7.07037 11.6778 6.44544 11.2091L6.14311 10.9823C5.75424 10.6907 5.22749 10.6635 4.81067 10.9136C4.0138 11.3917 3 10.8177 3 9.88842Z" stroke="black" stroke-width="1.5" stroke-linejoin="round"/>
<path d="M18.2243 3.71026L21 7H3L5.77572 3.71026C6.15573 3.25988 6.71502 3 7.3043 3H16.6957C17.285 3 17.8443 3.25987 18.2243 3.71026Z" stroke="black" stroke-width="1.5" stroke-linejoin="round"/>
<path d="M14.5 16L14.5 21.7661L9.5 21.7661L9.5 16C9.5 15.4477 9.94772 15 10.5 15L13.5 15C14.0523 15 14.5 15.4477 14.5 16Z" fill="white"/>
</svg>
