<svg width="24" height="24" viewBox="0 0 24 24" fill="none" xmlns="http://www.w3.org/2000/svg">
<path d="M3 9.88842V7H21V9.88842C21 10.8177 19.9862 11.3917 19.1893 10.9136C18.7725 10.6635 18.2458 10.6907 17.8569 10.9823L17.5546 11.2091C16.9296 11.6778 16.0704 11.6778 15.4454 11.2091C14.8738 10.7803 14.0994 10.7404 13.4866 11.108L13.1789 11.2927C12.4533 11.728 11.5467 11.728 10.8211 11.2927L10.5134 11.108C9.90062 10.7404 9.12624 10.7803 8.55456 11.2091C7.92963 11.6778 7.07037 11.6778 6.44544 11.2091L6.14311 10.9823C5.75424 10.6907 5.22749 10.6635 4.81067 10.9136C4.0138 11.3917 3 10.8177 3 9.88842Z" stroke="black" stroke-width="1.5" stroke-linejoin="round"/>
<path d="M18.2243 3.71026L21 7H3L5.77572 3.71026C6.15573 3.25988 6.71502 3 7.3043 3H16.6957C17.285 3 17.8443 3.25987 18.2243 3.71026Z" stroke="black" stroke-width="1.5" stroke-linejoin="round"/>
<path fill-rule="evenodd" clip-rule="evenodd" d="M10.8993 10.4649C10.025 9.94035 8.92019 9.99734 8.10456 10.6091L8.07915 10.6281C7.73595 10.8855 7.26405 10.8855 6.92085 10.6281C6.08467 10.001 4.94391 9.96933 4.07423 10.5491L3.58397 10.8759C3.37533 11.015 3.25 11.2492 3.25 11.5V19C3.25 20.5188 4.48122 21.75 6 21.75H9.5V16C9.5 15.4477 9.94772 15 10.5 15L13.5 15C14.0523 15 14.5 15.4477 14.5 16L14.5 21.75H18C19.5188 21.75 20.75 20.5188 20.75 19V11.5C20.75 11.2492 20.6247 11.015 20.416 10.8759L19.9258 10.5491C19.0561 9.96933 17.9153 10.001 17.0791 10.6281C16.7359 10.8855 16.2641 10.8855 15.9209 10.6281L15.8954 10.6091C15.0798 9.99734 13.975 9.94035 13.1007 10.4649L12.793 10.6495C12.3049 10.9424 11.6951 10.9424 11.207 10.6495L10.8993 10.4649Z" fill="black"/>
</svg>
