<svg width="24" height="24" viewBox="0 0 24 24" fill="none" xmlns="http://www.w3.org/2000/svg">
<path d="M18 19V6C18 5.44772 17.5523 5 17 5H15V6C15 6.55228 14.5523 7 14 7H10C9.44772 7 9 6.55228 9 6V5H7C6.44772 5 6 5.44772 6 6V19C6 19.5523 6.44772 20 7 20H17C17.5523 20 18 19.5523 18 19Z" stroke="black" stroke-width="1.5" stroke-linejoin="round"/>
<rect x="9" y="3" width="6" height="4" rx="1" fill="black" stroke="black" stroke-width="1.5" stroke-linejoin="round"/>
<path d="M14.5588 14.511L18 11.5V19C18 19.5523 17.5523 20 17 20H7C6.44772 20 6 19.5523 6 19V10L13.3703 14.6065C13.7442 14.8401 14.227 14.8014 14.5588 14.511Z" fill="black" stroke="black" stroke-width="1.5" stroke-linecap="round" stroke-linejoin="round"/>
<path d="M6 10L18 11.5" stroke="black" stroke-width="1.5" stroke-linecap="round" stroke-linejoin="round"/>
</svg>
