<svg width="24" height="24" viewBox="0 0 24 24" fill="none" xmlns="http://www.w3.org/2000/svg">
<path fill-rule="evenodd" clip-rule="evenodd" d="M7.5 4C5.01472 4 3 6.01472 3 8.5V15.5C3 17.9853 5.01472 20 7.5 20C9.98528 20 12 17.9853 12 15.5V8.5C12 6.01472 9.98528 4 7.5 4ZM8.24998 6.5C8.24998 6.08579 7.91419 5.75 7.49998 5.75C7.08576 5.75 6.74998 6.08579 6.74998 6.5V7.7849L4.36398 11.6025C4.14445 11.9538 4.25123 12.4165 4.60248 12.636C4.95373 12.8555 5.41644 12.7488 5.63598 12.3975L7.49998 9.4151L9.36398 12.3975C9.58351 12.7488 10.0462 12.8555 10.3975 12.636C10.7487 12.4165 10.8555 11.9538 10.636 11.6025L8.24998 7.7849V6.5Z" fill="black"/>
<path fill-rule="evenodd" clip-rule="evenodd" d="M16.5 4C14.0147 4 12 6.01472 12 8.5V15.5C12 17.9853 14.0147 20 16.5 20C18.9853 20 21 17.9853 21 15.5V8.5C21 6.01472 18.9853 4 16.5 4ZM17.25 6.5C17.25 6.08579 16.9142 5.75 16.5 5.75C16.0858 5.75 15.75 6.08579 15.75 6.5V7.7849L13.364 11.6025C13.1444 11.9538 13.2512 12.4165 13.6025 12.636C13.9537 12.8555 14.4164 12.7488 14.636 12.3975L16.5 9.4151L18.364 12.3975C18.5835 12.7488 19.0462 12.8555 19.3975 12.636C19.7487 12.4165 19.8555 11.9538 19.636 11.6025L17.25 7.7849V6.5Z" fill="black"/>
</svg>
