<svg width="24" height="24" viewBox="0 0 24 24" fill="none" xmlns="http://www.w3.org/2000/svg">
<path d="M4 13.5C4 12.6716 4.67157 12 5.5 12V12C6.32843 12 7 12.6716 7 13.5V15H17V13.5C17 12.6716 17.6716 12 18.5 12V12C19.3284 12 20 12.6716 20 13.5V18C20 18.5523 19.5523 19 19 19H5C4.44772 19 4 18.5523 4 18V13.5Z" stroke="black" stroke-width="1.5" stroke-linecap="round" stroke-linejoin="round"/>
<path fill-rule="evenodd" clip-rule="evenodd" d="M4.75 8C4.75 5.37665 6.87665 3.25 9.5 3.25H14.5C17.1234 3.25 19.25 5.37665 19.25 8V12C19.25 12.4142 18.9142 12.75 18.5 12.75C18.0858 12.75 17.75 13.0858 17.75 13.5V15C17.75 15.4142 17.4142 15.75 17 15.75H7C6.58579 15.75 6.25 15.4142 6.25 15V13.5C6.25 13.0858 5.91421 12.75 5.5 12.75C5.08579 12.75 4.75 12.4142 4.75 12V8ZM9.75 9C9.75 8.58579 9.41421 8.25 9 8.25C8.58579 8.25 8.25 8.58579 8.25 9V12C8.25 12.4142 8.58579 12.75 9 12.75C9.41421 12.75 9.75 12.4142 9.75 12V9ZM12 8.25C12.4142 8.25 12.75 8.58579 12.75 9V12C12.75 12.4142 12.4142 12.75 12 12.75C11.5858 12.75 11.25 12.4142 11.25 12V9C11.25 8.58579 11.5858 8.25 12 8.25ZM15 8.25C15.4142 8.25 15.75 8.58579 15.75 9V12C15.75 12.4142 15.4142 12.75 15 12.75C14.5858 12.75 14.25 12.4142 14.25 12V9C14.25 8.58579 14.5858 8.25 15 8.25Z" fill="black"/>
<path d="M6.5 19V21M17.5 19V21" stroke="black" stroke-width="1.5" stroke-linecap="round" stroke-linejoin="round"/>
</svg>
