<svg width="24" height="24" viewBox="0 0 24 24" fill="none" xmlns="http://www.w3.org/2000/svg">
<path d="M7.82355 13.8236C7.82355 13.1413 8.37661 12.5883 9.05884 12.5883V12.5883C9.74108 12.5883 10.2941 13.1413 10.2941 13.8236V15.0588H18.5294V13.8236C18.5294 13.1413 19.0825 12.5883 19.7647 12.5883V12.5883C20.447 12.5883 21 13.1413 21 13.8236V17.5294C21 17.9843 20.6313 18.353 20.1765 18.353H8.64708C8.19225 18.353 7.82355 17.9843 7.82355 17.5294V13.8236Z" stroke="black" stroke-width="1.5" stroke-linecap="round" stroke-linejoin="round"/>
<path d="M10.2941 15.0588H18.5294V13.8235C18.5294 13.1413 19.0825 12.5882 19.7647 12.5882V9.29412C19.7647 7.47483 18.2899 6 16.4706 6H12.353C10.5337 6 9.05884 7.47482 9.05884 9.29412V12.5882C9.74107 12.5882 10.2941 13.1413 10.2941 13.8235V15.0588Z" stroke="black" stroke-width="1.5" stroke-linecap="round" stroke-linejoin="round"/>
<path d="M14.4117 12.5883V10.1177" stroke="black" stroke-width="1.5" stroke-linecap="round" stroke-linejoin="round"/>
<path d="M16.8823 12.5883V10.1177" stroke="black" stroke-width="1.5" stroke-linecap="round" stroke-linejoin="round"/>
<path d="M11.9412 12.5883V10.1177" stroke="black" stroke-width="1.5" stroke-linecap="round" stroke-linejoin="round"/>
<path d="M9.88232 18.3529V20M18.9411 18.3529V20" stroke="black" stroke-width="1.5" stroke-linecap="round" stroke-linejoin="round"/>
<path d="M5 20L5 6" stroke="black" stroke-width="1.5" stroke-linecap="round" stroke-linejoin="round"/>
<path d="M7 6H3L3.5 3H6.5L7 6Z" stroke="black" stroke-width="1.5" stroke-linecap="round" stroke-linejoin="round"/>
<path d="M3 20H7" stroke="black" stroke-width="1.5" stroke-linecap="round" stroke-linejoin="round"/>
</svg>
