<svg width="24" height="24" viewBox="0 0 24 24" fill="none" xmlns="http://www.w3.org/2000/svg">
<path d="M7.82355 13.8236C7.82355 13.1413 8.37661 12.5883 9.05884 12.5883V12.5883C9.74108 12.5883 10.2941 13.1413 10.2941 13.8236V15.0588H18.5294V13.8236C18.5294 13.1413 19.0825 12.5883 19.7647 12.5883V12.5883C20.447 12.5883 21 13.1413 21 13.8236V17.5294C21 17.9843 20.6313 18.353 20.1765 18.353H8.64708C8.19225 18.353 7.82355 17.9843 7.82355 17.5294V13.8236Z" stroke="black" stroke-width="1.5" stroke-linecap="round" stroke-linejoin="round"/>
<path fill-rule="evenodd" clip-rule="evenodd" d="M8.44116 9.29409C8.44116 7.13368 10.1925 5.38232 12.3529 5.38232H16.4706C18.631 5.38232 20.3823 7.13368 20.3823 9.29409V12.5882C20.3823 12.9293 20.1058 13.2059 19.7647 13.2059C19.4236 13.2059 19.147 13.4824 19.147 13.8235V15.0588C19.147 15.3999 18.8705 15.6764 18.5294 15.6764H10.2941C9.95299 15.6764 9.67646 15.3999 9.67646 15.0588V13.8235C9.67646 13.4824 9.39993 13.2059 9.05881 13.2059C8.71769 13.2059 8.44116 12.9293 8.44116 12.5882V9.29409ZM12.5588 10.1176C12.5588 9.77653 12.2823 9.5 11.9411 9.5C11.6 9.5 11.3235 9.77653 11.3235 10.1176V12.5882C11.3235 12.9294 11.6 13.2059 11.9411 13.2059C12.2823 13.2059 12.5588 12.9294 12.5588 12.5882V10.1176ZM14.4117 9.5C14.7528 9.5 15.0294 9.77653 15.0294 10.1176V12.5882C15.0294 12.9294 14.7528 13.2059 14.4117 13.2059C14.0706 13.2059 13.7941 12.9294 13.7941 12.5882V10.1176C13.7941 9.77653 14.0706 9.5 14.4117 9.5ZM16.8823 9.5C17.2234 9.5 17.4999 9.77653 17.4999 10.1176V12.5882C17.4999 12.9294 17.2234 13.2059 16.8823 13.2059C16.5412 13.2059 16.2646 12.9294 16.2646 12.5882V10.1176C16.2646 9.77653 16.5412 9.5 16.8823 9.5Z" fill="black"/>
<path d="M9.88232 18.3529V20M18.9411 18.3529V20" stroke="black" stroke-width="1.5" stroke-linecap="round" stroke-linejoin="round"/>
<path d="M5 20L5 6" stroke="black" stroke-width="1.5" stroke-linecap="round" stroke-linejoin="round"/>
<path d="M7 6H3L3.5 3H6.5L7 6Z" fill="black" stroke="black" stroke-width="1.5" stroke-linecap="round" stroke-linejoin="round"/>
<path d="M3 20H7" stroke="black" stroke-width="1.5" stroke-linecap="round" stroke-linejoin="round"/>
</svg>
