<svg width="24" height="24" viewBox="0 0 24 24" fill="none" xmlns="http://www.w3.org/2000/svg">
<path d="M4 13.5C4 12.6716 4.67157 12 5.5 12V12C6.32843 12 7 12.6716 7 13.5V15H17V13.5C17 12.6716 17.6716 12 18.5 12V12C19.3284 12 20 12.6716 20 13.5V18C20 18.5523 19.5523 19 19 19H5C4.44772 19 4 18.5523 4 18V13.5Z" stroke="black" stroke-width="1.5" stroke-linecap="round" stroke-linejoin="round"/>
<path d="M7 15H17V13.5C17 12.6716 17.6716 12 18.5 12V8C18.5 5.79086 16.7091 4 14.5 4H9.5C7.29086 4 5.5 5.79086 5.5 8V12C6.32843 12 7 12.6716 7 13.5V15Z" stroke="black" stroke-width="1.5" stroke-linecap="round" stroke-linejoin="round"/>
<path d="M12 12V9" stroke="black" stroke-width="1.5" stroke-linecap="round" stroke-linejoin="round"/>
<path d="M15 12V9" stroke="black" stroke-width="1.5" stroke-linecap="round" stroke-linejoin="round"/>
<path d="M9 12V9" stroke="black" stroke-width="1.5" stroke-linecap="round" stroke-linejoin="round"/>
<path d="M6.5 19V21M17.5 19V21" stroke="black" stroke-width="1.5" stroke-linecap="round" stroke-linejoin="round"/>
</svg>
