<svg width="24" height="24" viewBox="0 0 24 24" fill="none" xmlns="http://www.w3.org/2000/svg">
<path opacity="0.2" d="M12 3L13.591 10.409L21 12L13.591 13.591L12 21L10.409 13.591L3 12L10.409 10.409L12 3Z" fill="black"/>
<path d="M12 3L13.591 10.409L21 12L13.591 13.591L12 21L10.409 13.591L3 12L10.409 10.409L12 3Z" stroke="black" stroke-width="1.5" stroke-linecap="round" stroke-linejoin="round"/>
<path d="M18 4L18.3111 5.68887L20 6L18.3111 6.31113L18 8L17.6889 6.31113L16 6L17.6889 5.68887L18 4Z" stroke="black" stroke-width="1.5" stroke-linecap="round" stroke-linejoin="round"/>
<path d="M6 16L6.31113 17.6889L8 18L6.31113 18.3111L6 20L5.68887 18.3111L4 18L5.68887 17.6889L6 16Z" stroke="black" stroke-width="1.5" stroke-linecap="round" stroke-linejoin="round"/>
</svg>
