<svg width="24" height="24" viewBox="0 0 24 24" fill="none" xmlns="http://www.w3.org/2000/svg">
<rect width="24" height="24" fill="white"/>
<path d="M14 7.5V13.5C10 13.5 5.66667 15.8333 4 17V4C4 4 9.5 7.5 14 7.5Z" fill="black"/>
<path d="M17.4332 7.84485C18.8506 7.95331 20 9.15235 20 10.5738V10.5738C20 11.9363 18.9393 13.0637 17.5803 13.1613C16.3988 13.2462 14.9108 13.3615 13.4118 13.5C8 14 4 17 4 17L4 4C4 4 8 7 13.4118 7.5C15.1598 7.6615 16.4659 7.77083 17.4332 7.84485Z" stroke="black" stroke-width="1.5" stroke-linecap="round" stroke-linejoin="round"/>
<path d="M14 8L14 19.5L17 18.5L18 13.5" stroke="black" stroke-width="1.5" stroke-linecap="round" stroke-linejoin="round"/>
</svg>
