<svg width="24" height="24" viewBox="0 0 24 24" fill="none" xmlns="http://www.w3.org/2000/svg">
<path d="M8.8 8.8H6C4.89543 8.8 4 9.69543 4 10.8V13.2C4 14.3046 4.89543 15.2 6 15.2H8.61139C9.0268 15.2 9.4319 15.3294 9.77044 15.5701L16 20V16L8.8 8.8Z" fill="black"/>
<path d="M8.8 8.8H6C4.89543 8.8 4 9.69543 4 10.8V13.2C4 14.3046 4.89543 15.2 6 15.2H8.61139C9.0268 15.2 9.4319 15.3294 9.77044 15.5701L16 20V16M3 3L21 21" stroke="black" stroke-width="1.5" stroke-linecap="round" stroke-linejoin="round"/>
<path d="M16 4L11 7.55556L16 12.5V4Z" fill="black"/>
<path d="M18.5 9V14M21 6V17M16 4L11 7.55556L16 12.5V4Z" stroke="black" stroke-width="1.5" stroke-linecap="round" stroke-linejoin="round"/>
</svg>
