<svg width="24" height="24" viewBox="0 0 24 24" fill="none" xmlns="http://www.w3.org/2000/svg">
<path d="M11 11.1241C11 10.6562 11.164 10.2032 11.4636 9.84373L13 8H16L17.5364 9.84373C17.836 10.2032 18 10.6562 18 11.1241V18C18 19.1046 17.1046 20 16 20H13C11.8954 20 11 19.1046 11 18V11.1241Z" stroke="black" stroke-width="1.5" stroke-linejoin="round"/>
<path d="M13 5H16V8H13V5Z" stroke="black" stroke-width="1.5" stroke-linejoin="round"/>
<path d="M13 12H16" stroke="black" stroke-width="1.5" stroke-linecap="round" stroke-linejoin="bevel"/>
<path d="M10 6.5H9.99" stroke="black" stroke-width="1.5" stroke-linecap="round" stroke-linejoin="bevel"/>
<path d="M7.51 8H7.5" stroke="black" stroke-width="1.5" stroke-linecap="round" stroke-linejoin="bevel"/>
<path d="M7.51 5H7.5" stroke="black" stroke-width="1.5" stroke-linecap="round" stroke-linejoin="bevel"/>
<path d="M5.01001 3H5.00001" stroke="black" stroke-width="1.5" stroke-linecap="round" stroke-linejoin="bevel"/>
<path d="M5.01001 6.5H5.00001" stroke="black" stroke-width="1.5" stroke-linecap="round" stroke-linejoin="bevel"/>
<path d="M5.01001 10H5.00001" stroke="black" stroke-width="1.5" stroke-linecap="round" stroke-linejoin="bevel"/>
</svg>
