<svg width="24" height="24" viewBox="0 0 24 24" fill="none" xmlns="http://www.w3.org/2000/svg">
<path d="M4 15L5.25061 16.0005C5.98105 16.5848 7.01895 16.5848 7.74939 16.0005L7.85803 15.9136C8.53813 15.3695 9.49214 15.3281 10.2168 15.8112L10.8906 16.2604C11.5624 16.7083 12.4376 16.7083 13.1094 16.2604L13.7832 15.8112C14.5079 15.3281 15.4619 15.3695 16.142 15.9136L16.2506 16.0005C16.981 16.5848 18.019 16.5848 18.7494 16.0005L20 15" stroke="black" stroke-width="1.5" stroke-linecap="round" stroke-linejoin="round"/>
<path d="M4 18L5.25061 19.0005C5.98105 19.5848 7.01895 19.5848 7.74939 19.0005L7.85803 18.9136C8.53813 18.3695 9.49214 18.3281 10.2168 18.8112L10.8906 19.2604C11.5624 19.7083 12.4376 19.7083 13.1094 19.2604L13.7832 18.8112C14.5079 18.3281 15.4619 18.3695 16.142 18.9136L16.2506 19.0005C16.981 19.5848 18.019 19.5848 18.7494 19.0005L20 18" stroke="black" stroke-width="1.5" stroke-linecap="round" stroke-linejoin="round"/>
<circle cx="12" cy="10" r="3" stroke="black" stroke-width="1.5" stroke-linecap="round" stroke-linejoin="round"/>
<path d="M12 5V2.5" stroke="black" stroke-width="1.5" stroke-linecap="round" stroke-linejoin="round"/>
<path d="M19.4574 12.3235L17.0426 11.6765" stroke="black" stroke-width="1.5" stroke-linecap="round" stroke-linejoin="round"/>
<path d="M18.6651 5.25L16.5 6.5" stroke="black" stroke-width="1.5" stroke-linecap="round" stroke-linejoin="round"/>
<path d="M5.33494 5.25L7.5 6.5" stroke="black" stroke-width="1.5" stroke-linecap="round" stroke-linejoin="round"/>
<path d="M5.00001 12.3235L7.41483 11.6765" stroke="black" stroke-width="1.5" stroke-linecap="round" stroke-linejoin="round"/>
</svg>
