<svg width="24" height="24" viewBox="0 0 24 24" fill="none" xmlns="http://www.w3.org/2000/svg">
<path d="M19 11C19 7.13401 15.866 4 12 4C8.13401 4 5 7.13401 5 11" stroke="black" stroke-width="1.5" stroke-linecap="round" stroke-linejoin="round"/>
<rect x="18" y="11" width="2" height="4" rx="1" fill="black" stroke="black" stroke-width="1.5" stroke-linecap="round" stroke-linejoin="round"/>
<path d="M19 15V15C19 17.7614 16.7614 20 14 20H12" stroke="black" stroke-width="1.5" stroke-linecap="round" stroke-linejoin="round"/>
<rect x="4" y="11" width="2" height="4" rx="1" fill="black" stroke="black" stroke-width="1.5" stroke-linecap="round" stroke-linejoin="round"/>
<path d="M8 11C8 8.79086 9.79086 7 12 7C14.2091 7 16 8.79086 16 11V13.5C16 15.7091 14.2091 17.5 12 17.5C9.79086 17.5 8 15.7091 8 13.5V11Z" fill="black" stroke="black" stroke-width="1.5" stroke-linecap="round" stroke-linejoin="round"/>
</svg>
