<svg width="24" height="24" viewBox="0 0 24 24" fill="none" xmlns="http://www.w3.org/2000/svg">
<rect width="24" height="24" fill="white"/>
<path d="M3 16L5.05132 16.6838C5.66712 16.889 6.33288 16.889 6.94868 16.6838L8.05132 16.3162C8.66712 16.111 9.33288 16.111 9.94868 16.3162L11.0513 16.6838C11.6671 16.889 12.3329 16.889 12.9487 16.6838L14.0513 16.3162C14.6671 16.111 15.3329 16.111 15.9487 16.3162L17.0513 16.6838C17.6671 16.889 18.3329 16.889 18.9487 16.6838L21 16" stroke="black" stroke-width="1.5" stroke-linecap="round" stroke-linejoin="round"/>
<path d="M3 19L5.05132 19.6838C5.66712 19.889 6.33288 19.889 6.94868 19.6838L8.05132 19.3162C8.66712 19.111 9.33288 19.111 9.94868 19.3162L11.0513 19.6838C11.6671 19.889 12.3329 19.889 12.9487 19.6838L14.0513 19.3162C14.6671 19.111 15.3329 19.111 15.9487 19.3162L17.0513 19.6838C17.6671 19.889 18.3329 19.889 18.9487 19.6838L21 19" stroke="black" stroke-width="1.5" stroke-linecap="round" stroke-linejoin="round"/>
<path d="M9 4V4C7.89543 4 7 4.89543 7 6V16" stroke="black" stroke-width="1.5" stroke-linecap="round" stroke-linejoin="round"/>
<path d="M18 4V4C16.8954 4 16 4.89543 16 6V16" stroke="black" stroke-width="1.5" stroke-linecap="round" stroke-linejoin="round"/>
<path d="M7 7H16" stroke="black" stroke-width="1.5" stroke-linecap="round" stroke-linejoin="round"/>
<path d="M7 10.5H16" stroke="black" stroke-width="1.5" stroke-linecap="round" stroke-linejoin="round"/>
<path d="M7 14H16" stroke="black" stroke-width="1.5" stroke-linecap="round" stroke-linejoin="round"/>
</svg>
