<svg width="24" height="24" viewBox="0 0 24 24" fill="none" xmlns="http://www.w3.org/2000/svg">
<path fill-rule="evenodd" clip-rule="evenodd" d="M2.28845 15.7628C2.41943 15.3698 2.84417 15.1575 3.23713 15.2884L5.28845 15.9722C5.7503 16.1262 6.24962 16.1262 6.71147 15.9722L7.81411 15.6047C8.58386 15.3481 9.41606 15.3481 10.1858 15.6047L11.2884 15.9722C11.7503 16.1262 12.2496 16.1262 12.7115 15.9722L13.8141 15.6047C14.5839 15.3481 15.4161 15.3481 16.1858 15.6047L17.2884 15.9722C17.7503 16.1262 18.2496 16.1262 18.7115 15.9722L20.7628 15.2884C21.1557 15.1575 21.5805 15.3698 21.7115 15.7628C21.8425 16.1557 21.6301 16.5805 21.2371 16.7115L19.1858 17.3952C18.4161 17.6518 17.5839 17.6518 16.8141 17.3952L15.7115 17.0277C15.2496 16.8737 14.7503 16.8737 14.2884 17.0277L13.1858 17.3952C12.4161 17.6518 11.5839 17.6518 10.8141 17.3952L9.71147 17.0277C9.24962 16.8737 8.7503 16.8737 8.28845 17.0277L7.18581 17.3952C6.41606 17.6518 5.58386 17.6518 4.81411 17.3952L2.76279 16.7115C2.36983 16.5805 2.15746 16.1557 2.28845 15.7628Z" fill="black"/>
<path fill-rule="evenodd" clip-rule="evenodd" d="M2.28845 18.7628C2.41943 18.3698 2.84417 18.1575 3.23713 18.2884L5.28845 18.9722C5.7503 19.1262 6.24962 19.1262 6.71147 18.9722L7.81411 18.6047C8.58386 18.3481 9.41606 18.3481 10.1858 18.6047L11.2884 18.9722C11.7503 19.1262 12.2496 19.1262 12.7115 18.9722L13.8141 18.6047C14.5839 18.3481 15.4161 18.3481 16.1858 18.6047L17.2884 18.9722C17.7503 19.1262 18.2496 19.1262 18.7115 18.9722L20.7628 18.2884C21.1557 18.1575 21.5805 18.3698 21.7115 18.7628C21.8425 19.1557 21.6301 19.5805 21.2371 19.7115L19.1858 20.3952C18.4161 20.6518 17.5839 20.6518 16.8141 20.3952L15.7115 20.0277C15.2496 19.8737 14.7503 19.8737 14.2884 20.0277L13.1858 20.3952C12.4161 20.6518 11.5839 20.6518 10.8141 20.3952L9.71147 20.0277C9.24962 19.8737 8.7503 19.8737 8.28845 20.0277L7.18581 20.3952C6.41606 20.6518 5.58386 20.6518 4.81411 20.3952L2.76279 19.7115C2.36983 19.5805 2.15746 19.1557 2.28845 18.7628Z" fill="black"/>
<path fill-rule="evenodd" clip-rule="evenodd" d="M9 3.25C7.48122 3.25 6.25 4.48122 6.25 6V16C6.25 16.4142 6.58579 16.75 7 16.75C7.41421 16.75 7.75 16.4142 7.75 16V14.75H15.25V16C15.25 16.4142 15.5858 16.75 16 16.75C16.4142 16.75 16.75 16.4142 16.75 16V6C16.75 5.30964 17.3096 4.75 18 4.75C18.4142 4.75 18.75 4.41421 18.75 4C18.75 3.58579 18.4142 3.25 18 3.25C16.4812 3.25 15.25 4.48122 15.25 6V6.25H7.75V6C7.75 5.30964 8.30964 4.75 9 4.75C9.41421 4.75 9.75 4.41421 9.75 4C9.75 3.58579 9.41421 3.25 9 3.25ZM7.5 9C7.5 8.72386 7.72386 8.5 8 8.5H15C15.2761 8.5 15.5 8.72386 15.5 9C15.5 9.27614 15.2761 9.5 15 9.5H8C7.72386 9.5 7.5 9.27614 7.5 9ZM8 11.5C7.72386 11.5 7.5 11.7239 7.5 12C7.5 12.2761 7.72386 12.5 8 12.5H15C15.2761 12.5 15.5 12.2761 15.5 12C15.5 11.7239 15.2761 11.5 15 11.5H8Z" fill="black"/>
</svg>
