<svg width="24" height="24" viewBox="0 0 24 24" fill="none" xmlns="http://www.w3.org/2000/svg">
<path d="M5.63603 5.63607C2.51183 8.76026 3.21894 13.1185 6.34313 16.2427C6.89494 16.7945 7.41907 17.2047 7.92529 17.4889C9.82076 18.5532 11.4652 17.851 13.372 16.2005L15.5653 19.4742C15.916 19.9977 16.6576 20.0703 17.1032 19.6248L19.6247 17.1032C20.0703 16.6576 19.9977 15.916 19.4742 15.5653L16.2004 13.372C17.851 11.4653 18.5531 9.8208 17.4889 7.92534C17.2047 7.41911 16.7944 6.89498 16.2426 6.34317C13.1184 3.21898 8.76022 2.51187 5.63603 5.63607Z" stroke="black" stroke-width="1.5" stroke-linecap="round" stroke-linejoin="round"/>
<path d="M5.63603 5.63607C2.51183 8.76026 3.21894 13.1185 6.34313 16.2427C6.89494 16.7945 7.41907 17.2047 7.92529 17.4889L17.4889 7.92534C17.2047 7.41911 16.7944 6.89498 16.2426 6.34317C13.1184 3.21898 8.76022 2.51187 5.63603 5.63607Z" stroke="black" stroke-width="1.5" stroke-linecap="round" stroke-linejoin="round"/>
</svg>
