<svg width="24" height="24" viewBox="0 0 24 24" fill="none" xmlns="http://www.w3.org/2000/svg">
<path fill-rule="evenodd" clip-rule="evenodd" d="M9.58214 8.20116C9.79684 8.21453 9.99547 8.31945 10.1275 8.48925L15.0773 14.8532C15.3095 15.1518 15.2831 15.5765 15.0156 15.844L12.1872 18.6724C11.8943 18.9653 11.4194 18.9653 11.1265 18.6724L5.46967 13.0156C5.17678 12.7227 5.17678 12.2478 5.46967 11.9549L9.0052 8.41938C9.15732 8.26726 9.36743 8.18779 9.58214 8.20116ZM9.71221 12.3085C9.41932 12.0156 8.94445 12.0156 8.65155 12.3085C8.35866 12.6014 8.35866 13.0763 8.65155 13.3692L8.65863 13.3763C8.95152 13.6692 9.42639 13.6692 9.71929 13.3763C10.0122 13.0834 10.0122 12.6085 9.71929 12.3156L9.71221 12.3085ZM12.5303 14.4697C12.2374 14.1768 11.7625 14.1768 11.4696 14.4697C11.1767 14.7626 11.1767 15.2374 11.4696 15.5303L11.4767 15.5374C11.7696 15.8303 12.2444 15.8303 12.5373 15.5374C12.8302 15.2445 12.8302 14.7696 12.5373 14.4767L12.5303 14.4697Z" fill="black"/>
<path fill-rule="evenodd" clip-rule="evenodd" d="M13.2478 5.59103C14.7122 4.12656 17.0866 4.12656 18.5511 5.59103C20.0155 7.05549 20.0155 9.42986 18.5511 10.8943C17.0866 12.3588 14.7122 12.3588 13.2478 10.8943C11.7833 9.42986 11.7833 7.05549 13.2478 5.59103ZM16.5303 6.46966C16.2374 6.17677 15.7626 6.17677 15.4697 6.46966C15.1768 6.76255 15.1768 7.23743 15.4697 7.53032L15.4767 7.53739C15.7696 7.83029 16.2445 7.83029 16.5374 7.53739C16.8303 7.2445 16.8303 6.76963 16.5374 6.47673L16.5303 6.46966Z" fill="black"/>
<path d="M4.14209 20L8.82846 15.3136M12.0104 12.1317L13.7782 10.3639M18.0208 6.12124L19.4351 4.70703" stroke="black" stroke-width="1.5" stroke-linecap="round" stroke-linejoin="round"/>
</svg>
