<svg width="24" height="24" viewBox="0 0 24 24" fill="none" xmlns="http://www.w3.org/2000/svg">
<path d="M16.6569 7.34318C15.2092 5.89544 13.2092 5 11 5C6.58172 5 3 8.58172 3 13C3 17.4183 6.58172 21 11 21C15.4183 21 19 17.4183 19 13C19 12.3094 18.9125 11.6392 18.748 11" stroke="black" stroke-width="1.5" stroke-linecap="round" stroke-linejoin="round"/>
<path d="M11 13H11.01" stroke="black" stroke-width="1.5" stroke-linecap="round" stroke-linejoin="round"/>
<path d="M11 13L19 5M19 5V3M19 5H21" stroke="black" stroke-width="1.5" stroke-linecap="round" stroke-linejoin="round"/>
<path d="M7 13C7 14.1026 7.44611 15.101 8.16767 15.8245L13.8047 10.1875C13.0859 9.49744 12.0751 9 11 9C8.79086 9 7 10.7909 7 13Z" fill="black"/>
<path d="M15 13C15 15.2091 13.2091 17 11 17C8.79086 17 7 15.2091 7 13C7 10.7909 8.79086 9 11 9C12.0751 9 13.0859 9.49744 13.8047 10.1875L8.16767 15.8245" stroke="black" stroke-width="1.5" stroke-linecap="round" stroke-linejoin="round"/>
</svg>
