<svg width="24" height="24" viewBox="0 0 24 24" fill="none" xmlns="http://www.w3.org/2000/svg">
<path d="M8.13629 9.29648C7.85041 8.22954 8.48357 7.13287 9.5505 6.84699L18.2438 4.51761L19.2791 8.38132L10.5858 10.7107C9.51885 10.9966 8.42217 10.3634 8.13629 9.29648Z" fill="black" stroke="black" stroke-width="1.5" stroke-linecap="round" stroke-linejoin="round"/>
<path d="M5.23849 10.073C5.09555 9.53952 5.41214 8.99118 5.9456 8.84824L7.87745 8.3306L8.39509 10.2625L6.46324 10.7801C5.92977 10.923 5.38144 10.6064 5.23849 10.073V10.073Z" stroke="black" stroke-width="1.5" stroke-linecap="round" stroke-linejoin="round"/>
<path d="M20.1757 4L21.211 7.8637" stroke="black" stroke-width="1.5" stroke-linecap="round" stroke-linejoin="round"/>
<path d="M3.04785 9.62463L3.56549 11.5565" stroke="black" stroke-width="1.5" stroke-linecap="round" stroke-linejoin="round"/>
<path d="M10.6022 13.0377L13.5 12.2613" stroke="black" stroke-width="1.5" stroke-linecap="round" stroke-linejoin="round"/>
<path d="M7 20L12 13L17 20" stroke="black" stroke-width="1.5" stroke-linecap="round" stroke-linejoin="round"/>
<path d="M12 15V20" stroke="black" stroke-width="1.5" stroke-linecap="round" stroke-linejoin="round"/>
</svg>
