<svg width="24" height="24" viewBox="0 0 24 24" fill="none" xmlns="http://www.w3.org/2000/svg">
<path d="M12 21C14.2091 21 16 19.2091 16 17C16 15.7368 15.4145 14.6104 14.5 13.8773V5.5C14.5 4.11929 13.3807 3 12 3C10.6193 3 9.5 4.11929 9.5 5.5V13.8773C8.58554 14.6104 8 15.7368 8 17C8 19.2091 9.79086 21 12 21Z" stroke="black" stroke-width="1.5" stroke-linecap="round" stroke-linejoin="round"/>
<path d="M12 21C14.2091 21 16 19.2091 16 17C16 15.7368 15.4145 14.6104 14.5 13.8773V11H9.5V13.8773C8.58554 14.6104 8 15.7368 8 17C8 19.2091 9.79086 21 12 21Z" fill="black"/>
<circle cx="18" cy="5" r="1" stroke="black" stroke-width="1.5" stroke-linecap="round" stroke-linejoin="round"/>
</svg>
