<svg width="24" height="24" viewBox="0 0 24 24" fill="none" xmlns="http://www.w3.org/2000/svg">
<path d="M10 21V11C10 5.4 8 4 7 4H17C17 4 20 4 20 11V21H10Z" stroke="black" stroke-width="1.5" stroke-linecap="round" stroke-linejoin="round"/>
<path fill-rule="evenodd" clip-rule="evenodd" d="M5.30544 4.01628C5.75866 3.56899 6.33216 3.25 7 3.25C7.66784 3.25 8.24134 3.56899 8.69456 4.01628C9.14456 4.4604 9.51541 5.06586 9.81068 5.75481C10.4024 7.13539 10.75 8.99037 10.75 11C10.75 13.0096 10.4024 14.8646 9.81068 16.2452C9.51541 16.9341 9.14456 17.5396 8.69456 17.9837C8.24134 18.431 7.66784 18.75 7 18.75C6.33216 18.75 5.75866 18.431 5.30544 17.9837C4.85544 17.5396 4.48459 16.9341 4.18932 16.2452C3.59764 14.8646 3.25 13.0096 3.25 11C3.25 8.99037 3.59764 7.13539 4.18932 5.75481C4.48459 5.06586 4.85544 4.4604 5.30544 4.01628ZM7.75 10.5C7.75 10.0858 7.41421 9.75 7 9.75C6.58579 9.75 6.25 10.0858 6.25 10.5V11.5C6.25 11.9142 6.58579 12.25 7 12.25C7.41421 12.25 7.75 11.9142 7.75 11.5V10.5Z" fill="black"/>
<path d="M11 15H12" stroke="black" stroke-width="1.5" stroke-linecap="round" stroke-linejoin="round"/>
<path d="M14.5 15H15.5" stroke="black" stroke-width="1.5" stroke-linecap="round" stroke-linejoin="round"/>
<path d="M18 15H19" stroke="black" stroke-width="1.5" stroke-linecap="round" stroke-linejoin="round"/>
<path d="M7 18H10" stroke="black" stroke-width="1.5" stroke-linecap="round" stroke-linejoin="round"/>
</svg>
