<svg width="24" height="24" viewBox="0 0 24 24" fill="none" xmlns="http://www.w3.org/2000/svg">
<path opacity="0.2" d="M12 18C15.866 18 19 14.866 19 11H5C5 14.866 8.13401 18 12 18Z" fill="black"/>
<path d="M12 18C15.866 18 19 14.866 19 11H5C5 14.866 8.13401 18 12 18Z" stroke="black" stroke-width="1.5" stroke-linecap="round" stroke-linejoin="round"/>
<path d="M6.5 6C6.5 4.89543 7.39543 4 8.5 4H15.5C16.6046 4 17.5 4.89543 17.5 6V11H6.5V6Z" stroke="black" stroke-width="1.5" stroke-linecap="round" stroke-linejoin="round"/>
<path d="M9 18H15L16 20H8L9 18Z" stroke="black" stroke-width="1.5" stroke-linecap="round" stroke-linejoin="round"/>
<path d="M14 7H14.5" stroke="black" stroke-width="1.5" stroke-linecap="round" stroke-linejoin="round"/>
</svg>
