<svg width="24" height="24" viewBox="0 0 24 24" fill="none" xmlns="http://www.w3.org/2000/svg">
<path d="M5.00003 4.55187C7.30271 3.0657 9.25939 5.05187 12 5.05187C14.7407 5.05187 16.6973 3.06569 19 4.55187C21.9713 6.46954 20.5 10.0519 20 13.5519C19.5548 16.6687 19.136 20.8329 16 20.5519C13.5094 20.3287 14.5006 15.5519 12 15.5519C9.49944 15.5519 10.4906 20.3287 8.00002 20.5519C4.86408 20.8329 4.44527 16.6687 4.00002 13.5519C3.50003 10.0519 2.02878 6.46953 5.00003 4.55187Z" stroke="black" stroke-width="1.5" stroke-linecap="round" stroke-linejoin="round"/>
<path d="M8 6.55188L16 9.55188" stroke="black" stroke-width="1.5" stroke-linecap="round" stroke-linejoin="round"/>
<path d="M8 9.55188L16 6.55188" stroke="black" stroke-width="1.5" stroke-linecap="round" stroke-linejoin="round"/>
</svg>
