<svg width="24" height="24" viewBox="0 0 24 24" fill="none" xmlns="http://www.w3.org/2000/svg">
<path fill-rule="evenodd" clip-rule="evenodd" d="M15.4637 3.5219C16.6597 3.18991 17.9869 3.00537 19.4067 3.92175C20.2723 4.48042 20.8407 5.1816 21.1735 5.9892C21.5008 6.78345 21.583 7.63791 21.5512 8.48659C21.5195 9.33303 21.3721 10.2159 21.2095 11.0778C21.1679 11.2987 21.1254 11.5176 21.0831 11.7351L21.0831 11.7352L21.0831 11.7354C20.9572 12.3837 20.8337 13.0193 20.7425 13.658C20.7206 13.8109 20.6987 13.9682 20.6762 14.1289C20.4768 15.5571 20.2397 17.2546 19.7064 18.6021C19.4058 19.3617 18.9851 20.0831 18.361 20.5949C17.7141 21.1254 16.9027 21.3858 15.9331 21.2989C15.0128 21.2164 14.4215 20.6909 14.0381 20.071C13.6946 19.5157 13.4834 18.8283 13.3082 18.2581L13.3082 18.2581L13.3082 18.258L13.2869 18.1888C13.0905 17.5504 12.9306 17.0588 12.7036 16.7147C12.5126 16.425 12.3197 16.3019 12 16.3019C11.6803 16.3019 11.4875 16.425 11.2964 16.7147C11.0695 17.0588 10.9096 17.5504 10.7131 18.1888L10.6918 18.258C10.5166 18.8283 10.3054 19.5156 9.96195 20.071C9.57854 20.6909 8.98727 21.2164 8.06697 21.2989C7.09733 21.3858 6.28591 21.1254 5.63906 20.5949C5.01499 20.0831 4.59429 19.3617 4.29365 18.6021C3.76029 17.2546 3.52324 15.557 3.32381 14.1289L3.3238 14.1288C3.30137 13.9682 3.27941 13.8109 3.25756 13.658C3.16633 13.0193 3.04288 12.3837 2.91697 11.7354C2.87472 11.5178 2.83218 11.2988 2.7905 11.0778C2.62796 10.2159 2.48054 9.33303 2.44884 8.48659C2.41705 7.6379 2.49921 6.78345 2.82655 5.98919C3.15939 5.18159 3.72771 4.48042 4.59333 3.92174C6.01316 3.00537 7.34034 3.18991 8.5364 3.52191C8.8439 3.60727 9.13634 3.69841 9.42117 3.78718C10.2816 4.05536 11.0727 4.3019 12 4.3019C12.9274 4.3019 13.7184 4.05536 14.5789 3.78718L14.5789 3.78717C14.8637 3.6984 15.1562 3.60726 15.4637 3.5219ZM8.26336 10.2541C7.87552 10.3995 7.44321 10.203 7.29777 9.81518C7.15233 9.42734 7.34884 8.99503 7.73668 8.84959L9.86402 8.05184L7.73668 7.25409C7.34884 7.10865 7.15233 6.67634 7.29777 6.2885C7.44321 5.90066 7.87552 5.70415 8.26336 5.84959L12 7.25084L15.7367 5.84959C16.1245 5.70415 16.5568 5.90066 16.7023 6.2885C16.8477 6.67634 16.6512 7.10865 16.2634 7.25409L14.136 8.05184L16.2634 8.84959C16.6512 8.99503 16.8477 9.42734 16.7023 9.81518C16.5568 10.203 16.1245 10.3995 15.7367 10.2541L12 8.85284L8.26336 10.2541Z" fill="black"/>
</svg>
