<svg width="24" height="24" viewBox="0 0 24 24" fill="none" xmlns="http://www.w3.org/2000/svg">
<rect x="5" y="4" width="14" height="5" rx="2.5" stroke="black" stroke-width="1.5" stroke-linejoin="round"/>
<rect x="5" y="9" width="14" height="5" rx="2.5" stroke="black" stroke-width="1.5" stroke-linejoin="round"/>
<path d="M10 6.5H14.25C14.9404 6.5 15.5 5.94036 15.5 5.25V5.25C15.5 4.55964 14.9404 4 14.25 4H10" stroke="black" stroke-width="1.5" stroke-linecap="round" stroke-linejoin="round"/>
<path d="M10 11.5H14.25C14.9404 11.5 15.5 10.9404 15.5 10.25V10.25C15.5 9.55964 14.9404 9 14.25 9H10" stroke="black" stroke-width="1.5" stroke-linecap="round" stroke-linejoin="round"/>
<path d="M3 14H21V14.5C21 16.7091 19.2091 18.5 17 18.5H7C4.79086 18.5 3 16.7091 3 14.5V14Z" fill="black" stroke="black" stroke-width="1.5" stroke-linejoin="round"/>
<path d="M7.5 18.5V20" stroke="black" stroke-width="1.5" stroke-linecap="round" stroke-linejoin="round"/>
<path d="M16.5 18.5V20" stroke="black" stroke-width="1.5" stroke-linecap="round" stroke-linejoin="round"/>
</svg>
