<svg width="24" height="24" viewBox="0 0 24 24" fill="none" xmlns="http://www.w3.org/2000/svg">
<rect width="24" height="24" fill="white"/>
<path d="M15 9H15.5C18.5376 9 21 11.4624 21 14.5V14.5C21 17.5376 18.5376 20 15.5 20H8.5C5.46243 20 3 17.5376 3 14.5V14.5C3 11.4624 5.46243 9 8.5 9H9" stroke="black" stroke-width="1.5" stroke-linecap="round"/>
<path d="M6 14.5C6 13.1193 7.11929 12 8.5 12H15.5C16.8807 12 18 13.1193 18 14.5V14.5C18 15.8807 16.8807 17 15.5 17H8.5C7.11929 17 6 15.8807 6 14.5V14.5Z" fill="black" fill-opacity="0.2" stroke="black" stroke-width="1.5"/>
<path d="M14 5C14 5.78798 12.9822 7.48734 12.3987 8.39675C12.2099 8.69113 11.7901 8.69113 11.6013 8.39675C11.0178 7.48734 10 5.78798 10 5C10 3.89543 10.8954 3 12 3C13.1046 3 14 3.89543 14 5Z" fill="black" fill-opacity="0.2" stroke="black" stroke-width="1.5"/>
<path d="M9 17V20" stroke="black" stroke-width="1.5" stroke-linecap="round" stroke-linejoin="round"/>
</svg>
