<svg width="24" height="24" viewBox="0 0 24 24" fill="none" xmlns="http://www.w3.org/2000/svg">
<rect x="5" y="3" width="14" height="16" rx="2" stroke="black" stroke-width="1.5" stroke-linecap="round" stroke-linejoin="round"/>
<path d="M8 19L6 21" stroke="black" stroke-width="1.5" stroke-linecap="round"/>
<path d="M16 19L18 21" stroke="black" stroke-width="1.5" stroke-linecap="round"/>
<path fill-rule="evenodd" clip-rule="evenodd" d="M4.25 13C4.25 12.5858 4.58579 12.25 5 12.25H19C19.4142 12.25 19.75 12.5858 19.75 13V17C19.75 18.5188 18.5188 19.75 17 19.75H7C5.48122 19.75 4.25 18.5188 4.25 17V13ZM8.49001 15.25C8.07579 15.25 7.74001 15.5858 7.74001 16C7.74001 16.4142 8.07579 16.75 8.49001 16.75H8.50001C8.91422 16.75 9.25001 16.4142 9.25001 16C9.25001 15.5858 8.91422 15.25 8.50001 15.25H8.49001ZM15.5 15.25C15.0858 15.25 14.75 15.5858 14.75 16C14.75 16.4142 15.0858 16.75 15.5 16.75H15.51C15.9242 16.75 16.26 16.4142 16.26 16C16.26 15.5858 15.9242 15.25 15.51 15.25H15.5Z" fill="black"/>
</svg>
