<svg width="24" height="24" viewBox="0 0 24 24" fill="none" xmlns="http://www.w3.org/2000/svg">
<path d="M4.5 8L15.2502 4.12992C16.2365 3.77486 17.3296 4.24153 17.7553 5.19941L19 8" stroke="black" stroke-width="1.5" stroke-linecap="round" stroke-linejoin="round"/>
<path fill-rule="evenodd" clip-rule="evenodd" d="M2.25 10C2.25 8.48122 3.48122 7.25 5 7.25H19C20.5188 7.25 21.75 8.48122 21.75 10V18C21.75 19.5188 20.5188 20.75 19 20.75H5C3.48122 20.75 2.25 19.5188 2.25 18V10ZM7.25 9.00002C7.25 8.5858 6.91421 8.25002 6.5 8.25002C6.08579 8.25002 5.75 8.5858 5.75 9.00002V10.25C5.75 10.6642 6.08579 11 6.5 11C6.91421 11 7.25 10.6642 7.25 10.25V9.00002ZM7.25 12.75C7.25 12.3358 6.91421 12 6.5 12C6.08579 12 5.75 12.3358 5.75 12.75V15.25C5.75 15.6642 6.08579 16 6.5 16C6.91421 16 7.25 15.6642 7.25 15.25V12.75ZM7.25 17.75C7.25 17.3358 6.91421 17 6.5 17C6.08579 17 5.75 17.3358 5.75 17.75V19C5.75 19.4142 6.08579 19.75 6.5 19.75C6.91421 19.75 7.25 19.4142 7.25 19V17.75ZM18.0303 12.5303C18.3232 12.2374 18.3232 11.7626 18.0303 11.4697C17.7374 11.1768 17.2626 11.1768 16.9697 11.4697L15.1893 13.25H11.5C11.0858 13.25 10.75 13.5858 10.75 14C10.75 14.4142 11.0858 14.75 11.5 14.75H13.6893L12.5555 15.8839C12.321 16.1183 12.0031 16.25 11.6716 16.25H10.5C10.0858 16.25 9.75 16.5858 9.75 17C9.75 17.4142 10.0858 17.75 10.5 17.75H11.6716C12.4009 17.75 13.1004 17.4603 13.6161 16.9445L18.0303 12.5303Z" fill="black"/>
</svg>
