<svg width="24" height="24" viewBox="0 0 24 24" fill="none" xmlns="http://www.w3.org/2000/svg">
<path fill-rule="evenodd" clip-rule="evenodd" d="M17 3.25C16.1949 3.25 15.4964 3.6408 14.9374 4.15101C14.3763 4.6632 13.8976 5.34601 13.5107 6.06693C12.744 7.49558 12.25 9.24225 12.25 10.5C12.25 11.8445 12.8146 12.8365 13.7608 13.4559C14.4662 13.9177 15.339 14.1442 16.25 14.2199V18.25H12.75V15.75H13C13.4142 15.75 13.75 15.4142 13.75 15C13.75 14.5858 13.4142 14.25 13 14.25H12.75V13C12.75 12.5858 12.4142 12.25 12 12.25C11.5858 12.25 11.25 12.5858 11.25 13V14.25H8.75V13C8.75 12.5858 8.41421 12.25 8 12.25C7.58579 12.25 7.25 12.5858 7.25 13V14.25H4.75V13C4.75 12.5858 4.41421 12.25 4 12.25C3.58579 12.25 3.25 12.5858 3.25 13V14.25H3C2.58579 14.25 2.25 14.5858 2.25 15C2.25 15.4142 2.58579 15.75 3 15.75H3.25V18.25H3C2.58579 18.25 2.25 18.5858 2.25 19C2.25 19.4142 2.58579 19.75 3 19.75H21C21.4142 19.75 21.75 19.4142 21.75 19C21.75 18.5858 21.4142 18.25 21 18.25H17.75V14.2199C18.661 14.1442 19.5338 13.9177 20.2392 13.4559C21.1854 12.8365 21.75 11.8445 21.75 10.5C21.75 9.24225 21.256 7.49558 20.4893 6.06693C20.1024 5.34601 19.6237 4.6632 19.0626 4.15101C18.5036 3.6408 17.8051 3.25 17 3.25ZM17.75 14V12.2631L19.5857 9.96855C19.8444 9.6451 19.792 9.17313 19.4685 8.91438C19.1451 8.65562 18.6731 8.70806 18.4144 9.03151L17 10.7994L15.5857 9.03151C15.3269 8.70806 14.855 8.65562 14.5315 8.91438C14.2081 9.17313 14.1556 9.6451 14.4144 9.96855L16.25 12.2631V14H17.75ZM8.75 15.75H11.25V18.25H8.75V15.75ZM4.75 15.75H7.25V18.25H4.75V15.75Z" fill="black"/>
</svg>
