<svg width="24" height="24" viewBox="0 0 24 24" fill="none" xmlns="http://www.w3.org/2000/svg">
<path d="M2.5 4V4C3.60457 4 4.5 4.89543 4.5 6V15C4.5 16.1046 5.39543 17 6.5 17H21" stroke="black" stroke-width="1.5" stroke-linecap="round" stroke-linejoin="round"/>
<path d="M10.5 19C10.5 20.1046 9.60457 21 8.5 21C7.39543 21 6.5 20.1046 6.5 19C6.5 17.8954 7.39543 17 8.5 17C9.60457 17 10.5 17.8954 10.5 19Z" stroke="black" stroke-width="1.5" stroke-linecap="round" stroke-linejoin="round"/>
<path d="M20 19C20 20.1046 19.1046 21 18 21C16.8954 21 16 20.1046 16 19C16 17.8954 16.8954 17 18 17C19.1046 17 20 17.8954 20 19Z" stroke="black" stroke-width="1.5" stroke-linecap="round" stroke-linejoin="round"/>
<path d="M7.5 7.5C7.5 6.94772 7.94772 6.5 8.5 6.5H19C19.5523 6.5 20 6.94772 20 7.5V13C20 13.5523 19.5523 14 19 14H8.5C7.94772 14 7.5 13.5523 7.5 13V7.5Z" fill="black" stroke="black" stroke-width="1.5" stroke-linecap="round" stroke-linejoin="round"/>
<path d="M11.5 5C11.5 4.44772 11.9477 4 12.5 4H15.5C16.0523 4 16.5 4.44772 16.5 5V6.5H11.5V5Z" stroke="black" stroke-width="1.5" stroke-linecap="round" stroke-linejoin="round"/>
</svg>
