<svg width="24" height="24" viewBox="0 0 24 24" fill="none" xmlns="http://www.w3.org/2000/svg">
<path d="M8 4L12 8L16 4" stroke="black" stroke-width="1.5" stroke-linecap="round" stroke-linejoin="round"/>
<path fill-rule="evenodd" clip-rule="evenodd" d="M3.25 10C3.25 8.48122 4.48122 7.25 6 7.25H18C19.5188 7.25 20.75 8.48122 20.75 10V18C20.75 19.5188 19.5188 20.75 18 20.75H6C4.48122 20.75 3.25 19.5188 3.25 18V10ZM17.75 11C17.75 10.5858 17.4142 10.25 17 10.25C16.5858 10.25 16.25 10.5858 16.25 11V11.01C16.25 11.4242 16.5858 11.76 17 11.76C17.4142 11.76 17.75 11.4242 17.75 11.01V11ZM17.75 14C17.75 13.5858 17.4142 13.25 17 13.25C16.5858 13.25 16.25 13.5858 16.25 14V14.01C16.25 14.4242 16.5858 14.76 17 14.76C17.4142 14.76 17.75 14.4242 17.75 14.01V14Z" fill="black"/>
</svg>
