<svg width="24" height="24" viewBox="0 0 24 24" fill="none" xmlns="http://www.w3.org/2000/svg">
<rect width="24" height="24" fill="white"/>
<circle cx="18" cy="18" r="2" stroke="black" stroke-width="1.5"/>
<path d="M15 12C12.7909 12 11 13.7909 11 16V17C11 18.1046 11.8954 19 13 19H16.2676C16.0974 18.7058 16 18.3643 16 18C16 16.8954 16.8954 16 18 16C18.9319 16 19.778 16.6374 20 17.5C20 17.5 20 16.1726 20 16V14C20 12.8954 19.1046 12 18 12H15Z" fill="black" fill-opacity="0.2" stroke="black" stroke-width="1.5" stroke-linejoin="round"/>
<path d="M14 12L14.8724 6.69504C15.1355 5.0951 14.1108 3.56585 12.5311 3.20067C10.8629 2.81505 9.20108 3.86652 8.83519 5.53915L6 18.5" stroke="black" stroke-width="1.5" stroke-linejoin="round"/>
<path d="M4 19H8.5" stroke="black" stroke-width="1.5" stroke-linecap="round"/>
</svg>
