<svg width="24" height="24" viewBox="0 0 24 24" fill="none" xmlns="http://www.w3.org/2000/svg">
<rect width="24" height="24" fill="white"/>
<path fill-rule="evenodd" clip-rule="evenodd" d="M5 5C4.44772 5 4 5.44772 4 6V16C4 16.5523 4.44772 17 5 17H19C19.5523 17 20 16.5523 20 16V6C20 5.44772 19.5523 5 19 5H5ZM15 13C16.1046 13 17 12.1046 17 11C17 9.89543 16.1046 9 15 9C13.8954 9 13 9.89543 13 11C13 12.1046 13.8954 13 15 13Z" fill="black"/>
<rect x="4" y="5" width="16" height="12" rx="1" stroke="black" stroke-width="1.5" stroke-linecap="round" stroke-linejoin="round"/>
<circle cx="15" cy="11" r="2" fill="black" stroke="white" stroke-width="1.5" stroke-linecap="round" stroke-linejoin="round"/>
<path d="M17 10.25C16.5858 10.25 16.25 10.5858 16.25 11C16.25 11.4142 16.5858 11.75 17 11.75V10.25ZM17 11.75H20V10.25H17V11.75Z" fill="white"/>
<path d="M6 17V19M18 17V19" stroke="black" stroke-width="1.5" stroke-linecap="round" stroke-linejoin="round"/>
</svg>
