<svg width="24" height="24" viewBox="0 0 24 24" fill="none" xmlns="http://www.w3.org/2000/svg">
<path d="M6 17V19M18 17V19" stroke="black" stroke-width="1.5" stroke-linecap="round" stroke-linejoin="round"/>
<path fill-rule="evenodd" clip-rule="evenodd" d="M3.25 6C3.25 5.0335 4.0335 4.25 5 4.25H19C19.9665 4.25 20.75 5.0335 20.75 6V10.25H18.3965C18.07 9.09575 17.0088 8.25 15.75 8.25C14.2312 8.25 13 9.48122 13 11C13 12.5188 14.2312 13.75 15.75 13.75C17.0088 13.75 18.07 12.9043 18.3965 11.75H20.75V16C20.75 16.9665 19.9665 17.75 19 17.75H5C4.0335 17.75 3.25 16.9665 3.25 16V6ZM14.5 11C14.5 10.3096 15.0596 9.75 15.75 9.75C16.4404 9.75 17 10.3096 17 11C17 11.6904 16.4404 12.25 15.75 12.25C15.0596 12.25 14.5 11.6904 14.5 11Z" fill="black"/>
</svg>
