<svg width="24" height="24" viewBox="0 0 24 24" fill="none" xmlns="http://www.w3.org/2000/svg">
<path fill-rule="evenodd" clip-rule="evenodd" d="M3.25 5C3.25 3.48122 4.48122 2.25 6 2.25H18C19.5188 2.25 20.75 3.48122 20.75 5V19C20.75 20.5188 19.5188 21.75 18 21.75H6C4.48122 21.75 3.25 20.5188 3.25 19V5ZM6.25 6.5C6.25 5.5335 7.0335 4.75 8 4.75H12C12.9665 4.75 13.75 5.5335 13.75 6.5V11C13.75 11.9665 12.9665 12.75 12 12.75H8C7.0335 12.75 6.25 11.9665 6.25 11V6.5ZM8 6.25C7.86193 6.25 7.75 6.36193 7.75 6.5V11C7.75 11.1381 7.86193 11.25 8 11.25H12C12.1381 11.25 12.25 11.1381 12.25 11V6.5C12.25 6.36193 12.1381 6.25 12 6.25H8ZM6.25 15.5C6.25 14.5335 7.0335 13.75 8 13.75H12C12.9665 13.75 13.75 14.5335 13.75 15.5V17.5C13.75 18.4665 12.9665 19.25 12 19.25H8C7.0335 19.25 6.25 18.4665 6.25 17.5V15.5ZM8 15.25C7.86193 15.25 7.75 15.3619 7.75 15.5V17.5C7.75 17.6381 7.86193 17.75 8 17.75H12C12.1381 17.75 12.25 17.6381 12.25 17.5V15.5C12.25 15.3619 12.1381 15.25 12 15.25H8ZM16 5.25C15.5858 5.25 15.25 5.58579 15.25 6C15.25 6.41421 15.5858 6.75 16 6.75H17C17.4142 6.75 17.75 6.41421 17.75 6C17.75 5.58579 17.4142 5.25 17 5.25H16ZM15.25 8C15.25 7.58579 15.5858 7.25 16 7.25H17C17.4142 7.25 17.75 7.58579 17.75 8C17.75 8.41421 17.4142 8.75 17 8.75H16C15.5858 8.75 15.25 8.41421 15.25 8ZM16 9.25C15.5858 9.25 15.25 9.58579 15.25 10C15.25 10.4142 15.5858 10.75 16 10.75H17C17.4142 10.75 17.75 10.4142 17.75 10C17.75 9.58579 17.4142 9.25 17 9.25H16Z" fill="black"/>
</svg>
