<svg width="24" height="24" viewBox="0 0 24 24" fill="none" xmlns="http://www.w3.org/2000/svg">
<rect width="24" height="24" fill="white"/>
<rect x="4" y="3" width="16" height="18" rx="2" fill="black" stroke="black" stroke-width="1.5" stroke-linecap="round" stroke-linejoin="round"/>
<path d="M12 18.5H8C7.44772 18.5 7 18.0523 7 17.5V15.5C7 14.9477 7.44772 14.5 8 14.5H12C12.5523 14.5 13 14.9477 13 15.5V17.5C13 18.0523 12.5523 18.5 12 18.5Z" stroke="white" stroke-width="1.5" stroke-linecap="round" stroke-linejoin="round"/>
<path d="M12 12H8C7.44772 12 7 11.5523 7 11V6.5C7 5.94772 7.44772 5.5 8 5.5H12C12.5523 5.5 13 5.94772 13 6.5V11C13 11.5523 12.5523 12 12 12Z" stroke="white" stroke-width="1.5" stroke-linecap="round" stroke-linejoin="round"/>
<path d="M16 6H17" stroke="white" stroke-width="1.5" stroke-linecap="round" stroke-linejoin="round"/>
<path d="M16 8H17" stroke="white" stroke-width="1.5" stroke-linecap="round" stroke-linejoin="round"/>
<path d="M16 10H17" stroke="white" stroke-width="1.5" stroke-linecap="round" stroke-linejoin="round"/>
</svg>
