<svg width="24" height="24" viewBox="0 0 24 24" fill="none" xmlns="http://www.w3.org/2000/svg">
<path fill-rule="evenodd" clip-rule="evenodd" d="M3 8H21V17C21 18.1046 20.1046 19 19 19H5C3.89543 19 3 18.1046 3 17V8ZM18 13.5C18 14.6046 17.1046 15.5 16 15.5C14.8954 15.5 14 14.6046 14 13.5C14 12.3954 14.8954 11.5 16 11.5C17.1046 11.5 18 12.3954 18 13.5ZM8 15.5C9.10457 15.5 10 14.6046 10 13.5C10 12.3954 9.10457 11.5 8 11.5C6.89543 11.5 6 12.3954 6 13.5C6 14.6046 6.89543 15.5 8 15.5Z" fill="black" fill-opacity="0.2"/>
<rect x="3" y="5" width="18" height="14" rx="2" stroke="black" stroke-width="1.5" stroke-linecap="round" stroke-linejoin="round"/>
<path d="M3 8H21" stroke="black" stroke-width="1.5" stroke-linecap="round" stroke-linejoin="round"/>
<path d="M10 13.5C10 14.6046 9.10457 15.5 8 15.5C6.89543 15.5 6 14.6046 6 13.5C6 12.3954 6.89543 11.5 8 11.5C9.10457 11.5 10 12.3954 10 13.5Z" stroke="black" stroke-width="1.5" stroke-linecap="round" stroke-linejoin="round"/>
<path d="M18 13.5C18 14.6046 17.1046 15.5 16 15.5C14.8954 15.5 14 14.6046 14 13.5C14 12.3954 14.8954 11.5 16 11.5C17.1046 11.5 18 12.3954 18 13.5Z" stroke="black" stroke-width="1.5" stroke-linecap="round" stroke-linejoin="round"/>
<path d="M8 11.5L16 11.5" stroke="black" stroke-width="1.5" stroke-linecap="round" stroke-linejoin="round"/>
</svg>
