<svg width="24" height="24" viewBox="0 0 24 24" fill="none" xmlns="http://www.w3.org/2000/svg">
<rect x="3" y="5" width="18" height="14" rx="2" stroke="black" stroke-width="1.5" stroke-linecap="round" stroke-linejoin="round"/>
<path d="M3 8H21" stroke="black" stroke-width="1.5" stroke-linecap="round" stroke-linejoin="round"/>
<path fill-rule="evenodd" clip-rule="evenodd" d="M21 8H3V17C3 18.1046 3.89543 19 5 19H19C20.1046 19 21 18.1046 21 17V8ZM8 12.25C7.30964 12.25 6.75 12.8096 6.75 13.5C6.75 14.1904 7.30964 14.75 8 14.75C8.69036 14.75 9.25 14.1904 9.25 13.5C9.25 12.8096 8.69036 12.25 8 12.25ZM10.4501 12.25C10.6419 12.625 10.75 13.0499 10.75 13.5C10.75 15.0188 9.51878 16.25 8 16.25C6.48122 16.25 5.25 15.0188 5.25 13.5C5.25 11.9812 6.48122 10.75 8 10.75H16C17.5188 10.75 18.75 11.9812 18.75 13.5C18.75 15.0188 17.5188 16.25 16 16.25C14.4812 16.25 13.25 15.0188 13.25 13.5C13.25 13.0499 13.3581 12.625 13.5499 12.25H10.4501ZM16 12.25C15.3096 12.25 14.75 12.8096 14.75 13.5C14.75 14.1904 15.3096 14.75 16 14.75C16.6904 14.75 17.25 14.1904 17.25 13.5C17.25 12.8096 16.6904 12.25 16 12.25Z" fill="black"/>
</svg>
