<svg width="24" height="24" viewBox="0 0 24 24" fill="none" xmlns="http://www.w3.org/2000/svg">
<path d="M12 15C15.866 15 19 12.3137 19 9C19 5.68629 15.866 3 12 3" stroke="black" stroke-width="1.5" stroke-linecap="round" stroke-linejoin="round"/>
<path d="M15 12C15 8.13401 12.3137 5 9 5C5.68629 5 3 8.13401 3 12" stroke="black" stroke-width="1.5" stroke-linecap="round" stroke-linejoin="round"/>
<path d="M12 9C8.13401 9 5 11.6863 5 15C5 18.3137 8.13401 21 12 21" stroke="black" stroke-width="1.5" stroke-linecap="round" stroke-linejoin="round"/>
<path d="M9 12C9 15.866 11.6863 19 15 19C18.3137 19 21 15.866 21 12" stroke="black" stroke-width="1.5" stroke-linecap="round" stroke-linejoin="round"/>
<circle cx="12" cy="12" r="3" fill="black" fill-opacity="0.2" stroke="black" stroke-width="1.5" stroke-linecap="round" stroke-linejoin="round"/>
</svg>
