<svg width="24" height="24" viewBox="0 0 24 24" fill="none" xmlns="http://www.w3.org/2000/svg">
<path fill-rule="evenodd" clip-rule="evenodd" d="M6 2.25C4.48122 2.25 3.25 3.48122 3.25 5V19C3.25 20.5188 4.48122 21.75 6 21.75H18C19.5188 21.75 20.75 20.5188 20.75 19V5C20.75 3.48122 19.5188 2.25 18 2.25H6ZM16.75 13C16.75 15.6234 14.6234 17.75 12 17.75C9.37665 17.75 7.25 15.6234 7.25 13C7.25 10.3766 9.37665 8.25 12 8.25C14.6234 8.25 16.75 10.3766 16.75 13ZM12 9.75C11.3096 9.75 10.75 10.3096 10.75 11C10.75 11.6904 11.3096 12.25 12 12.25C13.4347 12.25 14.6127 13.3486 14.7388 14.7504C15.0624 14.2452 15.25 13.6445 15.25 13C15.25 11.2051 13.7949 9.75 12 9.75ZM12 13.75C10.5653 13.75 9.38729 12.6514 9.26117 11.2496C8.9376 11.7548 8.75 12.3555 8.75 13C8.75 14.7949 10.2051 16.25 12 16.25C12.6904 16.25 13.25 15.6904 13.25 15C13.25 14.3096 12.6904 13.75 12 13.75ZM16.25 6C16.25 5.58579 16.5858 5.25 17 5.25H17.001C17.4152 5.25 17.751 5.58579 17.751 6C17.751 6.41421 17.4152 6.75 17.001 6.75H17C16.5858 6.75 16.25 6.41421 16.25 6ZM5.5 5.25C5.08579 5.25 4.75 5.58579 4.75 6C4.75 6.41421 5.08579 6.75 5.5 6.75H7C7.41421 6.75 7.75 6.41421 7.75 6C7.75 5.58579 7.41421 5.25 7 5.25H5.5Z" fill="black"/>
</svg>
