<svg width="24" height="24" viewBox="0 0 24 24" fill="none" xmlns="http://www.w3.org/2000/svg">
<path d="M4 5C4 3.89543 4.89543 3 6 3H18C19.1046 3 20 3.89543 20 5V19C20 20.1046 19.1046 21 18 21H6C4.89543 21 4 20.1046 4 19V5Z" stroke="black" stroke-width="1.5"/>
<circle cx="12" cy="13" r="4" stroke="black" stroke-width="1.5"/>
<path d="M12 13C10.8954 13 10 12.1046 10 11C10 9.89543 10.8954 9 12 9" stroke="black" stroke-width="1.5"/>
<path d="M12 17C13.1046 17 14 16.1046 14 15C14 13.8954 13.1046 13 12 13" stroke="black" stroke-width="1.5"/>
<path d="M4.5 6H7" stroke="black" stroke-width="1.5" stroke-linecap="round" stroke-linejoin="round"/>
<path d="M17 6H17.001" stroke="black" stroke-width="1.5" stroke-linecap="round" stroke-linejoin="round"/>
</svg>
