<svg width="24" height="24" viewBox="0 0 24 24" fill="none" xmlns="http://www.w3.org/2000/svg">
<path d="M6 10H18V18C18 19.1046 17.1046 20 16 20H8C6.89543 20 6 19.1046 6 18V10Z" stroke="black" stroke-width="1.5"/>
<path d="M9 15C9 13.8954 9.89543 13 11 13H13C14.1046 13 15 13.8954 15 15V20H9V15Z" stroke="black" stroke-width="1.5"/>
<path d="M6 10H18" stroke="black" stroke-width="1.5" stroke-linecap="round" stroke-linejoin="bevel"/>
<path fill-rule="evenodd" clip-rule="evenodd" d="M5.25 10.75H18.75V6C18.75 4.48122 17.5188 3.25 16 3.25H8C6.48122 3.25 5.25 4.48122 5.25 6V10.75ZM10 6.25C9.58579 6.25 9.25 6.58579 9.25 7C9.25 7.41421 9.58579 7.75 10 7.75H14C14.4142 7.75 14.75 7.41421 14.75 7C14.75 6.58579 14.4142 6.25 14 6.25H10Z" fill="black"/>
<path d="M8 20V21" stroke="black" stroke-width="1.5" stroke-linecap="round" stroke-linejoin="bevel"/>
<path d="M16 20V21" stroke="black" stroke-width="1.5" stroke-linecap="round" stroke-linejoin="bevel"/>
<path d="M12 13V15.5" stroke="black" stroke-width="1.5" stroke-linecap="round" stroke-linejoin="bevel"/>
</svg>
