<svg width="24" height="24" viewBox="0 0 24 24" fill="none" xmlns="http://www.w3.org/2000/svg">
<path d="M6 10H18V18C18 19.1046 17.1046 20 16 20H8C6.89543 20 6 19.1046 6 18V10Z" stroke="black" stroke-width="1.5"/>
<path d="M6 10H18V6C18 4.89543 17.1046 4 16 4H8C6.89543 4 6 4.89543 6 6V10Z" stroke="black" stroke-width="1.5"/>
<path d="M9 15C9 13.8954 9.89543 13 11 13H13C14.1046 13 15 13.8954 15 15V20H9V15Z" stroke="black" stroke-width="1.5"/>
<path d="M6 10H18" stroke="black" stroke-width="1.5" stroke-linecap="round" stroke-linejoin="bevel"/>
<path d="M10 7H14" stroke="black" stroke-width="1.5" stroke-linecap="round" stroke-linejoin="bevel"/>
<path d="M8 20V21" stroke="black" stroke-width="1.5" stroke-linecap="round" stroke-linejoin="bevel"/>
<path d="M16 20V21" stroke="black" stroke-width="1.5" stroke-linecap="round" stroke-linejoin="bevel"/>
<path d="M12 13V15.5" stroke="black" stroke-width="1.5" stroke-linecap="round" stroke-linejoin="bevel"/>
</svg>
