<svg width="24" height="24" viewBox="0 0 24 24" fill="none" xmlns="http://www.w3.org/2000/svg">
<path d="M13 14C13 11.2386 10.7614 9 8 9C5.23858 9 3 11.2386 3 14C3 16.7614 5.23858 19 8 19C8.91072 19 9.76457 18.7565 10.5 18.3311" stroke="black" stroke-width="1.5" stroke-linecap="round" stroke-linejoin="round"/>
<path d="M11 14C11 16.7614 13.2386 19 16 19C18.7614 19 21 16.7614 21 14C21 11.2386 18.7614 9 16 9C14.9712 9 14.015 9.31072 13.22 9.84343" stroke="black" stroke-width="1.5" stroke-linecap="round" stroke-linejoin="round"/>
<path d="M14.5 5C14.5 6.10457 12 7.49095 12 7.49095C12 7.49095 9.5 6.10457 9.5 5C9.5 4.34423 10 4 10.5 4C11 4 12 4.50004 12 4.49092C12 4.50002 13 4 13.5 4C14 4 14.5 4.34423 14.5 5Z" stroke="black" stroke-width="1.5" stroke-linecap="round" stroke-linejoin="round"/>
</svg>
