<svg width="24" height="24" viewBox="0 0 24 24" fill="none" xmlns="http://www.w3.org/2000/svg">
<path d="M4 19C4 17.3431 5.34315 16 7 16H20L19.9289 16.0711C18.0536 17.9464 15.51 19 12.8579 19H4Z" fill="black" stroke="black" stroke-width="1.5" stroke-linecap="round" stroke-linejoin="round"/>
<path d="M6 19V20.5" stroke="black" stroke-width="1.5" stroke-linecap="round" stroke-linejoin="round"/>
<path fill-rule="evenodd" clip-rule="evenodd" d="M4.25 4C4.25 3.58579 4.58579 3.25 5 3.25L10 3.25C12.6234 3.25 14.75 5.37665 14.75 8V9.25H7.25V7C7.25 5.75736 6.24264 4.75 5 4.75C4.58579 4.75 4.25 4.41421 4.25 4ZM7.25 10.75H6C5.58579 10.75 5.25 10.4142 5.25 10C5.25 9.58579 5.58579 9.25 6 9.25H7.25V10.75ZM14.75 10.75V16C14.75 16.4142 14.4142 16.75 14 16.75C13.5858 16.75 13.25 16.4142 13.25 16V13.75H9C8.0335 13.75 7.25 12.9665 7.25 12V10.75H14.75Z" fill="black"/>
</svg>
